%TF.GenerationSoftware,KiCad,Pcbnew,(5.1.8-0-10_14)*%
%TF.CreationDate,2021-03-06T23:06:48+08:00*%
%TF.ProjectId,upper_board,75707065-725f-4626-9f61-72642e6b6963,v0.1.3*%
%TF.SameCoordinates,Original*%
%TF.FileFunction,Paste,Top*%
%TF.FilePolarity,Positive*%
%FSLAX46Y46*%
G04 Gerber Fmt 4.6, Leading zero omitted, Abs format (unit mm)*
G04 Created by KiCad (PCBNEW (5.1.8-0-10_14)) date 2021-03-06 23:06:48*
%MOMM*%
%LPD*%
G01*
G04 APERTURE LIST*
%ADD10R,1.950000X1.650000*%
%ADD11R,1.000000X1.500000*%
%ADD12R,0.350000X0.500000*%
%ADD13R,0.300000X0.450000*%
%ADD14R,0.450000X0.300000*%
%ADD15R,0.250000X0.675000*%
%ADD16R,0.675000X0.250000*%
%ADD17R,1.500000X0.800000*%
%ADD18R,1.160000X0.600000*%
%ADD19R,1.160000X0.300000*%
G04 APERTURE END LIST*
D10*
%TO.C,Y2*%
X149361300Y-72166300D03*
X152111300Y-72166300D03*
X152111300Y-74366300D03*
X149361300Y-74366300D03*
%TD*%
D11*
%TO.C,Y1*%
X151975800Y-76822300D03*
X149275800Y-76822300D03*
%TD*%
D12*
%TO.C,U8*%
X124292000Y-91757600D03*
X123642000Y-93357600D03*
X122992000Y-93357600D03*
X122342000Y-93357600D03*
X123642000Y-91757600D03*
X122992000Y-91757600D03*
X122342000Y-91757600D03*
X124292000Y-93357600D03*
%TD*%
D13*
%TO.C,U7*%
X121809700Y-98379200D03*
X122309700Y-98379200D03*
X122809700Y-98379200D03*
X121309700Y-98379200D03*
D14*
X120784700Y-96354200D03*
X120784700Y-97354200D03*
X120784700Y-96854200D03*
X120784700Y-97854200D03*
D13*
X121309700Y-95829200D03*
X121809700Y-95829200D03*
X122309700Y-95829200D03*
X122809700Y-95829200D03*
D14*
X123334700Y-97354200D03*
X123334700Y-96854200D03*
X123334700Y-96354200D03*
X123334700Y-97854200D03*
%TD*%
D15*
%TO.C,U6*%
X142975900Y-68282700D03*
X143475900Y-68282700D03*
X143975900Y-68282700D03*
X144475900Y-68282700D03*
X144475900Y-70807700D03*
X143975900Y-70807700D03*
X143475900Y-70807700D03*
X142975900Y-70807700D03*
D16*
X144738400Y-69045200D03*
X144738400Y-69545200D03*
X144738400Y-70045200D03*
X142713400Y-69045200D03*
X142713400Y-70045200D03*
X142713400Y-69545200D03*
%TD*%
%TO.C,U5*%
G36*
G01*
X134585800Y-69902700D02*
X134210800Y-69902700D01*
G75*
G02*
X134123300Y-69815200I0J87500D01*
G01*
X134123300Y-69640200D01*
G75*
G02*
X134210800Y-69552700I87500J0D01*
G01*
X134585800Y-69552700D01*
G75*
G02*
X134673300Y-69640200I0J-87500D01*
G01*
X134673300Y-69815200D01*
G75*
G02*
X134585800Y-69902700I-87500J0D01*
G01*
G37*
G36*
G01*
X134585800Y-69402700D02*
X134210800Y-69402700D01*
G75*
G02*
X134123300Y-69315200I0J87500D01*
G01*
X134123300Y-69140200D01*
G75*
G02*
X134210800Y-69052700I87500J0D01*
G01*
X134585800Y-69052700D01*
G75*
G02*
X134673300Y-69140200I0J-87500D01*
G01*
X134673300Y-69315200D01*
G75*
G02*
X134585800Y-69402700I-87500J0D01*
G01*
G37*
G36*
G01*
X134585800Y-68902700D02*
X134210800Y-68902700D01*
G75*
G02*
X134123300Y-68815200I0J87500D01*
G01*
X134123300Y-68640200D01*
G75*
G02*
X134210800Y-68552700I87500J0D01*
G01*
X134585800Y-68552700D01*
G75*
G02*
X134673300Y-68640200I0J-87500D01*
G01*
X134673300Y-68815200D01*
G75*
G02*
X134585800Y-68902700I-87500J0D01*
G01*
G37*
G36*
G01*
X134710800Y-68277700D02*
X134535800Y-68277700D01*
G75*
G02*
X134448300Y-68190200I0J87500D01*
G01*
X134448300Y-67815200D01*
G75*
G02*
X134535800Y-67727700I87500J0D01*
G01*
X134710800Y-67727700D01*
G75*
G02*
X134798300Y-67815200I0J-87500D01*
G01*
X134798300Y-68190200D01*
G75*
G02*
X134710800Y-68277700I-87500J0D01*
G01*
G37*
G36*
G01*
X135210800Y-68277700D02*
X135035800Y-68277700D01*
G75*
G02*
X134948300Y-68190200I0J87500D01*
G01*
X134948300Y-67815200D01*
G75*
G02*
X135035800Y-67727700I87500J0D01*
G01*
X135210800Y-67727700D01*
G75*
G02*
X135298300Y-67815200I0J-87500D01*
G01*
X135298300Y-68190200D01*
G75*
G02*
X135210800Y-68277700I-87500J0D01*
G01*
G37*
G36*
G01*
X135710800Y-68277700D02*
X135535800Y-68277700D01*
G75*
G02*
X135448300Y-68190200I0J87500D01*
G01*
X135448300Y-67815200D01*
G75*
G02*
X135535800Y-67727700I87500J0D01*
G01*
X135710800Y-67727700D01*
G75*
G02*
X135798300Y-67815200I0J-87500D01*
G01*
X135798300Y-68190200D01*
G75*
G02*
X135710800Y-68277700I-87500J0D01*
G01*
G37*
G36*
G01*
X136210800Y-68277700D02*
X136035800Y-68277700D01*
G75*
G02*
X135948300Y-68190200I0J87500D01*
G01*
X135948300Y-67815200D01*
G75*
G02*
X136035800Y-67727700I87500J0D01*
G01*
X136210800Y-67727700D01*
G75*
G02*
X136298300Y-67815200I0J-87500D01*
G01*
X136298300Y-68190200D01*
G75*
G02*
X136210800Y-68277700I-87500J0D01*
G01*
G37*
G36*
G01*
X136710800Y-68277700D02*
X136535800Y-68277700D01*
G75*
G02*
X136448300Y-68190200I0J87500D01*
G01*
X136448300Y-67815200D01*
G75*
G02*
X136535800Y-67727700I87500J0D01*
G01*
X136710800Y-67727700D01*
G75*
G02*
X136798300Y-67815200I0J-87500D01*
G01*
X136798300Y-68190200D01*
G75*
G02*
X136710800Y-68277700I-87500J0D01*
G01*
G37*
G36*
G01*
X137035800Y-68902700D02*
X136660800Y-68902700D01*
G75*
G02*
X136573300Y-68815200I0J87500D01*
G01*
X136573300Y-68640200D01*
G75*
G02*
X136660800Y-68552700I87500J0D01*
G01*
X137035800Y-68552700D01*
G75*
G02*
X137123300Y-68640200I0J-87500D01*
G01*
X137123300Y-68815200D01*
G75*
G02*
X137035800Y-68902700I-87500J0D01*
G01*
G37*
G36*
G01*
X137035800Y-69402700D02*
X136660800Y-69402700D01*
G75*
G02*
X136573300Y-69315200I0J87500D01*
G01*
X136573300Y-69140200D01*
G75*
G02*
X136660800Y-69052700I87500J0D01*
G01*
X137035800Y-69052700D01*
G75*
G02*
X137123300Y-69140200I0J-87500D01*
G01*
X137123300Y-69315200D01*
G75*
G02*
X137035800Y-69402700I-87500J0D01*
G01*
G37*
G36*
G01*
X137035800Y-69902700D02*
X136660800Y-69902700D01*
G75*
G02*
X136573300Y-69815200I0J87500D01*
G01*
X136573300Y-69640200D01*
G75*
G02*
X136660800Y-69552700I87500J0D01*
G01*
X137035800Y-69552700D01*
G75*
G02*
X137123300Y-69640200I0J-87500D01*
G01*
X137123300Y-69815200D01*
G75*
G02*
X137035800Y-69902700I-87500J0D01*
G01*
G37*
G36*
G01*
X136710800Y-70727700D02*
X136535800Y-70727700D01*
G75*
G02*
X136448300Y-70640200I0J87500D01*
G01*
X136448300Y-70265200D01*
G75*
G02*
X136535800Y-70177700I87500J0D01*
G01*
X136710800Y-70177700D01*
G75*
G02*
X136798300Y-70265200I0J-87500D01*
G01*
X136798300Y-70640200D01*
G75*
G02*
X136710800Y-70727700I-87500J0D01*
G01*
G37*
G36*
G01*
X136210800Y-70727700D02*
X136035800Y-70727700D01*
G75*
G02*
X135948300Y-70640200I0J87500D01*
G01*
X135948300Y-70265200D01*
G75*
G02*
X136035800Y-70177700I87500J0D01*
G01*
X136210800Y-70177700D01*
G75*
G02*
X136298300Y-70265200I0J-87500D01*
G01*
X136298300Y-70640200D01*
G75*
G02*
X136210800Y-70727700I-87500J0D01*
G01*
G37*
G36*
G01*
X135710800Y-70727700D02*
X135535800Y-70727700D01*
G75*
G02*
X135448300Y-70640200I0J87500D01*
G01*
X135448300Y-70265200D01*
G75*
G02*
X135535800Y-70177700I87500J0D01*
G01*
X135710800Y-70177700D01*
G75*
G02*
X135798300Y-70265200I0J-87500D01*
G01*
X135798300Y-70640200D01*
G75*
G02*
X135710800Y-70727700I-87500J0D01*
G01*
G37*
G36*
G01*
X135210800Y-70727700D02*
X135035800Y-70727700D01*
G75*
G02*
X134948300Y-70640200I0J87500D01*
G01*
X134948300Y-70265200D01*
G75*
G02*
X135035800Y-70177700I87500J0D01*
G01*
X135210800Y-70177700D01*
G75*
G02*
X135298300Y-70265200I0J-87500D01*
G01*
X135298300Y-70640200D01*
G75*
G02*
X135210800Y-70727700I-87500J0D01*
G01*
G37*
G36*
G01*
X134710800Y-70727700D02*
X134535800Y-70727700D01*
G75*
G02*
X134448300Y-70640200I0J87500D01*
G01*
X134448300Y-70265200D01*
G75*
G02*
X134535800Y-70177700I87500J0D01*
G01*
X134710800Y-70177700D01*
G75*
G02*
X134798300Y-70265200I0J-87500D01*
G01*
X134798300Y-70640200D01*
G75*
G02*
X134710800Y-70727700I-87500J0D01*
G01*
G37*
%TD*%
%TO.C,U4*%
G36*
G01*
X140226700Y-103655000D02*
X140226700Y-103355000D01*
G75*
G02*
X140376700Y-103205000I150000J0D01*
G01*
X141676700Y-103205000D01*
G75*
G02*
X141826700Y-103355000I0J-150000D01*
G01*
X141826700Y-103655000D01*
G75*
G02*
X141676700Y-103805000I-150000J0D01*
G01*
X140376700Y-103805000D01*
G75*
G02*
X140226700Y-103655000I0J150000D01*
G01*
G37*
G36*
G01*
X140226700Y-104925000D02*
X140226700Y-104625000D01*
G75*
G02*
X140376700Y-104475000I150000J0D01*
G01*
X141676700Y-104475000D01*
G75*
G02*
X141826700Y-104625000I0J-150000D01*
G01*
X141826700Y-104925000D01*
G75*
G02*
X141676700Y-105075000I-150000J0D01*
G01*
X140376700Y-105075000D01*
G75*
G02*
X140226700Y-104925000I0J150000D01*
G01*
G37*
G36*
G01*
X140226700Y-106195000D02*
X140226700Y-105895000D01*
G75*
G02*
X140376700Y-105745000I150000J0D01*
G01*
X141676700Y-105745000D01*
G75*
G02*
X141826700Y-105895000I0J-150000D01*
G01*
X141826700Y-106195000D01*
G75*
G02*
X141676700Y-106345000I-150000J0D01*
G01*
X140376700Y-106345000D01*
G75*
G02*
X140226700Y-106195000I0J150000D01*
G01*
G37*
G36*
G01*
X140226700Y-107465000D02*
X140226700Y-107165000D01*
G75*
G02*
X140376700Y-107015000I150000J0D01*
G01*
X141676700Y-107015000D01*
G75*
G02*
X141826700Y-107165000I0J-150000D01*
G01*
X141826700Y-107465000D01*
G75*
G02*
X141676700Y-107615000I-150000J0D01*
G01*
X140376700Y-107615000D01*
G75*
G02*
X140226700Y-107465000I0J150000D01*
G01*
G37*
G36*
G01*
X133026700Y-107465000D02*
X133026700Y-107165000D01*
G75*
G02*
X133176700Y-107015000I150000J0D01*
G01*
X134476700Y-107015000D01*
G75*
G02*
X134626700Y-107165000I0J-150000D01*
G01*
X134626700Y-107465000D01*
G75*
G02*
X134476700Y-107615000I-150000J0D01*
G01*
X133176700Y-107615000D01*
G75*
G02*
X133026700Y-107465000I0J150000D01*
G01*
G37*
G36*
G01*
X133026700Y-106195000D02*
X133026700Y-105895000D01*
G75*
G02*
X133176700Y-105745000I150000J0D01*
G01*
X134476700Y-105745000D01*
G75*
G02*
X134626700Y-105895000I0J-150000D01*
G01*
X134626700Y-106195000D01*
G75*
G02*
X134476700Y-106345000I-150000J0D01*
G01*
X133176700Y-106345000D01*
G75*
G02*
X133026700Y-106195000I0J150000D01*
G01*
G37*
G36*
G01*
X133026700Y-104925000D02*
X133026700Y-104625000D01*
G75*
G02*
X133176700Y-104475000I150000J0D01*
G01*
X134476700Y-104475000D01*
G75*
G02*
X134626700Y-104625000I0J-150000D01*
G01*
X134626700Y-104925000D01*
G75*
G02*
X134476700Y-105075000I-150000J0D01*
G01*
X133176700Y-105075000D01*
G75*
G02*
X133026700Y-104925000I0J150000D01*
G01*
G37*
G36*
G01*
X133026700Y-103655000D02*
X133026700Y-103355000D01*
G75*
G02*
X133176700Y-103205000I150000J0D01*
G01*
X134476700Y-103205000D01*
G75*
G02*
X134626700Y-103355000I0J-150000D01*
G01*
X134626700Y-103655000D01*
G75*
G02*
X134476700Y-103805000I-150000J0D01*
G01*
X133176700Y-103805000D01*
G75*
G02*
X133026700Y-103655000I0J150000D01*
G01*
G37*
%TD*%
%TO.C,U2*%
G36*
G01*
X147589800Y-80108400D02*
X149039800Y-80108400D01*
G75*
G02*
X149114800Y-80183400I0J-75000D01*
G01*
X149114800Y-80333400D01*
G75*
G02*
X149039800Y-80408400I-75000J0D01*
G01*
X147589800Y-80408400D01*
G75*
G02*
X147514800Y-80333400I0J75000D01*
G01*
X147514800Y-80183400D01*
G75*
G02*
X147589800Y-80108400I75000J0D01*
G01*
G37*
G36*
G01*
X147589800Y-80608400D02*
X149039800Y-80608400D01*
G75*
G02*
X149114800Y-80683400I0J-75000D01*
G01*
X149114800Y-80833400D01*
G75*
G02*
X149039800Y-80908400I-75000J0D01*
G01*
X147589800Y-80908400D01*
G75*
G02*
X147514800Y-80833400I0J75000D01*
G01*
X147514800Y-80683400D01*
G75*
G02*
X147589800Y-80608400I75000J0D01*
G01*
G37*
G36*
G01*
X147589800Y-81108400D02*
X149039800Y-81108400D01*
G75*
G02*
X149114800Y-81183400I0J-75000D01*
G01*
X149114800Y-81333400D01*
G75*
G02*
X149039800Y-81408400I-75000J0D01*
G01*
X147589800Y-81408400D01*
G75*
G02*
X147514800Y-81333400I0J75000D01*
G01*
X147514800Y-81183400D01*
G75*
G02*
X147589800Y-81108400I75000J0D01*
G01*
G37*
G36*
G01*
X147589800Y-81608400D02*
X149039800Y-81608400D01*
G75*
G02*
X149114800Y-81683400I0J-75000D01*
G01*
X149114800Y-81833400D01*
G75*
G02*
X149039800Y-81908400I-75000J0D01*
G01*
X147589800Y-81908400D01*
G75*
G02*
X147514800Y-81833400I0J75000D01*
G01*
X147514800Y-81683400D01*
G75*
G02*
X147589800Y-81608400I75000J0D01*
G01*
G37*
G36*
G01*
X147589800Y-82108400D02*
X149039800Y-82108400D01*
G75*
G02*
X149114800Y-82183400I0J-75000D01*
G01*
X149114800Y-82333400D01*
G75*
G02*
X149039800Y-82408400I-75000J0D01*
G01*
X147589800Y-82408400D01*
G75*
G02*
X147514800Y-82333400I0J75000D01*
G01*
X147514800Y-82183400D01*
G75*
G02*
X147589800Y-82108400I75000J0D01*
G01*
G37*
G36*
G01*
X147589800Y-82608400D02*
X149039800Y-82608400D01*
G75*
G02*
X149114800Y-82683400I0J-75000D01*
G01*
X149114800Y-82833400D01*
G75*
G02*
X149039800Y-82908400I-75000J0D01*
G01*
X147589800Y-82908400D01*
G75*
G02*
X147514800Y-82833400I0J75000D01*
G01*
X147514800Y-82683400D01*
G75*
G02*
X147589800Y-82608400I75000J0D01*
G01*
G37*
G36*
G01*
X147589800Y-83108400D02*
X149039800Y-83108400D01*
G75*
G02*
X149114800Y-83183400I0J-75000D01*
G01*
X149114800Y-83333400D01*
G75*
G02*
X149039800Y-83408400I-75000J0D01*
G01*
X147589800Y-83408400D01*
G75*
G02*
X147514800Y-83333400I0J75000D01*
G01*
X147514800Y-83183400D01*
G75*
G02*
X147589800Y-83108400I75000J0D01*
G01*
G37*
G36*
G01*
X147589800Y-83608400D02*
X149039800Y-83608400D01*
G75*
G02*
X149114800Y-83683400I0J-75000D01*
G01*
X149114800Y-83833400D01*
G75*
G02*
X149039800Y-83908400I-75000J0D01*
G01*
X147589800Y-83908400D01*
G75*
G02*
X147514800Y-83833400I0J75000D01*
G01*
X147514800Y-83683400D01*
G75*
G02*
X147589800Y-83608400I75000J0D01*
G01*
G37*
G36*
G01*
X147589800Y-84108400D02*
X149039800Y-84108400D01*
G75*
G02*
X149114800Y-84183400I0J-75000D01*
G01*
X149114800Y-84333400D01*
G75*
G02*
X149039800Y-84408400I-75000J0D01*
G01*
X147589800Y-84408400D01*
G75*
G02*
X147514800Y-84333400I0J75000D01*
G01*
X147514800Y-84183400D01*
G75*
G02*
X147589800Y-84108400I75000J0D01*
G01*
G37*
G36*
G01*
X147589800Y-84608400D02*
X149039800Y-84608400D01*
G75*
G02*
X149114800Y-84683400I0J-75000D01*
G01*
X149114800Y-84833400D01*
G75*
G02*
X149039800Y-84908400I-75000J0D01*
G01*
X147589800Y-84908400D01*
G75*
G02*
X147514800Y-84833400I0J75000D01*
G01*
X147514800Y-84683400D01*
G75*
G02*
X147589800Y-84608400I75000J0D01*
G01*
G37*
G36*
G01*
X147589800Y-85108400D02*
X149039800Y-85108400D01*
G75*
G02*
X149114800Y-85183400I0J-75000D01*
G01*
X149114800Y-85333400D01*
G75*
G02*
X149039800Y-85408400I-75000J0D01*
G01*
X147589800Y-85408400D01*
G75*
G02*
X147514800Y-85333400I0J75000D01*
G01*
X147514800Y-85183400D01*
G75*
G02*
X147589800Y-85108400I75000J0D01*
G01*
G37*
G36*
G01*
X147589800Y-85608400D02*
X149039800Y-85608400D01*
G75*
G02*
X149114800Y-85683400I0J-75000D01*
G01*
X149114800Y-85833400D01*
G75*
G02*
X149039800Y-85908400I-75000J0D01*
G01*
X147589800Y-85908400D01*
G75*
G02*
X147514800Y-85833400I0J75000D01*
G01*
X147514800Y-85683400D01*
G75*
G02*
X147589800Y-85608400I75000J0D01*
G01*
G37*
G36*
G01*
X147589800Y-86108400D02*
X149039800Y-86108400D01*
G75*
G02*
X149114800Y-86183400I0J-75000D01*
G01*
X149114800Y-86333400D01*
G75*
G02*
X149039800Y-86408400I-75000J0D01*
G01*
X147589800Y-86408400D01*
G75*
G02*
X147514800Y-86333400I0J75000D01*
G01*
X147514800Y-86183400D01*
G75*
G02*
X147589800Y-86108400I75000J0D01*
G01*
G37*
G36*
G01*
X147589800Y-86608400D02*
X149039800Y-86608400D01*
G75*
G02*
X149114800Y-86683400I0J-75000D01*
G01*
X149114800Y-86833400D01*
G75*
G02*
X149039800Y-86908400I-75000J0D01*
G01*
X147589800Y-86908400D01*
G75*
G02*
X147514800Y-86833400I0J75000D01*
G01*
X147514800Y-86683400D01*
G75*
G02*
X147589800Y-86608400I75000J0D01*
G01*
G37*
G36*
G01*
X147589800Y-87108400D02*
X149039800Y-87108400D01*
G75*
G02*
X149114800Y-87183400I0J-75000D01*
G01*
X149114800Y-87333400D01*
G75*
G02*
X149039800Y-87408400I-75000J0D01*
G01*
X147589800Y-87408400D01*
G75*
G02*
X147514800Y-87333400I0J75000D01*
G01*
X147514800Y-87183400D01*
G75*
G02*
X147589800Y-87108400I75000J0D01*
G01*
G37*
G36*
G01*
X147589800Y-87608400D02*
X149039800Y-87608400D01*
G75*
G02*
X149114800Y-87683400I0J-75000D01*
G01*
X149114800Y-87833400D01*
G75*
G02*
X149039800Y-87908400I-75000J0D01*
G01*
X147589800Y-87908400D01*
G75*
G02*
X147514800Y-87833400I0J75000D01*
G01*
X147514800Y-87683400D01*
G75*
G02*
X147589800Y-87608400I75000J0D01*
G01*
G37*
G36*
G01*
X147589800Y-88108400D02*
X149039800Y-88108400D01*
G75*
G02*
X149114800Y-88183400I0J-75000D01*
G01*
X149114800Y-88333400D01*
G75*
G02*
X149039800Y-88408400I-75000J0D01*
G01*
X147589800Y-88408400D01*
G75*
G02*
X147514800Y-88333400I0J75000D01*
G01*
X147514800Y-88183400D01*
G75*
G02*
X147589800Y-88108400I75000J0D01*
G01*
G37*
G36*
G01*
X147589800Y-88608400D02*
X149039800Y-88608400D01*
G75*
G02*
X149114800Y-88683400I0J-75000D01*
G01*
X149114800Y-88833400D01*
G75*
G02*
X149039800Y-88908400I-75000J0D01*
G01*
X147589800Y-88908400D01*
G75*
G02*
X147514800Y-88833400I0J75000D01*
G01*
X147514800Y-88683400D01*
G75*
G02*
X147589800Y-88608400I75000J0D01*
G01*
G37*
G36*
G01*
X147589800Y-89108400D02*
X149039800Y-89108400D01*
G75*
G02*
X149114800Y-89183400I0J-75000D01*
G01*
X149114800Y-89333400D01*
G75*
G02*
X149039800Y-89408400I-75000J0D01*
G01*
X147589800Y-89408400D01*
G75*
G02*
X147514800Y-89333400I0J75000D01*
G01*
X147514800Y-89183400D01*
G75*
G02*
X147589800Y-89108400I75000J0D01*
G01*
G37*
G36*
G01*
X147589800Y-89608400D02*
X149039800Y-89608400D01*
G75*
G02*
X149114800Y-89683400I0J-75000D01*
G01*
X149114800Y-89833400D01*
G75*
G02*
X149039800Y-89908400I-75000J0D01*
G01*
X147589800Y-89908400D01*
G75*
G02*
X147514800Y-89833400I0J75000D01*
G01*
X147514800Y-89683400D01*
G75*
G02*
X147589800Y-89608400I75000J0D01*
G01*
G37*
G36*
G01*
X147589800Y-90108400D02*
X149039800Y-90108400D01*
G75*
G02*
X149114800Y-90183400I0J-75000D01*
G01*
X149114800Y-90333400D01*
G75*
G02*
X149039800Y-90408400I-75000J0D01*
G01*
X147589800Y-90408400D01*
G75*
G02*
X147514800Y-90333400I0J75000D01*
G01*
X147514800Y-90183400D01*
G75*
G02*
X147589800Y-90108400I75000J0D01*
G01*
G37*
G36*
G01*
X147589800Y-90608400D02*
X149039800Y-90608400D01*
G75*
G02*
X149114800Y-90683400I0J-75000D01*
G01*
X149114800Y-90833400D01*
G75*
G02*
X149039800Y-90908400I-75000J0D01*
G01*
X147589800Y-90908400D01*
G75*
G02*
X147514800Y-90833400I0J75000D01*
G01*
X147514800Y-90683400D01*
G75*
G02*
X147589800Y-90608400I75000J0D01*
G01*
G37*
G36*
G01*
X147589800Y-91108400D02*
X149039800Y-91108400D01*
G75*
G02*
X149114800Y-91183400I0J-75000D01*
G01*
X149114800Y-91333400D01*
G75*
G02*
X149039800Y-91408400I-75000J0D01*
G01*
X147589800Y-91408400D01*
G75*
G02*
X147514800Y-91333400I0J75000D01*
G01*
X147514800Y-91183400D01*
G75*
G02*
X147589800Y-91108400I75000J0D01*
G01*
G37*
G36*
G01*
X147589800Y-91608400D02*
X149039800Y-91608400D01*
G75*
G02*
X149114800Y-91683400I0J-75000D01*
G01*
X149114800Y-91833400D01*
G75*
G02*
X149039800Y-91908400I-75000J0D01*
G01*
X147589800Y-91908400D01*
G75*
G02*
X147514800Y-91833400I0J75000D01*
G01*
X147514800Y-91683400D01*
G75*
G02*
X147589800Y-91608400I75000J0D01*
G01*
G37*
G36*
G01*
X147589800Y-92108400D02*
X149039800Y-92108400D01*
G75*
G02*
X149114800Y-92183400I0J-75000D01*
G01*
X149114800Y-92333400D01*
G75*
G02*
X149039800Y-92408400I-75000J0D01*
G01*
X147589800Y-92408400D01*
G75*
G02*
X147514800Y-92333400I0J75000D01*
G01*
X147514800Y-92183400D01*
G75*
G02*
X147589800Y-92108400I75000J0D01*
G01*
G37*
G36*
G01*
X146564800Y-93133400D02*
X146714800Y-93133400D01*
G75*
G02*
X146789800Y-93208400I0J-75000D01*
G01*
X146789800Y-94658400D01*
G75*
G02*
X146714800Y-94733400I-75000J0D01*
G01*
X146564800Y-94733400D01*
G75*
G02*
X146489800Y-94658400I0J75000D01*
G01*
X146489800Y-93208400D01*
G75*
G02*
X146564800Y-93133400I75000J0D01*
G01*
G37*
G36*
G01*
X146064800Y-93133400D02*
X146214800Y-93133400D01*
G75*
G02*
X146289800Y-93208400I0J-75000D01*
G01*
X146289800Y-94658400D01*
G75*
G02*
X146214800Y-94733400I-75000J0D01*
G01*
X146064800Y-94733400D01*
G75*
G02*
X145989800Y-94658400I0J75000D01*
G01*
X145989800Y-93208400D01*
G75*
G02*
X146064800Y-93133400I75000J0D01*
G01*
G37*
G36*
G01*
X145564800Y-93133400D02*
X145714800Y-93133400D01*
G75*
G02*
X145789800Y-93208400I0J-75000D01*
G01*
X145789800Y-94658400D01*
G75*
G02*
X145714800Y-94733400I-75000J0D01*
G01*
X145564800Y-94733400D01*
G75*
G02*
X145489800Y-94658400I0J75000D01*
G01*
X145489800Y-93208400D01*
G75*
G02*
X145564800Y-93133400I75000J0D01*
G01*
G37*
G36*
G01*
X145064800Y-93133400D02*
X145214800Y-93133400D01*
G75*
G02*
X145289800Y-93208400I0J-75000D01*
G01*
X145289800Y-94658400D01*
G75*
G02*
X145214800Y-94733400I-75000J0D01*
G01*
X145064800Y-94733400D01*
G75*
G02*
X144989800Y-94658400I0J75000D01*
G01*
X144989800Y-93208400D01*
G75*
G02*
X145064800Y-93133400I75000J0D01*
G01*
G37*
G36*
G01*
X144564800Y-93133400D02*
X144714800Y-93133400D01*
G75*
G02*
X144789800Y-93208400I0J-75000D01*
G01*
X144789800Y-94658400D01*
G75*
G02*
X144714800Y-94733400I-75000J0D01*
G01*
X144564800Y-94733400D01*
G75*
G02*
X144489800Y-94658400I0J75000D01*
G01*
X144489800Y-93208400D01*
G75*
G02*
X144564800Y-93133400I75000J0D01*
G01*
G37*
G36*
G01*
X144064800Y-93133400D02*
X144214800Y-93133400D01*
G75*
G02*
X144289800Y-93208400I0J-75000D01*
G01*
X144289800Y-94658400D01*
G75*
G02*
X144214800Y-94733400I-75000J0D01*
G01*
X144064800Y-94733400D01*
G75*
G02*
X143989800Y-94658400I0J75000D01*
G01*
X143989800Y-93208400D01*
G75*
G02*
X144064800Y-93133400I75000J0D01*
G01*
G37*
G36*
G01*
X143564800Y-93133400D02*
X143714800Y-93133400D01*
G75*
G02*
X143789800Y-93208400I0J-75000D01*
G01*
X143789800Y-94658400D01*
G75*
G02*
X143714800Y-94733400I-75000J0D01*
G01*
X143564800Y-94733400D01*
G75*
G02*
X143489800Y-94658400I0J75000D01*
G01*
X143489800Y-93208400D01*
G75*
G02*
X143564800Y-93133400I75000J0D01*
G01*
G37*
G36*
G01*
X143064800Y-93133400D02*
X143214800Y-93133400D01*
G75*
G02*
X143289800Y-93208400I0J-75000D01*
G01*
X143289800Y-94658400D01*
G75*
G02*
X143214800Y-94733400I-75000J0D01*
G01*
X143064800Y-94733400D01*
G75*
G02*
X142989800Y-94658400I0J75000D01*
G01*
X142989800Y-93208400D01*
G75*
G02*
X143064800Y-93133400I75000J0D01*
G01*
G37*
G36*
G01*
X142564800Y-93133400D02*
X142714800Y-93133400D01*
G75*
G02*
X142789800Y-93208400I0J-75000D01*
G01*
X142789800Y-94658400D01*
G75*
G02*
X142714800Y-94733400I-75000J0D01*
G01*
X142564800Y-94733400D01*
G75*
G02*
X142489800Y-94658400I0J75000D01*
G01*
X142489800Y-93208400D01*
G75*
G02*
X142564800Y-93133400I75000J0D01*
G01*
G37*
G36*
G01*
X142064800Y-93133400D02*
X142214800Y-93133400D01*
G75*
G02*
X142289800Y-93208400I0J-75000D01*
G01*
X142289800Y-94658400D01*
G75*
G02*
X142214800Y-94733400I-75000J0D01*
G01*
X142064800Y-94733400D01*
G75*
G02*
X141989800Y-94658400I0J75000D01*
G01*
X141989800Y-93208400D01*
G75*
G02*
X142064800Y-93133400I75000J0D01*
G01*
G37*
G36*
G01*
X141564800Y-93133400D02*
X141714800Y-93133400D01*
G75*
G02*
X141789800Y-93208400I0J-75000D01*
G01*
X141789800Y-94658400D01*
G75*
G02*
X141714800Y-94733400I-75000J0D01*
G01*
X141564800Y-94733400D01*
G75*
G02*
X141489800Y-94658400I0J75000D01*
G01*
X141489800Y-93208400D01*
G75*
G02*
X141564800Y-93133400I75000J0D01*
G01*
G37*
G36*
G01*
X141064800Y-93133400D02*
X141214800Y-93133400D01*
G75*
G02*
X141289800Y-93208400I0J-75000D01*
G01*
X141289800Y-94658400D01*
G75*
G02*
X141214800Y-94733400I-75000J0D01*
G01*
X141064800Y-94733400D01*
G75*
G02*
X140989800Y-94658400I0J75000D01*
G01*
X140989800Y-93208400D01*
G75*
G02*
X141064800Y-93133400I75000J0D01*
G01*
G37*
G36*
G01*
X140564800Y-93133400D02*
X140714800Y-93133400D01*
G75*
G02*
X140789800Y-93208400I0J-75000D01*
G01*
X140789800Y-94658400D01*
G75*
G02*
X140714800Y-94733400I-75000J0D01*
G01*
X140564800Y-94733400D01*
G75*
G02*
X140489800Y-94658400I0J75000D01*
G01*
X140489800Y-93208400D01*
G75*
G02*
X140564800Y-93133400I75000J0D01*
G01*
G37*
G36*
G01*
X140064800Y-93133400D02*
X140214800Y-93133400D01*
G75*
G02*
X140289800Y-93208400I0J-75000D01*
G01*
X140289800Y-94658400D01*
G75*
G02*
X140214800Y-94733400I-75000J0D01*
G01*
X140064800Y-94733400D01*
G75*
G02*
X139989800Y-94658400I0J75000D01*
G01*
X139989800Y-93208400D01*
G75*
G02*
X140064800Y-93133400I75000J0D01*
G01*
G37*
G36*
G01*
X139564800Y-93133400D02*
X139714800Y-93133400D01*
G75*
G02*
X139789800Y-93208400I0J-75000D01*
G01*
X139789800Y-94658400D01*
G75*
G02*
X139714800Y-94733400I-75000J0D01*
G01*
X139564800Y-94733400D01*
G75*
G02*
X139489800Y-94658400I0J75000D01*
G01*
X139489800Y-93208400D01*
G75*
G02*
X139564800Y-93133400I75000J0D01*
G01*
G37*
G36*
G01*
X139064800Y-93133400D02*
X139214800Y-93133400D01*
G75*
G02*
X139289800Y-93208400I0J-75000D01*
G01*
X139289800Y-94658400D01*
G75*
G02*
X139214800Y-94733400I-75000J0D01*
G01*
X139064800Y-94733400D01*
G75*
G02*
X138989800Y-94658400I0J75000D01*
G01*
X138989800Y-93208400D01*
G75*
G02*
X139064800Y-93133400I75000J0D01*
G01*
G37*
G36*
G01*
X138564800Y-93133400D02*
X138714800Y-93133400D01*
G75*
G02*
X138789800Y-93208400I0J-75000D01*
G01*
X138789800Y-94658400D01*
G75*
G02*
X138714800Y-94733400I-75000J0D01*
G01*
X138564800Y-94733400D01*
G75*
G02*
X138489800Y-94658400I0J75000D01*
G01*
X138489800Y-93208400D01*
G75*
G02*
X138564800Y-93133400I75000J0D01*
G01*
G37*
G36*
G01*
X138064800Y-93133400D02*
X138214800Y-93133400D01*
G75*
G02*
X138289800Y-93208400I0J-75000D01*
G01*
X138289800Y-94658400D01*
G75*
G02*
X138214800Y-94733400I-75000J0D01*
G01*
X138064800Y-94733400D01*
G75*
G02*
X137989800Y-94658400I0J75000D01*
G01*
X137989800Y-93208400D01*
G75*
G02*
X138064800Y-93133400I75000J0D01*
G01*
G37*
G36*
G01*
X137564800Y-93133400D02*
X137714800Y-93133400D01*
G75*
G02*
X137789800Y-93208400I0J-75000D01*
G01*
X137789800Y-94658400D01*
G75*
G02*
X137714800Y-94733400I-75000J0D01*
G01*
X137564800Y-94733400D01*
G75*
G02*
X137489800Y-94658400I0J75000D01*
G01*
X137489800Y-93208400D01*
G75*
G02*
X137564800Y-93133400I75000J0D01*
G01*
G37*
G36*
G01*
X137064800Y-93133400D02*
X137214800Y-93133400D01*
G75*
G02*
X137289800Y-93208400I0J-75000D01*
G01*
X137289800Y-94658400D01*
G75*
G02*
X137214800Y-94733400I-75000J0D01*
G01*
X137064800Y-94733400D01*
G75*
G02*
X136989800Y-94658400I0J75000D01*
G01*
X136989800Y-93208400D01*
G75*
G02*
X137064800Y-93133400I75000J0D01*
G01*
G37*
G36*
G01*
X136564800Y-93133400D02*
X136714800Y-93133400D01*
G75*
G02*
X136789800Y-93208400I0J-75000D01*
G01*
X136789800Y-94658400D01*
G75*
G02*
X136714800Y-94733400I-75000J0D01*
G01*
X136564800Y-94733400D01*
G75*
G02*
X136489800Y-94658400I0J75000D01*
G01*
X136489800Y-93208400D01*
G75*
G02*
X136564800Y-93133400I75000J0D01*
G01*
G37*
G36*
G01*
X136064800Y-93133400D02*
X136214800Y-93133400D01*
G75*
G02*
X136289800Y-93208400I0J-75000D01*
G01*
X136289800Y-94658400D01*
G75*
G02*
X136214800Y-94733400I-75000J0D01*
G01*
X136064800Y-94733400D01*
G75*
G02*
X135989800Y-94658400I0J75000D01*
G01*
X135989800Y-93208400D01*
G75*
G02*
X136064800Y-93133400I75000J0D01*
G01*
G37*
G36*
G01*
X135564800Y-93133400D02*
X135714800Y-93133400D01*
G75*
G02*
X135789800Y-93208400I0J-75000D01*
G01*
X135789800Y-94658400D01*
G75*
G02*
X135714800Y-94733400I-75000J0D01*
G01*
X135564800Y-94733400D01*
G75*
G02*
X135489800Y-94658400I0J75000D01*
G01*
X135489800Y-93208400D01*
G75*
G02*
X135564800Y-93133400I75000J0D01*
G01*
G37*
G36*
G01*
X135064800Y-93133400D02*
X135214800Y-93133400D01*
G75*
G02*
X135289800Y-93208400I0J-75000D01*
G01*
X135289800Y-94658400D01*
G75*
G02*
X135214800Y-94733400I-75000J0D01*
G01*
X135064800Y-94733400D01*
G75*
G02*
X134989800Y-94658400I0J75000D01*
G01*
X134989800Y-93208400D01*
G75*
G02*
X135064800Y-93133400I75000J0D01*
G01*
G37*
G36*
G01*
X134564800Y-93133400D02*
X134714800Y-93133400D01*
G75*
G02*
X134789800Y-93208400I0J-75000D01*
G01*
X134789800Y-94658400D01*
G75*
G02*
X134714800Y-94733400I-75000J0D01*
G01*
X134564800Y-94733400D01*
G75*
G02*
X134489800Y-94658400I0J75000D01*
G01*
X134489800Y-93208400D01*
G75*
G02*
X134564800Y-93133400I75000J0D01*
G01*
G37*
G36*
G01*
X132239800Y-92108400D02*
X133689800Y-92108400D01*
G75*
G02*
X133764800Y-92183400I0J-75000D01*
G01*
X133764800Y-92333400D01*
G75*
G02*
X133689800Y-92408400I-75000J0D01*
G01*
X132239800Y-92408400D01*
G75*
G02*
X132164800Y-92333400I0J75000D01*
G01*
X132164800Y-92183400D01*
G75*
G02*
X132239800Y-92108400I75000J0D01*
G01*
G37*
G36*
G01*
X132239800Y-91608400D02*
X133689800Y-91608400D01*
G75*
G02*
X133764800Y-91683400I0J-75000D01*
G01*
X133764800Y-91833400D01*
G75*
G02*
X133689800Y-91908400I-75000J0D01*
G01*
X132239800Y-91908400D01*
G75*
G02*
X132164800Y-91833400I0J75000D01*
G01*
X132164800Y-91683400D01*
G75*
G02*
X132239800Y-91608400I75000J0D01*
G01*
G37*
G36*
G01*
X132239800Y-91108400D02*
X133689800Y-91108400D01*
G75*
G02*
X133764800Y-91183400I0J-75000D01*
G01*
X133764800Y-91333400D01*
G75*
G02*
X133689800Y-91408400I-75000J0D01*
G01*
X132239800Y-91408400D01*
G75*
G02*
X132164800Y-91333400I0J75000D01*
G01*
X132164800Y-91183400D01*
G75*
G02*
X132239800Y-91108400I75000J0D01*
G01*
G37*
G36*
G01*
X132239800Y-90608400D02*
X133689800Y-90608400D01*
G75*
G02*
X133764800Y-90683400I0J-75000D01*
G01*
X133764800Y-90833400D01*
G75*
G02*
X133689800Y-90908400I-75000J0D01*
G01*
X132239800Y-90908400D01*
G75*
G02*
X132164800Y-90833400I0J75000D01*
G01*
X132164800Y-90683400D01*
G75*
G02*
X132239800Y-90608400I75000J0D01*
G01*
G37*
G36*
G01*
X132239800Y-90108400D02*
X133689800Y-90108400D01*
G75*
G02*
X133764800Y-90183400I0J-75000D01*
G01*
X133764800Y-90333400D01*
G75*
G02*
X133689800Y-90408400I-75000J0D01*
G01*
X132239800Y-90408400D01*
G75*
G02*
X132164800Y-90333400I0J75000D01*
G01*
X132164800Y-90183400D01*
G75*
G02*
X132239800Y-90108400I75000J0D01*
G01*
G37*
G36*
G01*
X132239800Y-89608400D02*
X133689800Y-89608400D01*
G75*
G02*
X133764800Y-89683400I0J-75000D01*
G01*
X133764800Y-89833400D01*
G75*
G02*
X133689800Y-89908400I-75000J0D01*
G01*
X132239800Y-89908400D01*
G75*
G02*
X132164800Y-89833400I0J75000D01*
G01*
X132164800Y-89683400D01*
G75*
G02*
X132239800Y-89608400I75000J0D01*
G01*
G37*
G36*
G01*
X132239800Y-89108400D02*
X133689800Y-89108400D01*
G75*
G02*
X133764800Y-89183400I0J-75000D01*
G01*
X133764800Y-89333400D01*
G75*
G02*
X133689800Y-89408400I-75000J0D01*
G01*
X132239800Y-89408400D01*
G75*
G02*
X132164800Y-89333400I0J75000D01*
G01*
X132164800Y-89183400D01*
G75*
G02*
X132239800Y-89108400I75000J0D01*
G01*
G37*
G36*
G01*
X132239800Y-88608400D02*
X133689800Y-88608400D01*
G75*
G02*
X133764800Y-88683400I0J-75000D01*
G01*
X133764800Y-88833400D01*
G75*
G02*
X133689800Y-88908400I-75000J0D01*
G01*
X132239800Y-88908400D01*
G75*
G02*
X132164800Y-88833400I0J75000D01*
G01*
X132164800Y-88683400D01*
G75*
G02*
X132239800Y-88608400I75000J0D01*
G01*
G37*
G36*
G01*
X132239800Y-88108400D02*
X133689800Y-88108400D01*
G75*
G02*
X133764800Y-88183400I0J-75000D01*
G01*
X133764800Y-88333400D01*
G75*
G02*
X133689800Y-88408400I-75000J0D01*
G01*
X132239800Y-88408400D01*
G75*
G02*
X132164800Y-88333400I0J75000D01*
G01*
X132164800Y-88183400D01*
G75*
G02*
X132239800Y-88108400I75000J0D01*
G01*
G37*
G36*
G01*
X132239800Y-87608400D02*
X133689800Y-87608400D01*
G75*
G02*
X133764800Y-87683400I0J-75000D01*
G01*
X133764800Y-87833400D01*
G75*
G02*
X133689800Y-87908400I-75000J0D01*
G01*
X132239800Y-87908400D01*
G75*
G02*
X132164800Y-87833400I0J75000D01*
G01*
X132164800Y-87683400D01*
G75*
G02*
X132239800Y-87608400I75000J0D01*
G01*
G37*
G36*
G01*
X132239800Y-87108400D02*
X133689800Y-87108400D01*
G75*
G02*
X133764800Y-87183400I0J-75000D01*
G01*
X133764800Y-87333400D01*
G75*
G02*
X133689800Y-87408400I-75000J0D01*
G01*
X132239800Y-87408400D01*
G75*
G02*
X132164800Y-87333400I0J75000D01*
G01*
X132164800Y-87183400D01*
G75*
G02*
X132239800Y-87108400I75000J0D01*
G01*
G37*
G36*
G01*
X132239800Y-86608400D02*
X133689800Y-86608400D01*
G75*
G02*
X133764800Y-86683400I0J-75000D01*
G01*
X133764800Y-86833400D01*
G75*
G02*
X133689800Y-86908400I-75000J0D01*
G01*
X132239800Y-86908400D01*
G75*
G02*
X132164800Y-86833400I0J75000D01*
G01*
X132164800Y-86683400D01*
G75*
G02*
X132239800Y-86608400I75000J0D01*
G01*
G37*
G36*
G01*
X132239800Y-86108400D02*
X133689800Y-86108400D01*
G75*
G02*
X133764800Y-86183400I0J-75000D01*
G01*
X133764800Y-86333400D01*
G75*
G02*
X133689800Y-86408400I-75000J0D01*
G01*
X132239800Y-86408400D01*
G75*
G02*
X132164800Y-86333400I0J75000D01*
G01*
X132164800Y-86183400D01*
G75*
G02*
X132239800Y-86108400I75000J0D01*
G01*
G37*
G36*
G01*
X132239800Y-85608400D02*
X133689800Y-85608400D01*
G75*
G02*
X133764800Y-85683400I0J-75000D01*
G01*
X133764800Y-85833400D01*
G75*
G02*
X133689800Y-85908400I-75000J0D01*
G01*
X132239800Y-85908400D01*
G75*
G02*
X132164800Y-85833400I0J75000D01*
G01*
X132164800Y-85683400D01*
G75*
G02*
X132239800Y-85608400I75000J0D01*
G01*
G37*
G36*
G01*
X132239800Y-85108400D02*
X133689800Y-85108400D01*
G75*
G02*
X133764800Y-85183400I0J-75000D01*
G01*
X133764800Y-85333400D01*
G75*
G02*
X133689800Y-85408400I-75000J0D01*
G01*
X132239800Y-85408400D01*
G75*
G02*
X132164800Y-85333400I0J75000D01*
G01*
X132164800Y-85183400D01*
G75*
G02*
X132239800Y-85108400I75000J0D01*
G01*
G37*
G36*
G01*
X132239800Y-84608400D02*
X133689800Y-84608400D01*
G75*
G02*
X133764800Y-84683400I0J-75000D01*
G01*
X133764800Y-84833400D01*
G75*
G02*
X133689800Y-84908400I-75000J0D01*
G01*
X132239800Y-84908400D01*
G75*
G02*
X132164800Y-84833400I0J75000D01*
G01*
X132164800Y-84683400D01*
G75*
G02*
X132239800Y-84608400I75000J0D01*
G01*
G37*
G36*
G01*
X132239800Y-84108400D02*
X133689800Y-84108400D01*
G75*
G02*
X133764800Y-84183400I0J-75000D01*
G01*
X133764800Y-84333400D01*
G75*
G02*
X133689800Y-84408400I-75000J0D01*
G01*
X132239800Y-84408400D01*
G75*
G02*
X132164800Y-84333400I0J75000D01*
G01*
X132164800Y-84183400D01*
G75*
G02*
X132239800Y-84108400I75000J0D01*
G01*
G37*
G36*
G01*
X132239800Y-83608400D02*
X133689800Y-83608400D01*
G75*
G02*
X133764800Y-83683400I0J-75000D01*
G01*
X133764800Y-83833400D01*
G75*
G02*
X133689800Y-83908400I-75000J0D01*
G01*
X132239800Y-83908400D01*
G75*
G02*
X132164800Y-83833400I0J75000D01*
G01*
X132164800Y-83683400D01*
G75*
G02*
X132239800Y-83608400I75000J0D01*
G01*
G37*
G36*
G01*
X132239800Y-83108400D02*
X133689800Y-83108400D01*
G75*
G02*
X133764800Y-83183400I0J-75000D01*
G01*
X133764800Y-83333400D01*
G75*
G02*
X133689800Y-83408400I-75000J0D01*
G01*
X132239800Y-83408400D01*
G75*
G02*
X132164800Y-83333400I0J75000D01*
G01*
X132164800Y-83183400D01*
G75*
G02*
X132239800Y-83108400I75000J0D01*
G01*
G37*
G36*
G01*
X132239800Y-82608400D02*
X133689800Y-82608400D01*
G75*
G02*
X133764800Y-82683400I0J-75000D01*
G01*
X133764800Y-82833400D01*
G75*
G02*
X133689800Y-82908400I-75000J0D01*
G01*
X132239800Y-82908400D01*
G75*
G02*
X132164800Y-82833400I0J75000D01*
G01*
X132164800Y-82683400D01*
G75*
G02*
X132239800Y-82608400I75000J0D01*
G01*
G37*
G36*
G01*
X132239800Y-82108400D02*
X133689800Y-82108400D01*
G75*
G02*
X133764800Y-82183400I0J-75000D01*
G01*
X133764800Y-82333400D01*
G75*
G02*
X133689800Y-82408400I-75000J0D01*
G01*
X132239800Y-82408400D01*
G75*
G02*
X132164800Y-82333400I0J75000D01*
G01*
X132164800Y-82183400D01*
G75*
G02*
X132239800Y-82108400I75000J0D01*
G01*
G37*
G36*
G01*
X132239800Y-81608400D02*
X133689800Y-81608400D01*
G75*
G02*
X133764800Y-81683400I0J-75000D01*
G01*
X133764800Y-81833400D01*
G75*
G02*
X133689800Y-81908400I-75000J0D01*
G01*
X132239800Y-81908400D01*
G75*
G02*
X132164800Y-81833400I0J75000D01*
G01*
X132164800Y-81683400D01*
G75*
G02*
X132239800Y-81608400I75000J0D01*
G01*
G37*
G36*
G01*
X132239800Y-81108400D02*
X133689800Y-81108400D01*
G75*
G02*
X133764800Y-81183400I0J-75000D01*
G01*
X133764800Y-81333400D01*
G75*
G02*
X133689800Y-81408400I-75000J0D01*
G01*
X132239800Y-81408400D01*
G75*
G02*
X132164800Y-81333400I0J75000D01*
G01*
X132164800Y-81183400D01*
G75*
G02*
X132239800Y-81108400I75000J0D01*
G01*
G37*
G36*
G01*
X132239800Y-80608400D02*
X133689800Y-80608400D01*
G75*
G02*
X133764800Y-80683400I0J-75000D01*
G01*
X133764800Y-80833400D01*
G75*
G02*
X133689800Y-80908400I-75000J0D01*
G01*
X132239800Y-80908400D01*
G75*
G02*
X132164800Y-80833400I0J75000D01*
G01*
X132164800Y-80683400D01*
G75*
G02*
X132239800Y-80608400I75000J0D01*
G01*
G37*
G36*
G01*
X132239800Y-80108400D02*
X133689800Y-80108400D01*
G75*
G02*
X133764800Y-80183400I0J-75000D01*
G01*
X133764800Y-80333400D01*
G75*
G02*
X133689800Y-80408400I-75000J0D01*
G01*
X132239800Y-80408400D01*
G75*
G02*
X132164800Y-80333400I0J75000D01*
G01*
X132164800Y-80183400D01*
G75*
G02*
X132239800Y-80108400I75000J0D01*
G01*
G37*
G36*
G01*
X134564800Y-77783400D02*
X134714800Y-77783400D01*
G75*
G02*
X134789800Y-77858400I0J-75000D01*
G01*
X134789800Y-79308400D01*
G75*
G02*
X134714800Y-79383400I-75000J0D01*
G01*
X134564800Y-79383400D01*
G75*
G02*
X134489800Y-79308400I0J75000D01*
G01*
X134489800Y-77858400D01*
G75*
G02*
X134564800Y-77783400I75000J0D01*
G01*
G37*
G36*
G01*
X135064800Y-77783400D02*
X135214800Y-77783400D01*
G75*
G02*
X135289800Y-77858400I0J-75000D01*
G01*
X135289800Y-79308400D01*
G75*
G02*
X135214800Y-79383400I-75000J0D01*
G01*
X135064800Y-79383400D01*
G75*
G02*
X134989800Y-79308400I0J75000D01*
G01*
X134989800Y-77858400D01*
G75*
G02*
X135064800Y-77783400I75000J0D01*
G01*
G37*
G36*
G01*
X135564800Y-77783400D02*
X135714800Y-77783400D01*
G75*
G02*
X135789800Y-77858400I0J-75000D01*
G01*
X135789800Y-79308400D01*
G75*
G02*
X135714800Y-79383400I-75000J0D01*
G01*
X135564800Y-79383400D01*
G75*
G02*
X135489800Y-79308400I0J75000D01*
G01*
X135489800Y-77858400D01*
G75*
G02*
X135564800Y-77783400I75000J0D01*
G01*
G37*
G36*
G01*
X136064800Y-77783400D02*
X136214800Y-77783400D01*
G75*
G02*
X136289800Y-77858400I0J-75000D01*
G01*
X136289800Y-79308400D01*
G75*
G02*
X136214800Y-79383400I-75000J0D01*
G01*
X136064800Y-79383400D01*
G75*
G02*
X135989800Y-79308400I0J75000D01*
G01*
X135989800Y-77858400D01*
G75*
G02*
X136064800Y-77783400I75000J0D01*
G01*
G37*
G36*
G01*
X136564800Y-77783400D02*
X136714800Y-77783400D01*
G75*
G02*
X136789800Y-77858400I0J-75000D01*
G01*
X136789800Y-79308400D01*
G75*
G02*
X136714800Y-79383400I-75000J0D01*
G01*
X136564800Y-79383400D01*
G75*
G02*
X136489800Y-79308400I0J75000D01*
G01*
X136489800Y-77858400D01*
G75*
G02*
X136564800Y-77783400I75000J0D01*
G01*
G37*
G36*
G01*
X137064800Y-77783400D02*
X137214800Y-77783400D01*
G75*
G02*
X137289800Y-77858400I0J-75000D01*
G01*
X137289800Y-79308400D01*
G75*
G02*
X137214800Y-79383400I-75000J0D01*
G01*
X137064800Y-79383400D01*
G75*
G02*
X136989800Y-79308400I0J75000D01*
G01*
X136989800Y-77858400D01*
G75*
G02*
X137064800Y-77783400I75000J0D01*
G01*
G37*
G36*
G01*
X137564800Y-77783400D02*
X137714800Y-77783400D01*
G75*
G02*
X137789800Y-77858400I0J-75000D01*
G01*
X137789800Y-79308400D01*
G75*
G02*
X137714800Y-79383400I-75000J0D01*
G01*
X137564800Y-79383400D01*
G75*
G02*
X137489800Y-79308400I0J75000D01*
G01*
X137489800Y-77858400D01*
G75*
G02*
X137564800Y-77783400I75000J0D01*
G01*
G37*
G36*
G01*
X138064800Y-77783400D02*
X138214800Y-77783400D01*
G75*
G02*
X138289800Y-77858400I0J-75000D01*
G01*
X138289800Y-79308400D01*
G75*
G02*
X138214800Y-79383400I-75000J0D01*
G01*
X138064800Y-79383400D01*
G75*
G02*
X137989800Y-79308400I0J75000D01*
G01*
X137989800Y-77858400D01*
G75*
G02*
X138064800Y-77783400I75000J0D01*
G01*
G37*
G36*
G01*
X138564800Y-77783400D02*
X138714800Y-77783400D01*
G75*
G02*
X138789800Y-77858400I0J-75000D01*
G01*
X138789800Y-79308400D01*
G75*
G02*
X138714800Y-79383400I-75000J0D01*
G01*
X138564800Y-79383400D01*
G75*
G02*
X138489800Y-79308400I0J75000D01*
G01*
X138489800Y-77858400D01*
G75*
G02*
X138564800Y-77783400I75000J0D01*
G01*
G37*
G36*
G01*
X139064800Y-77783400D02*
X139214800Y-77783400D01*
G75*
G02*
X139289800Y-77858400I0J-75000D01*
G01*
X139289800Y-79308400D01*
G75*
G02*
X139214800Y-79383400I-75000J0D01*
G01*
X139064800Y-79383400D01*
G75*
G02*
X138989800Y-79308400I0J75000D01*
G01*
X138989800Y-77858400D01*
G75*
G02*
X139064800Y-77783400I75000J0D01*
G01*
G37*
G36*
G01*
X139564800Y-77783400D02*
X139714800Y-77783400D01*
G75*
G02*
X139789800Y-77858400I0J-75000D01*
G01*
X139789800Y-79308400D01*
G75*
G02*
X139714800Y-79383400I-75000J0D01*
G01*
X139564800Y-79383400D01*
G75*
G02*
X139489800Y-79308400I0J75000D01*
G01*
X139489800Y-77858400D01*
G75*
G02*
X139564800Y-77783400I75000J0D01*
G01*
G37*
G36*
G01*
X140064800Y-77783400D02*
X140214800Y-77783400D01*
G75*
G02*
X140289800Y-77858400I0J-75000D01*
G01*
X140289800Y-79308400D01*
G75*
G02*
X140214800Y-79383400I-75000J0D01*
G01*
X140064800Y-79383400D01*
G75*
G02*
X139989800Y-79308400I0J75000D01*
G01*
X139989800Y-77858400D01*
G75*
G02*
X140064800Y-77783400I75000J0D01*
G01*
G37*
G36*
G01*
X140564800Y-77783400D02*
X140714800Y-77783400D01*
G75*
G02*
X140789800Y-77858400I0J-75000D01*
G01*
X140789800Y-79308400D01*
G75*
G02*
X140714800Y-79383400I-75000J0D01*
G01*
X140564800Y-79383400D01*
G75*
G02*
X140489800Y-79308400I0J75000D01*
G01*
X140489800Y-77858400D01*
G75*
G02*
X140564800Y-77783400I75000J0D01*
G01*
G37*
G36*
G01*
X141064800Y-77783400D02*
X141214800Y-77783400D01*
G75*
G02*
X141289800Y-77858400I0J-75000D01*
G01*
X141289800Y-79308400D01*
G75*
G02*
X141214800Y-79383400I-75000J0D01*
G01*
X141064800Y-79383400D01*
G75*
G02*
X140989800Y-79308400I0J75000D01*
G01*
X140989800Y-77858400D01*
G75*
G02*
X141064800Y-77783400I75000J0D01*
G01*
G37*
G36*
G01*
X141564800Y-77783400D02*
X141714800Y-77783400D01*
G75*
G02*
X141789800Y-77858400I0J-75000D01*
G01*
X141789800Y-79308400D01*
G75*
G02*
X141714800Y-79383400I-75000J0D01*
G01*
X141564800Y-79383400D01*
G75*
G02*
X141489800Y-79308400I0J75000D01*
G01*
X141489800Y-77858400D01*
G75*
G02*
X141564800Y-77783400I75000J0D01*
G01*
G37*
G36*
G01*
X142064800Y-77783400D02*
X142214800Y-77783400D01*
G75*
G02*
X142289800Y-77858400I0J-75000D01*
G01*
X142289800Y-79308400D01*
G75*
G02*
X142214800Y-79383400I-75000J0D01*
G01*
X142064800Y-79383400D01*
G75*
G02*
X141989800Y-79308400I0J75000D01*
G01*
X141989800Y-77858400D01*
G75*
G02*
X142064800Y-77783400I75000J0D01*
G01*
G37*
G36*
G01*
X142564800Y-77783400D02*
X142714800Y-77783400D01*
G75*
G02*
X142789800Y-77858400I0J-75000D01*
G01*
X142789800Y-79308400D01*
G75*
G02*
X142714800Y-79383400I-75000J0D01*
G01*
X142564800Y-79383400D01*
G75*
G02*
X142489800Y-79308400I0J75000D01*
G01*
X142489800Y-77858400D01*
G75*
G02*
X142564800Y-77783400I75000J0D01*
G01*
G37*
G36*
G01*
X143064800Y-77783400D02*
X143214800Y-77783400D01*
G75*
G02*
X143289800Y-77858400I0J-75000D01*
G01*
X143289800Y-79308400D01*
G75*
G02*
X143214800Y-79383400I-75000J0D01*
G01*
X143064800Y-79383400D01*
G75*
G02*
X142989800Y-79308400I0J75000D01*
G01*
X142989800Y-77858400D01*
G75*
G02*
X143064800Y-77783400I75000J0D01*
G01*
G37*
G36*
G01*
X143564800Y-77783400D02*
X143714800Y-77783400D01*
G75*
G02*
X143789800Y-77858400I0J-75000D01*
G01*
X143789800Y-79308400D01*
G75*
G02*
X143714800Y-79383400I-75000J0D01*
G01*
X143564800Y-79383400D01*
G75*
G02*
X143489800Y-79308400I0J75000D01*
G01*
X143489800Y-77858400D01*
G75*
G02*
X143564800Y-77783400I75000J0D01*
G01*
G37*
G36*
G01*
X144064800Y-77783400D02*
X144214800Y-77783400D01*
G75*
G02*
X144289800Y-77858400I0J-75000D01*
G01*
X144289800Y-79308400D01*
G75*
G02*
X144214800Y-79383400I-75000J0D01*
G01*
X144064800Y-79383400D01*
G75*
G02*
X143989800Y-79308400I0J75000D01*
G01*
X143989800Y-77858400D01*
G75*
G02*
X144064800Y-77783400I75000J0D01*
G01*
G37*
G36*
G01*
X144564800Y-77783400D02*
X144714800Y-77783400D01*
G75*
G02*
X144789800Y-77858400I0J-75000D01*
G01*
X144789800Y-79308400D01*
G75*
G02*
X144714800Y-79383400I-75000J0D01*
G01*
X144564800Y-79383400D01*
G75*
G02*
X144489800Y-79308400I0J75000D01*
G01*
X144489800Y-77858400D01*
G75*
G02*
X144564800Y-77783400I75000J0D01*
G01*
G37*
G36*
G01*
X145064800Y-77783400D02*
X145214800Y-77783400D01*
G75*
G02*
X145289800Y-77858400I0J-75000D01*
G01*
X145289800Y-79308400D01*
G75*
G02*
X145214800Y-79383400I-75000J0D01*
G01*
X145064800Y-79383400D01*
G75*
G02*
X144989800Y-79308400I0J75000D01*
G01*
X144989800Y-77858400D01*
G75*
G02*
X145064800Y-77783400I75000J0D01*
G01*
G37*
G36*
G01*
X145564800Y-77783400D02*
X145714800Y-77783400D01*
G75*
G02*
X145789800Y-77858400I0J-75000D01*
G01*
X145789800Y-79308400D01*
G75*
G02*
X145714800Y-79383400I-75000J0D01*
G01*
X145564800Y-79383400D01*
G75*
G02*
X145489800Y-79308400I0J75000D01*
G01*
X145489800Y-77858400D01*
G75*
G02*
X145564800Y-77783400I75000J0D01*
G01*
G37*
G36*
G01*
X146064800Y-77783400D02*
X146214800Y-77783400D01*
G75*
G02*
X146289800Y-77858400I0J-75000D01*
G01*
X146289800Y-79308400D01*
G75*
G02*
X146214800Y-79383400I-75000J0D01*
G01*
X146064800Y-79383400D01*
G75*
G02*
X145989800Y-79308400I0J75000D01*
G01*
X145989800Y-77858400D01*
G75*
G02*
X146064800Y-77783400I75000J0D01*
G01*
G37*
G36*
G01*
X146564800Y-77783400D02*
X146714800Y-77783400D01*
G75*
G02*
X146789800Y-77858400I0J-75000D01*
G01*
X146789800Y-79308400D01*
G75*
G02*
X146714800Y-79383400I-75000J0D01*
G01*
X146564800Y-79383400D01*
G75*
G02*
X146489800Y-79308400I0J75000D01*
G01*
X146489800Y-77858400D01*
G75*
G02*
X146564800Y-77783400I75000J0D01*
G01*
G37*
%TD*%
%TO.C,U1*%
G36*
G01*
X160326200Y-91602700D02*
X160326200Y-91302700D01*
G75*
G02*
X160476200Y-91152700I150000J0D01*
G01*
X162126200Y-91152700D01*
G75*
G02*
X162276200Y-91302700I0J-150000D01*
G01*
X162276200Y-91602700D01*
G75*
G02*
X162126200Y-91752700I-150000J0D01*
G01*
X160476200Y-91752700D01*
G75*
G02*
X160326200Y-91602700I0J150000D01*
G01*
G37*
G36*
G01*
X160326200Y-92872700D02*
X160326200Y-92572700D01*
G75*
G02*
X160476200Y-92422700I150000J0D01*
G01*
X162126200Y-92422700D01*
G75*
G02*
X162276200Y-92572700I0J-150000D01*
G01*
X162276200Y-92872700D01*
G75*
G02*
X162126200Y-93022700I-150000J0D01*
G01*
X160476200Y-93022700D01*
G75*
G02*
X160326200Y-92872700I0J150000D01*
G01*
G37*
G36*
G01*
X160326200Y-94142700D02*
X160326200Y-93842700D01*
G75*
G02*
X160476200Y-93692700I150000J0D01*
G01*
X162126200Y-93692700D01*
G75*
G02*
X162276200Y-93842700I0J-150000D01*
G01*
X162276200Y-94142700D01*
G75*
G02*
X162126200Y-94292700I-150000J0D01*
G01*
X160476200Y-94292700D01*
G75*
G02*
X160326200Y-94142700I0J150000D01*
G01*
G37*
G36*
G01*
X160326200Y-95412700D02*
X160326200Y-95112700D01*
G75*
G02*
X160476200Y-94962700I150000J0D01*
G01*
X162126200Y-94962700D01*
G75*
G02*
X162276200Y-95112700I0J-150000D01*
G01*
X162276200Y-95412700D01*
G75*
G02*
X162126200Y-95562700I-150000J0D01*
G01*
X160476200Y-95562700D01*
G75*
G02*
X160326200Y-95412700I0J150000D01*
G01*
G37*
G36*
G01*
X160326200Y-96682700D02*
X160326200Y-96382700D01*
G75*
G02*
X160476200Y-96232700I150000J0D01*
G01*
X162126200Y-96232700D01*
G75*
G02*
X162276200Y-96382700I0J-150000D01*
G01*
X162276200Y-96682700D01*
G75*
G02*
X162126200Y-96832700I-150000J0D01*
G01*
X160476200Y-96832700D01*
G75*
G02*
X160326200Y-96682700I0J150000D01*
G01*
G37*
G36*
G01*
X160326200Y-97952700D02*
X160326200Y-97652700D01*
G75*
G02*
X160476200Y-97502700I150000J0D01*
G01*
X162126200Y-97502700D01*
G75*
G02*
X162276200Y-97652700I0J-150000D01*
G01*
X162276200Y-97952700D01*
G75*
G02*
X162126200Y-98102700I-150000J0D01*
G01*
X160476200Y-98102700D01*
G75*
G02*
X160326200Y-97952700I0J150000D01*
G01*
G37*
G36*
G01*
X160326200Y-99222700D02*
X160326200Y-98922700D01*
G75*
G02*
X160476200Y-98772700I150000J0D01*
G01*
X162126200Y-98772700D01*
G75*
G02*
X162276200Y-98922700I0J-150000D01*
G01*
X162276200Y-99222700D01*
G75*
G02*
X162126200Y-99372700I-150000J0D01*
G01*
X160476200Y-99372700D01*
G75*
G02*
X160326200Y-99222700I0J150000D01*
G01*
G37*
G36*
G01*
X160326200Y-100492700D02*
X160326200Y-100192700D01*
G75*
G02*
X160476200Y-100042700I150000J0D01*
G01*
X162126200Y-100042700D01*
G75*
G02*
X162276200Y-100192700I0J-150000D01*
G01*
X162276200Y-100492700D01*
G75*
G02*
X162126200Y-100642700I-150000J0D01*
G01*
X160476200Y-100642700D01*
G75*
G02*
X160326200Y-100492700I0J150000D01*
G01*
G37*
G36*
G01*
X155376200Y-100492700D02*
X155376200Y-100192700D01*
G75*
G02*
X155526200Y-100042700I150000J0D01*
G01*
X157176200Y-100042700D01*
G75*
G02*
X157326200Y-100192700I0J-150000D01*
G01*
X157326200Y-100492700D01*
G75*
G02*
X157176200Y-100642700I-150000J0D01*
G01*
X155526200Y-100642700D01*
G75*
G02*
X155376200Y-100492700I0J150000D01*
G01*
G37*
G36*
G01*
X155376200Y-99222700D02*
X155376200Y-98922700D01*
G75*
G02*
X155526200Y-98772700I150000J0D01*
G01*
X157176200Y-98772700D01*
G75*
G02*
X157326200Y-98922700I0J-150000D01*
G01*
X157326200Y-99222700D01*
G75*
G02*
X157176200Y-99372700I-150000J0D01*
G01*
X155526200Y-99372700D01*
G75*
G02*
X155376200Y-99222700I0J150000D01*
G01*
G37*
G36*
G01*
X155376200Y-97952700D02*
X155376200Y-97652700D01*
G75*
G02*
X155526200Y-97502700I150000J0D01*
G01*
X157176200Y-97502700D01*
G75*
G02*
X157326200Y-97652700I0J-150000D01*
G01*
X157326200Y-97952700D01*
G75*
G02*
X157176200Y-98102700I-150000J0D01*
G01*
X155526200Y-98102700D01*
G75*
G02*
X155376200Y-97952700I0J150000D01*
G01*
G37*
G36*
G01*
X155376200Y-96682700D02*
X155376200Y-96382700D01*
G75*
G02*
X155526200Y-96232700I150000J0D01*
G01*
X157176200Y-96232700D01*
G75*
G02*
X157326200Y-96382700I0J-150000D01*
G01*
X157326200Y-96682700D01*
G75*
G02*
X157176200Y-96832700I-150000J0D01*
G01*
X155526200Y-96832700D01*
G75*
G02*
X155376200Y-96682700I0J150000D01*
G01*
G37*
G36*
G01*
X155376200Y-95412700D02*
X155376200Y-95112700D01*
G75*
G02*
X155526200Y-94962700I150000J0D01*
G01*
X157176200Y-94962700D01*
G75*
G02*
X157326200Y-95112700I0J-150000D01*
G01*
X157326200Y-95412700D01*
G75*
G02*
X157176200Y-95562700I-150000J0D01*
G01*
X155526200Y-95562700D01*
G75*
G02*
X155376200Y-95412700I0J150000D01*
G01*
G37*
G36*
G01*
X155376200Y-94142700D02*
X155376200Y-93842700D01*
G75*
G02*
X155526200Y-93692700I150000J0D01*
G01*
X157176200Y-93692700D01*
G75*
G02*
X157326200Y-93842700I0J-150000D01*
G01*
X157326200Y-94142700D01*
G75*
G02*
X157176200Y-94292700I-150000J0D01*
G01*
X155526200Y-94292700D01*
G75*
G02*
X155376200Y-94142700I0J150000D01*
G01*
G37*
G36*
G01*
X155376200Y-92872700D02*
X155376200Y-92572700D01*
G75*
G02*
X155526200Y-92422700I150000J0D01*
G01*
X157176200Y-92422700D01*
G75*
G02*
X157326200Y-92572700I0J-150000D01*
G01*
X157326200Y-92872700D01*
G75*
G02*
X157176200Y-93022700I-150000J0D01*
G01*
X155526200Y-93022700D01*
G75*
G02*
X155376200Y-92872700I0J150000D01*
G01*
G37*
G36*
G01*
X155376200Y-91602700D02*
X155376200Y-91302700D01*
G75*
G02*
X155526200Y-91152700I150000J0D01*
G01*
X157176200Y-91152700D01*
G75*
G02*
X157326200Y-91302700I0J-150000D01*
G01*
X157326200Y-91602700D01*
G75*
G02*
X157176200Y-91752700I-150000J0D01*
G01*
X155526200Y-91752700D01*
G75*
G02*
X155376200Y-91602700I0J150000D01*
G01*
G37*
%TD*%
D17*
%TO.C,SW1*%
X154193000Y-62204600D03*
X147193000Y-62204600D03*
%TD*%
%TO.C,R71*%
G36*
G01*
X125926400Y-99640400D02*
X125926400Y-99165400D01*
G75*
G02*
X126163900Y-98927900I237500J0D01*
G01*
X126663900Y-98927900D01*
G75*
G02*
X126901400Y-99165400I0J-237500D01*
G01*
X126901400Y-99640400D01*
G75*
G02*
X126663900Y-99877900I-237500J0D01*
G01*
X126163900Y-99877900D01*
G75*
G02*
X125926400Y-99640400I0J237500D01*
G01*
G37*
G36*
G01*
X124101400Y-99640400D02*
X124101400Y-99165400D01*
G75*
G02*
X124338900Y-98927900I237500J0D01*
G01*
X124838900Y-98927900D01*
G75*
G02*
X125076400Y-99165400I0J-237500D01*
G01*
X125076400Y-99640400D01*
G75*
G02*
X124838900Y-99877900I-237500J0D01*
G01*
X124338900Y-99877900D01*
G75*
G02*
X124101400Y-99640400I0J237500D01*
G01*
G37*
%TD*%
%TO.C,R70*%
G36*
G01*
X125926400Y-98141800D02*
X125926400Y-97666800D01*
G75*
G02*
X126163900Y-97429300I237500J0D01*
G01*
X126663900Y-97429300D01*
G75*
G02*
X126901400Y-97666800I0J-237500D01*
G01*
X126901400Y-98141800D01*
G75*
G02*
X126663900Y-98379300I-237500J0D01*
G01*
X126163900Y-98379300D01*
G75*
G02*
X125926400Y-98141800I0J237500D01*
G01*
G37*
G36*
G01*
X124101400Y-98141800D02*
X124101400Y-97666800D01*
G75*
G02*
X124338900Y-97429300I237500J0D01*
G01*
X124838900Y-97429300D01*
G75*
G02*
X125076400Y-97666800I0J-237500D01*
G01*
X125076400Y-98141800D01*
G75*
G02*
X124838900Y-98379300I-237500J0D01*
G01*
X124338900Y-98379300D01*
G75*
G02*
X124101400Y-98141800I0J237500D01*
G01*
G37*
%TD*%
%TO.C,R66*%
G36*
G01*
X141588500Y-65538800D02*
X141113500Y-65538800D01*
G75*
G02*
X140876000Y-65301300I0J237500D01*
G01*
X140876000Y-64801300D01*
G75*
G02*
X141113500Y-64563800I237500J0D01*
G01*
X141588500Y-64563800D01*
G75*
G02*
X141826000Y-64801300I0J-237500D01*
G01*
X141826000Y-65301300D01*
G75*
G02*
X141588500Y-65538800I-237500J0D01*
G01*
G37*
G36*
G01*
X141588500Y-67363800D02*
X141113500Y-67363800D01*
G75*
G02*
X140876000Y-67126300I0J237500D01*
G01*
X140876000Y-66626300D01*
G75*
G02*
X141113500Y-66388800I237500J0D01*
G01*
X141588500Y-66388800D01*
G75*
G02*
X141826000Y-66626300I0J-237500D01*
G01*
X141826000Y-67126300D01*
G75*
G02*
X141588500Y-67363800I-237500J0D01*
G01*
G37*
%TD*%
%TO.C,R64*%
G36*
G01*
X139500600Y-69690800D02*
X139975600Y-69690800D01*
G75*
G02*
X140213100Y-69928300I0J-237500D01*
G01*
X140213100Y-70428300D01*
G75*
G02*
X139975600Y-70665800I-237500J0D01*
G01*
X139500600Y-70665800D01*
G75*
G02*
X139263100Y-70428300I0J237500D01*
G01*
X139263100Y-69928300D01*
G75*
G02*
X139500600Y-69690800I237500J0D01*
G01*
G37*
G36*
G01*
X139500600Y-67865800D02*
X139975600Y-67865800D01*
G75*
G02*
X140213100Y-68103300I0J-237500D01*
G01*
X140213100Y-68603300D01*
G75*
G02*
X139975600Y-68840800I-237500J0D01*
G01*
X139500600Y-68840800D01*
G75*
G02*
X139263100Y-68603300I0J237500D01*
G01*
X139263100Y-68103300D01*
G75*
G02*
X139500600Y-67865800I237500J0D01*
G01*
G37*
%TD*%
%TO.C,R59*%
G36*
G01*
X132228600Y-103842000D02*
X131753600Y-103842000D01*
G75*
G02*
X131516100Y-103604500I0J237500D01*
G01*
X131516100Y-103104500D01*
G75*
G02*
X131753600Y-102867000I237500J0D01*
G01*
X132228600Y-102867000D01*
G75*
G02*
X132466100Y-103104500I0J-237500D01*
G01*
X132466100Y-103604500D01*
G75*
G02*
X132228600Y-103842000I-237500J0D01*
G01*
G37*
G36*
G01*
X132228600Y-105667000D02*
X131753600Y-105667000D01*
G75*
G02*
X131516100Y-105429500I0J237500D01*
G01*
X131516100Y-104929500D01*
G75*
G02*
X131753600Y-104692000I237500J0D01*
G01*
X132228600Y-104692000D01*
G75*
G02*
X132466100Y-104929500I0J-237500D01*
G01*
X132466100Y-105429500D01*
G75*
G02*
X132228600Y-105667000I-237500J0D01*
G01*
G37*
%TD*%
%TO.C,R55*%
G36*
G01*
X134590800Y-97326900D02*
X134115800Y-97326900D01*
G75*
G02*
X133878300Y-97089400I0J237500D01*
G01*
X133878300Y-96589400D01*
G75*
G02*
X134115800Y-96351900I237500J0D01*
G01*
X134590800Y-96351900D01*
G75*
G02*
X134828300Y-96589400I0J-237500D01*
G01*
X134828300Y-97089400D01*
G75*
G02*
X134590800Y-97326900I-237500J0D01*
G01*
G37*
G36*
G01*
X134590800Y-99151900D02*
X134115800Y-99151900D01*
G75*
G02*
X133878300Y-98914400I0J237500D01*
G01*
X133878300Y-98414400D01*
G75*
G02*
X134115800Y-98176900I237500J0D01*
G01*
X134590800Y-98176900D01*
G75*
G02*
X134828300Y-98414400I0J-237500D01*
G01*
X134828300Y-98914400D01*
G75*
G02*
X134590800Y-99151900I-237500J0D01*
G01*
G37*
%TD*%
%TO.C,R54*%
G36*
G01*
X136152900Y-97326900D02*
X135677900Y-97326900D01*
G75*
G02*
X135440400Y-97089400I0J237500D01*
G01*
X135440400Y-96589400D01*
G75*
G02*
X135677900Y-96351900I237500J0D01*
G01*
X136152900Y-96351900D01*
G75*
G02*
X136390400Y-96589400I0J-237500D01*
G01*
X136390400Y-97089400D01*
G75*
G02*
X136152900Y-97326900I-237500J0D01*
G01*
G37*
G36*
G01*
X136152900Y-99151900D02*
X135677900Y-99151900D01*
G75*
G02*
X135440400Y-98914400I0J237500D01*
G01*
X135440400Y-98414400D01*
G75*
G02*
X135677900Y-98176900I237500J0D01*
G01*
X136152900Y-98176900D01*
G75*
G02*
X136390400Y-98414400I0J-237500D01*
G01*
X136390400Y-98914400D01*
G75*
G02*
X136152900Y-99151900I-237500J0D01*
G01*
G37*
%TD*%
%TO.C,R51*%
G36*
G01*
X137715000Y-97326900D02*
X137240000Y-97326900D01*
G75*
G02*
X137002500Y-97089400I0J237500D01*
G01*
X137002500Y-96589400D01*
G75*
G02*
X137240000Y-96351900I237500J0D01*
G01*
X137715000Y-96351900D01*
G75*
G02*
X137952500Y-96589400I0J-237500D01*
G01*
X137952500Y-97089400D01*
G75*
G02*
X137715000Y-97326900I-237500J0D01*
G01*
G37*
G36*
G01*
X137715000Y-99151900D02*
X137240000Y-99151900D01*
G75*
G02*
X137002500Y-98914400I0J237500D01*
G01*
X137002500Y-98414400D01*
G75*
G02*
X137240000Y-98176900I237500J0D01*
G01*
X137715000Y-98176900D01*
G75*
G02*
X137952500Y-98414400I0J-237500D01*
G01*
X137952500Y-98914400D01*
G75*
G02*
X137715000Y-99151900I-237500J0D01*
G01*
G37*
%TD*%
%TO.C,R50*%
G36*
G01*
X139277100Y-97326900D02*
X138802100Y-97326900D01*
G75*
G02*
X138564600Y-97089400I0J237500D01*
G01*
X138564600Y-96589400D01*
G75*
G02*
X138802100Y-96351900I237500J0D01*
G01*
X139277100Y-96351900D01*
G75*
G02*
X139514600Y-96589400I0J-237500D01*
G01*
X139514600Y-97089400D01*
G75*
G02*
X139277100Y-97326900I-237500J0D01*
G01*
G37*
G36*
G01*
X139277100Y-99151900D02*
X138802100Y-99151900D01*
G75*
G02*
X138564600Y-98914400I0J237500D01*
G01*
X138564600Y-98414400D01*
G75*
G02*
X138802100Y-98176900I237500J0D01*
G01*
X139277100Y-98176900D01*
G75*
G02*
X139514600Y-98414400I0J-237500D01*
G01*
X139514600Y-98914400D01*
G75*
G02*
X139277100Y-99151900I-237500J0D01*
G01*
G37*
%TD*%
%TO.C,R42*%
G36*
G01*
X152165500Y-94136200D02*
X152165500Y-94611200D01*
G75*
G02*
X151928000Y-94848700I-237500J0D01*
G01*
X151428000Y-94848700D01*
G75*
G02*
X151190500Y-94611200I0J237500D01*
G01*
X151190500Y-94136200D01*
G75*
G02*
X151428000Y-93898700I237500J0D01*
G01*
X151928000Y-93898700D01*
G75*
G02*
X152165500Y-94136200I0J-237500D01*
G01*
G37*
G36*
G01*
X153990500Y-94136200D02*
X153990500Y-94611200D01*
G75*
G02*
X153753000Y-94848700I-237500J0D01*
G01*
X153253000Y-94848700D01*
G75*
G02*
X153015500Y-94611200I0J237500D01*
G01*
X153015500Y-94136200D01*
G75*
G02*
X153253000Y-93898700I237500J0D01*
G01*
X153753000Y-93898700D01*
G75*
G02*
X153990500Y-94136200I0J-237500D01*
G01*
G37*
%TD*%
%TO.C,R41*%
G36*
G01*
X127679000Y-92579200D02*
X127679000Y-92104200D01*
G75*
G02*
X127916500Y-91866700I237500J0D01*
G01*
X128416500Y-91866700D01*
G75*
G02*
X128654000Y-92104200I0J-237500D01*
G01*
X128654000Y-92579200D01*
G75*
G02*
X128416500Y-92816700I-237500J0D01*
G01*
X127916500Y-92816700D01*
G75*
G02*
X127679000Y-92579200I0J237500D01*
G01*
G37*
G36*
G01*
X125854000Y-92579200D02*
X125854000Y-92104200D01*
G75*
G02*
X126091500Y-91866700I237500J0D01*
G01*
X126591500Y-91866700D01*
G75*
G02*
X126829000Y-92104200I0J-237500D01*
G01*
X126829000Y-92579200D01*
G75*
G02*
X126591500Y-92816700I-237500J0D01*
G01*
X126091500Y-92816700D01*
G75*
G02*
X125854000Y-92579200I0J237500D01*
G01*
G37*
%TD*%
%TO.C,R40*%
G36*
G01*
X152154700Y-92637600D02*
X152154700Y-93112600D01*
G75*
G02*
X151917200Y-93350100I-237500J0D01*
G01*
X151417200Y-93350100D01*
G75*
G02*
X151179700Y-93112600I0J237500D01*
G01*
X151179700Y-92637600D01*
G75*
G02*
X151417200Y-92400100I237500J0D01*
G01*
X151917200Y-92400100D01*
G75*
G02*
X152154700Y-92637600I0J-237500D01*
G01*
G37*
G36*
G01*
X153979700Y-92637600D02*
X153979700Y-93112600D01*
G75*
G02*
X153742200Y-93350100I-237500J0D01*
G01*
X153242200Y-93350100D01*
G75*
G02*
X153004700Y-93112600I0J237500D01*
G01*
X153004700Y-92637600D01*
G75*
G02*
X153242200Y-92400100I237500J0D01*
G01*
X153742200Y-92400100D01*
G75*
G02*
X153979700Y-92637600I0J-237500D01*
G01*
G37*
%TD*%
%TO.C,R39*%
G36*
G01*
X127677100Y-91017100D02*
X127677100Y-90542100D01*
G75*
G02*
X127914600Y-90304600I237500J0D01*
G01*
X128414600Y-90304600D01*
G75*
G02*
X128652100Y-90542100I0J-237500D01*
G01*
X128652100Y-91017100D01*
G75*
G02*
X128414600Y-91254600I-237500J0D01*
G01*
X127914600Y-91254600D01*
G75*
G02*
X127677100Y-91017100I0J237500D01*
G01*
G37*
G36*
G01*
X125852100Y-91017100D02*
X125852100Y-90542100D01*
G75*
G02*
X126089600Y-90304600I237500J0D01*
G01*
X126589600Y-90304600D01*
G75*
G02*
X126827100Y-90542100I0J-237500D01*
G01*
X126827100Y-91017100D01*
G75*
G02*
X126589600Y-91254600I-237500J0D01*
G01*
X126089600Y-91254600D01*
G75*
G02*
X125852100Y-91017100I0J237500D01*
G01*
G37*
%TD*%
%TO.C,R38*%
G36*
G01*
X127655500Y-89493100D02*
X127655500Y-89018100D01*
G75*
G02*
X127893000Y-88780600I237500J0D01*
G01*
X128393000Y-88780600D01*
G75*
G02*
X128630500Y-89018100I0J-237500D01*
G01*
X128630500Y-89493100D01*
G75*
G02*
X128393000Y-89730600I-237500J0D01*
G01*
X127893000Y-89730600D01*
G75*
G02*
X127655500Y-89493100I0J237500D01*
G01*
G37*
G36*
G01*
X125830500Y-89493100D02*
X125830500Y-89018100D01*
G75*
G02*
X126068000Y-88780600I237500J0D01*
G01*
X126568000Y-88780600D01*
G75*
G02*
X126805500Y-89018100I0J-237500D01*
G01*
X126805500Y-89493100D01*
G75*
G02*
X126568000Y-89730600I-237500J0D01*
G01*
X126068000Y-89730600D01*
G75*
G02*
X125830500Y-89493100I0J237500D01*
G01*
G37*
%TD*%
%TO.C,R37*%
G36*
G01*
X127513900Y-87867500D02*
X127513900Y-87392500D01*
G75*
G02*
X127751400Y-87155000I237500J0D01*
G01*
X128251400Y-87155000D01*
G75*
G02*
X128488900Y-87392500I0J-237500D01*
G01*
X128488900Y-87867500D01*
G75*
G02*
X128251400Y-88105000I-237500J0D01*
G01*
X127751400Y-88105000D01*
G75*
G02*
X127513900Y-87867500I0J237500D01*
G01*
G37*
G36*
G01*
X125688900Y-87867500D02*
X125688900Y-87392500D01*
G75*
G02*
X125926400Y-87155000I237500J0D01*
G01*
X126426400Y-87155000D01*
G75*
G02*
X126663900Y-87392500I0J-237500D01*
G01*
X126663900Y-87867500D01*
G75*
G02*
X126426400Y-88105000I-237500J0D01*
G01*
X125926400Y-88105000D01*
G75*
G02*
X125688900Y-87867500I0J237500D01*
G01*
G37*
%TD*%
%TO.C,R36*%
G36*
G01*
X127513900Y-86330800D02*
X127513900Y-85855800D01*
G75*
G02*
X127751400Y-85618300I237500J0D01*
G01*
X128251400Y-85618300D01*
G75*
G02*
X128488900Y-85855800I0J-237500D01*
G01*
X128488900Y-86330800D01*
G75*
G02*
X128251400Y-86568300I-237500J0D01*
G01*
X127751400Y-86568300D01*
G75*
G02*
X127513900Y-86330800I0J237500D01*
G01*
G37*
G36*
G01*
X125688900Y-86330800D02*
X125688900Y-85855800D01*
G75*
G02*
X125926400Y-85618300I237500J0D01*
G01*
X126426400Y-85618300D01*
G75*
G02*
X126663900Y-85855800I0J-237500D01*
G01*
X126663900Y-86330800D01*
G75*
G02*
X126426400Y-86568300I-237500J0D01*
G01*
X125926400Y-86568300D01*
G75*
G02*
X125688900Y-86330800I0J237500D01*
G01*
G37*
%TD*%
%TO.C,R24*%
G36*
G01*
X125556000Y-71862500D02*
X126031000Y-71862500D01*
G75*
G02*
X126268500Y-72100000I0J-237500D01*
G01*
X126268500Y-72600000D01*
G75*
G02*
X126031000Y-72837500I-237500J0D01*
G01*
X125556000Y-72837500D01*
G75*
G02*
X125318500Y-72600000I0J237500D01*
G01*
X125318500Y-72100000D01*
G75*
G02*
X125556000Y-71862500I237500J0D01*
G01*
G37*
G36*
G01*
X125556000Y-70037500D02*
X126031000Y-70037500D01*
G75*
G02*
X126268500Y-70275000I0J-237500D01*
G01*
X126268500Y-70775000D01*
G75*
G02*
X126031000Y-71012500I-237500J0D01*
G01*
X125556000Y-71012500D01*
G75*
G02*
X125318500Y-70775000I0J237500D01*
G01*
X125318500Y-70275000D01*
G75*
G02*
X125556000Y-70037500I237500J0D01*
G01*
G37*
%TD*%
%TO.C,R20*%
G36*
G01*
X150666900Y-82998300D02*
X150666900Y-83473300D01*
G75*
G02*
X150429400Y-83710800I-237500J0D01*
G01*
X149929400Y-83710800D01*
G75*
G02*
X149691900Y-83473300I0J237500D01*
G01*
X149691900Y-82998300D01*
G75*
G02*
X149929400Y-82760800I237500J0D01*
G01*
X150429400Y-82760800D01*
G75*
G02*
X150666900Y-82998300I0J-237500D01*
G01*
G37*
G36*
G01*
X152491900Y-82998300D02*
X152491900Y-83473300D01*
G75*
G02*
X152254400Y-83710800I-237500J0D01*
G01*
X151754400Y-83710800D01*
G75*
G02*
X151516900Y-83473300I0J237500D01*
G01*
X151516900Y-82998300D01*
G75*
G02*
X151754400Y-82760800I237500J0D01*
G01*
X152254400Y-82760800D01*
G75*
G02*
X152491900Y-82998300I0J-237500D01*
G01*
G37*
%TD*%
%TO.C,R19*%
G36*
G01*
X119754200Y-84844900D02*
X119754200Y-84369900D01*
G75*
G02*
X119991700Y-84132400I237500J0D01*
G01*
X120491700Y-84132400D01*
G75*
G02*
X120729200Y-84369900I0J-237500D01*
G01*
X120729200Y-84844900D01*
G75*
G02*
X120491700Y-85082400I-237500J0D01*
G01*
X119991700Y-85082400D01*
G75*
G02*
X119754200Y-84844900I0J237500D01*
G01*
G37*
G36*
G01*
X117929200Y-84844900D02*
X117929200Y-84369900D01*
G75*
G02*
X118166700Y-84132400I237500J0D01*
G01*
X118666700Y-84132400D01*
G75*
G02*
X118904200Y-84369900I0J-237500D01*
G01*
X118904200Y-84844900D01*
G75*
G02*
X118666700Y-85082400I-237500J0D01*
G01*
X118166700Y-85082400D01*
G75*
G02*
X117929200Y-84844900I0J237500D01*
G01*
G37*
%TD*%
%TO.C,R17*%
G36*
G01*
X123206500Y-71887900D02*
X123681500Y-71887900D01*
G75*
G02*
X123919000Y-72125400I0J-237500D01*
G01*
X123919000Y-72625400D01*
G75*
G02*
X123681500Y-72862900I-237500J0D01*
G01*
X123206500Y-72862900D01*
G75*
G02*
X122969000Y-72625400I0J237500D01*
G01*
X122969000Y-72125400D01*
G75*
G02*
X123206500Y-71887900I237500J0D01*
G01*
G37*
G36*
G01*
X123206500Y-70062900D02*
X123681500Y-70062900D01*
G75*
G02*
X123919000Y-70300400I0J-237500D01*
G01*
X123919000Y-70800400D01*
G75*
G02*
X123681500Y-71037900I-237500J0D01*
G01*
X123206500Y-71037900D01*
G75*
G02*
X122969000Y-70800400I0J237500D01*
G01*
X122969000Y-70300400D01*
G75*
G02*
X123206500Y-70062900I237500J0D01*
G01*
G37*
%TD*%
%TO.C,R16*%
G36*
G01*
X119726900Y-83270100D02*
X119726900Y-82795100D01*
G75*
G02*
X119964400Y-82557600I237500J0D01*
G01*
X120464400Y-82557600D01*
G75*
G02*
X120701900Y-82795100I0J-237500D01*
G01*
X120701900Y-83270100D01*
G75*
G02*
X120464400Y-83507600I-237500J0D01*
G01*
X119964400Y-83507600D01*
G75*
G02*
X119726900Y-83270100I0J237500D01*
G01*
G37*
G36*
G01*
X117901900Y-83270100D02*
X117901900Y-82795100D01*
G75*
G02*
X118139400Y-82557600I237500J0D01*
G01*
X118639400Y-82557600D01*
G75*
G02*
X118876900Y-82795100I0J-237500D01*
G01*
X118876900Y-83270100D01*
G75*
G02*
X118639400Y-83507600I-237500J0D01*
G01*
X118139400Y-83507600D01*
G75*
G02*
X117901900Y-83270100I0J237500D01*
G01*
G37*
%TD*%
%TO.C,R15*%
G36*
G01*
X129270300Y-76856600D02*
X129270300Y-76381600D01*
G75*
G02*
X129507800Y-76144100I237500J0D01*
G01*
X130007800Y-76144100D01*
G75*
G02*
X130245300Y-76381600I0J-237500D01*
G01*
X130245300Y-76856600D01*
G75*
G02*
X130007800Y-77094100I-237500J0D01*
G01*
X129507800Y-77094100D01*
G75*
G02*
X129270300Y-76856600I0J237500D01*
G01*
G37*
G36*
G01*
X131095300Y-76856600D02*
X131095300Y-76381600D01*
G75*
G02*
X131332800Y-76144100I237500J0D01*
G01*
X131832800Y-76144100D01*
G75*
G02*
X132070300Y-76381600I0J-237500D01*
G01*
X132070300Y-76856600D01*
G75*
G02*
X131832800Y-77094100I-237500J0D01*
G01*
X131332800Y-77094100D01*
G75*
G02*
X131095300Y-76856600I0J237500D01*
G01*
G37*
%TD*%
%TO.C,R14*%
G36*
G01*
X129270300Y-75290267D02*
X129270300Y-74815267D01*
G75*
G02*
X129507800Y-74577767I237500J0D01*
G01*
X130007800Y-74577767D01*
G75*
G02*
X130245300Y-74815267I0J-237500D01*
G01*
X130245300Y-75290267D01*
G75*
G02*
X130007800Y-75527767I-237500J0D01*
G01*
X129507800Y-75527767D01*
G75*
G02*
X129270300Y-75290267I0J237500D01*
G01*
G37*
G36*
G01*
X131095300Y-75290267D02*
X131095300Y-74815267D01*
G75*
G02*
X131332800Y-74577767I237500J0D01*
G01*
X131832800Y-74577767D01*
G75*
G02*
X132070300Y-74815267I0J-237500D01*
G01*
X132070300Y-75290267D01*
G75*
G02*
X131832800Y-75527767I-237500J0D01*
G01*
X131332800Y-75527767D01*
G75*
G02*
X131095300Y-75290267I0J237500D01*
G01*
G37*
%TD*%
%TO.C,R13*%
G36*
G01*
X129270300Y-73723934D02*
X129270300Y-73248934D01*
G75*
G02*
X129507800Y-73011434I237500J0D01*
G01*
X130007800Y-73011434D01*
G75*
G02*
X130245300Y-73248934I0J-237500D01*
G01*
X130245300Y-73723934D01*
G75*
G02*
X130007800Y-73961434I-237500J0D01*
G01*
X129507800Y-73961434D01*
G75*
G02*
X129270300Y-73723934I0J237500D01*
G01*
G37*
G36*
G01*
X131095300Y-73723934D02*
X131095300Y-73248934D01*
G75*
G02*
X131332800Y-73011434I237500J0D01*
G01*
X131832800Y-73011434D01*
G75*
G02*
X132070300Y-73248934I0J-237500D01*
G01*
X132070300Y-73723934D01*
G75*
G02*
X131832800Y-73961434I-237500J0D01*
G01*
X131332800Y-73961434D01*
G75*
G02*
X131095300Y-73723934I0J237500D01*
G01*
G37*
%TD*%
%TO.C,R12*%
G36*
G01*
X129270300Y-72157600D02*
X129270300Y-71682600D01*
G75*
G02*
X129507800Y-71445100I237500J0D01*
G01*
X130007800Y-71445100D01*
G75*
G02*
X130245300Y-71682600I0J-237500D01*
G01*
X130245300Y-72157600D01*
G75*
G02*
X130007800Y-72395100I-237500J0D01*
G01*
X129507800Y-72395100D01*
G75*
G02*
X129270300Y-72157600I0J237500D01*
G01*
G37*
G36*
G01*
X131095300Y-72157600D02*
X131095300Y-71682600D01*
G75*
G02*
X131332800Y-71445100I237500J0D01*
G01*
X131832800Y-71445100D01*
G75*
G02*
X132070300Y-71682600I0J-237500D01*
G01*
X132070300Y-72157600D01*
G75*
G02*
X131832800Y-72395100I-237500J0D01*
G01*
X131332800Y-72395100D01*
G75*
G02*
X131095300Y-72157600I0J237500D01*
G01*
G37*
%TD*%
%TO.C,R10*%
G36*
G01*
X136630400Y-74847000D02*
X137105400Y-74847000D01*
G75*
G02*
X137342900Y-75084500I0J-237500D01*
G01*
X137342900Y-75584500D01*
G75*
G02*
X137105400Y-75822000I-237500J0D01*
G01*
X136630400Y-75822000D01*
G75*
G02*
X136392900Y-75584500I0J237500D01*
G01*
X136392900Y-75084500D01*
G75*
G02*
X136630400Y-74847000I237500J0D01*
G01*
G37*
G36*
G01*
X136630400Y-73022000D02*
X137105400Y-73022000D01*
G75*
G02*
X137342900Y-73259500I0J-237500D01*
G01*
X137342900Y-73759500D01*
G75*
G02*
X137105400Y-73997000I-237500J0D01*
G01*
X136630400Y-73997000D01*
G75*
G02*
X136392900Y-73759500I0J237500D01*
G01*
X136392900Y-73259500D01*
G75*
G02*
X136630400Y-73022000I237500J0D01*
G01*
G37*
%TD*%
%TO.C,R9*%
G36*
G01*
X138192500Y-74847000D02*
X138667500Y-74847000D01*
G75*
G02*
X138905000Y-75084500I0J-237500D01*
G01*
X138905000Y-75584500D01*
G75*
G02*
X138667500Y-75822000I-237500J0D01*
G01*
X138192500Y-75822000D01*
G75*
G02*
X137955000Y-75584500I0J237500D01*
G01*
X137955000Y-75084500D01*
G75*
G02*
X138192500Y-74847000I237500J0D01*
G01*
G37*
G36*
G01*
X138192500Y-73022000D02*
X138667500Y-73022000D01*
G75*
G02*
X138905000Y-73259500I0J-237500D01*
G01*
X138905000Y-73759500D01*
G75*
G02*
X138667500Y-73997000I-237500J0D01*
G01*
X138192500Y-73997000D01*
G75*
G02*
X137955000Y-73759500I0J237500D01*
G01*
X137955000Y-73259500D01*
G75*
G02*
X138192500Y-73022000I237500J0D01*
G01*
G37*
%TD*%
%TO.C,R8*%
G36*
G01*
X140826500Y-97314200D02*
X140351500Y-97314200D01*
G75*
G02*
X140114000Y-97076700I0J237500D01*
G01*
X140114000Y-96576700D01*
G75*
G02*
X140351500Y-96339200I237500J0D01*
G01*
X140826500Y-96339200D01*
G75*
G02*
X141064000Y-96576700I0J-237500D01*
G01*
X141064000Y-97076700D01*
G75*
G02*
X140826500Y-97314200I-237500J0D01*
G01*
G37*
G36*
G01*
X140826500Y-99139200D02*
X140351500Y-99139200D01*
G75*
G02*
X140114000Y-98901700I0J237500D01*
G01*
X140114000Y-98401700D01*
G75*
G02*
X140351500Y-98164200I237500J0D01*
G01*
X140826500Y-98164200D01*
G75*
G02*
X141064000Y-98401700I0J-237500D01*
G01*
X141064000Y-98901700D01*
G75*
G02*
X140826500Y-99139200I-237500J0D01*
G01*
G37*
%TD*%
%TO.C,R3*%
G36*
G01*
X139729200Y-74848900D02*
X140204200Y-74848900D01*
G75*
G02*
X140441700Y-75086400I0J-237500D01*
G01*
X140441700Y-75586400D01*
G75*
G02*
X140204200Y-75823900I-237500J0D01*
G01*
X139729200Y-75823900D01*
G75*
G02*
X139491700Y-75586400I0J237500D01*
G01*
X139491700Y-75086400D01*
G75*
G02*
X139729200Y-74848900I237500J0D01*
G01*
G37*
G36*
G01*
X139729200Y-73023900D02*
X140204200Y-73023900D01*
G75*
G02*
X140441700Y-73261400I0J-237500D01*
G01*
X140441700Y-73761400D01*
G75*
G02*
X140204200Y-73998900I-237500J0D01*
G01*
X139729200Y-73998900D01*
G75*
G02*
X139491700Y-73761400I0J237500D01*
G01*
X139491700Y-73261400D01*
G75*
G02*
X139729200Y-73023900I237500J0D01*
G01*
G37*
%TD*%
%TO.C,R2*%
G36*
G01*
X154072400Y-82325200D02*
X154072400Y-82800200D01*
G75*
G02*
X153834900Y-83037700I-237500J0D01*
G01*
X153334900Y-83037700D01*
G75*
G02*
X153097400Y-82800200I0J237500D01*
G01*
X153097400Y-82325200D01*
G75*
G02*
X153334900Y-82087700I237500J0D01*
G01*
X153834900Y-82087700D01*
G75*
G02*
X154072400Y-82325200I0J-237500D01*
G01*
G37*
G36*
G01*
X155897400Y-82325200D02*
X155897400Y-82800200D01*
G75*
G02*
X155659900Y-83037700I-237500J0D01*
G01*
X155159900Y-83037700D01*
G75*
G02*
X154922400Y-82800200I0J237500D01*
G01*
X154922400Y-82325200D01*
G75*
G02*
X155159900Y-82087700I237500J0D01*
G01*
X155659900Y-82087700D01*
G75*
G02*
X155897400Y-82325200I0J-237500D01*
G01*
G37*
%TD*%
%TO.C,R1*%
G36*
G01*
X154085100Y-86871800D02*
X154085100Y-87346800D01*
G75*
G02*
X153847600Y-87584300I-237500J0D01*
G01*
X153347600Y-87584300D01*
G75*
G02*
X153110100Y-87346800I0J237500D01*
G01*
X153110100Y-86871800D01*
G75*
G02*
X153347600Y-86634300I237500J0D01*
G01*
X153847600Y-86634300D01*
G75*
G02*
X154085100Y-86871800I0J-237500D01*
G01*
G37*
G36*
G01*
X155910100Y-86871800D02*
X155910100Y-87346800D01*
G75*
G02*
X155672600Y-87584300I-237500J0D01*
G01*
X155172600Y-87584300D01*
G75*
G02*
X154935100Y-87346800I0J237500D01*
G01*
X154935100Y-86871800D01*
G75*
G02*
X155172600Y-86634300I237500J0D01*
G01*
X155672600Y-86634300D01*
G75*
G02*
X155910100Y-86871800I0J-237500D01*
G01*
G37*
%TD*%
D18*
%TO.C,J1*%
X157510000Y-81610600D03*
X157510000Y-82410600D03*
X157510000Y-81610600D03*
X157510000Y-82410600D03*
X157510000Y-88010600D03*
X157510000Y-88010600D03*
X157510000Y-87210600D03*
X157510000Y-87210600D03*
D19*
X157510000Y-83060600D03*
X157510000Y-84060600D03*
X157510000Y-83560600D03*
X157510000Y-86060600D03*
X157510000Y-86560600D03*
X157510000Y-84560600D03*
X157510000Y-85060600D03*
X157510000Y-85560600D03*
%TD*%
%TO.C,D12*%
G36*
G01*
X125864100Y-101151700D02*
X125864100Y-100676700D01*
G75*
G02*
X126101600Y-100439200I237500J0D01*
G01*
X126676600Y-100439200D01*
G75*
G02*
X126914100Y-100676700I0J-237500D01*
G01*
X126914100Y-101151700D01*
G75*
G02*
X126676600Y-101389200I-237500J0D01*
G01*
X126101600Y-101389200D01*
G75*
G02*
X125864100Y-101151700I0J237500D01*
G01*
G37*
G36*
G01*
X124114100Y-101151700D02*
X124114100Y-100676700D01*
G75*
G02*
X124351600Y-100439200I237500J0D01*
G01*
X124926600Y-100439200D01*
G75*
G02*
X125164100Y-100676700I0J-237500D01*
G01*
X125164100Y-101151700D01*
G75*
G02*
X124926600Y-101389200I-237500J0D01*
G01*
X124351600Y-101389200D01*
G75*
G02*
X124114100Y-101151700I0J237500D01*
G01*
G37*
%TD*%
%TO.C,D11*%
G36*
G01*
X143112500Y-65601100D02*
X142637500Y-65601100D01*
G75*
G02*
X142400000Y-65363600I0J237500D01*
G01*
X142400000Y-64788600D01*
G75*
G02*
X142637500Y-64551100I237500J0D01*
G01*
X143112500Y-64551100D01*
G75*
G02*
X143350000Y-64788600I0J-237500D01*
G01*
X143350000Y-65363600D01*
G75*
G02*
X143112500Y-65601100I-237500J0D01*
G01*
G37*
G36*
G01*
X143112500Y-67351100D02*
X142637500Y-67351100D01*
G75*
G02*
X142400000Y-67113600I0J237500D01*
G01*
X142400000Y-66538600D01*
G75*
G02*
X142637500Y-66301100I237500J0D01*
G01*
X143112500Y-66301100D01*
G75*
G02*
X143350000Y-66538600I0J-237500D01*
G01*
X143350000Y-67113600D01*
G75*
G02*
X143112500Y-67351100I-237500J0D01*
G01*
G37*
%TD*%
%TO.C,D10*%
G36*
G01*
X137963900Y-69666600D02*
X138438900Y-69666600D01*
G75*
G02*
X138676400Y-69904100I0J-237500D01*
G01*
X138676400Y-70479100D01*
G75*
G02*
X138438900Y-70716600I-237500J0D01*
G01*
X137963900Y-70716600D01*
G75*
G02*
X137726400Y-70479100I0J237500D01*
G01*
X137726400Y-69904100D01*
G75*
G02*
X137963900Y-69666600I237500J0D01*
G01*
G37*
G36*
G01*
X137963900Y-67916600D02*
X138438900Y-67916600D01*
G75*
G02*
X138676400Y-68154100I0J-237500D01*
G01*
X138676400Y-68729100D01*
G75*
G02*
X138438900Y-68966600I-237500J0D01*
G01*
X137963900Y-68966600D01*
G75*
G02*
X137726400Y-68729100I0J237500D01*
G01*
X137726400Y-68154100D01*
G75*
G02*
X137963900Y-67916600I237500J0D01*
G01*
G37*
%TD*%
%TO.C,D9*%
G36*
G01*
X128453100Y-103908100D02*
X127978100Y-103908100D01*
G75*
G02*
X127740600Y-103670600I0J237500D01*
G01*
X127740600Y-103095600D01*
G75*
G02*
X127978100Y-102858100I237500J0D01*
G01*
X128453100Y-102858100D01*
G75*
G02*
X128690600Y-103095600I0J-237500D01*
G01*
X128690600Y-103670600D01*
G75*
G02*
X128453100Y-103908100I-237500J0D01*
G01*
G37*
G36*
G01*
X128453100Y-105658100D02*
X127978100Y-105658100D01*
G75*
G02*
X127740600Y-105420600I0J237500D01*
G01*
X127740600Y-104845600D01*
G75*
G02*
X127978100Y-104608100I237500J0D01*
G01*
X128453100Y-104608100D01*
G75*
G02*
X128690600Y-104845600I0J-237500D01*
G01*
X128690600Y-105420600D01*
G75*
G02*
X128453100Y-105658100I-237500J0D01*
G01*
G37*
%TD*%
%TO.C,D8*%
G36*
G01*
X147319000Y-100240900D02*
X147319000Y-99765900D01*
G75*
G02*
X147556500Y-99528400I237500J0D01*
G01*
X148131500Y-99528400D01*
G75*
G02*
X148369000Y-99765900I0J-237500D01*
G01*
X148369000Y-100240900D01*
G75*
G02*
X148131500Y-100478400I-237500J0D01*
G01*
X147556500Y-100478400D01*
G75*
G02*
X147319000Y-100240900I0J237500D01*
G01*
G37*
G36*
G01*
X145569000Y-100240900D02*
X145569000Y-99765900D01*
G75*
G02*
X145806500Y-99528400I237500J0D01*
G01*
X146381500Y-99528400D01*
G75*
G02*
X146619000Y-99765900I0J-237500D01*
G01*
X146619000Y-100240900D01*
G75*
G02*
X146381500Y-100478400I-237500J0D01*
G01*
X145806500Y-100478400D01*
G75*
G02*
X145569000Y-100240900I0J237500D01*
G01*
G37*
%TD*%
%TO.C,D7*%
G36*
G01*
X147331700Y-101764900D02*
X147331700Y-101289900D01*
G75*
G02*
X147569200Y-101052400I237500J0D01*
G01*
X148144200Y-101052400D01*
G75*
G02*
X148381700Y-101289900I0J-237500D01*
G01*
X148381700Y-101764900D01*
G75*
G02*
X148144200Y-102002400I-237500J0D01*
G01*
X147569200Y-102002400D01*
G75*
G02*
X147331700Y-101764900I0J237500D01*
G01*
G37*
G36*
G01*
X145581700Y-101764900D02*
X145581700Y-101289900D01*
G75*
G02*
X145819200Y-101052400I237500J0D01*
G01*
X146394200Y-101052400D01*
G75*
G02*
X146631700Y-101289900I0J-237500D01*
G01*
X146631700Y-101764900D01*
G75*
G02*
X146394200Y-102002400I-237500J0D01*
G01*
X145819200Y-102002400D01*
G75*
G02*
X145581700Y-101764900I0J237500D01*
G01*
G37*
%TD*%
%TO.C,D6*%
G36*
G01*
X152201100Y-95660200D02*
X152201100Y-96135200D01*
G75*
G02*
X151963600Y-96372700I-237500J0D01*
G01*
X151388600Y-96372700D01*
G75*
G02*
X151151100Y-96135200I0J237500D01*
G01*
X151151100Y-95660200D01*
G75*
G02*
X151388600Y-95422700I237500J0D01*
G01*
X151963600Y-95422700D01*
G75*
G02*
X152201100Y-95660200I0J-237500D01*
G01*
G37*
G36*
G01*
X153951100Y-95660200D02*
X153951100Y-96135200D01*
G75*
G02*
X153713600Y-96372700I-237500J0D01*
G01*
X153138600Y-96372700D01*
G75*
G02*
X152901100Y-96135200I0J237500D01*
G01*
X152901100Y-95660200D01*
G75*
G02*
X153138600Y-95422700I237500J0D01*
G01*
X153713600Y-95422700D01*
G75*
G02*
X153951100Y-95660200I0J-237500D01*
G01*
G37*
%TD*%
%TO.C,D5*%
G36*
G01*
X152215100Y-91126300D02*
X152215100Y-91601300D01*
G75*
G02*
X151977600Y-91838800I-237500J0D01*
G01*
X151402600Y-91838800D01*
G75*
G02*
X151165100Y-91601300I0J237500D01*
G01*
X151165100Y-91126300D01*
G75*
G02*
X151402600Y-90888800I237500J0D01*
G01*
X151977600Y-90888800D01*
G75*
G02*
X152215100Y-91126300I0J-237500D01*
G01*
G37*
G36*
G01*
X153965100Y-91126300D02*
X153965100Y-91601300D01*
G75*
G02*
X153727600Y-91838800I-237500J0D01*
G01*
X153152600Y-91838800D01*
G75*
G02*
X152915100Y-91601300I0J237500D01*
G01*
X152915100Y-91126300D01*
G75*
G02*
X153152600Y-90888800I237500J0D01*
G01*
X153727600Y-90888800D01*
G75*
G02*
X153965100Y-91126300I0J-237500D01*
G01*
G37*
%TD*%
%TO.C,D4*%
G36*
G01*
X150206700Y-66339200D02*
X150681700Y-66339200D01*
G75*
G02*
X150919200Y-66576700I0J-237500D01*
G01*
X150919200Y-67151700D01*
G75*
G02*
X150681700Y-67389200I-237500J0D01*
G01*
X150206700Y-67389200D01*
G75*
G02*
X149969200Y-67151700I0J237500D01*
G01*
X149969200Y-66576700D01*
G75*
G02*
X150206700Y-66339200I237500J0D01*
G01*
G37*
G36*
G01*
X150206700Y-64589200D02*
X150681700Y-64589200D01*
G75*
G02*
X150919200Y-64826700I0J-237500D01*
G01*
X150919200Y-65401700D01*
G75*
G02*
X150681700Y-65639200I-237500J0D01*
G01*
X150206700Y-65639200D01*
G75*
G02*
X149969200Y-65401700I0J237500D01*
G01*
X149969200Y-64826700D01*
G75*
G02*
X150206700Y-64589200I237500J0D01*
G01*
G37*
%TD*%
%TO.C,D3*%
G36*
G01*
X151730700Y-66339200D02*
X152205700Y-66339200D01*
G75*
G02*
X152443200Y-66576700I0J-237500D01*
G01*
X152443200Y-67151700D01*
G75*
G02*
X152205700Y-67389200I-237500J0D01*
G01*
X151730700Y-67389200D01*
G75*
G02*
X151493200Y-67151700I0J237500D01*
G01*
X151493200Y-66576700D01*
G75*
G02*
X151730700Y-66339200I237500J0D01*
G01*
G37*
G36*
G01*
X151730700Y-64589200D02*
X152205700Y-64589200D01*
G75*
G02*
X152443200Y-64826700I0J-237500D01*
G01*
X152443200Y-65401700D01*
G75*
G02*
X152205700Y-65639200I-237500J0D01*
G01*
X151730700Y-65639200D01*
G75*
G02*
X151493200Y-65401700I0J237500D01*
G01*
X151493200Y-64826700D01*
G75*
G02*
X151730700Y-64589200I237500J0D01*
G01*
G37*
%TD*%
%TO.C,D2*%
G36*
G01*
X153254700Y-66339200D02*
X153729700Y-66339200D01*
G75*
G02*
X153967200Y-66576700I0J-237500D01*
G01*
X153967200Y-67151700D01*
G75*
G02*
X153729700Y-67389200I-237500J0D01*
G01*
X153254700Y-67389200D01*
G75*
G02*
X153017200Y-67151700I0J237500D01*
G01*
X153017200Y-66576700D01*
G75*
G02*
X153254700Y-66339200I237500J0D01*
G01*
G37*
G36*
G01*
X153254700Y-64589200D02*
X153729700Y-64589200D01*
G75*
G02*
X153967200Y-64826700I0J-237500D01*
G01*
X153967200Y-65401700D01*
G75*
G02*
X153729700Y-65639200I-237500J0D01*
G01*
X153254700Y-65639200D01*
G75*
G02*
X153017200Y-65401700I0J237500D01*
G01*
X153017200Y-64826700D01*
G75*
G02*
X153254700Y-64589200I237500J0D01*
G01*
G37*
%TD*%
%TO.C,D1*%
G36*
G01*
X154778700Y-66339200D02*
X155253700Y-66339200D01*
G75*
G02*
X155491200Y-66576700I0J-237500D01*
G01*
X155491200Y-67151700D01*
G75*
G02*
X155253700Y-67389200I-237500J0D01*
G01*
X154778700Y-67389200D01*
G75*
G02*
X154541200Y-67151700I0J237500D01*
G01*
X154541200Y-66576700D01*
G75*
G02*
X154778700Y-66339200I237500J0D01*
G01*
G37*
G36*
G01*
X154778700Y-64589200D02*
X155253700Y-64589200D01*
G75*
G02*
X155491200Y-64826700I0J-237500D01*
G01*
X155491200Y-65401700D01*
G75*
G02*
X155253700Y-65639200I-237500J0D01*
G01*
X154778700Y-65639200D01*
G75*
G02*
X154541200Y-65401700I0J237500D01*
G01*
X154541200Y-64826700D01*
G75*
G02*
X154778700Y-64589200I237500J0D01*
G01*
G37*
%TD*%
%TO.C,C29*%
G36*
G01*
X119692500Y-94302500D02*
X119692500Y-94777500D01*
G75*
G02*
X119455000Y-95015000I-237500J0D01*
G01*
X118855000Y-95015000D01*
G75*
G02*
X118617500Y-94777500I0J237500D01*
G01*
X118617500Y-94302500D01*
G75*
G02*
X118855000Y-94065000I237500J0D01*
G01*
X119455000Y-94065000D01*
G75*
G02*
X119692500Y-94302500I0J-237500D01*
G01*
G37*
G36*
G01*
X121417500Y-94302500D02*
X121417500Y-94777500D01*
G75*
G02*
X121180000Y-95015000I-237500J0D01*
G01*
X120580000Y-95015000D01*
G75*
G02*
X120342500Y-94777500I0J237500D01*
G01*
X120342500Y-94302500D01*
G75*
G02*
X120580000Y-94065000I237500J0D01*
G01*
X121180000Y-94065000D01*
G75*
G02*
X121417500Y-94302500I0J-237500D01*
G01*
G37*
%TD*%
%TO.C,C27*%
G36*
G01*
X119695000Y-92592500D02*
X119695000Y-93067500D01*
G75*
G02*
X119457500Y-93305000I-237500J0D01*
G01*
X118857500Y-93305000D01*
G75*
G02*
X118620000Y-93067500I0J237500D01*
G01*
X118620000Y-92592500D01*
G75*
G02*
X118857500Y-92355000I237500J0D01*
G01*
X119457500Y-92355000D01*
G75*
G02*
X119695000Y-92592500I0J-237500D01*
G01*
G37*
G36*
G01*
X121420000Y-92592500D02*
X121420000Y-93067500D01*
G75*
G02*
X121182500Y-93305000I-237500J0D01*
G01*
X120582500Y-93305000D01*
G75*
G02*
X120345000Y-93067500I0J237500D01*
G01*
X120345000Y-92592500D01*
G75*
G02*
X120582500Y-92355000I237500J0D01*
G01*
X121182500Y-92355000D01*
G75*
G02*
X121420000Y-92592500I0J-237500D01*
G01*
G37*
%TD*%
%TO.C,C26*%
G36*
G01*
X122005100Y-100196600D02*
X121530100Y-100196600D01*
G75*
G02*
X121292600Y-99959100I0J237500D01*
G01*
X121292600Y-99359100D01*
G75*
G02*
X121530100Y-99121600I237500J0D01*
G01*
X122005100Y-99121600D01*
G75*
G02*
X122242600Y-99359100I0J-237500D01*
G01*
X122242600Y-99959100D01*
G75*
G02*
X122005100Y-100196600I-237500J0D01*
G01*
G37*
G36*
G01*
X122005100Y-101921600D02*
X121530100Y-101921600D01*
G75*
G02*
X121292600Y-101684100I0J237500D01*
G01*
X121292600Y-101084100D01*
G75*
G02*
X121530100Y-100846600I237500J0D01*
G01*
X122005100Y-100846600D01*
G75*
G02*
X122242600Y-101084100I0J-237500D01*
G01*
X122242600Y-101684100D01*
G75*
G02*
X122005100Y-101921600I-237500J0D01*
G01*
G37*
%TD*%
%TO.C,C25*%
G36*
G01*
X132535000Y-68627500D02*
X132535000Y-68152500D01*
G75*
G02*
X132772500Y-67915000I237500J0D01*
G01*
X133372500Y-67915000D01*
G75*
G02*
X133610000Y-68152500I0J-237500D01*
G01*
X133610000Y-68627500D01*
G75*
G02*
X133372500Y-68865000I-237500J0D01*
G01*
X132772500Y-68865000D01*
G75*
G02*
X132535000Y-68627500I0J237500D01*
G01*
G37*
G36*
G01*
X130810000Y-68627500D02*
X130810000Y-68152500D01*
G75*
G02*
X131047500Y-67915000I237500J0D01*
G01*
X131647500Y-67915000D01*
G75*
G02*
X131885000Y-68152500I0J-237500D01*
G01*
X131885000Y-68627500D01*
G75*
G02*
X131647500Y-68865000I-237500J0D01*
G01*
X131047500Y-68865000D01*
G75*
G02*
X130810000Y-68627500I0J237500D01*
G01*
G37*
%TD*%
%TO.C,C24*%
G36*
G01*
X144647500Y-65635000D02*
X144172500Y-65635000D01*
G75*
G02*
X143935000Y-65397500I0J237500D01*
G01*
X143935000Y-64797500D01*
G75*
G02*
X144172500Y-64560000I237500J0D01*
G01*
X144647500Y-64560000D01*
G75*
G02*
X144885000Y-64797500I0J-237500D01*
G01*
X144885000Y-65397500D01*
G75*
G02*
X144647500Y-65635000I-237500J0D01*
G01*
G37*
G36*
G01*
X144647500Y-67360000D02*
X144172500Y-67360000D01*
G75*
G02*
X143935000Y-67122500I0J237500D01*
G01*
X143935000Y-66522500D01*
G75*
G02*
X144172500Y-66285000I237500J0D01*
G01*
X144647500Y-66285000D01*
G75*
G02*
X144885000Y-66522500I0J-237500D01*
G01*
X144885000Y-67122500D01*
G75*
G02*
X144647500Y-67360000I-237500J0D01*
G01*
G37*
%TD*%
%TO.C,C23*%
G36*
G01*
X134407900Y-73032500D02*
X134882900Y-73032500D01*
G75*
G02*
X135120400Y-73270000I0J-237500D01*
G01*
X135120400Y-73870000D01*
G75*
G02*
X134882900Y-74107500I-237500J0D01*
G01*
X134407900Y-74107500D01*
G75*
G02*
X134170400Y-73870000I0J237500D01*
G01*
X134170400Y-73270000D01*
G75*
G02*
X134407900Y-73032500I237500J0D01*
G01*
G37*
G36*
G01*
X134407900Y-71307500D02*
X134882900Y-71307500D01*
G75*
G02*
X135120400Y-71545000I0J-237500D01*
G01*
X135120400Y-72145000D01*
G75*
G02*
X134882900Y-72382500I-237500J0D01*
G01*
X134407900Y-72382500D01*
G75*
G02*
X134170400Y-72145000I0J237500D01*
G01*
X134170400Y-71545000D01*
G75*
G02*
X134407900Y-71307500I237500J0D01*
G01*
G37*
%TD*%
%TO.C,C22*%
G36*
G01*
X147352900Y-70303400D02*
X147352900Y-69828400D01*
G75*
G02*
X147590400Y-69590900I237500J0D01*
G01*
X148190400Y-69590900D01*
G75*
G02*
X148427900Y-69828400I0J-237500D01*
G01*
X148427900Y-70303400D01*
G75*
G02*
X148190400Y-70540900I-237500J0D01*
G01*
X147590400Y-70540900D01*
G75*
G02*
X147352900Y-70303400I0J237500D01*
G01*
G37*
G36*
G01*
X145627900Y-70303400D02*
X145627900Y-69828400D01*
G75*
G02*
X145865400Y-69590900I237500J0D01*
G01*
X146465400Y-69590900D01*
G75*
G02*
X146702900Y-69828400I0J-237500D01*
G01*
X146702900Y-70303400D01*
G75*
G02*
X146465400Y-70540900I-237500J0D01*
G01*
X145865400Y-70540900D01*
G75*
G02*
X145627900Y-70303400I0J237500D01*
G01*
G37*
%TD*%
%TO.C,C21*%
G36*
G01*
X133308100Y-70833100D02*
X132833100Y-70833100D01*
G75*
G02*
X132595600Y-70595600I0J237500D01*
G01*
X132595600Y-69995600D01*
G75*
G02*
X132833100Y-69758100I237500J0D01*
G01*
X133308100Y-69758100D01*
G75*
G02*
X133545600Y-69995600I0J-237500D01*
G01*
X133545600Y-70595600D01*
G75*
G02*
X133308100Y-70833100I-237500J0D01*
G01*
G37*
G36*
G01*
X133308100Y-72558100D02*
X132833100Y-72558100D01*
G75*
G02*
X132595600Y-72320600I0J237500D01*
G01*
X132595600Y-71720600D01*
G75*
G02*
X132833100Y-71483100I237500J0D01*
G01*
X133308100Y-71483100D01*
G75*
G02*
X133545600Y-71720600I0J-237500D01*
G01*
X133545600Y-72320600D01*
G75*
G02*
X133308100Y-72558100I-237500J0D01*
G01*
G37*
%TD*%
%TO.C,C20*%
G36*
G01*
X130307200Y-70006200D02*
X130307200Y-70481200D01*
G75*
G02*
X130069700Y-70718700I-237500J0D01*
G01*
X129469700Y-70718700D01*
G75*
G02*
X129232200Y-70481200I0J237500D01*
G01*
X129232200Y-70006200D01*
G75*
G02*
X129469700Y-69768700I237500J0D01*
G01*
X130069700Y-69768700D01*
G75*
G02*
X130307200Y-70006200I0J-237500D01*
G01*
G37*
G36*
G01*
X132032200Y-70006200D02*
X132032200Y-70481200D01*
G75*
G02*
X131794700Y-70718700I-237500J0D01*
G01*
X131194700Y-70718700D01*
G75*
G02*
X130957200Y-70481200I0J237500D01*
G01*
X130957200Y-70006200D01*
G75*
G02*
X131194700Y-69768700I237500J0D01*
G01*
X131794700Y-69768700D01*
G75*
G02*
X132032200Y-70006200I0J-237500D01*
G01*
G37*
%TD*%
%TO.C,C19*%
G36*
G01*
X125826400Y-96630500D02*
X125826400Y-96155500D01*
G75*
G02*
X126063900Y-95918000I237500J0D01*
G01*
X126663900Y-95918000D01*
G75*
G02*
X126901400Y-96155500I0J-237500D01*
G01*
X126901400Y-96630500D01*
G75*
G02*
X126663900Y-96868000I-237500J0D01*
G01*
X126063900Y-96868000D01*
G75*
G02*
X125826400Y-96630500I0J237500D01*
G01*
G37*
G36*
G01*
X124101400Y-96630500D02*
X124101400Y-96155500D01*
G75*
G02*
X124338900Y-95918000I237500J0D01*
G01*
X124938900Y-95918000D01*
G75*
G02*
X125176400Y-96155500I0J-237500D01*
G01*
X125176400Y-96630500D01*
G75*
G02*
X124938900Y-96868000I-237500J0D01*
G01*
X124338900Y-96868000D01*
G75*
G02*
X124101400Y-96630500I0J237500D01*
G01*
G37*
%TD*%
%TO.C,C17*%
G36*
G01*
X159060000Y-76254600D02*
X159060000Y-76729600D01*
G75*
G02*
X158822500Y-76967100I-237500J0D01*
G01*
X158222500Y-76967100D01*
G75*
G02*
X157985000Y-76729600I0J237500D01*
G01*
X157985000Y-76254600D01*
G75*
G02*
X158222500Y-76017100I237500J0D01*
G01*
X158822500Y-76017100D01*
G75*
G02*
X159060000Y-76254600I0J-237500D01*
G01*
G37*
G36*
G01*
X160785000Y-76254600D02*
X160785000Y-76729600D01*
G75*
G02*
X160547500Y-76967100I-237500J0D01*
G01*
X159947500Y-76967100D01*
G75*
G02*
X159710000Y-76729600I0J237500D01*
G01*
X159710000Y-76254600D01*
G75*
G02*
X159947500Y-76017100I237500J0D01*
G01*
X160547500Y-76017100D01*
G75*
G02*
X160785000Y-76254600I0J-237500D01*
G01*
G37*
%TD*%
%TO.C,C16*%
G36*
G01*
X159060000Y-74733775D02*
X159060000Y-75208775D01*
G75*
G02*
X158822500Y-75446275I-237500J0D01*
G01*
X158222500Y-75446275D01*
G75*
G02*
X157985000Y-75208775I0J237500D01*
G01*
X157985000Y-74733775D01*
G75*
G02*
X158222500Y-74496275I237500J0D01*
G01*
X158822500Y-74496275D01*
G75*
G02*
X159060000Y-74733775I0J-237500D01*
G01*
G37*
G36*
G01*
X160785000Y-74733775D02*
X160785000Y-75208775D01*
G75*
G02*
X160547500Y-75446275I-237500J0D01*
G01*
X159947500Y-75446275D01*
G75*
G02*
X159710000Y-75208775I0J237500D01*
G01*
X159710000Y-74733775D01*
G75*
G02*
X159947500Y-74496275I237500J0D01*
G01*
X160547500Y-74496275D01*
G75*
G02*
X160785000Y-74733775I0J-237500D01*
G01*
G37*
%TD*%
%TO.C,C15*%
G36*
G01*
X159060000Y-73212950D02*
X159060000Y-73687950D01*
G75*
G02*
X158822500Y-73925450I-237500J0D01*
G01*
X158222500Y-73925450D01*
G75*
G02*
X157985000Y-73687950I0J237500D01*
G01*
X157985000Y-73212950D01*
G75*
G02*
X158222500Y-72975450I237500J0D01*
G01*
X158822500Y-72975450D01*
G75*
G02*
X159060000Y-73212950I0J-237500D01*
G01*
G37*
G36*
G01*
X160785000Y-73212950D02*
X160785000Y-73687950D01*
G75*
G02*
X160547500Y-73925450I-237500J0D01*
G01*
X159947500Y-73925450D01*
G75*
G02*
X159710000Y-73687950I0J237500D01*
G01*
X159710000Y-73212950D01*
G75*
G02*
X159947500Y-72975450I237500J0D01*
G01*
X160547500Y-72975450D01*
G75*
G02*
X160785000Y-73212950I0J-237500D01*
G01*
G37*
%TD*%
%TO.C,C14*%
G36*
G01*
X159060000Y-71692125D02*
X159060000Y-72167125D01*
G75*
G02*
X158822500Y-72404625I-237500J0D01*
G01*
X158222500Y-72404625D01*
G75*
G02*
X157985000Y-72167125I0J237500D01*
G01*
X157985000Y-71692125D01*
G75*
G02*
X158222500Y-71454625I237500J0D01*
G01*
X158822500Y-71454625D01*
G75*
G02*
X159060000Y-71692125I0J-237500D01*
G01*
G37*
G36*
G01*
X160785000Y-71692125D02*
X160785000Y-72167125D01*
G75*
G02*
X160547500Y-72404625I-237500J0D01*
G01*
X159947500Y-72404625D01*
G75*
G02*
X159710000Y-72167125I0J237500D01*
G01*
X159710000Y-71692125D01*
G75*
G02*
X159947500Y-71454625I237500J0D01*
G01*
X160547500Y-71454625D01*
G75*
G02*
X160785000Y-71692125I0J-237500D01*
G01*
G37*
%TD*%
%TO.C,C13*%
G36*
G01*
X159060000Y-70171300D02*
X159060000Y-70646300D01*
G75*
G02*
X158822500Y-70883800I-237500J0D01*
G01*
X158222500Y-70883800D01*
G75*
G02*
X157985000Y-70646300I0J237500D01*
G01*
X157985000Y-70171300D01*
G75*
G02*
X158222500Y-69933800I237500J0D01*
G01*
X158822500Y-69933800D01*
G75*
G02*
X159060000Y-70171300I0J-237500D01*
G01*
G37*
G36*
G01*
X160785000Y-70171300D02*
X160785000Y-70646300D01*
G75*
G02*
X160547500Y-70883800I-237500J0D01*
G01*
X159947500Y-70883800D01*
G75*
G02*
X159710000Y-70646300I0J237500D01*
G01*
X159710000Y-70171300D01*
G75*
G02*
X159947500Y-69933800I237500J0D01*
G01*
X160547500Y-69933800D01*
G75*
G02*
X160785000Y-70171300I0J-237500D01*
G01*
G37*
%TD*%
%TO.C,C11*%
G36*
G01*
X145843000Y-96347400D02*
X145368000Y-96347400D01*
G75*
G02*
X145130500Y-96109900I0J237500D01*
G01*
X145130500Y-95509900D01*
G75*
G02*
X145368000Y-95272400I237500J0D01*
G01*
X145843000Y-95272400D01*
G75*
G02*
X146080500Y-95509900I0J-237500D01*
G01*
X146080500Y-96109900D01*
G75*
G02*
X145843000Y-96347400I-237500J0D01*
G01*
G37*
G36*
G01*
X145843000Y-98072400D02*
X145368000Y-98072400D01*
G75*
G02*
X145130500Y-97834900I0J237500D01*
G01*
X145130500Y-97234900D01*
G75*
G02*
X145368000Y-96997400I237500J0D01*
G01*
X145843000Y-96997400D01*
G75*
G02*
X146080500Y-97234900I0J-237500D01*
G01*
X146080500Y-97834900D01*
G75*
G02*
X145843000Y-98072400I-237500J0D01*
G01*
G37*
%TD*%
%TO.C,C10*%
G36*
G01*
X130724900Y-92984200D02*
X131199900Y-92984200D01*
G75*
G02*
X131437400Y-93221700I0J-237500D01*
G01*
X131437400Y-93821700D01*
G75*
G02*
X131199900Y-94059200I-237500J0D01*
G01*
X130724900Y-94059200D01*
G75*
G02*
X130487400Y-93821700I0J237500D01*
G01*
X130487400Y-93221700D01*
G75*
G02*
X130724900Y-92984200I237500J0D01*
G01*
G37*
G36*
G01*
X130724900Y-91259200D02*
X131199900Y-91259200D01*
G75*
G02*
X131437400Y-91496700I0J-237500D01*
G01*
X131437400Y-92096700D01*
G75*
G02*
X131199900Y-92334200I-237500J0D01*
G01*
X130724900Y-92334200D01*
G75*
G02*
X130487400Y-92096700I0J237500D01*
G01*
X130487400Y-91496700D01*
G75*
G02*
X130724900Y-91259200I237500J0D01*
G01*
G37*
%TD*%
%TO.C,C6*%
G36*
G01*
X143920200Y-76156700D02*
X144395200Y-76156700D01*
G75*
G02*
X144632700Y-76394200I0J-237500D01*
G01*
X144632700Y-76994200D01*
G75*
G02*
X144395200Y-77231700I-237500J0D01*
G01*
X143920200Y-77231700D01*
G75*
G02*
X143682700Y-76994200I0J237500D01*
G01*
X143682700Y-76394200D01*
G75*
G02*
X143920200Y-76156700I237500J0D01*
G01*
G37*
G36*
G01*
X143920200Y-74431700D02*
X144395200Y-74431700D01*
G75*
G02*
X144632700Y-74669200I0J-237500D01*
G01*
X144632700Y-75269200D01*
G75*
G02*
X144395200Y-75506700I-237500J0D01*
G01*
X143920200Y-75506700D01*
G75*
G02*
X143682700Y-75269200I0J237500D01*
G01*
X143682700Y-74669200D01*
G75*
G02*
X143920200Y-74431700I237500J0D01*
G01*
G37*
%TD*%
M02*
