%TF.GenerationSoftware,KiCad,Pcbnew,(5.1.8-0-10_14)*%
%TF.CreationDate,2021-03-06T23:06:48+08:00*%
%TF.ProjectId,upper_board,75707065-725f-4626-9f61-72642e6b6963,v0.1.3*%
%TF.SameCoordinates,Original*%
%TF.FileFunction,Legend,Bot*%
%TF.FilePolarity,Positive*%
%FSLAX46Y46*%
G04 Gerber Fmt 4.6, Leading zero omitted, Abs format (unit mm)*
G04 Created by KiCad (PCBNEW (5.1.8-0-10_14)) date 2021-03-06 23:06:48*
%MOMM*%
%LPD*%
G01*
G04 APERTURE LIST*
%ADD10C,0.125000*%
%ADD11C,0.120000*%
%ADD12C,0.150000*%
G04 APERTURE END LIST*
D10*
X137517321Y-73141190D02*
X137207797Y-73141190D01*
X137374464Y-73331666D01*
X137303035Y-73331666D01*
X137255416Y-73355476D01*
X137231607Y-73379285D01*
X137207797Y-73426904D01*
X137207797Y-73545952D01*
X137231607Y-73593571D01*
X137255416Y-73617380D01*
X137303035Y-73641190D01*
X137445892Y-73641190D01*
X137493511Y-73617380D01*
X137517321Y-73593571D01*
X136993511Y-73593571D02*
X136969702Y-73617380D01*
X136993511Y-73641190D01*
X137017321Y-73617380D01*
X136993511Y-73593571D01*
X136993511Y-73641190D01*
X136803035Y-73141190D02*
X136493511Y-73141190D01*
X136660178Y-73331666D01*
X136588750Y-73331666D01*
X136541130Y-73355476D01*
X136517321Y-73379285D01*
X136493511Y-73426904D01*
X136493511Y-73545952D01*
X136517321Y-73593571D01*
X136541130Y-73617380D01*
X136588750Y-73641190D01*
X136731607Y-73641190D01*
X136779226Y-73617380D01*
X136803035Y-73593571D01*
X136326845Y-73307857D02*
X136207797Y-73641190D01*
X136088750Y-73307857D01*
X137207797Y-74040000D02*
X137255416Y-74016190D01*
X137326845Y-74016190D01*
X137398273Y-74040000D01*
X137445892Y-74087619D01*
X137469702Y-74135238D01*
X137493511Y-74230476D01*
X137493511Y-74301904D01*
X137469702Y-74397142D01*
X137445892Y-74444761D01*
X137398273Y-74492380D01*
X137326845Y-74516190D01*
X137279226Y-74516190D01*
X137207797Y-74492380D01*
X137183988Y-74468571D01*
X137183988Y-74301904D01*
X137279226Y-74301904D01*
X136969702Y-74516190D02*
X136969702Y-74016190D01*
X136683988Y-74516190D01*
X136683988Y-74016190D01*
X136445892Y-74516190D02*
X136445892Y-74016190D01*
X136326845Y-74016190D01*
X136255416Y-74040000D01*
X136207797Y-74087619D01*
X136183988Y-74135238D01*
X136160178Y-74230476D01*
X136160178Y-74301904D01*
X136183988Y-74397142D01*
X136207797Y-74444761D01*
X136255416Y-74492380D01*
X136326845Y-74516190D01*
X136445892Y-74516190D01*
X137541130Y-74891190D02*
X137255416Y-74891190D01*
X137398273Y-75391190D02*
X137398273Y-74891190D01*
X137088750Y-75391190D02*
X137088750Y-74891190D01*
X136850654Y-75391190D02*
X136850654Y-74891190D01*
X136683988Y-75248333D01*
X136517321Y-74891190D01*
X136517321Y-75391190D01*
X136303035Y-74938809D02*
X136279226Y-74915000D01*
X136231607Y-74891190D01*
X136112559Y-74891190D01*
X136064940Y-74915000D01*
X136041130Y-74938809D01*
X136017321Y-74986428D01*
X136017321Y-75034047D01*
X136041130Y-75105476D01*
X136326845Y-75391190D01*
X136017321Y-75391190D01*
X135922083Y-75438809D02*
X135541130Y-75438809D01*
X135136369Y-75343571D02*
X135160178Y-75367380D01*
X135231607Y-75391190D01*
X135279226Y-75391190D01*
X135350654Y-75367380D01*
X135398273Y-75319761D01*
X135422083Y-75272142D01*
X135445892Y-75176904D01*
X135445892Y-75105476D01*
X135422083Y-75010238D01*
X135398273Y-74962619D01*
X135350654Y-74915000D01*
X135279226Y-74891190D01*
X135231607Y-74891190D01*
X135160178Y-74915000D01*
X135136369Y-74938809D01*
X134922083Y-75391190D02*
X134922083Y-74891190D01*
X134922083Y-75129285D02*
X134636369Y-75129285D01*
X134636369Y-75391190D02*
X134636369Y-74891190D01*
X134445892Y-74891190D02*
X134136369Y-74891190D01*
X134303035Y-75081666D01*
X134231607Y-75081666D01*
X134183988Y-75105476D01*
X134160178Y-75129285D01*
X134136369Y-75176904D01*
X134136369Y-75295952D01*
X134160178Y-75343571D01*
X134183988Y-75367380D01*
X134231607Y-75391190D01*
X134374464Y-75391190D01*
X134422083Y-75367380D01*
X134445892Y-75343571D01*
X137541130Y-75766190D02*
X137255416Y-75766190D01*
X137398273Y-76266190D02*
X137398273Y-75766190D01*
X137088750Y-76266190D02*
X137088750Y-75766190D01*
X136850654Y-76266190D02*
X136850654Y-75766190D01*
X136683988Y-76123333D01*
X136517321Y-75766190D01*
X136517321Y-76266190D01*
X136303035Y-75813809D02*
X136279226Y-75790000D01*
X136231607Y-75766190D01*
X136112559Y-75766190D01*
X136064940Y-75790000D01*
X136041130Y-75813809D01*
X136017321Y-75861428D01*
X136017321Y-75909047D01*
X136041130Y-75980476D01*
X136326845Y-76266190D01*
X136017321Y-76266190D01*
X135922083Y-76313809D02*
X135541130Y-76313809D01*
X135136369Y-76218571D02*
X135160178Y-76242380D01*
X135231607Y-76266190D01*
X135279226Y-76266190D01*
X135350654Y-76242380D01*
X135398273Y-76194761D01*
X135422083Y-76147142D01*
X135445892Y-76051904D01*
X135445892Y-75980476D01*
X135422083Y-75885238D01*
X135398273Y-75837619D01*
X135350654Y-75790000D01*
X135279226Y-75766190D01*
X135231607Y-75766190D01*
X135160178Y-75790000D01*
X135136369Y-75813809D01*
X134922083Y-76266190D02*
X134922083Y-75766190D01*
X134922083Y-76004285D02*
X134636369Y-76004285D01*
X134636369Y-76266190D02*
X134636369Y-75766190D01*
X134136369Y-76266190D02*
X134422083Y-76266190D01*
X134279226Y-76266190D02*
X134279226Y-75766190D01*
X134326845Y-75837619D01*
X134374464Y-75885238D01*
X134422083Y-75909047D01*
X137493511Y-77117380D02*
X137422083Y-77141190D01*
X137303035Y-77141190D01*
X137255416Y-77117380D01*
X137231607Y-77093571D01*
X137207797Y-77045952D01*
X137207797Y-76998333D01*
X137231607Y-76950714D01*
X137255416Y-76926904D01*
X137303035Y-76903095D01*
X137398273Y-76879285D01*
X137445892Y-76855476D01*
X137469702Y-76831666D01*
X137493511Y-76784047D01*
X137493511Y-76736428D01*
X137469702Y-76688809D01*
X137445892Y-76665000D01*
X137398273Y-76641190D01*
X137279226Y-76641190D01*
X137207797Y-76665000D01*
X136993511Y-77141190D02*
X136993511Y-76641190D01*
X136803035Y-76641190D01*
X136755416Y-76665000D01*
X136731607Y-76688809D01*
X136707797Y-76736428D01*
X136707797Y-76807857D01*
X136731607Y-76855476D01*
X136755416Y-76879285D01*
X136803035Y-76903095D01*
X136993511Y-76903095D01*
X136493511Y-77141190D02*
X136493511Y-76641190D01*
X135993511Y-77141190D02*
X136279226Y-77141190D01*
X136136369Y-77141190D02*
X136136369Y-76641190D01*
X136183988Y-76712619D01*
X136231607Y-76760238D01*
X136279226Y-76784047D01*
X135898273Y-77188809D02*
X135517321Y-77188809D01*
X135398273Y-77141190D02*
X135398273Y-76641190D01*
X135231607Y-76998333D01*
X135064940Y-76641190D01*
X135064940Y-77141190D01*
X134826845Y-77141190D02*
X134826845Y-76641190D01*
X134612559Y-77117380D02*
X134541130Y-77141190D01*
X134422083Y-77141190D01*
X134374464Y-77117380D01*
X134350654Y-77093571D01*
X134326845Y-77045952D01*
X134326845Y-76998333D01*
X134350654Y-76950714D01*
X134374464Y-76926904D01*
X134422083Y-76903095D01*
X134517321Y-76879285D01*
X134564940Y-76855476D01*
X134588750Y-76831666D01*
X134612559Y-76784047D01*
X134612559Y-76736428D01*
X134588750Y-76688809D01*
X134564940Y-76665000D01*
X134517321Y-76641190D01*
X134398273Y-76641190D01*
X134326845Y-76665000D01*
X134017321Y-76641190D02*
X133922083Y-76641190D01*
X133874464Y-76665000D01*
X133826845Y-76712619D01*
X133803035Y-76807857D01*
X133803035Y-76974523D01*
X133826845Y-77069761D01*
X133874464Y-77117380D01*
X133922083Y-77141190D01*
X134017321Y-77141190D01*
X134064940Y-77117380D01*
X134112559Y-77069761D01*
X134136369Y-76974523D01*
X134136369Y-76807857D01*
X134112559Y-76712619D01*
X134064940Y-76665000D01*
X134017321Y-76641190D01*
X137469702Y-78016190D02*
X137469702Y-77516190D01*
X137255416Y-77563809D02*
X137231607Y-77540000D01*
X137183988Y-77516190D01*
X137064940Y-77516190D01*
X137017321Y-77540000D01*
X136993511Y-77563809D01*
X136969702Y-77611428D01*
X136969702Y-77659047D01*
X136993511Y-77730476D01*
X137279226Y-78016190D01*
X136969702Y-78016190D01*
X136469702Y-77968571D02*
X136493511Y-77992380D01*
X136564940Y-78016190D01*
X136612559Y-78016190D01*
X136683988Y-77992380D01*
X136731607Y-77944761D01*
X136755416Y-77897142D01*
X136779226Y-77801904D01*
X136779226Y-77730476D01*
X136755416Y-77635238D01*
X136731607Y-77587619D01*
X136683988Y-77540000D01*
X136612559Y-77516190D01*
X136564940Y-77516190D01*
X136493511Y-77540000D01*
X136469702Y-77563809D01*
X135993511Y-78016190D02*
X136279226Y-78016190D01*
X136136369Y-78016190D02*
X136136369Y-77516190D01*
X136183988Y-77587619D01*
X136231607Y-77635238D01*
X136279226Y-77659047D01*
X135898273Y-78063809D02*
X135517321Y-78063809D01*
X135422083Y-77992380D02*
X135350654Y-78016190D01*
X135231607Y-78016190D01*
X135183988Y-77992380D01*
X135160178Y-77968571D01*
X135136369Y-77920952D01*
X135136369Y-77873333D01*
X135160178Y-77825714D01*
X135183988Y-77801904D01*
X135231607Y-77778095D01*
X135326845Y-77754285D01*
X135374464Y-77730476D01*
X135398273Y-77706666D01*
X135422083Y-77659047D01*
X135422083Y-77611428D01*
X135398273Y-77563809D01*
X135374464Y-77540000D01*
X135326845Y-77516190D01*
X135207797Y-77516190D01*
X135136369Y-77540000D01*
X134636369Y-77968571D02*
X134660178Y-77992380D01*
X134731607Y-78016190D01*
X134779226Y-78016190D01*
X134850654Y-77992380D01*
X134898273Y-77944761D01*
X134922083Y-77897142D01*
X134945892Y-77801904D01*
X134945892Y-77730476D01*
X134922083Y-77635238D01*
X134898273Y-77587619D01*
X134850654Y-77540000D01*
X134779226Y-77516190D01*
X134731607Y-77516190D01*
X134660178Y-77540000D01*
X134636369Y-77563809D01*
X134183988Y-78016190D02*
X134422083Y-78016190D01*
X134422083Y-77516190D01*
X137469702Y-78391190D02*
X137469702Y-78795952D01*
X137445892Y-78843571D01*
X137422083Y-78867380D01*
X137374464Y-78891190D01*
X137279226Y-78891190D01*
X137231607Y-78867380D01*
X137207797Y-78843571D01*
X137183988Y-78795952D01*
X137183988Y-78391190D01*
X136969702Y-78748333D02*
X136731607Y-78748333D01*
X137017321Y-78891190D02*
X136850654Y-78391190D01*
X136683988Y-78891190D01*
X136231607Y-78891190D02*
X136398273Y-78653095D01*
X136517321Y-78891190D02*
X136517321Y-78391190D01*
X136326845Y-78391190D01*
X136279226Y-78415000D01*
X136255416Y-78438809D01*
X136231607Y-78486428D01*
X136231607Y-78557857D01*
X136255416Y-78605476D01*
X136279226Y-78629285D01*
X136326845Y-78653095D01*
X136517321Y-78653095D01*
X136088750Y-78391190D02*
X135803035Y-78391190D01*
X135945892Y-78891190D02*
X135945892Y-78391190D01*
X135683988Y-78391190D02*
X135350654Y-78391190D01*
X135564940Y-78891190D01*
X135279226Y-78938809D02*
X134898273Y-78938809D01*
X134493511Y-78891190D02*
X134660178Y-78653095D01*
X134779226Y-78891190D02*
X134779226Y-78391190D01*
X134588750Y-78391190D01*
X134541130Y-78415000D01*
X134517321Y-78438809D01*
X134493511Y-78486428D01*
X134493511Y-78557857D01*
X134517321Y-78605476D01*
X134541130Y-78629285D01*
X134588750Y-78653095D01*
X134779226Y-78653095D01*
X134326845Y-78391190D02*
X133993511Y-78891190D01*
X133993511Y-78391190D02*
X134326845Y-78891190D01*
X133922083Y-78938809D02*
X133541130Y-78938809D01*
X133493511Y-78391190D02*
X133207797Y-78391190D01*
X133350654Y-78891190D02*
X133350654Y-78391190D01*
X133088750Y-78391190D02*
X132755416Y-78891190D01*
X132755416Y-78391190D02*
X133088750Y-78891190D01*
X132181607Y-73211190D02*
X132419702Y-73211190D01*
X132443511Y-73449285D01*
X132419702Y-73425476D01*
X132372083Y-73401666D01*
X132253035Y-73401666D01*
X132205416Y-73425476D01*
X132181607Y-73449285D01*
X132157797Y-73496904D01*
X132157797Y-73615952D01*
X132181607Y-73663571D01*
X132205416Y-73687380D01*
X132253035Y-73711190D01*
X132372083Y-73711190D01*
X132419702Y-73687380D01*
X132443511Y-73663571D01*
X131991130Y-73377857D02*
X131872083Y-73711190D01*
X131753035Y-73377857D01*
X132491130Y-74086190D02*
X132205416Y-74086190D01*
X132348273Y-74586190D02*
X132348273Y-74086190D01*
X132038750Y-74586190D02*
X132038750Y-74086190D01*
X131800654Y-74586190D02*
X131800654Y-74086190D01*
X131633988Y-74443333D01*
X131467321Y-74086190D01*
X131467321Y-74586190D01*
X131253035Y-74133809D02*
X131229226Y-74110000D01*
X131181607Y-74086190D01*
X131062559Y-74086190D01*
X131014940Y-74110000D01*
X130991130Y-74133809D01*
X130967321Y-74181428D01*
X130967321Y-74229047D01*
X130991130Y-74300476D01*
X131276845Y-74586190D01*
X130967321Y-74586190D01*
X130872083Y-74633809D02*
X130491130Y-74633809D01*
X130086369Y-74538571D02*
X130110178Y-74562380D01*
X130181607Y-74586190D01*
X130229226Y-74586190D01*
X130300654Y-74562380D01*
X130348273Y-74514761D01*
X130372083Y-74467142D01*
X130395892Y-74371904D01*
X130395892Y-74300476D01*
X130372083Y-74205238D01*
X130348273Y-74157619D01*
X130300654Y-74110000D01*
X130229226Y-74086190D01*
X130181607Y-74086190D01*
X130110178Y-74110000D01*
X130086369Y-74133809D01*
X129872083Y-74586190D02*
X129872083Y-74086190D01*
X129872083Y-74324285D02*
X129586369Y-74324285D01*
X129586369Y-74586190D02*
X129586369Y-74086190D01*
X129133988Y-74252857D02*
X129133988Y-74586190D01*
X129253035Y-74062380D02*
X129372083Y-74419523D01*
X129062559Y-74419523D01*
X132491130Y-74961190D02*
X132205416Y-74961190D01*
X132348273Y-75461190D02*
X132348273Y-74961190D01*
X132038750Y-75461190D02*
X132038750Y-74961190D01*
X131800654Y-75461190D02*
X131800654Y-74961190D01*
X131633988Y-75318333D01*
X131467321Y-74961190D01*
X131467321Y-75461190D01*
X131253035Y-75008809D02*
X131229226Y-74985000D01*
X131181607Y-74961190D01*
X131062559Y-74961190D01*
X131014940Y-74985000D01*
X130991130Y-75008809D01*
X130967321Y-75056428D01*
X130967321Y-75104047D01*
X130991130Y-75175476D01*
X131276845Y-75461190D01*
X130967321Y-75461190D01*
X130872083Y-75508809D02*
X130491130Y-75508809D01*
X130086369Y-75413571D02*
X130110178Y-75437380D01*
X130181607Y-75461190D01*
X130229226Y-75461190D01*
X130300654Y-75437380D01*
X130348273Y-75389761D01*
X130372083Y-75342142D01*
X130395892Y-75246904D01*
X130395892Y-75175476D01*
X130372083Y-75080238D01*
X130348273Y-75032619D01*
X130300654Y-74985000D01*
X130229226Y-74961190D01*
X130181607Y-74961190D01*
X130110178Y-74985000D01*
X130086369Y-75008809D01*
X129872083Y-75461190D02*
X129872083Y-74961190D01*
X129872083Y-75199285D02*
X129586369Y-75199285D01*
X129586369Y-75461190D02*
X129586369Y-74961190D01*
X129372083Y-75008809D02*
X129348273Y-74985000D01*
X129300654Y-74961190D01*
X129181607Y-74961190D01*
X129133988Y-74985000D01*
X129110178Y-75008809D01*
X129086369Y-75056428D01*
X129086369Y-75104047D01*
X129110178Y-75175476D01*
X129395892Y-75461190D01*
X129086369Y-75461190D01*
X132443511Y-76312380D02*
X132372083Y-76336190D01*
X132253035Y-76336190D01*
X132205416Y-76312380D01*
X132181607Y-76288571D01*
X132157797Y-76240952D01*
X132157797Y-76193333D01*
X132181607Y-76145714D01*
X132205416Y-76121904D01*
X132253035Y-76098095D01*
X132348273Y-76074285D01*
X132395892Y-76050476D01*
X132419702Y-76026666D01*
X132443511Y-75979047D01*
X132443511Y-75931428D01*
X132419702Y-75883809D01*
X132395892Y-75860000D01*
X132348273Y-75836190D01*
X132229226Y-75836190D01*
X132157797Y-75860000D01*
X131943511Y-76336190D02*
X131943511Y-75836190D01*
X131753035Y-75836190D01*
X131705416Y-75860000D01*
X131681607Y-75883809D01*
X131657797Y-75931428D01*
X131657797Y-76002857D01*
X131681607Y-76050476D01*
X131705416Y-76074285D01*
X131753035Y-76098095D01*
X131943511Y-76098095D01*
X131443511Y-76336190D02*
X131443511Y-75836190D01*
X130943511Y-76336190D02*
X131229226Y-76336190D01*
X131086369Y-76336190D02*
X131086369Y-75836190D01*
X131133988Y-75907619D01*
X131181607Y-75955238D01*
X131229226Y-75979047D01*
X130848273Y-76383809D02*
X130467321Y-76383809D01*
X130372083Y-76312380D02*
X130300654Y-76336190D01*
X130181607Y-76336190D01*
X130133988Y-76312380D01*
X130110178Y-76288571D01*
X130086369Y-76240952D01*
X130086369Y-76193333D01*
X130110178Y-76145714D01*
X130133988Y-76121904D01*
X130181607Y-76098095D01*
X130276845Y-76074285D01*
X130324464Y-76050476D01*
X130348273Y-76026666D01*
X130372083Y-75979047D01*
X130372083Y-75931428D01*
X130348273Y-75883809D01*
X130324464Y-75860000D01*
X130276845Y-75836190D01*
X130157797Y-75836190D01*
X130086369Y-75860000D01*
X129586369Y-76288571D02*
X129610178Y-76312380D01*
X129681607Y-76336190D01*
X129729226Y-76336190D01*
X129800654Y-76312380D01*
X129848273Y-76264761D01*
X129872083Y-76217142D01*
X129895892Y-76121904D01*
X129895892Y-76050476D01*
X129872083Y-75955238D01*
X129848273Y-75907619D01*
X129800654Y-75860000D01*
X129729226Y-75836190D01*
X129681607Y-75836190D01*
X129610178Y-75860000D01*
X129586369Y-75883809D01*
X129372083Y-76336190D02*
X129372083Y-75836190D01*
X129086369Y-76336190D02*
X129300654Y-76050476D01*
X129086369Y-75836190D02*
X129372083Y-76121904D01*
X132443511Y-77187380D02*
X132372083Y-77211190D01*
X132253035Y-77211190D01*
X132205416Y-77187380D01*
X132181607Y-77163571D01*
X132157797Y-77115952D01*
X132157797Y-77068333D01*
X132181607Y-77020714D01*
X132205416Y-76996904D01*
X132253035Y-76973095D01*
X132348273Y-76949285D01*
X132395892Y-76925476D01*
X132419702Y-76901666D01*
X132443511Y-76854047D01*
X132443511Y-76806428D01*
X132419702Y-76758809D01*
X132395892Y-76735000D01*
X132348273Y-76711190D01*
X132229226Y-76711190D01*
X132157797Y-76735000D01*
X131943511Y-77211190D02*
X131943511Y-76711190D01*
X131753035Y-76711190D01*
X131705416Y-76735000D01*
X131681607Y-76758809D01*
X131657797Y-76806428D01*
X131657797Y-76877857D01*
X131681607Y-76925476D01*
X131705416Y-76949285D01*
X131753035Y-76973095D01*
X131943511Y-76973095D01*
X131443511Y-77211190D02*
X131443511Y-76711190D01*
X130943511Y-77211190D02*
X131229226Y-77211190D01*
X131086369Y-77211190D02*
X131086369Y-76711190D01*
X131133988Y-76782619D01*
X131181607Y-76830238D01*
X131229226Y-76854047D01*
X130848273Y-77258809D02*
X130467321Y-77258809D01*
X130348273Y-77211190D02*
X130348273Y-76711190D01*
X130181607Y-77068333D01*
X130014940Y-76711190D01*
X130014940Y-77211190D01*
X129681607Y-76711190D02*
X129586369Y-76711190D01*
X129538750Y-76735000D01*
X129491130Y-76782619D01*
X129467321Y-76877857D01*
X129467321Y-77044523D01*
X129491130Y-77139761D01*
X129538750Y-77187380D01*
X129586369Y-77211190D01*
X129681607Y-77211190D01*
X129729226Y-77187380D01*
X129776845Y-77139761D01*
X129800654Y-77044523D01*
X129800654Y-76877857D01*
X129776845Y-76782619D01*
X129729226Y-76735000D01*
X129681607Y-76711190D01*
X129276845Y-77187380D02*
X129205416Y-77211190D01*
X129086369Y-77211190D01*
X129038750Y-77187380D01*
X129014940Y-77163571D01*
X128991130Y-77115952D01*
X128991130Y-77068333D01*
X129014940Y-77020714D01*
X129038750Y-76996904D01*
X129086369Y-76973095D01*
X129181607Y-76949285D01*
X129229226Y-76925476D01*
X129253035Y-76901666D01*
X129276845Y-76854047D01*
X129276845Y-76806428D01*
X129253035Y-76758809D01*
X129229226Y-76735000D01*
X129181607Y-76711190D01*
X129062559Y-76711190D01*
X128991130Y-76735000D01*
X128776845Y-77211190D02*
X128776845Y-76711190D01*
X132419702Y-78086190D02*
X132419702Y-77586190D01*
X132205416Y-77633809D02*
X132181607Y-77610000D01*
X132133988Y-77586190D01*
X132014940Y-77586190D01*
X131967321Y-77610000D01*
X131943511Y-77633809D01*
X131919702Y-77681428D01*
X131919702Y-77729047D01*
X131943511Y-77800476D01*
X132229226Y-78086190D01*
X131919702Y-78086190D01*
X131419702Y-78038571D02*
X131443511Y-78062380D01*
X131514940Y-78086190D01*
X131562559Y-78086190D01*
X131633988Y-78062380D01*
X131681607Y-78014761D01*
X131705416Y-77967142D01*
X131729226Y-77871904D01*
X131729226Y-77800476D01*
X131705416Y-77705238D01*
X131681607Y-77657619D01*
X131633988Y-77610000D01*
X131562559Y-77586190D01*
X131514940Y-77586190D01*
X131443511Y-77610000D01*
X131419702Y-77633809D01*
X130943511Y-78086190D02*
X131229226Y-78086190D01*
X131086369Y-78086190D02*
X131086369Y-77586190D01*
X131133988Y-77657619D01*
X131181607Y-77705238D01*
X131229226Y-77729047D01*
X130848273Y-78133809D02*
X130467321Y-78133809D01*
X130372083Y-78062380D02*
X130300654Y-78086190D01*
X130181607Y-78086190D01*
X130133988Y-78062380D01*
X130110178Y-78038571D01*
X130086369Y-77990952D01*
X130086369Y-77943333D01*
X130110178Y-77895714D01*
X130133988Y-77871904D01*
X130181607Y-77848095D01*
X130276845Y-77824285D01*
X130324464Y-77800476D01*
X130348273Y-77776666D01*
X130372083Y-77729047D01*
X130372083Y-77681428D01*
X130348273Y-77633809D01*
X130324464Y-77610000D01*
X130276845Y-77586190D01*
X130157797Y-77586190D01*
X130086369Y-77610000D01*
X129872083Y-78086190D02*
X129872083Y-77586190D01*
X129753035Y-77586190D01*
X129681607Y-77610000D01*
X129633988Y-77657619D01*
X129610178Y-77705238D01*
X129586369Y-77800476D01*
X129586369Y-77871904D01*
X129610178Y-77967142D01*
X129633988Y-78014761D01*
X129681607Y-78062380D01*
X129753035Y-78086190D01*
X129872083Y-78086190D01*
X129395892Y-77943333D02*
X129157797Y-77943333D01*
X129443511Y-78086190D02*
X129276845Y-77586190D01*
X129110178Y-78086190D01*
X132419702Y-78461190D02*
X132419702Y-78865952D01*
X132395892Y-78913571D01*
X132372083Y-78937380D01*
X132324464Y-78961190D01*
X132229226Y-78961190D01*
X132181607Y-78937380D01*
X132157797Y-78913571D01*
X132133988Y-78865952D01*
X132133988Y-78461190D01*
X131919702Y-78818333D02*
X131681607Y-78818333D01*
X131967321Y-78961190D02*
X131800654Y-78461190D01*
X131633988Y-78961190D01*
X131181607Y-78961190D02*
X131348273Y-78723095D01*
X131467321Y-78961190D02*
X131467321Y-78461190D01*
X131276845Y-78461190D01*
X131229226Y-78485000D01*
X131205416Y-78508809D01*
X131181607Y-78556428D01*
X131181607Y-78627857D01*
X131205416Y-78675476D01*
X131229226Y-78699285D01*
X131276845Y-78723095D01*
X131467321Y-78723095D01*
X131038750Y-78461190D02*
X130753035Y-78461190D01*
X130895892Y-78961190D02*
X130895892Y-78461190D01*
X130633988Y-78461190D02*
X130300654Y-78461190D01*
X130514940Y-78961190D01*
X130229226Y-79008809D02*
X129848273Y-79008809D01*
X129800654Y-78461190D02*
X129514940Y-78461190D01*
X129657797Y-78961190D02*
X129657797Y-78461190D01*
X129395892Y-78461190D02*
X129062559Y-78961190D01*
X129062559Y-78461190D02*
X129395892Y-78961190D01*
X128991130Y-79008809D02*
X128610178Y-79008809D01*
X128205416Y-78961190D02*
X128372083Y-78723095D01*
X128491130Y-78961190D02*
X128491130Y-78461190D01*
X128300654Y-78461190D01*
X128253035Y-78485000D01*
X128229226Y-78508809D01*
X128205416Y-78556428D01*
X128205416Y-78627857D01*
X128229226Y-78675476D01*
X128253035Y-78699285D01*
X128300654Y-78723095D01*
X128491130Y-78723095D01*
X128038750Y-78461190D02*
X127705416Y-78961190D01*
X127705416Y-78461190D02*
X128038750Y-78961190D01*
D11*
%TO.C,J4*%
X145186400Y-109715300D02*
X129286000Y-109715300D01*
X145186400Y-95948500D02*
X145186400Y-109715300D01*
%TO.C,U3*%
X156389900Y-79013100D02*
X162399900Y-79013100D01*
X158639900Y-72193100D02*
X162399900Y-72193100D01*
X162399900Y-79013100D02*
X162399900Y-77753100D01*
X162399900Y-72193100D02*
X162399900Y-73453100D01*
%TO.C,R69*%
X142339800Y-66231224D02*
X142339800Y-65721776D01*
X143384800Y-66231224D02*
X143384800Y-65721776D01*
%TO.C,R68*%
X126999276Y-90257100D02*
X127508724Y-90257100D01*
X126999276Y-91302100D02*
X127508724Y-91302100D01*
%TO.C,R67*%
X126999276Y-91806500D02*
X127508724Y-91806500D01*
X126999276Y-92851500D02*
X127508724Y-92851500D01*
%TO.C,R65*%
X137678900Y-69558624D02*
X137678900Y-69049176D01*
X138723900Y-69558624D02*
X138723900Y-69049176D01*
%TO.C,R57*%
X146726976Y-99468200D02*
X147236424Y-99468200D01*
X146726976Y-100513200D02*
X147236424Y-100513200D01*
%TO.C,R56*%
X146714276Y-100992200D02*
X147223724Y-100992200D01*
X146714276Y-102037200D02*
X147223724Y-102037200D01*
%TO.C,R53*%
X138901700Y-86981576D02*
X138901700Y-87491024D01*
X137856700Y-86981576D02*
X137856700Y-87491024D01*
%TO.C,R52*%
X140413000Y-86981576D02*
X140413000Y-87491024D01*
X139368000Y-86981576D02*
X139368000Y-87491024D01*
%TO.C,R47*%
X141949700Y-86943476D02*
X141949700Y-87452924D01*
X140904700Y-86943476D02*
X140904700Y-87452924D01*
%TO.C,R46*%
X154762924Y-86107800D02*
X154253476Y-86107800D01*
X154762924Y-85062800D02*
X154253476Y-85062800D01*
%TO.C,R45*%
X154762924Y-84609200D02*
X154253476Y-84609200D01*
X154762924Y-83564200D02*
X154253476Y-83564200D01*
%TO.C,R44*%
X134024900Y-65594776D02*
X134024900Y-66104224D01*
X132979900Y-65594776D02*
X132979900Y-66104224D01*
%TO.C,R43*%
X132526300Y-65594776D02*
X132526300Y-66104224D01*
X131481300Y-65594776D02*
X131481300Y-66104224D01*
%TO.C,R35*%
X130021876Y-86345500D02*
X130531324Y-86345500D01*
X130021876Y-87390500D02*
X130531324Y-87390500D01*
%TO.C,R34*%
X129971076Y-84850075D02*
X130480524Y-84850075D01*
X129971076Y-85895075D02*
X130480524Y-85895075D01*
%TO.C,R33*%
X129971076Y-83303850D02*
X130480524Y-83303850D01*
X129971076Y-84348850D02*
X130480524Y-84348850D01*
%TO.C,R32*%
X127696700Y-104509024D02*
X127696700Y-103999576D01*
X128741700Y-104509024D02*
X128741700Y-103999576D01*
%TO.C,R31*%
X152297676Y-95375200D02*
X152807124Y-95375200D01*
X152297676Y-96420200D02*
X152807124Y-96420200D01*
%TO.C,R30*%
X129971076Y-81757625D02*
X130480524Y-81757625D01*
X129971076Y-82802625D02*
X130480524Y-82802625D01*
%TO.C,R29*%
X144283976Y-87806000D02*
X144793424Y-87806000D01*
X144283976Y-88851000D02*
X144793424Y-88851000D01*
%TO.C,R28*%
X129971076Y-80211400D02*
X130480524Y-80211400D01*
X129971076Y-81256400D02*
X130480524Y-81256400D01*
%TO.C,R27*%
X144283976Y-86313750D02*
X144793424Y-86313750D01*
X144283976Y-87358750D02*
X144793424Y-87358750D01*
%TO.C,R26*%
X152310376Y-90841300D02*
X152819824Y-90841300D01*
X152310376Y-91886300D02*
X152819824Y-91886300D01*
%TO.C,R23*%
X144283976Y-84821500D02*
X144793424Y-84821500D01*
X144283976Y-85866500D02*
X144793424Y-85866500D01*
%TO.C,R22*%
X144283976Y-83329250D02*
X144793424Y-83329250D01*
X144283976Y-84374250D02*
X144793424Y-84374250D01*
%TO.C,R18*%
X144283976Y-81837000D02*
X144793424Y-81837000D01*
X144283976Y-82882000D02*
X144793424Y-82882000D01*
%TO.C,R7*%
X150966700Y-65689476D02*
X150966700Y-66198924D01*
X149921700Y-65689476D02*
X149921700Y-66198924D01*
%TO.C,R6*%
X152490700Y-65689476D02*
X152490700Y-66198924D01*
X151445700Y-65689476D02*
X151445700Y-66198924D01*
%TO.C,R5*%
X154014700Y-65689476D02*
X154014700Y-66198924D01*
X152969700Y-65689476D02*
X152969700Y-66198924D01*
%TO.C,R4*%
X155551400Y-65689476D02*
X155551400Y-66198924D01*
X154506400Y-65689476D02*
X154506400Y-66198924D01*
%TO.C,J3*%
X122310200Y-77179900D02*
X122310200Y-76159900D01*
X117110200Y-77179900D02*
X117110200Y-76159900D01*
X122310200Y-79719900D02*
X122310200Y-78699900D01*
X117110200Y-79719900D02*
X117110200Y-78699900D01*
X122310200Y-82259900D02*
X122310200Y-81239900D01*
X117110200Y-82259900D02*
X117110200Y-81239900D01*
X122310200Y-84799900D02*
X122310200Y-83779900D01*
X117110200Y-84799900D02*
X117110200Y-83779900D01*
X122310200Y-87339900D02*
X122310200Y-86319900D01*
X117110200Y-87339900D02*
X117110200Y-86319900D01*
X122310200Y-89879900D02*
X122310200Y-88859900D01*
X117110200Y-89879900D02*
X117110200Y-88859900D01*
X122310200Y-74639900D02*
X122310200Y-74069900D01*
X117110200Y-74639900D02*
X117110200Y-74069900D01*
X122310200Y-91969900D02*
X122310200Y-91399900D01*
X117110200Y-91969900D02*
X117110200Y-91399900D01*
X115670200Y-91399900D02*
X117110200Y-91399900D01*
X117110200Y-74069900D02*
X122310200Y-74069900D01*
X117110200Y-91969900D02*
X122310200Y-91969900D01*
%TO.C,C30*%
X121278433Y-97000600D02*
X121570967Y-97000600D01*
X121278433Y-98020600D02*
X121570967Y-98020600D01*
%TO.C,C28*%
X123988100Y-93681767D02*
X123988100Y-93389233D01*
X125008100Y-93681767D02*
X125008100Y-93389233D01*
%TO.C,C18*%
X127400267Y-94401100D02*
X127107733Y-94401100D01*
X127400267Y-93381100D02*
X127107733Y-93381100D01*
%TO.C,C12*%
X160301400Y-84638933D02*
X160301400Y-84931467D01*
X159281400Y-84638933D02*
X159281400Y-84931467D01*
%TO.C,C9*%
X159031400Y-94252833D02*
X159031400Y-94545367D01*
X158011400Y-94252833D02*
X158011400Y-94545367D01*
%TO.C,C8*%
X162376067Y-85879400D02*
X162083533Y-85879400D01*
X162376067Y-84859400D02*
X162083533Y-84859400D01*
%TO.C,C7*%
X162376067Y-84355400D02*
X162083533Y-84355400D01*
X162376067Y-83335400D02*
X162083533Y-83335400D01*
%TO.C,C5*%
X140476700Y-74275733D02*
X140476700Y-74568267D01*
X139456700Y-74275733D02*
X139456700Y-74568267D01*
%TO.C,C4*%
X152706800Y-73094633D02*
X152706800Y-73387167D01*
X151686800Y-73094633D02*
X151686800Y-73387167D01*
%TO.C,C3*%
X149862000Y-73094633D02*
X149862000Y-73387167D01*
X148842000Y-73094633D02*
X148842000Y-73387167D01*
%TO.C,C2*%
X149785800Y-77578833D02*
X149785800Y-77871367D01*
X148765800Y-77578833D02*
X148765800Y-77871367D01*
%TO.C,C1*%
X152490900Y-77578833D02*
X152490900Y-77871367D01*
X151470900Y-77578833D02*
X151470900Y-77871367D01*
%TO.C,J2*%
X122822000Y-73720000D02*
X126352000Y-73720000D01*
X122822000Y-69790000D02*
X126352000Y-69790000D01*
X121497000Y-73655000D02*
X122822000Y-73655000D01*
X122822000Y-73720000D02*
X122822000Y-73655000D01*
X126352000Y-73720000D02*
X126352000Y-73655000D01*
X122822000Y-69855000D02*
X122822000Y-69790000D01*
X126352000Y-69855000D02*
X126352000Y-69790000D01*
%TO.C,J4*%
D12*
X146463333Y-104222380D02*
X146463333Y-104936666D01*
X146510952Y-105079523D01*
X146606190Y-105174761D01*
X146749047Y-105222380D01*
X146844285Y-105222380D01*
X145558571Y-104555714D02*
X145558571Y-105222380D01*
X145796666Y-104174761D02*
X146034761Y-104889047D01*
X145415714Y-104889047D01*
%TO.C,U3*%
X161251804Y-79555480D02*
X161251804Y-80365004D01*
X161204185Y-80460242D01*
X161156566Y-80507861D01*
X161061328Y-80555480D01*
X160870852Y-80555480D01*
X160775614Y-80507861D01*
X160727995Y-80460242D01*
X160680376Y-80365004D01*
X160680376Y-79555480D01*
X160299423Y-79555480D02*
X159680376Y-79555480D01*
X160013709Y-79936433D01*
X159870852Y-79936433D01*
X159775614Y-79984052D01*
X159727995Y-80031671D01*
X159680376Y-80126909D01*
X159680376Y-80365004D01*
X159727995Y-80460242D01*
X159775614Y-80507861D01*
X159870852Y-80555480D01*
X160156566Y-80555480D01*
X160251804Y-80507861D01*
X160299423Y-80460242D01*
%TO.C,R69*%
X143422380Y-68807142D02*
X142946190Y-68473809D01*
X143422380Y-68235714D02*
X142422380Y-68235714D01*
X142422380Y-68616666D01*
X142470000Y-68711904D01*
X142517619Y-68759523D01*
X142612857Y-68807142D01*
X142755714Y-68807142D01*
X142850952Y-68759523D01*
X142898571Y-68711904D01*
X142946190Y-68616666D01*
X142946190Y-68235714D01*
X142422380Y-69664285D02*
X142422380Y-69473809D01*
X142470000Y-69378571D01*
X142517619Y-69330952D01*
X142660476Y-69235714D01*
X142850952Y-69188095D01*
X143231904Y-69188095D01*
X143327142Y-69235714D01*
X143374761Y-69283333D01*
X143422380Y-69378571D01*
X143422380Y-69569047D01*
X143374761Y-69664285D01*
X143327142Y-69711904D01*
X143231904Y-69759523D01*
X142993809Y-69759523D01*
X142898571Y-69711904D01*
X142850952Y-69664285D01*
X142803333Y-69569047D01*
X142803333Y-69378571D01*
X142850952Y-69283333D01*
X142898571Y-69235714D01*
X142993809Y-69188095D01*
X143422380Y-70235714D02*
X143422380Y-70426190D01*
X143374761Y-70521428D01*
X143327142Y-70569047D01*
X143184285Y-70664285D01*
X142993809Y-70711904D01*
X142612857Y-70711904D01*
X142517619Y-70664285D01*
X142470000Y-70616666D01*
X142422380Y-70521428D01*
X142422380Y-70330952D01*
X142470000Y-70235714D01*
X142517619Y-70188095D01*
X142612857Y-70140476D01*
X142850952Y-70140476D01*
X142946190Y-70188095D01*
X142993809Y-70235714D01*
X143041428Y-70330952D01*
X143041428Y-70521428D01*
X142993809Y-70616666D01*
X142946190Y-70664285D01*
X142850952Y-70711904D01*
%TO.C,R68*%
X130892857Y-91152380D02*
X131226190Y-90676190D01*
X131464285Y-91152380D02*
X131464285Y-90152380D01*
X131083333Y-90152380D01*
X130988095Y-90200000D01*
X130940476Y-90247619D01*
X130892857Y-90342857D01*
X130892857Y-90485714D01*
X130940476Y-90580952D01*
X130988095Y-90628571D01*
X131083333Y-90676190D01*
X131464285Y-90676190D01*
X130035714Y-90152380D02*
X130226190Y-90152380D01*
X130321428Y-90200000D01*
X130369047Y-90247619D01*
X130464285Y-90390476D01*
X130511904Y-90580952D01*
X130511904Y-90961904D01*
X130464285Y-91057142D01*
X130416666Y-91104761D01*
X130321428Y-91152380D01*
X130130952Y-91152380D01*
X130035714Y-91104761D01*
X129988095Y-91057142D01*
X129940476Y-90961904D01*
X129940476Y-90723809D01*
X129988095Y-90628571D01*
X130035714Y-90580952D01*
X130130952Y-90533333D01*
X130321428Y-90533333D01*
X130416666Y-90580952D01*
X130464285Y-90628571D01*
X130511904Y-90723809D01*
X129369047Y-90580952D02*
X129464285Y-90533333D01*
X129511904Y-90485714D01*
X129559523Y-90390476D01*
X129559523Y-90342857D01*
X129511904Y-90247619D01*
X129464285Y-90200000D01*
X129369047Y-90152380D01*
X129178571Y-90152380D01*
X129083333Y-90200000D01*
X129035714Y-90247619D01*
X128988095Y-90342857D01*
X128988095Y-90390476D01*
X129035714Y-90485714D01*
X129083333Y-90533333D01*
X129178571Y-90580952D01*
X129369047Y-90580952D01*
X129464285Y-90628571D01*
X129511904Y-90676190D01*
X129559523Y-90771428D01*
X129559523Y-90961904D01*
X129511904Y-91057142D01*
X129464285Y-91104761D01*
X129369047Y-91152380D01*
X129178571Y-91152380D01*
X129083333Y-91104761D01*
X129035714Y-91057142D01*
X128988095Y-90961904D01*
X128988095Y-90771428D01*
X129035714Y-90676190D01*
X129083333Y-90628571D01*
X129178571Y-90580952D01*
%TO.C,R67*%
X130892857Y-92732380D02*
X131226190Y-92256190D01*
X131464285Y-92732380D02*
X131464285Y-91732380D01*
X131083333Y-91732380D01*
X130988095Y-91780000D01*
X130940476Y-91827619D01*
X130892857Y-91922857D01*
X130892857Y-92065714D01*
X130940476Y-92160952D01*
X130988095Y-92208571D01*
X131083333Y-92256190D01*
X131464285Y-92256190D01*
X130035714Y-91732380D02*
X130226190Y-91732380D01*
X130321428Y-91780000D01*
X130369047Y-91827619D01*
X130464285Y-91970476D01*
X130511904Y-92160952D01*
X130511904Y-92541904D01*
X130464285Y-92637142D01*
X130416666Y-92684761D01*
X130321428Y-92732380D01*
X130130952Y-92732380D01*
X130035714Y-92684761D01*
X129988095Y-92637142D01*
X129940476Y-92541904D01*
X129940476Y-92303809D01*
X129988095Y-92208571D01*
X130035714Y-92160952D01*
X130130952Y-92113333D01*
X130321428Y-92113333D01*
X130416666Y-92160952D01*
X130464285Y-92208571D01*
X130511904Y-92303809D01*
X129607142Y-91732380D02*
X128940476Y-91732380D01*
X129369047Y-92732380D01*
%TO.C,R65*%
X138652380Y-65197142D02*
X138176190Y-64863809D01*
X138652380Y-64625714D02*
X137652380Y-64625714D01*
X137652380Y-65006666D01*
X137700000Y-65101904D01*
X137747619Y-65149523D01*
X137842857Y-65197142D01*
X137985714Y-65197142D01*
X138080952Y-65149523D01*
X138128571Y-65101904D01*
X138176190Y-65006666D01*
X138176190Y-64625714D01*
X137652380Y-66054285D02*
X137652380Y-65863809D01*
X137700000Y-65768571D01*
X137747619Y-65720952D01*
X137890476Y-65625714D01*
X138080952Y-65578095D01*
X138461904Y-65578095D01*
X138557142Y-65625714D01*
X138604761Y-65673333D01*
X138652380Y-65768571D01*
X138652380Y-65959047D01*
X138604761Y-66054285D01*
X138557142Y-66101904D01*
X138461904Y-66149523D01*
X138223809Y-66149523D01*
X138128571Y-66101904D01*
X138080952Y-66054285D01*
X138033333Y-65959047D01*
X138033333Y-65768571D01*
X138080952Y-65673333D01*
X138128571Y-65625714D01*
X138223809Y-65578095D01*
X137652380Y-67054285D02*
X137652380Y-66578095D01*
X138128571Y-66530476D01*
X138080952Y-66578095D01*
X138033333Y-66673333D01*
X138033333Y-66911428D01*
X138080952Y-67006666D01*
X138128571Y-67054285D01*
X138223809Y-67101904D01*
X138461904Y-67101904D01*
X138557142Y-67054285D01*
X138604761Y-67006666D01*
X138652380Y-66911428D01*
X138652380Y-66673333D01*
X138604761Y-66578095D01*
X138557142Y-66530476D01*
%TO.C,R57*%
X150692857Y-100372380D02*
X151026190Y-99896190D01*
X151264285Y-100372380D02*
X151264285Y-99372380D01*
X150883333Y-99372380D01*
X150788095Y-99420000D01*
X150740476Y-99467619D01*
X150692857Y-99562857D01*
X150692857Y-99705714D01*
X150740476Y-99800952D01*
X150788095Y-99848571D01*
X150883333Y-99896190D01*
X151264285Y-99896190D01*
X149788095Y-99372380D02*
X150264285Y-99372380D01*
X150311904Y-99848571D01*
X150264285Y-99800952D01*
X150169047Y-99753333D01*
X149930952Y-99753333D01*
X149835714Y-99800952D01*
X149788095Y-99848571D01*
X149740476Y-99943809D01*
X149740476Y-100181904D01*
X149788095Y-100277142D01*
X149835714Y-100324761D01*
X149930952Y-100372380D01*
X150169047Y-100372380D01*
X150264285Y-100324761D01*
X150311904Y-100277142D01*
X149407142Y-99372380D02*
X148740476Y-99372380D01*
X149169047Y-100372380D01*
%TO.C,R56*%
X150742857Y-102042380D02*
X151076190Y-101566190D01*
X151314285Y-102042380D02*
X151314285Y-101042380D01*
X150933333Y-101042380D01*
X150838095Y-101090000D01*
X150790476Y-101137619D01*
X150742857Y-101232857D01*
X150742857Y-101375714D01*
X150790476Y-101470952D01*
X150838095Y-101518571D01*
X150933333Y-101566190D01*
X151314285Y-101566190D01*
X149838095Y-101042380D02*
X150314285Y-101042380D01*
X150361904Y-101518571D01*
X150314285Y-101470952D01*
X150219047Y-101423333D01*
X149980952Y-101423333D01*
X149885714Y-101470952D01*
X149838095Y-101518571D01*
X149790476Y-101613809D01*
X149790476Y-101851904D01*
X149838095Y-101947142D01*
X149885714Y-101994761D01*
X149980952Y-102042380D01*
X150219047Y-102042380D01*
X150314285Y-101994761D01*
X150361904Y-101947142D01*
X148933333Y-101042380D02*
X149123809Y-101042380D01*
X149219047Y-101090000D01*
X149266666Y-101137619D01*
X149361904Y-101280476D01*
X149409523Y-101470952D01*
X149409523Y-101851904D01*
X149361904Y-101947142D01*
X149314285Y-101994761D01*
X149219047Y-102042380D01*
X149028571Y-102042380D01*
X148933333Y-101994761D01*
X148885714Y-101947142D01*
X148838095Y-101851904D01*
X148838095Y-101613809D01*
X148885714Y-101518571D01*
X148933333Y-101470952D01*
X149028571Y-101423333D01*
X149219047Y-101423333D01*
X149314285Y-101470952D01*
X149361904Y-101518571D01*
X149409523Y-101613809D01*
%TO.C,R53*%
X138932380Y-89607142D02*
X138456190Y-89273809D01*
X138932380Y-89035714D02*
X137932380Y-89035714D01*
X137932380Y-89416666D01*
X137980000Y-89511904D01*
X138027619Y-89559523D01*
X138122857Y-89607142D01*
X138265714Y-89607142D01*
X138360952Y-89559523D01*
X138408571Y-89511904D01*
X138456190Y-89416666D01*
X138456190Y-89035714D01*
X137932380Y-90511904D02*
X137932380Y-90035714D01*
X138408571Y-89988095D01*
X138360952Y-90035714D01*
X138313333Y-90130952D01*
X138313333Y-90369047D01*
X138360952Y-90464285D01*
X138408571Y-90511904D01*
X138503809Y-90559523D01*
X138741904Y-90559523D01*
X138837142Y-90511904D01*
X138884761Y-90464285D01*
X138932380Y-90369047D01*
X138932380Y-90130952D01*
X138884761Y-90035714D01*
X138837142Y-89988095D01*
X137932380Y-90892857D02*
X137932380Y-91511904D01*
X138313333Y-91178571D01*
X138313333Y-91321428D01*
X138360952Y-91416666D01*
X138408571Y-91464285D01*
X138503809Y-91511904D01*
X138741904Y-91511904D01*
X138837142Y-91464285D01*
X138884761Y-91416666D01*
X138932380Y-91321428D01*
X138932380Y-91035714D01*
X138884761Y-90940476D01*
X138837142Y-90892857D01*
%TO.C,R52*%
X140462380Y-89587142D02*
X139986190Y-89253809D01*
X140462380Y-89015714D02*
X139462380Y-89015714D01*
X139462380Y-89396666D01*
X139510000Y-89491904D01*
X139557619Y-89539523D01*
X139652857Y-89587142D01*
X139795714Y-89587142D01*
X139890952Y-89539523D01*
X139938571Y-89491904D01*
X139986190Y-89396666D01*
X139986190Y-89015714D01*
X139462380Y-90491904D02*
X139462380Y-90015714D01*
X139938571Y-89968095D01*
X139890952Y-90015714D01*
X139843333Y-90110952D01*
X139843333Y-90349047D01*
X139890952Y-90444285D01*
X139938571Y-90491904D01*
X140033809Y-90539523D01*
X140271904Y-90539523D01*
X140367142Y-90491904D01*
X140414761Y-90444285D01*
X140462380Y-90349047D01*
X140462380Y-90110952D01*
X140414761Y-90015714D01*
X140367142Y-89968095D01*
X139557619Y-90920476D02*
X139510000Y-90968095D01*
X139462380Y-91063333D01*
X139462380Y-91301428D01*
X139510000Y-91396666D01*
X139557619Y-91444285D01*
X139652857Y-91491904D01*
X139748095Y-91491904D01*
X139890952Y-91444285D01*
X140462380Y-90872857D01*
X140462380Y-91491904D01*
%TO.C,R47*%
X142042380Y-89527142D02*
X141566190Y-89193809D01*
X142042380Y-88955714D02*
X141042380Y-88955714D01*
X141042380Y-89336666D01*
X141090000Y-89431904D01*
X141137619Y-89479523D01*
X141232857Y-89527142D01*
X141375714Y-89527142D01*
X141470952Y-89479523D01*
X141518571Y-89431904D01*
X141566190Y-89336666D01*
X141566190Y-88955714D01*
X141375714Y-90384285D02*
X142042380Y-90384285D01*
X140994761Y-90146190D02*
X141709047Y-89908095D01*
X141709047Y-90527142D01*
X141042380Y-90812857D02*
X141042380Y-91479523D01*
X142042380Y-91050952D01*
%TO.C,R46*%
X152042857Y-86172380D02*
X152376190Y-85696190D01*
X152614285Y-86172380D02*
X152614285Y-85172380D01*
X152233333Y-85172380D01*
X152138095Y-85220000D01*
X152090476Y-85267619D01*
X152042857Y-85362857D01*
X152042857Y-85505714D01*
X152090476Y-85600952D01*
X152138095Y-85648571D01*
X152233333Y-85696190D01*
X152614285Y-85696190D01*
X151185714Y-85505714D02*
X151185714Y-86172380D01*
X151423809Y-85124761D02*
X151661904Y-85839047D01*
X151042857Y-85839047D01*
X150233333Y-85172380D02*
X150423809Y-85172380D01*
X150519047Y-85220000D01*
X150566666Y-85267619D01*
X150661904Y-85410476D01*
X150709523Y-85600952D01*
X150709523Y-85981904D01*
X150661904Y-86077142D01*
X150614285Y-86124761D01*
X150519047Y-86172380D01*
X150328571Y-86172380D01*
X150233333Y-86124761D01*
X150185714Y-86077142D01*
X150138095Y-85981904D01*
X150138095Y-85743809D01*
X150185714Y-85648571D01*
X150233333Y-85600952D01*
X150328571Y-85553333D01*
X150519047Y-85553333D01*
X150614285Y-85600952D01*
X150661904Y-85648571D01*
X150709523Y-85743809D01*
%TO.C,R45*%
X152032857Y-84752380D02*
X152366190Y-84276190D01*
X152604285Y-84752380D02*
X152604285Y-83752380D01*
X152223333Y-83752380D01*
X152128095Y-83800000D01*
X152080476Y-83847619D01*
X152032857Y-83942857D01*
X152032857Y-84085714D01*
X152080476Y-84180952D01*
X152128095Y-84228571D01*
X152223333Y-84276190D01*
X152604285Y-84276190D01*
X151175714Y-84085714D02*
X151175714Y-84752380D01*
X151413809Y-83704761D02*
X151651904Y-84419047D01*
X151032857Y-84419047D01*
X150175714Y-83752380D02*
X150651904Y-83752380D01*
X150699523Y-84228571D01*
X150651904Y-84180952D01*
X150556666Y-84133333D01*
X150318571Y-84133333D01*
X150223333Y-84180952D01*
X150175714Y-84228571D01*
X150128095Y-84323809D01*
X150128095Y-84561904D01*
X150175714Y-84657142D01*
X150223333Y-84704761D01*
X150318571Y-84752380D01*
X150556666Y-84752380D01*
X150651904Y-84704761D01*
X150699523Y-84657142D01*
%TO.C,R44*%
X133982380Y-68217142D02*
X133506190Y-67883809D01*
X133982380Y-67645714D02*
X132982380Y-67645714D01*
X132982380Y-68026666D01*
X133030000Y-68121904D01*
X133077619Y-68169523D01*
X133172857Y-68217142D01*
X133315714Y-68217142D01*
X133410952Y-68169523D01*
X133458571Y-68121904D01*
X133506190Y-68026666D01*
X133506190Y-67645714D01*
X133315714Y-69074285D02*
X133982380Y-69074285D01*
X132934761Y-68836190D02*
X133649047Y-68598095D01*
X133649047Y-69217142D01*
X133315714Y-70026666D02*
X133982380Y-70026666D01*
X132934761Y-69788571D02*
X133649047Y-69550476D01*
X133649047Y-70169523D01*
%TO.C,R43*%
X132412380Y-68257142D02*
X131936190Y-67923809D01*
X132412380Y-67685714D02*
X131412380Y-67685714D01*
X131412380Y-68066666D01*
X131460000Y-68161904D01*
X131507619Y-68209523D01*
X131602857Y-68257142D01*
X131745714Y-68257142D01*
X131840952Y-68209523D01*
X131888571Y-68161904D01*
X131936190Y-68066666D01*
X131936190Y-67685714D01*
X131745714Y-69114285D02*
X132412380Y-69114285D01*
X131364761Y-68876190D02*
X132079047Y-68638095D01*
X132079047Y-69257142D01*
X131412380Y-69542857D02*
X131412380Y-70161904D01*
X131793333Y-69828571D01*
X131793333Y-69971428D01*
X131840952Y-70066666D01*
X131888571Y-70114285D01*
X131983809Y-70161904D01*
X132221904Y-70161904D01*
X132317142Y-70114285D01*
X132364761Y-70066666D01*
X132412380Y-69971428D01*
X132412380Y-69685714D01*
X132364761Y-69590476D01*
X132317142Y-69542857D01*
%TO.C,R35*%
X133862857Y-87282380D02*
X134196190Y-86806190D01*
X134434285Y-87282380D02*
X134434285Y-86282380D01*
X134053333Y-86282380D01*
X133958095Y-86330000D01*
X133910476Y-86377619D01*
X133862857Y-86472857D01*
X133862857Y-86615714D01*
X133910476Y-86710952D01*
X133958095Y-86758571D01*
X134053333Y-86806190D01*
X134434285Y-86806190D01*
X133529523Y-86282380D02*
X132910476Y-86282380D01*
X133243809Y-86663333D01*
X133100952Y-86663333D01*
X133005714Y-86710952D01*
X132958095Y-86758571D01*
X132910476Y-86853809D01*
X132910476Y-87091904D01*
X132958095Y-87187142D01*
X133005714Y-87234761D01*
X133100952Y-87282380D01*
X133386666Y-87282380D01*
X133481904Y-87234761D01*
X133529523Y-87187142D01*
X132005714Y-86282380D02*
X132481904Y-86282380D01*
X132529523Y-86758571D01*
X132481904Y-86710952D01*
X132386666Y-86663333D01*
X132148571Y-86663333D01*
X132053333Y-86710952D01*
X132005714Y-86758571D01*
X131958095Y-86853809D01*
X131958095Y-87091904D01*
X132005714Y-87187142D01*
X132053333Y-87234761D01*
X132148571Y-87282380D01*
X132386666Y-87282380D01*
X132481904Y-87234761D01*
X132529523Y-87187142D01*
%TO.C,R34*%
X133972857Y-85822380D02*
X134306190Y-85346190D01*
X134544285Y-85822380D02*
X134544285Y-84822380D01*
X134163333Y-84822380D01*
X134068095Y-84870000D01*
X134020476Y-84917619D01*
X133972857Y-85012857D01*
X133972857Y-85155714D01*
X134020476Y-85250952D01*
X134068095Y-85298571D01*
X134163333Y-85346190D01*
X134544285Y-85346190D01*
X133639523Y-84822380D02*
X133020476Y-84822380D01*
X133353809Y-85203333D01*
X133210952Y-85203333D01*
X133115714Y-85250952D01*
X133068095Y-85298571D01*
X133020476Y-85393809D01*
X133020476Y-85631904D01*
X133068095Y-85727142D01*
X133115714Y-85774761D01*
X133210952Y-85822380D01*
X133496666Y-85822380D01*
X133591904Y-85774761D01*
X133639523Y-85727142D01*
X132163333Y-85155714D02*
X132163333Y-85822380D01*
X132401428Y-84774761D02*
X132639523Y-85489047D01*
X132020476Y-85489047D01*
%TO.C,R33*%
X133962857Y-84302380D02*
X134296190Y-83826190D01*
X134534285Y-84302380D02*
X134534285Y-83302380D01*
X134153333Y-83302380D01*
X134058095Y-83350000D01*
X134010476Y-83397619D01*
X133962857Y-83492857D01*
X133962857Y-83635714D01*
X134010476Y-83730952D01*
X134058095Y-83778571D01*
X134153333Y-83826190D01*
X134534285Y-83826190D01*
X133629523Y-83302380D02*
X133010476Y-83302380D01*
X133343809Y-83683333D01*
X133200952Y-83683333D01*
X133105714Y-83730952D01*
X133058095Y-83778571D01*
X133010476Y-83873809D01*
X133010476Y-84111904D01*
X133058095Y-84207142D01*
X133105714Y-84254761D01*
X133200952Y-84302380D01*
X133486666Y-84302380D01*
X133581904Y-84254761D01*
X133629523Y-84207142D01*
X132677142Y-83302380D02*
X132058095Y-83302380D01*
X132391428Y-83683333D01*
X132248571Y-83683333D01*
X132153333Y-83730952D01*
X132105714Y-83778571D01*
X132058095Y-83873809D01*
X132058095Y-84111904D01*
X132105714Y-84207142D01*
X132153333Y-84254761D01*
X132248571Y-84302380D01*
X132534285Y-84302380D01*
X132629523Y-84254761D01*
X132677142Y-84207142D01*
%TO.C,R32*%
X127322380Y-104027142D02*
X126846190Y-103693809D01*
X127322380Y-103455714D02*
X126322380Y-103455714D01*
X126322380Y-103836666D01*
X126370000Y-103931904D01*
X126417619Y-103979523D01*
X126512857Y-104027142D01*
X126655714Y-104027142D01*
X126750952Y-103979523D01*
X126798571Y-103931904D01*
X126846190Y-103836666D01*
X126846190Y-103455714D01*
X126322380Y-104360476D02*
X126322380Y-104979523D01*
X126703333Y-104646190D01*
X126703333Y-104789047D01*
X126750952Y-104884285D01*
X126798571Y-104931904D01*
X126893809Y-104979523D01*
X127131904Y-104979523D01*
X127227142Y-104931904D01*
X127274761Y-104884285D01*
X127322380Y-104789047D01*
X127322380Y-104503333D01*
X127274761Y-104408095D01*
X127227142Y-104360476D01*
X126417619Y-105360476D02*
X126370000Y-105408095D01*
X126322380Y-105503333D01*
X126322380Y-105741428D01*
X126370000Y-105836666D01*
X126417619Y-105884285D01*
X126512857Y-105931904D01*
X126608095Y-105931904D01*
X126750952Y-105884285D01*
X127322380Y-105312857D01*
X127322380Y-105931904D01*
%TO.C,R31*%
X153195257Y-97780080D02*
X153528590Y-97303890D01*
X153766685Y-97780080D02*
X153766685Y-96780080D01*
X153385733Y-96780080D01*
X153290495Y-96827700D01*
X153242876Y-96875319D01*
X153195257Y-96970557D01*
X153195257Y-97113414D01*
X153242876Y-97208652D01*
X153290495Y-97256271D01*
X153385733Y-97303890D01*
X153766685Y-97303890D01*
X152861923Y-96780080D02*
X152242876Y-96780080D01*
X152576209Y-97161033D01*
X152433352Y-97161033D01*
X152338114Y-97208652D01*
X152290495Y-97256271D01*
X152242876Y-97351509D01*
X152242876Y-97589604D01*
X152290495Y-97684842D01*
X152338114Y-97732461D01*
X152433352Y-97780080D01*
X152719066Y-97780080D01*
X152814304Y-97732461D01*
X152861923Y-97684842D01*
X151290495Y-97780080D02*
X151861923Y-97780080D01*
X151576209Y-97780080D02*
X151576209Y-96780080D01*
X151671447Y-96922938D01*
X151766685Y-97018176D01*
X151861923Y-97065795D01*
%TO.C,R30*%
X133932857Y-82752380D02*
X134266190Y-82276190D01*
X134504285Y-82752380D02*
X134504285Y-81752380D01*
X134123333Y-81752380D01*
X134028095Y-81800000D01*
X133980476Y-81847619D01*
X133932857Y-81942857D01*
X133932857Y-82085714D01*
X133980476Y-82180952D01*
X134028095Y-82228571D01*
X134123333Y-82276190D01*
X134504285Y-82276190D01*
X133599523Y-81752380D02*
X132980476Y-81752380D01*
X133313809Y-82133333D01*
X133170952Y-82133333D01*
X133075714Y-82180952D01*
X133028095Y-82228571D01*
X132980476Y-82323809D01*
X132980476Y-82561904D01*
X133028095Y-82657142D01*
X133075714Y-82704761D01*
X133170952Y-82752380D01*
X133456666Y-82752380D01*
X133551904Y-82704761D01*
X133599523Y-82657142D01*
X132361428Y-81752380D02*
X132266190Y-81752380D01*
X132170952Y-81800000D01*
X132123333Y-81847619D01*
X132075714Y-81942857D01*
X132028095Y-82133333D01*
X132028095Y-82371428D01*
X132075714Y-82561904D01*
X132123333Y-82657142D01*
X132170952Y-82704761D01*
X132266190Y-82752380D01*
X132361428Y-82752380D01*
X132456666Y-82704761D01*
X132504285Y-82657142D01*
X132551904Y-82561904D01*
X132599523Y-82371428D01*
X132599523Y-82133333D01*
X132551904Y-81942857D01*
X132504285Y-81847619D01*
X132456666Y-81800000D01*
X132361428Y-81752380D01*
%TO.C,R29*%
X148312857Y-88852380D02*
X148646190Y-88376190D01*
X148884285Y-88852380D02*
X148884285Y-87852380D01*
X148503333Y-87852380D01*
X148408095Y-87900000D01*
X148360476Y-87947619D01*
X148312857Y-88042857D01*
X148312857Y-88185714D01*
X148360476Y-88280952D01*
X148408095Y-88328571D01*
X148503333Y-88376190D01*
X148884285Y-88376190D01*
X147931904Y-87947619D02*
X147884285Y-87900000D01*
X147789047Y-87852380D01*
X147550952Y-87852380D01*
X147455714Y-87900000D01*
X147408095Y-87947619D01*
X147360476Y-88042857D01*
X147360476Y-88138095D01*
X147408095Y-88280952D01*
X147979523Y-88852380D01*
X147360476Y-88852380D01*
X146884285Y-88852380D02*
X146693809Y-88852380D01*
X146598571Y-88804761D01*
X146550952Y-88757142D01*
X146455714Y-88614285D01*
X146408095Y-88423809D01*
X146408095Y-88042857D01*
X146455714Y-87947619D01*
X146503333Y-87900000D01*
X146598571Y-87852380D01*
X146789047Y-87852380D01*
X146884285Y-87900000D01*
X146931904Y-87947619D01*
X146979523Y-88042857D01*
X146979523Y-88280952D01*
X146931904Y-88376190D01*
X146884285Y-88423809D01*
X146789047Y-88471428D01*
X146598571Y-88471428D01*
X146503333Y-88423809D01*
X146455714Y-88376190D01*
X146408095Y-88280952D01*
%TO.C,R28*%
X133932857Y-81302380D02*
X134266190Y-80826190D01*
X134504285Y-81302380D02*
X134504285Y-80302380D01*
X134123333Y-80302380D01*
X134028095Y-80350000D01*
X133980476Y-80397619D01*
X133932857Y-80492857D01*
X133932857Y-80635714D01*
X133980476Y-80730952D01*
X134028095Y-80778571D01*
X134123333Y-80826190D01*
X134504285Y-80826190D01*
X133551904Y-80397619D02*
X133504285Y-80350000D01*
X133409047Y-80302380D01*
X133170952Y-80302380D01*
X133075714Y-80350000D01*
X133028095Y-80397619D01*
X132980476Y-80492857D01*
X132980476Y-80588095D01*
X133028095Y-80730952D01*
X133599523Y-81302380D01*
X132980476Y-81302380D01*
X132409047Y-80730952D02*
X132504285Y-80683333D01*
X132551904Y-80635714D01*
X132599523Y-80540476D01*
X132599523Y-80492857D01*
X132551904Y-80397619D01*
X132504285Y-80350000D01*
X132409047Y-80302380D01*
X132218571Y-80302380D01*
X132123333Y-80350000D01*
X132075714Y-80397619D01*
X132028095Y-80492857D01*
X132028095Y-80540476D01*
X132075714Y-80635714D01*
X132123333Y-80683333D01*
X132218571Y-80730952D01*
X132409047Y-80730952D01*
X132504285Y-80778571D01*
X132551904Y-80826190D01*
X132599523Y-80921428D01*
X132599523Y-81111904D01*
X132551904Y-81207142D01*
X132504285Y-81254761D01*
X132409047Y-81302380D01*
X132218571Y-81302380D01*
X132123333Y-81254761D01*
X132075714Y-81207142D01*
X132028095Y-81111904D01*
X132028095Y-80921428D01*
X132075714Y-80826190D01*
X132123333Y-80778571D01*
X132218571Y-80730952D01*
%TO.C,R27*%
X148162857Y-87272380D02*
X148496190Y-86796190D01*
X148734285Y-87272380D02*
X148734285Y-86272380D01*
X148353333Y-86272380D01*
X148258095Y-86320000D01*
X148210476Y-86367619D01*
X148162857Y-86462857D01*
X148162857Y-86605714D01*
X148210476Y-86700952D01*
X148258095Y-86748571D01*
X148353333Y-86796190D01*
X148734285Y-86796190D01*
X147781904Y-86367619D02*
X147734285Y-86320000D01*
X147639047Y-86272380D01*
X147400952Y-86272380D01*
X147305714Y-86320000D01*
X147258095Y-86367619D01*
X147210476Y-86462857D01*
X147210476Y-86558095D01*
X147258095Y-86700952D01*
X147829523Y-87272380D01*
X147210476Y-87272380D01*
X146877142Y-86272380D02*
X146210476Y-86272380D01*
X146639047Y-87272380D01*
%TO.C,R26*%
X153207957Y-93246180D02*
X153541290Y-92769990D01*
X153779385Y-93246180D02*
X153779385Y-92246180D01*
X153398433Y-92246180D01*
X153303195Y-92293800D01*
X153255576Y-92341419D01*
X153207957Y-92436657D01*
X153207957Y-92579514D01*
X153255576Y-92674752D01*
X153303195Y-92722371D01*
X153398433Y-92769990D01*
X153779385Y-92769990D01*
X152827004Y-92341419D02*
X152779385Y-92293800D01*
X152684147Y-92246180D01*
X152446052Y-92246180D01*
X152350814Y-92293800D01*
X152303195Y-92341419D01*
X152255576Y-92436657D01*
X152255576Y-92531895D01*
X152303195Y-92674752D01*
X152874623Y-93246180D01*
X152255576Y-93246180D01*
X151398433Y-92246180D02*
X151588909Y-92246180D01*
X151684147Y-92293800D01*
X151731766Y-92341419D01*
X151827004Y-92484276D01*
X151874623Y-92674752D01*
X151874623Y-93055704D01*
X151827004Y-93150942D01*
X151779385Y-93198561D01*
X151684147Y-93246180D01*
X151493671Y-93246180D01*
X151398433Y-93198561D01*
X151350814Y-93150942D01*
X151303195Y-93055704D01*
X151303195Y-92817609D01*
X151350814Y-92722371D01*
X151398433Y-92674752D01*
X151493671Y-92627133D01*
X151684147Y-92627133D01*
X151779385Y-92674752D01*
X151827004Y-92722371D01*
X151874623Y-92817609D01*
%TO.C,R23*%
X148192857Y-85802380D02*
X148526190Y-85326190D01*
X148764285Y-85802380D02*
X148764285Y-84802380D01*
X148383333Y-84802380D01*
X148288095Y-84850000D01*
X148240476Y-84897619D01*
X148192857Y-84992857D01*
X148192857Y-85135714D01*
X148240476Y-85230952D01*
X148288095Y-85278571D01*
X148383333Y-85326190D01*
X148764285Y-85326190D01*
X147811904Y-84897619D02*
X147764285Y-84850000D01*
X147669047Y-84802380D01*
X147430952Y-84802380D01*
X147335714Y-84850000D01*
X147288095Y-84897619D01*
X147240476Y-84992857D01*
X147240476Y-85088095D01*
X147288095Y-85230952D01*
X147859523Y-85802380D01*
X147240476Y-85802380D01*
X146907142Y-84802380D02*
X146288095Y-84802380D01*
X146621428Y-85183333D01*
X146478571Y-85183333D01*
X146383333Y-85230952D01*
X146335714Y-85278571D01*
X146288095Y-85373809D01*
X146288095Y-85611904D01*
X146335714Y-85707142D01*
X146383333Y-85754761D01*
X146478571Y-85802380D01*
X146764285Y-85802380D01*
X146859523Y-85754761D01*
X146907142Y-85707142D01*
%TO.C,R22*%
X148242857Y-84282380D02*
X148576190Y-83806190D01*
X148814285Y-84282380D02*
X148814285Y-83282380D01*
X148433333Y-83282380D01*
X148338095Y-83330000D01*
X148290476Y-83377619D01*
X148242857Y-83472857D01*
X148242857Y-83615714D01*
X148290476Y-83710952D01*
X148338095Y-83758571D01*
X148433333Y-83806190D01*
X148814285Y-83806190D01*
X147861904Y-83377619D02*
X147814285Y-83330000D01*
X147719047Y-83282380D01*
X147480952Y-83282380D01*
X147385714Y-83330000D01*
X147338095Y-83377619D01*
X147290476Y-83472857D01*
X147290476Y-83568095D01*
X147338095Y-83710952D01*
X147909523Y-84282380D01*
X147290476Y-84282380D01*
X146909523Y-83377619D02*
X146861904Y-83330000D01*
X146766666Y-83282380D01*
X146528571Y-83282380D01*
X146433333Y-83330000D01*
X146385714Y-83377619D01*
X146338095Y-83472857D01*
X146338095Y-83568095D01*
X146385714Y-83710952D01*
X146957142Y-84282380D01*
X146338095Y-84282380D01*
%TO.C,R18*%
X148242857Y-82732380D02*
X148576190Y-82256190D01*
X148814285Y-82732380D02*
X148814285Y-81732380D01*
X148433333Y-81732380D01*
X148338095Y-81780000D01*
X148290476Y-81827619D01*
X148242857Y-81922857D01*
X148242857Y-82065714D01*
X148290476Y-82160952D01*
X148338095Y-82208571D01*
X148433333Y-82256190D01*
X148814285Y-82256190D01*
X147290476Y-82732380D02*
X147861904Y-82732380D01*
X147576190Y-82732380D02*
X147576190Y-81732380D01*
X147671428Y-81875238D01*
X147766666Y-81970476D01*
X147861904Y-82018095D01*
X146719047Y-82160952D02*
X146814285Y-82113333D01*
X146861904Y-82065714D01*
X146909523Y-81970476D01*
X146909523Y-81922857D01*
X146861904Y-81827619D01*
X146814285Y-81780000D01*
X146719047Y-81732380D01*
X146528571Y-81732380D01*
X146433333Y-81780000D01*
X146385714Y-81827619D01*
X146338095Y-81922857D01*
X146338095Y-81970476D01*
X146385714Y-82065714D01*
X146433333Y-82113333D01*
X146528571Y-82160952D01*
X146719047Y-82160952D01*
X146814285Y-82208571D01*
X146861904Y-82256190D01*
X146909523Y-82351428D01*
X146909523Y-82541904D01*
X146861904Y-82637142D01*
X146814285Y-82684761D01*
X146719047Y-82732380D01*
X146528571Y-82732380D01*
X146433333Y-82684761D01*
X146385714Y-82637142D01*
X146338095Y-82541904D01*
X146338095Y-82351428D01*
X146385714Y-82256190D01*
X146433333Y-82208571D01*
X146528571Y-82160952D01*
%TO.C,R7*%
X150892380Y-62973333D02*
X150416190Y-62640000D01*
X150892380Y-62401904D02*
X149892380Y-62401904D01*
X149892380Y-62782857D01*
X149940000Y-62878095D01*
X149987619Y-62925714D01*
X150082857Y-62973333D01*
X150225714Y-62973333D01*
X150320952Y-62925714D01*
X150368571Y-62878095D01*
X150416190Y-62782857D01*
X150416190Y-62401904D01*
X149892380Y-63306666D02*
X149892380Y-63973333D01*
X150892380Y-63544761D01*
%TO.C,R6*%
X152392380Y-62943333D02*
X151916190Y-62610000D01*
X152392380Y-62371904D02*
X151392380Y-62371904D01*
X151392380Y-62752857D01*
X151440000Y-62848095D01*
X151487619Y-62895714D01*
X151582857Y-62943333D01*
X151725714Y-62943333D01*
X151820952Y-62895714D01*
X151868571Y-62848095D01*
X151916190Y-62752857D01*
X151916190Y-62371904D01*
X151392380Y-63800476D02*
X151392380Y-63610000D01*
X151440000Y-63514761D01*
X151487619Y-63467142D01*
X151630476Y-63371904D01*
X151820952Y-63324285D01*
X152201904Y-63324285D01*
X152297142Y-63371904D01*
X152344761Y-63419523D01*
X152392380Y-63514761D01*
X152392380Y-63705238D01*
X152344761Y-63800476D01*
X152297142Y-63848095D01*
X152201904Y-63895714D01*
X151963809Y-63895714D01*
X151868571Y-63848095D01*
X151820952Y-63800476D01*
X151773333Y-63705238D01*
X151773333Y-63514761D01*
X151820952Y-63419523D01*
X151868571Y-63371904D01*
X151963809Y-63324285D01*
%TO.C,R5*%
X153912380Y-62913333D02*
X153436190Y-62580000D01*
X153912380Y-62341904D02*
X152912380Y-62341904D01*
X152912380Y-62722857D01*
X152960000Y-62818095D01*
X153007619Y-62865714D01*
X153102857Y-62913333D01*
X153245714Y-62913333D01*
X153340952Y-62865714D01*
X153388571Y-62818095D01*
X153436190Y-62722857D01*
X153436190Y-62341904D01*
X152912380Y-63818095D02*
X152912380Y-63341904D01*
X153388571Y-63294285D01*
X153340952Y-63341904D01*
X153293333Y-63437142D01*
X153293333Y-63675238D01*
X153340952Y-63770476D01*
X153388571Y-63818095D01*
X153483809Y-63865714D01*
X153721904Y-63865714D01*
X153817142Y-63818095D01*
X153864761Y-63770476D01*
X153912380Y-63675238D01*
X153912380Y-63437142D01*
X153864761Y-63341904D01*
X153817142Y-63294285D01*
%TO.C,R4*%
X155372380Y-62913333D02*
X154896190Y-62580000D01*
X155372380Y-62341904D02*
X154372380Y-62341904D01*
X154372380Y-62722857D01*
X154420000Y-62818095D01*
X154467619Y-62865714D01*
X154562857Y-62913333D01*
X154705714Y-62913333D01*
X154800952Y-62865714D01*
X154848571Y-62818095D01*
X154896190Y-62722857D01*
X154896190Y-62341904D01*
X154705714Y-63770476D02*
X155372380Y-63770476D01*
X154324761Y-63532380D02*
X155039047Y-63294285D01*
X155039047Y-63913333D01*
%TO.C,J3*%
X120043533Y-92422280D02*
X120043533Y-93136566D01*
X120091152Y-93279423D01*
X120186390Y-93374661D01*
X120329247Y-93422280D01*
X120424485Y-93422280D01*
X119662580Y-92422280D02*
X119043533Y-92422280D01*
X119376866Y-92803233D01*
X119234009Y-92803233D01*
X119138771Y-92850852D01*
X119091152Y-92898471D01*
X119043533Y-92993709D01*
X119043533Y-93231804D01*
X119091152Y-93327042D01*
X119138771Y-93374661D01*
X119234009Y-93422280D01*
X119519723Y-93422280D01*
X119614961Y-93374661D01*
X119662580Y-93327042D01*
%TO.C,C30*%
X118982857Y-97977142D02*
X119030476Y-98024761D01*
X119173333Y-98072380D01*
X119268571Y-98072380D01*
X119411428Y-98024761D01*
X119506666Y-97929523D01*
X119554285Y-97834285D01*
X119601904Y-97643809D01*
X119601904Y-97500952D01*
X119554285Y-97310476D01*
X119506666Y-97215238D01*
X119411428Y-97120000D01*
X119268571Y-97072380D01*
X119173333Y-97072380D01*
X119030476Y-97120000D01*
X118982857Y-97167619D01*
X118649523Y-97072380D02*
X118030476Y-97072380D01*
X118363809Y-97453333D01*
X118220952Y-97453333D01*
X118125714Y-97500952D01*
X118078095Y-97548571D01*
X118030476Y-97643809D01*
X118030476Y-97881904D01*
X118078095Y-97977142D01*
X118125714Y-98024761D01*
X118220952Y-98072380D01*
X118506666Y-98072380D01*
X118601904Y-98024761D01*
X118649523Y-97977142D01*
X117411428Y-97072380D02*
X117316190Y-97072380D01*
X117220952Y-97120000D01*
X117173333Y-97167619D01*
X117125714Y-97262857D01*
X117078095Y-97453333D01*
X117078095Y-97691428D01*
X117125714Y-97881904D01*
X117173333Y-97977142D01*
X117220952Y-98024761D01*
X117316190Y-98072380D01*
X117411428Y-98072380D01*
X117506666Y-98024761D01*
X117554285Y-97977142D01*
X117601904Y-97881904D01*
X117649523Y-97691428D01*
X117649523Y-97453333D01*
X117601904Y-97262857D01*
X117554285Y-97167619D01*
X117506666Y-97120000D01*
X117411428Y-97072380D01*
%TO.C,C28*%
X124032857Y-97222857D02*
X123985238Y-97270476D01*
X123937619Y-97413333D01*
X123937619Y-97508571D01*
X123985238Y-97651428D01*
X124080476Y-97746666D01*
X124175714Y-97794285D01*
X124366190Y-97841904D01*
X124509047Y-97841904D01*
X124699523Y-97794285D01*
X124794761Y-97746666D01*
X124890000Y-97651428D01*
X124937619Y-97508571D01*
X124937619Y-97413333D01*
X124890000Y-97270476D01*
X124842380Y-97222857D01*
X124842380Y-96841904D02*
X124890000Y-96794285D01*
X124937619Y-96699047D01*
X124937619Y-96460952D01*
X124890000Y-96365714D01*
X124842380Y-96318095D01*
X124747142Y-96270476D01*
X124651904Y-96270476D01*
X124509047Y-96318095D01*
X123937619Y-96889523D01*
X123937619Y-96270476D01*
X124509047Y-95699047D02*
X124556666Y-95794285D01*
X124604285Y-95841904D01*
X124699523Y-95889523D01*
X124747142Y-95889523D01*
X124842380Y-95841904D01*
X124890000Y-95794285D01*
X124937619Y-95699047D01*
X124937619Y-95508571D01*
X124890000Y-95413333D01*
X124842380Y-95365714D01*
X124747142Y-95318095D01*
X124699523Y-95318095D01*
X124604285Y-95365714D01*
X124556666Y-95413333D01*
X124509047Y-95508571D01*
X124509047Y-95699047D01*
X124461428Y-95794285D01*
X124413809Y-95841904D01*
X124318571Y-95889523D01*
X124128095Y-95889523D01*
X124032857Y-95841904D01*
X123985238Y-95794285D01*
X123937619Y-95699047D01*
X123937619Y-95508571D01*
X123985238Y-95413333D01*
X124032857Y-95365714D01*
X124128095Y-95318095D01*
X124318571Y-95318095D01*
X124413809Y-95365714D01*
X124461428Y-95413333D01*
X124509047Y-95508571D01*
%TO.C,C18*%
X130972857Y-94207142D02*
X131020476Y-94254761D01*
X131163333Y-94302380D01*
X131258571Y-94302380D01*
X131401428Y-94254761D01*
X131496666Y-94159523D01*
X131544285Y-94064285D01*
X131591904Y-93873809D01*
X131591904Y-93730952D01*
X131544285Y-93540476D01*
X131496666Y-93445238D01*
X131401428Y-93350000D01*
X131258571Y-93302380D01*
X131163333Y-93302380D01*
X131020476Y-93350000D01*
X130972857Y-93397619D01*
X130020476Y-94302380D02*
X130591904Y-94302380D01*
X130306190Y-94302380D02*
X130306190Y-93302380D01*
X130401428Y-93445238D01*
X130496666Y-93540476D01*
X130591904Y-93588095D01*
X129449047Y-93730952D02*
X129544285Y-93683333D01*
X129591904Y-93635714D01*
X129639523Y-93540476D01*
X129639523Y-93492857D01*
X129591904Y-93397619D01*
X129544285Y-93350000D01*
X129449047Y-93302380D01*
X129258571Y-93302380D01*
X129163333Y-93350000D01*
X129115714Y-93397619D01*
X129068095Y-93492857D01*
X129068095Y-93540476D01*
X129115714Y-93635714D01*
X129163333Y-93683333D01*
X129258571Y-93730952D01*
X129449047Y-93730952D01*
X129544285Y-93778571D01*
X129591904Y-93826190D01*
X129639523Y-93921428D01*
X129639523Y-94111904D01*
X129591904Y-94207142D01*
X129544285Y-94254761D01*
X129449047Y-94302380D01*
X129258571Y-94302380D01*
X129163333Y-94254761D01*
X129115714Y-94207142D01*
X129068095Y-94111904D01*
X129068095Y-93921428D01*
X129115714Y-93826190D01*
X129163333Y-93778571D01*
X129258571Y-93730952D01*
%TO.C,C12*%
X160137142Y-87187142D02*
X160184761Y-87139523D01*
X160232380Y-86996666D01*
X160232380Y-86901428D01*
X160184761Y-86758571D01*
X160089523Y-86663333D01*
X159994285Y-86615714D01*
X159803809Y-86568095D01*
X159660952Y-86568095D01*
X159470476Y-86615714D01*
X159375238Y-86663333D01*
X159280000Y-86758571D01*
X159232380Y-86901428D01*
X159232380Y-86996666D01*
X159280000Y-87139523D01*
X159327619Y-87187142D01*
X160232380Y-88139523D02*
X160232380Y-87568095D01*
X160232380Y-87853809D02*
X159232380Y-87853809D01*
X159375238Y-87758571D01*
X159470476Y-87663333D01*
X159518095Y-87568095D01*
X159327619Y-88520476D02*
X159280000Y-88568095D01*
X159232380Y-88663333D01*
X159232380Y-88901428D01*
X159280000Y-88996666D01*
X159327619Y-89044285D01*
X159422857Y-89091904D01*
X159518095Y-89091904D01*
X159660952Y-89044285D01*
X160232380Y-88472857D01*
X160232380Y-89091904D01*
%TO.C,C9*%
X157448542Y-94232433D02*
X157496161Y-94184814D01*
X157543780Y-94041957D01*
X157543780Y-93946719D01*
X157496161Y-93803861D01*
X157400923Y-93708623D01*
X157305685Y-93661004D01*
X157115209Y-93613385D01*
X156972352Y-93613385D01*
X156781876Y-93661004D01*
X156686638Y-93708623D01*
X156591400Y-93803861D01*
X156543780Y-93946719D01*
X156543780Y-94041957D01*
X156591400Y-94184814D01*
X156639019Y-94232433D01*
X157543780Y-94708623D02*
X157543780Y-94899100D01*
X157496161Y-94994338D01*
X157448542Y-95041957D01*
X157305685Y-95137195D01*
X157115209Y-95184814D01*
X156734257Y-95184814D01*
X156639019Y-95137195D01*
X156591400Y-95089576D01*
X156543780Y-94994338D01*
X156543780Y-94803861D01*
X156591400Y-94708623D01*
X156639019Y-94661004D01*
X156734257Y-94613385D01*
X156972352Y-94613385D01*
X157067590Y-94661004D01*
X157115209Y-94708623D01*
X157162828Y-94803861D01*
X157162828Y-94994338D01*
X157115209Y-95089576D01*
X157067590Y-95137195D01*
X156972352Y-95184814D01*
%TO.C,C8*%
X162406666Y-87107142D02*
X162454285Y-87154761D01*
X162597142Y-87202380D01*
X162692380Y-87202380D01*
X162835238Y-87154761D01*
X162930476Y-87059523D01*
X162978095Y-86964285D01*
X163025714Y-86773809D01*
X163025714Y-86630952D01*
X162978095Y-86440476D01*
X162930476Y-86345238D01*
X162835238Y-86250000D01*
X162692380Y-86202380D01*
X162597142Y-86202380D01*
X162454285Y-86250000D01*
X162406666Y-86297619D01*
X161835238Y-86630952D02*
X161930476Y-86583333D01*
X161978095Y-86535714D01*
X162025714Y-86440476D01*
X162025714Y-86392857D01*
X161978095Y-86297619D01*
X161930476Y-86250000D01*
X161835238Y-86202380D01*
X161644761Y-86202380D01*
X161549523Y-86250000D01*
X161501904Y-86297619D01*
X161454285Y-86392857D01*
X161454285Y-86440476D01*
X161501904Y-86535714D01*
X161549523Y-86583333D01*
X161644761Y-86630952D01*
X161835238Y-86630952D01*
X161930476Y-86678571D01*
X161978095Y-86726190D01*
X162025714Y-86821428D01*
X162025714Y-87011904D01*
X161978095Y-87107142D01*
X161930476Y-87154761D01*
X161835238Y-87202380D01*
X161644761Y-87202380D01*
X161549523Y-87154761D01*
X161501904Y-87107142D01*
X161454285Y-87011904D01*
X161454285Y-86821428D01*
X161501904Y-86726190D01*
X161549523Y-86678571D01*
X161644761Y-86630952D01*
%TO.C,C7*%
X162376666Y-82867142D02*
X162424285Y-82914761D01*
X162567142Y-82962380D01*
X162662380Y-82962380D01*
X162805238Y-82914761D01*
X162900476Y-82819523D01*
X162948095Y-82724285D01*
X162995714Y-82533809D01*
X162995714Y-82390952D01*
X162948095Y-82200476D01*
X162900476Y-82105238D01*
X162805238Y-82010000D01*
X162662380Y-81962380D01*
X162567142Y-81962380D01*
X162424285Y-82010000D01*
X162376666Y-82057619D01*
X162043333Y-81962380D02*
X161376666Y-81962380D01*
X161805238Y-82962380D01*
%TO.C,C5*%
X138893842Y-74255333D02*
X138941461Y-74207714D01*
X138989080Y-74064857D01*
X138989080Y-73969619D01*
X138941461Y-73826761D01*
X138846223Y-73731523D01*
X138750985Y-73683904D01*
X138560509Y-73636285D01*
X138417652Y-73636285D01*
X138227176Y-73683904D01*
X138131938Y-73731523D01*
X138036700Y-73826761D01*
X137989080Y-73969619D01*
X137989080Y-74064857D01*
X138036700Y-74207714D01*
X138084319Y-74255333D01*
X137989080Y-75160095D02*
X137989080Y-74683904D01*
X138465271Y-74636285D01*
X138417652Y-74683904D01*
X138370033Y-74779142D01*
X138370033Y-75017238D01*
X138417652Y-75112476D01*
X138465271Y-75160095D01*
X138560509Y-75207714D01*
X138798604Y-75207714D01*
X138893842Y-75160095D01*
X138941461Y-75112476D01*
X138989080Y-75017238D01*
X138989080Y-74779142D01*
X138941461Y-74683904D01*
X138893842Y-74636285D01*
%TO.C,C4*%
X151123942Y-73074233D02*
X151171561Y-73026614D01*
X151219180Y-72883757D01*
X151219180Y-72788519D01*
X151171561Y-72645661D01*
X151076323Y-72550423D01*
X150981085Y-72502804D01*
X150790609Y-72455185D01*
X150647752Y-72455185D01*
X150457276Y-72502804D01*
X150362038Y-72550423D01*
X150266800Y-72645661D01*
X150219180Y-72788519D01*
X150219180Y-72883757D01*
X150266800Y-73026614D01*
X150314419Y-73074233D01*
X150552514Y-73931376D02*
X151219180Y-73931376D01*
X150171561Y-73693280D02*
X150885847Y-73455185D01*
X150885847Y-74074233D01*
%TO.C,C3*%
X148279142Y-73074233D02*
X148326761Y-73026614D01*
X148374380Y-72883757D01*
X148374380Y-72788519D01*
X148326761Y-72645661D01*
X148231523Y-72550423D01*
X148136285Y-72502804D01*
X147945809Y-72455185D01*
X147802952Y-72455185D01*
X147612476Y-72502804D01*
X147517238Y-72550423D01*
X147422000Y-72645661D01*
X147374380Y-72788519D01*
X147374380Y-72883757D01*
X147422000Y-73026614D01*
X147469619Y-73074233D01*
X147374380Y-73407566D02*
X147374380Y-74026614D01*
X147755333Y-73693280D01*
X147755333Y-73836138D01*
X147802952Y-73931376D01*
X147850571Y-73978995D01*
X147945809Y-74026614D01*
X148183904Y-74026614D01*
X148279142Y-73978995D01*
X148326761Y-73931376D01*
X148374380Y-73836138D01*
X148374380Y-73550423D01*
X148326761Y-73455185D01*
X148279142Y-73407566D01*
%TO.C,C2*%
X148202942Y-77558433D02*
X148250561Y-77510814D01*
X148298180Y-77367957D01*
X148298180Y-77272719D01*
X148250561Y-77129861D01*
X148155323Y-77034623D01*
X148060085Y-76987004D01*
X147869609Y-76939385D01*
X147726752Y-76939385D01*
X147536276Y-76987004D01*
X147441038Y-77034623D01*
X147345800Y-77129861D01*
X147298180Y-77272719D01*
X147298180Y-77367957D01*
X147345800Y-77510814D01*
X147393419Y-77558433D01*
X147393419Y-77939385D02*
X147345800Y-77987004D01*
X147298180Y-78082242D01*
X147298180Y-78320338D01*
X147345800Y-78415576D01*
X147393419Y-78463195D01*
X147488657Y-78510814D01*
X147583895Y-78510814D01*
X147726752Y-78463195D01*
X148298180Y-77891766D01*
X148298180Y-78510814D01*
%TO.C,C1*%
X150908042Y-77558433D02*
X150955661Y-77510814D01*
X151003280Y-77367957D01*
X151003280Y-77272719D01*
X150955661Y-77129861D01*
X150860423Y-77034623D01*
X150765185Y-76987004D01*
X150574709Y-76939385D01*
X150431852Y-76939385D01*
X150241376Y-76987004D01*
X150146138Y-77034623D01*
X150050900Y-77129861D01*
X150003280Y-77272719D01*
X150003280Y-77367957D01*
X150050900Y-77510814D01*
X150098519Y-77558433D01*
X151003280Y-78510814D02*
X151003280Y-77939385D01*
X151003280Y-78225100D02*
X150003280Y-78225100D01*
X150146138Y-78129861D01*
X150241376Y-78034623D01*
X150288995Y-77939385D01*
%TO.C,J2*%
X124920333Y-74172380D02*
X124920333Y-74886666D01*
X124967952Y-75029523D01*
X125063190Y-75124761D01*
X125206047Y-75172380D01*
X125301285Y-75172380D01*
X124491761Y-74267619D02*
X124444142Y-74220000D01*
X124348904Y-74172380D01*
X124110809Y-74172380D01*
X124015571Y-74220000D01*
X123967952Y-74267619D01*
X123920333Y-74362857D01*
X123920333Y-74458095D01*
X123967952Y-74600952D01*
X124539380Y-75172380D01*
X123920333Y-75172380D01*
%TD*%
M02*
