%TF.GenerationSoftware,KiCad,Pcbnew,(5.1.8-0-10_14)*%
%TF.CreationDate,2021-03-06T23:06:48+08:00*%
%TF.ProjectId,upper_board,75707065-725f-4626-9f61-72642e6b6963,v0.1.3*%
%TF.SameCoordinates,Original*%
%TF.FileFunction,Soldermask,Bot*%
%TF.FilePolarity,Negative*%
%FSLAX46Y46*%
G04 Gerber Fmt 4.6, Leading zero omitted, Abs format (unit mm)*
G04 Created by KiCad (PCBNEW (5.1.8-0-10_14)) date 2021-03-06 23:06:48*
%MOMM*%
%LPD*%
G01*
G04 APERTURE LIST*
%ADD10R,1.500000X1.000000*%
%ADD11R,2.000000X1.500000*%
%ADD12R,2.000000X3.800000*%
%ADD13R,3.150000X1.000000*%
%ADD14C,0.600000*%
%ADD15O,1.700000X0.900000*%
%ADD16O,2.000000X0.900000*%
%ADD17R,2.400000X0.740000*%
%ADD18O,1.700000X1.700000*%
%ADD19R,1.700000X1.700000*%
%ADD20C,5.600000*%
G04 APERTURE END LIST*
D10*
%TO.C,J4*%
X130272000Y-108277300D03*
X130272000Y-106777300D03*
X130272000Y-105277300D03*
X130272000Y-103777300D03*
X130272000Y-102277300D03*
X130272000Y-100777300D03*
X130272000Y-99277300D03*
X130272000Y-97777300D03*
X144272000Y-108277300D03*
X144272000Y-106777300D03*
X144272000Y-105277300D03*
X144272000Y-103777300D03*
X144272000Y-102277300D03*
X144272000Y-100777300D03*
X144272000Y-99277300D03*
X144272000Y-97777300D03*
%TD*%
D11*
%TO.C,U3*%
X157339900Y-77903100D03*
X157339900Y-73303100D03*
X157339900Y-75603100D03*
D12*
X163639900Y-75603100D03*
%TD*%
%TO.C,R69*%
G36*
G01*
X143099800Y-65551500D02*
X142624800Y-65551500D01*
G75*
G02*
X142387300Y-65314000I0J237500D01*
G01*
X142387300Y-64814000D01*
G75*
G02*
X142624800Y-64576500I237500J0D01*
G01*
X143099800Y-64576500D01*
G75*
G02*
X143337300Y-64814000I0J-237500D01*
G01*
X143337300Y-65314000D01*
G75*
G02*
X143099800Y-65551500I-237500J0D01*
G01*
G37*
G36*
G01*
X143099800Y-67376500D02*
X142624800Y-67376500D01*
G75*
G02*
X142387300Y-67139000I0J237500D01*
G01*
X142387300Y-66639000D01*
G75*
G02*
X142624800Y-66401500I237500J0D01*
G01*
X143099800Y-66401500D01*
G75*
G02*
X143337300Y-66639000I0J-237500D01*
G01*
X143337300Y-67139000D01*
G75*
G02*
X143099800Y-67376500I-237500J0D01*
G01*
G37*
%TD*%
%TO.C,R68*%
G36*
G01*
X127679000Y-91017100D02*
X127679000Y-90542100D01*
G75*
G02*
X127916500Y-90304600I237500J0D01*
G01*
X128416500Y-90304600D01*
G75*
G02*
X128654000Y-90542100I0J-237500D01*
G01*
X128654000Y-91017100D01*
G75*
G02*
X128416500Y-91254600I-237500J0D01*
G01*
X127916500Y-91254600D01*
G75*
G02*
X127679000Y-91017100I0J237500D01*
G01*
G37*
G36*
G01*
X125854000Y-91017100D02*
X125854000Y-90542100D01*
G75*
G02*
X126091500Y-90304600I237500J0D01*
G01*
X126591500Y-90304600D01*
G75*
G02*
X126829000Y-90542100I0J-237500D01*
G01*
X126829000Y-91017100D01*
G75*
G02*
X126591500Y-91254600I-237500J0D01*
G01*
X126091500Y-91254600D01*
G75*
G02*
X125854000Y-91017100I0J237500D01*
G01*
G37*
%TD*%
%TO.C,R67*%
G36*
G01*
X127679000Y-92566500D02*
X127679000Y-92091500D01*
G75*
G02*
X127916500Y-91854000I237500J0D01*
G01*
X128416500Y-91854000D01*
G75*
G02*
X128654000Y-92091500I0J-237500D01*
G01*
X128654000Y-92566500D01*
G75*
G02*
X128416500Y-92804000I-237500J0D01*
G01*
X127916500Y-92804000D01*
G75*
G02*
X127679000Y-92566500I0J237500D01*
G01*
G37*
G36*
G01*
X125854000Y-92566500D02*
X125854000Y-92091500D01*
G75*
G02*
X126091500Y-91854000I237500J0D01*
G01*
X126591500Y-91854000D01*
G75*
G02*
X126829000Y-92091500I0J-237500D01*
G01*
X126829000Y-92566500D01*
G75*
G02*
X126591500Y-92804000I-237500J0D01*
G01*
X126091500Y-92804000D01*
G75*
G02*
X125854000Y-92566500I0J237500D01*
G01*
G37*
%TD*%
%TO.C,R65*%
G36*
G01*
X138438900Y-68878900D02*
X137963900Y-68878900D01*
G75*
G02*
X137726400Y-68641400I0J237500D01*
G01*
X137726400Y-68141400D01*
G75*
G02*
X137963900Y-67903900I237500J0D01*
G01*
X138438900Y-67903900D01*
G75*
G02*
X138676400Y-68141400I0J-237500D01*
G01*
X138676400Y-68641400D01*
G75*
G02*
X138438900Y-68878900I-237500J0D01*
G01*
G37*
G36*
G01*
X138438900Y-70703900D02*
X137963900Y-70703900D01*
G75*
G02*
X137726400Y-70466400I0J237500D01*
G01*
X137726400Y-69966400D01*
G75*
G02*
X137963900Y-69728900I237500J0D01*
G01*
X138438900Y-69728900D01*
G75*
G02*
X138676400Y-69966400I0J-237500D01*
G01*
X138676400Y-70466400D01*
G75*
G02*
X138438900Y-70703900I-237500J0D01*
G01*
G37*
%TD*%
%TO.C,R57*%
G36*
G01*
X147406700Y-100228200D02*
X147406700Y-99753200D01*
G75*
G02*
X147644200Y-99515700I237500J0D01*
G01*
X148144200Y-99515700D01*
G75*
G02*
X148381700Y-99753200I0J-237500D01*
G01*
X148381700Y-100228200D01*
G75*
G02*
X148144200Y-100465700I-237500J0D01*
G01*
X147644200Y-100465700D01*
G75*
G02*
X147406700Y-100228200I0J237500D01*
G01*
G37*
G36*
G01*
X145581700Y-100228200D02*
X145581700Y-99753200D01*
G75*
G02*
X145819200Y-99515700I237500J0D01*
G01*
X146319200Y-99515700D01*
G75*
G02*
X146556700Y-99753200I0J-237500D01*
G01*
X146556700Y-100228200D01*
G75*
G02*
X146319200Y-100465700I-237500J0D01*
G01*
X145819200Y-100465700D01*
G75*
G02*
X145581700Y-100228200I0J237500D01*
G01*
G37*
%TD*%
%TO.C,R56*%
G36*
G01*
X147394000Y-101752200D02*
X147394000Y-101277200D01*
G75*
G02*
X147631500Y-101039700I237500J0D01*
G01*
X148131500Y-101039700D01*
G75*
G02*
X148369000Y-101277200I0J-237500D01*
G01*
X148369000Y-101752200D01*
G75*
G02*
X148131500Y-101989700I-237500J0D01*
G01*
X147631500Y-101989700D01*
G75*
G02*
X147394000Y-101752200I0J237500D01*
G01*
G37*
G36*
G01*
X145569000Y-101752200D02*
X145569000Y-101277200D01*
G75*
G02*
X145806500Y-101039700I237500J0D01*
G01*
X146306500Y-101039700D01*
G75*
G02*
X146544000Y-101277200I0J-237500D01*
G01*
X146544000Y-101752200D01*
G75*
G02*
X146306500Y-101989700I-237500J0D01*
G01*
X145806500Y-101989700D01*
G75*
G02*
X145569000Y-101752200I0J237500D01*
G01*
G37*
%TD*%
%TO.C,R53*%
G36*
G01*
X138141700Y-87661300D02*
X138616700Y-87661300D01*
G75*
G02*
X138854200Y-87898800I0J-237500D01*
G01*
X138854200Y-88398800D01*
G75*
G02*
X138616700Y-88636300I-237500J0D01*
G01*
X138141700Y-88636300D01*
G75*
G02*
X137904200Y-88398800I0J237500D01*
G01*
X137904200Y-87898800D01*
G75*
G02*
X138141700Y-87661300I237500J0D01*
G01*
G37*
G36*
G01*
X138141700Y-85836300D02*
X138616700Y-85836300D01*
G75*
G02*
X138854200Y-86073800I0J-237500D01*
G01*
X138854200Y-86573800D01*
G75*
G02*
X138616700Y-86811300I-237500J0D01*
G01*
X138141700Y-86811300D01*
G75*
G02*
X137904200Y-86573800I0J237500D01*
G01*
X137904200Y-86073800D01*
G75*
G02*
X138141700Y-85836300I237500J0D01*
G01*
G37*
%TD*%
%TO.C,R52*%
G36*
G01*
X139653000Y-87661300D02*
X140128000Y-87661300D01*
G75*
G02*
X140365500Y-87898800I0J-237500D01*
G01*
X140365500Y-88398800D01*
G75*
G02*
X140128000Y-88636300I-237500J0D01*
G01*
X139653000Y-88636300D01*
G75*
G02*
X139415500Y-88398800I0J237500D01*
G01*
X139415500Y-87898800D01*
G75*
G02*
X139653000Y-87661300I237500J0D01*
G01*
G37*
G36*
G01*
X139653000Y-85836300D02*
X140128000Y-85836300D01*
G75*
G02*
X140365500Y-86073800I0J-237500D01*
G01*
X140365500Y-86573800D01*
G75*
G02*
X140128000Y-86811300I-237500J0D01*
G01*
X139653000Y-86811300D01*
G75*
G02*
X139415500Y-86573800I0J237500D01*
G01*
X139415500Y-86073800D01*
G75*
G02*
X139653000Y-85836300I237500J0D01*
G01*
G37*
%TD*%
%TO.C,R47*%
G36*
G01*
X141189700Y-87623200D02*
X141664700Y-87623200D01*
G75*
G02*
X141902200Y-87860700I0J-237500D01*
G01*
X141902200Y-88360700D01*
G75*
G02*
X141664700Y-88598200I-237500J0D01*
G01*
X141189700Y-88598200D01*
G75*
G02*
X140952200Y-88360700I0J237500D01*
G01*
X140952200Y-87860700D01*
G75*
G02*
X141189700Y-87623200I237500J0D01*
G01*
G37*
G36*
G01*
X141189700Y-85798200D02*
X141664700Y-85798200D01*
G75*
G02*
X141902200Y-86035700I0J-237500D01*
G01*
X141902200Y-86535700D01*
G75*
G02*
X141664700Y-86773200I-237500J0D01*
G01*
X141189700Y-86773200D01*
G75*
G02*
X140952200Y-86535700I0J237500D01*
G01*
X140952200Y-86035700D01*
G75*
G02*
X141189700Y-85798200I237500J0D01*
G01*
G37*
%TD*%
%TO.C,R46*%
G36*
G01*
X154083200Y-85347800D02*
X154083200Y-85822800D01*
G75*
G02*
X153845700Y-86060300I-237500J0D01*
G01*
X153345700Y-86060300D01*
G75*
G02*
X153108200Y-85822800I0J237500D01*
G01*
X153108200Y-85347800D01*
G75*
G02*
X153345700Y-85110300I237500J0D01*
G01*
X153845700Y-85110300D01*
G75*
G02*
X154083200Y-85347800I0J-237500D01*
G01*
G37*
G36*
G01*
X155908200Y-85347800D02*
X155908200Y-85822800D01*
G75*
G02*
X155670700Y-86060300I-237500J0D01*
G01*
X155170700Y-86060300D01*
G75*
G02*
X154933200Y-85822800I0J237500D01*
G01*
X154933200Y-85347800D01*
G75*
G02*
X155170700Y-85110300I237500J0D01*
G01*
X155670700Y-85110300D01*
G75*
G02*
X155908200Y-85347800I0J-237500D01*
G01*
G37*
%TD*%
%TO.C,R45*%
G36*
G01*
X154083200Y-83849200D02*
X154083200Y-84324200D01*
G75*
G02*
X153845700Y-84561700I-237500J0D01*
G01*
X153345700Y-84561700D01*
G75*
G02*
X153108200Y-84324200I0J237500D01*
G01*
X153108200Y-83849200D01*
G75*
G02*
X153345700Y-83611700I237500J0D01*
G01*
X153845700Y-83611700D01*
G75*
G02*
X154083200Y-83849200I0J-237500D01*
G01*
G37*
G36*
G01*
X155908200Y-83849200D02*
X155908200Y-84324200D01*
G75*
G02*
X155670700Y-84561700I-237500J0D01*
G01*
X155170700Y-84561700D01*
G75*
G02*
X154933200Y-84324200I0J237500D01*
G01*
X154933200Y-83849200D01*
G75*
G02*
X155170700Y-83611700I237500J0D01*
G01*
X155670700Y-83611700D01*
G75*
G02*
X155908200Y-83849200I0J-237500D01*
G01*
G37*
%TD*%
%TO.C,R44*%
G36*
G01*
X133264900Y-66274500D02*
X133739900Y-66274500D01*
G75*
G02*
X133977400Y-66512000I0J-237500D01*
G01*
X133977400Y-67012000D01*
G75*
G02*
X133739900Y-67249500I-237500J0D01*
G01*
X133264900Y-67249500D01*
G75*
G02*
X133027400Y-67012000I0J237500D01*
G01*
X133027400Y-66512000D01*
G75*
G02*
X133264900Y-66274500I237500J0D01*
G01*
G37*
G36*
G01*
X133264900Y-64449500D02*
X133739900Y-64449500D01*
G75*
G02*
X133977400Y-64687000I0J-237500D01*
G01*
X133977400Y-65187000D01*
G75*
G02*
X133739900Y-65424500I-237500J0D01*
G01*
X133264900Y-65424500D01*
G75*
G02*
X133027400Y-65187000I0J237500D01*
G01*
X133027400Y-64687000D01*
G75*
G02*
X133264900Y-64449500I237500J0D01*
G01*
G37*
%TD*%
%TO.C,R43*%
G36*
G01*
X131766300Y-66274500D02*
X132241300Y-66274500D01*
G75*
G02*
X132478800Y-66512000I0J-237500D01*
G01*
X132478800Y-67012000D01*
G75*
G02*
X132241300Y-67249500I-237500J0D01*
G01*
X131766300Y-67249500D01*
G75*
G02*
X131528800Y-67012000I0J237500D01*
G01*
X131528800Y-66512000D01*
G75*
G02*
X131766300Y-66274500I237500J0D01*
G01*
G37*
G36*
G01*
X131766300Y-64449500D02*
X132241300Y-64449500D01*
G75*
G02*
X132478800Y-64687000I0J-237500D01*
G01*
X132478800Y-65187000D01*
G75*
G02*
X132241300Y-65424500I-237500J0D01*
G01*
X131766300Y-65424500D01*
G75*
G02*
X131528800Y-65187000I0J237500D01*
G01*
X131528800Y-64687000D01*
G75*
G02*
X131766300Y-64449500I237500J0D01*
G01*
G37*
%TD*%
%TO.C,R35*%
G36*
G01*
X130701600Y-87105500D02*
X130701600Y-86630500D01*
G75*
G02*
X130939100Y-86393000I237500J0D01*
G01*
X131439100Y-86393000D01*
G75*
G02*
X131676600Y-86630500I0J-237500D01*
G01*
X131676600Y-87105500D01*
G75*
G02*
X131439100Y-87343000I-237500J0D01*
G01*
X130939100Y-87343000D01*
G75*
G02*
X130701600Y-87105500I0J237500D01*
G01*
G37*
G36*
G01*
X128876600Y-87105500D02*
X128876600Y-86630500D01*
G75*
G02*
X129114100Y-86393000I237500J0D01*
G01*
X129614100Y-86393000D01*
G75*
G02*
X129851600Y-86630500I0J-237500D01*
G01*
X129851600Y-87105500D01*
G75*
G02*
X129614100Y-87343000I-237500J0D01*
G01*
X129114100Y-87343000D01*
G75*
G02*
X128876600Y-87105500I0J237500D01*
G01*
G37*
%TD*%
%TO.C,R34*%
G36*
G01*
X130650800Y-85610075D02*
X130650800Y-85135075D01*
G75*
G02*
X130888300Y-84897575I237500J0D01*
G01*
X131388300Y-84897575D01*
G75*
G02*
X131625800Y-85135075I0J-237500D01*
G01*
X131625800Y-85610075D01*
G75*
G02*
X131388300Y-85847575I-237500J0D01*
G01*
X130888300Y-85847575D01*
G75*
G02*
X130650800Y-85610075I0J237500D01*
G01*
G37*
G36*
G01*
X128825800Y-85610075D02*
X128825800Y-85135075D01*
G75*
G02*
X129063300Y-84897575I237500J0D01*
G01*
X129563300Y-84897575D01*
G75*
G02*
X129800800Y-85135075I0J-237500D01*
G01*
X129800800Y-85610075D01*
G75*
G02*
X129563300Y-85847575I-237500J0D01*
G01*
X129063300Y-85847575D01*
G75*
G02*
X128825800Y-85610075I0J237500D01*
G01*
G37*
%TD*%
%TO.C,R33*%
G36*
G01*
X130650800Y-84063850D02*
X130650800Y-83588850D01*
G75*
G02*
X130888300Y-83351350I237500J0D01*
G01*
X131388300Y-83351350D01*
G75*
G02*
X131625800Y-83588850I0J-237500D01*
G01*
X131625800Y-84063850D01*
G75*
G02*
X131388300Y-84301350I-237500J0D01*
G01*
X130888300Y-84301350D01*
G75*
G02*
X130650800Y-84063850I0J237500D01*
G01*
G37*
G36*
G01*
X128825800Y-84063850D02*
X128825800Y-83588850D01*
G75*
G02*
X129063300Y-83351350I237500J0D01*
G01*
X129563300Y-83351350D01*
G75*
G02*
X129800800Y-83588850I0J-237500D01*
G01*
X129800800Y-84063850D01*
G75*
G02*
X129563300Y-84301350I-237500J0D01*
G01*
X129063300Y-84301350D01*
G75*
G02*
X128825800Y-84063850I0J237500D01*
G01*
G37*
%TD*%
%TO.C,R32*%
G36*
G01*
X128456700Y-103829300D02*
X127981700Y-103829300D01*
G75*
G02*
X127744200Y-103591800I0J237500D01*
G01*
X127744200Y-103091800D01*
G75*
G02*
X127981700Y-102854300I237500J0D01*
G01*
X128456700Y-102854300D01*
G75*
G02*
X128694200Y-103091800I0J-237500D01*
G01*
X128694200Y-103591800D01*
G75*
G02*
X128456700Y-103829300I-237500J0D01*
G01*
G37*
G36*
G01*
X128456700Y-105654300D02*
X127981700Y-105654300D01*
G75*
G02*
X127744200Y-105416800I0J237500D01*
G01*
X127744200Y-104916800D01*
G75*
G02*
X127981700Y-104679300I237500J0D01*
G01*
X128456700Y-104679300D01*
G75*
G02*
X128694200Y-104916800I0J-237500D01*
G01*
X128694200Y-105416800D01*
G75*
G02*
X128456700Y-105654300I-237500J0D01*
G01*
G37*
%TD*%
%TO.C,R31*%
G36*
G01*
X152977400Y-96135200D02*
X152977400Y-95660200D01*
G75*
G02*
X153214900Y-95422700I237500J0D01*
G01*
X153714900Y-95422700D01*
G75*
G02*
X153952400Y-95660200I0J-237500D01*
G01*
X153952400Y-96135200D01*
G75*
G02*
X153714900Y-96372700I-237500J0D01*
G01*
X153214900Y-96372700D01*
G75*
G02*
X152977400Y-96135200I0J237500D01*
G01*
G37*
G36*
G01*
X151152400Y-96135200D02*
X151152400Y-95660200D01*
G75*
G02*
X151389900Y-95422700I237500J0D01*
G01*
X151889900Y-95422700D01*
G75*
G02*
X152127400Y-95660200I0J-237500D01*
G01*
X152127400Y-96135200D01*
G75*
G02*
X151889900Y-96372700I-237500J0D01*
G01*
X151389900Y-96372700D01*
G75*
G02*
X151152400Y-96135200I0J237500D01*
G01*
G37*
%TD*%
%TO.C,R30*%
G36*
G01*
X130650800Y-82517625D02*
X130650800Y-82042625D01*
G75*
G02*
X130888300Y-81805125I237500J0D01*
G01*
X131388300Y-81805125D01*
G75*
G02*
X131625800Y-82042625I0J-237500D01*
G01*
X131625800Y-82517625D01*
G75*
G02*
X131388300Y-82755125I-237500J0D01*
G01*
X130888300Y-82755125D01*
G75*
G02*
X130650800Y-82517625I0J237500D01*
G01*
G37*
G36*
G01*
X128825800Y-82517625D02*
X128825800Y-82042625D01*
G75*
G02*
X129063300Y-81805125I237500J0D01*
G01*
X129563300Y-81805125D01*
G75*
G02*
X129800800Y-82042625I0J-237500D01*
G01*
X129800800Y-82517625D01*
G75*
G02*
X129563300Y-82755125I-237500J0D01*
G01*
X129063300Y-82755125D01*
G75*
G02*
X128825800Y-82517625I0J237500D01*
G01*
G37*
%TD*%
%TO.C,R29*%
G36*
G01*
X144963700Y-88566000D02*
X144963700Y-88091000D01*
G75*
G02*
X145201200Y-87853500I237500J0D01*
G01*
X145701200Y-87853500D01*
G75*
G02*
X145938700Y-88091000I0J-237500D01*
G01*
X145938700Y-88566000D01*
G75*
G02*
X145701200Y-88803500I-237500J0D01*
G01*
X145201200Y-88803500D01*
G75*
G02*
X144963700Y-88566000I0J237500D01*
G01*
G37*
G36*
G01*
X143138700Y-88566000D02*
X143138700Y-88091000D01*
G75*
G02*
X143376200Y-87853500I237500J0D01*
G01*
X143876200Y-87853500D01*
G75*
G02*
X144113700Y-88091000I0J-237500D01*
G01*
X144113700Y-88566000D01*
G75*
G02*
X143876200Y-88803500I-237500J0D01*
G01*
X143376200Y-88803500D01*
G75*
G02*
X143138700Y-88566000I0J237500D01*
G01*
G37*
%TD*%
%TO.C,R28*%
G36*
G01*
X130650800Y-80971400D02*
X130650800Y-80496400D01*
G75*
G02*
X130888300Y-80258900I237500J0D01*
G01*
X131388300Y-80258900D01*
G75*
G02*
X131625800Y-80496400I0J-237500D01*
G01*
X131625800Y-80971400D01*
G75*
G02*
X131388300Y-81208900I-237500J0D01*
G01*
X130888300Y-81208900D01*
G75*
G02*
X130650800Y-80971400I0J237500D01*
G01*
G37*
G36*
G01*
X128825800Y-80971400D02*
X128825800Y-80496400D01*
G75*
G02*
X129063300Y-80258900I237500J0D01*
G01*
X129563300Y-80258900D01*
G75*
G02*
X129800800Y-80496400I0J-237500D01*
G01*
X129800800Y-80971400D01*
G75*
G02*
X129563300Y-81208900I-237500J0D01*
G01*
X129063300Y-81208900D01*
G75*
G02*
X128825800Y-80971400I0J237500D01*
G01*
G37*
%TD*%
%TO.C,R27*%
G36*
G01*
X144963700Y-87073750D02*
X144963700Y-86598750D01*
G75*
G02*
X145201200Y-86361250I237500J0D01*
G01*
X145701200Y-86361250D01*
G75*
G02*
X145938700Y-86598750I0J-237500D01*
G01*
X145938700Y-87073750D01*
G75*
G02*
X145701200Y-87311250I-237500J0D01*
G01*
X145201200Y-87311250D01*
G75*
G02*
X144963700Y-87073750I0J237500D01*
G01*
G37*
G36*
G01*
X143138700Y-87073750D02*
X143138700Y-86598750D01*
G75*
G02*
X143376200Y-86361250I237500J0D01*
G01*
X143876200Y-86361250D01*
G75*
G02*
X144113700Y-86598750I0J-237500D01*
G01*
X144113700Y-87073750D01*
G75*
G02*
X143876200Y-87311250I-237500J0D01*
G01*
X143376200Y-87311250D01*
G75*
G02*
X143138700Y-87073750I0J237500D01*
G01*
G37*
%TD*%
%TO.C,R26*%
G36*
G01*
X152990100Y-91601300D02*
X152990100Y-91126300D01*
G75*
G02*
X153227600Y-90888800I237500J0D01*
G01*
X153727600Y-90888800D01*
G75*
G02*
X153965100Y-91126300I0J-237500D01*
G01*
X153965100Y-91601300D01*
G75*
G02*
X153727600Y-91838800I-237500J0D01*
G01*
X153227600Y-91838800D01*
G75*
G02*
X152990100Y-91601300I0J237500D01*
G01*
G37*
G36*
G01*
X151165100Y-91601300D02*
X151165100Y-91126300D01*
G75*
G02*
X151402600Y-90888800I237500J0D01*
G01*
X151902600Y-90888800D01*
G75*
G02*
X152140100Y-91126300I0J-237500D01*
G01*
X152140100Y-91601300D01*
G75*
G02*
X151902600Y-91838800I-237500J0D01*
G01*
X151402600Y-91838800D01*
G75*
G02*
X151165100Y-91601300I0J237500D01*
G01*
G37*
%TD*%
%TO.C,R23*%
G36*
G01*
X144963700Y-85581500D02*
X144963700Y-85106500D01*
G75*
G02*
X145201200Y-84869000I237500J0D01*
G01*
X145701200Y-84869000D01*
G75*
G02*
X145938700Y-85106500I0J-237500D01*
G01*
X145938700Y-85581500D01*
G75*
G02*
X145701200Y-85819000I-237500J0D01*
G01*
X145201200Y-85819000D01*
G75*
G02*
X144963700Y-85581500I0J237500D01*
G01*
G37*
G36*
G01*
X143138700Y-85581500D02*
X143138700Y-85106500D01*
G75*
G02*
X143376200Y-84869000I237500J0D01*
G01*
X143876200Y-84869000D01*
G75*
G02*
X144113700Y-85106500I0J-237500D01*
G01*
X144113700Y-85581500D01*
G75*
G02*
X143876200Y-85819000I-237500J0D01*
G01*
X143376200Y-85819000D01*
G75*
G02*
X143138700Y-85581500I0J237500D01*
G01*
G37*
%TD*%
%TO.C,R22*%
G36*
G01*
X144963700Y-84089250D02*
X144963700Y-83614250D01*
G75*
G02*
X145201200Y-83376750I237500J0D01*
G01*
X145701200Y-83376750D01*
G75*
G02*
X145938700Y-83614250I0J-237500D01*
G01*
X145938700Y-84089250D01*
G75*
G02*
X145701200Y-84326750I-237500J0D01*
G01*
X145201200Y-84326750D01*
G75*
G02*
X144963700Y-84089250I0J237500D01*
G01*
G37*
G36*
G01*
X143138700Y-84089250D02*
X143138700Y-83614250D01*
G75*
G02*
X143376200Y-83376750I237500J0D01*
G01*
X143876200Y-83376750D01*
G75*
G02*
X144113700Y-83614250I0J-237500D01*
G01*
X144113700Y-84089250D01*
G75*
G02*
X143876200Y-84326750I-237500J0D01*
G01*
X143376200Y-84326750D01*
G75*
G02*
X143138700Y-84089250I0J237500D01*
G01*
G37*
%TD*%
%TO.C,R18*%
G36*
G01*
X144963700Y-82597000D02*
X144963700Y-82122000D01*
G75*
G02*
X145201200Y-81884500I237500J0D01*
G01*
X145701200Y-81884500D01*
G75*
G02*
X145938700Y-82122000I0J-237500D01*
G01*
X145938700Y-82597000D01*
G75*
G02*
X145701200Y-82834500I-237500J0D01*
G01*
X145201200Y-82834500D01*
G75*
G02*
X144963700Y-82597000I0J237500D01*
G01*
G37*
G36*
G01*
X143138700Y-82597000D02*
X143138700Y-82122000D01*
G75*
G02*
X143376200Y-81884500I237500J0D01*
G01*
X143876200Y-81884500D01*
G75*
G02*
X144113700Y-82122000I0J-237500D01*
G01*
X144113700Y-82597000D01*
G75*
G02*
X143876200Y-82834500I-237500J0D01*
G01*
X143376200Y-82834500D01*
G75*
G02*
X143138700Y-82597000I0J237500D01*
G01*
G37*
%TD*%
%TO.C,R7*%
G36*
G01*
X150206700Y-66369200D02*
X150681700Y-66369200D01*
G75*
G02*
X150919200Y-66606700I0J-237500D01*
G01*
X150919200Y-67106700D01*
G75*
G02*
X150681700Y-67344200I-237500J0D01*
G01*
X150206700Y-67344200D01*
G75*
G02*
X149969200Y-67106700I0J237500D01*
G01*
X149969200Y-66606700D01*
G75*
G02*
X150206700Y-66369200I237500J0D01*
G01*
G37*
G36*
G01*
X150206700Y-64544200D02*
X150681700Y-64544200D01*
G75*
G02*
X150919200Y-64781700I0J-237500D01*
G01*
X150919200Y-65281700D01*
G75*
G02*
X150681700Y-65519200I-237500J0D01*
G01*
X150206700Y-65519200D01*
G75*
G02*
X149969200Y-65281700I0J237500D01*
G01*
X149969200Y-64781700D01*
G75*
G02*
X150206700Y-64544200I237500J0D01*
G01*
G37*
%TD*%
%TO.C,R6*%
G36*
G01*
X151730700Y-66369200D02*
X152205700Y-66369200D01*
G75*
G02*
X152443200Y-66606700I0J-237500D01*
G01*
X152443200Y-67106700D01*
G75*
G02*
X152205700Y-67344200I-237500J0D01*
G01*
X151730700Y-67344200D01*
G75*
G02*
X151493200Y-67106700I0J237500D01*
G01*
X151493200Y-66606700D01*
G75*
G02*
X151730700Y-66369200I237500J0D01*
G01*
G37*
G36*
G01*
X151730700Y-64544200D02*
X152205700Y-64544200D01*
G75*
G02*
X152443200Y-64781700I0J-237500D01*
G01*
X152443200Y-65281700D01*
G75*
G02*
X152205700Y-65519200I-237500J0D01*
G01*
X151730700Y-65519200D01*
G75*
G02*
X151493200Y-65281700I0J237500D01*
G01*
X151493200Y-64781700D01*
G75*
G02*
X151730700Y-64544200I237500J0D01*
G01*
G37*
%TD*%
%TO.C,R5*%
G36*
G01*
X153254700Y-66369200D02*
X153729700Y-66369200D01*
G75*
G02*
X153967200Y-66606700I0J-237500D01*
G01*
X153967200Y-67106700D01*
G75*
G02*
X153729700Y-67344200I-237500J0D01*
G01*
X153254700Y-67344200D01*
G75*
G02*
X153017200Y-67106700I0J237500D01*
G01*
X153017200Y-66606700D01*
G75*
G02*
X153254700Y-66369200I237500J0D01*
G01*
G37*
G36*
G01*
X153254700Y-64544200D02*
X153729700Y-64544200D01*
G75*
G02*
X153967200Y-64781700I0J-237500D01*
G01*
X153967200Y-65281700D01*
G75*
G02*
X153729700Y-65519200I-237500J0D01*
G01*
X153254700Y-65519200D01*
G75*
G02*
X153017200Y-65281700I0J237500D01*
G01*
X153017200Y-64781700D01*
G75*
G02*
X153254700Y-64544200I237500J0D01*
G01*
G37*
%TD*%
%TO.C,R4*%
G36*
G01*
X154791400Y-66369200D02*
X155266400Y-66369200D01*
G75*
G02*
X155503900Y-66606700I0J-237500D01*
G01*
X155503900Y-67106700D01*
G75*
G02*
X155266400Y-67344200I-237500J0D01*
G01*
X154791400Y-67344200D01*
G75*
G02*
X154553900Y-67106700I0J237500D01*
G01*
X154553900Y-66606700D01*
G75*
G02*
X154791400Y-66369200I237500J0D01*
G01*
G37*
G36*
G01*
X154791400Y-64544200D02*
X155266400Y-64544200D01*
G75*
G02*
X155503900Y-64781700I0J-237500D01*
G01*
X155503900Y-65281700D01*
G75*
G02*
X155266400Y-65519200I-237500J0D01*
G01*
X154791400Y-65519200D01*
G75*
G02*
X154553900Y-65281700I0J237500D01*
G01*
X154553900Y-64781700D01*
G75*
G02*
X154791400Y-64544200I237500J0D01*
G01*
G37*
%TD*%
D13*
%TO.C,J3*%
X122235200Y-75399900D03*
X117185200Y-75399900D03*
X122235200Y-77939900D03*
X117185200Y-77939900D03*
X122235200Y-80479900D03*
X117185200Y-80479900D03*
X122235200Y-83019900D03*
X117185200Y-83019900D03*
X122235200Y-85559900D03*
X117185200Y-85559900D03*
X122235200Y-88099900D03*
X117185200Y-88099900D03*
X122235200Y-90639900D03*
X117185200Y-90639900D03*
%TD*%
D14*
%TO.C,J1*%
X158570000Y-87700600D03*
X158570000Y-81920600D03*
D15*
X162260000Y-80490600D03*
X162260000Y-89130600D03*
D16*
X158090000Y-80490600D03*
X158090000Y-89130600D03*
%TD*%
%TO.C,C30*%
G36*
G01*
X121749700Y-97748100D02*
X121749700Y-97273100D01*
G75*
G02*
X121987200Y-97035600I237500J0D01*
G01*
X122587200Y-97035600D01*
G75*
G02*
X122824700Y-97273100I0J-237500D01*
G01*
X122824700Y-97748100D01*
G75*
G02*
X122587200Y-97985600I-237500J0D01*
G01*
X121987200Y-97985600D01*
G75*
G02*
X121749700Y-97748100I0J237500D01*
G01*
G37*
G36*
G01*
X120024700Y-97748100D02*
X120024700Y-97273100D01*
G75*
G02*
X120262200Y-97035600I237500J0D01*
G01*
X120862200Y-97035600D01*
G75*
G02*
X121099700Y-97273100I0J-237500D01*
G01*
X121099700Y-97748100D01*
G75*
G02*
X120862200Y-97985600I-237500J0D01*
G01*
X120262200Y-97985600D01*
G75*
G02*
X120024700Y-97748100I0J237500D01*
G01*
G37*
%TD*%
%TO.C,C28*%
G36*
G01*
X124735600Y-93210500D02*
X124260600Y-93210500D01*
G75*
G02*
X124023100Y-92973000I0J237500D01*
G01*
X124023100Y-92373000D01*
G75*
G02*
X124260600Y-92135500I237500J0D01*
G01*
X124735600Y-92135500D01*
G75*
G02*
X124973100Y-92373000I0J-237500D01*
G01*
X124973100Y-92973000D01*
G75*
G02*
X124735600Y-93210500I-237500J0D01*
G01*
G37*
G36*
G01*
X124735600Y-94935500D02*
X124260600Y-94935500D01*
G75*
G02*
X124023100Y-94698000I0J237500D01*
G01*
X124023100Y-94098000D01*
G75*
G02*
X124260600Y-93860500I237500J0D01*
G01*
X124735600Y-93860500D01*
G75*
G02*
X124973100Y-94098000I0J-237500D01*
G01*
X124973100Y-94698000D01*
G75*
G02*
X124735600Y-94935500I-237500J0D01*
G01*
G37*
%TD*%
%TO.C,C18*%
G36*
G01*
X126929000Y-93653600D02*
X126929000Y-94128600D01*
G75*
G02*
X126691500Y-94366100I-237500J0D01*
G01*
X126091500Y-94366100D01*
G75*
G02*
X125854000Y-94128600I0J237500D01*
G01*
X125854000Y-93653600D01*
G75*
G02*
X126091500Y-93416100I237500J0D01*
G01*
X126691500Y-93416100D01*
G75*
G02*
X126929000Y-93653600I0J-237500D01*
G01*
G37*
G36*
G01*
X128654000Y-93653600D02*
X128654000Y-94128600D01*
G75*
G02*
X128416500Y-94366100I-237500J0D01*
G01*
X127816500Y-94366100D01*
G75*
G02*
X127579000Y-94128600I0J237500D01*
G01*
X127579000Y-93653600D01*
G75*
G02*
X127816500Y-93416100I237500J0D01*
G01*
X128416500Y-93416100D01*
G75*
G02*
X128654000Y-93653600I0J-237500D01*
G01*
G37*
%TD*%
%TO.C,C12*%
G36*
G01*
X159553900Y-85110200D02*
X160028900Y-85110200D01*
G75*
G02*
X160266400Y-85347700I0J-237500D01*
G01*
X160266400Y-85947700D01*
G75*
G02*
X160028900Y-86185200I-237500J0D01*
G01*
X159553900Y-86185200D01*
G75*
G02*
X159316400Y-85947700I0J237500D01*
G01*
X159316400Y-85347700D01*
G75*
G02*
X159553900Y-85110200I237500J0D01*
G01*
G37*
G36*
G01*
X159553900Y-83385200D02*
X160028900Y-83385200D01*
G75*
G02*
X160266400Y-83622700I0J-237500D01*
G01*
X160266400Y-84222700D01*
G75*
G02*
X160028900Y-84460200I-237500J0D01*
G01*
X159553900Y-84460200D01*
G75*
G02*
X159316400Y-84222700I0J237500D01*
G01*
X159316400Y-83622700D01*
G75*
G02*
X159553900Y-83385200I237500J0D01*
G01*
G37*
%TD*%
%TO.C,C9*%
G36*
G01*
X158283900Y-94724100D02*
X158758900Y-94724100D01*
G75*
G02*
X158996400Y-94961600I0J-237500D01*
G01*
X158996400Y-95561600D01*
G75*
G02*
X158758900Y-95799100I-237500J0D01*
G01*
X158283900Y-95799100D01*
G75*
G02*
X158046400Y-95561600I0J237500D01*
G01*
X158046400Y-94961600D01*
G75*
G02*
X158283900Y-94724100I237500J0D01*
G01*
G37*
G36*
G01*
X158283900Y-92999100D02*
X158758900Y-92999100D01*
G75*
G02*
X158996400Y-93236600I0J-237500D01*
G01*
X158996400Y-93836600D01*
G75*
G02*
X158758900Y-94074100I-237500J0D01*
G01*
X158283900Y-94074100D01*
G75*
G02*
X158046400Y-93836600I0J237500D01*
G01*
X158046400Y-93236600D01*
G75*
G02*
X158283900Y-92999100I237500J0D01*
G01*
G37*
%TD*%
%TO.C,C8*%
G36*
G01*
X161904800Y-85131900D02*
X161904800Y-85606900D01*
G75*
G02*
X161667300Y-85844400I-237500J0D01*
G01*
X161067300Y-85844400D01*
G75*
G02*
X160829800Y-85606900I0J237500D01*
G01*
X160829800Y-85131900D01*
G75*
G02*
X161067300Y-84894400I237500J0D01*
G01*
X161667300Y-84894400D01*
G75*
G02*
X161904800Y-85131900I0J-237500D01*
G01*
G37*
G36*
G01*
X163629800Y-85131900D02*
X163629800Y-85606900D01*
G75*
G02*
X163392300Y-85844400I-237500J0D01*
G01*
X162792300Y-85844400D01*
G75*
G02*
X162554800Y-85606900I0J237500D01*
G01*
X162554800Y-85131900D01*
G75*
G02*
X162792300Y-84894400I237500J0D01*
G01*
X163392300Y-84894400D01*
G75*
G02*
X163629800Y-85131900I0J-237500D01*
G01*
G37*
%TD*%
%TO.C,C7*%
G36*
G01*
X161904800Y-83607900D02*
X161904800Y-84082900D01*
G75*
G02*
X161667300Y-84320400I-237500J0D01*
G01*
X161067300Y-84320400D01*
G75*
G02*
X160829800Y-84082900I0J237500D01*
G01*
X160829800Y-83607900D01*
G75*
G02*
X161067300Y-83370400I237500J0D01*
G01*
X161667300Y-83370400D01*
G75*
G02*
X161904800Y-83607900I0J-237500D01*
G01*
G37*
G36*
G01*
X163629800Y-83607900D02*
X163629800Y-84082900D01*
G75*
G02*
X163392300Y-84320400I-237500J0D01*
G01*
X162792300Y-84320400D01*
G75*
G02*
X162554800Y-84082900I0J237500D01*
G01*
X162554800Y-83607900D01*
G75*
G02*
X162792300Y-83370400I237500J0D01*
G01*
X163392300Y-83370400D01*
G75*
G02*
X163629800Y-83607900I0J-237500D01*
G01*
G37*
%TD*%
%TO.C,C5*%
G36*
G01*
X139729200Y-74747000D02*
X140204200Y-74747000D01*
G75*
G02*
X140441700Y-74984500I0J-237500D01*
G01*
X140441700Y-75584500D01*
G75*
G02*
X140204200Y-75822000I-237500J0D01*
G01*
X139729200Y-75822000D01*
G75*
G02*
X139491700Y-75584500I0J237500D01*
G01*
X139491700Y-74984500D01*
G75*
G02*
X139729200Y-74747000I237500J0D01*
G01*
G37*
G36*
G01*
X139729200Y-73022000D02*
X140204200Y-73022000D01*
G75*
G02*
X140441700Y-73259500I0J-237500D01*
G01*
X140441700Y-73859500D01*
G75*
G02*
X140204200Y-74097000I-237500J0D01*
G01*
X139729200Y-74097000D01*
G75*
G02*
X139491700Y-73859500I0J237500D01*
G01*
X139491700Y-73259500D01*
G75*
G02*
X139729200Y-73022000I237500J0D01*
G01*
G37*
%TD*%
%TO.C,C4*%
G36*
G01*
X151959300Y-73565900D02*
X152434300Y-73565900D01*
G75*
G02*
X152671800Y-73803400I0J-237500D01*
G01*
X152671800Y-74403400D01*
G75*
G02*
X152434300Y-74640900I-237500J0D01*
G01*
X151959300Y-74640900D01*
G75*
G02*
X151721800Y-74403400I0J237500D01*
G01*
X151721800Y-73803400D01*
G75*
G02*
X151959300Y-73565900I237500J0D01*
G01*
G37*
G36*
G01*
X151959300Y-71840900D02*
X152434300Y-71840900D01*
G75*
G02*
X152671800Y-72078400I0J-237500D01*
G01*
X152671800Y-72678400D01*
G75*
G02*
X152434300Y-72915900I-237500J0D01*
G01*
X151959300Y-72915900D01*
G75*
G02*
X151721800Y-72678400I0J237500D01*
G01*
X151721800Y-72078400D01*
G75*
G02*
X151959300Y-71840900I237500J0D01*
G01*
G37*
%TD*%
%TO.C,C3*%
G36*
G01*
X149114500Y-73565900D02*
X149589500Y-73565900D01*
G75*
G02*
X149827000Y-73803400I0J-237500D01*
G01*
X149827000Y-74403400D01*
G75*
G02*
X149589500Y-74640900I-237500J0D01*
G01*
X149114500Y-74640900D01*
G75*
G02*
X148877000Y-74403400I0J237500D01*
G01*
X148877000Y-73803400D01*
G75*
G02*
X149114500Y-73565900I237500J0D01*
G01*
G37*
G36*
G01*
X149114500Y-71840900D02*
X149589500Y-71840900D01*
G75*
G02*
X149827000Y-72078400I0J-237500D01*
G01*
X149827000Y-72678400D01*
G75*
G02*
X149589500Y-72915900I-237500J0D01*
G01*
X149114500Y-72915900D01*
G75*
G02*
X148877000Y-72678400I0J237500D01*
G01*
X148877000Y-72078400D01*
G75*
G02*
X149114500Y-71840900I237500J0D01*
G01*
G37*
%TD*%
%TO.C,C2*%
G36*
G01*
X149038300Y-78050100D02*
X149513300Y-78050100D01*
G75*
G02*
X149750800Y-78287600I0J-237500D01*
G01*
X149750800Y-78887600D01*
G75*
G02*
X149513300Y-79125100I-237500J0D01*
G01*
X149038300Y-79125100D01*
G75*
G02*
X148800800Y-78887600I0J237500D01*
G01*
X148800800Y-78287600D01*
G75*
G02*
X149038300Y-78050100I237500J0D01*
G01*
G37*
G36*
G01*
X149038300Y-76325100D02*
X149513300Y-76325100D01*
G75*
G02*
X149750800Y-76562600I0J-237500D01*
G01*
X149750800Y-77162600D01*
G75*
G02*
X149513300Y-77400100I-237500J0D01*
G01*
X149038300Y-77400100D01*
G75*
G02*
X148800800Y-77162600I0J237500D01*
G01*
X148800800Y-76562600D01*
G75*
G02*
X149038300Y-76325100I237500J0D01*
G01*
G37*
%TD*%
%TO.C,C1*%
G36*
G01*
X151743400Y-78050100D02*
X152218400Y-78050100D01*
G75*
G02*
X152455900Y-78287600I0J-237500D01*
G01*
X152455900Y-78887600D01*
G75*
G02*
X152218400Y-79125100I-237500J0D01*
G01*
X151743400Y-79125100D01*
G75*
G02*
X151505900Y-78887600I0J237500D01*
G01*
X151505900Y-78287600D01*
G75*
G02*
X151743400Y-78050100I237500J0D01*
G01*
G37*
G36*
G01*
X151743400Y-76325100D02*
X152218400Y-76325100D01*
G75*
G02*
X152455900Y-76562600I0J-237500D01*
G01*
X152455900Y-77162600D01*
G75*
G02*
X152218400Y-77400100I-237500J0D01*
G01*
X151743400Y-77400100D01*
G75*
G02*
X151505900Y-77162600I0J237500D01*
G01*
X151505900Y-76562600D01*
G75*
G02*
X151743400Y-76325100I237500J0D01*
G01*
G37*
%TD*%
D17*
%TO.C,J2*%
X126537000Y-70485000D03*
X122637000Y-70485000D03*
X126537000Y-71755000D03*
X122637000Y-71755000D03*
X126537000Y-73025000D03*
X122637000Y-73025000D03*
%TD*%
D18*
%TO.C,SWD1*%
X137058400Y-62953900D03*
X134518400Y-62953900D03*
X131978400Y-62953900D03*
X129438400Y-62953900D03*
D19*
X126898400Y-62953900D03*
%TD*%
D18*
%TO.C,J6*%
X126365000Y-76708000D03*
X126365000Y-79248000D03*
D19*
X126365000Y-81788000D03*
%TD*%
D20*
%TO.C,H4*%
X160000000Y-65000000D03*
%TD*%
%TO.C,H1*%
X120000000Y-105000000D03*
%TD*%
%TO.C,H3*%
X160000000Y-105000000D03*
%TD*%
%TO.C,H2*%
X120000000Y-65000000D03*
%TD*%
M02*
