M48
; DRILL file {KiCad (5.1.8-0-10_14)} date Saturday, March 06, 2021 at 11:06:46 PM
; FORMAT={-:-/ absolute / metric / decimal}
; #@! TF.CreationDate,2021-03-06T23:06:46+08:00
; #@! TF.GenerationSoftware,Kicad,Pcbnew,(5.1.8-0-10_14)
; #@! TF.FileFunction,Plated,1,2,PTH
FMAT,2
METRIC
T1C0.400
T2C0.600
T3C1.000
T4C3.200
%
G90
G05
T1
X117.81Y-93.84
X117.89Y-95.39
X118.364Y-84.645
X118.377Y-83.045
X118.901Y-96.854
X119.07Y-76.84
X119.202Y-95.948
X119.355Y-98.349
X120.22Y-73.97
X120.498Y-99.441
X120.88Y-92.833
X120.88Y-94.54
X121.14Y-90.665
X122.276Y-97.472
X122.342Y-94.162
X122.669Y-86.766
X122.695Y-80.467
X122.987Y-76.721
X123.012Y-74.016
X123.038Y-99.72
X123.15Y-77.95
X123.241Y-88.24
X123.42Y-79.159
X123.457Y-70.51
X123.933Y-81.567
X124.454Y-84.115
X124.498Y-94.386
X124.545Y-90.895
X124.589Y-97.904
X124.68Y-92.44
X124.689Y-102.26
X125.005Y-88.38
X125.407Y-95.448
X125.705Y-74.002
X125.806Y-70.536
X125.859Y-87.175
X126.176Y-86.093
X126.34Y-90.78
X126.34Y-92.329
X126.364Y-96.393
X126.657Y-102.794
X127.738Y-73.995
X127.82Y-96.95
X128.0Y-95.34
X128.0Y-99.9
X128.005Y-98.155
X128.01Y-108.78
X128.207Y-93.967
X128.207Y-105.143
X128.448Y-72.276
X128.631Y-73.546
X129.25Y-79.36
X129.299Y-80.721
X129.311Y-82.296
X129.565Y-84.023
X129.718Y-93.256
X129.756Y-71.92
X129.756Y-73.469
X129.76Y-70.24
X130.09Y-96.01
X130.125Y-78.735
X130.461Y-67.469
X131.139Y-95.91
X131.191Y-86.843
X131.31Y-68.44
X132.372Y-106.553
X132.4Y-79.16
X132.495Y-100.254
X132.925Y-93.447
X132.965Y-79.745
X133.138Y-95.428
X133.218Y-76.934
X133.287Y-77.931
X134.645Y-73.575
X134.79Y-85.961
X134.8Y-86.996
X134.821Y-83.665
X134.85Y-81.725
X134.94Y-66.65
X135.03Y-90.649
X135.065Y-87.985
X135.4Y-80.01
X135.563Y-91.495
X135.75Y-69.44
X135.75Y-103.2
X135.815Y-83.91
X135.915Y-98.664
X135.929Y-73.449
X136.007Y-82.213
X136.24Y-88.9
X136.311Y-84.779
X136.34Y-95.48
X136.652Y-91.808
X136.714Y-81.506
X136.865Y-76.872
X137.354Y-82.301
X137.527Y-71.737
X137.64Y-100.15
X137.826Y-81.42
X138.0Y-90.47
X138.128Y-103.918
X138.138Y-105.226
X138.2Y-68.37
X138.379Y-88.163
X138.38Y-65.74
X138.392Y-86.309
X138.821Y-85.045
X139.103Y-103.607
X139.276Y-82.103
X139.376Y-72.498
X139.405Y-69.966
X139.89Y-86.36
X139.891Y-88.163
X139.967Y-75.284
X140.114Y-82.648
X140.602Y-96.812
X140.612Y-71.456
X140.9Y-81.01
X141.065Y-72.903
X141.134Y-82.46
X141.28Y-63.18
X141.292Y-69.338
X141.351Y-66.876
X141.417Y-70.863
X141.427Y-88.138
X141.44Y-86.284
X141.55Y-76.7
X141.965Y-75.5
X142.215Y-103.505
X142.862Y-65.049
X143.729Y-91.598
X144.272Y-100.777
X144.28Y-102.277
X144.29Y-80.92
X144.297Y-97.828
X144.41Y-65.097
X144.564Y-89.891
X144.584Y-91.079
X145.398Y-86.762
X145.453Y-82.359
X145.453Y-85.331
X145.466Y-88.328
X145.478Y-83.858
X145.53Y-80.89
X145.707Y-67.996
X145.734Y-76.939
X146.165Y-69.608
X146.21Y-102.78
X146.381Y-76.176
X146.566Y-88.057
X146.58Y-80.93
X146.583Y-91.364
X146.59Y-66.4
X146.886Y-74.676
X147.472Y-68.974
X147.587Y-98.653
X147.76Y-65.13
X147.833Y-101.515
X147.858Y-100.003
X148.561Y-66.857
X149.13Y-69.03
X149.263Y-76.848
X149.276Y-72.263
X149.352Y-74.105
X150.201Y-69.03
X150.431Y-65.101
X151.155Y-62.205
X151.229Y-69.3
X151.371Y-80.747
X151.663Y-95.898
X151.676Y-91.338
X151.9Y-97.15
X151.981Y-65.101
X151.981Y-78.588
X152.006Y-76.822
X152.032Y-83.21
X152.171Y-72.301
X152.171Y-74.27
X152.22Y-69.56
X153.2Y-90.01
X153.21Y-88.34
X153.34Y-97.3
X153.492Y-92.875
X153.503Y-94.374
X153.505Y-65.101
X153.585Y-81.322
X154.54Y-97.68
X155.016Y-65.087
X155.296Y-70.269
X155.398Y-85.561
X155.424Y-84.086
X155.792Y-90.894
X155.83Y-80.67
X155.88Y-88.773
X155.899Y-69.666
X156.781Y-73.393
X156.83Y-69.484
X156.896Y-75.59
X157.105Y-70.644
X158.534Y-93.523
X158.61Y-95.263
X160.248Y-70.409
X161.29Y-85.42
X161.328Y-83.896
X163.639Y-76.797
X163.64Y-74.599
X163.64Y-75.603
T3
X126.898Y-62.954
X129.438Y-62.954
X131.978Y-62.954
X134.518Y-62.954
X137.058Y-62.954
X126.365Y-76.708
X126.365Y-79.248
X126.365Y-81.788
T4
X160.0Y-65.0
X120.0Y-105.0
X160.0Y-105.0
X120.0Y-65.0
T2
G00X158.64Y-80.491
M15
G01X157.54Y-80.491
M16
G05
G00X158.64Y-89.131
M15
G01X157.54Y-89.131
M16
G05
G00X162.66Y-80.491
M15
G01X161.86Y-80.491
M16
G05
G00X162.66Y-89.131
M15
G01X161.86Y-89.131
M16
G05
T0
M30
