%TF.GenerationSoftware,KiCad,Pcbnew,(5.1.8-0-10_14)*%
%TF.CreationDate,2021-03-06T23:03:25+08:00*%
%TF.ProjectId,batt_board,62617474-5f62-46f6-9172-642e6b696361,v1.0.0*%
%TF.SameCoordinates,Original*%
%TF.FileFunction,Soldermask,Top*%
%TF.FilePolarity,Negative*%
%FSLAX46Y46*%
G04 Gerber Fmt 4.6, Leading zero omitted, Abs format (unit mm)*
G04 Created by KiCad (PCBNEW (5.1.8-0-10_14)) date 2021-03-06 23:03:25*
%MOMM*%
%LPD*%
G01*
G04 APERTURE LIST*
%ADD10R,1.700000X1.700000*%
%ADD11O,1.700000X1.700000*%
%ADD12R,2.100000X0.750000*%
%ADD13C,5.700000*%
%ADD14C,3.600000*%
%ADD15R,1.500000X2.000000*%
%ADD16R,3.800000X2.000000*%
%ADD17R,0.600000X1.550000*%
%ADD18R,3.100000X2.600000*%
%ADD19R,1.800000X3.500000*%
G04 APERTURE END LIST*
D10*
%TO.C,Receiver1*%
X134874000Y-70993000D03*
D11*
X137414000Y-70993000D03*
X139954000Y-70993000D03*
X142494000Y-70993000D03*
%TD*%
D12*
%TO.C,J6*%
X126387000Y-70485000D03*
X122787000Y-70485000D03*
X126387000Y-71755000D03*
X122787000Y-71755000D03*
X126387000Y-73025000D03*
X122787000Y-73025000D03*
%TD*%
D11*
%TO.C,J1*%
X126365000Y-76708000D03*
X126365000Y-79248000D03*
D10*
X126365000Y-81788000D03*
%TD*%
%TO.C,C3*%
G36*
G01*
X141895003Y-87009000D02*
X140044997Y-87009000D01*
G75*
G02*
X139795000Y-86759003I0J249997D01*
G01*
X139795000Y-85933997D01*
G75*
G02*
X140044997Y-85684000I249997J0D01*
G01*
X141895003Y-85684000D01*
G75*
G02*
X142145000Y-85933997I0J-249997D01*
G01*
X142145000Y-86759003D01*
G75*
G02*
X141895003Y-87009000I-249997J0D01*
G01*
G37*
G36*
G01*
X141895003Y-90084000D02*
X140044997Y-90084000D01*
G75*
G02*
X139795000Y-89834003I0J249997D01*
G01*
X139795000Y-89008997D01*
G75*
G02*
X140044997Y-88759000I249997J0D01*
G01*
X141895003Y-88759000D01*
G75*
G02*
X142145000Y-89008997I0J-249997D01*
G01*
X142145000Y-89834003D01*
G75*
G02*
X141895003Y-90084000I-249997J0D01*
G01*
G37*
%TD*%
D13*
%TO.C,H4*%
X160000000Y-65000000D03*
D14*
X160000000Y-65000000D03*
%TD*%
%TO.C,J11*%
G36*
G01*
X146802390Y-60785976D02*
X149630818Y-57957548D01*
G75*
G02*
X155287672Y-57957548I2828427J-2828427D01*
G01*
X155287672Y-57957548D01*
G75*
G02*
X155287672Y-63614402I-2828427J-2828427D01*
G01*
X152459244Y-66442830D01*
G75*
G02*
X146802390Y-66442830I-2828427J2828427D01*
G01*
X146802390Y-66442830D01*
G75*
G02*
X146802390Y-60785976I2828427J2828427D01*
G01*
G37*
G36*
G01*
X158476723Y-72460309D02*
X161305151Y-69631881D01*
G75*
G02*
X166962005Y-69631881I2828427J-2828427D01*
G01*
X166962005Y-69631881D01*
G75*
G02*
X166962005Y-75288735I-2828427J-2828427D01*
G01*
X164133577Y-78117163D01*
G75*
G02*
X158476723Y-78117163I-2828427J2828427D01*
G01*
X158476723Y-78117163D01*
G75*
G02*
X158476723Y-72460309I2828427J2828427D01*
G01*
G37*
%TD*%
D13*
%TO.C,H2*%
X120000000Y-105000000D03*
D14*
X120000000Y-105000000D03*
%TD*%
D15*
%TO.C,U2*%
X133463000Y-90653000D03*
X138063000Y-90653000D03*
X135763000Y-90653000D03*
D16*
X135763000Y-84353000D03*
%TD*%
D17*
%TO.C,U1*%
X145415000Y-89248000D03*
X146685000Y-89248000D03*
X147955000Y-89248000D03*
X149225000Y-89248000D03*
X149225000Y-94648000D03*
X147955000Y-94648000D03*
X146685000Y-94648000D03*
X145415000Y-94648000D03*
D18*
X147320000Y-91948000D03*
%TD*%
%TO.C,R8*%
G36*
G01*
X130131000Y-88154500D02*
X130131000Y-88629500D01*
G75*
G02*
X129893500Y-88867000I-237500J0D01*
G01*
X129393500Y-88867000D01*
G75*
G02*
X129156000Y-88629500I0J237500D01*
G01*
X129156000Y-88154500D01*
G75*
G02*
X129393500Y-87917000I237500J0D01*
G01*
X129893500Y-87917000D01*
G75*
G02*
X130131000Y-88154500I0J-237500D01*
G01*
G37*
G36*
G01*
X131956000Y-88154500D02*
X131956000Y-88629500D01*
G75*
G02*
X131718500Y-88867000I-237500J0D01*
G01*
X131218500Y-88867000D01*
G75*
G02*
X130981000Y-88629500I0J237500D01*
G01*
X130981000Y-88154500D01*
G75*
G02*
X131218500Y-87917000I237500J0D01*
G01*
X131718500Y-87917000D01*
G75*
G02*
X131956000Y-88154500I0J-237500D01*
G01*
G37*
%TD*%
%TO.C,R7*%
G36*
G01*
X138894000Y-94504500D02*
X138894000Y-94979500D01*
G75*
G02*
X138656500Y-95217000I-237500J0D01*
G01*
X138156500Y-95217000D01*
G75*
G02*
X137919000Y-94979500I0J237500D01*
G01*
X137919000Y-94504500D01*
G75*
G02*
X138156500Y-94267000I237500J0D01*
G01*
X138656500Y-94267000D01*
G75*
G02*
X138894000Y-94504500I0J-237500D01*
G01*
G37*
G36*
G01*
X140719000Y-94504500D02*
X140719000Y-94979500D01*
G75*
G02*
X140481500Y-95217000I-237500J0D01*
G01*
X139981500Y-95217000D01*
G75*
G02*
X139744000Y-94979500I0J237500D01*
G01*
X139744000Y-94504500D01*
G75*
G02*
X139981500Y-94267000I237500J0D01*
G01*
X140481500Y-94267000D01*
G75*
G02*
X140719000Y-94504500I0J-237500D01*
G01*
G37*
%TD*%
%TO.C,R6*%
G36*
G01*
X141621500Y-94405000D02*
X142096500Y-94405000D01*
G75*
G02*
X142334000Y-94642500I0J-237500D01*
G01*
X142334000Y-95142500D01*
G75*
G02*
X142096500Y-95380000I-237500J0D01*
G01*
X141621500Y-95380000D01*
G75*
G02*
X141384000Y-95142500I0J237500D01*
G01*
X141384000Y-94642500D01*
G75*
G02*
X141621500Y-94405000I237500J0D01*
G01*
G37*
G36*
G01*
X141621500Y-92580000D02*
X142096500Y-92580000D01*
G75*
G02*
X142334000Y-92817500I0J-237500D01*
G01*
X142334000Y-93317500D01*
G75*
G02*
X142096500Y-93555000I-237500J0D01*
G01*
X141621500Y-93555000D01*
G75*
G02*
X141384000Y-93317500I0J237500D01*
G01*
X141384000Y-92817500D01*
G75*
G02*
X141621500Y-92580000I237500J0D01*
G01*
G37*
%TD*%
%TO.C,R5*%
G36*
G01*
X140126964Y-74433233D02*
X140126964Y-73958233D01*
G75*
G02*
X140364464Y-73720733I237500J0D01*
G01*
X140864464Y-73720733D01*
G75*
G02*
X141101964Y-73958233I0J-237500D01*
G01*
X141101964Y-74433233D01*
G75*
G02*
X140864464Y-74670733I-237500J0D01*
G01*
X140364464Y-74670733D01*
G75*
G02*
X140126964Y-74433233I0J237500D01*
G01*
G37*
G36*
G01*
X141951964Y-74433233D02*
X141951964Y-73958233D01*
G75*
G02*
X142189464Y-73720733I237500J0D01*
G01*
X142689464Y-73720733D01*
G75*
G02*
X142926964Y-73958233I0J-237500D01*
G01*
X142926964Y-74433233D01*
G75*
G02*
X142689464Y-74670733I-237500J0D01*
G01*
X142189464Y-74670733D01*
G75*
G02*
X141951964Y-74433233I0J237500D01*
G01*
G37*
%TD*%
%TO.C,R4*%
G36*
G01*
X122028122Y-84706715D02*
X121553122Y-84706715D01*
G75*
G02*
X121315622Y-84469215I0J237500D01*
G01*
X121315622Y-83969215D01*
G75*
G02*
X121553122Y-83731715I237500J0D01*
G01*
X122028122Y-83731715D01*
G75*
G02*
X122265622Y-83969215I0J-237500D01*
G01*
X122265622Y-84469215D01*
G75*
G02*
X122028122Y-84706715I-237500J0D01*
G01*
G37*
G36*
G01*
X122028122Y-86531715D02*
X121553122Y-86531715D01*
G75*
G02*
X121315622Y-86294215I0J237500D01*
G01*
X121315622Y-85794215D01*
G75*
G02*
X121553122Y-85556715I237500J0D01*
G01*
X122028122Y-85556715D01*
G75*
G02*
X122265622Y-85794215I0J-237500D01*
G01*
X122265622Y-86294215D01*
G75*
G02*
X122028122Y-86531715I-237500J0D01*
G01*
G37*
%TD*%
%TO.C,R3*%
G36*
G01*
X139357000Y-103521500D02*
X139357000Y-103996500D01*
G75*
G02*
X139119500Y-104234000I-237500J0D01*
G01*
X138619500Y-104234000D01*
G75*
G02*
X138382000Y-103996500I0J237500D01*
G01*
X138382000Y-103521500D01*
G75*
G02*
X138619500Y-103284000I237500J0D01*
G01*
X139119500Y-103284000D01*
G75*
G02*
X139357000Y-103521500I0J-237500D01*
G01*
G37*
G36*
G01*
X141182000Y-103521500D02*
X141182000Y-103996500D01*
G75*
G02*
X140944500Y-104234000I-237500J0D01*
G01*
X140444500Y-104234000D01*
G75*
G02*
X140207000Y-103996500I0J237500D01*
G01*
X140207000Y-103521500D01*
G75*
G02*
X140444500Y-103284000I237500J0D01*
G01*
X140944500Y-103284000D01*
G75*
G02*
X141182000Y-103521500I0J-237500D01*
G01*
G37*
%TD*%
%TO.C,R2*%
G36*
G01*
X158258500Y-85668014D02*
X158733500Y-85668014D01*
G75*
G02*
X158971000Y-85905514I0J-237500D01*
G01*
X158971000Y-86405514D01*
G75*
G02*
X158733500Y-86643014I-237500J0D01*
G01*
X158258500Y-86643014D01*
G75*
G02*
X158021000Y-86405514I0J237500D01*
G01*
X158021000Y-85905514D01*
G75*
G02*
X158258500Y-85668014I237500J0D01*
G01*
G37*
G36*
G01*
X158258500Y-83843014D02*
X158733500Y-83843014D01*
G75*
G02*
X158971000Y-84080514I0J-237500D01*
G01*
X158971000Y-84580514D01*
G75*
G02*
X158733500Y-84818014I-237500J0D01*
G01*
X158258500Y-84818014D01*
G75*
G02*
X158021000Y-84580514I0J237500D01*
G01*
X158021000Y-84080514D01*
G75*
G02*
X158258500Y-83843014I237500J0D01*
G01*
G37*
%TD*%
%TO.C,R1*%
G36*
G01*
X140125000Y-66531500D02*
X140125000Y-66056500D01*
G75*
G02*
X140362500Y-65819000I237500J0D01*
G01*
X140862500Y-65819000D01*
G75*
G02*
X141100000Y-66056500I0J-237500D01*
G01*
X141100000Y-66531500D01*
G75*
G02*
X140862500Y-66769000I-237500J0D01*
G01*
X140362500Y-66769000D01*
G75*
G02*
X140125000Y-66531500I0J237500D01*
G01*
G37*
G36*
G01*
X138300000Y-66531500D02*
X138300000Y-66056500D01*
G75*
G02*
X138537500Y-65819000I237500J0D01*
G01*
X139037500Y-65819000D01*
G75*
G02*
X139275000Y-66056500I0J-237500D01*
G01*
X139275000Y-66531500D01*
G75*
G02*
X139037500Y-66769000I-237500J0D01*
G01*
X138537500Y-66769000D01*
G75*
G02*
X138300000Y-66531500I0J237500D01*
G01*
G37*
%TD*%
%TO.C,L1*%
G36*
G01*
X142323000Y-90948500D02*
X142323000Y-91423500D01*
G75*
G02*
X142085500Y-91661000I-237500J0D01*
G01*
X141585500Y-91661000D01*
G75*
G02*
X141348000Y-91423500I0J237500D01*
G01*
X141348000Y-90948500D01*
G75*
G02*
X141585500Y-90711000I237500J0D01*
G01*
X142085500Y-90711000D01*
G75*
G02*
X142323000Y-90948500I0J-237500D01*
G01*
G37*
G36*
G01*
X144148000Y-90948500D02*
X144148000Y-91423500D01*
G75*
G02*
X143910500Y-91661000I-237500J0D01*
G01*
X143410500Y-91661000D01*
G75*
G02*
X143173000Y-91423500I0J237500D01*
G01*
X143173000Y-90948500D01*
G75*
G02*
X143410500Y-90711000I237500J0D01*
G01*
X143910500Y-90711000D01*
G75*
G02*
X144148000Y-90948500I0J-237500D01*
G01*
G37*
%TD*%
D13*
%TO.C,H3*%
X160000000Y-105000000D03*
D14*
X160000000Y-105000000D03*
%TD*%
D13*
%TO.C,H1*%
X120000000Y-65000000D03*
D14*
X120000000Y-65000000D03*
%TD*%
%TO.C,D7*%
G36*
G01*
X130206000Y-86630500D02*
X130206000Y-87105500D01*
G75*
G02*
X129968500Y-87343000I-237500J0D01*
G01*
X129393500Y-87343000D01*
G75*
G02*
X129156000Y-87105500I0J237500D01*
G01*
X129156000Y-86630500D01*
G75*
G02*
X129393500Y-86393000I237500J0D01*
G01*
X129968500Y-86393000D01*
G75*
G02*
X130206000Y-86630500I0J-237500D01*
G01*
G37*
G36*
G01*
X131956000Y-86630500D02*
X131956000Y-87105500D01*
G75*
G02*
X131718500Y-87343000I-237500J0D01*
G01*
X131143500Y-87343000D01*
G75*
G02*
X130906000Y-87105500I0J237500D01*
G01*
X130906000Y-86630500D01*
G75*
G02*
X131143500Y-86393000I237500J0D01*
G01*
X131718500Y-86393000D01*
G75*
G02*
X131956000Y-86630500I0J-237500D01*
G01*
G37*
%TD*%
D19*
%TO.C,D6*%
X144272000Y-81193000D03*
X144272000Y-86193000D03*
%TD*%
%TO.C,D5*%
G36*
G01*
X140126964Y-75870074D02*
X140126964Y-75395074D01*
G75*
G02*
X140364464Y-75157574I237500J0D01*
G01*
X140939464Y-75157574D01*
G75*
G02*
X141176964Y-75395074I0J-237500D01*
G01*
X141176964Y-75870074D01*
G75*
G02*
X140939464Y-76107574I-237500J0D01*
G01*
X140364464Y-76107574D01*
G75*
G02*
X140126964Y-75870074I0J237500D01*
G01*
G37*
G36*
G01*
X141876964Y-75870074D02*
X141876964Y-75395074D01*
G75*
G02*
X142114464Y-75157574I237500J0D01*
G01*
X142689464Y-75157574D01*
G75*
G02*
X142926964Y-75395074I0J-237500D01*
G01*
X142926964Y-75870074D01*
G75*
G02*
X142689464Y-76107574I-237500J0D01*
G01*
X142114464Y-76107574D01*
G75*
G02*
X141876964Y-75870074I0J237500D01*
G01*
G37*
%TD*%
%TO.C,D4*%
G36*
G01*
X119936676Y-85481715D02*
X120411676Y-85481715D01*
G75*
G02*
X120649176Y-85719215I0J-237500D01*
G01*
X120649176Y-86294215D01*
G75*
G02*
X120411676Y-86531715I-237500J0D01*
G01*
X119936676Y-86531715D01*
G75*
G02*
X119699176Y-86294215I0J237500D01*
G01*
X119699176Y-85719215D01*
G75*
G02*
X119936676Y-85481715I237500J0D01*
G01*
G37*
G36*
G01*
X119936676Y-83731715D02*
X120411676Y-83731715D01*
G75*
G02*
X120649176Y-83969215I0J-237500D01*
G01*
X120649176Y-84544215D01*
G75*
G02*
X120411676Y-84781715I-237500J0D01*
G01*
X119936676Y-84781715D01*
G75*
G02*
X119699176Y-84544215I0J237500D01*
G01*
X119699176Y-83969215D01*
G75*
G02*
X119936676Y-83731715I237500J0D01*
G01*
G37*
%TD*%
%TO.C,D3*%
G36*
G01*
X140132000Y-105520500D02*
X140132000Y-105045500D01*
G75*
G02*
X140369500Y-104808000I237500J0D01*
G01*
X140944500Y-104808000D01*
G75*
G02*
X141182000Y-105045500I0J-237500D01*
G01*
X141182000Y-105520500D01*
G75*
G02*
X140944500Y-105758000I-237500J0D01*
G01*
X140369500Y-105758000D01*
G75*
G02*
X140132000Y-105520500I0J237500D01*
G01*
G37*
G36*
G01*
X138382000Y-105520500D02*
X138382000Y-105045500D01*
G75*
G02*
X138619500Y-104808000I237500J0D01*
G01*
X139194500Y-104808000D01*
G75*
G02*
X139432000Y-105045500I0J-237500D01*
G01*
X139432000Y-105520500D01*
G75*
G02*
X139194500Y-105758000I-237500J0D01*
G01*
X138619500Y-105758000D01*
G75*
G02*
X138382000Y-105520500I0J237500D01*
G01*
G37*
%TD*%
%TO.C,D2*%
G36*
G01*
X160257500Y-84867000D02*
X159782500Y-84867000D01*
G75*
G02*
X159545000Y-84629500I0J237500D01*
G01*
X159545000Y-84054500D01*
G75*
G02*
X159782500Y-83817000I237500J0D01*
G01*
X160257500Y-83817000D01*
G75*
G02*
X160495000Y-84054500I0J-237500D01*
G01*
X160495000Y-84629500D01*
G75*
G02*
X160257500Y-84867000I-237500J0D01*
G01*
G37*
G36*
G01*
X160257500Y-86617000D02*
X159782500Y-86617000D01*
G75*
G02*
X159545000Y-86379500I0J237500D01*
G01*
X159545000Y-85804500D01*
G75*
G02*
X159782500Y-85567000I237500J0D01*
G01*
X160257500Y-85567000D01*
G75*
G02*
X160495000Y-85804500I0J-237500D01*
G01*
X160495000Y-86379500D01*
G75*
G02*
X160257500Y-86617000I-237500J0D01*
G01*
G37*
%TD*%
%TO.C,D1*%
G36*
G01*
X139350000Y-64532500D02*
X139350000Y-65007500D01*
G75*
G02*
X139112500Y-65245000I-237500J0D01*
G01*
X138537500Y-65245000D01*
G75*
G02*
X138300000Y-65007500I0J237500D01*
G01*
X138300000Y-64532500D01*
G75*
G02*
X138537500Y-64295000I237500J0D01*
G01*
X139112500Y-64295000D01*
G75*
G02*
X139350000Y-64532500I0J-237500D01*
G01*
G37*
G36*
G01*
X141100000Y-64532500D02*
X141100000Y-65007500D01*
G75*
G02*
X140862500Y-65245000I-237500J0D01*
G01*
X140287500Y-65245000D01*
G75*
G02*
X140050000Y-65007500I0J237500D01*
G01*
X140050000Y-64532500D01*
G75*
G02*
X140287500Y-64295000I237500J0D01*
G01*
X140862500Y-64295000D01*
G75*
G02*
X141100000Y-64532500I0J-237500D01*
G01*
G37*
%TD*%
D11*
%TO.C,CH4*%
X117475000Y-83820000D03*
D10*
X117475000Y-86360000D03*
%TD*%
D11*
%TO.C,CH3*%
X138532200Y-107950000D03*
D10*
X141072200Y-107950000D03*
%TD*%
D11*
%TO.C,CH2*%
X162560000Y-83820000D03*
D10*
X162560000Y-86360000D03*
%TD*%
D11*
%TO.C,CH1*%
X138430000Y-62230000D03*
D10*
X140970000Y-62230000D03*
%TD*%
%TO.C,C14*%
G36*
G01*
X137008767Y-78254036D02*
X137483767Y-78254036D01*
G75*
G02*
X137721267Y-78491536I0J-237500D01*
G01*
X137721267Y-79091536D01*
G75*
G02*
X137483767Y-79329036I-237500J0D01*
G01*
X137008767Y-79329036D01*
G75*
G02*
X136771267Y-79091536I0J237500D01*
G01*
X136771267Y-78491536D01*
G75*
G02*
X137008767Y-78254036I237500J0D01*
G01*
G37*
G36*
G01*
X137008767Y-76529036D02*
X137483767Y-76529036D01*
G75*
G02*
X137721267Y-76766536I0J-237500D01*
G01*
X137721267Y-77366536D01*
G75*
G02*
X137483767Y-77604036I-237500J0D01*
G01*
X137008767Y-77604036D01*
G75*
G02*
X136771267Y-77366536I0J237500D01*
G01*
X136771267Y-76766536D01*
G75*
G02*
X137008767Y-76529036I237500J0D01*
G01*
G37*
%TD*%
%TO.C,C13*%
G36*
G01*
X135867321Y-77568511D02*
X135392321Y-77568511D01*
G75*
G02*
X135154821Y-77331011I0J237500D01*
G01*
X135154821Y-76731011D01*
G75*
G02*
X135392321Y-76493511I237500J0D01*
G01*
X135867321Y-76493511D01*
G75*
G02*
X136104821Y-76731011I0J-237500D01*
G01*
X136104821Y-77331011D01*
G75*
G02*
X135867321Y-77568511I-237500J0D01*
G01*
G37*
G36*
G01*
X135867321Y-79293511D02*
X135392321Y-79293511D01*
G75*
G02*
X135154821Y-79056011I0J237500D01*
G01*
X135154821Y-78456011D01*
G75*
G02*
X135392321Y-78218511I237500J0D01*
G01*
X135867321Y-78218511D01*
G75*
G02*
X136104821Y-78456011I0J-237500D01*
G01*
X136104821Y-79056011D01*
G75*
G02*
X135867321Y-79293511I-237500J0D01*
G01*
G37*
%TD*%
%TO.C,C12*%
G36*
G01*
X132159429Y-78218511D02*
X132634429Y-78218511D01*
G75*
G02*
X132871929Y-78456011I0J-237500D01*
G01*
X132871929Y-79056011D01*
G75*
G02*
X132634429Y-79293511I-237500J0D01*
G01*
X132159429Y-79293511D01*
G75*
G02*
X131921929Y-79056011I0J237500D01*
G01*
X131921929Y-78456011D01*
G75*
G02*
X132159429Y-78218511I237500J0D01*
G01*
G37*
G36*
G01*
X132159429Y-76493511D02*
X132634429Y-76493511D01*
G75*
G02*
X132871929Y-76731011I0J-237500D01*
G01*
X132871929Y-77331011D01*
G75*
G02*
X132634429Y-77568511I-237500J0D01*
G01*
X132159429Y-77568511D01*
G75*
G02*
X131921929Y-77331011I0J237500D01*
G01*
X131921929Y-76731011D01*
G75*
G02*
X132159429Y-76493511I237500J0D01*
G01*
G37*
%TD*%
%TO.C,C11*%
G36*
G01*
X134250875Y-77604036D02*
X133775875Y-77604036D01*
G75*
G02*
X133538375Y-77366536I0J237500D01*
G01*
X133538375Y-76766536D01*
G75*
G02*
X133775875Y-76529036I237500J0D01*
G01*
X134250875Y-76529036D01*
G75*
G02*
X134488375Y-76766536I0J-237500D01*
G01*
X134488375Y-77366536D01*
G75*
G02*
X134250875Y-77604036I-237500J0D01*
G01*
G37*
G36*
G01*
X134250875Y-79329036D02*
X133775875Y-79329036D01*
G75*
G02*
X133538375Y-79091536I0J237500D01*
G01*
X133538375Y-78491536D01*
G75*
G02*
X133775875Y-78254036I237500J0D01*
G01*
X134250875Y-78254036D01*
G75*
G02*
X134488375Y-78491536I0J-237500D01*
G01*
X134488375Y-79091536D01*
G75*
G02*
X134250875Y-79329036I-237500J0D01*
G01*
G37*
%TD*%
%TO.C,C10*%
G36*
G01*
X138625213Y-76529036D02*
X139100213Y-76529036D01*
G75*
G02*
X139337713Y-76766536I0J-237500D01*
G01*
X139337713Y-77366536D01*
G75*
G02*
X139100213Y-77604036I-237500J0D01*
G01*
X138625213Y-77604036D01*
G75*
G02*
X138387713Y-77366536I0J237500D01*
G01*
X138387713Y-76766536D01*
G75*
G02*
X138625213Y-76529036I237500J0D01*
G01*
G37*
G36*
G01*
X138625213Y-78254036D02*
X139100213Y-78254036D01*
G75*
G02*
X139337713Y-78491536I0J-237500D01*
G01*
X139337713Y-79091536D01*
G75*
G02*
X139100213Y-79329036I-237500J0D01*
G01*
X138625213Y-79329036D01*
G75*
G02*
X138387713Y-79091536I0J237500D01*
G01*
X138387713Y-78491536D01*
G75*
G02*
X138625213Y-78254036I237500J0D01*
G01*
G37*
%TD*%
%TO.C,C9*%
G36*
G01*
X137483767Y-80996934D02*
X137008767Y-80996934D01*
G75*
G02*
X136771267Y-80759434I0J237500D01*
G01*
X136771267Y-80159434D01*
G75*
G02*
X137008767Y-79921934I237500J0D01*
G01*
X137483767Y-79921934D01*
G75*
G02*
X137721267Y-80159434I0J-237500D01*
G01*
X137721267Y-80759434D01*
G75*
G02*
X137483767Y-80996934I-237500J0D01*
G01*
G37*
G36*
G01*
X137483767Y-82721934D02*
X137008767Y-82721934D01*
G75*
G02*
X136771267Y-82484434I0J237500D01*
G01*
X136771267Y-81884434D01*
G75*
G02*
X137008767Y-81646934I237500J0D01*
G01*
X137483767Y-81646934D01*
G75*
G02*
X137721267Y-81884434I0J-237500D01*
G01*
X137721267Y-82484434D01*
G75*
G02*
X137483767Y-82721934I-237500J0D01*
G01*
G37*
%TD*%
%TO.C,C8*%
G36*
G01*
X135392321Y-81646934D02*
X135867321Y-81646934D01*
G75*
G02*
X136104821Y-81884434I0J-237500D01*
G01*
X136104821Y-82484434D01*
G75*
G02*
X135867321Y-82721934I-237500J0D01*
G01*
X135392321Y-82721934D01*
G75*
G02*
X135154821Y-82484434I0J237500D01*
G01*
X135154821Y-81884434D01*
G75*
G02*
X135392321Y-81646934I237500J0D01*
G01*
G37*
G36*
G01*
X135392321Y-79921934D02*
X135867321Y-79921934D01*
G75*
G02*
X136104821Y-80159434I0J-237500D01*
G01*
X136104821Y-80759434D01*
G75*
G02*
X135867321Y-80996934I-237500J0D01*
G01*
X135392321Y-80996934D01*
G75*
G02*
X135154821Y-80759434I0J237500D01*
G01*
X135154821Y-80159434D01*
G75*
G02*
X135392321Y-79921934I237500J0D01*
G01*
G37*
%TD*%
%TO.C,C7*%
G36*
G01*
X134250875Y-80996934D02*
X133775875Y-80996934D01*
G75*
G02*
X133538375Y-80759434I0J237500D01*
G01*
X133538375Y-80159434D01*
G75*
G02*
X133775875Y-79921934I237500J0D01*
G01*
X134250875Y-79921934D01*
G75*
G02*
X134488375Y-80159434I0J-237500D01*
G01*
X134488375Y-80759434D01*
G75*
G02*
X134250875Y-80996934I-237500J0D01*
G01*
G37*
G36*
G01*
X134250875Y-82721934D02*
X133775875Y-82721934D01*
G75*
G02*
X133538375Y-82484434I0J237500D01*
G01*
X133538375Y-81884434D01*
G75*
G02*
X133775875Y-81646934I237500J0D01*
G01*
X134250875Y-81646934D01*
G75*
G02*
X134488375Y-81884434I0J-237500D01*
G01*
X134488375Y-82484434D01*
G75*
G02*
X134250875Y-82721934I-237500J0D01*
G01*
G37*
%TD*%
%TO.C,C6*%
G36*
G01*
X132159429Y-81646934D02*
X132634429Y-81646934D01*
G75*
G02*
X132871929Y-81884434I0J-237500D01*
G01*
X132871929Y-82484434D01*
G75*
G02*
X132634429Y-82721934I-237500J0D01*
G01*
X132159429Y-82721934D01*
G75*
G02*
X131921929Y-82484434I0J237500D01*
G01*
X131921929Y-81884434D01*
G75*
G02*
X132159429Y-81646934I237500J0D01*
G01*
G37*
G36*
G01*
X132159429Y-79921934D02*
X132634429Y-79921934D01*
G75*
G02*
X132871929Y-80159434I0J-237500D01*
G01*
X132871929Y-80759434D01*
G75*
G02*
X132634429Y-80996934I-237500J0D01*
G01*
X132159429Y-80996934D01*
G75*
G02*
X131921929Y-80759434I0J237500D01*
G01*
X131921929Y-80159434D01*
G75*
G02*
X132159429Y-79921934I237500J0D01*
G01*
G37*
%TD*%
%TO.C,C5*%
G36*
G01*
X139100213Y-82721934D02*
X138625213Y-82721934D01*
G75*
G02*
X138387713Y-82484434I0J237500D01*
G01*
X138387713Y-81884434D01*
G75*
G02*
X138625213Y-81646934I237500J0D01*
G01*
X139100213Y-81646934D01*
G75*
G02*
X139337713Y-81884434I0J-237500D01*
G01*
X139337713Y-82484434D01*
G75*
G02*
X139100213Y-82721934I-237500J0D01*
G01*
G37*
G36*
G01*
X139100213Y-80996934D02*
X138625213Y-80996934D01*
G75*
G02*
X138387713Y-80759434I0J237500D01*
G01*
X138387713Y-80159434D01*
G75*
G02*
X138625213Y-79921934I237500J0D01*
G01*
X139100213Y-79921934D01*
G75*
G02*
X139337713Y-80159434I0J-237500D01*
G01*
X139337713Y-80759434D01*
G75*
G02*
X139100213Y-80996934I-237500J0D01*
G01*
G37*
%TD*%
%TO.C,C4*%
G36*
G01*
X138994000Y-92853500D02*
X138994000Y-93328500D01*
G75*
G02*
X138756500Y-93566000I-237500J0D01*
G01*
X138156500Y-93566000D01*
G75*
G02*
X137919000Y-93328500I0J237500D01*
G01*
X137919000Y-92853500D01*
G75*
G02*
X138156500Y-92616000I237500J0D01*
G01*
X138756500Y-92616000D01*
G75*
G02*
X138994000Y-92853500I0J-237500D01*
G01*
G37*
G36*
G01*
X140719000Y-92853500D02*
X140719000Y-93328500D01*
G75*
G02*
X140481500Y-93566000I-237500J0D01*
G01*
X139881500Y-93566000D01*
G75*
G02*
X139644000Y-93328500I0J237500D01*
G01*
X139644000Y-92853500D01*
G75*
G02*
X139881500Y-92616000I237500J0D01*
G01*
X140481500Y-92616000D01*
G75*
G02*
X140719000Y-92853500I0J-237500D01*
G01*
G37*
%TD*%
%TO.C,C2*%
G36*
G01*
X143874500Y-93655000D02*
X143399500Y-93655000D01*
G75*
G02*
X143162000Y-93417500I0J237500D01*
G01*
X143162000Y-92817500D01*
G75*
G02*
X143399500Y-92580000I237500J0D01*
G01*
X143874500Y-92580000D01*
G75*
G02*
X144112000Y-92817500I0J-237500D01*
G01*
X144112000Y-93417500D01*
G75*
G02*
X143874500Y-93655000I-237500J0D01*
G01*
G37*
G36*
G01*
X143874500Y-95380000D02*
X143399500Y-95380000D01*
G75*
G02*
X143162000Y-95142500I0J237500D01*
G01*
X143162000Y-94542500D01*
G75*
G02*
X143399500Y-94305000I237500J0D01*
G01*
X143874500Y-94305000D01*
G75*
G02*
X144112000Y-94542500I0J-237500D01*
G01*
X144112000Y-95142500D01*
G75*
G02*
X143874500Y-95380000I-237500J0D01*
G01*
G37*
%TD*%
%TO.C,C1*%
G36*
G01*
X147899000Y-87613500D02*
X147899000Y-87138500D01*
G75*
G02*
X148136500Y-86901000I237500J0D01*
G01*
X148736500Y-86901000D01*
G75*
G02*
X148974000Y-87138500I0J-237500D01*
G01*
X148974000Y-87613500D01*
G75*
G02*
X148736500Y-87851000I-237500J0D01*
G01*
X148136500Y-87851000D01*
G75*
G02*
X147899000Y-87613500I0J237500D01*
G01*
G37*
G36*
G01*
X146174000Y-87613500D02*
X146174000Y-87138500D01*
G75*
G02*
X146411500Y-86901000I237500J0D01*
G01*
X147011500Y-86901000D01*
G75*
G02*
X147249000Y-87138500I0J-237500D01*
G01*
X147249000Y-87613500D01*
G75*
G02*
X147011500Y-87851000I-237500J0D01*
G01*
X146411500Y-87851000D01*
G75*
G02*
X146174000Y-87613500I0J237500D01*
G01*
G37*
%TD*%
M02*
