%TF.GenerationSoftware,KiCad,Pcbnew,(5.1.8-0-10_14)*%
%TF.CreationDate,2021-03-06T23:03:25+08:00*%
%TF.ProjectId,batt_board,62617474-5f62-46f6-9172-642e6b696361,v1.0.0*%
%TF.SameCoordinates,Original*%
%TF.FileFunction,Copper,L1,Top*%
%TF.FilePolarity,Positive*%
%FSLAX46Y46*%
G04 Gerber Fmt 4.6, Leading zero omitted, Abs format (unit mm)*
G04 Created by KiCad (PCBNEW (5.1.8-0-10_14)) date 2021-03-06 23:03:25*
%MOMM*%
%LPD*%
G01*
G04 APERTURE LIST*
%TA.AperFunction,ComponentPad*%
%ADD10R,1.700000X1.700000*%
%TD*%
%TA.AperFunction,ComponentPad*%
%ADD11O,1.700000X1.700000*%
%TD*%
%TA.AperFunction,SMDPad,CuDef*%
%ADD12R,2.100000X0.750000*%
%TD*%
%TA.AperFunction,ConnectorPad*%
%ADD13C,5.700000*%
%TD*%
%TA.AperFunction,ComponentPad*%
%ADD14C,3.600000*%
%TD*%
%TA.AperFunction,SMDPad,CuDef*%
%ADD15R,1.500000X2.000000*%
%TD*%
%TA.AperFunction,SMDPad,CuDef*%
%ADD16R,3.800000X2.000000*%
%TD*%
%TA.AperFunction,ComponentPad*%
%ADD17C,0.600000*%
%TD*%
%TA.AperFunction,SMDPad,CuDef*%
%ADD18R,0.600000X1.550000*%
%TD*%
%TA.AperFunction,SMDPad,CuDef*%
%ADD19R,4.500000X2.950000*%
%TD*%
%TA.AperFunction,SMDPad,CuDef*%
%ADD20R,3.100000X2.600000*%
%TD*%
%TA.AperFunction,SMDPad,CuDef*%
%ADD21R,1.800000X3.500000*%
%TD*%
%TA.AperFunction,ViaPad*%
%ADD22C,0.800000*%
%TD*%
%TA.AperFunction,Conductor*%
%ADD23C,0.500000*%
%TD*%
%TA.AperFunction,Conductor*%
%ADD24C,0.300000*%
%TD*%
%TA.AperFunction,Conductor*%
%ADD25C,0.250000*%
%TD*%
%TA.AperFunction,Conductor*%
%ADD26C,8.000000*%
%TD*%
%TA.AperFunction,Conductor*%
%ADD27C,0.254000*%
%TD*%
%TA.AperFunction,Conductor*%
%ADD28C,0.100000*%
%TD*%
G04 APERTURE END LIST*
D10*
%TO.P,Receiver1,1*%
%TO.N,GND*%
X134874000Y-70993000D03*
D11*
%TO.P,Receiver1,2*%
%TO.N,+5V*%
X137414000Y-70993000D03*
%TO.P,Receiver1,3*%
%TO.N,PPM*%
X139954000Y-70993000D03*
%TO.P,Receiver1,4*%
%TO.N,Net-(Receiver1-Pad4)*%
X142494000Y-70993000D03*
%TD*%
D12*
%TO.P,J6,6*%
%TO.N,PPM*%
X126387000Y-70485000D03*
%TO.P,J6,5*%
%TO.N,/ADC_IN*%
X122787000Y-70485000D03*
%TO.P,J6,4*%
%TO.N,PWM_CH4*%
X126387000Y-71755000D03*
%TO.P,J6,3*%
%TO.N,PWM_CH3*%
X122787000Y-71755000D03*
%TO.P,J6,2*%
%TO.N,PWM_CH2*%
X126387000Y-73025000D03*
%TO.P,J6,1*%
%TO.N,PWM_CH1*%
X122787000Y-73025000D03*
%TD*%
D11*
%TO.P,J1,3*%
%TO.N,+5V*%
X126365000Y-76708000D03*
%TO.P,J1,2*%
%TO.N,GND*%
X126365000Y-79248000D03*
D10*
%TO.P,J1,1*%
%TO.N,+3V3*%
X126365000Y-81788000D03*
%TD*%
%TO.P,C3,2*%
%TO.N,GND*%
%TA.AperFunction,SMDPad,CuDef*%
G36*
G01*
X141895003Y-87009000D02*
X140044997Y-87009000D01*
G75*
G02*
X139795000Y-86759003I0J249997D01*
G01*
X139795000Y-85933997D01*
G75*
G02*
X140044997Y-85684000I249997J0D01*
G01*
X141895003Y-85684000D01*
G75*
G02*
X142145000Y-85933997I0J-249997D01*
G01*
X142145000Y-86759003D01*
G75*
G02*
X141895003Y-87009000I-249997J0D01*
G01*
G37*
%TD.AperFunction*%
%TO.P,C3,1*%
%TO.N,+5V*%
%TA.AperFunction,SMDPad,CuDef*%
G36*
G01*
X141895003Y-90084000D02*
X140044997Y-90084000D01*
G75*
G02*
X139795000Y-89834003I0J249997D01*
G01*
X139795000Y-89008997D01*
G75*
G02*
X140044997Y-88759000I249997J0D01*
G01*
X141895003Y-88759000D01*
G75*
G02*
X142145000Y-89008997I0J-249997D01*
G01*
X142145000Y-89834003D01*
G75*
G02*
X141895003Y-90084000I-249997J0D01*
G01*
G37*
%TD.AperFunction*%
%TD*%
D13*
%TO.P,H4,1*%
%TO.N,GND*%
X160000000Y-65000000D03*
D14*
X160000000Y-65000000D03*
%TD*%
%TO.P,J11,1*%
%TO.N,/VCC_IN*%
%TA.AperFunction,SMDPad,CuDef*%
G36*
G01*
X146802390Y-60785976D02*
X149630818Y-57957548D01*
G75*
G02*
X155287672Y-57957548I2828427J-2828427D01*
G01*
X155287672Y-57957548D01*
G75*
G02*
X155287672Y-63614402I-2828427J-2828427D01*
G01*
X152459244Y-66442830D01*
G75*
G02*
X146802390Y-66442830I-2828427J2828427D01*
G01*
X146802390Y-66442830D01*
G75*
G02*
X146802390Y-60785976I2828427J2828427D01*
G01*
G37*
%TD.AperFunction*%
%TO.P,J11,2*%
%TO.N,GND*%
%TA.AperFunction,SMDPad,CuDef*%
G36*
G01*
X158476723Y-72460309D02*
X161305151Y-69631881D01*
G75*
G02*
X166962005Y-69631881I2828427J-2828427D01*
G01*
X166962005Y-69631881D01*
G75*
G02*
X166962005Y-75288735I-2828427J-2828427D01*
G01*
X164133577Y-78117163D01*
G75*
G02*
X158476723Y-78117163I-2828427J2828427D01*
G01*
X158476723Y-78117163D01*
G75*
G02*
X158476723Y-72460309I2828427J2828427D01*
G01*
G37*
%TD.AperFunction*%
%TD*%
D13*
%TO.P,H2,1*%
%TO.N,GND*%
X120000000Y-105000000D03*
D14*
X120000000Y-105000000D03*
%TD*%
D15*
%TO.P,U2,1*%
%TO.N,GND*%
X133463000Y-90653000D03*
%TO.P,U2,3*%
%TO.N,+5V*%
X138063000Y-90653000D03*
%TO.P,U2,2*%
%TO.N,+3V3*%
X135763000Y-90653000D03*
D16*
X135763000Y-84353000D03*
%TD*%
D17*
%TO.P,U1,9*%
%TO.N,GND*%
X149120000Y-91348000D03*
X148020000Y-91348000D03*
X148020000Y-92548000D03*
X149120000Y-92548000D03*
X145520000Y-91348000D03*
X146720000Y-91348000D03*
X146720000Y-92548000D03*
X145520000Y-92548000D03*
D18*
%TO.P,U1,8*%
%TO.N,Net-(C2-Pad2)*%
X145415000Y-89248000D03*
%TO.P,U1,7*%
%TO.N,/VCC_IN*%
X146685000Y-89248000D03*
%TO.P,U1,6*%
%TO.N,GND*%
X147955000Y-89248000D03*
%TO.P,U1,5*%
%TO.N,Net-(U1-Pad5)*%
X149225000Y-89248000D03*
%TO.P,U1,4*%
%TO.N,Net-(R6-Pad2)*%
X149225000Y-94648000D03*
%TO.P,U1,3*%
%TO.N,Net-(U1-Pad3)*%
X147955000Y-94648000D03*
%TO.P,U1,2*%
%TO.N,Net-(U1-Pad2)*%
X146685000Y-94648000D03*
%TO.P,U1,1*%
%TO.N,Net-(C2-Pad1)*%
X145415000Y-94648000D03*
D19*
%TO.P,U1,9*%
%TO.N,GND*%
X147320000Y-91948000D03*
D20*
X147320000Y-91948000D03*
%TD*%
%TO.P,R8,2*%
%TO.N,Net-(D7-Pad2)*%
%TA.AperFunction,SMDPad,CuDef*%
G36*
G01*
X130131000Y-88154500D02*
X130131000Y-88629500D01*
G75*
G02*
X129893500Y-88867000I-237500J0D01*
G01*
X129393500Y-88867000D01*
G75*
G02*
X129156000Y-88629500I0J237500D01*
G01*
X129156000Y-88154500D01*
G75*
G02*
X129393500Y-87917000I237500J0D01*
G01*
X129893500Y-87917000D01*
G75*
G02*
X130131000Y-88154500I0J-237500D01*
G01*
G37*
%TD.AperFunction*%
%TO.P,R8,1*%
%TO.N,+3V3*%
%TA.AperFunction,SMDPad,CuDef*%
G36*
G01*
X131956000Y-88154500D02*
X131956000Y-88629500D01*
G75*
G02*
X131718500Y-88867000I-237500J0D01*
G01*
X131218500Y-88867000D01*
G75*
G02*
X130981000Y-88629500I0J237500D01*
G01*
X130981000Y-88154500D01*
G75*
G02*
X131218500Y-87917000I237500J0D01*
G01*
X131718500Y-87917000D01*
G75*
G02*
X131956000Y-88154500I0J-237500D01*
G01*
G37*
%TD.AperFunction*%
%TD*%
%TO.P,R7,2*%
%TO.N,GND*%
%TA.AperFunction,SMDPad,CuDef*%
G36*
G01*
X138894000Y-94504500D02*
X138894000Y-94979500D01*
G75*
G02*
X138656500Y-95217000I-237500J0D01*
G01*
X138156500Y-95217000D01*
G75*
G02*
X137919000Y-94979500I0J237500D01*
G01*
X137919000Y-94504500D01*
G75*
G02*
X138156500Y-94267000I237500J0D01*
G01*
X138656500Y-94267000D01*
G75*
G02*
X138894000Y-94504500I0J-237500D01*
G01*
G37*
%TD.AperFunction*%
%TO.P,R7,1*%
%TO.N,Net-(R6-Pad2)*%
%TA.AperFunction,SMDPad,CuDef*%
G36*
G01*
X140719000Y-94504500D02*
X140719000Y-94979500D01*
G75*
G02*
X140481500Y-95217000I-237500J0D01*
G01*
X139981500Y-95217000D01*
G75*
G02*
X139744000Y-94979500I0J237500D01*
G01*
X139744000Y-94504500D01*
G75*
G02*
X139981500Y-94267000I237500J0D01*
G01*
X140481500Y-94267000D01*
G75*
G02*
X140719000Y-94504500I0J-237500D01*
G01*
G37*
%TD.AperFunction*%
%TD*%
%TO.P,R6,2*%
%TO.N,Net-(R6-Pad2)*%
%TA.AperFunction,SMDPad,CuDef*%
G36*
G01*
X141621500Y-94405000D02*
X142096500Y-94405000D01*
G75*
G02*
X142334000Y-94642500I0J-237500D01*
G01*
X142334000Y-95142500D01*
G75*
G02*
X142096500Y-95380000I-237500J0D01*
G01*
X141621500Y-95380000D01*
G75*
G02*
X141384000Y-95142500I0J237500D01*
G01*
X141384000Y-94642500D01*
G75*
G02*
X141621500Y-94405000I237500J0D01*
G01*
G37*
%TD.AperFunction*%
%TO.P,R6,1*%
%TO.N,+5V*%
%TA.AperFunction,SMDPad,CuDef*%
G36*
G01*
X141621500Y-92580000D02*
X142096500Y-92580000D01*
G75*
G02*
X142334000Y-92817500I0J-237500D01*
G01*
X142334000Y-93317500D01*
G75*
G02*
X142096500Y-93555000I-237500J0D01*
G01*
X141621500Y-93555000D01*
G75*
G02*
X141384000Y-93317500I0J237500D01*
G01*
X141384000Y-92817500D01*
G75*
G02*
X141621500Y-92580000I237500J0D01*
G01*
G37*
%TD.AperFunction*%
%TD*%
%TO.P,R5,1*%
%TO.N,+5V*%
%TA.AperFunction,SMDPad,CuDef*%
G36*
G01*
X140126964Y-74433233D02*
X140126964Y-73958233D01*
G75*
G02*
X140364464Y-73720733I237500J0D01*
G01*
X140864464Y-73720733D01*
G75*
G02*
X141101964Y-73958233I0J-237500D01*
G01*
X141101964Y-74433233D01*
G75*
G02*
X140864464Y-74670733I-237500J0D01*
G01*
X140364464Y-74670733D01*
G75*
G02*
X140126964Y-74433233I0J237500D01*
G01*
G37*
%TD.AperFunction*%
%TO.P,R5,2*%
%TO.N,Net-(D5-Pad2)*%
%TA.AperFunction,SMDPad,CuDef*%
G36*
G01*
X141951964Y-74433233D02*
X141951964Y-73958233D01*
G75*
G02*
X142189464Y-73720733I237500J0D01*
G01*
X142689464Y-73720733D01*
G75*
G02*
X142926964Y-73958233I0J-237500D01*
G01*
X142926964Y-74433233D01*
G75*
G02*
X142689464Y-74670733I-237500J0D01*
G01*
X142189464Y-74670733D01*
G75*
G02*
X141951964Y-74433233I0J237500D01*
G01*
G37*
%TD.AperFunction*%
%TD*%
%TO.P,R4,2*%
%TO.N,/VCC_IN*%
%TA.AperFunction,SMDPad,CuDef*%
G36*
G01*
X122028122Y-84706715D02*
X121553122Y-84706715D01*
G75*
G02*
X121315622Y-84469215I0J237500D01*
G01*
X121315622Y-83969215D01*
G75*
G02*
X121553122Y-83731715I237500J0D01*
G01*
X122028122Y-83731715D01*
G75*
G02*
X122265622Y-83969215I0J-237500D01*
G01*
X122265622Y-84469215D01*
G75*
G02*
X122028122Y-84706715I-237500J0D01*
G01*
G37*
%TD.AperFunction*%
%TO.P,R4,1*%
%TO.N,Net-(D4-Pad2)*%
%TA.AperFunction,SMDPad,CuDef*%
G36*
G01*
X122028122Y-86531715D02*
X121553122Y-86531715D01*
G75*
G02*
X121315622Y-86294215I0J237500D01*
G01*
X121315622Y-85794215D01*
G75*
G02*
X121553122Y-85556715I237500J0D01*
G01*
X122028122Y-85556715D01*
G75*
G02*
X122265622Y-85794215I0J-237500D01*
G01*
X122265622Y-86294215D01*
G75*
G02*
X122028122Y-86531715I-237500J0D01*
G01*
G37*
%TD.AperFunction*%
%TD*%
%TO.P,R3,2*%
%TO.N,/VCC_IN*%
%TA.AperFunction,SMDPad,CuDef*%
G36*
G01*
X139357000Y-103521500D02*
X139357000Y-103996500D01*
G75*
G02*
X139119500Y-104234000I-237500J0D01*
G01*
X138619500Y-104234000D01*
G75*
G02*
X138382000Y-103996500I0J237500D01*
G01*
X138382000Y-103521500D01*
G75*
G02*
X138619500Y-103284000I237500J0D01*
G01*
X139119500Y-103284000D01*
G75*
G02*
X139357000Y-103521500I0J-237500D01*
G01*
G37*
%TD.AperFunction*%
%TO.P,R3,1*%
%TO.N,Net-(D3-Pad2)*%
%TA.AperFunction,SMDPad,CuDef*%
G36*
G01*
X141182000Y-103521500D02*
X141182000Y-103996500D01*
G75*
G02*
X140944500Y-104234000I-237500J0D01*
G01*
X140444500Y-104234000D01*
G75*
G02*
X140207000Y-103996500I0J237500D01*
G01*
X140207000Y-103521500D01*
G75*
G02*
X140444500Y-103284000I237500J0D01*
G01*
X140944500Y-103284000D01*
G75*
G02*
X141182000Y-103521500I0J-237500D01*
G01*
G37*
%TD.AperFunction*%
%TD*%
%TO.P,R2,2*%
%TO.N,/VCC_IN*%
%TA.AperFunction,SMDPad,CuDef*%
G36*
G01*
X158258500Y-85668014D02*
X158733500Y-85668014D01*
G75*
G02*
X158971000Y-85905514I0J-237500D01*
G01*
X158971000Y-86405514D01*
G75*
G02*
X158733500Y-86643014I-237500J0D01*
G01*
X158258500Y-86643014D01*
G75*
G02*
X158021000Y-86405514I0J237500D01*
G01*
X158021000Y-85905514D01*
G75*
G02*
X158258500Y-85668014I237500J0D01*
G01*
G37*
%TD.AperFunction*%
%TO.P,R2,1*%
%TO.N,Net-(D2-Pad2)*%
%TA.AperFunction,SMDPad,CuDef*%
G36*
G01*
X158258500Y-83843014D02*
X158733500Y-83843014D01*
G75*
G02*
X158971000Y-84080514I0J-237500D01*
G01*
X158971000Y-84580514D01*
G75*
G02*
X158733500Y-84818014I-237500J0D01*
G01*
X158258500Y-84818014D01*
G75*
G02*
X158021000Y-84580514I0J237500D01*
G01*
X158021000Y-84080514D01*
G75*
G02*
X158258500Y-83843014I237500J0D01*
G01*
G37*
%TD.AperFunction*%
%TD*%
%TO.P,R1,2*%
%TO.N,/VCC_IN*%
%TA.AperFunction,SMDPad,CuDef*%
G36*
G01*
X140125000Y-66531500D02*
X140125000Y-66056500D01*
G75*
G02*
X140362500Y-65819000I237500J0D01*
G01*
X140862500Y-65819000D01*
G75*
G02*
X141100000Y-66056500I0J-237500D01*
G01*
X141100000Y-66531500D01*
G75*
G02*
X140862500Y-66769000I-237500J0D01*
G01*
X140362500Y-66769000D01*
G75*
G02*
X140125000Y-66531500I0J237500D01*
G01*
G37*
%TD.AperFunction*%
%TO.P,R1,1*%
%TO.N,Net-(D1-Pad2)*%
%TA.AperFunction,SMDPad,CuDef*%
G36*
G01*
X138300000Y-66531500D02*
X138300000Y-66056500D01*
G75*
G02*
X138537500Y-65819000I237500J0D01*
G01*
X139037500Y-65819000D01*
G75*
G02*
X139275000Y-66056500I0J-237500D01*
G01*
X139275000Y-66531500D01*
G75*
G02*
X139037500Y-66769000I-237500J0D01*
G01*
X138537500Y-66769000D01*
G75*
G02*
X138300000Y-66531500I0J237500D01*
G01*
G37*
%TD.AperFunction*%
%TD*%
%TO.P,L1,2*%
%TO.N,+5V*%
%TA.AperFunction,SMDPad,CuDef*%
G36*
G01*
X142323000Y-90948500D02*
X142323000Y-91423500D01*
G75*
G02*
X142085500Y-91661000I-237500J0D01*
G01*
X141585500Y-91661000D01*
G75*
G02*
X141348000Y-91423500I0J237500D01*
G01*
X141348000Y-90948500D01*
G75*
G02*
X141585500Y-90711000I237500J0D01*
G01*
X142085500Y-90711000D01*
G75*
G02*
X142323000Y-90948500I0J-237500D01*
G01*
G37*
%TD.AperFunction*%
%TO.P,L1,1*%
%TO.N,Net-(C2-Pad2)*%
%TA.AperFunction,SMDPad,CuDef*%
G36*
G01*
X144148000Y-90948500D02*
X144148000Y-91423500D01*
G75*
G02*
X143910500Y-91661000I-237500J0D01*
G01*
X143410500Y-91661000D01*
G75*
G02*
X143173000Y-91423500I0J237500D01*
G01*
X143173000Y-90948500D01*
G75*
G02*
X143410500Y-90711000I237500J0D01*
G01*
X143910500Y-90711000D01*
G75*
G02*
X144148000Y-90948500I0J-237500D01*
G01*
G37*
%TD.AperFunction*%
%TD*%
D13*
%TO.P,H3,1*%
%TO.N,GND*%
X160000000Y-105000000D03*
D14*
X160000000Y-105000000D03*
%TD*%
D13*
%TO.P,H1,1*%
%TO.N,GND*%
X120000000Y-65000000D03*
D14*
X120000000Y-65000000D03*
%TD*%
%TO.P,D7,2*%
%TO.N,Net-(D7-Pad2)*%
%TA.AperFunction,SMDPad,CuDef*%
G36*
G01*
X130206000Y-86630500D02*
X130206000Y-87105500D01*
G75*
G02*
X129968500Y-87343000I-237500J0D01*
G01*
X129393500Y-87343000D01*
G75*
G02*
X129156000Y-87105500I0J237500D01*
G01*
X129156000Y-86630500D01*
G75*
G02*
X129393500Y-86393000I237500J0D01*
G01*
X129968500Y-86393000D01*
G75*
G02*
X130206000Y-86630500I0J-237500D01*
G01*
G37*
%TD.AperFunction*%
%TO.P,D7,1*%
%TO.N,GND*%
%TA.AperFunction,SMDPad,CuDef*%
G36*
G01*
X131956000Y-86630500D02*
X131956000Y-87105500D01*
G75*
G02*
X131718500Y-87343000I-237500J0D01*
G01*
X131143500Y-87343000D01*
G75*
G02*
X130906000Y-87105500I0J237500D01*
G01*
X130906000Y-86630500D01*
G75*
G02*
X131143500Y-86393000I237500J0D01*
G01*
X131718500Y-86393000D01*
G75*
G02*
X131956000Y-86630500I0J-237500D01*
G01*
G37*
%TD.AperFunction*%
%TD*%
D21*
%TO.P,D6,2*%
%TO.N,GND*%
X144272000Y-81193000D03*
%TO.P,D6,1*%
%TO.N,Net-(C2-Pad2)*%
X144272000Y-86193000D03*
%TD*%
%TO.P,D5,1*%
%TO.N,GND*%
%TA.AperFunction,SMDPad,CuDef*%
G36*
G01*
X140126964Y-75870074D02*
X140126964Y-75395074D01*
G75*
G02*
X140364464Y-75157574I237500J0D01*
G01*
X140939464Y-75157574D01*
G75*
G02*
X141176964Y-75395074I0J-237500D01*
G01*
X141176964Y-75870074D01*
G75*
G02*
X140939464Y-76107574I-237500J0D01*
G01*
X140364464Y-76107574D01*
G75*
G02*
X140126964Y-75870074I0J237500D01*
G01*
G37*
%TD.AperFunction*%
%TO.P,D5,2*%
%TO.N,Net-(D5-Pad2)*%
%TA.AperFunction,SMDPad,CuDef*%
G36*
G01*
X141876964Y-75870074D02*
X141876964Y-75395074D01*
G75*
G02*
X142114464Y-75157574I237500J0D01*
G01*
X142689464Y-75157574D01*
G75*
G02*
X142926964Y-75395074I0J-237500D01*
G01*
X142926964Y-75870074D01*
G75*
G02*
X142689464Y-76107574I-237500J0D01*
G01*
X142114464Y-76107574D01*
G75*
G02*
X141876964Y-75870074I0J237500D01*
G01*
G37*
%TD.AperFunction*%
%TD*%
%TO.P,D4,2*%
%TO.N,Net-(D4-Pad2)*%
%TA.AperFunction,SMDPad,CuDef*%
G36*
G01*
X119936676Y-85481715D02*
X120411676Y-85481715D01*
G75*
G02*
X120649176Y-85719215I0J-237500D01*
G01*
X120649176Y-86294215D01*
G75*
G02*
X120411676Y-86531715I-237500J0D01*
G01*
X119936676Y-86531715D01*
G75*
G02*
X119699176Y-86294215I0J237500D01*
G01*
X119699176Y-85719215D01*
G75*
G02*
X119936676Y-85481715I237500J0D01*
G01*
G37*
%TD.AperFunction*%
%TO.P,D4,1*%
%TO.N,GND*%
%TA.AperFunction,SMDPad,CuDef*%
G36*
G01*
X119936676Y-83731715D02*
X120411676Y-83731715D01*
G75*
G02*
X120649176Y-83969215I0J-237500D01*
G01*
X120649176Y-84544215D01*
G75*
G02*
X120411676Y-84781715I-237500J0D01*
G01*
X119936676Y-84781715D01*
G75*
G02*
X119699176Y-84544215I0J237500D01*
G01*
X119699176Y-83969215D01*
G75*
G02*
X119936676Y-83731715I237500J0D01*
G01*
G37*
%TD.AperFunction*%
%TD*%
%TO.P,D3,2*%
%TO.N,Net-(D3-Pad2)*%
%TA.AperFunction,SMDPad,CuDef*%
G36*
G01*
X140132000Y-105520500D02*
X140132000Y-105045500D01*
G75*
G02*
X140369500Y-104808000I237500J0D01*
G01*
X140944500Y-104808000D01*
G75*
G02*
X141182000Y-105045500I0J-237500D01*
G01*
X141182000Y-105520500D01*
G75*
G02*
X140944500Y-105758000I-237500J0D01*
G01*
X140369500Y-105758000D01*
G75*
G02*
X140132000Y-105520500I0J237500D01*
G01*
G37*
%TD.AperFunction*%
%TO.P,D3,1*%
%TO.N,GND*%
%TA.AperFunction,SMDPad,CuDef*%
G36*
G01*
X138382000Y-105520500D02*
X138382000Y-105045500D01*
G75*
G02*
X138619500Y-104808000I237500J0D01*
G01*
X139194500Y-104808000D01*
G75*
G02*
X139432000Y-105045500I0J-237500D01*
G01*
X139432000Y-105520500D01*
G75*
G02*
X139194500Y-105758000I-237500J0D01*
G01*
X138619500Y-105758000D01*
G75*
G02*
X138382000Y-105520500I0J237500D01*
G01*
G37*
%TD.AperFunction*%
%TD*%
%TO.P,D2,2*%
%TO.N,Net-(D2-Pad2)*%
%TA.AperFunction,SMDPad,CuDef*%
G36*
G01*
X160257500Y-84867000D02*
X159782500Y-84867000D01*
G75*
G02*
X159545000Y-84629500I0J237500D01*
G01*
X159545000Y-84054500D01*
G75*
G02*
X159782500Y-83817000I237500J0D01*
G01*
X160257500Y-83817000D01*
G75*
G02*
X160495000Y-84054500I0J-237500D01*
G01*
X160495000Y-84629500D01*
G75*
G02*
X160257500Y-84867000I-237500J0D01*
G01*
G37*
%TD.AperFunction*%
%TO.P,D2,1*%
%TO.N,GND*%
%TA.AperFunction,SMDPad,CuDef*%
G36*
G01*
X160257500Y-86617000D02*
X159782500Y-86617000D01*
G75*
G02*
X159545000Y-86379500I0J237500D01*
G01*
X159545000Y-85804500D01*
G75*
G02*
X159782500Y-85567000I237500J0D01*
G01*
X160257500Y-85567000D01*
G75*
G02*
X160495000Y-85804500I0J-237500D01*
G01*
X160495000Y-86379500D01*
G75*
G02*
X160257500Y-86617000I-237500J0D01*
G01*
G37*
%TD.AperFunction*%
%TD*%
%TO.P,D1,2*%
%TO.N,Net-(D1-Pad2)*%
%TA.AperFunction,SMDPad,CuDef*%
G36*
G01*
X139350000Y-64532500D02*
X139350000Y-65007500D01*
G75*
G02*
X139112500Y-65245000I-237500J0D01*
G01*
X138537500Y-65245000D01*
G75*
G02*
X138300000Y-65007500I0J237500D01*
G01*
X138300000Y-64532500D01*
G75*
G02*
X138537500Y-64295000I237500J0D01*
G01*
X139112500Y-64295000D01*
G75*
G02*
X139350000Y-64532500I0J-237500D01*
G01*
G37*
%TD.AperFunction*%
%TO.P,D1,1*%
%TO.N,GND*%
%TA.AperFunction,SMDPad,CuDef*%
G36*
G01*
X141100000Y-64532500D02*
X141100000Y-65007500D01*
G75*
G02*
X140862500Y-65245000I-237500J0D01*
G01*
X140287500Y-65245000D01*
G75*
G02*
X140050000Y-65007500I0J237500D01*
G01*
X140050000Y-64532500D01*
G75*
G02*
X140287500Y-64295000I237500J0D01*
G01*
X140862500Y-64295000D01*
G75*
G02*
X141100000Y-64532500I0J-237500D01*
G01*
G37*
%TD.AperFunction*%
%TD*%
D11*
%TO.P,CH4,2*%
%TO.N,GND*%
X117475000Y-83820000D03*
D10*
%TO.P,CH4,1*%
%TO.N,PWM_CH4*%
X117475000Y-86360000D03*
%TD*%
D11*
%TO.P,CH3,2*%
%TO.N,GND*%
X138532200Y-107950000D03*
D10*
%TO.P,CH3,1*%
%TO.N,PWM_CH3*%
X141072200Y-107950000D03*
%TD*%
D11*
%TO.P,CH2,2*%
%TO.N,GND*%
X162560000Y-83820000D03*
D10*
%TO.P,CH2,1*%
%TO.N,PWM_CH2*%
X162560000Y-86360000D03*
%TD*%
D11*
%TO.P,CH1,2*%
%TO.N,GND*%
X138430000Y-62230000D03*
D10*
%TO.P,CH1,1*%
%TO.N,PWM_CH1*%
X140970000Y-62230000D03*
%TD*%
%TO.P,C14,2*%
%TO.N,GND*%
%TA.AperFunction,SMDPad,CuDef*%
G36*
G01*
X137008767Y-78254036D02*
X137483767Y-78254036D01*
G75*
G02*
X137721267Y-78491536I0J-237500D01*
G01*
X137721267Y-79091536D01*
G75*
G02*
X137483767Y-79329036I-237500J0D01*
G01*
X137008767Y-79329036D01*
G75*
G02*
X136771267Y-79091536I0J237500D01*
G01*
X136771267Y-78491536D01*
G75*
G02*
X137008767Y-78254036I237500J0D01*
G01*
G37*
%TD.AperFunction*%
%TO.P,C14,1*%
%TO.N,+5V*%
%TA.AperFunction,SMDPad,CuDef*%
G36*
G01*
X137008767Y-76529036D02*
X137483767Y-76529036D01*
G75*
G02*
X137721267Y-76766536I0J-237500D01*
G01*
X137721267Y-77366536D01*
G75*
G02*
X137483767Y-77604036I-237500J0D01*
G01*
X137008767Y-77604036D01*
G75*
G02*
X136771267Y-77366536I0J237500D01*
G01*
X136771267Y-76766536D01*
G75*
G02*
X137008767Y-76529036I237500J0D01*
G01*
G37*
%TD.AperFunction*%
%TD*%
%TO.P,C13,2*%
%TO.N,+5V*%
%TA.AperFunction,SMDPad,CuDef*%
G36*
G01*
X135867321Y-77568511D02*
X135392321Y-77568511D01*
G75*
G02*
X135154821Y-77331011I0J237500D01*
G01*
X135154821Y-76731011D01*
G75*
G02*
X135392321Y-76493511I237500J0D01*
G01*
X135867321Y-76493511D01*
G75*
G02*
X136104821Y-76731011I0J-237500D01*
G01*
X136104821Y-77331011D01*
G75*
G02*
X135867321Y-77568511I-237500J0D01*
G01*
G37*
%TD.AperFunction*%
%TO.P,C13,1*%
%TO.N,GND*%
%TA.AperFunction,SMDPad,CuDef*%
G36*
G01*
X135867321Y-79293511D02*
X135392321Y-79293511D01*
G75*
G02*
X135154821Y-79056011I0J237500D01*
G01*
X135154821Y-78456011D01*
G75*
G02*
X135392321Y-78218511I237500J0D01*
G01*
X135867321Y-78218511D01*
G75*
G02*
X136104821Y-78456011I0J-237500D01*
G01*
X136104821Y-79056011D01*
G75*
G02*
X135867321Y-79293511I-237500J0D01*
G01*
G37*
%TD.AperFunction*%
%TD*%
%TO.P,C12,2*%
%TO.N,GND*%
%TA.AperFunction,SMDPad,CuDef*%
G36*
G01*
X132159429Y-78218511D02*
X132634429Y-78218511D01*
G75*
G02*
X132871929Y-78456011I0J-237500D01*
G01*
X132871929Y-79056011D01*
G75*
G02*
X132634429Y-79293511I-237500J0D01*
G01*
X132159429Y-79293511D01*
G75*
G02*
X131921929Y-79056011I0J237500D01*
G01*
X131921929Y-78456011D01*
G75*
G02*
X132159429Y-78218511I237500J0D01*
G01*
G37*
%TD.AperFunction*%
%TO.P,C12,1*%
%TO.N,+5V*%
%TA.AperFunction,SMDPad,CuDef*%
G36*
G01*
X132159429Y-76493511D02*
X132634429Y-76493511D01*
G75*
G02*
X132871929Y-76731011I0J-237500D01*
G01*
X132871929Y-77331011D01*
G75*
G02*
X132634429Y-77568511I-237500J0D01*
G01*
X132159429Y-77568511D01*
G75*
G02*
X131921929Y-77331011I0J237500D01*
G01*
X131921929Y-76731011D01*
G75*
G02*
X132159429Y-76493511I237500J0D01*
G01*
G37*
%TD.AperFunction*%
%TD*%
%TO.P,C11,2*%
%TO.N,+5V*%
%TA.AperFunction,SMDPad,CuDef*%
G36*
G01*
X134250875Y-77604036D02*
X133775875Y-77604036D01*
G75*
G02*
X133538375Y-77366536I0J237500D01*
G01*
X133538375Y-76766536D01*
G75*
G02*
X133775875Y-76529036I237500J0D01*
G01*
X134250875Y-76529036D01*
G75*
G02*
X134488375Y-76766536I0J-237500D01*
G01*
X134488375Y-77366536D01*
G75*
G02*
X134250875Y-77604036I-237500J0D01*
G01*
G37*
%TD.AperFunction*%
%TO.P,C11,1*%
%TO.N,GND*%
%TA.AperFunction,SMDPad,CuDef*%
G36*
G01*
X134250875Y-79329036D02*
X133775875Y-79329036D01*
G75*
G02*
X133538375Y-79091536I0J237500D01*
G01*
X133538375Y-78491536D01*
G75*
G02*
X133775875Y-78254036I237500J0D01*
G01*
X134250875Y-78254036D01*
G75*
G02*
X134488375Y-78491536I0J-237500D01*
G01*
X134488375Y-79091536D01*
G75*
G02*
X134250875Y-79329036I-237500J0D01*
G01*
G37*
%TD.AperFunction*%
%TD*%
%TO.P,C10,1*%
%TO.N,+5V*%
%TA.AperFunction,SMDPad,CuDef*%
G36*
G01*
X138625213Y-76529036D02*
X139100213Y-76529036D01*
G75*
G02*
X139337713Y-76766536I0J-237500D01*
G01*
X139337713Y-77366536D01*
G75*
G02*
X139100213Y-77604036I-237500J0D01*
G01*
X138625213Y-77604036D01*
G75*
G02*
X138387713Y-77366536I0J237500D01*
G01*
X138387713Y-76766536D01*
G75*
G02*
X138625213Y-76529036I237500J0D01*
G01*
G37*
%TD.AperFunction*%
%TO.P,C10,2*%
%TO.N,GND*%
%TA.AperFunction,SMDPad,CuDef*%
G36*
G01*
X138625213Y-78254036D02*
X139100213Y-78254036D01*
G75*
G02*
X139337713Y-78491536I0J-237500D01*
G01*
X139337713Y-79091536D01*
G75*
G02*
X139100213Y-79329036I-237500J0D01*
G01*
X138625213Y-79329036D01*
G75*
G02*
X138387713Y-79091536I0J237500D01*
G01*
X138387713Y-78491536D01*
G75*
G02*
X138625213Y-78254036I237500J0D01*
G01*
G37*
%TD.AperFunction*%
%TD*%
%TO.P,C9,2*%
%TO.N,GND*%
%TA.AperFunction,SMDPad,CuDef*%
G36*
G01*
X137483767Y-80996934D02*
X137008767Y-80996934D01*
G75*
G02*
X136771267Y-80759434I0J237500D01*
G01*
X136771267Y-80159434D01*
G75*
G02*
X137008767Y-79921934I237500J0D01*
G01*
X137483767Y-79921934D01*
G75*
G02*
X137721267Y-80159434I0J-237500D01*
G01*
X137721267Y-80759434D01*
G75*
G02*
X137483767Y-80996934I-237500J0D01*
G01*
G37*
%TD.AperFunction*%
%TO.P,C9,1*%
%TO.N,+3V3*%
%TA.AperFunction,SMDPad,CuDef*%
G36*
G01*
X137483767Y-82721934D02*
X137008767Y-82721934D01*
G75*
G02*
X136771267Y-82484434I0J237500D01*
G01*
X136771267Y-81884434D01*
G75*
G02*
X137008767Y-81646934I237500J0D01*
G01*
X137483767Y-81646934D01*
G75*
G02*
X137721267Y-81884434I0J-237500D01*
G01*
X137721267Y-82484434D01*
G75*
G02*
X137483767Y-82721934I-237500J0D01*
G01*
G37*
%TD.AperFunction*%
%TD*%
%TO.P,C8,2*%
%TO.N,+3V3*%
%TA.AperFunction,SMDPad,CuDef*%
G36*
G01*
X135392321Y-81646934D02*
X135867321Y-81646934D01*
G75*
G02*
X136104821Y-81884434I0J-237500D01*
G01*
X136104821Y-82484434D01*
G75*
G02*
X135867321Y-82721934I-237500J0D01*
G01*
X135392321Y-82721934D01*
G75*
G02*
X135154821Y-82484434I0J237500D01*
G01*
X135154821Y-81884434D01*
G75*
G02*
X135392321Y-81646934I237500J0D01*
G01*
G37*
%TD.AperFunction*%
%TO.P,C8,1*%
%TO.N,GND*%
%TA.AperFunction,SMDPad,CuDef*%
G36*
G01*
X135392321Y-79921934D02*
X135867321Y-79921934D01*
G75*
G02*
X136104821Y-80159434I0J-237500D01*
G01*
X136104821Y-80759434D01*
G75*
G02*
X135867321Y-80996934I-237500J0D01*
G01*
X135392321Y-80996934D01*
G75*
G02*
X135154821Y-80759434I0J237500D01*
G01*
X135154821Y-80159434D01*
G75*
G02*
X135392321Y-79921934I237500J0D01*
G01*
G37*
%TD.AperFunction*%
%TD*%
%TO.P,C7,2*%
%TO.N,GND*%
%TA.AperFunction,SMDPad,CuDef*%
G36*
G01*
X134250875Y-80996934D02*
X133775875Y-80996934D01*
G75*
G02*
X133538375Y-80759434I0J237500D01*
G01*
X133538375Y-80159434D01*
G75*
G02*
X133775875Y-79921934I237500J0D01*
G01*
X134250875Y-79921934D01*
G75*
G02*
X134488375Y-80159434I0J-237500D01*
G01*
X134488375Y-80759434D01*
G75*
G02*
X134250875Y-80996934I-237500J0D01*
G01*
G37*
%TD.AperFunction*%
%TO.P,C7,1*%
%TO.N,+3V3*%
%TA.AperFunction,SMDPad,CuDef*%
G36*
G01*
X134250875Y-82721934D02*
X133775875Y-82721934D01*
G75*
G02*
X133538375Y-82484434I0J237500D01*
G01*
X133538375Y-81884434D01*
G75*
G02*
X133775875Y-81646934I237500J0D01*
G01*
X134250875Y-81646934D01*
G75*
G02*
X134488375Y-81884434I0J-237500D01*
G01*
X134488375Y-82484434D01*
G75*
G02*
X134250875Y-82721934I-237500J0D01*
G01*
G37*
%TD.AperFunction*%
%TD*%
%TO.P,C6,2*%
%TO.N,+3V3*%
%TA.AperFunction,SMDPad,CuDef*%
G36*
G01*
X132159429Y-81646934D02*
X132634429Y-81646934D01*
G75*
G02*
X132871929Y-81884434I0J-237500D01*
G01*
X132871929Y-82484434D01*
G75*
G02*
X132634429Y-82721934I-237500J0D01*
G01*
X132159429Y-82721934D01*
G75*
G02*
X131921929Y-82484434I0J237500D01*
G01*
X131921929Y-81884434D01*
G75*
G02*
X132159429Y-81646934I237500J0D01*
G01*
G37*
%TD.AperFunction*%
%TO.P,C6,1*%
%TO.N,GND*%
%TA.AperFunction,SMDPad,CuDef*%
G36*
G01*
X132159429Y-79921934D02*
X132634429Y-79921934D01*
G75*
G02*
X132871929Y-80159434I0J-237500D01*
G01*
X132871929Y-80759434D01*
G75*
G02*
X132634429Y-80996934I-237500J0D01*
G01*
X132159429Y-80996934D01*
G75*
G02*
X131921929Y-80759434I0J237500D01*
G01*
X131921929Y-80159434D01*
G75*
G02*
X132159429Y-79921934I237500J0D01*
G01*
G37*
%TD.AperFunction*%
%TD*%
%TO.P,C5,1*%
%TO.N,+3V3*%
%TA.AperFunction,SMDPad,CuDef*%
G36*
G01*
X139100213Y-82721934D02*
X138625213Y-82721934D01*
G75*
G02*
X138387713Y-82484434I0J237500D01*
G01*
X138387713Y-81884434D01*
G75*
G02*
X138625213Y-81646934I237500J0D01*
G01*
X139100213Y-81646934D01*
G75*
G02*
X139337713Y-81884434I0J-237500D01*
G01*
X139337713Y-82484434D01*
G75*
G02*
X139100213Y-82721934I-237500J0D01*
G01*
G37*
%TD.AperFunction*%
%TO.P,C5,2*%
%TO.N,GND*%
%TA.AperFunction,SMDPad,CuDef*%
G36*
G01*
X139100213Y-80996934D02*
X138625213Y-80996934D01*
G75*
G02*
X138387713Y-80759434I0J237500D01*
G01*
X138387713Y-80159434D01*
G75*
G02*
X138625213Y-79921934I237500J0D01*
G01*
X139100213Y-79921934D01*
G75*
G02*
X139337713Y-80159434I0J-237500D01*
G01*
X139337713Y-80759434D01*
G75*
G02*
X139100213Y-80996934I-237500J0D01*
G01*
G37*
%TD.AperFunction*%
%TD*%
%TO.P,C4,2*%
%TO.N,GND*%
%TA.AperFunction,SMDPad,CuDef*%
G36*
G01*
X138994000Y-92853500D02*
X138994000Y-93328500D01*
G75*
G02*
X138756500Y-93566000I-237500J0D01*
G01*
X138156500Y-93566000D01*
G75*
G02*
X137919000Y-93328500I0J237500D01*
G01*
X137919000Y-92853500D01*
G75*
G02*
X138156500Y-92616000I237500J0D01*
G01*
X138756500Y-92616000D01*
G75*
G02*
X138994000Y-92853500I0J-237500D01*
G01*
G37*
%TD.AperFunction*%
%TO.P,C4,1*%
%TO.N,+5V*%
%TA.AperFunction,SMDPad,CuDef*%
G36*
G01*
X140719000Y-92853500D02*
X140719000Y-93328500D01*
G75*
G02*
X140481500Y-93566000I-237500J0D01*
G01*
X139881500Y-93566000D01*
G75*
G02*
X139644000Y-93328500I0J237500D01*
G01*
X139644000Y-92853500D01*
G75*
G02*
X139881500Y-92616000I237500J0D01*
G01*
X140481500Y-92616000D01*
G75*
G02*
X140719000Y-92853500I0J-237500D01*
G01*
G37*
%TD.AperFunction*%
%TD*%
%TO.P,C2,2*%
%TO.N,Net-(C2-Pad2)*%
%TA.AperFunction,SMDPad,CuDef*%
G36*
G01*
X143874500Y-93655000D02*
X143399500Y-93655000D01*
G75*
G02*
X143162000Y-93417500I0J237500D01*
G01*
X143162000Y-92817500D01*
G75*
G02*
X143399500Y-92580000I237500J0D01*
G01*
X143874500Y-92580000D01*
G75*
G02*
X144112000Y-92817500I0J-237500D01*
G01*
X144112000Y-93417500D01*
G75*
G02*
X143874500Y-93655000I-237500J0D01*
G01*
G37*
%TD.AperFunction*%
%TO.P,C2,1*%
%TO.N,Net-(C2-Pad1)*%
%TA.AperFunction,SMDPad,CuDef*%
G36*
G01*
X143874500Y-95380000D02*
X143399500Y-95380000D01*
G75*
G02*
X143162000Y-95142500I0J237500D01*
G01*
X143162000Y-94542500D01*
G75*
G02*
X143399500Y-94305000I237500J0D01*
G01*
X143874500Y-94305000D01*
G75*
G02*
X144112000Y-94542500I0J-237500D01*
G01*
X144112000Y-95142500D01*
G75*
G02*
X143874500Y-95380000I-237500J0D01*
G01*
G37*
%TD.AperFunction*%
%TD*%
%TO.P,C1,2*%
%TO.N,GND*%
%TA.AperFunction,SMDPad,CuDef*%
G36*
G01*
X147899000Y-87613500D02*
X147899000Y-87138500D01*
G75*
G02*
X148136500Y-86901000I237500J0D01*
G01*
X148736500Y-86901000D01*
G75*
G02*
X148974000Y-87138500I0J-237500D01*
G01*
X148974000Y-87613500D01*
G75*
G02*
X148736500Y-87851000I-237500J0D01*
G01*
X148136500Y-87851000D01*
G75*
G02*
X147899000Y-87613500I0J237500D01*
G01*
G37*
%TD.AperFunction*%
%TO.P,C1,1*%
%TO.N,/VCC_IN*%
%TA.AperFunction,SMDPad,CuDef*%
G36*
G01*
X146174000Y-87613500D02*
X146174000Y-87138500D01*
G75*
G02*
X146411500Y-86901000I237500J0D01*
G01*
X147011500Y-86901000D01*
G75*
G02*
X147249000Y-87138500I0J-237500D01*
G01*
X147249000Y-87613500D01*
G75*
G02*
X147011500Y-87851000I-237500J0D01*
G01*
X146411500Y-87851000D01*
G75*
G02*
X146174000Y-87613500I0J237500D01*
G01*
G37*
%TD.AperFunction*%
%TD*%
D22*
%TO.N,GND*%
X120142000Y-84328000D03*
X120650000Y-80010000D03*
X133350000Y-67310000D03*
X132080000Y-67310000D03*
X130810000Y-67310000D03*
X157480000Y-73660000D03*
X157480000Y-74930000D03*
X157480000Y-76200000D03*
X158750000Y-77470000D03*
X158750000Y-76200000D03*
X158750000Y-74930000D03*
X158750000Y-73660000D03*
X128270000Y-106680000D03*
X128270000Y-107950000D03*
X128270000Y-104140000D03*
X128270000Y-105410000D03*
X129540000Y-102870000D03*
X133350000Y-66040000D03*
X132080000Y-66040000D03*
X130810000Y-66040000D03*
X129540000Y-66040000D03*
X128270000Y-64770000D03*
X129540000Y-64770000D03*
X130810000Y-64770000D03*
X132080000Y-64770000D03*
X133350000Y-64770000D03*
X134620000Y-64770000D03*
X134620000Y-63500000D03*
X133350000Y-63500000D03*
X132080000Y-62230000D03*
X132080000Y-63500000D03*
X130810000Y-63500000D03*
X128270000Y-63500000D03*
X129540000Y-63500000D03*
X130810000Y-62230000D03*
X128270000Y-62230000D03*
X129540000Y-62230000D03*
X130810000Y-62230000D03*
X133350000Y-62230000D03*
X134620000Y-62230000D03*
X121920000Y-74930000D03*
X121920000Y-76200000D03*
X121920000Y-77470000D03*
X121920000Y-78740000D03*
X120650000Y-78740000D03*
X120650000Y-77470000D03*
X120650000Y-76200000D03*
X120650000Y-74930000D03*
X120650000Y-73660000D03*
X118110000Y-73660000D03*
X119380000Y-73660000D03*
X119380000Y-74930000D03*
X118110000Y-74930000D03*
X118110000Y-76200000D03*
X119380000Y-76200000D03*
X119380000Y-77470000D03*
X118110000Y-77470000D03*
X118110000Y-78740000D03*
X119380000Y-78740000D03*
X119380000Y-80010000D03*
X118110000Y-80010000D03*
X116840000Y-80010000D03*
X116840000Y-78740000D03*
X116840000Y-77470000D03*
X116840000Y-76200000D03*
X116840000Y-74930000D03*
X116840000Y-73660000D03*
X130810000Y-102870000D03*
X132080000Y-102870000D03*
X133350000Y-102870000D03*
X134620000Y-105410000D03*
X134620000Y-104140000D03*
X133350000Y-104140000D03*
X132080000Y-104140000D03*
X130810000Y-104140000D03*
X129540000Y-104140000D03*
X129540000Y-105410000D03*
X130810000Y-105410000D03*
X132080000Y-105410000D03*
X133350000Y-105410000D03*
X133350000Y-106680000D03*
X130810000Y-107950000D03*
X129540000Y-107950000D03*
X132080000Y-107950000D03*
X133350000Y-107950000D03*
X134620000Y-107950000D03*
X134620000Y-106680000D03*
X132080000Y-106680000D03*
X130810000Y-106680000D03*
X129540000Y-106680000D03*
X162560000Y-69850000D03*
X162560000Y-71120000D03*
X161290000Y-71120000D03*
X160020000Y-72390000D03*
X161290000Y-72390000D03*
X162560000Y-72390000D03*
X160020000Y-78740000D03*
X161290000Y-78740000D03*
X162560000Y-78740000D03*
X162560000Y-77470000D03*
X161290000Y-77470000D03*
X160020000Y-77470000D03*
X160020000Y-76200000D03*
X160020000Y-74930000D03*
X161290000Y-76200000D03*
X161290000Y-74930000D03*
X162560000Y-76200000D03*
X162560000Y-74930000D03*
X162560000Y-73660000D03*
X161290000Y-73660000D03*
X160020000Y-73660000D03*
X142621000Y-65532000D03*
X130810000Y-79502000D03*
X131431000Y-84977000D03*
X140651964Y-77405964D03*
X138862713Y-78791536D03*
X138862713Y-80459434D03*
X141986000Y-84582000D03*
X141986000Y-83566000D03*
X141986000Y-82423000D03*
X136525000Y-69342000D03*
%TO.N,/VCC_IN*%
X151130000Y-67310000D03*
X149860000Y-67310000D03*
X148590000Y-67310000D03*
X147320000Y-67310000D03*
X158750000Y-90170000D03*
X160020000Y-90170000D03*
X160020000Y-96520000D03*
X158750000Y-96520000D03*
X158750000Y-95250000D03*
X157480000Y-95250000D03*
X158750000Y-93980000D03*
X157480000Y-93980000D03*
X158750000Y-92710000D03*
X157480000Y-92710000D03*
X158750000Y-91440000D03*
X157480000Y-91440000D03*
X146050000Y-102870000D03*
X144780000Y-104140000D03*
X144780000Y-107950000D03*
X144780000Y-106680000D03*
X144780000Y-105410000D03*
X151130000Y-66040000D03*
X116840000Y-90170000D03*
X116840000Y-91440000D03*
X116840000Y-92710000D03*
X116840000Y-93980000D03*
X116840000Y-93980000D03*
X116840000Y-95250000D03*
X116840000Y-96520000D03*
X118110000Y-96520000D03*
X118110000Y-95250000D03*
X118110000Y-93980000D03*
X118110000Y-92710000D03*
X118110000Y-91440000D03*
X119380000Y-90170000D03*
X118110000Y-90170000D03*
X119380000Y-92710000D03*
X119380000Y-93980000D03*
X119380000Y-95250000D03*
X119380000Y-96520000D03*
X120650000Y-95250000D03*
X120650000Y-93980000D03*
X120650000Y-92710000D03*
X120650000Y-91440000D03*
X119380000Y-91440000D03*
X120650000Y-90170000D03*
X121920000Y-91440000D03*
X121920000Y-92710000D03*
X121920000Y-93980000D03*
X149860000Y-102870000D03*
X147320000Y-102870000D03*
X148590000Y-102870000D03*
X148590000Y-102870000D03*
X146050000Y-104140000D03*
X147320000Y-104140000D03*
X148590000Y-104140000D03*
X149860000Y-104140000D03*
X148590000Y-105410000D03*
X146050000Y-105410000D03*
X147320000Y-105410000D03*
X147320000Y-106680000D03*
X146050000Y-106680000D03*
X146050000Y-106680000D03*
X148590000Y-106680000D03*
X149860000Y-106680000D03*
X151130000Y-106680000D03*
X151130000Y-105410000D03*
X149860000Y-105410000D03*
X151130000Y-104140000D03*
X149860000Y-107950000D03*
X146050000Y-107950000D03*
X147320000Y-107950000D03*
X148590000Y-107950000D03*
X151130000Y-107950000D03*
X160020000Y-91440000D03*
X161290000Y-90170000D03*
X161290000Y-91440000D03*
X161290000Y-92710000D03*
X160020000Y-92710000D03*
X160020000Y-95250000D03*
X161290000Y-93980000D03*
X160020000Y-93980000D03*
X161290000Y-96520000D03*
X162560000Y-96520000D03*
X162560000Y-95250000D03*
X161290000Y-95250000D03*
X162560000Y-92710000D03*
X162560000Y-93980000D03*
X162560000Y-91440000D03*
X162560000Y-90170000D03*
X152400000Y-64770000D03*
X153670000Y-63500000D03*
X152400000Y-63500000D03*
X149860000Y-66040000D03*
X148590000Y-66040000D03*
X147320000Y-66040000D03*
X146050000Y-66040000D03*
X144780000Y-64770000D03*
X148590000Y-64770000D03*
X146050000Y-64770000D03*
X147320000Y-64770000D03*
X149860000Y-64770000D03*
X151130000Y-64770000D03*
X151130000Y-63500000D03*
X149860000Y-63500000D03*
X148590000Y-63500000D03*
X147320000Y-63500000D03*
X146050000Y-63500000D03*
X144780000Y-63500000D03*
X144780000Y-62230000D03*
X146050000Y-62230000D03*
X147320000Y-62230000D03*
X148590000Y-62230000D03*
X149860000Y-62230000D03*
X151130000Y-62230000D03*
X152400000Y-62230000D03*
X152400000Y-66040000D03*
X158496000Y-86106000D03*
X144526000Y-70231000D03*
X148844000Y-81915000D03*
X147447000Y-81915000D03*
X146711500Y-83158500D03*
X146711500Y-84428500D03*
X126111000Y-90297000D03*
X139446000Y-100965000D03*
X146711500Y-80925500D03*
X145415000Y-70231000D03*
X146431000Y-70231000D03*
X155779486Y-86155514D03*
X156922486Y-86155514D03*
X153874486Y-86155514D03*
X154763486Y-86155514D03*
X138869500Y-101668500D03*
X139885500Y-101668500D03*
X140911500Y-101668500D03*
X125349000Y-89535000D03*
X126746000Y-90932000D03*
X127381000Y-91567000D03*
%TO.N,PWM_CH2*%
X150622000Y-90170000D03*
X129032000Y-74295000D03*
%TO.N,PWM_CH3*%
X126746000Y-74295000D03*
X147955000Y-98171000D03*
%TO.N,PWM_CH4*%
X128778000Y-72898000D03*
%TO.N,PPM*%
X128778000Y-71501000D03*
%TO.N,/ADC_IN*%
X128524000Y-69977000D03*
%TD*%
D23*
%TO.N,GND*%
X131431000Y-86868000D02*
X131431000Y-84977000D01*
D24*
X138827188Y-78756011D02*
X138862713Y-78791536D01*
X132396929Y-78756011D02*
X138827188Y-78756011D01*
X138862713Y-80459434D02*
X138862713Y-80459434D01*
X160288000Y-86092000D02*
X162560000Y-83820000D01*
X160020000Y-86092000D02*
X160288000Y-86092000D01*
X140651964Y-75632574D02*
X140651964Y-77405964D01*
X132396929Y-78756011D02*
X131936989Y-78756011D01*
D23*
X131431000Y-84977000D02*
X131431000Y-84977000D01*
D24*
X140651964Y-77405964D02*
X140651964Y-77405964D01*
X147955000Y-87857500D02*
X148436500Y-87376000D01*
X147955000Y-89248000D02*
X147955000Y-87857500D01*
X147955000Y-91313000D02*
X147320000Y-91948000D01*
X147955000Y-89248000D02*
X147955000Y-91313000D01*
X138907000Y-107575200D02*
X138532200Y-107950000D01*
X138907000Y-105283000D02*
X138907000Y-107575200D01*
X138862713Y-78791536D02*
X138862713Y-78791536D01*
X138862713Y-80459434D02*
X132396929Y-80459434D01*
X141859000Y-64770000D02*
X142621000Y-65532000D01*
X140575000Y-64770000D02*
X141859000Y-64770000D01*
D25*
X140081000Y-86360000D02*
X140081000Y-86360000D01*
D23*
X144272000Y-81193000D02*
X143724000Y-81193000D01*
X141986000Y-82423000D02*
X141986000Y-83566000D01*
X143216000Y-81193000D02*
X141986000Y-82423000D01*
X141986000Y-85330500D02*
X140970000Y-86346500D01*
X144272000Y-81193000D02*
X143216000Y-81193000D01*
X141986000Y-84582000D02*
X141986000Y-85330500D01*
X141986000Y-83566000D02*
X141986000Y-84582000D01*
X141986000Y-82423000D02*
X141986000Y-82423000D01*
D24*
X131757566Y-80449566D02*
X131757566Y-80459434D01*
X130810000Y-79502000D02*
X131757566Y-80449566D01*
X131757566Y-80459434D02*
X132396929Y-80459434D01*
D23*
X163227364Y-83152636D02*
X162560000Y-83820000D01*
X163227364Y-74255522D02*
X163227364Y-81247636D01*
X163227364Y-74255522D02*
X163227364Y-76802636D01*
X163227364Y-74255522D02*
X163227364Y-75532636D01*
X163227364Y-74255522D02*
X161964478Y-74255522D01*
X163227364Y-74255522D02*
X159424478Y-74255522D01*
X163227364Y-74255522D02*
X158154478Y-74255522D01*
X158075522Y-74255522D02*
X157480000Y-73660000D01*
X163227364Y-74255522D02*
X158075522Y-74255522D01*
X163227364Y-74255522D02*
X163227364Y-79342636D01*
X163227364Y-74255522D02*
X163227364Y-74262636D01*
X163227364Y-81247636D02*
X163227364Y-83152636D01*
D26*
X120000000Y-105000000D02*
X130527000Y-105000000D01*
X160000000Y-105000000D02*
X159991000Y-105000000D01*
X159991000Y-105000000D02*
X157226000Y-102235000D01*
X160274000Y-75946000D02*
X149867010Y-75946000D01*
X120484000Y-64516000D02*
X131826000Y-64516000D01*
X131826000Y-64516000D02*
X132080000Y-64770000D01*
D24*
X130937000Y-79502000D02*
X130810000Y-79502000D01*
X131682989Y-78756011D02*
X130937000Y-79502000D01*
X132396929Y-78756011D02*
X131682989Y-78756011D01*
D23*
X121920000Y-78740000D02*
X122682000Y-79502000D01*
X126111000Y-79502000D02*
X126365000Y-79248000D01*
X122682000Y-79502000D02*
X126111000Y-79502000D01*
%TO.N,/VCC_IN*%
X140612500Y-66294000D02*
X140612500Y-66317500D01*
X140612500Y-66317500D02*
X144526000Y-70231000D01*
X144526000Y-70231000D02*
X144526000Y-70231000D01*
X146711500Y-87376000D02*
X146711500Y-84428500D01*
X146711500Y-82576500D02*
X147373000Y-81915000D01*
X147373000Y-81915000D02*
X147447000Y-81915000D01*
X148844000Y-81915000D02*
X148844000Y-81915000D01*
X147447000Y-81915000D02*
X148844000Y-81915000D01*
X146711500Y-83158500D02*
X146711500Y-82576500D01*
X146711500Y-84428500D02*
X146711500Y-83158500D01*
X146711500Y-89221500D02*
X146685000Y-89248000D01*
X146711500Y-87376000D02*
X146711500Y-89221500D01*
X126111000Y-90297000D02*
X126111000Y-90297000D01*
X138869500Y-103759000D02*
X138869500Y-101668500D01*
X138869500Y-101541500D02*
X139446000Y-100965000D01*
X139446000Y-100965000D02*
X139446000Y-100965000D01*
X124079000Y-85725000D02*
X124079000Y-88265000D01*
X122573215Y-84219215D02*
X124079000Y-85725000D01*
X124079000Y-88265000D02*
X125349000Y-89535000D01*
X121790622Y-84219215D02*
X122573215Y-84219215D01*
X146711500Y-83158500D02*
X146711500Y-80925500D01*
X146711500Y-80925500D02*
X146711500Y-80925500D01*
X144526000Y-70231000D02*
X145415000Y-70231000D01*
X145415000Y-70231000D02*
X146431000Y-70231000D01*
X158496000Y-86155514D02*
X156922486Y-86155514D01*
X156922486Y-86155514D02*
X155779486Y-86155514D01*
X155779486Y-86155514D02*
X154763486Y-86155514D01*
X153874486Y-86155514D02*
X153846514Y-86155514D01*
X154763486Y-86155514D02*
X153874486Y-86155514D01*
X138869500Y-101668500D02*
X138869500Y-101541500D01*
X138869500Y-101668500D02*
X139885500Y-101668500D01*
X139885500Y-101668500D02*
X140403500Y-101668500D01*
X140403500Y-101668500D02*
X140911500Y-101668500D01*
X140911500Y-101668500D02*
X140911500Y-101668500D01*
X125349000Y-89535000D02*
X126111000Y-90297000D01*
X126111000Y-90297000D02*
X126746000Y-90932000D01*
X126746000Y-90932000D02*
X127381000Y-91567000D01*
%TO.N,Net-(C2-Pad2)*%
X143637000Y-91209500D02*
X143660500Y-91186000D01*
X143637000Y-93117500D02*
X143637000Y-91209500D01*
X143764000Y-91082500D02*
X143660500Y-91186000D01*
X143764000Y-86447000D02*
X143764000Y-91082500D01*
X145415000Y-88098000D02*
X143764000Y-86447000D01*
X145415000Y-89248000D02*
X145415000Y-88098000D01*
%TO.N,Net-(C2-Pad1)*%
X143831500Y-94648000D02*
X143637000Y-94842500D01*
X145415000Y-94648000D02*
X143831500Y-94648000D01*
%TO.N,Net-(D1-Pad2)*%
X138825000Y-66256500D02*
X138787500Y-66294000D01*
X138825000Y-64770000D02*
X138825000Y-66256500D01*
%TO.N,Net-(D2-Pad2)*%
X160008514Y-84330514D02*
X160020000Y-84342000D01*
X158496000Y-84330514D02*
X160008514Y-84330514D01*
D24*
%TO.N,Net-(D3-Pad2)*%
X140694500Y-103759000D02*
X140694500Y-104626500D01*
X140694500Y-105245500D02*
X140657000Y-105283000D01*
X140694500Y-103759000D02*
X140694500Y-105245500D01*
D23*
%TO.N,Net-(D4-Pad2)*%
X121753122Y-86006715D02*
X121790622Y-86044215D01*
X120174176Y-86006715D02*
X121753122Y-86006715D01*
%TO.N,Net-(D5-Pad2)*%
X142439464Y-75595074D02*
X142401964Y-75632574D01*
X142439464Y-74195733D02*
X142439464Y-75595074D01*
%TO.N,Net-(D7-Pad2)*%
X129643500Y-86905500D02*
X129681000Y-86868000D01*
X129643500Y-88392000D02*
X129643500Y-86905500D01*
%TO.N,+5V*%
X140205000Y-93067500D02*
X140181500Y-93091000D01*
X141859000Y-93067500D02*
X140205000Y-93067500D01*
X141859000Y-91209500D02*
X141835500Y-91186000D01*
X141859000Y-93067500D02*
X141859000Y-91209500D01*
X138543000Y-91133000D02*
X138063000Y-90653000D01*
X138063000Y-90653000D02*
X138263723Y-90452277D01*
D24*
X132396929Y-77031011D02*
X132010989Y-77031011D01*
X138827188Y-77031011D02*
X138862713Y-77066536D01*
X140614464Y-74195733D02*
X140614464Y-74015536D01*
X140614464Y-74195733D02*
X140688267Y-74195733D01*
D23*
X141835500Y-90287000D02*
X140970000Y-89421500D01*
X141835500Y-91186000D02*
X141835500Y-90287000D01*
X138469000Y-91059000D02*
X138063000Y-90653000D01*
X139294500Y-89421500D02*
X138063000Y-90653000D01*
X140970000Y-89421500D02*
X139294500Y-89421500D01*
D24*
X138862713Y-77066536D02*
X138862713Y-76886713D01*
X138862713Y-77066536D02*
X138862713Y-77037287D01*
X138862713Y-77066536D02*
X138862713Y-76783287D01*
X132432454Y-77066536D02*
X132396929Y-77031011D01*
D23*
X138862713Y-77066536D02*
X132432454Y-77066536D01*
X139672267Y-74195733D02*
X140614464Y-74195733D01*
X138862713Y-76783287D02*
X138862713Y-76529287D01*
D24*
X139672267Y-74195733D02*
X139545267Y-74195733D01*
D23*
X139672267Y-74195733D02*
X139418267Y-74195733D01*
X138862713Y-74751287D02*
X138862713Y-75259287D01*
X139418267Y-74195733D02*
X138862713Y-74751287D01*
X140614464Y-74195733D02*
X140489733Y-74195733D01*
X137414000Y-70993000D02*
X137414000Y-70995269D01*
X138862713Y-75259287D02*
X138862713Y-77066536D01*
X138992990Y-72571990D02*
X137414000Y-70993000D01*
X140614464Y-74193464D02*
X138992990Y-72571990D01*
X140614464Y-74195733D02*
X140614464Y-74193464D01*
X126688011Y-77031011D02*
X126365000Y-76708000D01*
X132396929Y-77031011D02*
X126688011Y-77031011D01*
X138684000Y-85264000D02*
X138684000Y-90032000D01*
X138684000Y-90032000D02*
X138063000Y-90653000D01*
X140536177Y-78740000D02*
X140589000Y-78740000D01*
X140589000Y-78740000D02*
X140589000Y-83359000D01*
X140589000Y-83359000D02*
X138684000Y-85264000D01*
X138862713Y-77066536D02*
X140536177Y-78740000D01*
D24*
%TO.N,PWM_CH1*%
X124946000Y-75184000D02*
X122787000Y-73025000D01*
X130175000Y-75184000D02*
X124946000Y-75184000D01*
X130810000Y-72136000D02*
X130810000Y-74549000D01*
X135095991Y-69120009D02*
X133825991Y-69120009D01*
X139573000Y-63627000D02*
X138279500Y-63627000D01*
X137160000Y-64746500D02*
X137160000Y-67056000D01*
X137160000Y-67056000D02*
X135095991Y-69120009D01*
X130810000Y-74549000D02*
X130175000Y-75184000D01*
X133825991Y-69120009D02*
X130810000Y-72136000D01*
X138279500Y-63627000D02*
X137160000Y-64746500D01*
X140970000Y-62230000D02*
X139573000Y-63627000D01*
%TO.N,PWM_CH2*%
X161440500Y-86360000D02*
X160043500Y-87757000D01*
X162560000Y-86360000D02*
X161440500Y-86360000D01*
X160043500Y-87757000D02*
X156337000Y-87757000D01*
X151765000Y-91313000D02*
X150622000Y-90170000D01*
X152781000Y-91313000D02*
X151765000Y-91313000D01*
X156337000Y-87757000D02*
X152781000Y-91313000D01*
X129032000Y-74295000D02*
X127762000Y-73025000D01*
X127762000Y-73025000D02*
X126387000Y-73025000D01*
D23*
%TO.N,+3V3*%
X135763000Y-84353000D02*
X135763000Y-90653000D01*
X135002000Y-88392000D02*
X131468500Y-88392000D01*
X135763000Y-89153000D02*
X135002000Y-88392000D01*
X135763000Y-90653000D02*
X135763000Y-89153000D01*
X138862713Y-82184434D02*
X132396929Y-82184434D01*
D24*
X135763000Y-82317613D02*
X135629821Y-82184434D01*
D23*
X135763000Y-84353000D02*
X137643000Y-84353000D01*
X138862713Y-83133287D02*
X138862713Y-82184434D01*
X137643000Y-84353000D02*
X138862713Y-83133287D01*
X126761434Y-82184434D02*
X126365000Y-81788000D01*
X132396929Y-82184434D02*
X126761434Y-82184434D01*
D24*
%TO.N,PWM_CH3*%
X142494000Y-106528200D02*
X141072200Y-107950000D01*
X142494000Y-103632000D02*
X142494000Y-106528200D01*
X147955000Y-98171000D02*
X142494000Y-103632000D01*
X126746000Y-74295000D02*
X125476000Y-74295000D01*
X125476000Y-74295000D02*
X124587000Y-73406000D01*
X124137000Y-71755000D02*
X122787000Y-71755000D01*
X124587000Y-72205000D02*
X124137000Y-71755000D01*
X124587000Y-73406000D02*
X124587000Y-72205000D01*
%TO.N,PWM_CH4*%
X117475000Y-86360000D02*
X117475000Y-85596002D01*
X126387000Y-71755000D02*
X127635000Y-71755000D01*
X127635000Y-71755000D02*
X128778000Y-72898000D01*
X128778000Y-72898000D02*
X128778000Y-72898000D01*
D23*
%TO.N,Net-(R6-Pad2)*%
X140382000Y-94892500D02*
X140231500Y-94742000D01*
X141859000Y-94892500D02*
X140382000Y-94892500D01*
X141859000Y-94892500D02*
X141859000Y-95758000D01*
X141859000Y-95758000D02*
X143256000Y-97155000D01*
X149225000Y-95923000D02*
X149225000Y-94648000D01*
X147993000Y-97155000D02*
X149225000Y-95923000D01*
X143256000Y-97155000D02*
X147993000Y-97155000D01*
D24*
%TO.N,PPM*%
X127737000Y-70485000D02*
X128651000Y-71399000D01*
X126387000Y-70485000D02*
X127737000Y-70485000D01*
X128651000Y-71399000D02*
X128676000Y-71399000D01*
X128905000Y-71501000D02*
X128905000Y-71501000D01*
%TO.N,/ADC_IN*%
X123444000Y-70485000D02*
X122787000Y-70485000D01*
X128143000Y-69596000D02*
X128524000Y-69977000D01*
X123676000Y-69596000D02*
X128143000Y-69596000D01*
X122787000Y-70485000D02*
X123676000Y-69596000D01*
%TD*%
D27*
%TO.N,GND*%
X145758309Y-61026876D02*
X145618488Y-61288462D01*
X145559744Y-61312795D01*
X145415000Y-61409510D01*
X145270256Y-61312795D01*
X145081898Y-61234774D01*
X144881939Y-61195000D01*
X144678061Y-61195000D01*
X144478102Y-61234774D01*
X144289744Y-61312795D01*
X144120226Y-61426063D01*
X143976063Y-61570226D01*
X143862795Y-61739744D01*
X143784774Y-61928102D01*
X143745000Y-62128061D01*
X143745000Y-62331939D01*
X143784774Y-62531898D01*
X143862795Y-62720256D01*
X143959510Y-62865000D01*
X143862795Y-63009744D01*
X143784774Y-63198102D01*
X143745000Y-63398061D01*
X143745000Y-63601939D01*
X143784774Y-63801898D01*
X143862795Y-63990256D01*
X143959510Y-64135000D01*
X143862795Y-64279744D01*
X143784774Y-64468102D01*
X143745000Y-64668061D01*
X143745000Y-64871939D01*
X143784774Y-65071898D01*
X143862795Y-65260256D01*
X143976063Y-65429774D01*
X144120226Y-65573937D01*
X144289744Y-65687205D01*
X144478102Y-65765226D01*
X144678061Y-65805000D01*
X144881939Y-65805000D01*
X145048039Y-65771961D01*
X145015000Y-65938061D01*
X145015000Y-66141939D01*
X145054774Y-66341898D01*
X145132795Y-66530256D01*
X145246063Y-66699774D01*
X145390226Y-66843937D01*
X145559744Y-66957205D01*
X145748102Y-67035226D01*
X145948061Y-67075000D01*
X146151939Y-67075000D01*
X146318039Y-67041961D01*
X146285000Y-67208061D01*
X146285000Y-67411939D01*
X146324774Y-67611898D01*
X146402795Y-67800256D01*
X146516063Y-67969774D01*
X146660226Y-68113937D01*
X146829744Y-68227205D01*
X147018102Y-68305226D01*
X147218061Y-68345000D01*
X147421939Y-68345000D01*
X147621898Y-68305226D01*
X147810256Y-68227205D01*
X147955000Y-68130490D01*
X148099744Y-68227205D01*
X148288102Y-68305226D01*
X148488061Y-68345000D01*
X148691939Y-68345000D01*
X148891898Y-68305226D01*
X149080256Y-68227205D01*
X149092780Y-68218836D01*
X149429639Y-68252014D01*
X149558102Y-68305226D01*
X149758061Y-68345000D01*
X149961939Y-68345000D01*
X150161898Y-68305226D01*
X150350256Y-68227205D01*
X150396308Y-68196434D01*
X150539435Y-68182337D01*
X150562241Y-68175419D01*
X150639744Y-68227205D01*
X150828102Y-68305226D01*
X151028061Y-68345000D01*
X151231939Y-68345000D01*
X151431898Y-68305226D01*
X151620256Y-68227205D01*
X151789774Y-68113937D01*
X151933937Y-67969774D01*
X152047205Y-67800256D01*
X152125226Y-67611898D01*
X152141967Y-67527735D01*
X152218344Y-67486911D01*
X152260842Y-67452033D01*
X157727572Y-67452033D01*
X158045757Y-67905850D01*
X158650210Y-68231269D01*
X159306535Y-68432512D01*
X159989510Y-68501845D01*
X160672888Y-68436605D01*
X161330407Y-68239298D01*
X161936799Y-67917506D01*
X161954243Y-67905850D01*
X162272428Y-67452033D01*
X160000000Y-65179605D01*
X157727572Y-67452033D01*
X152260842Y-67452033D01*
X152747252Y-67052847D01*
X152809404Y-66990695D01*
X152890256Y-66957205D01*
X153059774Y-66843937D01*
X153203937Y-66699774D01*
X153317205Y-66530256D01*
X153350695Y-66449404D01*
X154810589Y-64989510D01*
X156498155Y-64989510D01*
X156563395Y-65672888D01*
X156760702Y-66330407D01*
X157082494Y-66936799D01*
X157094150Y-66954243D01*
X157547967Y-67272428D01*
X159820395Y-65000000D01*
X157547967Y-62727572D01*
X157094150Y-63045757D01*
X156768731Y-63650210D01*
X156567488Y-64306535D01*
X156498155Y-64989510D01*
X154810589Y-64989510D01*
X155897689Y-63902410D01*
X156331753Y-63373503D01*
X156762145Y-62568296D01*
X157027179Y-61694594D01*
X157116671Y-60785976D01*
X157104263Y-60660000D01*
X159970608Y-60660000D01*
X160474352Y-60704958D01*
X161757768Y-61988374D01*
X161349790Y-61768731D01*
X160693465Y-61567488D01*
X160010490Y-61498155D01*
X159327112Y-61563395D01*
X158669593Y-61760702D01*
X158063201Y-62082494D01*
X158045757Y-62094150D01*
X157727572Y-62547967D01*
X160000000Y-64820395D01*
X160014143Y-64806253D01*
X160193748Y-64985858D01*
X160179605Y-65000000D01*
X162452033Y-67272428D01*
X162905850Y-66954243D01*
X163231269Y-66349790D01*
X163432512Y-65693465D01*
X163501845Y-65010490D01*
X163436605Y-64327112D01*
X163239298Y-63669593D01*
X163013513Y-63244119D01*
X164304050Y-64534656D01*
X164340000Y-65024207D01*
X164340000Y-67835335D01*
X164260577Y-67825309D01*
X163353893Y-67889593D01*
X162477172Y-68129526D01*
X161664106Y-68535890D01*
X160945940Y-69093066D01*
X159531727Y-70507280D01*
X162719364Y-73694917D01*
X162733507Y-73680775D01*
X162913112Y-73860380D01*
X162898969Y-73874522D01*
X162913112Y-73888665D01*
X162733507Y-74068270D01*
X162719364Y-74054127D01*
X158231040Y-78542451D01*
X158684534Y-79111771D01*
X159414080Y-79522316D01*
X160276347Y-79809899D01*
X161178151Y-79923735D01*
X162084835Y-79859451D01*
X162961556Y-79619518D01*
X163774622Y-79213154D01*
X164340000Y-78774516D01*
X164340001Y-104970597D01*
X164288316Y-105549718D01*
X162531931Y-107352323D01*
X162452035Y-107272427D01*
X162905850Y-106954243D01*
X163231269Y-106349790D01*
X163432512Y-105693465D01*
X163501845Y-105010490D01*
X163436605Y-104327112D01*
X163239298Y-103669593D01*
X162917506Y-103063201D01*
X162905850Y-103045757D01*
X162452033Y-102727572D01*
X160179605Y-105000000D01*
X160193748Y-105014143D01*
X160014143Y-105193748D01*
X160000000Y-105179605D01*
X157727572Y-107452033D01*
X158045757Y-107905850D01*
X158650210Y-108231269D01*
X159306535Y-108432512D01*
X159989510Y-108501845D01*
X160672888Y-108436605D01*
X161330407Y-108239298D01*
X161936799Y-107917506D01*
X161954243Y-107905850D01*
X162272427Y-107452035D01*
X162354656Y-107534264D01*
X160646013Y-109287871D01*
X160628543Y-109292065D01*
X159975793Y-109340000D01*
X142258990Y-109340000D01*
X142276694Y-109330537D01*
X142373385Y-109251185D01*
X142452737Y-109154494D01*
X142511702Y-109044180D01*
X142548012Y-108924482D01*
X142560272Y-108800000D01*
X142560272Y-107572085D01*
X143021810Y-107110547D01*
X143051764Y-107085964D01*
X143149862Y-106966433D01*
X143222754Y-106830060D01*
X143231408Y-106801531D01*
X143267642Y-106682087D01*
X143277887Y-106578061D01*
X143279000Y-106566761D01*
X143279000Y-106566756D01*
X143282797Y-106528200D01*
X143279000Y-106489644D01*
X143279000Y-104038061D01*
X143745000Y-104038061D01*
X143745000Y-104241939D01*
X143784774Y-104441898D01*
X143862795Y-104630256D01*
X143959510Y-104775000D01*
X143862795Y-104919744D01*
X143784774Y-105108102D01*
X143745000Y-105308061D01*
X143745000Y-105511939D01*
X143784774Y-105711898D01*
X143862795Y-105900256D01*
X143959510Y-106045000D01*
X143862795Y-106189744D01*
X143784774Y-106378102D01*
X143745000Y-106578061D01*
X143745000Y-106781939D01*
X143784774Y-106981898D01*
X143862795Y-107170256D01*
X143959510Y-107315000D01*
X143862795Y-107459744D01*
X143784774Y-107648102D01*
X143745000Y-107848061D01*
X143745000Y-108051939D01*
X143784774Y-108251898D01*
X143862795Y-108440256D01*
X143976063Y-108609774D01*
X144120226Y-108753937D01*
X144289744Y-108867205D01*
X144478102Y-108945226D01*
X144678061Y-108985000D01*
X144881939Y-108985000D01*
X145081898Y-108945226D01*
X145270256Y-108867205D01*
X145415000Y-108770490D01*
X145559744Y-108867205D01*
X145748102Y-108945226D01*
X145948061Y-108985000D01*
X146151939Y-108985000D01*
X146351898Y-108945226D01*
X146540256Y-108867205D01*
X146685000Y-108770490D01*
X146829744Y-108867205D01*
X147018102Y-108945226D01*
X147218061Y-108985000D01*
X147421939Y-108985000D01*
X147621898Y-108945226D01*
X147810256Y-108867205D01*
X147955000Y-108770490D01*
X148099744Y-108867205D01*
X148288102Y-108945226D01*
X148488061Y-108985000D01*
X148691939Y-108985000D01*
X148891898Y-108945226D01*
X149080256Y-108867205D01*
X149225000Y-108770490D01*
X149369744Y-108867205D01*
X149558102Y-108945226D01*
X149758061Y-108985000D01*
X149961939Y-108985000D01*
X150161898Y-108945226D01*
X150350256Y-108867205D01*
X150495000Y-108770490D01*
X150639744Y-108867205D01*
X150828102Y-108945226D01*
X151028061Y-108985000D01*
X151231939Y-108985000D01*
X151431898Y-108945226D01*
X151620256Y-108867205D01*
X151789774Y-108753937D01*
X151933937Y-108609774D01*
X152047205Y-108440256D01*
X152125226Y-108251898D01*
X152165000Y-108051939D01*
X152165000Y-107848061D01*
X152125226Y-107648102D01*
X152047205Y-107459744D01*
X151950490Y-107315000D01*
X152047205Y-107170256D01*
X152125226Y-106981898D01*
X152165000Y-106781939D01*
X152165000Y-106578061D01*
X152125226Y-106378102D01*
X152047205Y-106189744D01*
X151950490Y-106045000D01*
X152047205Y-105900256D01*
X152125226Y-105711898D01*
X152165000Y-105511939D01*
X152165000Y-105308061D01*
X152125226Y-105108102D01*
X152076104Y-104989510D01*
X156498155Y-104989510D01*
X156563395Y-105672888D01*
X156760702Y-106330407D01*
X157082494Y-106936799D01*
X157094150Y-106954243D01*
X157547967Y-107272428D01*
X159820395Y-105000000D01*
X157547967Y-102727572D01*
X157094150Y-103045757D01*
X156768731Y-103650210D01*
X156567488Y-104306535D01*
X156498155Y-104989510D01*
X152076104Y-104989510D01*
X152047205Y-104919744D01*
X151950490Y-104775000D01*
X152047205Y-104630256D01*
X152125226Y-104441898D01*
X152165000Y-104241939D01*
X152165000Y-104038061D01*
X152125226Y-103838102D01*
X152047205Y-103649744D01*
X151933937Y-103480226D01*
X151789774Y-103336063D01*
X151620256Y-103222795D01*
X151431898Y-103144774D01*
X151231939Y-103105000D01*
X151028061Y-103105000D01*
X150861961Y-103138039D01*
X150895000Y-102971939D01*
X150895000Y-102768061D01*
X150855226Y-102568102D01*
X150846886Y-102547967D01*
X157727572Y-102547967D01*
X160000000Y-104820395D01*
X162272428Y-102547967D01*
X161954243Y-102094150D01*
X161349790Y-101768731D01*
X160693465Y-101567488D01*
X160010490Y-101498155D01*
X159327112Y-101563395D01*
X158669593Y-101760702D01*
X158063201Y-102082494D01*
X158045757Y-102094150D01*
X157727572Y-102547967D01*
X150846886Y-102547967D01*
X150777205Y-102379744D01*
X150663937Y-102210226D01*
X150519774Y-102066063D01*
X150350256Y-101952795D01*
X150161898Y-101874774D01*
X149961939Y-101835000D01*
X149758061Y-101835000D01*
X149558102Y-101874774D01*
X149369744Y-101952795D01*
X149225000Y-102049510D01*
X149080256Y-101952795D01*
X148891898Y-101874774D01*
X148691939Y-101835000D01*
X148488061Y-101835000D01*
X148288102Y-101874774D01*
X148099744Y-101952795D01*
X147955000Y-102049510D01*
X147810256Y-101952795D01*
X147621898Y-101874774D01*
X147421939Y-101835000D01*
X147218061Y-101835000D01*
X147018102Y-101874774D01*
X146829744Y-101952795D01*
X146685000Y-102049510D01*
X146540256Y-101952795D01*
X146351898Y-101874774D01*
X146151939Y-101835000D01*
X145948061Y-101835000D01*
X145748102Y-101874774D01*
X145559744Y-101952795D01*
X145390226Y-102066063D01*
X145246063Y-102210226D01*
X145132795Y-102379744D01*
X145054774Y-102568102D01*
X145015000Y-102768061D01*
X145015000Y-102971939D01*
X145048039Y-103138039D01*
X144881939Y-103105000D01*
X144678061Y-103105000D01*
X144478102Y-103144774D01*
X144289744Y-103222795D01*
X144120226Y-103336063D01*
X143976063Y-103480226D01*
X143862795Y-103649744D01*
X143784774Y-103838102D01*
X143745000Y-104038061D01*
X143279000Y-104038061D01*
X143279000Y-103957157D01*
X148030158Y-99206000D01*
X148056939Y-99206000D01*
X148256898Y-99166226D01*
X148445256Y-99088205D01*
X148614774Y-98974937D01*
X148758937Y-98830774D01*
X148872205Y-98661256D01*
X148950226Y-98472898D01*
X148990000Y-98272939D01*
X148990000Y-98069061D01*
X148950226Y-97869102D01*
X148872205Y-97680744D01*
X148810773Y-97588805D01*
X149820050Y-96579529D01*
X149853817Y-96551817D01*
X149898468Y-96497411D01*
X149940210Y-96446548D01*
X149964411Y-96417059D01*
X150046589Y-96263313D01*
X150097195Y-96096490D01*
X150110000Y-95966477D01*
X150110000Y-95966467D01*
X150114281Y-95923001D01*
X150110000Y-95879535D01*
X150110000Y-95675603D01*
X150114502Y-95667180D01*
X150150812Y-95547482D01*
X150163072Y-95423000D01*
X150163072Y-93873000D01*
X150150812Y-93748518D01*
X150138218Y-93707000D01*
X150159502Y-93667180D01*
X150195812Y-93547482D01*
X150208072Y-93423000D01*
X150205000Y-92233750D01*
X150046250Y-92075000D01*
X149569906Y-92075000D01*
X149574936Y-91982541D01*
X149540395Y-91948000D01*
X149574936Y-91913459D01*
X149569906Y-91821000D01*
X150046250Y-91821000D01*
X150205000Y-91662250D01*
X150206406Y-91118131D01*
X150320102Y-91165226D01*
X150520061Y-91205000D01*
X150546843Y-91205000D01*
X151182658Y-91840815D01*
X151207236Y-91870764D01*
X151237184Y-91895342D01*
X151237187Y-91895345D01*
X151247842Y-91904089D01*
X151326767Y-91968862D01*
X151434598Y-92026498D01*
X151463140Y-92041754D01*
X151611112Y-92086641D01*
X151625490Y-92088057D01*
X151726439Y-92098000D01*
X151726446Y-92098000D01*
X151764999Y-92101797D01*
X151803552Y-92098000D01*
X152742447Y-92098000D01*
X152781000Y-92101797D01*
X152819553Y-92098000D01*
X152819561Y-92098000D01*
X152934887Y-92086641D01*
X153082860Y-92041754D01*
X153219233Y-91968862D01*
X153338764Y-91870764D01*
X153363347Y-91840810D01*
X153866096Y-91338061D01*
X156445000Y-91338061D01*
X156445000Y-91541939D01*
X156484774Y-91741898D01*
X156562795Y-91930256D01*
X156659510Y-92075000D01*
X156562795Y-92219744D01*
X156484774Y-92408102D01*
X156445000Y-92608061D01*
X156445000Y-92811939D01*
X156484774Y-93011898D01*
X156562795Y-93200256D01*
X156659510Y-93345000D01*
X156562795Y-93489744D01*
X156484774Y-93678102D01*
X156445000Y-93878061D01*
X156445000Y-94081939D01*
X156484774Y-94281898D01*
X156562795Y-94470256D01*
X156659510Y-94615000D01*
X156562795Y-94759744D01*
X156484774Y-94948102D01*
X156445000Y-95148061D01*
X156445000Y-95351939D01*
X156484774Y-95551898D01*
X156562795Y-95740256D01*
X156676063Y-95909774D01*
X156820226Y-96053937D01*
X156989744Y-96167205D01*
X157178102Y-96245226D01*
X157378061Y-96285000D01*
X157581939Y-96285000D01*
X157748039Y-96251961D01*
X157715000Y-96418061D01*
X157715000Y-96621939D01*
X157754774Y-96821898D01*
X157832795Y-97010256D01*
X157946063Y-97179774D01*
X158090226Y-97323937D01*
X158259744Y-97437205D01*
X158448102Y-97515226D01*
X158648061Y-97555000D01*
X158851939Y-97555000D01*
X159051898Y-97515226D01*
X159240256Y-97437205D01*
X159385000Y-97340490D01*
X159529744Y-97437205D01*
X159718102Y-97515226D01*
X159918061Y-97555000D01*
X160121939Y-97555000D01*
X160321898Y-97515226D01*
X160510256Y-97437205D01*
X160655000Y-97340490D01*
X160799744Y-97437205D01*
X160988102Y-97515226D01*
X161188061Y-97555000D01*
X161391939Y-97555000D01*
X161591898Y-97515226D01*
X161780256Y-97437205D01*
X161925000Y-97340490D01*
X162069744Y-97437205D01*
X162258102Y-97515226D01*
X162458061Y-97555000D01*
X162661939Y-97555000D01*
X162861898Y-97515226D01*
X163050256Y-97437205D01*
X163219774Y-97323937D01*
X163363937Y-97179774D01*
X163477205Y-97010256D01*
X163555226Y-96821898D01*
X163595000Y-96621939D01*
X163595000Y-96418061D01*
X163555226Y-96218102D01*
X163477205Y-96029744D01*
X163380490Y-95885000D01*
X163477205Y-95740256D01*
X163555226Y-95551898D01*
X163595000Y-95351939D01*
X163595000Y-95148061D01*
X163555226Y-94948102D01*
X163477205Y-94759744D01*
X163380490Y-94615000D01*
X163477205Y-94470256D01*
X163555226Y-94281898D01*
X163595000Y-94081939D01*
X163595000Y-93878061D01*
X163555226Y-93678102D01*
X163477205Y-93489744D01*
X163380490Y-93345000D01*
X163477205Y-93200256D01*
X163555226Y-93011898D01*
X163595000Y-92811939D01*
X163595000Y-92608061D01*
X163555226Y-92408102D01*
X163477205Y-92219744D01*
X163380490Y-92075000D01*
X163477205Y-91930256D01*
X163555226Y-91741898D01*
X163595000Y-91541939D01*
X163595000Y-91338061D01*
X163555226Y-91138102D01*
X163477205Y-90949744D01*
X163380490Y-90805000D01*
X163477205Y-90660256D01*
X163555226Y-90471898D01*
X163595000Y-90271939D01*
X163595000Y-90068061D01*
X163555226Y-89868102D01*
X163477205Y-89679744D01*
X163363937Y-89510226D01*
X163219774Y-89366063D01*
X163050256Y-89252795D01*
X162861898Y-89174774D01*
X162661939Y-89135000D01*
X162458061Y-89135000D01*
X162258102Y-89174774D01*
X162069744Y-89252795D01*
X161925000Y-89349510D01*
X161780256Y-89252795D01*
X161591898Y-89174774D01*
X161391939Y-89135000D01*
X161188061Y-89135000D01*
X160988102Y-89174774D01*
X160799744Y-89252795D01*
X160655000Y-89349510D01*
X160510256Y-89252795D01*
X160321898Y-89174774D01*
X160121939Y-89135000D01*
X159918061Y-89135000D01*
X159718102Y-89174774D01*
X159529744Y-89252795D01*
X159385000Y-89349510D01*
X159240256Y-89252795D01*
X159051898Y-89174774D01*
X158851939Y-89135000D01*
X158648061Y-89135000D01*
X158448102Y-89174774D01*
X158259744Y-89252795D01*
X158090226Y-89366063D01*
X157946063Y-89510226D01*
X157832795Y-89679744D01*
X157754774Y-89868102D01*
X157715000Y-90068061D01*
X157715000Y-90271939D01*
X157748039Y-90438039D01*
X157581939Y-90405000D01*
X157378061Y-90405000D01*
X157178102Y-90444774D01*
X156989744Y-90522795D01*
X156820226Y-90636063D01*
X156676063Y-90780226D01*
X156562795Y-90949744D01*
X156484774Y-91138102D01*
X156445000Y-91338061D01*
X153866096Y-91338061D01*
X156662158Y-88542000D01*
X160004947Y-88542000D01*
X160043500Y-88545797D01*
X160082053Y-88542000D01*
X160082061Y-88542000D01*
X160197387Y-88530641D01*
X160345360Y-88485754D01*
X160481733Y-88412862D01*
X160601264Y-88314764D01*
X160625847Y-88284810D01*
X161254604Y-87656054D01*
X161258815Y-87661185D01*
X161355506Y-87740537D01*
X161465820Y-87799502D01*
X161585518Y-87835812D01*
X161710000Y-87848072D01*
X163410000Y-87848072D01*
X163534482Y-87835812D01*
X163654180Y-87799502D01*
X163764494Y-87740537D01*
X163861185Y-87661185D01*
X163940537Y-87564494D01*
X163999502Y-87454180D01*
X164035812Y-87334482D01*
X164048072Y-87210000D01*
X164048072Y-85510000D01*
X164035812Y-85385518D01*
X163999502Y-85265820D01*
X163940537Y-85155506D01*
X163861185Y-85058815D01*
X163764494Y-84979463D01*
X163654180Y-84920498D01*
X163573534Y-84896034D01*
X163657588Y-84820269D01*
X163831641Y-84586920D01*
X163956825Y-84324099D01*
X164001476Y-84176890D01*
X163880155Y-83947000D01*
X162687000Y-83947000D01*
X162687000Y-83967000D01*
X162433000Y-83967000D01*
X162433000Y-83947000D01*
X162413000Y-83947000D01*
X162413000Y-83693000D01*
X162433000Y-83693000D01*
X162433000Y-82499186D01*
X162687000Y-82499186D01*
X162687000Y-83693000D01*
X163880155Y-83693000D01*
X164001476Y-83463110D01*
X163956825Y-83315901D01*
X163831641Y-83053080D01*
X163657588Y-82819731D01*
X163441355Y-82624822D01*
X163191252Y-82475843D01*
X162916891Y-82378519D01*
X162687000Y-82499186D01*
X162433000Y-82499186D01*
X162203109Y-82378519D01*
X161928748Y-82475843D01*
X161678645Y-82624822D01*
X161462412Y-82819731D01*
X161288359Y-83053080D01*
X161163175Y-83315901D01*
X161118524Y-83463110D01*
X161239844Y-83692998D01*
X161075000Y-83692998D01*
X161075000Y-83747708D01*
X161066423Y-83719433D01*
X160985512Y-83568058D01*
X160876623Y-83435377D01*
X160743942Y-83326488D01*
X160592567Y-83245577D01*
X160428316Y-83195752D01*
X160257500Y-83178928D01*
X159782500Y-83178928D01*
X159611684Y-83195752D01*
X159447433Y-83245577D01*
X159296058Y-83326488D01*
X159242151Y-83370729D01*
X159219942Y-83352502D01*
X159068567Y-83271591D01*
X158904316Y-83221766D01*
X158733500Y-83204942D01*
X158258500Y-83204942D01*
X158087684Y-83221766D01*
X157923433Y-83271591D01*
X157772058Y-83352502D01*
X157639377Y-83461391D01*
X157530488Y-83594072D01*
X157449577Y-83745447D01*
X157399752Y-83909698D01*
X157382928Y-84080514D01*
X157382928Y-84580514D01*
X157399752Y-84751330D01*
X157449577Y-84915581D01*
X157530488Y-85066956D01*
X157639377Y-85199637D01*
X157692232Y-85243014D01*
X157658723Y-85270514D01*
X157460940Y-85270514D01*
X157412742Y-85238309D01*
X157224384Y-85160288D01*
X157024425Y-85120514D01*
X156820547Y-85120514D01*
X156620588Y-85160288D01*
X156432230Y-85238309D01*
X156384032Y-85270514D01*
X156317940Y-85270514D01*
X156269742Y-85238309D01*
X156081384Y-85160288D01*
X155881425Y-85120514D01*
X155677547Y-85120514D01*
X155477588Y-85160288D01*
X155289230Y-85238309D01*
X155271486Y-85250165D01*
X155253742Y-85238309D01*
X155065384Y-85160288D01*
X154865425Y-85120514D01*
X154661547Y-85120514D01*
X154461588Y-85160288D01*
X154318986Y-85219356D01*
X154176384Y-85160288D01*
X153976425Y-85120514D01*
X153772547Y-85120514D01*
X153572588Y-85160288D01*
X153384230Y-85238309D01*
X153214712Y-85351577D01*
X153070549Y-85495740D01*
X152957281Y-85665258D01*
X152879260Y-85853616D01*
X152839486Y-86053575D01*
X152839486Y-86257453D01*
X152879260Y-86457412D01*
X152957281Y-86645770D01*
X153070549Y-86815288D01*
X153214712Y-86959451D01*
X153384230Y-87072719D01*
X153572588Y-87150740D01*
X153772547Y-87190514D01*
X153976425Y-87190514D01*
X154176384Y-87150740D01*
X154318986Y-87091672D01*
X154461588Y-87150740D01*
X154661547Y-87190514D01*
X154865425Y-87190514D01*
X155065384Y-87150740D01*
X155253742Y-87072719D01*
X155271486Y-87060863D01*
X155289230Y-87072719D01*
X155477588Y-87150740D01*
X155677547Y-87190514D01*
X155789864Y-87190514D01*
X155779236Y-87199236D01*
X155754658Y-87229184D01*
X152455843Y-90528000D01*
X152090158Y-90528000D01*
X151657000Y-90094843D01*
X151657000Y-90068061D01*
X151617226Y-89868102D01*
X151539205Y-89679744D01*
X151425937Y-89510226D01*
X151281774Y-89366063D01*
X151112256Y-89252795D01*
X150923898Y-89174774D01*
X150723939Y-89135000D01*
X150520061Y-89135000D01*
X150320102Y-89174774D01*
X150163072Y-89239818D01*
X150163072Y-88473000D01*
X150150812Y-88348518D01*
X150114502Y-88228820D01*
X150055537Y-88118506D01*
X149976185Y-88021815D01*
X149879494Y-87942463D01*
X149769180Y-87883498D01*
X149649482Y-87847188D01*
X149611950Y-87843492D01*
X149609000Y-87661750D01*
X149450250Y-87503000D01*
X148563500Y-87503000D01*
X148563500Y-87523000D01*
X148309500Y-87523000D01*
X148309500Y-87503000D01*
X148289500Y-87503000D01*
X148289500Y-87249000D01*
X148309500Y-87249000D01*
X148309500Y-86424750D01*
X148563500Y-86424750D01*
X148563500Y-87249000D01*
X149450250Y-87249000D01*
X149609000Y-87090250D01*
X149612072Y-86901000D01*
X149599812Y-86776518D01*
X149563502Y-86656820D01*
X149504537Y-86546506D01*
X149425185Y-86449815D01*
X149328494Y-86370463D01*
X149218180Y-86311498D01*
X149098482Y-86275188D01*
X148974000Y-86262928D01*
X148722250Y-86266000D01*
X148563500Y-86424750D01*
X148309500Y-86424750D01*
X148150750Y-86266000D01*
X147899000Y-86262928D01*
X147774518Y-86275188D01*
X147654820Y-86311498D01*
X147596500Y-86342671D01*
X147596500Y-84966954D01*
X147628705Y-84918756D01*
X147706726Y-84730398D01*
X147746500Y-84530439D01*
X147746500Y-84326561D01*
X147706726Y-84126602D01*
X147628705Y-83938244D01*
X147596500Y-83890046D01*
X147596500Y-83696954D01*
X147628705Y-83648756D01*
X147706726Y-83460398D01*
X147746500Y-83260439D01*
X147746500Y-83056561D01*
X147718591Y-82916254D01*
X147748898Y-82910226D01*
X147937256Y-82832205D01*
X147985454Y-82800000D01*
X148305546Y-82800000D01*
X148353744Y-82832205D01*
X148542102Y-82910226D01*
X148742061Y-82950000D01*
X148945939Y-82950000D01*
X149145898Y-82910226D01*
X149334256Y-82832205D01*
X149503774Y-82718937D01*
X149647937Y-82574774D01*
X149761205Y-82405256D01*
X149839226Y-82216898D01*
X149879000Y-82016939D01*
X149879000Y-81813061D01*
X149839226Y-81613102D01*
X149761205Y-81424744D01*
X149647937Y-81255226D01*
X149503774Y-81111063D01*
X149334256Y-80997795D01*
X149145898Y-80919774D01*
X148945939Y-80880000D01*
X148742061Y-80880000D01*
X148542102Y-80919774D01*
X148353744Y-80997795D01*
X148305546Y-81030000D01*
X147985454Y-81030000D01*
X147937256Y-80997795D01*
X147748898Y-80919774D01*
X147746500Y-80919297D01*
X147746500Y-80823561D01*
X147706726Y-80623602D01*
X147628705Y-80435244D01*
X147515437Y-80265726D01*
X147371274Y-80121563D01*
X147201756Y-80008295D01*
X147013398Y-79930274D01*
X146813439Y-79890500D01*
X146609561Y-79890500D01*
X146409602Y-79930274D01*
X146221244Y-80008295D01*
X146051726Y-80121563D01*
X145907563Y-80265726D01*
X145808033Y-80414683D01*
X145810072Y-79443000D01*
X145797812Y-79318518D01*
X145761502Y-79198820D01*
X145702537Y-79088506D01*
X145623185Y-78991815D01*
X145526494Y-78912463D01*
X145416180Y-78853498D01*
X145296482Y-78817188D01*
X145172000Y-78804928D01*
X144557750Y-78808000D01*
X144399000Y-78966750D01*
X144399000Y-81066000D01*
X144419000Y-81066000D01*
X144419000Y-81320000D01*
X144399000Y-81320000D01*
X144399000Y-83419250D01*
X144557750Y-83578000D01*
X145172000Y-83581072D01*
X145296482Y-83568812D01*
X145416180Y-83532502D01*
X145526494Y-83473537D01*
X145623185Y-83394185D01*
X145687512Y-83315802D01*
X145716274Y-83460398D01*
X145794295Y-83648756D01*
X145826501Y-83696955D01*
X145826500Y-83890045D01*
X145794295Y-83938244D01*
X145719167Y-84119618D01*
X145702537Y-84088506D01*
X145623185Y-83991815D01*
X145526494Y-83912463D01*
X145416180Y-83853498D01*
X145296482Y-83817188D01*
X145172000Y-83804928D01*
X143372000Y-83804928D01*
X143247518Y-83817188D01*
X143127820Y-83853498D01*
X143017506Y-83912463D01*
X142920815Y-83991815D01*
X142841463Y-84088506D01*
X142782498Y-84198820D01*
X142746188Y-84318518D01*
X142733928Y-84443000D01*
X142733928Y-85438746D01*
X142675537Y-85329506D01*
X142596185Y-85232815D01*
X142499494Y-85153463D01*
X142389180Y-85094498D01*
X142269482Y-85058188D01*
X142145000Y-85045928D01*
X141255750Y-85049000D01*
X141097000Y-85207750D01*
X141097000Y-86219500D01*
X141117000Y-86219500D01*
X141117000Y-86473500D01*
X141097000Y-86473500D01*
X141097000Y-87485250D01*
X141255750Y-87644000D01*
X142145000Y-87647072D01*
X142269482Y-87634812D01*
X142389180Y-87598502D01*
X142499494Y-87539537D01*
X142596185Y-87460185D01*
X142675537Y-87363494D01*
X142733928Y-87254254D01*
X142733928Y-87943000D01*
X142746188Y-88067482D01*
X142782498Y-88187180D01*
X142841463Y-88297494D01*
X142879000Y-88343234D01*
X142879001Y-90257466D01*
X142791377Y-90329377D01*
X142748000Y-90382232D01*
X142720500Y-90348723D01*
X142720500Y-90330469D01*
X142724781Y-90287000D01*
X142720500Y-90243531D01*
X142720500Y-90243523D01*
X142713923Y-90176749D01*
X142715472Y-90173852D01*
X142766008Y-90007257D01*
X142783072Y-89834003D01*
X142783072Y-89008997D01*
X142766008Y-88835743D01*
X142715472Y-88669148D01*
X142633405Y-88515612D01*
X142522963Y-88381037D01*
X142388388Y-88270595D01*
X142234852Y-88188528D01*
X142068257Y-88137992D01*
X141895003Y-88120928D01*
X140044997Y-88120928D01*
X139871743Y-88137992D01*
X139705148Y-88188528D01*
X139569000Y-88261301D01*
X139569000Y-87604017D01*
X139670518Y-87634812D01*
X139795000Y-87647072D01*
X140684250Y-87644000D01*
X140843000Y-87485250D01*
X140843000Y-86473500D01*
X140823000Y-86473500D01*
X140823000Y-86219500D01*
X140843000Y-86219500D01*
X140843000Y-85207750D01*
X140684250Y-85049000D01*
X140152416Y-85047163D01*
X141184049Y-84015530D01*
X141217817Y-83987817D01*
X141303278Y-83883684D01*
X141328411Y-83853059D01*
X141379245Y-83757954D01*
X141410589Y-83699313D01*
X141461195Y-83532490D01*
X141474000Y-83402477D01*
X141474000Y-83402469D01*
X141478281Y-83359000D01*
X141474000Y-83315531D01*
X141474000Y-82943000D01*
X142733928Y-82943000D01*
X142746188Y-83067482D01*
X142782498Y-83187180D01*
X142841463Y-83297494D01*
X142920815Y-83394185D01*
X143017506Y-83473537D01*
X143127820Y-83532502D01*
X143247518Y-83568812D01*
X143372000Y-83581072D01*
X143986250Y-83578000D01*
X144145000Y-83419250D01*
X144145000Y-81320000D01*
X142895750Y-81320000D01*
X142737000Y-81478750D01*
X142733928Y-82943000D01*
X141474000Y-82943000D01*
X141474000Y-79443000D01*
X142733928Y-79443000D01*
X142737000Y-80907250D01*
X142895750Y-81066000D01*
X144145000Y-81066000D01*
X144145000Y-78966750D01*
X143986250Y-78808000D01*
X143372000Y-78804928D01*
X143247518Y-78817188D01*
X143127820Y-78853498D01*
X143017506Y-78912463D01*
X142920815Y-78991815D01*
X142841463Y-79088506D01*
X142782498Y-79198820D01*
X142746188Y-79318518D01*
X142733928Y-79443000D01*
X141474000Y-79443000D01*
X141474000Y-78783477D01*
X141478282Y-78740000D01*
X141461195Y-78566510D01*
X141410589Y-78399687D01*
X141328411Y-78245941D01*
X141217817Y-78111183D01*
X141083059Y-78000589D01*
X141008484Y-77960729D01*
X139975785Y-76928030D01*
X139975785Y-76766536D01*
X139971597Y-76724017D01*
X140002482Y-76733386D01*
X140126964Y-76745646D01*
X140366214Y-76742574D01*
X140524964Y-76583824D01*
X140524964Y-75759574D01*
X140504964Y-75759574D01*
X140504964Y-75505574D01*
X140524964Y-75505574D01*
X140524964Y-75485574D01*
X140778964Y-75485574D01*
X140778964Y-75505574D01*
X140798964Y-75505574D01*
X140798964Y-75759574D01*
X140778964Y-75759574D01*
X140778964Y-76583824D01*
X140937714Y-76742574D01*
X141176964Y-76745646D01*
X141301446Y-76733386D01*
X141421144Y-76697076D01*
X141531458Y-76638111D01*
X141604125Y-76578475D01*
X141628022Y-76598086D01*
X141779397Y-76678997D01*
X141943648Y-76728822D01*
X142114464Y-76745646D01*
X142689464Y-76745646D01*
X142860280Y-76728822D01*
X143024531Y-76678997D01*
X143175906Y-76598086D01*
X143308587Y-76489197D01*
X143417476Y-76356516D01*
X143498387Y-76205141D01*
X143548212Y-76040890D01*
X143565036Y-75870074D01*
X143565036Y-75415735D01*
X156670151Y-75415735D01*
X156783987Y-76317539D01*
X157071570Y-77179806D01*
X157482115Y-77909352D01*
X158051435Y-78362846D01*
X162539759Y-73874522D01*
X159352122Y-70686885D01*
X157937908Y-72101098D01*
X157380732Y-72819264D01*
X156974368Y-73632330D01*
X156734435Y-74509051D01*
X156670151Y-75415735D01*
X143565036Y-75415735D01*
X143565036Y-75395074D01*
X143548212Y-75224258D01*
X143498387Y-75060007D01*
X143420427Y-74914154D01*
X143498387Y-74768300D01*
X143548212Y-74604049D01*
X143565036Y-74433233D01*
X143565036Y-73958233D01*
X143548212Y-73787417D01*
X143498387Y-73623166D01*
X143417476Y-73471791D01*
X143308587Y-73339110D01*
X143175906Y-73230221D01*
X143024531Y-73149310D01*
X142860280Y-73099485D01*
X142689464Y-73082661D01*
X142189464Y-73082661D01*
X142018648Y-73099485D01*
X141854397Y-73149310D01*
X141703022Y-73230221D01*
X141570341Y-73339110D01*
X141526964Y-73391965D01*
X141483587Y-73339110D01*
X141350906Y-73230221D01*
X141199531Y-73149310D01*
X141035280Y-73099485D01*
X140864464Y-73082661D01*
X140755240Y-73082661D01*
X140142230Y-72469652D01*
X140387158Y-72420932D01*
X140657411Y-72308990D01*
X140900632Y-72146475D01*
X141107475Y-71939632D01*
X141224000Y-71765240D01*
X141340525Y-71939632D01*
X141547368Y-72146475D01*
X141790589Y-72308990D01*
X142060842Y-72420932D01*
X142347740Y-72478000D01*
X142640260Y-72478000D01*
X142927158Y-72420932D01*
X143197411Y-72308990D01*
X143440632Y-72146475D01*
X143647475Y-71939632D01*
X143809990Y-71696411D01*
X143921932Y-71426158D01*
X143979000Y-71139260D01*
X143979000Y-71110290D01*
X144035744Y-71148205D01*
X144224102Y-71226226D01*
X144424061Y-71266000D01*
X144627939Y-71266000D01*
X144827898Y-71226226D01*
X144970500Y-71167158D01*
X145113102Y-71226226D01*
X145313061Y-71266000D01*
X145516939Y-71266000D01*
X145716898Y-71226226D01*
X145905256Y-71148205D01*
X145923000Y-71136349D01*
X145940744Y-71148205D01*
X146129102Y-71226226D01*
X146329061Y-71266000D01*
X146532939Y-71266000D01*
X146732898Y-71226226D01*
X146921256Y-71148205D01*
X147090774Y-71034937D01*
X147234937Y-70890774D01*
X147348205Y-70721256D01*
X147426226Y-70532898D01*
X147466000Y-70332939D01*
X147466000Y-70129061D01*
X147426226Y-69929102D01*
X147348205Y-69740744D01*
X147234937Y-69571226D01*
X147090774Y-69427063D01*
X146921256Y-69313795D01*
X146732898Y-69235774D01*
X146532939Y-69196000D01*
X146329061Y-69196000D01*
X146129102Y-69235774D01*
X145940744Y-69313795D01*
X145923000Y-69325651D01*
X145905256Y-69313795D01*
X145716898Y-69235774D01*
X145516939Y-69196000D01*
X145313061Y-69196000D01*
X145113102Y-69235774D01*
X144970500Y-69294842D01*
X144827898Y-69235774D01*
X144771044Y-69224465D01*
X141738072Y-66191494D01*
X141738072Y-66056500D01*
X141721248Y-65885684D01*
X141671423Y-65721433D01*
X141615827Y-65617419D01*
X141630537Y-65599494D01*
X141689502Y-65489180D01*
X141725812Y-65369482D01*
X141738072Y-65245000D01*
X141735000Y-65055750D01*
X141576250Y-64897000D01*
X140702000Y-64897000D01*
X140702000Y-64917000D01*
X140448000Y-64917000D01*
X140448000Y-64897000D01*
X140428000Y-64897000D01*
X140428000Y-64643000D01*
X140448000Y-64643000D01*
X140448000Y-64623000D01*
X140702000Y-64623000D01*
X140702000Y-64643000D01*
X141576250Y-64643000D01*
X141735000Y-64484250D01*
X141738072Y-64295000D01*
X141725812Y-64170518D01*
X141689502Y-64050820D01*
X141630537Y-63940506D01*
X141551185Y-63843815D01*
X141454494Y-63764463D01*
X141367704Y-63718072D01*
X141820000Y-63718072D01*
X141944482Y-63705812D01*
X142064180Y-63669502D01*
X142174494Y-63610537D01*
X142271185Y-63531185D01*
X142350537Y-63434494D01*
X142409502Y-63324180D01*
X142445812Y-63204482D01*
X142458072Y-63080000D01*
X142458072Y-61380000D01*
X142445812Y-61255518D01*
X142409502Y-61135820D01*
X142350537Y-61025506D01*
X142271185Y-60928815D01*
X142174494Y-60849463D01*
X142064180Y-60790498D01*
X141944482Y-60754188D01*
X141820000Y-60741928D01*
X140120000Y-60741928D01*
X139995518Y-60754188D01*
X139875820Y-60790498D01*
X139765506Y-60849463D01*
X139668815Y-60928815D01*
X139589463Y-61025506D01*
X139530498Y-61135820D01*
X139506034Y-61216466D01*
X139430269Y-61132412D01*
X139196920Y-60958359D01*
X138934099Y-60833175D01*
X138786890Y-60788524D01*
X138557000Y-60909845D01*
X138557000Y-62103000D01*
X138577000Y-62103000D01*
X138577000Y-62357000D01*
X138557000Y-62357000D01*
X138557000Y-62377000D01*
X138303000Y-62377000D01*
X138303000Y-62357000D01*
X137109186Y-62357000D01*
X136988519Y-62586891D01*
X137085843Y-62861252D01*
X137234822Y-63111355D01*
X137429731Y-63327588D01*
X137452082Y-63344260D01*
X136632190Y-64164153D01*
X136602236Y-64188736D01*
X136504138Y-64308268D01*
X136431246Y-64444641D01*
X136386359Y-64592614D01*
X136375000Y-64707940D01*
X136375000Y-64707947D01*
X136371203Y-64746500D01*
X136375000Y-64785053D01*
X136375001Y-66730842D01*
X134770834Y-68335009D01*
X133864543Y-68335009D01*
X133825990Y-68331212D01*
X133787437Y-68335009D01*
X133787430Y-68335009D01*
X133686481Y-68344952D01*
X133672103Y-68346368D01*
X133637663Y-68356815D01*
X133524131Y-68391255D01*
X133387758Y-68464147D01*
X133341824Y-68501845D01*
X133298178Y-68537664D01*
X133298175Y-68537667D01*
X133268227Y-68562245D01*
X133243649Y-68592193D01*
X130282190Y-71553653D01*
X130252236Y-71578236D01*
X130154138Y-71697768D01*
X130081246Y-71834141D01*
X130036359Y-71982114D01*
X130025000Y-72097440D01*
X130025000Y-72097447D01*
X130021203Y-72136000D01*
X130025000Y-72174553D01*
X130025001Y-73987730D01*
X129949205Y-73804744D01*
X129835937Y-73635226D01*
X129691774Y-73491063D01*
X129646655Y-73460916D01*
X129695205Y-73388256D01*
X129773226Y-73199898D01*
X129813000Y-72999939D01*
X129813000Y-72796061D01*
X129773226Y-72596102D01*
X129695205Y-72407744D01*
X129581937Y-72238226D01*
X129543211Y-72199500D01*
X129581937Y-72160774D01*
X129695205Y-71991256D01*
X129773226Y-71802898D01*
X129813000Y-71602939D01*
X129813000Y-71399061D01*
X129773226Y-71199102D01*
X129695205Y-71010744D01*
X129581937Y-70841226D01*
X129437774Y-70697063D01*
X129333989Y-70627716D01*
X129441205Y-70467256D01*
X129519226Y-70278898D01*
X129559000Y-70078939D01*
X129559000Y-69875061D01*
X129519226Y-69675102D01*
X129441205Y-69486744D01*
X129327937Y-69317226D01*
X129183774Y-69173063D01*
X129014256Y-69059795D01*
X128825898Y-68981774D01*
X128625939Y-68942000D01*
X128583502Y-68942000D01*
X128581233Y-68940138D01*
X128444860Y-68867246D01*
X128296887Y-68822359D01*
X128181561Y-68811000D01*
X128181553Y-68811000D01*
X128143000Y-68807203D01*
X128104447Y-68811000D01*
X123714556Y-68811000D01*
X123676000Y-68807203D01*
X123637444Y-68811000D01*
X123637439Y-68811000D01*
X123597026Y-68814980D01*
X123522113Y-68822358D01*
X123374140Y-68867246D01*
X123237767Y-68940138D01*
X123118236Y-69038236D01*
X123093653Y-69068190D01*
X122689915Y-69471928D01*
X121737000Y-69471928D01*
X121612518Y-69484188D01*
X121492820Y-69520498D01*
X121382506Y-69579463D01*
X121285815Y-69658815D01*
X121206463Y-69755506D01*
X121147498Y-69865820D01*
X121111188Y-69985518D01*
X121098928Y-70110000D01*
X121098928Y-70860000D01*
X121111188Y-70984482D01*
X121147498Y-71104180D01*
X121155954Y-71120000D01*
X121147498Y-71135820D01*
X121111188Y-71255518D01*
X121098928Y-71380000D01*
X121098928Y-72130000D01*
X121111188Y-72254482D01*
X121147498Y-72374180D01*
X121155954Y-72390000D01*
X121147498Y-72405820D01*
X121111188Y-72525518D01*
X121098928Y-72650000D01*
X121098928Y-73400000D01*
X121111188Y-73524482D01*
X121147498Y-73644180D01*
X121206463Y-73754494D01*
X121285815Y-73851185D01*
X121382506Y-73930537D01*
X121492820Y-73989502D01*
X121612518Y-74025812D01*
X121737000Y-74038072D01*
X122689915Y-74038072D01*
X124363658Y-75711816D01*
X124388236Y-75741764D01*
X124418184Y-75766342D01*
X124418187Y-75766345D01*
X124420891Y-75768564D01*
X124507767Y-75839862D01*
X124644140Y-75912754D01*
X124792113Y-75957641D01*
X124907439Y-75969000D01*
X124907446Y-75969000D01*
X124945999Y-75972797D01*
X124984552Y-75969000D01*
X125072790Y-75969000D01*
X125049010Y-76004589D01*
X124937068Y-76274842D01*
X124880000Y-76561740D01*
X124880000Y-76854260D01*
X124937068Y-77141158D01*
X125049010Y-77411411D01*
X125211525Y-77654632D01*
X125418368Y-77861475D01*
X125600534Y-77983195D01*
X125483645Y-78052822D01*
X125267412Y-78247731D01*
X125093359Y-78481080D01*
X124968175Y-78743901D01*
X124923524Y-78891110D01*
X125044845Y-79121000D01*
X126238000Y-79121000D01*
X126238000Y-79101000D01*
X126492000Y-79101000D01*
X126492000Y-79121000D01*
X127685155Y-79121000D01*
X127806476Y-78891110D01*
X127761825Y-78743901D01*
X127636641Y-78481080D01*
X127462588Y-78247731D01*
X127246355Y-78052822D01*
X127129466Y-77983195D01*
X127230013Y-77916011D01*
X131363600Y-77916011D01*
X131332427Y-77974331D01*
X131296117Y-78094029D01*
X131283857Y-78218511D01*
X131286929Y-78470261D01*
X131445679Y-78629011D01*
X132269929Y-78629011D01*
X132269929Y-78609011D01*
X132523929Y-78609011D01*
X132523929Y-78629011D01*
X133026600Y-78629011D01*
X133062125Y-78664536D01*
X133886375Y-78664536D01*
X133886375Y-78644536D01*
X134140375Y-78644536D01*
X134140375Y-78664536D01*
X134964625Y-78664536D01*
X135000150Y-78629011D01*
X135502821Y-78629011D01*
X135502821Y-78609011D01*
X135756821Y-78609011D01*
X135756821Y-78629011D01*
X136259492Y-78629011D01*
X136295017Y-78664536D01*
X137119267Y-78664536D01*
X137119267Y-78644536D01*
X137373267Y-78644536D01*
X137373267Y-78664536D01*
X138735713Y-78664536D01*
X138735713Y-78644536D01*
X138989713Y-78644536D01*
X138989713Y-78664536D01*
X139009713Y-78664536D01*
X139009713Y-78918536D01*
X138989713Y-78918536D01*
X138989713Y-80332434D01*
X139009713Y-80332434D01*
X139009713Y-80586434D01*
X138989713Y-80586434D01*
X138989713Y-80606434D01*
X138735713Y-80606434D01*
X138735713Y-80586434D01*
X137373267Y-80586434D01*
X137373267Y-80606434D01*
X137119267Y-80606434D01*
X137119267Y-80586434D01*
X135756821Y-80586434D01*
X135756821Y-80606434D01*
X135502821Y-80606434D01*
X135502821Y-80586434D01*
X134140375Y-80586434D01*
X134140375Y-80606434D01*
X133886375Y-80606434D01*
X133886375Y-80586434D01*
X132523929Y-80586434D01*
X132523929Y-80606434D01*
X132269929Y-80606434D01*
X132269929Y-80586434D01*
X131445679Y-80586434D01*
X131286929Y-80745184D01*
X131283857Y-80996934D01*
X131296117Y-81121416D01*
X131332427Y-81241114D01*
X131363600Y-81299434D01*
X127853072Y-81299434D01*
X127853072Y-80938000D01*
X127840812Y-80813518D01*
X127804502Y-80693820D01*
X127745537Y-80583506D01*
X127666185Y-80486815D01*
X127569494Y-80407463D01*
X127459180Y-80348498D01*
X127378534Y-80324034D01*
X127462588Y-80248269D01*
X127636641Y-80014920D01*
X127761825Y-79752099D01*
X127806476Y-79604890D01*
X127685155Y-79375000D01*
X126492000Y-79375000D01*
X126492000Y-79395000D01*
X126238000Y-79395000D01*
X126238000Y-79375000D01*
X125044845Y-79375000D01*
X124923524Y-79604890D01*
X124968175Y-79752099D01*
X125093359Y-80014920D01*
X125267412Y-80248269D01*
X125351466Y-80324034D01*
X125270820Y-80348498D01*
X125160506Y-80407463D01*
X125063815Y-80486815D01*
X124984463Y-80583506D01*
X124925498Y-80693820D01*
X124889188Y-80813518D01*
X124876928Y-80938000D01*
X124876928Y-82638000D01*
X124889188Y-82762482D01*
X124925498Y-82882180D01*
X124984463Y-82992494D01*
X125063815Y-83089185D01*
X125160506Y-83168537D01*
X125270820Y-83227502D01*
X125390518Y-83263812D01*
X125515000Y-83276072D01*
X127215000Y-83276072D01*
X127339482Y-83263812D01*
X127459180Y-83227502D01*
X127569494Y-83168537D01*
X127666185Y-83089185D01*
X127682394Y-83069434D01*
X131512302Y-83069434D01*
X131540306Y-83103557D01*
X131672987Y-83212446D01*
X131824362Y-83293357D01*
X131988613Y-83343182D01*
X132159429Y-83360006D01*
X132634429Y-83360006D01*
X132805245Y-83343182D01*
X132969496Y-83293357D01*
X133120871Y-83212446D01*
X133205152Y-83143278D01*
X133251505Y-83181320D01*
X133237188Y-83228518D01*
X133224928Y-83353000D01*
X133224928Y-85353000D01*
X133237188Y-85477482D01*
X133273498Y-85597180D01*
X133332463Y-85707494D01*
X133411815Y-85804185D01*
X133508506Y-85883537D01*
X133618820Y-85942502D01*
X133738518Y-85978812D01*
X133863000Y-85991072D01*
X134878000Y-85991072D01*
X134878001Y-87507000D01*
X132569824Y-87507000D01*
X132581812Y-87467482D01*
X132594072Y-87343000D01*
X132591000Y-87153750D01*
X132432250Y-86995000D01*
X131558000Y-86995000D01*
X131558000Y-87015000D01*
X131304000Y-87015000D01*
X131304000Y-86995000D01*
X131284000Y-86995000D01*
X131284000Y-86741000D01*
X131304000Y-86741000D01*
X131304000Y-85916750D01*
X131558000Y-85916750D01*
X131558000Y-86741000D01*
X132432250Y-86741000D01*
X132591000Y-86582250D01*
X132594072Y-86393000D01*
X132581812Y-86268518D01*
X132545502Y-86148820D01*
X132486537Y-86038506D01*
X132407185Y-85941815D01*
X132310494Y-85862463D01*
X132200180Y-85803498D01*
X132080482Y-85767188D01*
X131956000Y-85754928D01*
X131716750Y-85758000D01*
X131558000Y-85916750D01*
X131304000Y-85916750D01*
X131145250Y-85758000D01*
X130906000Y-85754928D01*
X130781518Y-85767188D01*
X130661820Y-85803498D01*
X130551506Y-85862463D01*
X130478839Y-85922099D01*
X130454942Y-85902488D01*
X130303567Y-85821577D01*
X130139316Y-85771752D01*
X129968500Y-85754928D01*
X129393500Y-85754928D01*
X129222684Y-85771752D01*
X129058433Y-85821577D01*
X128907058Y-85902488D01*
X128774377Y-86011377D01*
X128665488Y-86144058D01*
X128584577Y-86295433D01*
X128534752Y-86459684D01*
X128517928Y-86630500D01*
X128517928Y-87105500D01*
X128534752Y-87276316D01*
X128584577Y-87440567D01*
X128665488Y-87591942D01*
X128696722Y-87630000D01*
X128665488Y-87668058D01*
X128584577Y-87819433D01*
X128534752Y-87983684D01*
X128517928Y-88154500D01*
X128517928Y-88629500D01*
X128534752Y-88800316D01*
X128584577Y-88964567D01*
X128665488Y-89115942D01*
X128774377Y-89248623D01*
X128907058Y-89357512D01*
X129058433Y-89438423D01*
X129222684Y-89488248D01*
X129393500Y-89505072D01*
X129893500Y-89505072D01*
X130064316Y-89488248D01*
X130228567Y-89438423D01*
X130379942Y-89357512D01*
X130512623Y-89248623D01*
X130556000Y-89195768D01*
X130599377Y-89248623D01*
X130732058Y-89357512D01*
X130883433Y-89438423D01*
X131047684Y-89488248D01*
X131218500Y-89505072D01*
X131718500Y-89505072D01*
X131889316Y-89488248D01*
X132053567Y-89438423D01*
X132129317Y-89397934D01*
X132123498Y-89408820D01*
X132087188Y-89528518D01*
X132074928Y-89653000D01*
X132078000Y-90367250D01*
X132236750Y-90526000D01*
X133336000Y-90526000D01*
X133336000Y-90506000D01*
X133590000Y-90506000D01*
X133590000Y-90526000D01*
X133610000Y-90526000D01*
X133610000Y-90780000D01*
X133590000Y-90780000D01*
X133590000Y-92129250D01*
X133748750Y-92288000D01*
X134213000Y-92291072D01*
X134337482Y-92278812D01*
X134457180Y-92242502D01*
X134567494Y-92183537D01*
X134613000Y-92146191D01*
X134658506Y-92183537D01*
X134768820Y-92242502D01*
X134888518Y-92278812D01*
X135013000Y-92291072D01*
X136513000Y-92291072D01*
X136637482Y-92278812D01*
X136757180Y-92242502D01*
X136867494Y-92183537D01*
X136913000Y-92146191D01*
X136958506Y-92183537D01*
X137068820Y-92242502D01*
X137188518Y-92278812D01*
X137313000Y-92291072D01*
X137372659Y-92291072D01*
X137329498Y-92371820D01*
X137293188Y-92491518D01*
X137280928Y-92616000D01*
X137284000Y-92805250D01*
X137442750Y-92964000D01*
X138329500Y-92964000D01*
X138329500Y-92944000D01*
X138583500Y-92944000D01*
X138583500Y-92964000D01*
X138603500Y-92964000D01*
X138603500Y-93218000D01*
X138583500Y-93218000D01*
X138583500Y-93740750D01*
X138533500Y-93790750D01*
X138533500Y-94615000D01*
X138553500Y-94615000D01*
X138553500Y-94869000D01*
X138533500Y-94869000D01*
X138533500Y-95693250D01*
X138692250Y-95852000D01*
X138894000Y-95855072D01*
X139018482Y-95842812D01*
X139138180Y-95806502D01*
X139248494Y-95747537D01*
X139345185Y-95668185D01*
X139386217Y-95618188D01*
X139495058Y-95707512D01*
X139646433Y-95788423D01*
X139810684Y-95838248D01*
X139981500Y-95855072D01*
X140481500Y-95855072D01*
X140652316Y-95838248D01*
X140816567Y-95788423D01*
X140837003Y-95777500D01*
X140971639Y-95777500D01*
X140974000Y-95801469D01*
X140974000Y-95801477D01*
X140979279Y-95855072D01*
X140986805Y-95931490D01*
X141037412Y-96098313D01*
X141119590Y-96252059D01*
X141202468Y-96353046D01*
X141202471Y-96353049D01*
X141230184Y-96386817D01*
X141263951Y-96414529D01*
X142599470Y-97750049D01*
X142627183Y-97783817D01*
X142660951Y-97811530D01*
X142660953Y-97811532D01*
X142731102Y-97869102D01*
X142761941Y-97894411D01*
X142915687Y-97976589D01*
X143082510Y-98027195D01*
X143212523Y-98040000D01*
X143212533Y-98040000D01*
X143255999Y-98044281D01*
X143299465Y-98040000D01*
X146925781Y-98040000D01*
X146920000Y-98069061D01*
X146920000Y-98095842D01*
X141966190Y-103049653D01*
X141936236Y-103074236D01*
X141838138Y-103193768D01*
X141785514Y-103292222D01*
X141753423Y-103186433D01*
X141672512Y-103035058D01*
X141563623Y-102902377D01*
X141430942Y-102793488D01*
X141279567Y-102712577D01*
X141156099Y-102675123D01*
X141213398Y-102663726D01*
X141401756Y-102585705D01*
X141571274Y-102472437D01*
X141715437Y-102328274D01*
X141828705Y-102158756D01*
X141906726Y-101970398D01*
X141946500Y-101770439D01*
X141946500Y-101566561D01*
X141906726Y-101366602D01*
X141828705Y-101178244D01*
X141715437Y-101008726D01*
X141571274Y-100864563D01*
X141401756Y-100751295D01*
X141213398Y-100673274D01*
X141013439Y-100633500D01*
X140809561Y-100633500D01*
X140609602Y-100673274D01*
X140455912Y-100736935D01*
X140441226Y-100663102D01*
X140363205Y-100474744D01*
X140249937Y-100305226D01*
X140105774Y-100161063D01*
X139936256Y-100047795D01*
X139747898Y-99969774D01*
X139547939Y-99930000D01*
X139344061Y-99930000D01*
X139144102Y-99969774D01*
X138955744Y-100047795D01*
X138786226Y-100161063D01*
X138642063Y-100305226D01*
X138528795Y-100474744D01*
X138450774Y-100663102D01*
X138439465Y-100719957D01*
X138428551Y-100730871D01*
X138379244Y-100751295D01*
X138209726Y-100864563D01*
X138065563Y-101008726D01*
X137952295Y-101178244D01*
X137874274Y-101366602D01*
X137834500Y-101566561D01*
X137834500Y-101770439D01*
X137874274Y-101970398D01*
X137952295Y-102158756D01*
X137984501Y-102206955D01*
X137984500Y-102921723D01*
X137891488Y-103035058D01*
X137810577Y-103186433D01*
X137760752Y-103350684D01*
X137743928Y-103521500D01*
X137743928Y-103996500D01*
X137760752Y-104167316D01*
X137810577Y-104331567D01*
X137866173Y-104435581D01*
X137851463Y-104453506D01*
X137792498Y-104563820D01*
X137756188Y-104683518D01*
X137743928Y-104808000D01*
X137747000Y-104997250D01*
X137905750Y-105156000D01*
X138780000Y-105156000D01*
X138780000Y-105136000D01*
X139034000Y-105136000D01*
X139034000Y-105156000D01*
X139054000Y-105156000D01*
X139054000Y-105410000D01*
X139034000Y-105410000D01*
X139034000Y-106234250D01*
X139192750Y-106393000D01*
X139432000Y-106396072D01*
X139556482Y-106383812D01*
X139676180Y-106347502D01*
X139786494Y-106288537D01*
X139859161Y-106228901D01*
X139883058Y-106248512D01*
X140034433Y-106329423D01*
X140198684Y-106379248D01*
X140369500Y-106396072D01*
X140944500Y-106396072D01*
X141115316Y-106379248D01*
X141279567Y-106329423D01*
X141430942Y-106248512D01*
X141563623Y-106139623D01*
X141672512Y-106006942D01*
X141709001Y-105938676D01*
X141709001Y-106203042D01*
X141450115Y-106461928D01*
X140222200Y-106461928D01*
X140097718Y-106474188D01*
X139978020Y-106510498D01*
X139867706Y-106569463D01*
X139771015Y-106648815D01*
X139691663Y-106745506D01*
X139632698Y-106855820D01*
X139608234Y-106936466D01*
X139532469Y-106852412D01*
X139299120Y-106678359D01*
X139036299Y-106553175D01*
X138889090Y-106508524D01*
X138659200Y-106629845D01*
X138659200Y-107823000D01*
X138679200Y-107823000D01*
X138679200Y-108077000D01*
X138659200Y-108077000D01*
X138659200Y-108097000D01*
X138405200Y-108097000D01*
X138405200Y-108077000D01*
X137211386Y-108077000D01*
X137090719Y-108306891D01*
X137188043Y-108581252D01*
X137337022Y-108831355D01*
X137531931Y-109047588D01*
X137765280Y-109221641D01*
X138013772Y-109340000D01*
X120029392Y-109340000D01*
X119366439Y-109280833D01*
X117632607Y-107547001D01*
X117727573Y-107452035D01*
X118045757Y-107905850D01*
X118650210Y-108231269D01*
X119306535Y-108432512D01*
X119989510Y-108501845D01*
X120672888Y-108436605D01*
X121330407Y-108239298D01*
X121936799Y-107917506D01*
X121954243Y-107905850D01*
X122173515Y-107593109D01*
X137090719Y-107593109D01*
X137211386Y-107823000D01*
X138405200Y-107823000D01*
X138405200Y-106629845D01*
X138175310Y-106508524D01*
X138028101Y-106553175D01*
X137765280Y-106678359D01*
X137531931Y-106852412D01*
X137337022Y-107068645D01*
X137188043Y-107318748D01*
X137090719Y-107593109D01*
X122173515Y-107593109D01*
X122272428Y-107452033D01*
X120000000Y-105179605D01*
X119985858Y-105193748D01*
X119806253Y-105014143D01*
X119820395Y-105000000D01*
X120179605Y-105000000D01*
X122452033Y-107272428D01*
X122905850Y-106954243D01*
X123231269Y-106349790D01*
X123412724Y-105758000D01*
X137743928Y-105758000D01*
X137756188Y-105882482D01*
X137792498Y-106002180D01*
X137851463Y-106112494D01*
X137930815Y-106209185D01*
X138027506Y-106288537D01*
X138137820Y-106347502D01*
X138257518Y-106383812D01*
X138382000Y-106396072D01*
X138621250Y-106393000D01*
X138780000Y-106234250D01*
X138780000Y-105410000D01*
X137905750Y-105410000D01*
X137747000Y-105568750D01*
X137743928Y-105758000D01*
X123412724Y-105758000D01*
X123432512Y-105693465D01*
X123501845Y-105010490D01*
X123436605Y-104327112D01*
X123239298Y-103669593D01*
X122917506Y-103063201D01*
X122905850Y-103045757D01*
X122452033Y-102727572D01*
X120179605Y-105000000D01*
X119820395Y-105000000D01*
X117547967Y-102727572D01*
X117094150Y-103045757D01*
X116768731Y-103650210D01*
X116567488Y-104306535D01*
X116498155Y-104989510D01*
X116563395Y-105672888D01*
X116760702Y-106330407D01*
X117082494Y-106936799D01*
X117094150Y-106954243D01*
X117547965Y-107272427D01*
X117452999Y-107367393D01*
X115707443Y-105621837D01*
X115660000Y-104975793D01*
X115660000Y-102547967D01*
X117727572Y-102547967D01*
X120000000Y-104820395D01*
X122272428Y-102547967D01*
X121954243Y-102094150D01*
X121349790Y-101768731D01*
X120693465Y-101567488D01*
X120010490Y-101498155D01*
X119327112Y-101563395D01*
X118669593Y-101760702D01*
X118063201Y-102082494D01*
X118045757Y-102094150D01*
X117727572Y-102547967D01*
X115660000Y-102547967D01*
X115660000Y-90068061D01*
X115805000Y-90068061D01*
X115805000Y-90271939D01*
X115844774Y-90471898D01*
X115922795Y-90660256D01*
X116019510Y-90805000D01*
X115922795Y-90949744D01*
X115844774Y-91138102D01*
X115805000Y-91338061D01*
X115805000Y-91541939D01*
X115844774Y-91741898D01*
X115922795Y-91930256D01*
X116019510Y-92075000D01*
X115922795Y-92219744D01*
X115844774Y-92408102D01*
X115805000Y-92608061D01*
X115805000Y-92811939D01*
X115844774Y-93011898D01*
X115922795Y-93200256D01*
X116019510Y-93345000D01*
X115922795Y-93489744D01*
X115844774Y-93678102D01*
X115805000Y-93878061D01*
X115805000Y-94081939D01*
X115844774Y-94281898D01*
X115922795Y-94470256D01*
X116019510Y-94615000D01*
X115922795Y-94759744D01*
X115844774Y-94948102D01*
X115805000Y-95148061D01*
X115805000Y-95351939D01*
X115844774Y-95551898D01*
X115922795Y-95740256D01*
X116019510Y-95885000D01*
X115922795Y-96029744D01*
X115844774Y-96218102D01*
X115805000Y-96418061D01*
X115805000Y-96621939D01*
X115844774Y-96821898D01*
X115922795Y-97010256D01*
X116036063Y-97179774D01*
X116180226Y-97323937D01*
X116349744Y-97437205D01*
X116538102Y-97515226D01*
X116738061Y-97555000D01*
X116941939Y-97555000D01*
X117141898Y-97515226D01*
X117330256Y-97437205D01*
X117475000Y-97340490D01*
X117619744Y-97437205D01*
X117808102Y-97515226D01*
X118008061Y-97555000D01*
X118211939Y-97555000D01*
X118411898Y-97515226D01*
X118600256Y-97437205D01*
X118745000Y-97340490D01*
X118889744Y-97437205D01*
X119078102Y-97515226D01*
X119278061Y-97555000D01*
X119481939Y-97555000D01*
X119681898Y-97515226D01*
X119870256Y-97437205D01*
X120039774Y-97323937D01*
X120183937Y-97179774D01*
X120297205Y-97010256D01*
X120375226Y-96821898D01*
X120415000Y-96621939D01*
X120415000Y-96418061D01*
X120381961Y-96251961D01*
X120548061Y-96285000D01*
X120751939Y-96285000D01*
X120951898Y-96245226D01*
X121140256Y-96167205D01*
X121309774Y-96053937D01*
X121453937Y-95909774D01*
X121567205Y-95740256D01*
X121645226Y-95551898D01*
X121685000Y-95351939D01*
X121685000Y-95217000D01*
X137280928Y-95217000D01*
X137293188Y-95341482D01*
X137329498Y-95461180D01*
X137388463Y-95571494D01*
X137467815Y-95668185D01*
X137564506Y-95747537D01*
X137674820Y-95806502D01*
X137794518Y-95842812D01*
X137919000Y-95855072D01*
X138120750Y-95852000D01*
X138279500Y-95693250D01*
X138279500Y-94869000D01*
X137442750Y-94869000D01*
X137284000Y-95027750D01*
X137280928Y-95217000D01*
X121685000Y-95217000D01*
X121685000Y-95148061D01*
X121651961Y-94981961D01*
X121818061Y-95015000D01*
X122021939Y-95015000D01*
X122221898Y-94975226D01*
X122410256Y-94897205D01*
X122579774Y-94783937D01*
X122723937Y-94639774D01*
X122837205Y-94470256D01*
X122915226Y-94281898D01*
X122955000Y-94081939D01*
X122955000Y-93878061D01*
X122915226Y-93678102D01*
X122868792Y-93566000D01*
X137280928Y-93566000D01*
X137293188Y-93690482D01*
X137329498Y-93810180D01*
X137386328Y-93916500D01*
X137329498Y-94022820D01*
X137293188Y-94142518D01*
X137280928Y-94267000D01*
X137284000Y-94456250D01*
X137442750Y-94615000D01*
X138279500Y-94615000D01*
X138279500Y-94092250D01*
X138329500Y-94042250D01*
X138329500Y-93218000D01*
X137442750Y-93218000D01*
X137284000Y-93376750D01*
X137280928Y-93566000D01*
X122868792Y-93566000D01*
X122837205Y-93489744D01*
X122740490Y-93345000D01*
X122837205Y-93200256D01*
X122915226Y-93011898D01*
X122955000Y-92811939D01*
X122955000Y-92608061D01*
X122915226Y-92408102D01*
X122837205Y-92219744D01*
X122740490Y-92075000D01*
X122837205Y-91930256D01*
X122915226Y-91741898D01*
X122955000Y-91541939D01*
X122955000Y-91338061D01*
X122915226Y-91138102D01*
X122837205Y-90949744D01*
X122723937Y-90780226D01*
X122579774Y-90636063D01*
X122410256Y-90522795D01*
X122221898Y-90444774D01*
X122021939Y-90405000D01*
X121818061Y-90405000D01*
X121651961Y-90438039D01*
X121685000Y-90271939D01*
X121685000Y-90068061D01*
X121645226Y-89868102D01*
X121567205Y-89679744D01*
X121453937Y-89510226D01*
X121309774Y-89366063D01*
X121140256Y-89252795D01*
X120951898Y-89174774D01*
X120751939Y-89135000D01*
X120548061Y-89135000D01*
X120348102Y-89174774D01*
X120159744Y-89252795D01*
X120015000Y-89349510D01*
X119870256Y-89252795D01*
X119681898Y-89174774D01*
X119481939Y-89135000D01*
X119278061Y-89135000D01*
X119078102Y-89174774D01*
X118889744Y-89252795D01*
X118745000Y-89349510D01*
X118600256Y-89252795D01*
X118411898Y-89174774D01*
X118211939Y-89135000D01*
X118008061Y-89135000D01*
X117808102Y-89174774D01*
X117619744Y-89252795D01*
X117475000Y-89349510D01*
X117330256Y-89252795D01*
X117141898Y-89174774D01*
X116941939Y-89135000D01*
X116738061Y-89135000D01*
X116538102Y-89174774D01*
X116349744Y-89252795D01*
X116180226Y-89366063D01*
X116036063Y-89510226D01*
X115922795Y-89679744D01*
X115844774Y-89868102D01*
X115805000Y-90068061D01*
X115660000Y-90068061D01*
X115660000Y-85510000D01*
X115986928Y-85510000D01*
X115986928Y-87210000D01*
X115999188Y-87334482D01*
X116035498Y-87454180D01*
X116094463Y-87564494D01*
X116173815Y-87661185D01*
X116270506Y-87740537D01*
X116380820Y-87799502D01*
X116500518Y-87835812D01*
X116625000Y-87848072D01*
X118325000Y-87848072D01*
X118449482Y-87835812D01*
X118569180Y-87799502D01*
X118679494Y-87740537D01*
X118776185Y-87661185D01*
X118855537Y-87564494D01*
X118914502Y-87454180D01*
X118950812Y-87334482D01*
X118963072Y-87210000D01*
X118963072Y-85510000D01*
X118950812Y-85385518D01*
X118914502Y-85265820D01*
X118855537Y-85155506D01*
X118776185Y-85058815D01*
X118679494Y-84979463D01*
X118569180Y-84920498D01*
X118488534Y-84896034D01*
X118572588Y-84820269D01*
X118601345Y-84781715D01*
X119061104Y-84781715D01*
X119073364Y-84906197D01*
X119109674Y-85025895D01*
X119168639Y-85136209D01*
X119228275Y-85208876D01*
X119208664Y-85232773D01*
X119127753Y-85384148D01*
X119077928Y-85548399D01*
X119061104Y-85719215D01*
X119061104Y-86294215D01*
X119077928Y-86465031D01*
X119127753Y-86629282D01*
X119208664Y-86780657D01*
X119317553Y-86913338D01*
X119450234Y-87022227D01*
X119601609Y-87103138D01*
X119765860Y-87152963D01*
X119936676Y-87169787D01*
X120411676Y-87169787D01*
X120582492Y-87152963D01*
X120746743Y-87103138D01*
X120898118Y-87022227D01*
X120982399Y-86953059D01*
X121066680Y-87022227D01*
X121218055Y-87103138D01*
X121382306Y-87152963D01*
X121553122Y-87169787D01*
X122028122Y-87169787D01*
X122198938Y-87152963D01*
X122363189Y-87103138D01*
X122514564Y-87022227D01*
X122647245Y-86913338D01*
X122756134Y-86780657D01*
X122837045Y-86629282D01*
X122886870Y-86465031D01*
X122903694Y-86294215D01*
X122903694Y-85801273D01*
X123194000Y-86091579D01*
X123194001Y-88221521D01*
X123189719Y-88265000D01*
X123206805Y-88438490D01*
X123257412Y-88605313D01*
X123339590Y-88759059D01*
X123422468Y-88860046D01*
X123422471Y-88860049D01*
X123450184Y-88893817D01*
X123483951Y-88921529D01*
X124342465Y-89780044D01*
X124353774Y-89836898D01*
X124431795Y-90025256D01*
X124545063Y-90194774D01*
X124689226Y-90338937D01*
X124858744Y-90452205D01*
X125047102Y-90530226D01*
X125103956Y-90541535D01*
X125104465Y-90542044D01*
X125115774Y-90598898D01*
X125193795Y-90787256D01*
X125307063Y-90956774D01*
X125451226Y-91100937D01*
X125620744Y-91214205D01*
X125767858Y-91275142D01*
X125828795Y-91422256D01*
X125942063Y-91591774D01*
X126086226Y-91735937D01*
X126255744Y-91849205D01*
X126402858Y-91910142D01*
X126463795Y-92057256D01*
X126577063Y-92226774D01*
X126721226Y-92370937D01*
X126890744Y-92484205D01*
X127079102Y-92562226D01*
X127279061Y-92602000D01*
X127482939Y-92602000D01*
X127682898Y-92562226D01*
X127871256Y-92484205D01*
X128040774Y-92370937D01*
X128184937Y-92226774D01*
X128298205Y-92057256D01*
X128376226Y-91868898D01*
X128416000Y-91668939D01*
X128416000Y-91653000D01*
X132074928Y-91653000D01*
X132087188Y-91777482D01*
X132123498Y-91897180D01*
X132182463Y-92007494D01*
X132261815Y-92104185D01*
X132358506Y-92183537D01*
X132468820Y-92242502D01*
X132588518Y-92278812D01*
X132713000Y-92291072D01*
X133177250Y-92288000D01*
X133336000Y-92129250D01*
X133336000Y-90780000D01*
X132236750Y-90780000D01*
X132078000Y-90938750D01*
X132074928Y-91653000D01*
X128416000Y-91653000D01*
X128416000Y-91465061D01*
X128376226Y-91265102D01*
X128298205Y-91076744D01*
X128184937Y-90907226D01*
X128040774Y-90763063D01*
X127871256Y-90649795D01*
X127724142Y-90588858D01*
X127663205Y-90441744D01*
X127549937Y-90272226D01*
X127405774Y-90128063D01*
X127236256Y-90014795D01*
X127089142Y-89953858D01*
X127028205Y-89806744D01*
X126914937Y-89637226D01*
X126770774Y-89493063D01*
X126601256Y-89379795D01*
X126412898Y-89301774D01*
X126356044Y-89290465D01*
X126355535Y-89289956D01*
X126344226Y-89233102D01*
X126266205Y-89044744D01*
X126152937Y-88875226D01*
X126008774Y-88731063D01*
X125839256Y-88617795D01*
X125650898Y-88539774D01*
X125594044Y-88528465D01*
X124964000Y-87898422D01*
X124964000Y-85768469D01*
X124968281Y-85725000D01*
X124964000Y-85681531D01*
X124964000Y-85681523D01*
X124951195Y-85551510D01*
X124932004Y-85488248D01*
X124900589Y-85384686D01*
X124818411Y-85230941D01*
X124735532Y-85129953D01*
X124735530Y-85129951D01*
X124707817Y-85096183D01*
X124674050Y-85068471D01*
X123229749Y-83624171D01*
X123202032Y-83590398D01*
X123067274Y-83479804D01*
X122913528Y-83397626D01*
X122746705Y-83347020D01*
X122629427Y-83335469D01*
X122514564Y-83241203D01*
X122363189Y-83160292D01*
X122198938Y-83110467D01*
X122028122Y-83093643D01*
X121553122Y-83093643D01*
X121382306Y-83110467D01*
X121218055Y-83160292D01*
X121066680Y-83241203D01*
X121059560Y-83247046D01*
X121003670Y-83201178D01*
X120893356Y-83142213D01*
X120773658Y-83105903D01*
X120649176Y-83093643D01*
X120459926Y-83096715D01*
X120301176Y-83255465D01*
X120301176Y-84129715D01*
X120321176Y-84129715D01*
X120321176Y-84383715D01*
X120301176Y-84383715D01*
X120301176Y-84403715D01*
X120047176Y-84403715D01*
X120047176Y-84383715D01*
X119222926Y-84383715D01*
X119064176Y-84542465D01*
X119061104Y-84781715D01*
X118601345Y-84781715D01*
X118746641Y-84586920D01*
X118871825Y-84324099D01*
X118916476Y-84176890D01*
X118795155Y-83947000D01*
X117602000Y-83947000D01*
X117602000Y-83967000D01*
X117348000Y-83967000D01*
X117348000Y-83947000D01*
X116154845Y-83947000D01*
X116033524Y-84176890D01*
X116078175Y-84324099D01*
X116203359Y-84586920D01*
X116377412Y-84820269D01*
X116461466Y-84896034D01*
X116380820Y-84920498D01*
X116270506Y-84979463D01*
X116173815Y-85058815D01*
X116094463Y-85155506D01*
X116035498Y-85265820D01*
X115999188Y-85385518D01*
X115986928Y-85510000D01*
X115660000Y-85510000D01*
X115660000Y-83731715D01*
X119061104Y-83731715D01*
X119064176Y-83970965D01*
X119222926Y-84129715D01*
X120047176Y-84129715D01*
X120047176Y-83255465D01*
X119888426Y-83096715D01*
X119699176Y-83093643D01*
X119574694Y-83105903D01*
X119454996Y-83142213D01*
X119344682Y-83201178D01*
X119247991Y-83280530D01*
X119168639Y-83377221D01*
X119109674Y-83487535D01*
X119073364Y-83607233D01*
X119061104Y-83731715D01*
X115660000Y-83731715D01*
X115660000Y-83463110D01*
X116033524Y-83463110D01*
X116154845Y-83693000D01*
X117348000Y-83693000D01*
X117348000Y-82499186D01*
X117602000Y-82499186D01*
X117602000Y-83693000D01*
X118795155Y-83693000D01*
X118916476Y-83463110D01*
X118871825Y-83315901D01*
X118746641Y-83053080D01*
X118572588Y-82819731D01*
X118356355Y-82624822D01*
X118106252Y-82475843D01*
X117831891Y-82378519D01*
X117602000Y-82499186D01*
X117348000Y-82499186D01*
X117118109Y-82378519D01*
X116843748Y-82475843D01*
X116593645Y-82624822D01*
X116377412Y-82819731D01*
X116203359Y-83053080D01*
X116078175Y-83315901D01*
X116033524Y-83463110D01*
X115660000Y-83463110D01*
X115660000Y-79293511D01*
X131283857Y-79293511D01*
X131296117Y-79417993D01*
X131332427Y-79537691D01*
X131369860Y-79607723D01*
X131332427Y-79677754D01*
X131296117Y-79797452D01*
X131283857Y-79921934D01*
X131286929Y-80173684D01*
X131445679Y-80332434D01*
X132269929Y-80332434D01*
X132269929Y-78883011D01*
X132523929Y-78883011D01*
X132523929Y-80332434D01*
X133886375Y-80332434D01*
X133886375Y-78918536D01*
X134140375Y-78918536D01*
X134140375Y-80332434D01*
X135502821Y-80332434D01*
X135502821Y-78883011D01*
X135756821Y-78883011D01*
X135756821Y-80332434D01*
X137119267Y-80332434D01*
X137119267Y-78918536D01*
X137373267Y-78918536D01*
X137373267Y-80332434D01*
X138735713Y-80332434D01*
X138735713Y-78918536D01*
X137373267Y-78918536D01*
X137119267Y-78918536D01*
X136616596Y-78918536D01*
X136581071Y-78883011D01*
X135756821Y-78883011D01*
X135502821Y-78883011D01*
X134678571Y-78883011D01*
X134643046Y-78918536D01*
X134140375Y-78918536D01*
X133886375Y-78918536D01*
X133383704Y-78918536D01*
X133348179Y-78883011D01*
X132523929Y-78883011D01*
X132269929Y-78883011D01*
X131445679Y-78883011D01*
X131286929Y-79041761D01*
X131283857Y-79293511D01*
X115660000Y-79293511D01*
X115660000Y-67452033D01*
X117727572Y-67452033D01*
X118045757Y-67905850D01*
X118650210Y-68231269D01*
X119306535Y-68432512D01*
X119989510Y-68501845D01*
X120672888Y-68436605D01*
X121330407Y-68239298D01*
X121936799Y-67917506D01*
X121954243Y-67905850D01*
X122272428Y-67452033D01*
X120000000Y-65179605D01*
X117727572Y-67452033D01*
X115660000Y-67452033D01*
X115660000Y-65029392D01*
X115663559Y-64989510D01*
X116498155Y-64989510D01*
X116563395Y-65672888D01*
X116760702Y-66330407D01*
X117082494Y-66936799D01*
X117094150Y-66954243D01*
X117547967Y-67272428D01*
X119820395Y-65000000D01*
X120179605Y-65000000D01*
X122452033Y-67272428D01*
X122905850Y-66954243D01*
X123231269Y-66349790D01*
X123432512Y-65693465D01*
X123501845Y-65010490D01*
X123436605Y-64327112D01*
X123239298Y-63669593D01*
X122917506Y-63063201D01*
X122905850Y-63045757D01*
X122452033Y-62727572D01*
X120179605Y-65000000D01*
X119820395Y-65000000D01*
X117547967Y-62727572D01*
X117094150Y-63045757D01*
X116768731Y-63650210D01*
X116567488Y-64306535D01*
X116498155Y-64989510D01*
X115663559Y-64989510D01*
X115729558Y-64250017D01*
X117342026Y-62547967D01*
X117727572Y-62547967D01*
X120000000Y-64820395D01*
X122272428Y-62547967D01*
X121954243Y-62094150D01*
X121543669Y-61873109D01*
X136988519Y-61873109D01*
X137109186Y-62103000D01*
X138303000Y-62103000D01*
X138303000Y-60909845D01*
X138073110Y-60788524D01*
X137925901Y-60833175D01*
X137663080Y-60958359D01*
X137429731Y-61132412D01*
X137234822Y-61348645D01*
X137085843Y-61598748D01*
X136988519Y-61873109D01*
X121543669Y-61873109D01*
X121349790Y-61768731D01*
X120693465Y-61567488D01*
X120010490Y-61498155D01*
X119327112Y-61563395D01*
X118669593Y-61760702D01*
X118063201Y-62082494D01*
X118045757Y-62094150D01*
X117727572Y-62547967D01*
X117342026Y-62547967D01*
X119000945Y-60796887D01*
X119371457Y-60707935D01*
X120024207Y-60660000D01*
X146059397Y-60660000D01*
X145758309Y-61026876D01*
%TA.AperFunction,Conductor*%
D28*
G36*
X145758309Y-61026876D02*
G01*
X145618488Y-61288462D01*
X145559744Y-61312795D01*
X145415000Y-61409510D01*
X145270256Y-61312795D01*
X145081898Y-61234774D01*
X144881939Y-61195000D01*
X144678061Y-61195000D01*
X144478102Y-61234774D01*
X144289744Y-61312795D01*
X144120226Y-61426063D01*
X143976063Y-61570226D01*
X143862795Y-61739744D01*
X143784774Y-61928102D01*
X143745000Y-62128061D01*
X143745000Y-62331939D01*
X143784774Y-62531898D01*
X143862795Y-62720256D01*
X143959510Y-62865000D01*
X143862795Y-63009744D01*
X143784774Y-63198102D01*
X143745000Y-63398061D01*
X143745000Y-63601939D01*
X143784774Y-63801898D01*
X143862795Y-63990256D01*
X143959510Y-64135000D01*
X143862795Y-64279744D01*
X143784774Y-64468102D01*
X143745000Y-64668061D01*
X143745000Y-64871939D01*
X143784774Y-65071898D01*
X143862795Y-65260256D01*
X143976063Y-65429774D01*
X144120226Y-65573937D01*
X144289744Y-65687205D01*
X144478102Y-65765226D01*
X144678061Y-65805000D01*
X144881939Y-65805000D01*
X145048039Y-65771961D01*
X145015000Y-65938061D01*
X145015000Y-66141939D01*
X145054774Y-66341898D01*
X145132795Y-66530256D01*
X145246063Y-66699774D01*
X145390226Y-66843937D01*
X145559744Y-66957205D01*
X145748102Y-67035226D01*
X145948061Y-67075000D01*
X146151939Y-67075000D01*
X146318039Y-67041961D01*
X146285000Y-67208061D01*
X146285000Y-67411939D01*
X146324774Y-67611898D01*
X146402795Y-67800256D01*
X146516063Y-67969774D01*
X146660226Y-68113937D01*
X146829744Y-68227205D01*
X147018102Y-68305226D01*
X147218061Y-68345000D01*
X147421939Y-68345000D01*
X147621898Y-68305226D01*
X147810256Y-68227205D01*
X147955000Y-68130490D01*
X148099744Y-68227205D01*
X148288102Y-68305226D01*
X148488061Y-68345000D01*
X148691939Y-68345000D01*
X148891898Y-68305226D01*
X149080256Y-68227205D01*
X149092780Y-68218836D01*
X149429639Y-68252014D01*
X149558102Y-68305226D01*
X149758061Y-68345000D01*
X149961939Y-68345000D01*
X150161898Y-68305226D01*
X150350256Y-68227205D01*
X150396308Y-68196434D01*
X150539435Y-68182337D01*
X150562241Y-68175419D01*
X150639744Y-68227205D01*
X150828102Y-68305226D01*
X151028061Y-68345000D01*
X151231939Y-68345000D01*
X151431898Y-68305226D01*
X151620256Y-68227205D01*
X151789774Y-68113937D01*
X151933937Y-67969774D01*
X152047205Y-67800256D01*
X152125226Y-67611898D01*
X152141967Y-67527735D01*
X152218344Y-67486911D01*
X152260842Y-67452033D01*
X157727572Y-67452033D01*
X158045757Y-67905850D01*
X158650210Y-68231269D01*
X159306535Y-68432512D01*
X159989510Y-68501845D01*
X160672888Y-68436605D01*
X161330407Y-68239298D01*
X161936799Y-67917506D01*
X161954243Y-67905850D01*
X162272428Y-67452033D01*
X160000000Y-65179605D01*
X157727572Y-67452033D01*
X152260842Y-67452033D01*
X152747252Y-67052847D01*
X152809404Y-66990695D01*
X152890256Y-66957205D01*
X153059774Y-66843937D01*
X153203937Y-66699774D01*
X153317205Y-66530256D01*
X153350695Y-66449404D01*
X154810589Y-64989510D01*
X156498155Y-64989510D01*
X156563395Y-65672888D01*
X156760702Y-66330407D01*
X157082494Y-66936799D01*
X157094150Y-66954243D01*
X157547967Y-67272428D01*
X159820395Y-65000000D01*
X157547967Y-62727572D01*
X157094150Y-63045757D01*
X156768731Y-63650210D01*
X156567488Y-64306535D01*
X156498155Y-64989510D01*
X154810589Y-64989510D01*
X155897689Y-63902410D01*
X156331753Y-63373503D01*
X156762145Y-62568296D01*
X157027179Y-61694594D01*
X157116671Y-60785976D01*
X157104263Y-60660000D01*
X159970608Y-60660000D01*
X160474352Y-60704958D01*
X161757768Y-61988374D01*
X161349790Y-61768731D01*
X160693465Y-61567488D01*
X160010490Y-61498155D01*
X159327112Y-61563395D01*
X158669593Y-61760702D01*
X158063201Y-62082494D01*
X158045757Y-62094150D01*
X157727572Y-62547967D01*
X160000000Y-64820395D01*
X160014143Y-64806253D01*
X160193748Y-64985858D01*
X160179605Y-65000000D01*
X162452033Y-67272428D01*
X162905850Y-66954243D01*
X163231269Y-66349790D01*
X163432512Y-65693465D01*
X163501845Y-65010490D01*
X163436605Y-64327112D01*
X163239298Y-63669593D01*
X163013513Y-63244119D01*
X164304050Y-64534656D01*
X164340000Y-65024207D01*
X164340000Y-67835335D01*
X164260577Y-67825309D01*
X163353893Y-67889593D01*
X162477172Y-68129526D01*
X161664106Y-68535890D01*
X160945940Y-69093066D01*
X159531727Y-70507280D01*
X162719364Y-73694917D01*
X162733507Y-73680775D01*
X162913112Y-73860380D01*
X162898969Y-73874522D01*
X162913112Y-73888665D01*
X162733507Y-74068270D01*
X162719364Y-74054127D01*
X158231040Y-78542451D01*
X158684534Y-79111771D01*
X159414080Y-79522316D01*
X160276347Y-79809899D01*
X161178151Y-79923735D01*
X162084835Y-79859451D01*
X162961556Y-79619518D01*
X163774622Y-79213154D01*
X164340000Y-78774516D01*
X164340001Y-104970597D01*
X164288316Y-105549718D01*
X162531931Y-107352323D01*
X162452035Y-107272427D01*
X162905850Y-106954243D01*
X163231269Y-106349790D01*
X163432512Y-105693465D01*
X163501845Y-105010490D01*
X163436605Y-104327112D01*
X163239298Y-103669593D01*
X162917506Y-103063201D01*
X162905850Y-103045757D01*
X162452033Y-102727572D01*
X160179605Y-105000000D01*
X160193748Y-105014143D01*
X160014143Y-105193748D01*
X160000000Y-105179605D01*
X157727572Y-107452033D01*
X158045757Y-107905850D01*
X158650210Y-108231269D01*
X159306535Y-108432512D01*
X159989510Y-108501845D01*
X160672888Y-108436605D01*
X161330407Y-108239298D01*
X161936799Y-107917506D01*
X161954243Y-107905850D01*
X162272427Y-107452035D01*
X162354656Y-107534264D01*
X160646013Y-109287871D01*
X160628543Y-109292065D01*
X159975793Y-109340000D01*
X142258990Y-109340000D01*
X142276694Y-109330537D01*
X142373385Y-109251185D01*
X142452737Y-109154494D01*
X142511702Y-109044180D01*
X142548012Y-108924482D01*
X142560272Y-108800000D01*
X142560272Y-107572085D01*
X143021810Y-107110547D01*
X143051764Y-107085964D01*
X143149862Y-106966433D01*
X143222754Y-106830060D01*
X143231408Y-106801531D01*
X143267642Y-106682087D01*
X143277887Y-106578061D01*
X143279000Y-106566761D01*
X143279000Y-106566756D01*
X143282797Y-106528200D01*
X143279000Y-106489644D01*
X143279000Y-104038061D01*
X143745000Y-104038061D01*
X143745000Y-104241939D01*
X143784774Y-104441898D01*
X143862795Y-104630256D01*
X143959510Y-104775000D01*
X143862795Y-104919744D01*
X143784774Y-105108102D01*
X143745000Y-105308061D01*
X143745000Y-105511939D01*
X143784774Y-105711898D01*
X143862795Y-105900256D01*
X143959510Y-106045000D01*
X143862795Y-106189744D01*
X143784774Y-106378102D01*
X143745000Y-106578061D01*
X143745000Y-106781939D01*
X143784774Y-106981898D01*
X143862795Y-107170256D01*
X143959510Y-107315000D01*
X143862795Y-107459744D01*
X143784774Y-107648102D01*
X143745000Y-107848061D01*
X143745000Y-108051939D01*
X143784774Y-108251898D01*
X143862795Y-108440256D01*
X143976063Y-108609774D01*
X144120226Y-108753937D01*
X144289744Y-108867205D01*
X144478102Y-108945226D01*
X144678061Y-108985000D01*
X144881939Y-108985000D01*
X145081898Y-108945226D01*
X145270256Y-108867205D01*
X145415000Y-108770490D01*
X145559744Y-108867205D01*
X145748102Y-108945226D01*
X145948061Y-108985000D01*
X146151939Y-108985000D01*
X146351898Y-108945226D01*
X146540256Y-108867205D01*
X146685000Y-108770490D01*
X146829744Y-108867205D01*
X147018102Y-108945226D01*
X147218061Y-108985000D01*
X147421939Y-108985000D01*
X147621898Y-108945226D01*
X147810256Y-108867205D01*
X147955000Y-108770490D01*
X148099744Y-108867205D01*
X148288102Y-108945226D01*
X148488061Y-108985000D01*
X148691939Y-108985000D01*
X148891898Y-108945226D01*
X149080256Y-108867205D01*
X149225000Y-108770490D01*
X149369744Y-108867205D01*
X149558102Y-108945226D01*
X149758061Y-108985000D01*
X149961939Y-108985000D01*
X150161898Y-108945226D01*
X150350256Y-108867205D01*
X150495000Y-108770490D01*
X150639744Y-108867205D01*
X150828102Y-108945226D01*
X151028061Y-108985000D01*
X151231939Y-108985000D01*
X151431898Y-108945226D01*
X151620256Y-108867205D01*
X151789774Y-108753937D01*
X151933937Y-108609774D01*
X152047205Y-108440256D01*
X152125226Y-108251898D01*
X152165000Y-108051939D01*
X152165000Y-107848061D01*
X152125226Y-107648102D01*
X152047205Y-107459744D01*
X151950490Y-107315000D01*
X152047205Y-107170256D01*
X152125226Y-106981898D01*
X152165000Y-106781939D01*
X152165000Y-106578061D01*
X152125226Y-106378102D01*
X152047205Y-106189744D01*
X151950490Y-106045000D01*
X152047205Y-105900256D01*
X152125226Y-105711898D01*
X152165000Y-105511939D01*
X152165000Y-105308061D01*
X152125226Y-105108102D01*
X152076104Y-104989510D01*
X156498155Y-104989510D01*
X156563395Y-105672888D01*
X156760702Y-106330407D01*
X157082494Y-106936799D01*
X157094150Y-106954243D01*
X157547967Y-107272428D01*
X159820395Y-105000000D01*
X157547967Y-102727572D01*
X157094150Y-103045757D01*
X156768731Y-103650210D01*
X156567488Y-104306535D01*
X156498155Y-104989510D01*
X152076104Y-104989510D01*
X152047205Y-104919744D01*
X151950490Y-104775000D01*
X152047205Y-104630256D01*
X152125226Y-104441898D01*
X152165000Y-104241939D01*
X152165000Y-104038061D01*
X152125226Y-103838102D01*
X152047205Y-103649744D01*
X151933937Y-103480226D01*
X151789774Y-103336063D01*
X151620256Y-103222795D01*
X151431898Y-103144774D01*
X151231939Y-103105000D01*
X151028061Y-103105000D01*
X150861961Y-103138039D01*
X150895000Y-102971939D01*
X150895000Y-102768061D01*
X150855226Y-102568102D01*
X150846886Y-102547967D01*
X157727572Y-102547967D01*
X160000000Y-104820395D01*
X162272428Y-102547967D01*
X161954243Y-102094150D01*
X161349790Y-101768731D01*
X160693465Y-101567488D01*
X160010490Y-101498155D01*
X159327112Y-101563395D01*
X158669593Y-101760702D01*
X158063201Y-102082494D01*
X158045757Y-102094150D01*
X157727572Y-102547967D01*
X150846886Y-102547967D01*
X150777205Y-102379744D01*
X150663937Y-102210226D01*
X150519774Y-102066063D01*
X150350256Y-101952795D01*
X150161898Y-101874774D01*
X149961939Y-101835000D01*
X149758061Y-101835000D01*
X149558102Y-101874774D01*
X149369744Y-101952795D01*
X149225000Y-102049510D01*
X149080256Y-101952795D01*
X148891898Y-101874774D01*
X148691939Y-101835000D01*
X148488061Y-101835000D01*
X148288102Y-101874774D01*
X148099744Y-101952795D01*
X147955000Y-102049510D01*
X147810256Y-101952795D01*
X147621898Y-101874774D01*
X147421939Y-101835000D01*
X147218061Y-101835000D01*
X147018102Y-101874774D01*
X146829744Y-101952795D01*
X146685000Y-102049510D01*
X146540256Y-101952795D01*
X146351898Y-101874774D01*
X146151939Y-101835000D01*
X145948061Y-101835000D01*
X145748102Y-101874774D01*
X145559744Y-101952795D01*
X145390226Y-102066063D01*
X145246063Y-102210226D01*
X145132795Y-102379744D01*
X145054774Y-102568102D01*
X145015000Y-102768061D01*
X145015000Y-102971939D01*
X145048039Y-103138039D01*
X144881939Y-103105000D01*
X144678061Y-103105000D01*
X144478102Y-103144774D01*
X144289744Y-103222795D01*
X144120226Y-103336063D01*
X143976063Y-103480226D01*
X143862795Y-103649744D01*
X143784774Y-103838102D01*
X143745000Y-104038061D01*
X143279000Y-104038061D01*
X143279000Y-103957157D01*
X148030158Y-99206000D01*
X148056939Y-99206000D01*
X148256898Y-99166226D01*
X148445256Y-99088205D01*
X148614774Y-98974937D01*
X148758937Y-98830774D01*
X148872205Y-98661256D01*
X148950226Y-98472898D01*
X148990000Y-98272939D01*
X148990000Y-98069061D01*
X148950226Y-97869102D01*
X148872205Y-97680744D01*
X148810773Y-97588805D01*
X149820050Y-96579529D01*
X149853817Y-96551817D01*
X149898468Y-96497411D01*
X149940210Y-96446548D01*
X149964411Y-96417059D01*
X150046589Y-96263313D01*
X150097195Y-96096490D01*
X150110000Y-95966477D01*
X150110000Y-95966467D01*
X150114281Y-95923001D01*
X150110000Y-95879535D01*
X150110000Y-95675603D01*
X150114502Y-95667180D01*
X150150812Y-95547482D01*
X150163072Y-95423000D01*
X150163072Y-93873000D01*
X150150812Y-93748518D01*
X150138218Y-93707000D01*
X150159502Y-93667180D01*
X150195812Y-93547482D01*
X150208072Y-93423000D01*
X150205000Y-92233750D01*
X150046250Y-92075000D01*
X149569906Y-92075000D01*
X149574936Y-91982541D01*
X149540395Y-91948000D01*
X149574936Y-91913459D01*
X149569906Y-91821000D01*
X150046250Y-91821000D01*
X150205000Y-91662250D01*
X150206406Y-91118131D01*
X150320102Y-91165226D01*
X150520061Y-91205000D01*
X150546843Y-91205000D01*
X151182658Y-91840815D01*
X151207236Y-91870764D01*
X151237184Y-91895342D01*
X151237187Y-91895345D01*
X151247842Y-91904089D01*
X151326767Y-91968862D01*
X151434598Y-92026498D01*
X151463140Y-92041754D01*
X151611112Y-92086641D01*
X151625490Y-92088057D01*
X151726439Y-92098000D01*
X151726446Y-92098000D01*
X151764999Y-92101797D01*
X151803552Y-92098000D01*
X152742447Y-92098000D01*
X152781000Y-92101797D01*
X152819553Y-92098000D01*
X152819561Y-92098000D01*
X152934887Y-92086641D01*
X153082860Y-92041754D01*
X153219233Y-91968862D01*
X153338764Y-91870764D01*
X153363347Y-91840810D01*
X153866096Y-91338061D01*
X156445000Y-91338061D01*
X156445000Y-91541939D01*
X156484774Y-91741898D01*
X156562795Y-91930256D01*
X156659510Y-92075000D01*
X156562795Y-92219744D01*
X156484774Y-92408102D01*
X156445000Y-92608061D01*
X156445000Y-92811939D01*
X156484774Y-93011898D01*
X156562795Y-93200256D01*
X156659510Y-93345000D01*
X156562795Y-93489744D01*
X156484774Y-93678102D01*
X156445000Y-93878061D01*
X156445000Y-94081939D01*
X156484774Y-94281898D01*
X156562795Y-94470256D01*
X156659510Y-94615000D01*
X156562795Y-94759744D01*
X156484774Y-94948102D01*
X156445000Y-95148061D01*
X156445000Y-95351939D01*
X156484774Y-95551898D01*
X156562795Y-95740256D01*
X156676063Y-95909774D01*
X156820226Y-96053937D01*
X156989744Y-96167205D01*
X157178102Y-96245226D01*
X157378061Y-96285000D01*
X157581939Y-96285000D01*
X157748039Y-96251961D01*
X157715000Y-96418061D01*
X157715000Y-96621939D01*
X157754774Y-96821898D01*
X157832795Y-97010256D01*
X157946063Y-97179774D01*
X158090226Y-97323937D01*
X158259744Y-97437205D01*
X158448102Y-97515226D01*
X158648061Y-97555000D01*
X158851939Y-97555000D01*
X159051898Y-97515226D01*
X159240256Y-97437205D01*
X159385000Y-97340490D01*
X159529744Y-97437205D01*
X159718102Y-97515226D01*
X159918061Y-97555000D01*
X160121939Y-97555000D01*
X160321898Y-97515226D01*
X160510256Y-97437205D01*
X160655000Y-97340490D01*
X160799744Y-97437205D01*
X160988102Y-97515226D01*
X161188061Y-97555000D01*
X161391939Y-97555000D01*
X161591898Y-97515226D01*
X161780256Y-97437205D01*
X161925000Y-97340490D01*
X162069744Y-97437205D01*
X162258102Y-97515226D01*
X162458061Y-97555000D01*
X162661939Y-97555000D01*
X162861898Y-97515226D01*
X163050256Y-97437205D01*
X163219774Y-97323937D01*
X163363937Y-97179774D01*
X163477205Y-97010256D01*
X163555226Y-96821898D01*
X163595000Y-96621939D01*
X163595000Y-96418061D01*
X163555226Y-96218102D01*
X163477205Y-96029744D01*
X163380490Y-95885000D01*
X163477205Y-95740256D01*
X163555226Y-95551898D01*
X163595000Y-95351939D01*
X163595000Y-95148061D01*
X163555226Y-94948102D01*
X163477205Y-94759744D01*
X163380490Y-94615000D01*
X163477205Y-94470256D01*
X163555226Y-94281898D01*
X163595000Y-94081939D01*
X163595000Y-93878061D01*
X163555226Y-93678102D01*
X163477205Y-93489744D01*
X163380490Y-93345000D01*
X163477205Y-93200256D01*
X163555226Y-93011898D01*
X163595000Y-92811939D01*
X163595000Y-92608061D01*
X163555226Y-92408102D01*
X163477205Y-92219744D01*
X163380490Y-92075000D01*
X163477205Y-91930256D01*
X163555226Y-91741898D01*
X163595000Y-91541939D01*
X163595000Y-91338061D01*
X163555226Y-91138102D01*
X163477205Y-90949744D01*
X163380490Y-90805000D01*
X163477205Y-90660256D01*
X163555226Y-90471898D01*
X163595000Y-90271939D01*
X163595000Y-90068061D01*
X163555226Y-89868102D01*
X163477205Y-89679744D01*
X163363937Y-89510226D01*
X163219774Y-89366063D01*
X163050256Y-89252795D01*
X162861898Y-89174774D01*
X162661939Y-89135000D01*
X162458061Y-89135000D01*
X162258102Y-89174774D01*
X162069744Y-89252795D01*
X161925000Y-89349510D01*
X161780256Y-89252795D01*
X161591898Y-89174774D01*
X161391939Y-89135000D01*
X161188061Y-89135000D01*
X160988102Y-89174774D01*
X160799744Y-89252795D01*
X160655000Y-89349510D01*
X160510256Y-89252795D01*
X160321898Y-89174774D01*
X160121939Y-89135000D01*
X159918061Y-89135000D01*
X159718102Y-89174774D01*
X159529744Y-89252795D01*
X159385000Y-89349510D01*
X159240256Y-89252795D01*
X159051898Y-89174774D01*
X158851939Y-89135000D01*
X158648061Y-89135000D01*
X158448102Y-89174774D01*
X158259744Y-89252795D01*
X158090226Y-89366063D01*
X157946063Y-89510226D01*
X157832795Y-89679744D01*
X157754774Y-89868102D01*
X157715000Y-90068061D01*
X157715000Y-90271939D01*
X157748039Y-90438039D01*
X157581939Y-90405000D01*
X157378061Y-90405000D01*
X157178102Y-90444774D01*
X156989744Y-90522795D01*
X156820226Y-90636063D01*
X156676063Y-90780226D01*
X156562795Y-90949744D01*
X156484774Y-91138102D01*
X156445000Y-91338061D01*
X153866096Y-91338061D01*
X156662158Y-88542000D01*
X160004947Y-88542000D01*
X160043500Y-88545797D01*
X160082053Y-88542000D01*
X160082061Y-88542000D01*
X160197387Y-88530641D01*
X160345360Y-88485754D01*
X160481733Y-88412862D01*
X160601264Y-88314764D01*
X160625847Y-88284810D01*
X161254604Y-87656054D01*
X161258815Y-87661185D01*
X161355506Y-87740537D01*
X161465820Y-87799502D01*
X161585518Y-87835812D01*
X161710000Y-87848072D01*
X163410000Y-87848072D01*
X163534482Y-87835812D01*
X163654180Y-87799502D01*
X163764494Y-87740537D01*
X163861185Y-87661185D01*
X163940537Y-87564494D01*
X163999502Y-87454180D01*
X164035812Y-87334482D01*
X164048072Y-87210000D01*
X164048072Y-85510000D01*
X164035812Y-85385518D01*
X163999502Y-85265820D01*
X163940537Y-85155506D01*
X163861185Y-85058815D01*
X163764494Y-84979463D01*
X163654180Y-84920498D01*
X163573534Y-84896034D01*
X163657588Y-84820269D01*
X163831641Y-84586920D01*
X163956825Y-84324099D01*
X164001476Y-84176890D01*
X163880155Y-83947000D01*
X162687000Y-83947000D01*
X162687000Y-83967000D01*
X162433000Y-83967000D01*
X162433000Y-83947000D01*
X162413000Y-83947000D01*
X162413000Y-83693000D01*
X162433000Y-83693000D01*
X162433000Y-82499186D01*
X162687000Y-82499186D01*
X162687000Y-83693000D01*
X163880155Y-83693000D01*
X164001476Y-83463110D01*
X163956825Y-83315901D01*
X163831641Y-83053080D01*
X163657588Y-82819731D01*
X163441355Y-82624822D01*
X163191252Y-82475843D01*
X162916891Y-82378519D01*
X162687000Y-82499186D01*
X162433000Y-82499186D01*
X162203109Y-82378519D01*
X161928748Y-82475843D01*
X161678645Y-82624822D01*
X161462412Y-82819731D01*
X161288359Y-83053080D01*
X161163175Y-83315901D01*
X161118524Y-83463110D01*
X161239844Y-83692998D01*
X161075000Y-83692998D01*
X161075000Y-83747708D01*
X161066423Y-83719433D01*
X160985512Y-83568058D01*
X160876623Y-83435377D01*
X160743942Y-83326488D01*
X160592567Y-83245577D01*
X160428316Y-83195752D01*
X160257500Y-83178928D01*
X159782500Y-83178928D01*
X159611684Y-83195752D01*
X159447433Y-83245577D01*
X159296058Y-83326488D01*
X159242151Y-83370729D01*
X159219942Y-83352502D01*
X159068567Y-83271591D01*
X158904316Y-83221766D01*
X158733500Y-83204942D01*
X158258500Y-83204942D01*
X158087684Y-83221766D01*
X157923433Y-83271591D01*
X157772058Y-83352502D01*
X157639377Y-83461391D01*
X157530488Y-83594072D01*
X157449577Y-83745447D01*
X157399752Y-83909698D01*
X157382928Y-84080514D01*
X157382928Y-84580514D01*
X157399752Y-84751330D01*
X157449577Y-84915581D01*
X157530488Y-85066956D01*
X157639377Y-85199637D01*
X157692232Y-85243014D01*
X157658723Y-85270514D01*
X157460940Y-85270514D01*
X157412742Y-85238309D01*
X157224384Y-85160288D01*
X157024425Y-85120514D01*
X156820547Y-85120514D01*
X156620588Y-85160288D01*
X156432230Y-85238309D01*
X156384032Y-85270514D01*
X156317940Y-85270514D01*
X156269742Y-85238309D01*
X156081384Y-85160288D01*
X155881425Y-85120514D01*
X155677547Y-85120514D01*
X155477588Y-85160288D01*
X155289230Y-85238309D01*
X155271486Y-85250165D01*
X155253742Y-85238309D01*
X155065384Y-85160288D01*
X154865425Y-85120514D01*
X154661547Y-85120514D01*
X154461588Y-85160288D01*
X154318986Y-85219356D01*
X154176384Y-85160288D01*
X153976425Y-85120514D01*
X153772547Y-85120514D01*
X153572588Y-85160288D01*
X153384230Y-85238309D01*
X153214712Y-85351577D01*
X153070549Y-85495740D01*
X152957281Y-85665258D01*
X152879260Y-85853616D01*
X152839486Y-86053575D01*
X152839486Y-86257453D01*
X152879260Y-86457412D01*
X152957281Y-86645770D01*
X153070549Y-86815288D01*
X153214712Y-86959451D01*
X153384230Y-87072719D01*
X153572588Y-87150740D01*
X153772547Y-87190514D01*
X153976425Y-87190514D01*
X154176384Y-87150740D01*
X154318986Y-87091672D01*
X154461588Y-87150740D01*
X154661547Y-87190514D01*
X154865425Y-87190514D01*
X155065384Y-87150740D01*
X155253742Y-87072719D01*
X155271486Y-87060863D01*
X155289230Y-87072719D01*
X155477588Y-87150740D01*
X155677547Y-87190514D01*
X155789864Y-87190514D01*
X155779236Y-87199236D01*
X155754658Y-87229184D01*
X152455843Y-90528000D01*
X152090158Y-90528000D01*
X151657000Y-90094843D01*
X151657000Y-90068061D01*
X151617226Y-89868102D01*
X151539205Y-89679744D01*
X151425937Y-89510226D01*
X151281774Y-89366063D01*
X151112256Y-89252795D01*
X150923898Y-89174774D01*
X150723939Y-89135000D01*
X150520061Y-89135000D01*
X150320102Y-89174774D01*
X150163072Y-89239818D01*
X150163072Y-88473000D01*
X150150812Y-88348518D01*
X150114502Y-88228820D01*
X150055537Y-88118506D01*
X149976185Y-88021815D01*
X149879494Y-87942463D01*
X149769180Y-87883498D01*
X149649482Y-87847188D01*
X149611950Y-87843492D01*
X149609000Y-87661750D01*
X149450250Y-87503000D01*
X148563500Y-87503000D01*
X148563500Y-87523000D01*
X148309500Y-87523000D01*
X148309500Y-87503000D01*
X148289500Y-87503000D01*
X148289500Y-87249000D01*
X148309500Y-87249000D01*
X148309500Y-86424750D01*
X148563500Y-86424750D01*
X148563500Y-87249000D01*
X149450250Y-87249000D01*
X149609000Y-87090250D01*
X149612072Y-86901000D01*
X149599812Y-86776518D01*
X149563502Y-86656820D01*
X149504537Y-86546506D01*
X149425185Y-86449815D01*
X149328494Y-86370463D01*
X149218180Y-86311498D01*
X149098482Y-86275188D01*
X148974000Y-86262928D01*
X148722250Y-86266000D01*
X148563500Y-86424750D01*
X148309500Y-86424750D01*
X148150750Y-86266000D01*
X147899000Y-86262928D01*
X147774518Y-86275188D01*
X147654820Y-86311498D01*
X147596500Y-86342671D01*
X147596500Y-84966954D01*
X147628705Y-84918756D01*
X147706726Y-84730398D01*
X147746500Y-84530439D01*
X147746500Y-84326561D01*
X147706726Y-84126602D01*
X147628705Y-83938244D01*
X147596500Y-83890046D01*
X147596500Y-83696954D01*
X147628705Y-83648756D01*
X147706726Y-83460398D01*
X147746500Y-83260439D01*
X147746500Y-83056561D01*
X147718591Y-82916254D01*
X147748898Y-82910226D01*
X147937256Y-82832205D01*
X147985454Y-82800000D01*
X148305546Y-82800000D01*
X148353744Y-82832205D01*
X148542102Y-82910226D01*
X148742061Y-82950000D01*
X148945939Y-82950000D01*
X149145898Y-82910226D01*
X149334256Y-82832205D01*
X149503774Y-82718937D01*
X149647937Y-82574774D01*
X149761205Y-82405256D01*
X149839226Y-82216898D01*
X149879000Y-82016939D01*
X149879000Y-81813061D01*
X149839226Y-81613102D01*
X149761205Y-81424744D01*
X149647937Y-81255226D01*
X149503774Y-81111063D01*
X149334256Y-80997795D01*
X149145898Y-80919774D01*
X148945939Y-80880000D01*
X148742061Y-80880000D01*
X148542102Y-80919774D01*
X148353744Y-80997795D01*
X148305546Y-81030000D01*
X147985454Y-81030000D01*
X147937256Y-80997795D01*
X147748898Y-80919774D01*
X147746500Y-80919297D01*
X147746500Y-80823561D01*
X147706726Y-80623602D01*
X147628705Y-80435244D01*
X147515437Y-80265726D01*
X147371274Y-80121563D01*
X147201756Y-80008295D01*
X147013398Y-79930274D01*
X146813439Y-79890500D01*
X146609561Y-79890500D01*
X146409602Y-79930274D01*
X146221244Y-80008295D01*
X146051726Y-80121563D01*
X145907563Y-80265726D01*
X145808033Y-80414683D01*
X145810072Y-79443000D01*
X145797812Y-79318518D01*
X145761502Y-79198820D01*
X145702537Y-79088506D01*
X145623185Y-78991815D01*
X145526494Y-78912463D01*
X145416180Y-78853498D01*
X145296482Y-78817188D01*
X145172000Y-78804928D01*
X144557750Y-78808000D01*
X144399000Y-78966750D01*
X144399000Y-81066000D01*
X144419000Y-81066000D01*
X144419000Y-81320000D01*
X144399000Y-81320000D01*
X144399000Y-83419250D01*
X144557750Y-83578000D01*
X145172000Y-83581072D01*
X145296482Y-83568812D01*
X145416180Y-83532502D01*
X145526494Y-83473537D01*
X145623185Y-83394185D01*
X145687512Y-83315802D01*
X145716274Y-83460398D01*
X145794295Y-83648756D01*
X145826501Y-83696955D01*
X145826500Y-83890045D01*
X145794295Y-83938244D01*
X145719167Y-84119618D01*
X145702537Y-84088506D01*
X145623185Y-83991815D01*
X145526494Y-83912463D01*
X145416180Y-83853498D01*
X145296482Y-83817188D01*
X145172000Y-83804928D01*
X143372000Y-83804928D01*
X143247518Y-83817188D01*
X143127820Y-83853498D01*
X143017506Y-83912463D01*
X142920815Y-83991815D01*
X142841463Y-84088506D01*
X142782498Y-84198820D01*
X142746188Y-84318518D01*
X142733928Y-84443000D01*
X142733928Y-85438746D01*
X142675537Y-85329506D01*
X142596185Y-85232815D01*
X142499494Y-85153463D01*
X142389180Y-85094498D01*
X142269482Y-85058188D01*
X142145000Y-85045928D01*
X141255750Y-85049000D01*
X141097000Y-85207750D01*
X141097000Y-86219500D01*
X141117000Y-86219500D01*
X141117000Y-86473500D01*
X141097000Y-86473500D01*
X141097000Y-87485250D01*
X141255750Y-87644000D01*
X142145000Y-87647072D01*
X142269482Y-87634812D01*
X142389180Y-87598502D01*
X142499494Y-87539537D01*
X142596185Y-87460185D01*
X142675537Y-87363494D01*
X142733928Y-87254254D01*
X142733928Y-87943000D01*
X142746188Y-88067482D01*
X142782498Y-88187180D01*
X142841463Y-88297494D01*
X142879000Y-88343234D01*
X142879001Y-90257466D01*
X142791377Y-90329377D01*
X142748000Y-90382232D01*
X142720500Y-90348723D01*
X142720500Y-90330469D01*
X142724781Y-90287000D01*
X142720500Y-90243531D01*
X142720500Y-90243523D01*
X142713923Y-90176749D01*
X142715472Y-90173852D01*
X142766008Y-90007257D01*
X142783072Y-89834003D01*
X142783072Y-89008997D01*
X142766008Y-88835743D01*
X142715472Y-88669148D01*
X142633405Y-88515612D01*
X142522963Y-88381037D01*
X142388388Y-88270595D01*
X142234852Y-88188528D01*
X142068257Y-88137992D01*
X141895003Y-88120928D01*
X140044997Y-88120928D01*
X139871743Y-88137992D01*
X139705148Y-88188528D01*
X139569000Y-88261301D01*
X139569000Y-87604017D01*
X139670518Y-87634812D01*
X139795000Y-87647072D01*
X140684250Y-87644000D01*
X140843000Y-87485250D01*
X140843000Y-86473500D01*
X140823000Y-86473500D01*
X140823000Y-86219500D01*
X140843000Y-86219500D01*
X140843000Y-85207750D01*
X140684250Y-85049000D01*
X140152416Y-85047163D01*
X141184049Y-84015530D01*
X141217817Y-83987817D01*
X141303278Y-83883684D01*
X141328411Y-83853059D01*
X141379245Y-83757954D01*
X141410589Y-83699313D01*
X141461195Y-83532490D01*
X141474000Y-83402477D01*
X141474000Y-83402469D01*
X141478281Y-83359000D01*
X141474000Y-83315531D01*
X141474000Y-82943000D01*
X142733928Y-82943000D01*
X142746188Y-83067482D01*
X142782498Y-83187180D01*
X142841463Y-83297494D01*
X142920815Y-83394185D01*
X143017506Y-83473537D01*
X143127820Y-83532502D01*
X143247518Y-83568812D01*
X143372000Y-83581072D01*
X143986250Y-83578000D01*
X144145000Y-83419250D01*
X144145000Y-81320000D01*
X142895750Y-81320000D01*
X142737000Y-81478750D01*
X142733928Y-82943000D01*
X141474000Y-82943000D01*
X141474000Y-79443000D01*
X142733928Y-79443000D01*
X142737000Y-80907250D01*
X142895750Y-81066000D01*
X144145000Y-81066000D01*
X144145000Y-78966750D01*
X143986250Y-78808000D01*
X143372000Y-78804928D01*
X143247518Y-78817188D01*
X143127820Y-78853498D01*
X143017506Y-78912463D01*
X142920815Y-78991815D01*
X142841463Y-79088506D01*
X142782498Y-79198820D01*
X142746188Y-79318518D01*
X142733928Y-79443000D01*
X141474000Y-79443000D01*
X141474000Y-78783477D01*
X141478282Y-78740000D01*
X141461195Y-78566510D01*
X141410589Y-78399687D01*
X141328411Y-78245941D01*
X141217817Y-78111183D01*
X141083059Y-78000589D01*
X141008484Y-77960729D01*
X139975785Y-76928030D01*
X139975785Y-76766536D01*
X139971597Y-76724017D01*
X140002482Y-76733386D01*
X140126964Y-76745646D01*
X140366214Y-76742574D01*
X140524964Y-76583824D01*
X140524964Y-75759574D01*
X140504964Y-75759574D01*
X140504964Y-75505574D01*
X140524964Y-75505574D01*
X140524964Y-75485574D01*
X140778964Y-75485574D01*
X140778964Y-75505574D01*
X140798964Y-75505574D01*
X140798964Y-75759574D01*
X140778964Y-75759574D01*
X140778964Y-76583824D01*
X140937714Y-76742574D01*
X141176964Y-76745646D01*
X141301446Y-76733386D01*
X141421144Y-76697076D01*
X141531458Y-76638111D01*
X141604125Y-76578475D01*
X141628022Y-76598086D01*
X141779397Y-76678997D01*
X141943648Y-76728822D01*
X142114464Y-76745646D01*
X142689464Y-76745646D01*
X142860280Y-76728822D01*
X143024531Y-76678997D01*
X143175906Y-76598086D01*
X143308587Y-76489197D01*
X143417476Y-76356516D01*
X143498387Y-76205141D01*
X143548212Y-76040890D01*
X143565036Y-75870074D01*
X143565036Y-75415735D01*
X156670151Y-75415735D01*
X156783987Y-76317539D01*
X157071570Y-77179806D01*
X157482115Y-77909352D01*
X158051435Y-78362846D01*
X162539759Y-73874522D01*
X159352122Y-70686885D01*
X157937908Y-72101098D01*
X157380732Y-72819264D01*
X156974368Y-73632330D01*
X156734435Y-74509051D01*
X156670151Y-75415735D01*
X143565036Y-75415735D01*
X143565036Y-75395074D01*
X143548212Y-75224258D01*
X143498387Y-75060007D01*
X143420427Y-74914154D01*
X143498387Y-74768300D01*
X143548212Y-74604049D01*
X143565036Y-74433233D01*
X143565036Y-73958233D01*
X143548212Y-73787417D01*
X143498387Y-73623166D01*
X143417476Y-73471791D01*
X143308587Y-73339110D01*
X143175906Y-73230221D01*
X143024531Y-73149310D01*
X142860280Y-73099485D01*
X142689464Y-73082661D01*
X142189464Y-73082661D01*
X142018648Y-73099485D01*
X141854397Y-73149310D01*
X141703022Y-73230221D01*
X141570341Y-73339110D01*
X141526964Y-73391965D01*
X141483587Y-73339110D01*
X141350906Y-73230221D01*
X141199531Y-73149310D01*
X141035280Y-73099485D01*
X140864464Y-73082661D01*
X140755240Y-73082661D01*
X140142230Y-72469652D01*
X140387158Y-72420932D01*
X140657411Y-72308990D01*
X140900632Y-72146475D01*
X141107475Y-71939632D01*
X141224000Y-71765240D01*
X141340525Y-71939632D01*
X141547368Y-72146475D01*
X141790589Y-72308990D01*
X142060842Y-72420932D01*
X142347740Y-72478000D01*
X142640260Y-72478000D01*
X142927158Y-72420932D01*
X143197411Y-72308990D01*
X143440632Y-72146475D01*
X143647475Y-71939632D01*
X143809990Y-71696411D01*
X143921932Y-71426158D01*
X143979000Y-71139260D01*
X143979000Y-71110290D01*
X144035744Y-71148205D01*
X144224102Y-71226226D01*
X144424061Y-71266000D01*
X144627939Y-71266000D01*
X144827898Y-71226226D01*
X144970500Y-71167158D01*
X145113102Y-71226226D01*
X145313061Y-71266000D01*
X145516939Y-71266000D01*
X145716898Y-71226226D01*
X145905256Y-71148205D01*
X145923000Y-71136349D01*
X145940744Y-71148205D01*
X146129102Y-71226226D01*
X146329061Y-71266000D01*
X146532939Y-71266000D01*
X146732898Y-71226226D01*
X146921256Y-71148205D01*
X147090774Y-71034937D01*
X147234937Y-70890774D01*
X147348205Y-70721256D01*
X147426226Y-70532898D01*
X147466000Y-70332939D01*
X147466000Y-70129061D01*
X147426226Y-69929102D01*
X147348205Y-69740744D01*
X147234937Y-69571226D01*
X147090774Y-69427063D01*
X146921256Y-69313795D01*
X146732898Y-69235774D01*
X146532939Y-69196000D01*
X146329061Y-69196000D01*
X146129102Y-69235774D01*
X145940744Y-69313795D01*
X145923000Y-69325651D01*
X145905256Y-69313795D01*
X145716898Y-69235774D01*
X145516939Y-69196000D01*
X145313061Y-69196000D01*
X145113102Y-69235774D01*
X144970500Y-69294842D01*
X144827898Y-69235774D01*
X144771044Y-69224465D01*
X141738072Y-66191494D01*
X141738072Y-66056500D01*
X141721248Y-65885684D01*
X141671423Y-65721433D01*
X141615827Y-65617419D01*
X141630537Y-65599494D01*
X141689502Y-65489180D01*
X141725812Y-65369482D01*
X141738072Y-65245000D01*
X141735000Y-65055750D01*
X141576250Y-64897000D01*
X140702000Y-64897000D01*
X140702000Y-64917000D01*
X140448000Y-64917000D01*
X140448000Y-64897000D01*
X140428000Y-64897000D01*
X140428000Y-64643000D01*
X140448000Y-64643000D01*
X140448000Y-64623000D01*
X140702000Y-64623000D01*
X140702000Y-64643000D01*
X141576250Y-64643000D01*
X141735000Y-64484250D01*
X141738072Y-64295000D01*
X141725812Y-64170518D01*
X141689502Y-64050820D01*
X141630537Y-63940506D01*
X141551185Y-63843815D01*
X141454494Y-63764463D01*
X141367704Y-63718072D01*
X141820000Y-63718072D01*
X141944482Y-63705812D01*
X142064180Y-63669502D01*
X142174494Y-63610537D01*
X142271185Y-63531185D01*
X142350537Y-63434494D01*
X142409502Y-63324180D01*
X142445812Y-63204482D01*
X142458072Y-63080000D01*
X142458072Y-61380000D01*
X142445812Y-61255518D01*
X142409502Y-61135820D01*
X142350537Y-61025506D01*
X142271185Y-60928815D01*
X142174494Y-60849463D01*
X142064180Y-60790498D01*
X141944482Y-60754188D01*
X141820000Y-60741928D01*
X140120000Y-60741928D01*
X139995518Y-60754188D01*
X139875820Y-60790498D01*
X139765506Y-60849463D01*
X139668815Y-60928815D01*
X139589463Y-61025506D01*
X139530498Y-61135820D01*
X139506034Y-61216466D01*
X139430269Y-61132412D01*
X139196920Y-60958359D01*
X138934099Y-60833175D01*
X138786890Y-60788524D01*
X138557000Y-60909845D01*
X138557000Y-62103000D01*
X138577000Y-62103000D01*
X138577000Y-62357000D01*
X138557000Y-62357000D01*
X138557000Y-62377000D01*
X138303000Y-62377000D01*
X138303000Y-62357000D01*
X137109186Y-62357000D01*
X136988519Y-62586891D01*
X137085843Y-62861252D01*
X137234822Y-63111355D01*
X137429731Y-63327588D01*
X137452082Y-63344260D01*
X136632190Y-64164153D01*
X136602236Y-64188736D01*
X136504138Y-64308268D01*
X136431246Y-64444641D01*
X136386359Y-64592614D01*
X136375000Y-64707940D01*
X136375000Y-64707947D01*
X136371203Y-64746500D01*
X136375000Y-64785053D01*
X136375001Y-66730842D01*
X134770834Y-68335009D01*
X133864543Y-68335009D01*
X133825990Y-68331212D01*
X133787437Y-68335009D01*
X133787430Y-68335009D01*
X133686481Y-68344952D01*
X133672103Y-68346368D01*
X133637663Y-68356815D01*
X133524131Y-68391255D01*
X133387758Y-68464147D01*
X133341824Y-68501845D01*
X133298178Y-68537664D01*
X133298175Y-68537667D01*
X133268227Y-68562245D01*
X133243649Y-68592193D01*
X130282190Y-71553653D01*
X130252236Y-71578236D01*
X130154138Y-71697768D01*
X130081246Y-71834141D01*
X130036359Y-71982114D01*
X130025000Y-72097440D01*
X130025000Y-72097447D01*
X130021203Y-72136000D01*
X130025000Y-72174553D01*
X130025001Y-73987730D01*
X129949205Y-73804744D01*
X129835937Y-73635226D01*
X129691774Y-73491063D01*
X129646655Y-73460916D01*
X129695205Y-73388256D01*
X129773226Y-73199898D01*
X129813000Y-72999939D01*
X129813000Y-72796061D01*
X129773226Y-72596102D01*
X129695205Y-72407744D01*
X129581937Y-72238226D01*
X129543211Y-72199500D01*
X129581937Y-72160774D01*
X129695205Y-71991256D01*
X129773226Y-71802898D01*
X129813000Y-71602939D01*
X129813000Y-71399061D01*
X129773226Y-71199102D01*
X129695205Y-71010744D01*
X129581937Y-70841226D01*
X129437774Y-70697063D01*
X129333989Y-70627716D01*
X129441205Y-70467256D01*
X129519226Y-70278898D01*
X129559000Y-70078939D01*
X129559000Y-69875061D01*
X129519226Y-69675102D01*
X129441205Y-69486744D01*
X129327937Y-69317226D01*
X129183774Y-69173063D01*
X129014256Y-69059795D01*
X128825898Y-68981774D01*
X128625939Y-68942000D01*
X128583502Y-68942000D01*
X128581233Y-68940138D01*
X128444860Y-68867246D01*
X128296887Y-68822359D01*
X128181561Y-68811000D01*
X128181553Y-68811000D01*
X128143000Y-68807203D01*
X128104447Y-68811000D01*
X123714556Y-68811000D01*
X123676000Y-68807203D01*
X123637444Y-68811000D01*
X123637439Y-68811000D01*
X123597026Y-68814980D01*
X123522113Y-68822358D01*
X123374140Y-68867246D01*
X123237767Y-68940138D01*
X123118236Y-69038236D01*
X123093653Y-69068190D01*
X122689915Y-69471928D01*
X121737000Y-69471928D01*
X121612518Y-69484188D01*
X121492820Y-69520498D01*
X121382506Y-69579463D01*
X121285815Y-69658815D01*
X121206463Y-69755506D01*
X121147498Y-69865820D01*
X121111188Y-69985518D01*
X121098928Y-70110000D01*
X121098928Y-70860000D01*
X121111188Y-70984482D01*
X121147498Y-71104180D01*
X121155954Y-71120000D01*
X121147498Y-71135820D01*
X121111188Y-71255518D01*
X121098928Y-71380000D01*
X121098928Y-72130000D01*
X121111188Y-72254482D01*
X121147498Y-72374180D01*
X121155954Y-72390000D01*
X121147498Y-72405820D01*
X121111188Y-72525518D01*
X121098928Y-72650000D01*
X121098928Y-73400000D01*
X121111188Y-73524482D01*
X121147498Y-73644180D01*
X121206463Y-73754494D01*
X121285815Y-73851185D01*
X121382506Y-73930537D01*
X121492820Y-73989502D01*
X121612518Y-74025812D01*
X121737000Y-74038072D01*
X122689915Y-74038072D01*
X124363658Y-75711816D01*
X124388236Y-75741764D01*
X124418184Y-75766342D01*
X124418187Y-75766345D01*
X124420891Y-75768564D01*
X124507767Y-75839862D01*
X124644140Y-75912754D01*
X124792113Y-75957641D01*
X124907439Y-75969000D01*
X124907446Y-75969000D01*
X124945999Y-75972797D01*
X124984552Y-75969000D01*
X125072790Y-75969000D01*
X125049010Y-76004589D01*
X124937068Y-76274842D01*
X124880000Y-76561740D01*
X124880000Y-76854260D01*
X124937068Y-77141158D01*
X125049010Y-77411411D01*
X125211525Y-77654632D01*
X125418368Y-77861475D01*
X125600534Y-77983195D01*
X125483645Y-78052822D01*
X125267412Y-78247731D01*
X125093359Y-78481080D01*
X124968175Y-78743901D01*
X124923524Y-78891110D01*
X125044845Y-79121000D01*
X126238000Y-79121000D01*
X126238000Y-79101000D01*
X126492000Y-79101000D01*
X126492000Y-79121000D01*
X127685155Y-79121000D01*
X127806476Y-78891110D01*
X127761825Y-78743901D01*
X127636641Y-78481080D01*
X127462588Y-78247731D01*
X127246355Y-78052822D01*
X127129466Y-77983195D01*
X127230013Y-77916011D01*
X131363600Y-77916011D01*
X131332427Y-77974331D01*
X131296117Y-78094029D01*
X131283857Y-78218511D01*
X131286929Y-78470261D01*
X131445679Y-78629011D01*
X132269929Y-78629011D01*
X132269929Y-78609011D01*
X132523929Y-78609011D01*
X132523929Y-78629011D01*
X133026600Y-78629011D01*
X133062125Y-78664536D01*
X133886375Y-78664536D01*
X133886375Y-78644536D01*
X134140375Y-78644536D01*
X134140375Y-78664536D01*
X134964625Y-78664536D01*
X135000150Y-78629011D01*
X135502821Y-78629011D01*
X135502821Y-78609011D01*
X135756821Y-78609011D01*
X135756821Y-78629011D01*
X136259492Y-78629011D01*
X136295017Y-78664536D01*
X137119267Y-78664536D01*
X137119267Y-78644536D01*
X137373267Y-78644536D01*
X137373267Y-78664536D01*
X138735713Y-78664536D01*
X138735713Y-78644536D01*
X138989713Y-78644536D01*
X138989713Y-78664536D01*
X139009713Y-78664536D01*
X139009713Y-78918536D01*
X138989713Y-78918536D01*
X138989713Y-80332434D01*
X139009713Y-80332434D01*
X139009713Y-80586434D01*
X138989713Y-80586434D01*
X138989713Y-80606434D01*
X138735713Y-80606434D01*
X138735713Y-80586434D01*
X137373267Y-80586434D01*
X137373267Y-80606434D01*
X137119267Y-80606434D01*
X137119267Y-80586434D01*
X135756821Y-80586434D01*
X135756821Y-80606434D01*
X135502821Y-80606434D01*
X135502821Y-80586434D01*
X134140375Y-80586434D01*
X134140375Y-80606434D01*
X133886375Y-80606434D01*
X133886375Y-80586434D01*
X132523929Y-80586434D01*
X132523929Y-80606434D01*
X132269929Y-80606434D01*
X132269929Y-80586434D01*
X131445679Y-80586434D01*
X131286929Y-80745184D01*
X131283857Y-80996934D01*
X131296117Y-81121416D01*
X131332427Y-81241114D01*
X131363600Y-81299434D01*
X127853072Y-81299434D01*
X127853072Y-80938000D01*
X127840812Y-80813518D01*
X127804502Y-80693820D01*
X127745537Y-80583506D01*
X127666185Y-80486815D01*
X127569494Y-80407463D01*
X127459180Y-80348498D01*
X127378534Y-80324034D01*
X127462588Y-80248269D01*
X127636641Y-80014920D01*
X127761825Y-79752099D01*
X127806476Y-79604890D01*
X127685155Y-79375000D01*
X126492000Y-79375000D01*
X126492000Y-79395000D01*
X126238000Y-79395000D01*
X126238000Y-79375000D01*
X125044845Y-79375000D01*
X124923524Y-79604890D01*
X124968175Y-79752099D01*
X125093359Y-80014920D01*
X125267412Y-80248269D01*
X125351466Y-80324034D01*
X125270820Y-80348498D01*
X125160506Y-80407463D01*
X125063815Y-80486815D01*
X124984463Y-80583506D01*
X124925498Y-80693820D01*
X124889188Y-80813518D01*
X124876928Y-80938000D01*
X124876928Y-82638000D01*
X124889188Y-82762482D01*
X124925498Y-82882180D01*
X124984463Y-82992494D01*
X125063815Y-83089185D01*
X125160506Y-83168537D01*
X125270820Y-83227502D01*
X125390518Y-83263812D01*
X125515000Y-83276072D01*
X127215000Y-83276072D01*
X127339482Y-83263812D01*
X127459180Y-83227502D01*
X127569494Y-83168537D01*
X127666185Y-83089185D01*
X127682394Y-83069434D01*
X131512302Y-83069434D01*
X131540306Y-83103557D01*
X131672987Y-83212446D01*
X131824362Y-83293357D01*
X131988613Y-83343182D01*
X132159429Y-83360006D01*
X132634429Y-83360006D01*
X132805245Y-83343182D01*
X132969496Y-83293357D01*
X133120871Y-83212446D01*
X133205152Y-83143278D01*
X133251505Y-83181320D01*
X133237188Y-83228518D01*
X133224928Y-83353000D01*
X133224928Y-85353000D01*
X133237188Y-85477482D01*
X133273498Y-85597180D01*
X133332463Y-85707494D01*
X133411815Y-85804185D01*
X133508506Y-85883537D01*
X133618820Y-85942502D01*
X133738518Y-85978812D01*
X133863000Y-85991072D01*
X134878000Y-85991072D01*
X134878001Y-87507000D01*
X132569824Y-87507000D01*
X132581812Y-87467482D01*
X132594072Y-87343000D01*
X132591000Y-87153750D01*
X132432250Y-86995000D01*
X131558000Y-86995000D01*
X131558000Y-87015000D01*
X131304000Y-87015000D01*
X131304000Y-86995000D01*
X131284000Y-86995000D01*
X131284000Y-86741000D01*
X131304000Y-86741000D01*
X131304000Y-85916750D01*
X131558000Y-85916750D01*
X131558000Y-86741000D01*
X132432250Y-86741000D01*
X132591000Y-86582250D01*
X132594072Y-86393000D01*
X132581812Y-86268518D01*
X132545502Y-86148820D01*
X132486537Y-86038506D01*
X132407185Y-85941815D01*
X132310494Y-85862463D01*
X132200180Y-85803498D01*
X132080482Y-85767188D01*
X131956000Y-85754928D01*
X131716750Y-85758000D01*
X131558000Y-85916750D01*
X131304000Y-85916750D01*
X131145250Y-85758000D01*
X130906000Y-85754928D01*
X130781518Y-85767188D01*
X130661820Y-85803498D01*
X130551506Y-85862463D01*
X130478839Y-85922099D01*
X130454942Y-85902488D01*
X130303567Y-85821577D01*
X130139316Y-85771752D01*
X129968500Y-85754928D01*
X129393500Y-85754928D01*
X129222684Y-85771752D01*
X129058433Y-85821577D01*
X128907058Y-85902488D01*
X128774377Y-86011377D01*
X128665488Y-86144058D01*
X128584577Y-86295433D01*
X128534752Y-86459684D01*
X128517928Y-86630500D01*
X128517928Y-87105500D01*
X128534752Y-87276316D01*
X128584577Y-87440567D01*
X128665488Y-87591942D01*
X128696722Y-87630000D01*
X128665488Y-87668058D01*
X128584577Y-87819433D01*
X128534752Y-87983684D01*
X128517928Y-88154500D01*
X128517928Y-88629500D01*
X128534752Y-88800316D01*
X128584577Y-88964567D01*
X128665488Y-89115942D01*
X128774377Y-89248623D01*
X128907058Y-89357512D01*
X129058433Y-89438423D01*
X129222684Y-89488248D01*
X129393500Y-89505072D01*
X129893500Y-89505072D01*
X130064316Y-89488248D01*
X130228567Y-89438423D01*
X130379942Y-89357512D01*
X130512623Y-89248623D01*
X130556000Y-89195768D01*
X130599377Y-89248623D01*
X130732058Y-89357512D01*
X130883433Y-89438423D01*
X131047684Y-89488248D01*
X131218500Y-89505072D01*
X131718500Y-89505072D01*
X131889316Y-89488248D01*
X132053567Y-89438423D01*
X132129317Y-89397934D01*
X132123498Y-89408820D01*
X132087188Y-89528518D01*
X132074928Y-89653000D01*
X132078000Y-90367250D01*
X132236750Y-90526000D01*
X133336000Y-90526000D01*
X133336000Y-90506000D01*
X133590000Y-90506000D01*
X133590000Y-90526000D01*
X133610000Y-90526000D01*
X133610000Y-90780000D01*
X133590000Y-90780000D01*
X133590000Y-92129250D01*
X133748750Y-92288000D01*
X134213000Y-92291072D01*
X134337482Y-92278812D01*
X134457180Y-92242502D01*
X134567494Y-92183537D01*
X134613000Y-92146191D01*
X134658506Y-92183537D01*
X134768820Y-92242502D01*
X134888518Y-92278812D01*
X135013000Y-92291072D01*
X136513000Y-92291072D01*
X136637482Y-92278812D01*
X136757180Y-92242502D01*
X136867494Y-92183537D01*
X136913000Y-92146191D01*
X136958506Y-92183537D01*
X137068820Y-92242502D01*
X137188518Y-92278812D01*
X137313000Y-92291072D01*
X137372659Y-92291072D01*
X137329498Y-92371820D01*
X137293188Y-92491518D01*
X137280928Y-92616000D01*
X137284000Y-92805250D01*
X137442750Y-92964000D01*
X138329500Y-92964000D01*
X138329500Y-92944000D01*
X138583500Y-92944000D01*
X138583500Y-92964000D01*
X138603500Y-92964000D01*
X138603500Y-93218000D01*
X138583500Y-93218000D01*
X138583500Y-93740750D01*
X138533500Y-93790750D01*
X138533500Y-94615000D01*
X138553500Y-94615000D01*
X138553500Y-94869000D01*
X138533500Y-94869000D01*
X138533500Y-95693250D01*
X138692250Y-95852000D01*
X138894000Y-95855072D01*
X139018482Y-95842812D01*
X139138180Y-95806502D01*
X139248494Y-95747537D01*
X139345185Y-95668185D01*
X139386217Y-95618188D01*
X139495058Y-95707512D01*
X139646433Y-95788423D01*
X139810684Y-95838248D01*
X139981500Y-95855072D01*
X140481500Y-95855072D01*
X140652316Y-95838248D01*
X140816567Y-95788423D01*
X140837003Y-95777500D01*
X140971639Y-95777500D01*
X140974000Y-95801469D01*
X140974000Y-95801477D01*
X140979279Y-95855072D01*
X140986805Y-95931490D01*
X141037412Y-96098313D01*
X141119590Y-96252059D01*
X141202468Y-96353046D01*
X141202471Y-96353049D01*
X141230184Y-96386817D01*
X141263951Y-96414529D01*
X142599470Y-97750049D01*
X142627183Y-97783817D01*
X142660951Y-97811530D01*
X142660953Y-97811532D01*
X142731102Y-97869102D01*
X142761941Y-97894411D01*
X142915687Y-97976589D01*
X143082510Y-98027195D01*
X143212523Y-98040000D01*
X143212533Y-98040000D01*
X143255999Y-98044281D01*
X143299465Y-98040000D01*
X146925781Y-98040000D01*
X146920000Y-98069061D01*
X146920000Y-98095842D01*
X141966190Y-103049653D01*
X141936236Y-103074236D01*
X141838138Y-103193768D01*
X141785514Y-103292222D01*
X141753423Y-103186433D01*
X141672512Y-103035058D01*
X141563623Y-102902377D01*
X141430942Y-102793488D01*
X141279567Y-102712577D01*
X141156099Y-102675123D01*
X141213398Y-102663726D01*
X141401756Y-102585705D01*
X141571274Y-102472437D01*
X141715437Y-102328274D01*
X141828705Y-102158756D01*
X141906726Y-101970398D01*
X141946500Y-101770439D01*
X141946500Y-101566561D01*
X141906726Y-101366602D01*
X141828705Y-101178244D01*
X141715437Y-101008726D01*
X141571274Y-100864563D01*
X141401756Y-100751295D01*
X141213398Y-100673274D01*
X141013439Y-100633500D01*
X140809561Y-100633500D01*
X140609602Y-100673274D01*
X140455912Y-100736935D01*
X140441226Y-100663102D01*
X140363205Y-100474744D01*
X140249937Y-100305226D01*
X140105774Y-100161063D01*
X139936256Y-100047795D01*
X139747898Y-99969774D01*
X139547939Y-99930000D01*
X139344061Y-99930000D01*
X139144102Y-99969774D01*
X138955744Y-100047795D01*
X138786226Y-100161063D01*
X138642063Y-100305226D01*
X138528795Y-100474744D01*
X138450774Y-100663102D01*
X138439465Y-100719957D01*
X138428551Y-100730871D01*
X138379244Y-100751295D01*
X138209726Y-100864563D01*
X138065563Y-101008726D01*
X137952295Y-101178244D01*
X137874274Y-101366602D01*
X137834500Y-101566561D01*
X137834500Y-101770439D01*
X137874274Y-101970398D01*
X137952295Y-102158756D01*
X137984501Y-102206955D01*
X137984500Y-102921723D01*
X137891488Y-103035058D01*
X137810577Y-103186433D01*
X137760752Y-103350684D01*
X137743928Y-103521500D01*
X137743928Y-103996500D01*
X137760752Y-104167316D01*
X137810577Y-104331567D01*
X137866173Y-104435581D01*
X137851463Y-104453506D01*
X137792498Y-104563820D01*
X137756188Y-104683518D01*
X137743928Y-104808000D01*
X137747000Y-104997250D01*
X137905750Y-105156000D01*
X138780000Y-105156000D01*
X138780000Y-105136000D01*
X139034000Y-105136000D01*
X139034000Y-105156000D01*
X139054000Y-105156000D01*
X139054000Y-105410000D01*
X139034000Y-105410000D01*
X139034000Y-106234250D01*
X139192750Y-106393000D01*
X139432000Y-106396072D01*
X139556482Y-106383812D01*
X139676180Y-106347502D01*
X139786494Y-106288537D01*
X139859161Y-106228901D01*
X139883058Y-106248512D01*
X140034433Y-106329423D01*
X140198684Y-106379248D01*
X140369500Y-106396072D01*
X140944500Y-106396072D01*
X141115316Y-106379248D01*
X141279567Y-106329423D01*
X141430942Y-106248512D01*
X141563623Y-106139623D01*
X141672512Y-106006942D01*
X141709001Y-105938676D01*
X141709001Y-106203042D01*
X141450115Y-106461928D01*
X140222200Y-106461928D01*
X140097718Y-106474188D01*
X139978020Y-106510498D01*
X139867706Y-106569463D01*
X139771015Y-106648815D01*
X139691663Y-106745506D01*
X139632698Y-106855820D01*
X139608234Y-106936466D01*
X139532469Y-106852412D01*
X139299120Y-106678359D01*
X139036299Y-106553175D01*
X138889090Y-106508524D01*
X138659200Y-106629845D01*
X138659200Y-107823000D01*
X138679200Y-107823000D01*
X138679200Y-108077000D01*
X138659200Y-108077000D01*
X138659200Y-108097000D01*
X138405200Y-108097000D01*
X138405200Y-108077000D01*
X137211386Y-108077000D01*
X137090719Y-108306891D01*
X137188043Y-108581252D01*
X137337022Y-108831355D01*
X137531931Y-109047588D01*
X137765280Y-109221641D01*
X138013772Y-109340000D01*
X120029392Y-109340000D01*
X119366439Y-109280833D01*
X117632607Y-107547001D01*
X117727573Y-107452035D01*
X118045757Y-107905850D01*
X118650210Y-108231269D01*
X119306535Y-108432512D01*
X119989510Y-108501845D01*
X120672888Y-108436605D01*
X121330407Y-108239298D01*
X121936799Y-107917506D01*
X121954243Y-107905850D01*
X122173515Y-107593109D01*
X137090719Y-107593109D01*
X137211386Y-107823000D01*
X138405200Y-107823000D01*
X138405200Y-106629845D01*
X138175310Y-106508524D01*
X138028101Y-106553175D01*
X137765280Y-106678359D01*
X137531931Y-106852412D01*
X137337022Y-107068645D01*
X137188043Y-107318748D01*
X137090719Y-107593109D01*
X122173515Y-107593109D01*
X122272428Y-107452033D01*
X120000000Y-105179605D01*
X119985858Y-105193748D01*
X119806253Y-105014143D01*
X119820395Y-105000000D01*
X120179605Y-105000000D01*
X122452033Y-107272428D01*
X122905850Y-106954243D01*
X123231269Y-106349790D01*
X123412724Y-105758000D01*
X137743928Y-105758000D01*
X137756188Y-105882482D01*
X137792498Y-106002180D01*
X137851463Y-106112494D01*
X137930815Y-106209185D01*
X138027506Y-106288537D01*
X138137820Y-106347502D01*
X138257518Y-106383812D01*
X138382000Y-106396072D01*
X138621250Y-106393000D01*
X138780000Y-106234250D01*
X138780000Y-105410000D01*
X137905750Y-105410000D01*
X137747000Y-105568750D01*
X137743928Y-105758000D01*
X123412724Y-105758000D01*
X123432512Y-105693465D01*
X123501845Y-105010490D01*
X123436605Y-104327112D01*
X123239298Y-103669593D01*
X122917506Y-103063201D01*
X122905850Y-103045757D01*
X122452033Y-102727572D01*
X120179605Y-105000000D01*
X119820395Y-105000000D01*
X117547967Y-102727572D01*
X117094150Y-103045757D01*
X116768731Y-103650210D01*
X116567488Y-104306535D01*
X116498155Y-104989510D01*
X116563395Y-105672888D01*
X116760702Y-106330407D01*
X117082494Y-106936799D01*
X117094150Y-106954243D01*
X117547965Y-107272427D01*
X117452999Y-107367393D01*
X115707443Y-105621837D01*
X115660000Y-104975793D01*
X115660000Y-102547967D01*
X117727572Y-102547967D01*
X120000000Y-104820395D01*
X122272428Y-102547967D01*
X121954243Y-102094150D01*
X121349790Y-101768731D01*
X120693465Y-101567488D01*
X120010490Y-101498155D01*
X119327112Y-101563395D01*
X118669593Y-101760702D01*
X118063201Y-102082494D01*
X118045757Y-102094150D01*
X117727572Y-102547967D01*
X115660000Y-102547967D01*
X115660000Y-90068061D01*
X115805000Y-90068061D01*
X115805000Y-90271939D01*
X115844774Y-90471898D01*
X115922795Y-90660256D01*
X116019510Y-90805000D01*
X115922795Y-90949744D01*
X115844774Y-91138102D01*
X115805000Y-91338061D01*
X115805000Y-91541939D01*
X115844774Y-91741898D01*
X115922795Y-91930256D01*
X116019510Y-92075000D01*
X115922795Y-92219744D01*
X115844774Y-92408102D01*
X115805000Y-92608061D01*
X115805000Y-92811939D01*
X115844774Y-93011898D01*
X115922795Y-93200256D01*
X116019510Y-93345000D01*
X115922795Y-93489744D01*
X115844774Y-93678102D01*
X115805000Y-93878061D01*
X115805000Y-94081939D01*
X115844774Y-94281898D01*
X115922795Y-94470256D01*
X116019510Y-94615000D01*
X115922795Y-94759744D01*
X115844774Y-94948102D01*
X115805000Y-95148061D01*
X115805000Y-95351939D01*
X115844774Y-95551898D01*
X115922795Y-95740256D01*
X116019510Y-95885000D01*
X115922795Y-96029744D01*
X115844774Y-96218102D01*
X115805000Y-96418061D01*
X115805000Y-96621939D01*
X115844774Y-96821898D01*
X115922795Y-97010256D01*
X116036063Y-97179774D01*
X116180226Y-97323937D01*
X116349744Y-97437205D01*
X116538102Y-97515226D01*
X116738061Y-97555000D01*
X116941939Y-97555000D01*
X117141898Y-97515226D01*
X117330256Y-97437205D01*
X117475000Y-97340490D01*
X117619744Y-97437205D01*
X117808102Y-97515226D01*
X118008061Y-97555000D01*
X118211939Y-97555000D01*
X118411898Y-97515226D01*
X118600256Y-97437205D01*
X118745000Y-97340490D01*
X118889744Y-97437205D01*
X119078102Y-97515226D01*
X119278061Y-97555000D01*
X119481939Y-97555000D01*
X119681898Y-97515226D01*
X119870256Y-97437205D01*
X120039774Y-97323937D01*
X120183937Y-97179774D01*
X120297205Y-97010256D01*
X120375226Y-96821898D01*
X120415000Y-96621939D01*
X120415000Y-96418061D01*
X120381961Y-96251961D01*
X120548061Y-96285000D01*
X120751939Y-96285000D01*
X120951898Y-96245226D01*
X121140256Y-96167205D01*
X121309774Y-96053937D01*
X121453937Y-95909774D01*
X121567205Y-95740256D01*
X121645226Y-95551898D01*
X121685000Y-95351939D01*
X121685000Y-95217000D01*
X137280928Y-95217000D01*
X137293188Y-95341482D01*
X137329498Y-95461180D01*
X137388463Y-95571494D01*
X137467815Y-95668185D01*
X137564506Y-95747537D01*
X137674820Y-95806502D01*
X137794518Y-95842812D01*
X137919000Y-95855072D01*
X138120750Y-95852000D01*
X138279500Y-95693250D01*
X138279500Y-94869000D01*
X137442750Y-94869000D01*
X137284000Y-95027750D01*
X137280928Y-95217000D01*
X121685000Y-95217000D01*
X121685000Y-95148061D01*
X121651961Y-94981961D01*
X121818061Y-95015000D01*
X122021939Y-95015000D01*
X122221898Y-94975226D01*
X122410256Y-94897205D01*
X122579774Y-94783937D01*
X122723937Y-94639774D01*
X122837205Y-94470256D01*
X122915226Y-94281898D01*
X122955000Y-94081939D01*
X122955000Y-93878061D01*
X122915226Y-93678102D01*
X122868792Y-93566000D01*
X137280928Y-93566000D01*
X137293188Y-93690482D01*
X137329498Y-93810180D01*
X137386328Y-93916500D01*
X137329498Y-94022820D01*
X137293188Y-94142518D01*
X137280928Y-94267000D01*
X137284000Y-94456250D01*
X137442750Y-94615000D01*
X138279500Y-94615000D01*
X138279500Y-94092250D01*
X138329500Y-94042250D01*
X138329500Y-93218000D01*
X137442750Y-93218000D01*
X137284000Y-93376750D01*
X137280928Y-93566000D01*
X122868792Y-93566000D01*
X122837205Y-93489744D01*
X122740490Y-93345000D01*
X122837205Y-93200256D01*
X122915226Y-93011898D01*
X122955000Y-92811939D01*
X122955000Y-92608061D01*
X122915226Y-92408102D01*
X122837205Y-92219744D01*
X122740490Y-92075000D01*
X122837205Y-91930256D01*
X122915226Y-91741898D01*
X122955000Y-91541939D01*
X122955000Y-91338061D01*
X122915226Y-91138102D01*
X122837205Y-90949744D01*
X122723937Y-90780226D01*
X122579774Y-90636063D01*
X122410256Y-90522795D01*
X122221898Y-90444774D01*
X122021939Y-90405000D01*
X121818061Y-90405000D01*
X121651961Y-90438039D01*
X121685000Y-90271939D01*
X121685000Y-90068061D01*
X121645226Y-89868102D01*
X121567205Y-89679744D01*
X121453937Y-89510226D01*
X121309774Y-89366063D01*
X121140256Y-89252795D01*
X120951898Y-89174774D01*
X120751939Y-89135000D01*
X120548061Y-89135000D01*
X120348102Y-89174774D01*
X120159744Y-89252795D01*
X120015000Y-89349510D01*
X119870256Y-89252795D01*
X119681898Y-89174774D01*
X119481939Y-89135000D01*
X119278061Y-89135000D01*
X119078102Y-89174774D01*
X118889744Y-89252795D01*
X118745000Y-89349510D01*
X118600256Y-89252795D01*
X118411898Y-89174774D01*
X118211939Y-89135000D01*
X118008061Y-89135000D01*
X117808102Y-89174774D01*
X117619744Y-89252795D01*
X117475000Y-89349510D01*
X117330256Y-89252795D01*
X117141898Y-89174774D01*
X116941939Y-89135000D01*
X116738061Y-89135000D01*
X116538102Y-89174774D01*
X116349744Y-89252795D01*
X116180226Y-89366063D01*
X116036063Y-89510226D01*
X115922795Y-89679744D01*
X115844774Y-89868102D01*
X115805000Y-90068061D01*
X115660000Y-90068061D01*
X115660000Y-85510000D01*
X115986928Y-85510000D01*
X115986928Y-87210000D01*
X115999188Y-87334482D01*
X116035498Y-87454180D01*
X116094463Y-87564494D01*
X116173815Y-87661185D01*
X116270506Y-87740537D01*
X116380820Y-87799502D01*
X116500518Y-87835812D01*
X116625000Y-87848072D01*
X118325000Y-87848072D01*
X118449482Y-87835812D01*
X118569180Y-87799502D01*
X118679494Y-87740537D01*
X118776185Y-87661185D01*
X118855537Y-87564494D01*
X118914502Y-87454180D01*
X118950812Y-87334482D01*
X118963072Y-87210000D01*
X118963072Y-85510000D01*
X118950812Y-85385518D01*
X118914502Y-85265820D01*
X118855537Y-85155506D01*
X118776185Y-85058815D01*
X118679494Y-84979463D01*
X118569180Y-84920498D01*
X118488534Y-84896034D01*
X118572588Y-84820269D01*
X118601345Y-84781715D01*
X119061104Y-84781715D01*
X119073364Y-84906197D01*
X119109674Y-85025895D01*
X119168639Y-85136209D01*
X119228275Y-85208876D01*
X119208664Y-85232773D01*
X119127753Y-85384148D01*
X119077928Y-85548399D01*
X119061104Y-85719215D01*
X119061104Y-86294215D01*
X119077928Y-86465031D01*
X119127753Y-86629282D01*
X119208664Y-86780657D01*
X119317553Y-86913338D01*
X119450234Y-87022227D01*
X119601609Y-87103138D01*
X119765860Y-87152963D01*
X119936676Y-87169787D01*
X120411676Y-87169787D01*
X120582492Y-87152963D01*
X120746743Y-87103138D01*
X120898118Y-87022227D01*
X120982399Y-86953059D01*
X121066680Y-87022227D01*
X121218055Y-87103138D01*
X121382306Y-87152963D01*
X121553122Y-87169787D01*
X122028122Y-87169787D01*
X122198938Y-87152963D01*
X122363189Y-87103138D01*
X122514564Y-87022227D01*
X122647245Y-86913338D01*
X122756134Y-86780657D01*
X122837045Y-86629282D01*
X122886870Y-86465031D01*
X122903694Y-86294215D01*
X122903694Y-85801273D01*
X123194000Y-86091579D01*
X123194001Y-88221521D01*
X123189719Y-88265000D01*
X123206805Y-88438490D01*
X123257412Y-88605313D01*
X123339590Y-88759059D01*
X123422468Y-88860046D01*
X123422471Y-88860049D01*
X123450184Y-88893817D01*
X123483951Y-88921529D01*
X124342465Y-89780044D01*
X124353774Y-89836898D01*
X124431795Y-90025256D01*
X124545063Y-90194774D01*
X124689226Y-90338937D01*
X124858744Y-90452205D01*
X125047102Y-90530226D01*
X125103956Y-90541535D01*
X125104465Y-90542044D01*
X125115774Y-90598898D01*
X125193795Y-90787256D01*
X125307063Y-90956774D01*
X125451226Y-91100937D01*
X125620744Y-91214205D01*
X125767858Y-91275142D01*
X125828795Y-91422256D01*
X125942063Y-91591774D01*
X126086226Y-91735937D01*
X126255744Y-91849205D01*
X126402858Y-91910142D01*
X126463795Y-92057256D01*
X126577063Y-92226774D01*
X126721226Y-92370937D01*
X126890744Y-92484205D01*
X127079102Y-92562226D01*
X127279061Y-92602000D01*
X127482939Y-92602000D01*
X127682898Y-92562226D01*
X127871256Y-92484205D01*
X128040774Y-92370937D01*
X128184937Y-92226774D01*
X128298205Y-92057256D01*
X128376226Y-91868898D01*
X128416000Y-91668939D01*
X128416000Y-91653000D01*
X132074928Y-91653000D01*
X132087188Y-91777482D01*
X132123498Y-91897180D01*
X132182463Y-92007494D01*
X132261815Y-92104185D01*
X132358506Y-92183537D01*
X132468820Y-92242502D01*
X132588518Y-92278812D01*
X132713000Y-92291072D01*
X133177250Y-92288000D01*
X133336000Y-92129250D01*
X133336000Y-90780000D01*
X132236750Y-90780000D01*
X132078000Y-90938750D01*
X132074928Y-91653000D01*
X128416000Y-91653000D01*
X128416000Y-91465061D01*
X128376226Y-91265102D01*
X128298205Y-91076744D01*
X128184937Y-90907226D01*
X128040774Y-90763063D01*
X127871256Y-90649795D01*
X127724142Y-90588858D01*
X127663205Y-90441744D01*
X127549937Y-90272226D01*
X127405774Y-90128063D01*
X127236256Y-90014795D01*
X127089142Y-89953858D01*
X127028205Y-89806744D01*
X126914937Y-89637226D01*
X126770774Y-89493063D01*
X126601256Y-89379795D01*
X126412898Y-89301774D01*
X126356044Y-89290465D01*
X126355535Y-89289956D01*
X126344226Y-89233102D01*
X126266205Y-89044744D01*
X126152937Y-88875226D01*
X126008774Y-88731063D01*
X125839256Y-88617795D01*
X125650898Y-88539774D01*
X125594044Y-88528465D01*
X124964000Y-87898422D01*
X124964000Y-85768469D01*
X124968281Y-85725000D01*
X124964000Y-85681531D01*
X124964000Y-85681523D01*
X124951195Y-85551510D01*
X124932004Y-85488248D01*
X124900589Y-85384686D01*
X124818411Y-85230941D01*
X124735532Y-85129953D01*
X124735530Y-85129951D01*
X124707817Y-85096183D01*
X124674050Y-85068471D01*
X123229749Y-83624171D01*
X123202032Y-83590398D01*
X123067274Y-83479804D01*
X122913528Y-83397626D01*
X122746705Y-83347020D01*
X122629427Y-83335469D01*
X122514564Y-83241203D01*
X122363189Y-83160292D01*
X122198938Y-83110467D01*
X122028122Y-83093643D01*
X121553122Y-83093643D01*
X121382306Y-83110467D01*
X121218055Y-83160292D01*
X121066680Y-83241203D01*
X121059560Y-83247046D01*
X121003670Y-83201178D01*
X120893356Y-83142213D01*
X120773658Y-83105903D01*
X120649176Y-83093643D01*
X120459926Y-83096715D01*
X120301176Y-83255465D01*
X120301176Y-84129715D01*
X120321176Y-84129715D01*
X120321176Y-84383715D01*
X120301176Y-84383715D01*
X120301176Y-84403715D01*
X120047176Y-84403715D01*
X120047176Y-84383715D01*
X119222926Y-84383715D01*
X119064176Y-84542465D01*
X119061104Y-84781715D01*
X118601345Y-84781715D01*
X118746641Y-84586920D01*
X118871825Y-84324099D01*
X118916476Y-84176890D01*
X118795155Y-83947000D01*
X117602000Y-83947000D01*
X117602000Y-83967000D01*
X117348000Y-83967000D01*
X117348000Y-83947000D01*
X116154845Y-83947000D01*
X116033524Y-84176890D01*
X116078175Y-84324099D01*
X116203359Y-84586920D01*
X116377412Y-84820269D01*
X116461466Y-84896034D01*
X116380820Y-84920498D01*
X116270506Y-84979463D01*
X116173815Y-85058815D01*
X116094463Y-85155506D01*
X116035498Y-85265820D01*
X115999188Y-85385518D01*
X115986928Y-85510000D01*
X115660000Y-85510000D01*
X115660000Y-83731715D01*
X119061104Y-83731715D01*
X119064176Y-83970965D01*
X119222926Y-84129715D01*
X120047176Y-84129715D01*
X120047176Y-83255465D01*
X119888426Y-83096715D01*
X119699176Y-83093643D01*
X119574694Y-83105903D01*
X119454996Y-83142213D01*
X119344682Y-83201178D01*
X119247991Y-83280530D01*
X119168639Y-83377221D01*
X119109674Y-83487535D01*
X119073364Y-83607233D01*
X119061104Y-83731715D01*
X115660000Y-83731715D01*
X115660000Y-83463110D01*
X116033524Y-83463110D01*
X116154845Y-83693000D01*
X117348000Y-83693000D01*
X117348000Y-82499186D01*
X117602000Y-82499186D01*
X117602000Y-83693000D01*
X118795155Y-83693000D01*
X118916476Y-83463110D01*
X118871825Y-83315901D01*
X118746641Y-83053080D01*
X118572588Y-82819731D01*
X118356355Y-82624822D01*
X118106252Y-82475843D01*
X117831891Y-82378519D01*
X117602000Y-82499186D01*
X117348000Y-82499186D01*
X117118109Y-82378519D01*
X116843748Y-82475843D01*
X116593645Y-82624822D01*
X116377412Y-82819731D01*
X116203359Y-83053080D01*
X116078175Y-83315901D01*
X116033524Y-83463110D01*
X115660000Y-83463110D01*
X115660000Y-79293511D01*
X131283857Y-79293511D01*
X131296117Y-79417993D01*
X131332427Y-79537691D01*
X131369860Y-79607723D01*
X131332427Y-79677754D01*
X131296117Y-79797452D01*
X131283857Y-79921934D01*
X131286929Y-80173684D01*
X131445679Y-80332434D01*
X132269929Y-80332434D01*
X132269929Y-78883011D01*
X132523929Y-78883011D01*
X132523929Y-80332434D01*
X133886375Y-80332434D01*
X133886375Y-78918536D01*
X134140375Y-78918536D01*
X134140375Y-80332434D01*
X135502821Y-80332434D01*
X135502821Y-78883011D01*
X135756821Y-78883011D01*
X135756821Y-80332434D01*
X137119267Y-80332434D01*
X137119267Y-78918536D01*
X137373267Y-78918536D01*
X137373267Y-80332434D01*
X138735713Y-80332434D01*
X138735713Y-78918536D01*
X137373267Y-78918536D01*
X137119267Y-78918536D01*
X136616596Y-78918536D01*
X136581071Y-78883011D01*
X135756821Y-78883011D01*
X135502821Y-78883011D01*
X134678571Y-78883011D01*
X134643046Y-78918536D01*
X134140375Y-78918536D01*
X133886375Y-78918536D01*
X133383704Y-78918536D01*
X133348179Y-78883011D01*
X132523929Y-78883011D01*
X132269929Y-78883011D01*
X131445679Y-78883011D01*
X131286929Y-79041761D01*
X131283857Y-79293511D01*
X115660000Y-79293511D01*
X115660000Y-67452033D01*
X117727572Y-67452033D01*
X118045757Y-67905850D01*
X118650210Y-68231269D01*
X119306535Y-68432512D01*
X119989510Y-68501845D01*
X120672888Y-68436605D01*
X121330407Y-68239298D01*
X121936799Y-67917506D01*
X121954243Y-67905850D01*
X122272428Y-67452033D01*
X120000000Y-65179605D01*
X117727572Y-67452033D01*
X115660000Y-67452033D01*
X115660000Y-65029392D01*
X115663559Y-64989510D01*
X116498155Y-64989510D01*
X116563395Y-65672888D01*
X116760702Y-66330407D01*
X117082494Y-66936799D01*
X117094150Y-66954243D01*
X117547967Y-67272428D01*
X119820395Y-65000000D01*
X120179605Y-65000000D01*
X122452033Y-67272428D01*
X122905850Y-66954243D01*
X123231269Y-66349790D01*
X123432512Y-65693465D01*
X123501845Y-65010490D01*
X123436605Y-64327112D01*
X123239298Y-63669593D01*
X122917506Y-63063201D01*
X122905850Y-63045757D01*
X122452033Y-62727572D01*
X120179605Y-65000000D01*
X119820395Y-65000000D01*
X117547967Y-62727572D01*
X117094150Y-63045757D01*
X116768731Y-63650210D01*
X116567488Y-64306535D01*
X116498155Y-64989510D01*
X115663559Y-64989510D01*
X115729558Y-64250017D01*
X117342026Y-62547967D01*
X117727572Y-62547967D01*
X120000000Y-64820395D01*
X122272428Y-62547967D01*
X121954243Y-62094150D01*
X121543669Y-61873109D01*
X136988519Y-61873109D01*
X137109186Y-62103000D01*
X138303000Y-62103000D01*
X138303000Y-60909845D01*
X138073110Y-60788524D01*
X137925901Y-60833175D01*
X137663080Y-60958359D01*
X137429731Y-61132412D01*
X137234822Y-61348645D01*
X137085843Y-61598748D01*
X136988519Y-61873109D01*
X121543669Y-61873109D01*
X121349790Y-61768731D01*
X120693465Y-61567488D01*
X120010490Y-61498155D01*
X119327112Y-61563395D01*
X118669593Y-61760702D01*
X118063201Y-62082494D01*
X118045757Y-62094150D01*
X117727572Y-62547967D01*
X117342026Y-62547967D01*
X119000945Y-60796887D01*
X119371457Y-60707935D01*
X120024207Y-60660000D01*
X146059397Y-60660000D01*
X145758309Y-61026876D01*
G37*
%TD.AperFunction*%
D27*
X147352762Y-91801157D02*
X147354541Y-91802936D01*
X147370000Y-91802095D01*
X147385459Y-91802936D01*
X147387238Y-91801157D01*
X147390124Y-91801000D01*
X147447000Y-91801000D01*
X147447000Y-91821000D01*
X147467000Y-91821000D01*
X147467000Y-92075000D01*
X147447000Y-92075000D01*
X147447000Y-92095000D01*
X147390124Y-92095000D01*
X147387238Y-92094843D01*
X147385459Y-92093064D01*
X147370000Y-92093905D01*
X147354541Y-92093064D01*
X147352762Y-92094843D01*
X147349876Y-92095000D01*
X147193000Y-92095000D01*
X147193000Y-92075000D01*
X147173000Y-92075000D01*
X147173000Y-92018128D01*
X147174936Y-91982541D01*
X147173000Y-91980605D01*
X147173000Y-91915395D01*
X147174936Y-91913459D01*
X147173000Y-91877872D01*
X147173000Y-91821000D01*
X147193000Y-91821000D01*
X147193000Y-91801000D01*
X147349876Y-91801000D01*
X147352762Y-91801157D01*
%TA.AperFunction,Conductor*%
D28*
G36*
X147352762Y-91801157D02*
G01*
X147354541Y-91802936D01*
X147370000Y-91802095D01*
X147385459Y-91802936D01*
X147387238Y-91801157D01*
X147390124Y-91801000D01*
X147447000Y-91801000D01*
X147447000Y-91821000D01*
X147467000Y-91821000D01*
X147467000Y-92075000D01*
X147447000Y-92075000D01*
X147447000Y-92095000D01*
X147390124Y-92095000D01*
X147387238Y-92094843D01*
X147385459Y-92093064D01*
X147370000Y-92093905D01*
X147354541Y-92093064D01*
X147352762Y-92094843D01*
X147349876Y-92095000D01*
X147193000Y-92095000D01*
X147193000Y-92075000D01*
X147173000Y-92075000D01*
X147173000Y-92018128D01*
X147174936Y-91982541D01*
X147173000Y-91980605D01*
X147173000Y-91915395D01*
X147174936Y-91913459D01*
X147173000Y-91877872D01*
X147173000Y-91821000D01*
X147193000Y-91821000D01*
X147193000Y-91801000D01*
X147349876Y-91801000D01*
X147352762Y-91801157D01*
G37*
%TD.AperFunction*%
D27*
X148082000Y-89121000D02*
X148102000Y-89121000D01*
X148102000Y-89375000D01*
X148082000Y-89375000D01*
X148082000Y-89395000D01*
X147828000Y-89395000D01*
X147828000Y-89375000D01*
X147808000Y-89375000D01*
X147808000Y-89121000D01*
X147828000Y-89121000D01*
X147828000Y-89101000D01*
X148082000Y-89101000D01*
X148082000Y-89121000D01*
%TA.AperFunction,Conductor*%
D28*
G36*
X148082000Y-89121000D02*
G01*
X148102000Y-89121000D01*
X148102000Y-89375000D01*
X148082000Y-89375000D01*
X148082000Y-89395000D01*
X147828000Y-89395000D01*
X147828000Y-89375000D01*
X147808000Y-89375000D01*
X147808000Y-89121000D01*
X147828000Y-89121000D01*
X147828000Y-89101000D01*
X148082000Y-89101000D01*
X148082000Y-89121000D01*
G37*
%TD.AperFunction*%
D27*
X160147000Y-85965000D02*
X160167000Y-85965000D01*
X160167000Y-86219000D01*
X160147000Y-86219000D01*
X160147000Y-86239000D01*
X159893000Y-86239000D01*
X159893000Y-86219000D01*
X159873000Y-86219000D01*
X159873000Y-85965000D01*
X159893000Y-85965000D01*
X159893000Y-85945000D01*
X160147000Y-85945000D01*
X160147000Y-85965000D01*
%TA.AperFunction,Conductor*%
D28*
G36*
X160147000Y-85965000D02*
G01*
X160167000Y-85965000D01*
X160167000Y-86219000D01*
X160147000Y-86219000D01*
X160147000Y-86239000D01*
X159893000Y-86239000D01*
X159893000Y-86219000D01*
X159873000Y-86219000D01*
X159873000Y-85965000D01*
X159893000Y-85965000D01*
X159893000Y-85945000D01*
X160147000Y-85945000D01*
X160147000Y-85965000D01*
G37*
%TD.AperFunction*%
D27*
X133389000Y-70707250D02*
X133547750Y-70866000D01*
X134747000Y-70866000D01*
X134747000Y-70846000D01*
X135001000Y-70846000D01*
X135001000Y-70866000D01*
X135021000Y-70866000D01*
X135021000Y-71120000D01*
X135001000Y-71120000D01*
X135001000Y-72319250D01*
X135159750Y-72478000D01*
X135724000Y-72481072D01*
X135848482Y-72468812D01*
X135968180Y-72432502D01*
X136078494Y-72373537D01*
X136175185Y-72294185D01*
X136254537Y-72197494D01*
X136313502Y-72087180D01*
X136335513Y-72014620D01*
X136467368Y-72146475D01*
X136710589Y-72308990D01*
X136980842Y-72420932D01*
X137267740Y-72478000D01*
X137560260Y-72478000D01*
X137632960Y-72463539D01*
X138397943Y-73228522D01*
X138397948Y-73228526D01*
X138765509Y-73596088D01*
X138761733Y-73600689D01*
X138267669Y-74094753D01*
X138233896Y-74122470D01*
X138123302Y-74257229D01*
X138041124Y-74410975D01*
X138014849Y-74497592D01*
X138003184Y-74536046D01*
X137990518Y-74577798D01*
X137977713Y-74707811D01*
X137977713Y-74707818D01*
X137973432Y-74751287D01*
X137977713Y-74794756D01*
X137977713Y-76044683D01*
X137970209Y-76038524D01*
X137818834Y-75957613D01*
X137654583Y-75907788D01*
X137483767Y-75890964D01*
X137008767Y-75890964D01*
X136837951Y-75907788D01*
X136673700Y-75957613D01*
X136522325Y-76038524D01*
X136459688Y-76089929D01*
X136353763Y-76002999D01*
X136202388Y-75922088D01*
X136038137Y-75872263D01*
X135867321Y-75855439D01*
X135392321Y-75855439D01*
X135221505Y-75872263D01*
X135057254Y-75922088D01*
X134905879Y-76002999D01*
X134799954Y-76089929D01*
X134737317Y-76038524D01*
X134585942Y-75957613D01*
X134421691Y-75907788D01*
X134250875Y-75890964D01*
X133775875Y-75890964D01*
X133605059Y-75907788D01*
X133440808Y-75957613D01*
X133289433Y-76038524D01*
X133226796Y-76089929D01*
X133120871Y-76002999D01*
X132969496Y-75922088D01*
X132805245Y-75872263D01*
X132634429Y-75855439D01*
X132159429Y-75855439D01*
X131988613Y-75872263D01*
X131824362Y-75922088D01*
X131672987Y-76002999D01*
X131540306Y-76111888D01*
X131512302Y-76146011D01*
X127739569Y-76146011D01*
X127680990Y-76004589D01*
X127657210Y-75969000D01*
X130136447Y-75969000D01*
X130175000Y-75972797D01*
X130213553Y-75969000D01*
X130213561Y-75969000D01*
X130328887Y-75957641D01*
X130476860Y-75912754D01*
X130613233Y-75839862D01*
X130732764Y-75741764D01*
X130757347Y-75711810D01*
X131337810Y-75131347D01*
X131367764Y-75106764D01*
X131465862Y-74987233D01*
X131538754Y-74850860D01*
X131546735Y-74824550D01*
X131583642Y-74702887D01*
X131594084Y-74596859D01*
X131595000Y-74587561D01*
X131595000Y-74587556D01*
X131598797Y-74549000D01*
X131595000Y-74510444D01*
X131595000Y-72461157D01*
X132213157Y-71843000D01*
X133385928Y-71843000D01*
X133398188Y-71967482D01*
X133434498Y-72087180D01*
X133493463Y-72197494D01*
X133572815Y-72294185D01*
X133669506Y-72373537D01*
X133779820Y-72432502D01*
X133899518Y-72468812D01*
X134024000Y-72481072D01*
X134588250Y-72478000D01*
X134747000Y-72319250D01*
X134747000Y-71120000D01*
X133547750Y-71120000D01*
X133389000Y-71278750D01*
X133385928Y-71843000D01*
X132213157Y-71843000D01*
X133388783Y-70667375D01*
X133389000Y-70707250D01*
%TA.AperFunction,Conductor*%
D28*
G36*
X133389000Y-70707250D02*
G01*
X133547750Y-70866000D01*
X134747000Y-70866000D01*
X134747000Y-70846000D01*
X135001000Y-70846000D01*
X135001000Y-70866000D01*
X135021000Y-70866000D01*
X135021000Y-71120000D01*
X135001000Y-71120000D01*
X135001000Y-72319250D01*
X135159750Y-72478000D01*
X135724000Y-72481072D01*
X135848482Y-72468812D01*
X135968180Y-72432502D01*
X136078494Y-72373537D01*
X136175185Y-72294185D01*
X136254537Y-72197494D01*
X136313502Y-72087180D01*
X136335513Y-72014620D01*
X136467368Y-72146475D01*
X136710589Y-72308990D01*
X136980842Y-72420932D01*
X137267740Y-72478000D01*
X137560260Y-72478000D01*
X137632960Y-72463539D01*
X138397943Y-73228522D01*
X138397948Y-73228526D01*
X138765509Y-73596088D01*
X138761733Y-73600689D01*
X138267669Y-74094753D01*
X138233896Y-74122470D01*
X138123302Y-74257229D01*
X138041124Y-74410975D01*
X138014849Y-74497592D01*
X138003184Y-74536046D01*
X137990518Y-74577798D01*
X137977713Y-74707811D01*
X137977713Y-74707818D01*
X137973432Y-74751287D01*
X137977713Y-74794756D01*
X137977713Y-76044683D01*
X137970209Y-76038524D01*
X137818834Y-75957613D01*
X137654583Y-75907788D01*
X137483767Y-75890964D01*
X137008767Y-75890964D01*
X136837951Y-75907788D01*
X136673700Y-75957613D01*
X136522325Y-76038524D01*
X136459688Y-76089929D01*
X136353763Y-76002999D01*
X136202388Y-75922088D01*
X136038137Y-75872263D01*
X135867321Y-75855439D01*
X135392321Y-75855439D01*
X135221505Y-75872263D01*
X135057254Y-75922088D01*
X134905879Y-76002999D01*
X134799954Y-76089929D01*
X134737317Y-76038524D01*
X134585942Y-75957613D01*
X134421691Y-75907788D01*
X134250875Y-75890964D01*
X133775875Y-75890964D01*
X133605059Y-75907788D01*
X133440808Y-75957613D01*
X133289433Y-76038524D01*
X133226796Y-76089929D01*
X133120871Y-76002999D01*
X132969496Y-75922088D01*
X132805245Y-75872263D01*
X132634429Y-75855439D01*
X132159429Y-75855439D01*
X131988613Y-75872263D01*
X131824362Y-75922088D01*
X131672987Y-76002999D01*
X131540306Y-76111888D01*
X131512302Y-76146011D01*
X127739569Y-76146011D01*
X127680990Y-76004589D01*
X127657210Y-75969000D01*
X130136447Y-75969000D01*
X130175000Y-75972797D01*
X130213553Y-75969000D01*
X130213561Y-75969000D01*
X130328887Y-75957641D01*
X130476860Y-75912754D01*
X130613233Y-75839862D01*
X130732764Y-75741764D01*
X130757347Y-75711810D01*
X131337810Y-75131347D01*
X131367764Y-75106764D01*
X131465862Y-74987233D01*
X131538754Y-74850860D01*
X131546735Y-74824550D01*
X131583642Y-74702887D01*
X131594084Y-74596859D01*
X131595000Y-74587561D01*
X131595000Y-74587556D01*
X131598797Y-74549000D01*
X131595000Y-74510444D01*
X131595000Y-72461157D01*
X132213157Y-71843000D01*
X133385928Y-71843000D01*
X133398188Y-71967482D01*
X133434498Y-72087180D01*
X133493463Y-72197494D01*
X133572815Y-72294185D01*
X133669506Y-72373537D01*
X133779820Y-72432502D01*
X133899518Y-72468812D01*
X134024000Y-72481072D01*
X134588250Y-72478000D01*
X134747000Y-72319250D01*
X134747000Y-71120000D01*
X133547750Y-71120000D01*
X133389000Y-71278750D01*
X133385928Y-71843000D01*
X132213157Y-71843000D01*
X133388783Y-70667375D01*
X133389000Y-70707250D01*
G37*
%TD.AperFunction*%
D27*
X139743377Y-67150623D02*
X139876058Y-67259512D01*
X140027433Y-67340423D01*
X140191684Y-67390248D01*
X140362500Y-67407072D01*
X140450494Y-67407072D01*
X142551421Y-69508000D01*
X142347740Y-69508000D01*
X142060842Y-69565068D01*
X141790589Y-69677010D01*
X141547368Y-69839525D01*
X141340525Y-70046368D01*
X141224000Y-70220760D01*
X141107475Y-70046368D01*
X140900632Y-69839525D01*
X140657411Y-69677010D01*
X140387158Y-69565068D01*
X140100260Y-69508000D01*
X139807740Y-69508000D01*
X139520842Y-69565068D01*
X139250589Y-69677010D01*
X139007368Y-69839525D01*
X138800525Y-70046368D01*
X138684000Y-70220760D01*
X138567475Y-70046368D01*
X138360632Y-69839525D01*
X138117411Y-69677010D01*
X137847158Y-69565068D01*
X137560260Y-69508000D01*
X137267740Y-69508000D01*
X136980842Y-69565068D01*
X136710589Y-69677010D01*
X136467368Y-69839525D01*
X136335513Y-69971380D01*
X136313502Y-69898820D01*
X136254537Y-69788506D01*
X136175185Y-69691815D01*
X136078494Y-69612463D01*
X135968180Y-69553498D01*
X135848482Y-69517188D01*
X135812512Y-69513645D01*
X137687810Y-67638347D01*
X137717764Y-67613764D01*
X137815862Y-67494233D01*
X137888754Y-67357860D01*
X137933642Y-67209887D01*
X137937900Y-67166646D01*
X138051058Y-67259512D01*
X138202433Y-67340423D01*
X138366684Y-67390248D01*
X138537500Y-67407072D01*
X139037500Y-67407072D01*
X139208316Y-67390248D01*
X139372567Y-67340423D01*
X139523942Y-67259512D01*
X139656623Y-67150623D01*
X139700000Y-67097768D01*
X139743377Y-67150623D01*
%TA.AperFunction,Conductor*%
D28*
G36*
X139743377Y-67150623D02*
G01*
X139876058Y-67259512D01*
X140027433Y-67340423D01*
X140191684Y-67390248D01*
X140362500Y-67407072D01*
X140450494Y-67407072D01*
X142551421Y-69508000D01*
X142347740Y-69508000D01*
X142060842Y-69565068D01*
X141790589Y-69677010D01*
X141547368Y-69839525D01*
X141340525Y-70046368D01*
X141224000Y-70220760D01*
X141107475Y-70046368D01*
X140900632Y-69839525D01*
X140657411Y-69677010D01*
X140387158Y-69565068D01*
X140100260Y-69508000D01*
X139807740Y-69508000D01*
X139520842Y-69565068D01*
X139250589Y-69677010D01*
X139007368Y-69839525D01*
X138800525Y-70046368D01*
X138684000Y-70220760D01*
X138567475Y-70046368D01*
X138360632Y-69839525D01*
X138117411Y-69677010D01*
X137847158Y-69565068D01*
X137560260Y-69508000D01*
X137267740Y-69508000D01*
X136980842Y-69565068D01*
X136710589Y-69677010D01*
X136467368Y-69839525D01*
X136335513Y-69971380D01*
X136313502Y-69898820D01*
X136254537Y-69788506D01*
X136175185Y-69691815D01*
X136078494Y-69612463D01*
X135968180Y-69553498D01*
X135848482Y-69517188D01*
X135812512Y-69513645D01*
X137687810Y-67638347D01*
X137717764Y-67613764D01*
X137815862Y-67494233D01*
X137888754Y-67357860D01*
X137933642Y-67209887D01*
X137937900Y-67166646D01*
X138051058Y-67259512D01*
X138202433Y-67340423D01*
X138366684Y-67390248D01*
X138537500Y-67407072D01*
X139037500Y-67407072D01*
X139208316Y-67390248D01*
X139372567Y-67340423D01*
X139523942Y-67259512D01*
X139656623Y-67150623D01*
X139700000Y-67097768D01*
X139743377Y-67150623D01*
G37*
%TD.AperFunction*%
%TD*%
M02*
