%TF.GenerationSoftware,KiCad,Pcbnew,(5.1.8-0-10_14)*%
%TF.CreationDate,2021-03-06T23:03:25+08:00*%
%TF.ProjectId,batt_board,62617474-5f62-46f6-9172-642e6b696361,v1.0.0*%
%TF.SameCoordinates,Original*%
%TF.FileFunction,Legend,Top*%
%TF.FilePolarity,Positive*%
%FSLAX46Y46*%
G04 Gerber Fmt 4.6, Leading zero omitted, Abs format (unit mm)*
G04 Created by KiCad (PCBNEW (5.1.8-0-10_14)) date 2021-03-06 23:03:25*
%MOMM*%
%LPD*%
G01*
G04 APERTURE LIST*
%ADD10C,0.150000*%
%ADD11C,0.300000*%
%ADD12C,0.010000*%
%ADD13C,0.120000*%
G04 APERTURE END LIST*
D10*
X143323714Y-101637380D02*
X143323714Y-100637380D01*
X143561809Y-100637380D01*
X143704666Y-100685000D01*
X143799904Y-100780238D01*
X143847523Y-100875476D01*
X143895142Y-101065952D01*
X143895142Y-101208809D01*
X143847523Y-101399285D01*
X143799904Y-101494523D01*
X143704666Y-101589761D01*
X143561809Y-101637380D01*
X143323714Y-101637380D01*
X144704666Y-101589761D02*
X144609428Y-101637380D01*
X144418952Y-101637380D01*
X144323714Y-101589761D01*
X144276095Y-101494523D01*
X144276095Y-101113571D01*
X144323714Y-101018333D01*
X144418952Y-100970714D01*
X144609428Y-100970714D01*
X144704666Y-101018333D01*
X144752285Y-101113571D01*
X144752285Y-101208809D01*
X144276095Y-101304047D01*
X145133238Y-101589761D02*
X145228476Y-101637380D01*
X145418952Y-101637380D01*
X145514190Y-101589761D01*
X145561809Y-101494523D01*
X145561809Y-101446904D01*
X145514190Y-101351666D01*
X145418952Y-101304047D01*
X145276095Y-101304047D01*
X145180857Y-101256428D01*
X145133238Y-101161190D01*
X145133238Y-101113571D01*
X145180857Y-101018333D01*
X145276095Y-100970714D01*
X145418952Y-100970714D01*
X145514190Y-101018333D01*
X145990380Y-101637380D02*
X145990380Y-100970714D01*
X145990380Y-100637380D02*
X145942761Y-100685000D01*
X145990380Y-100732619D01*
X146038000Y-100685000D01*
X145990380Y-100637380D01*
X145990380Y-100732619D01*
X146895142Y-100970714D02*
X146895142Y-101780238D01*
X146847523Y-101875476D01*
X146799904Y-101923095D01*
X146704666Y-101970714D01*
X146561809Y-101970714D01*
X146466571Y-101923095D01*
X146895142Y-101589761D02*
X146799904Y-101637380D01*
X146609428Y-101637380D01*
X146514190Y-101589761D01*
X146466571Y-101542142D01*
X146418952Y-101446904D01*
X146418952Y-101161190D01*
X146466571Y-101065952D01*
X146514190Y-101018333D01*
X146609428Y-100970714D01*
X146799904Y-100970714D01*
X146895142Y-101018333D01*
X147371333Y-100970714D02*
X147371333Y-101637380D01*
X147371333Y-101065952D02*
X147418952Y-101018333D01*
X147514190Y-100970714D01*
X147657047Y-100970714D01*
X147752285Y-101018333D01*
X147799904Y-101113571D01*
X147799904Y-101637380D01*
X148657047Y-101589761D02*
X148561809Y-101637380D01*
X148371333Y-101637380D01*
X148276095Y-101589761D01*
X148228476Y-101494523D01*
X148228476Y-101113571D01*
X148276095Y-101018333D01*
X148371333Y-100970714D01*
X148561809Y-100970714D01*
X148657047Y-101018333D01*
X148704666Y-101113571D01*
X148704666Y-101208809D01*
X148228476Y-101304047D01*
X149561809Y-101637380D02*
X149561809Y-100637380D01*
X149561809Y-101589761D02*
X149466571Y-101637380D01*
X149276095Y-101637380D01*
X149180857Y-101589761D01*
X149133238Y-101542142D01*
X149085619Y-101446904D01*
X149085619Y-101161190D01*
X149133238Y-101065952D01*
X149180857Y-101018333D01*
X149276095Y-100970714D01*
X149466571Y-100970714D01*
X149561809Y-101018333D01*
X150799904Y-101637380D02*
X150799904Y-100637380D01*
X150799904Y-101018333D02*
X150895142Y-100970714D01*
X151085619Y-100970714D01*
X151180857Y-101018333D01*
X151228476Y-101065952D01*
X151276095Y-101161190D01*
X151276095Y-101446904D01*
X151228476Y-101542142D01*
X151180857Y-101589761D01*
X151085619Y-101637380D01*
X150895142Y-101637380D01*
X150799904Y-101589761D01*
X151609428Y-100970714D02*
X151847523Y-101637380D01*
X152085619Y-100970714D02*
X151847523Y-101637380D01*
X151752285Y-101875476D01*
X151704666Y-101923095D01*
X151609428Y-101970714D01*
X153228476Y-101637380D02*
X153228476Y-100637380D01*
X153561809Y-101351666D01*
X153895142Y-100637380D01*
X153895142Y-101637380D01*
X154514190Y-101637380D02*
X154418952Y-101589761D01*
X154371333Y-101542142D01*
X154323714Y-101446904D01*
X154323714Y-101161190D01*
X154371333Y-101065952D01*
X154418952Y-101018333D01*
X154514190Y-100970714D01*
X154657047Y-100970714D01*
X154752285Y-101018333D01*
X154799904Y-101065952D01*
X154847523Y-101161190D01*
X154847523Y-101446904D01*
X154799904Y-101542142D01*
X154752285Y-101589761D01*
X154657047Y-101637380D01*
X154514190Y-101637380D01*
X155276095Y-101637380D02*
X155276095Y-100970714D01*
X155276095Y-101161190D02*
X155323714Y-101065952D01*
X155371333Y-101018333D01*
X155466571Y-100970714D01*
X155561809Y-100970714D01*
X155752285Y-100970714D02*
X156133238Y-100970714D01*
X155895142Y-100637380D02*
X155895142Y-101494523D01*
X155942761Y-101589761D01*
X156038000Y-101637380D01*
X156133238Y-101637380D01*
X156371333Y-100970714D02*
X156609428Y-101637380D01*
X156847523Y-100970714D02*
X156609428Y-101637380D01*
X156514190Y-101875476D01*
X156466571Y-101923095D01*
X156371333Y-101970714D01*
X149005142Y-98575714D02*
X149243238Y-99242380D01*
X149481333Y-98575714D01*
X150386095Y-99242380D02*
X149814666Y-99242380D01*
X150100380Y-99242380D02*
X150100380Y-98242380D01*
X150005142Y-98385238D01*
X149909904Y-98480476D01*
X149814666Y-98528095D01*
X150814666Y-99147142D02*
X150862285Y-99194761D01*
X150814666Y-99242380D01*
X150767047Y-99194761D01*
X150814666Y-99147142D01*
X150814666Y-99242380D01*
X151481333Y-98242380D02*
X151576571Y-98242380D01*
X151671809Y-98290000D01*
X151719428Y-98337619D01*
X151767047Y-98432857D01*
X151814666Y-98623333D01*
X151814666Y-98861428D01*
X151767047Y-99051904D01*
X151719428Y-99147142D01*
X151671809Y-99194761D01*
X151576571Y-99242380D01*
X151481333Y-99242380D01*
X151386095Y-99194761D01*
X151338476Y-99147142D01*
X151290857Y-99051904D01*
X151243238Y-98861428D01*
X151243238Y-98623333D01*
X151290857Y-98432857D01*
X151338476Y-98337619D01*
X151386095Y-98290000D01*
X151481333Y-98242380D01*
X152243238Y-99147142D02*
X152290857Y-99194761D01*
X152243238Y-99242380D01*
X152195619Y-99194761D01*
X152243238Y-99147142D01*
X152243238Y-99242380D01*
X152909904Y-98242380D02*
X153005142Y-98242380D01*
X153100380Y-98290000D01*
X153148000Y-98337619D01*
X153195619Y-98432857D01*
X153243238Y-98623333D01*
X153243238Y-98861428D01*
X153195619Y-99051904D01*
X153148000Y-99147142D01*
X153100380Y-99194761D01*
X153005142Y-99242380D01*
X152909904Y-99242380D01*
X152814666Y-99194761D01*
X152767047Y-99147142D01*
X152719428Y-99051904D01*
X152671809Y-98861428D01*
X152671809Y-98623333D01*
X152719428Y-98432857D01*
X152767047Y-98337619D01*
X152814666Y-98290000D01*
X152909904Y-98242380D01*
D11*
X151193571Y-68687142D02*
X152336428Y-68687142D01*
X151765000Y-69258571D02*
X151765000Y-68115714D01*
X179260571Y-31476142D02*
X180403428Y-31476142D01*
X179832000Y-32047571D02*
X179832000Y-30904714D01*
D12*
%TO.C,G\u002A\u002A\u002A*%
G36*
X132221166Y-93689337D02*
G01*
X132247150Y-93694728D01*
X132249333Y-93697260D01*
X132246354Y-93716276D01*
X132237876Y-93764829D01*
X132224591Y-93839163D01*
X132207192Y-93935518D01*
X132186369Y-94050135D01*
X132162814Y-94179258D01*
X132137219Y-94319127D01*
X132110275Y-94465984D01*
X132082674Y-94616072D01*
X132055107Y-94765631D01*
X132028266Y-94910903D01*
X132002843Y-95048130D01*
X131979528Y-95173554D01*
X131959014Y-95283416D01*
X131941993Y-95373959D01*
X131929154Y-95441423D01*
X131921192Y-95482051D01*
X131919213Y-95491300D01*
X131916287Y-95509225D01*
X131922086Y-95520407D01*
X131942682Y-95526436D01*
X131984147Y-95528903D01*
X132052552Y-95529398D01*
X132064695Y-95529400D01*
X132219369Y-95529400D01*
X132207785Y-95618300D01*
X132198754Y-95678469D01*
X132185425Y-95756588D01*
X132170414Y-95837453D01*
X132167734Y-95851133D01*
X132139267Y-95995067D01*
X131983904Y-95999918D01*
X131828541Y-96004770D01*
X131811955Y-96084585D01*
X131803674Y-96126832D01*
X131790799Y-96195451D01*
X131774613Y-96283464D01*
X131756402Y-96383891D01*
X131738845Y-96481900D01*
X131682321Y-96799400D01*
X131390094Y-96799400D01*
X131294873Y-96798576D01*
X131212635Y-96796291D01*
X131148835Y-96792826D01*
X131108931Y-96788462D01*
X131097867Y-96784373D01*
X131100852Y-96763976D01*
X131109207Y-96715344D01*
X131122025Y-96643525D01*
X131138402Y-96553564D01*
X131157433Y-96450508D01*
X131165426Y-96407606D01*
X131185293Y-96300330D01*
X131202865Y-96203731D01*
X131217230Y-96122965D01*
X131227475Y-96063191D01*
X131232687Y-96029564D01*
X131233159Y-96024700D01*
X131226324Y-96019206D01*
X131204035Y-96014683D01*
X131163765Y-96011052D01*
X131102988Y-96008236D01*
X131019175Y-96006156D01*
X130909800Y-96004734D01*
X130772335Y-96003892D01*
X130604254Y-96003550D01*
X130550355Y-96003533D01*
X130401590Y-96003328D01*
X130263575Y-96002742D01*
X130139941Y-96001821D01*
X130034318Y-96000609D01*
X129950333Y-95999151D01*
X129891618Y-95997492D01*
X129861801Y-95995678D01*
X129858823Y-95994978D01*
X129858137Y-95975762D01*
X129863180Y-95930892D01*
X129872973Y-95867913D01*
X129881315Y-95821411D01*
X129912363Y-95656400D01*
X130018281Y-95555793D01*
X130045976Y-95529400D01*
X130700612Y-95529400D01*
X131327135Y-95529400D01*
X131383260Y-95220367D01*
X131401753Y-95118616D01*
X131418748Y-95025242D01*
X131433083Y-94946623D01*
X131443594Y-94889136D01*
X131448863Y-94860533D01*
X131451541Y-94846443D01*
X131452368Y-94836226D01*
X131449149Y-94831768D01*
X131439688Y-94834953D01*
X131421790Y-94847667D01*
X131393262Y-94871796D01*
X131351908Y-94909225D01*
X131295533Y-94961840D01*
X131221942Y-95031527D01*
X131128941Y-95120170D01*
X131014335Y-95229655D01*
X130971206Y-95270865D01*
X130700612Y-95529400D01*
X130045976Y-95529400D01*
X130047708Y-95527750D01*
X130099409Y-95478378D01*
X130171195Y-95409768D01*
X130260881Y-95324013D01*
X130366277Y-95223207D01*
X130485196Y-95109440D01*
X130615451Y-94984807D01*
X130754855Y-94851398D01*
X130901220Y-94711308D01*
X131045013Y-94573660D01*
X131965825Y-93692133D01*
X132107579Y-93687241D01*
X132172037Y-93686657D01*
X132221166Y-93689337D01*
G37*
X132221166Y-93689337D02*
X132247150Y-93694728D01*
X132249333Y-93697260D01*
X132246354Y-93716276D01*
X132237876Y-93764829D01*
X132224591Y-93839163D01*
X132207192Y-93935518D01*
X132186369Y-94050135D01*
X132162814Y-94179258D01*
X132137219Y-94319127D01*
X132110275Y-94465984D01*
X132082674Y-94616072D01*
X132055107Y-94765631D01*
X132028266Y-94910903D01*
X132002843Y-95048130D01*
X131979528Y-95173554D01*
X131959014Y-95283416D01*
X131941993Y-95373959D01*
X131929154Y-95441423D01*
X131921192Y-95482051D01*
X131919213Y-95491300D01*
X131916287Y-95509225D01*
X131922086Y-95520407D01*
X131942682Y-95526436D01*
X131984147Y-95528903D01*
X132052552Y-95529398D01*
X132064695Y-95529400D01*
X132219369Y-95529400D01*
X132207785Y-95618300D01*
X132198754Y-95678469D01*
X132185425Y-95756588D01*
X132170414Y-95837453D01*
X132167734Y-95851133D01*
X132139267Y-95995067D01*
X131983904Y-95999918D01*
X131828541Y-96004770D01*
X131811955Y-96084585D01*
X131803674Y-96126832D01*
X131790799Y-96195451D01*
X131774613Y-96283464D01*
X131756402Y-96383891D01*
X131738845Y-96481900D01*
X131682321Y-96799400D01*
X131390094Y-96799400D01*
X131294873Y-96798576D01*
X131212635Y-96796291D01*
X131148835Y-96792826D01*
X131108931Y-96788462D01*
X131097867Y-96784373D01*
X131100852Y-96763976D01*
X131109207Y-96715344D01*
X131122025Y-96643525D01*
X131138402Y-96553564D01*
X131157433Y-96450508D01*
X131165426Y-96407606D01*
X131185293Y-96300330D01*
X131202865Y-96203731D01*
X131217230Y-96122965D01*
X131227475Y-96063191D01*
X131232687Y-96029564D01*
X131233159Y-96024700D01*
X131226324Y-96019206D01*
X131204035Y-96014683D01*
X131163765Y-96011052D01*
X131102988Y-96008236D01*
X131019175Y-96006156D01*
X130909800Y-96004734D01*
X130772335Y-96003892D01*
X130604254Y-96003550D01*
X130550355Y-96003533D01*
X130401590Y-96003328D01*
X130263575Y-96002742D01*
X130139941Y-96001821D01*
X130034318Y-96000609D01*
X129950333Y-95999151D01*
X129891618Y-95997492D01*
X129861801Y-95995678D01*
X129858823Y-95994978D01*
X129858137Y-95975762D01*
X129863180Y-95930892D01*
X129872973Y-95867913D01*
X129881315Y-95821411D01*
X129912363Y-95656400D01*
X130018281Y-95555793D01*
X130045976Y-95529400D01*
X130700612Y-95529400D01*
X131327135Y-95529400D01*
X131383260Y-95220367D01*
X131401753Y-95118616D01*
X131418748Y-95025242D01*
X131433083Y-94946623D01*
X131443594Y-94889136D01*
X131448863Y-94860533D01*
X131451541Y-94846443D01*
X131452368Y-94836226D01*
X131449149Y-94831768D01*
X131439688Y-94834953D01*
X131421790Y-94847667D01*
X131393262Y-94871796D01*
X131351908Y-94909225D01*
X131295533Y-94961840D01*
X131221942Y-95031527D01*
X131128941Y-95120170D01*
X131014335Y-95229655D01*
X130971206Y-95270865D01*
X130700612Y-95529400D01*
X130045976Y-95529400D01*
X130047708Y-95527750D01*
X130099409Y-95478378D01*
X130171195Y-95409768D01*
X130260881Y-95324013D01*
X130366277Y-95223207D01*
X130485196Y-95109440D01*
X130615451Y-94984807D01*
X130754855Y-94851398D01*
X130901220Y-94711308D01*
X131045013Y-94573660D01*
X131965825Y-93692133D01*
X132107579Y-93687241D01*
X132172037Y-93686657D01*
X132221166Y-93689337D01*
G36*
X127141214Y-93689340D02*
G01*
X127167164Y-93694735D01*
X127169333Y-93697260D01*
X127166354Y-93716276D01*
X127157876Y-93764829D01*
X127144591Y-93839163D01*
X127127192Y-93935518D01*
X127106369Y-94050135D01*
X127082814Y-94179258D01*
X127057219Y-94319127D01*
X127030275Y-94465984D01*
X127002674Y-94616072D01*
X126975107Y-94765631D01*
X126948266Y-94910903D01*
X126922843Y-95048130D01*
X126899528Y-95173554D01*
X126879014Y-95283416D01*
X126861993Y-95373959D01*
X126849154Y-95441423D01*
X126841192Y-95482051D01*
X126839213Y-95491300D01*
X126836287Y-95509225D01*
X126842086Y-95520407D01*
X126862682Y-95526436D01*
X126904147Y-95528903D01*
X126972552Y-95529398D01*
X126984695Y-95529400D01*
X127139369Y-95529400D01*
X127127785Y-95618300D01*
X127118754Y-95678469D01*
X127105425Y-95756588D01*
X127090414Y-95837453D01*
X127087734Y-95851133D01*
X127059267Y-95995067D01*
X126903904Y-95999918D01*
X126748541Y-96004770D01*
X126731955Y-96084585D01*
X126723674Y-96126832D01*
X126710799Y-96195451D01*
X126694613Y-96283464D01*
X126676402Y-96383891D01*
X126658845Y-96481900D01*
X126602321Y-96799400D01*
X126310094Y-96799400D01*
X126214873Y-96798576D01*
X126132635Y-96796291D01*
X126068835Y-96792826D01*
X126028931Y-96788462D01*
X126017866Y-96784373D01*
X126020852Y-96763976D01*
X126029207Y-96715344D01*
X126042025Y-96643525D01*
X126058402Y-96553564D01*
X126077433Y-96450508D01*
X126085426Y-96407606D01*
X126105293Y-96300330D01*
X126122865Y-96203731D01*
X126137230Y-96122965D01*
X126147475Y-96063191D01*
X126152687Y-96029564D01*
X126153159Y-96024700D01*
X126146328Y-96019216D01*
X126124055Y-96014700D01*
X126083818Y-96011073D01*
X126023094Y-96008257D01*
X125939360Y-96006175D01*
X125830094Y-96004749D01*
X125692774Y-96003900D01*
X125524877Y-96003552D01*
X125467533Y-96003533D01*
X124781733Y-96003533D01*
X124781736Y-95965433D01*
X124784759Y-95931086D01*
X124792762Y-95874508D01*
X124804155Y-95806692D01*
X124806864Y-95791867D01*
X124820545Y-95723406D01*
X124834978Y-95676599D01*
X124856542Y-95639701D01*
X124891617Y-95600969D01*
X124931035Y-95563267D01*
X124959240Y-95536530D01*
X124966724Y-95529400D01*
X125621682Y-95529400D01*
X126247135Y-95529400D01*
X126303260Y-95220367D01*
X126321753Y-95118616D01*
X126338748Y-95025242D01*
X126353083Y-94946623D01*
X126363594Y-94889136D01*
X126368863Y-94860533D01*
X126371485Y-94846405D01*
X126372098Y-94836319D01*
X126368510Y-94832162D01*
X126358529Y-94835818D01*
X126339962Y-94849173D01*
X126310616Y-94874113D01*
X126268300Y-94912522D01*
X126210821Y-94966288D01*
X126135986Y-95037294D01*
X126041604Y-95127427D01*
X125925481Y-95238572D01*
X125891741Y-95270873D01*
X125621682Y-95529400D01*
X124966724Y-95529400D01*
X125009740Y-95488420D01*
X125080379Y-95420999D01*
X125169003Y-95336327D01*
X125273455Y-95236466D01*
X125391581Y-95123477D01*
X125521225Y-94999420D01*
X125660233Y-94866358D01*
X125806448Y-94726351D01*
X125957715Y-94581459D01*
X125958056Y-94581133D01*
X126886030Y-93692133D01*
X127027681Y-93687241D01*
X127092114Y-93686658D01*
X127141214Y-93689340D01*
G37*
X127141214Y-93689340D02*
X127167164Y-93694735D01*
X127169333Y-93697260D01*
X127166354Y-93716276D01*
X127157876Y-93764829D01*
X127144591Y-93839163D01*
X127127192Y-93935518D01*
X127106369Y-94050135D01*
X127082814Y-94179258D01*
X127057219Y-94319127D01*
X127030275Y-94465984D01*
X127002674Y-94616072D01*
X126975107Y-94765631D01*
X126948266Y-94910903D01*
X126922843Y-95048130D01*
X126899528Y-95173554D01*
X126879014Y-95283416D01*
X126861993Y-95373959D01*
X126849154Y-95441423D01*
X126841192Y-95482051D01*
X126839213Y-95491300D01*
X126836287Y-95509225D01*
X126842086Y-95520407D01*
X126862682Y-95526436D01*
X126904147Y-95528903D01*
X126972552Y-95529398D01*
X126984695Y-95529400D01*
X127139369Y-95529400D01*
X127127785Y-95618300D01*
X127118754Y-95678469D01*
X127105425Y-95756588D01*
X127090414Y-95837453D01*
X127087734Y-95851133D01*
X127059267Y-95995067D01*
X126903904Y-95999918D01*
X126748541Y-96004770D01*
X126731955Y-96084585D01*
X126723674Y-96126832D01*
X126710799Y-96195451D01*
X126694613Y-96283464D01*
X126676402Y-96383891D01*
X126658845Y-96481900D01*
X126602321Y-96799400D01*
X126310094Y-96799400D01*
X126214873Y-96798576D01*
X126132635Y-96796291D01*
X126068835Y-96792826D01*
X126028931Y-96788462D01*
X126017866Y-96784373D01*
X126020852Y-96763976D01*
X126029207Y-96715344D01*
X126042025Y-96643525D01*
X126058402Y-96553564D01*
X126077433Y-96450508D01*
X126085426Y-96407606D01*
X126105293Y-96300330D01*
X126122865Y-96203731D01*
X126137230Y-96122965D01*
X126147475Y-96063191D01*
X126152687Y-96029564D01*
X126153159Y-96024700D01*
X126146328Y-96019216D01*
X126124055Y-96014700D01*
X126083818Y-96011073D01*
X126023094Y-96008257D01*
X125939360Y-96006175D01*
X125830094Y-96004749D01*
X125692774Y-96003900D01*
X125524877Y-96003552D01*
X125467533Y-96003533D01*
X124781733Y-96003533D01*
X124781736Y-95965433D01*
X124784759Y-95931086D01*
X124792762Y-95874508D01*
X124804155Y-95806692D01*
X124806864Y-95791867D01*
X124820545Y-95723406D01*
X124834978Y-95676599D01*
X124856542Y-95639701D01*
X124891617Y-95600969D01*
X124931035Y-95563267D01*
X124959240Y-95536530D01*
X124966724Y-95529400D01*
X125621682Y-95529400D01*
X126247135Y-95529400D01*
X126303260Y-95220367D01*
X126321753Y-95118616D01*
X126338748Y-95025242D01*
X126353083Y-94946623D01*
X126363594Y-94889136D01*
X126368863Y-94860533D01*
X126371485Y-94846405D01*
X126372098Y-94836319D01*
X126368510Y-94832162D01*
X126358529Y-94835818D01*
X126339962Y-94849173D01*
X126310616Y-94874113D01*
X126268300Y-94912522D01*
X126210821Y-94966288D01*
X126135986Y-95037294D01*
X126041604Y-95127427D01*
X125925481Y-95238572D01*
X125891741Y-95270873D01*
X125621682Y-95529400D01*
X124966724Y-95529400D01*
X125009740Y-95488420D01*
X125080379Y-95420999D01*
X125169003Y-95336327D01*
X125273455Y-95236466D01*
X125391581Y-95123477D01*
X125521225Y-94999420D01*
X125660233Y-94866358D01*
X125806448Y-94726351D01*
X125957715Y-94581459D01*
X125958056Y-94581133D01*
X126886030Y-93692133D01*
X127027681Y-93687241D01*
X127092114Y-93686658D01*
X127141214Y-93689340D01*
G36*
X130700042Y-92050678D02*
G01*
X130742060Y-92087050D01*
X130766102Y-92125043D01*
X130776036Y-92164437D01*
X130770472Y-92210186D01*
X130748023Y-92267247D01*
X130707299Y-92340575D01*
X130646913Y-92435126D01*
X130642789Y-92441349D01*
X130586333Y-92526966D01*
X130518474Y-92630734D01*
X130445994Y-92742233D01*
X130375676Y-92851044D01*
X130341171Y-92904733D01*
X130284037Y-92993808D01*
X130213431Y-93103821D01*
X130134197Y-93227226D01*
X130051183Y-93356477D01*
X129969234Y-93484027D01*
X129915726Y-93567283D01*
X129658554Y-93967366D01*
X129700873Y-94063056D01*
X129742034Y-94185381D01*
X129770664Y-94334120D01*
X129787078Y-94504352D01*
X129791591Y-94691155D01*
X129784517Y-94889609D01*
X129766170Y-95094791D01*
X129736867Y-95301779D01*
X129696921Y-95505654D01*
X129646646Y-95701492D01*
X129586359Y-95884372D01*
X129584012Y-95890635D01*
X129487134Y-96112204D01*
X129374420Y-96303897D01*
X129245621Y-96465906D01*
X129100483Y-96598424D01*
X128938756Y-96701644D01*
X128760187Y-96775758D01*
X128564525Y-96820958D01*
X128351519Y-96837437D01*
X128346200Y-96837481D01*
X128253079Y-96837180D01*
X128183144Y-96833876D01*
X128125753Y-96826165D01*
X128070265Y-96812641D01*
X128009141Y-96792965D01*
X127946470Y-96773462D01*
X127896226Y-96761514D01*
X127866659Y-96758950D01*
X127862786Y-96760538D01*
X127850860Y-96777579D01*
X127822890Y-96819600D01*
X127781163Y-96883103D01*
X127727963Y-96964592D01*
X127665578Y-97060568D01*
X127596294Y-97167535D01*
X127555160Y-97231200D01*
X127465142Y-97370622D01*
X127362725Y-97529198D01*
X127253907Y-97697643D01*
X127144685Y-97866677D01*
X127041055Y-98027017D01*
X126953113Y-98163044D01*
X126879412Y-98277323D01*
X126811481Y-98383238D01*
X126751553Y-98477259D01*
X126701862Y-98555858D01*
X126664643Y-98615506D01*
X126642130Y-98652676D01*
X126636368Y-98663294D01*
X126638429Y-98682618D01*
X126646701Y-98732158D01*
X126660594Y-98808970D01*
X126679519Y-98910106D01*
X126702887Y-99032621D01*
X126730108Y-99173568D01*
X126760594Y-99330000D01*
X126793756Y-99498973D01*
X126829003Y-99677539D01*
X126865748Y-99862753D01*
X126903400Y-100051667D01*
X126941370Y-100241337D01*
X126979070Y-100428815D01*
X127015909Y-100611156D01*
X127051300Y-100785413D01*
X127084652Y-100948640D01*
X127115376Y-101097890D01*
X127142884Y-101230219D01*
X127166585Y-101342678D01*
X127185891Y-101432323D01*
X127200213Y-101496207D01*
X127208961Y-101531383D01*
X127211157Y-101537402D01*
X127228705Y-101534277D01*
X127269290Y-101520129D01*
X127325240Y-101498208D01*
X127388881Y-101471762D01*
X127452538Y-101444041D01*
X127508537Y-101418296D01*
X127549206Y-101397776D01*
X127565490Y-101387356D01*
X127570930Y-101368879D01*
X127582069Y-101319650D01*
X127598404Y-101242212D01*
X127619433Y-101139105D01*
X127644652Y-101012873D01*
X127673558Y-100866058D01*
X127705650Y-100701202D01*
X127740424Y-100520846D01*
X127777377Y-100327533D01*
X127798572Y-100215752D01*
X128379042Y-100215752D01*
X128379482Y-100216526D01*
X128407999Y-100227639D01*
X128463127Y-100235253D01*
X128537788Y-100239337D01*
X128624904Y-100239861D01*
X128717397Y-100236795D01*
X128808189Y-100230109D01*
X128890202Y-100219772D01*
X128896533Y-100218726D01*
X129019675Y-100184291D01*
X129138130Y-100126230D01*
X129240280Y-100050772D01*
X129275236Y-100015711D01*
X129338603Y-99932670D01*
X129378997Y-99846250D01*
X129399147Y-99747709D01*
X129401785Y-99628304D01*
X129401081Y-99612697D01*
X129387219Y-99490951D01*
X129357221Y-99395075D01*
X129307716Y-99319565D01*
X129235331Y-99258921D01*
X129158789Y-99217460D01*
X129121414Y-99201743D01*
X129084424Y-99190892D01*
X129040477Y-99184028D01*
X128982235Y-99180272D01*
X128902356Y-99178746D01*
X128833629Y-99178533D01*
X128733439Y-99179243D01*
X128661959Y-99181701D01*
X128614058Y-99186399D01*
X128584601Y-99193830D01*
X128568968Y-99203933D01*
X128560716Y-99225534D01*
X128547957Y-99274933D01*
X128531630Y-99347105D01*
X128512676Y-99437023D01*
X128492036Y-99539664D01*
X128470649Y-99650002D01*
X128449457Y-99763011D01*
X128429399Y-99873667D01*
X128411416Y-99976943D01*
X128396449Y-100067815D01*
X128385437Y-100141258D01*
X128379321Y-100192245D01*
X128379042Y-100215752D01*
X127798572Y-100215752D01*
X127816007Y-100123805D01*
X127828646Y-100056797D01*
X128076646Y-98740334D01*
X128122436Y-98728088D01*
X128153727Y-98723023D01*
X128212438Y-98716491D01*
X128292188Y-98709090D01*
X128386594Y-98701416D01*
X128477717Y-98694845D01*
X128748357Y-98684942D01*
X128991265Y-98693982D01*
X129206912Y-98722151D01*
X129395764Y-98769636D01*
X129558291Y-98836623D01*
X129694959Y-98923299D01*
X129806236Y-99029850D01*
X129892592Y-99156463D01*
X129946797Y-99280133D01*
X129973557Y-99386553D01*
X129989342Y-99512604D01*
X129993555Y-99645680D01*
X129985598Y-99773173D01*
X129973674Y-99846804D01*
X129919067Y-100025598D01*
X129835731Y-100186871D01*
X129724600Y-100329452D01*
X129586603Y-100452168D01*
X129422675Y-100553846D01*
X129404533Y-100562989D01*
X129266163Y-100624653D01*
X129132387Y-100668873D01*
X128993520Y-100697758D01*
X128839874Y-100713417D01*
X128693333Y-100717888D01*
X128597383Y-100717874D01*
X128506035Y-100716731D01*
X128428286Y-100714649D01*
X128373128Y-100711814D01*
X128363819Y-100711000D01*
X128279839Y-100702533D01*
X128250049Y-100863400D01*
X128236083Y-100937584D01*
X128223418Y-101002654D01*
X128213949Y-101048982D01*
X128210941Y-101062367D01*
X128209643Y-101091583D01*
X128217870Y-101100467D01*
X128235134Y-101093894D01*
X128280288Y-101075084D01*
X128350208Y-101045396D01*
X128441766Y-101006191D01*
X128551837Y-100958830D01*
X128677296Y-100904672D01*
X128815015Y-100845079D01*
X128961869Y-100781410D01*
X129114732Y-100715027D01*
X129270478Y-100647289D01*
X129425981Y-100579556D01*
X129578115Y-100513191D01*
X129723754Y-100449552D01*
X129859773Y-100390000D01*
X129983044Y-100335896D01*
X130090443Y-100288600D01*
X130178843Y-100249473D01*
X130245119Y-100219874D01*
X130286143Y-100201165D01*
X130298847Y-100194821D01*
X130302911Y-100177576D01*
X130312323Y-100130500D01*
X130326426Y-100057089D01*
X130344561Y-99960843D01*
X130355305Y-99903111D01*
X130915186Y-99903111D01*
X130915636Y-99909984D01*
X130921231Y-99913264D01*
X130934550Y-99911935D01*
X130958175Y-99904981D01*
X130994686Y-99891386D01*
X131046664Y-99870134D01*
X131116688Y-99840207D01*
X131207339Y-99800591D01*
X131321198Y-99750269D01*
X131460844Y-99688224D01*
X131628802Y-99613467D01*
X131931137Y-99478879D01*
X131871703Y-99413373D01*
X131785793Y-99337281D01*
X131677386Y-99269664D01*
X131557796Y-99217119D01*
X131508237Y-99201485D01*
X131437264Y-99186452D01*
X131354629Y-99176075D01*
X131268604Y-99170545D01*
X131187464Y-99170051D01*
X131119481Y-99174783D01*
X131072931Y-99184930D01*
X131061279Y-99191233D01*
X131047692Y-99216746D01*
X131031235Y-99273924D01*
X131011766Y-99363378D01*
X130989141Y-99485718D01*
X130980836Y-99534133D01*
X130963354Y-99636837D01*
X130947223Y-99730023D01*
X130933489Y-99807769D01*
X130923200Y-99864149D01*
X130917402Y-99893241D01*
X130917301Y-99893661D01*
X130915186Y-99903111D01*
X130355305Y-99903111D01*
X130366073Y-99845260D01*
X130390304Y-99713838D01*
X130416598Y-99570075D01*
X130429748Y-99497775D01*
X130457007Y-99347893D01*
X130482644Y-99207445D01*
X130505975Y-99080138D01*
X130526317Y-98969683D01*
X130542985Y-98879786D01*
X130555296Y-98814157D01*
X130562566Y-98776504D01*
X130563996Y-98769733D01*
X130580562Y-98747005D01*
X130619896Y-98728167D01*
X130684232Y-98712818D01*
X130775801Y-98700558D01*
X130896836Y-98690985D01*
X131040699Y-98684031D01*
X131309261Y-98684924D01*
X131553534Y-98709086D01*
X131773974Y-98756658D01*
X131971035Y-98827784D01*
X132145170Y-98922607D01*
X132296836Y-99041270D01*
X132353205Y-99097462D01*
X132395736Y-99144855D01*
X132430286Y-99186798D01*
X132447404Y-99211100D01*
X132454596Y-99220208D01*
X132466242Y-99224566D01*
X132486024Y-99222912D01*
X132517619Y-99213982D01*
X132564707Y-99196513D01*
X132630967Y-99169242D01*
X132720079Y-99130906D01*
X132835721Y-99080241D01*
X132861143Y-99069052D01*
X132947962Y-99030846D01*
X133061773Y-98980794D01*
X133198554Y-98920664D01*
X133354286Y-98852221D01*
X133524948Y-98777231D01*
X133706522Y-98697462D01*
X133894986Y-98614680D01*
X134086321Y-98530651D01*
X134276506Y-98447141D01*
X134289800Y-98441304D01*
X134476340Y-98359355D01*
X134661651Y-98277855D01*
X134842085Y-98198414D01*
X135013994Y-98122641D01*
X135173730Y-98052146D01*
X135317646Y-97988541D01*
X135442094Y-97933434D01*
X135543425Y-97888435D01*
X135617993Y-97855156D01*
X135627533Y-97850875D01*
X135749904Y-97796914D01*
X135846374Y-97757322D01*
X135921280Y-97731221D01*
X135978961Y-97717734D01*
X136023756Y-97715982D01*
X136060003Y-97725087D01*
X136092041Y-97744172D01*
X136104571Y-97754336D01*
X136138249Y-97792863D01*
X136150863Y-97839635D01*
X136151697Y-97863050D01*
X136149819Y-97899497D01*
X136142038Y-97931098D01*
X136125135Y-97960046D01*
X136095892Y-97988529D01*
X136051088Y-98018739D01*
X135987504Y-98052865D01*
X135901921Y-98093098D01*
X135791120Y-98141628D01*
X135661349Y-98196663D01*
X135604208Y-98220973D01*
X135518902Y-98257634D01*
X135408285Y-98305407D01*
X135275212Y-98363050D01*
X135122536Y-98429323D01*
X134953111Y-98502986D01*
X134769793Y-98582797D01*
X134575434Y-98667517D01*
X134372890Y-98755904D01*
X134165014Y-98846719D01*
X134035800Y-98903220D01*
X133832710Y-98992031D01*
X133637986Y-99077138D01*
X133453934Y-99157534D01*
X133282861Y-99232214D01*
X133127073Y-99300172D01*
X132988877Y-99360405D01*
X132870578Y-99411905D01*
X132774485Y-99453668D01*
X132702902Y-99484689D01*
X132658136Y-99503962D01*
X132643033Y-99510303D01*
X132617740Y-99526004D01*
X132607254Y-99552813D01*
X132610501Y-99598099D01*
X132622286Y-99652667D01*
X132631602Y-99713842D01*
X132637295Y-99800520D01*
X132639483Y-99904546D01*
X132638280Y-100017764D01*
X132633800Y-100132016D01*
X132626160Y-100239148D01*
X132615474Y-100331001D01*
X132612444Y-100350013D01*
X132554853Y-100596679D01*
X132469757Y-100824512D01*
X132357991Y-101032459D01*
X132220386Y-101219469D01*
X132057776Y-101384488D01*
X131870992Y-101526465D01*
X131660869Y-101644348D01*
X131549887Y-101692896D01*
X131469366Y-101724071D01*
X131395593Y-101749565D01*
X131323817Y-101770013D01*
X131249286Y-101786048D01*
X131167249Y-101798305D01*
X131072953Y-101807418D01*
X130961648Y-101814021D01*
X130828582Y-101818748D01*
X130669003Y-101822233D01*
X130568700Y-101823843D01*
X130416474Y-101825973D01*
X130294745Y-101827306D01*
X130200151Y-101827721D01*
X130129330Y-101827101D01*
X130078920Y-101825327D01*
X130045557Y-101822278D01*
X130025880Y-101817838D01*
X130016526Y-101811886D01*
X130014133Y-101804304D01*
X130014133Y-101804225D01*
X130017102Y-101781634D01*
X130025549Y-101729679D01*
X130038785Y-101652296D01*
X130056120Y-101553420D01*
X130076863Y-101436988D01*
X130098979Y-101314397D01*
X130674533Y-101314397D01*
X130677681Y-101326058D01*
X130690746Y-101333426D01*
X130719164Y-101336986D01*
X130768366Y-101337223D01*
X130843788Y-101334622D01*
X130881966Y-101332921D01*
X131027120Y-101321931D01*
X131144484Y-101303247D01*
X131207933Y-101286764D01*
X131374376Y-101218042D01*
X131528929Y-101120021D01*
X131668606Y-100996082D01*
X131790419Y-100849601D01*
X131891381Y-100683957D01*
X131968505Y-100502528D01*
X132001697Y-100389125D01*
X132019948Y-100302126D01*
X132034789Y-100206881D01*
X132045939Y-100109087D01*
X132053118Y-100014442D01*
X132056044Y-99928642D01*
X132054435Y-99857384D01*
X132048011Y-99806366D01*
X132036491Y-99781285D01*
X132031778Y-99779667D01*
X132011967Y-99786306D01*
X131965516Y-99804981D01*
X131896664Y-99833824D01*
X131809653Y-99870968D01*
X131708724Y-99914546D01*
X131598116Y-99962690D01*
X131482072Y-100013535D01*
X131364831Y-100065212D01*
X131250635Y-100115855D01*
X131143725Y-100163597D01*
X131048340Y-100206571D01*
X130968723Y-100242909D01*
X130909113Y-100270745D01*
X130873752Y-100288212D01*
X130865948Y-100292929D01*
X130859125Y-100312868D01*
X130847517Y-100361135D01*
X130832071Y-100432680D01*
X130813732Y-100522453D01*
X130793447Y-100625404D01*
X130772163Y-100736483D01*
X130750825Y-100850641D01*
X130730380Y-100962826D01*
X130711775Y-101067990D01*
X130695955Y-101161081D01*
X130683867Y-101237051D01*
X130676457Y-101290848D01*
X130674533Y-101314397D01*
X130098979Y-101314397D01*
X130100326Y-101306935D01*
X130124644Y-101173598D01*
X130149829Y-101035428D01*
X130172744Y-100908173D01*
X130192738Y-100795573D01*
X130209159Y-100701369D01*
X130221354Y-100629298D01*
X130228672Y-100583101D01*
X130230478Y-100566529D01*
X130214598Y-100572442D01*
X130170290Y-100590921D01*
X130100110Y-100620856D01*
X130006613Y-100661140D01*
X129892354Y-100710663D01*
X129759888Y-100768317D01*
X129611770Y-100832992D01*
X129450557Y-100903580D01*
X129278803Y-100978973D01*
X129192866Y-101016763D01*
X129016629Y-101094299D01*
X128849496Y-101167815D01*
X128694053Y-101236176D01*
X128552883Y-101298245D01*
X128428570Y-101352888D01*
X128323698Y-101398967D01*
X128240852Y-101435349D01*
X128182615Y-101460896D01*
X128151572Y-101474473D01*
X128147105Y-101476399D01*
X128139005Y-101494210D01*
X128127380Y-101538145D01*
X128114009Y-101600876D01*
X128104772Y-101650843D01*
X128075267Y-101820133D01*
X127784649Y-101824760D01*
X127679337Y-101826301D01*
X127603321Y-101826735D01*
X127552036Y-101825581D01*
X127520916Y-101822361D01*
X127505396Y-101816592D01*
X127500911Y-101807796D01*
X127502896Y-101795491D01*
X127502991Y-101795127D01*
X127506395Y-101767805D01*
X127502562Y-101760867D01*
X127488228Y-101766213D01*
X127449313Y-101782413D01*
X127385270Y-101809702D01*
X127295553Y-101848318D01*
X127179617Y-101898500D01*
X127036915Y-101960485D01*
X126866901Y-102034510D01*
X126669029Y-102120814D01*
X126442754Y-102219633D01*
X126187530Y-102331205D01*
X125902810Y-102455769D01*
X125588049Y-102593561D01*
X125332067Y-102705672D01*
X125045969Y-102831063D01*
X124789475Y-102943638D01*
X124561114Y-103044054D01*
X124359419Y-103132970D01*
X124182922Y-103211044D01*
X124030155Y-103278934D01*
X123899649Y-103337299D01*
X123789936Y-103386796D01*
X123699548Y-103428083D01*
X123627016Y-103461819D01*
X123570873Y-103488662D01*
X123529650Y-103509270D01*
X123501879Y-103524301D01*
X123490930Y-103531004D01*
X123420661Y-103563044D01*
X123349063Y-103571259D01*
X123287299Y-103554423D01*
X123285780Y-103553556D01*
X123248373Y-103514854D01*
X123224373Y-103457623D01*
X123218731Y-103396127D01*
X123222979Y-103372629D01*
X123236686Y-103342298D01*
X123265841Y-103289192D01*
X123307225Y-103218793D01*
X123357615Y-103136581D01*
X123412870Y-103049467D01*
X123435785Y-103013933D01*
X123846387Y-103013933D01*
X123864935Y-103007485D01*
X123909853Y-102989440D01*
X123976473Y-102961748D01*
X124060126Y-102926357D01*
X124156144Y-102885216D01*
X124197527Y-102867344D01*
X124327029Y-102811194D01*
X124471723Y-102748283D01*
X124628919Y-102679795D01*
X124795927Y-102606910D01*
X124970057Y-102530811D01*
X125148618Y-102452680D01*
X125328920Y-102373698D01*
X125508273Y-102295046D01*
X125683986Y-102217908D01*
X125853370Y-102143464D01*
X126013735Y-102072896D01*
X126162389Y-102007387D01*
X126296642Y-101948118D01*
X126413805Y-101896270D01*
X126511188Y-101853026D01*
X126586099Y-101819568D01*
X126635848Y-101797077D01*
X126657747Y-101786735D01*
X126658529Y-101786248D01*
X126658743Y-101767923D01*
X126654531Y-101722985D01*
X126646847Y-101658258D01*
X126636646Y-101580567D01*
X126624882Y-101496734D01*
X126612508Y-101413584D01*
X126600479Y-101337940D01*
X126589747Y-101276628D01*
X126582189Y-101240167D01*
X126572995Y-101202067D01*
X125480035Y-101202067D01*
X125124417Y-101820133D01*
X124598003Y-101829447D01*
X124373247Y-102180390D01*
X124299060Y-102296034D01*
X124219946Y-102419017D01*
X124141286Y-102541001D01*
X124068459Y-102653646D01*
X124006846Y-102748611D01*
X123991205Y-102772633D01*
X123940421Y-102851602D01*
X123897925Y-102919731D01*
X123866458Y-102972451D01*
X123848764Y-103005193D01*
X123846387Y-103013933D01*
X123435785Y-103013933D01*
X123463280Y-102971298D01*
X123528615Y-102869981D01*
X123605446Y-102750834D01*
X123690346Y-102619172D01*
X123779887Y-102480312D01*
X123870640Y-102339570D01*
X123951348Y-102214405D01*
X124028913Y-102094251D01*
X124121899Y-101950441D01*
X124227246Y-101787696D01*
X124341892Y-101610738D01*
X124462776Y-101424290D01*
X124586837Y-101233073D01*
X124711014Y-101041809D01*
X124832245Y-100855220D01*
X124887075Y-100770891D01*
X125730000Y-100770891D01*
X125745968Y-100773929D01*
X125790033Y-100776207D01*
X125856434Y-100777763D01*
X125939410Y-100778632D01*
X126033199Y-100778850D01*
X126132042Y-100778453D01*
X126230177Y-100777476D01*
X126321844Y-100775956D01*
X126401281Y-100773928D01*
X126462728Y-100771429D01*
X126500424Y-100768494D01*
X126509644Y-100766033D01*
X126507610Y-100741534D01*
X126500978Y-100689683D01*
X126490504Y-100615274D01*
X126476944Y-100523104D01*
X126461054Y-100417970D01*
X126443588Y-100304668D01*
X126425304Y-100187993D01*
X126406956Y-100072743D01*
X126389300Y-99963712D01*
X126373092Y-99865698D01*
X126359088Y-99783497D01*
X126348043Y-99721904D01*
X126340713Y-99685716D01*
X126338222Y-99678067D01*
X126328419Y-99692255D01*
X126304584Y-99732153D01*
X126268944Y-99793762D01*
X126223723Y-99873083D01*
X126171148Y-99966117D01*
X126113445Y-100068864D01*
X126052839Y-100177325D01*
X125991557Y-100287501D01*
X125931823Y-100395393D01*
X125875865Y-100497001D01*
X125825907Y-100588327D01*
X125784175Y-100665371D01*
X125752896Y-100724133D01*
X125734294Y-100760615D01*
X125730000Y-100770891D01*
X124887075Y-100770891D01*
X124915006Y-100727933D01*
X125075757Y-100480672D01*
X125239746Y-100228225D01*
X125405948Y-99972181D01*
X125573336Y-99714129D01*
X125740885Y-99455657D01*
X125907571Y-99198353D01*
X126072369Y-98943806D01*
X126234251Y-98693605D01*
X126392195Y-98449338D01*
X126545173Y-98212593D01*
X126692161Y-97984959D01*
X126832134Y-97768025D01*
X126964066Y-97563379D01*
X127086932Y-97372610D01*
X127199707Y-97197306D01*
X127301364Y-97039055D01*
X127390880Y-96899446D01*
X127467229Y-96780068D01*
X127529385Y-96682509D01*
X127576324Y-96608358D01*
X127607019Y-96559202D01*
X127620446Y-96536632D01*
X127620899Y-96535658D01*
X127617714Y-96511065D01*
X127601760Y-96466432D01*
X127576624Y-96411698D01*
X127535196Y-96318683D01*
X127521301Y-96274307D01*
X128185333Y-96274307D01*
X128200361Y-96295176D01*
X128239275Y-96318026D01*
X128292824Y-96337857D01*
X128312333Y-96342933D01*
X128405741Y-96349316D01*
X128512546Y-96330224D01*
X128620690Y-96289197D01*
X128729126Y-96219290D01*
X128828304Y-96117764D01*
X128917647Y-95985735D01*
X128996579Y-95824318D01*
X129064524Y-95634631D01*
X129120904Y-95417789D01*
X129151074Y-95262817D01*
X129164848Y-95173603D01*
X129176781Y-95079224D01*
X129186512Y-94985082D01*
X129193683Y-94896582D01*
X129197933Y-94819126D01*
X129198902Y-94758117D01*
X129196231Y-94718959D01*
X129189561Y-94707056D01*
X129188002Y-94708133D01*
X129174560Y-94726376D01*
X129145290Y-94769671D01*
X129102227Y-94834837D01*
X129047408Y-94918693D01*
X128982869Y-95018060D01*
X128910645Y-95129758D01*
X128832773Y-95250607D01*
X128751288Y-95377426D01*
X128668226Y-95507035D01*
X128585624Y-95636254D01*
X128505516Y-95761904D01*
X128429940Y-95880803D01*
X128360931Y-95989772D01*
X128300524Y-96085631D01*
X128250757Y-96165199D01*
X128213664Y-96225297D01*
X128191282Y-96262744D01*
X128185333Y-96274307D01*
X127521301Y-96274307D01*
X127505418Y-96223587D01*
X127485910Y-96118771D01*
X127475288Y-95996597D01*
X127472172Y-95849425D01*
X127472213Y-95834540D01*
X127475143Y-95760961D01*
X128049867Y-95760961D01*
X128050928Y-95814496D01*
X128055249Y-95839522D01*
X128064537Y-95841361D01*
X128073159Y-95833595D01*
X128086736Y-95814794D01*
X128116769Y-95770353D01*
X128161393Y-95703116D01*
X128218745Y-95615925D01*
X128286961Y-95511626D01*
X128364176Y-95393061D01*
X128448526Y-95263075D01*
X128538148Y-95124510D01*
X128550019Y-95106123D01*
X128665083Y-94927907D01*
X128763138Y-94776020D01*
X128845479Y-94648294D01*
X128913397Y-94542562D01*
X128968188Y-94456657D01*
X129011143Y-94388412D01*
X129043556Y-94335659D01*
X129066720Y-94296233D01*
X129081930Y-94267964D01*
X129090477Y-94248688D01*
X129093656Y-94236235D01*
X129092759Y-94228439D01*
X129089081Y-94223134D01*
X129083914Y-94218151D01*
X129081517Y-94215520D01*
X129026356Y-94173309D01*
X128948397Y-94146750D01*
X128855637Y-94137408D01*
X128756074Y-94146846D01*
X128743479Y-94149439D01*
X128649103Y-94186074D01*
X128554378Y-94252941D01*
X128462756Y-94346619D01*
X128377690Y-94463690D01*
X128316287Y-94572666D01*
X128254313Y-94715230D01*
X128197095Y-94882889D01*
X128146573Y-95066988D01*
X128104687Y-95258873D01*
X128073378Y-95449890D01*
X128054586Y-95631384D01*
X128049867Y-95760961D01*
X127475143Y-95760961D01*
X127483906Y-95540989D01*
X127515780Y-95260858D01*
X127566974Y-94996313D01*
X127636630Y-94749522D01*
X127723886Y-94522650D01*
X127827884Y-94317866D01*
X127947764Y-94137335D01*
X128082666Y-93983224D01*
X128231729Y-93857700D01*
X128265853Y-93834454D01*
X128413845Y-93754709D01*
X128578204Y-93695777D01*
X128751842Y-93658499D01*
X128927671Y-93643713D01*
X129098604Y-93652259D01*
X129257553Y-93684978D01*
X129325934Y-93708876D01*
X129378392Y-93729413D01*
X129416165Y-93742967D01*
X129430769Y-93746576D01*
X129442110Y-93729153D01*
X129469490Y-93686779D01*
X129510631Y-93622992D01*
X129563256Y-93541329D01*
X129625090Y-93445327D01*
X129693854Y-93338524D01*
X129767273Y-93224456D01*
X129843070Y-93106660D01*
X129918967Y-92988675D01*
X129992689Y-92874035D01*
X130061959Y-92766280D01*
X130124499Y-92668946D01*
X130163379Y-92608400D01*
X130252845Y-92469072D01*
X130325955Y-92355491D01*
X130384662Y-92264913D01*
X130430915Y-92194593D01*
X130466668Y-92141787D01*
X130493871Y-92103750D01*
X130514476Y-92077738D01*
X130530435Y-92061006D01*
X130543699Y-92050810D01*
X130556220Y-92044404D01*
X130567597Y-92039943D01*
X130635751Y-92030478D01*
X130700042Y-92050678D01*
G37*
X130700042Y-92050678D02*
X130742060Y-92087050D01*
X130766102Y-92125043D01*
X130776036Y-92164437D01*
X130770472Y-92210186D01*
X130748023Y-92267247D01*
X130707299Y-92340575D01*
X130646913Y-92435126D01*
X130642789Y-92441349D01*
X130586333Y-92526966D01*
X130518474Y-92630734D01*
X130445994Y-92742233D01*
X130375676Y-92851044D01*
X130341171Y-92904733D01*
X130284037Y-92993808D01*
X130213431Y-93103821D01*
X130134197Y-93227226D01*
X130051183Y-93356477D01*
X129969234Y-93484027D01*
X129915726Y-93567283D01*
X129658554Y-93967366D01*
X129700873Y-94063056D01*
X129742034Y-94185381D01*
X129770664Y-94334120D01*
X129787078Y-94504352D01*
X129791591Y-94691155D01*
X129784517Y-94889609D01*
X129766170Y-95094791D01*
X129736867Y-95301779D01*
X129696921Y-95505654D01*
X129646646Y-95701492D01*
X129586359Y-95884372D01*
X129584012Y-95890635D01*
X129487134Y-96112204D01*
X129374420Y-96303897D01*
X129245621Y-96465906D01*
X129100483Y-96598424D01*
X128938756Y-96701644D01*
X128760187Y-96775758D01*
X128564525Y-96820958D01*
X128351519Y-96837437D01*
X128346200Y-96837481D01*
X128253079Y-96837180D01*
X128183144Y-96833876D01*
X128125753Y-96826165D01*
X128070265Y-96812641D01*
X128009141Y-96792965D01*
X127946470Y-96773462D01*
X127896226Y-96761514D01*
X127866659Y-96758950D01*
X127862786Y-96760538D01*
X127850860Y-96777579D01*
X127822890Y-96819600D01*
X127781163Y-96883103D01*
X127727963Y-96964592D01*
X127665578Y-97060568D01*
X127596294Y-97167535D01*
X127555160Y-97231200D01*
X127465142Y-97370622D01*
X127362725Y-97529198D01*
X127253907Y-97697643D01*
X127144685Y-97866677D01*
X127041055Y-98027017D01*
X126953113Y-98163044D01*
X126879412Y-98277323D01*
X126811481Y-98383238D01*
X126751553Y-98477259D01*
X126701862Y-98555858D01*
X126664643Y-98615506D01*
X126642130Y-98652676D01*
X126636368Y-98663294D01*
X126638429Y-98682618D01*
X126646701Y-98732158D01*
X126660594Y-98808970D01*
X126679519Y-98910106D01*
X126702887Y-99032621D01*
X126730108Y-99173568D01*
X126760594Y-99330000D01*
X126793756Y-99498973D01*
X126829003Y-99677539D01*
X126865748Y-99862753D01*
X126903400Y-100051667D01*
X126941370Y-100241337D01*
X126979070Y-100428815D01*
X127015909Y-100611156D01*
X127051300Y-100785413D01*
X127084652Y-100948640D01*
X127115376Y-101097890D01*
X127142884Y-101230219D01*
X127166585Y-101342678D01*
X127185891Y-101432323D01*
X127200213Y-101496207D01*
X127208961Y-101531383D01*
X127211157Y-101537402D01*
X127228705Y-101534277D01*
X127269290Y-101520129D01*
X127325240Y-101498208D01*
X127388881Y-101471762D01*
X127452538Y-101444041D01*
X127508537Y-101418296D01*
X127549206Y-101397776D01*
X127565490Y-101387356D01*
X127570930Y-101368879D01*
X127582069Y-101319650D01*
X127598404Y-101242212D01*
X127619433Y-101139105D01*
X127644652Y-101012873D01*
X127673558Y-100866058D01*
X127705650Y-100701202D01*
X127740424Y-100520846D01*
X127777377Y-100327533D01*
X127798572Y-100215752D01*
X128379042Y-100215752D01*
X128379482Y-100216526D01*
X128407999Y-100227639D01*
X128463127Y-100235253D01*
X128537788Y-100239337D01*
X128624904Y-100239861D01*
X128717397Y-100236795D01*
X128808189Y-100230109D01*
X128890202Y-100219772D01*
X128896533Y-100218726D01*
X129019675Y-100184291D01*
X129138130Y-100126230D01*
X129240280Y-100050772D01*
X129275236Y-100015711D01*
X129338603Y-99932670D01*
X129378997Y-99846250D01*
X129399147Y-99747709D01*
X129401785Y-99628304D01*
X129401081Y-99612697D01*
X129387219Y-99490951D01*
X129357221Y-99395075D01*
X129307716Y-99319565D01*
X129235331Y-99258921D01*
X129158789Y-99217460D01*
X129121414Y-99201743D01*
X129084424Y-99190892D01*
X129040477Y-99184028D01*
X128982235Y-99180272D01*
X128902356Y-99178746D01*
X128833629Y-99178533D01*
X128733439Y-99179243D01*
X128661959Y-99181701D01*
X128614058Y-99186399D01*
X128584601Y-99193830D01*
X128568968Y-99203933D01*
X128560716Y-99225534D01*
X128547957Y-99274933D01*
X128531630Y-99347105D01*
X128512676Y-99437023D01*
X128492036Y-99539664D01*
X128470649Y-99650002D01*
X128449457Y-99763011D01*
X128429399Y-99873667D01*
X128411416Y-99976943D01*
X128396449Y-100067815D01*
X128385437Y-100141258D01*
X128379321Y-100192245D01*
X128379042Y-100215752D01*
X127798572Y-100215752D01*
X127816007Y-100123805D01*
X127828646Y-100056797D01*
X128076646Y-98740334D01*
X128122436Y-98728088D01*
X128153727Y-98723023D01*
X128212438Y-98716491D01*
X128292188Y-98709090D01*
X128386594Y-98701416D01*
X128477717Y-98694845D01*
X128748357Y-98684942D01*
X128991265Y-98693982D01*
X129206912Y-98722151D01*
X129395764Y-98769636D01*
X129558291Y-98836623D01*
X129694959Y-98923299D01*
X129806236Y-99029850D01*
X129892592Y-99156463D01*
X129946797Y-99280133D01*
X129973557Y-99386553D01*
X129989342Y-99512604D01*
X129993555Y-99645680D01*
X129985598Y-99773173D01*
X129973674Y-99846804D01*
X129919067Y-100025598D01*
X129835731Y-100186871D01*
X129724600Y-100329452D01*
X129586603Y-100452168D01*
X129422675Y-100553846D01*
X129404533Y-100562989D01*
X129266163Y-100624653D01*
X129132387Y-100668873D01*
X128993520Y-100697758D01*
X128839874Y-100713417D01*
X128693333Y-100717888D01*
X128597383Y-100717874D01*
X128506035Y-100716731D01*
X128428286Y-100714649D01*
X128373128Y-100711814D01*
X128363819Y-100711000D01*
X128279839Y-100702533D01*
X128250049Y-100863400D01*
X128236083Y-100937584D01*
X128223418Y-101002654D01*
X128213949Y-101048982D01*
X128210941Y-101062367D01*
X128209643Y-101091583D01*
X128217870Y-101100467D01*
X128235134Y-101093894D01*
X128280288Y-101075084D01*
X128350208Y-101045396D01*
X128441766Y-101006191D01*
X128551837Y-100958830D01*
X128677296Y-100904672D01*
X128815015Y-100845079D01*
X128961869Y-100781410D01*
X129114732Y-100715027D01*
X129270478Y-100647289D01*
X129425981Y-100579556D01*
X129578115Y-100513191D01*
X129723754Y-100449552D01*
X129859773Y-100390000D01*
X129983044Y-100335896D01*
X130090443Y-100288600D01*
X130178843Y-100249473D01*
X130245119Y-100219874D01*
X130286143Y-100201165D01*
X130298847Y-100194821D01*
X130302911Y-100177576D01*
X130312323Y-100130500D01*
X130326426Y-100057089D01*
X130344561Y-99960843D01*
X130355305Y-99903111D01*
X130915186Y-99903111D01*
X130915636Y-99909984D01*
X130921231Y-99913264D01*
X130934550Y-99911935D01*
X130958175Y-99904981D01*
X130994686Y-99891386D01*
X131046664Y-99870134D01*
X131116688Y-99840207D01*
X131207339Y-99800591D01*
X131321198Y-99750269D01*
X131460844Y-99688224D01*
X131628802Y-99613467D01*
X131931137Y-99478879D01*
X131871703Y-99413373D01*
X131785793Y-99337281D01*
X131677386Y-99269664D01*
X131557796Y-99217119D01*
X131508237Y-99201485D01*
X131437264Y-99186452D01*
X131354629Y-99176075D01*
X131268604Y-99170545D01*
X131187464Y-99170051D01*
X131119481Y-99174783D01*
X131072931Y-99184930D01*
X131061279Y-99191233D01*
X131047692Y-99216746D01*
X131031235Y-99273924D01*
X131011766Y-99363378D01*
X130989141Y-99485718D01*
X130980836Y-99534133D01*
X130963354Y-99636837D01*
X130947223Y-99730023D01*
X130933489Y-99807769D01*
X130923200Y-99864149D01*
X130917402Y-99893241D01*
X130917301Y-99893661D01*
X130915186Y-99903111D01*
X130355305Y-99903111D01*
X130366073Y-99845260D01*
X130390304Y-99713838D01*
X130416598Y-99570075D01*
X130429748Y-99497775D01*
X130457007Y-99347893D01*
X130482644Y-99207445D01*
X130505975Y-99080138D01*
X130526317Y-98969683D01*
X130542985Y-98879786D01*
X130555296Y-98814157D01*
X130562566Y-98776504D01*
X130563996Y-98769733D01*
X130580562Y-98747005D01*
X130619896Y-98728167D01*
X130684232Y-98712818D01*
X130775801Y-98700558D01*
X130896836Y-98690985D01*
X131040699Y-98684031D01*
X131309261Y-98684924D01*
X131553534Y-98709086D01*
X131773974Y-98756658D01*
X131971035Y-98827784D01*
X132145170Y-98922607D01*
X132296836Y-99041270D01*
X132353205Y-99097462D01*
X132395736Y-99144855D01*
X132430286Y-99186798D01*
X132447404Y-99211100D01*
X132454596Y-99220208D01*
X132466242Y-99224566D01*
X132486024Y-99222912D01*
X132517619Y-99213982D01*
X132564707Y-99196513D01*
X132630967Y-99169242D01*
X132720079Y-99130906D01*
X132835721Y-99080241D01*
X132861143Y-99069052D01*
X132947962Y-99030846D01*
X133061773Y-98980794D01*
X133198554Y-98920664D01*
X133354286Y-98852221D01*
X133524948Y-98777231D01*
X133706522Y-98697462D01*
X133894986Y-98614680D01*
X134086321Y-98530651D01*
X134276506Y-98447141D01*
X134289800Y-98441304D01*
X134476340Y-98359355D01*
X134661651Y-98277855D01*
X134842085Y-98198414D01*
X135013994Y-98122641D01*
X135173730Y-98052146D01*
X135317646Y-97988541D01*
X135442094Y-97933434D01*
X135543425Y-97888435D01*
X135617993Y-97855156D01*
X135627533Y-97850875D01*
X135749904Y-97796914D01*
X135846374Y-97757322D01*
X135921280Y-97731221D01*
X135978961Y-97717734D01*
X136023756Y-97715982D01*
X136060003Y-97725087D01*
X136092041Y-97744172D01*
X136104571Y-97754336D01*
X136138249Y-97792863D01*
X136150863Y-97839635D01*
X136151697Y-97863050D01*
X136149819Y-97899497D01*
X136142038Y-97931098D01*
X136125135Y-97960046D01*
X136095892Y-97988529D01*
X136051088Y-98018739D01*
X135987504Y-98052865D01*
X135901921Y-98093098D01*
X135791120Y-98141628D01*
X135661349Y-98196663D01*
X135604208Y-98220973D01*
X135518902Y-98257634D01*
X135408285Y-98305407D01*
X135275212Y-98363050D01*
X135122536Y-98429323D01*
X134953111Y-98502986D01*
X134769793Y-98582797D01*
X134575434Y-98667517D01*
X134372890Y-98755904D01*
X134165014Y-98846719D01*
X134035800Y-98903220D01*
X133832710Y-98992031D01*
X133637986Y-99077138D01*
X133453934Y-99157534D01*
X133282861Y-99232214D01*
X133127073Y-99300172D01*
X132988877Y-99360405D01*
X132870578Y-99411905D01*
X132774485Y-99453668D01*
X132702902Y-99484689D01*
X132658136Y-99503962D01*
X132643033Y-99510303D01*
X132617740Y-99526004D01*
X132607254Y-99552813D01*
X132610501Y-99598099D01*
X132622286Y-99652667D01*
X132631602Y-99713842D01*
X132637295Y-99800520D01*
X132639483Y-99904546D01*
X132638280Y-100017764D01*
X132633800Y-100132016D01*
X132626160Y-100239148D01*
X132615474Y-100331001D01*
X132612444Y-100350013D01*
X132554853Y-100596679D01*
X132469757Y-100824512D01*
X132357991Y-101032459D01*
X132220386Y-101219469D01*
X132057776Y-101384488D01*
X131870992Y-101526465D01*
X131660869Y-101644348D01*
X131549887Y-101692896D01*
X131469366Y-101724071D01*
X131395593Y-101749565D01*
X131323817Y-101770013D01*
X131249286Y-101786048D01*
X131167249Y-101798305D01*
X131072953Y-101807418D01*
X130961648Y-101814021D01*
X130828582Y-101818748D01*
X130669003Y-101822233D01*
X130568700Y-101823843D01*
X130416474Y-101825973D01*
X130294745Y-101827306D01*
X130200151Y-101827721D01*
X130129330Y-101827101D01*
X130078920Y-101825327D01*
X130045557Y-101822278D01*
X130025880Y-101817838D01*
X130016526Y-101811886D01*
X130014133Y-101804304D01*
X130014133Y-101804225D01*
X130017102Y-101781634D01*
X130025549Y-101729679D01*
X130038785Y-101652296D01*
X130056120Y-101553420D01*
X130076863Y-101436988D01*
X130098979Y-101314397D01*
X130674533Y-101314397D01*
X130677681Y-101326058D01*
X130690746Y-101333426D01*
X130719164Y-101336986D01*
X130768366Y-101337223D01*
X130843788Y-101334622D01*
X130881966Y-101332921D01*
X131027120Y-101321931D01*
X131144484Y-101303247D01*
X131207933Y-101286764D01*
X131374376Y-101218042D01*
X131528929Y-101120021D01*
X131668606Y-100996082D01*
X131790419Y-100849601D01*
X131891381Y-100683957D01*
X131968505Y-100502528D01*
X132001697Y-100389125D01*
X132019948Y-100302126D01*
X132034789Y-100206881D01*
X132045939Y-100109087D01*
X132053118Y-100014442D01*
X132056044Y-99928642D01*
X132054435Y-99857384D01*
X132048011Y-99806366D01*
X132036491Y-99781285D01*
X132031778Y-99779667D01*
X132011967Y-99786306D01*
X131965516Y-99804981D01*
X131896664Y-99833824D01*
X131809653Y-99870968D01*
X131708724Y-99914546D01*
X131598116Y-99962690D01*
X131482072Y-100013535D01*
X131364831Y-100065212D01*
X131250635Y-100115855D01*
X131143725Y-100163597D01*
X131048340Y-100206571D01*
X130968723Y-100242909D01*
X130909113Y-100270745D01*
X130873752Y-100288212D01*
X130865948Y-100292929D01*
X130859125Y-100312868D01*
X130847517Y-100361135D01*
X130832071Y-100432680D01*
X130813732Y-100522453D01*
X130793447Y-100625404D01*
X130772163Y-100736483D01*
X130750825Y-100850641D01*
X130730380Y-100962826D01*
X130711775Y-101067990D01*
X130695955Y-101161081D01*
X130683867Y-101237051D01*
X130676457Y-101290848D01*
X130674533Y-101314397D01*
X130098979Y-101314397D01*
X130100326Y-101306935D01*
X130124644Y-101173598D01*
X130149829Y-101035428D01*
X130172744Y-100908173D01*
X130192738Y-100795573D01*
X130209159Y-100701369D01*
X130221354Y-100629298D01*
X130228672Y-100583101D01*
X130230478Y-100566529D01*
X130214598Y-100572442D01*
X130170290Y-100590921D01*
X130100110Y-100620856D01*
X130006613Y-100661140D01*
X129892354Y-100710663D01*
X129759888Y-100768317D01*
X129611770Y-100832992D01*
X129450557Y-100903580D01*
X129278803Y-100978973D01*
X129192866Y-101016763D01*
X129016629Y-101094299D01*
X128849496Y-101167815D01*
X128694053Y-101236176D01*
X128552883Y-101298245D01*
X128428570Y-101352888D01*
X128323698Y-101398967D01*
X128240852Y-101435349D01*
X128182615Y-101460896D01*
X128151572Y-101474473D01*
X128147105Y-101476399D01*
X128139005Y-101494210D01*
X128127380Y-101538145D01*
X128114009Y-101600876D01*
X128104772Y-101650843D01*
X128075267Y-101820133D01*
X127784649Y-101824760D01*
X127679337Y-101826301D01*
X127603321Y-101826735D01*
X127552036Y-101825581D01*
X127520916Y-101822361D01*
X127505396Y-101816592D01*
X127500911Y-101807796D01*
X127502896Y-101795491D01*
X127502991Y-101795127D01*
X127506395Y-101767805D01*
X127502562Y-101760867D01*
X127488228Y-101766213D01*
X127449313Y-101782413D01*
X127385270Y-101809702D01*
X127295553Y-101848318D01*
X127179617Y-101898500D01*
X127036915Y-101960485D01*
X126866901Y-102034510D01*
X126669029Y-102120814D01*
X126442754Y-102219633D01*
X126187530Y-102331205D01*
X125902810Y-102455769D01*
X125588049Y-102593561D01*
X125332067Y-102705672D01*
X125045969Y-102831063D01*
X124789475Y-102943638D01*
X124561114Y-103044054D01*
X124359419Y-103132970D01*
X124182922Y-103211044D01*
X124030155Y-103278934D01*
X123899649Y-103337299D01*
X123789936Y-103386796D01*
X123699548Y-103428083D01*
X123627016Y-103461819D01*
X123570873Y-103488662D01*
X123529650Y-103509270D01*
X123501879Y-103524301D01*
X123490930Y-103531004D01*
X123420661Y-103563044D01*
X123349063Y-103571259D01*
X123287299Y-103554423D01*
X123285780Y-103553556D01*
X123248373Y-103514854D01*
X123224373Y-103457623D01*
X123218731Y-103396127D01*
X123222979Y-103372629D01*
X123236686Y-103342298D01*
X123265841Y-103289192D01*
X123307225Y-103218793D01*
X123357615Y-103136581D01*
X123412870Y-103049467D01*
X123435785Y-103013933D01*
X123846387Y-103013933D01*
X123864935Y-103007485D01*
X123909853Y-102989440D01*
X123976473Y-102961748D01*
X124060126Y-102926357D01*
X124156144Y-102885216D01*
X124197527Y-102867344D01*
X124327029Y-102811194D01*
X124471723Y-102748283D01*
X124628919Y-102679795D01*
X124795927Y-102606910D01*
X124970057Y-102530811D01*
X125148618Y-102452680D01*
X125328920Y-102373698D01*
X125508273Y-102295046D01*
X125683986Y-102217908D01*
X125853370Y-102143464D01*
X126013735Y-102072896D01*
X126162389Y-102007387D01*
X126296642Y-101948118D01*
X126413805Y-101896270D01*
X126511188Y-101853026D01*
X126586099Y-101819568D01*
X126635848Y-101797077D01*
X126657747Y-101786735D01*
X126658529Y-101786248D01*
X126658743Y-101767923D01*
X126654531Y-101722985D01*
X126646847Y-101658258D01*
X126636646Y-101580567D01*
X126624882Y-101496734D01*
X126612508Y-101413584D01*
X126600479Y-101337940D01*
X126589747Y-101276628D01*
X126582189Y-101240167D01*
X126572995Y-101202067D01*
X125480035Y-101202067D01*
X125124417Y-101820133D01*
X124598003Y-101829447D01*
X124373247Y-102180390D01*
X124299060Y-102296034D01*
X124219946Y-102419017D01*
X124141286Y-102541001D01*
X124068459Y-102653646D01*
X124006846Y-102748611D01*
X123991205Y-102772633D01*
X123940421Y-102851602D01*
X123897925Y-102919731D01*
X123866458Y-102972451D01*
X123848764Y-103005193D01*
X123846387Y-103013933D01*
X123435785Y-103013933D01*
X123463280Y-102971298D01*
X123528615Y-102869981D01*
X123605446Y-102750834D01*
X123690346Y-102619172D01*
X123779887Y-102480312D01*
X123870640Y-102339570D01*
X123951348Y-102214405D01*
X124028913Y-102094251D01*
X124121899Y-101950441D01*
X124227246Y-101787696D01*
X124341892Y-101610738D01*
X124462776Y-101424290D01*
X124586837Y-101233073D01*
X124711014Y-101041809D01*
X124832245Y-100855220D01*
X124887075Y-100770891D01*
X125730000Y-100770891D01*
X125745968Y-100773929D01*
X125790033Y-100776207D01*
X125856434Y-100777763D01*
X125939410Y-100778632D01*
X126033199Y-100778850D01*
X126132042Y-100778453D01*
X126230177Y-100777476D01*
X126321844Y-100775956D01*
X126401281Y-100773928D01*
X126462728Y-100771429D01*
X126500424Y-100768494D01*
X126509644Y-100766033D01*
X126507610Y-100741534D01*
X126500978Y-100689683D01*
X126490504Y-100615274D01*
X126476944Y-100523104D01*
X126461054Y-100417970D01*
X126443588Y-100304668D01*
X126425304Y-100187993D01*
X126406956Y-100072743D01*
X126389300Y-99963712D01*
X126373092Y-99865698D01*
X126359088Y-99783497D01*
X126348043Y-99721904D01*
X126340713Y-99685716D01*
X126338222Y-99678067D01*
X126328419Y-99692255D01*
X126304584Y-99732153D01*
X126268944Y-99793762D01*
X126223723Y-99873083D01*
X126171148Y-99966117D01*
X126113445Y-100068864D01*
X126052839Y-100177325D01*
X125991557Y-100287501D01*
X125931823Y-100395393D01*
X125875865Y-100497001D01*
X125825907Y-100588327D01*
X125784175Y-100665371D01*
X125752896Y-100724133D01*
X125734294Y-100760615D01*
X125730000Y-100770891D01*
X124887075Y-100770891D01*
X124915006Y-100727933D01*
X125075757Y-100480672D01*
X125239746Y-100228225D01*
X125405948Y-99972181D01*
X125573336Y-99714129D01*
X125740885Y-99455657D01*
X125907571Y-99198353D01*
X126072369Y-98943806D01*
X126234251Y-98693605D01*
X126392195Y-98449338D01*
X126545173Y-98212593D01*
X126692161Y-97984959D01*
X126832134Y-97768025D01*
X126964066Y-97563379D01*
X127086932Y-97372610D01*
X127199707Y-97197306D01*
X127301364Y-97039055D01*
X127390880Y-96899446D01*
X127467229Y-96780068D01*
X127529385Y-96682509D01*
X127576324Y-96608358D01*
X127607019Y-96559202D01*
X127620446Y-96536632D01*
X127620899Y-96535658D01*
X127617714Y-96511065D01*
X127601760Y-96466432D01*
X127576624Y-96411698D01*
X127535196Y-96318683D01*
X127521301Y-96274307D01*
X128185333Y-96274307D01*
X128200361Y-96295176D01*
X128239275Y-96318026D01*
X128292824Y-96337857D01*
X128312333Y-96342933D01*
X128405741Y-96349316D01*
X128512546Y-96330224D01*
X128620690Y-96289197D01*
X128729126Y-96219290D01*
X128828304Y-96117764D01*
X128917647Y-95985735D01*
X128996579Y-95824318D01*
X129064524Y-95634631D01*
X129120904Y-95417789D01*
X129151074Y-95262817D01*
X129164848Y-95173603D01*
X129176781Y-95079224D01*
X129186512Y-94985082D01*
X129193683Y-94896582D01*
X129197933Y-94819126D01*
X129198902Y-94758117D01*
X129196231Y-94718959D01*
X129189561Y-94707056D01*
X129188002Y-94708133D01*
X129174560Y-94726376D01*
X129145290Y-94769671D01*
X129102227Y-94834837D01*
X129047408Y-94918693D01*
X128982869Y-95018060D01*
X128910645Y-95129758D01*
X128832773Y-95250607D01*
X128751288Y-95377426D01*
X128668226Y-95507035D01*
X128585624Y-95636254D01*
X128505516Y-95761904D01*
X128429940Y-95880803D01*
X128360931Y-95989772D01*
X128300524Y-96085631D01*
X128250757Y-96165199D01*
X128213664Y-96225297D01*
X128191282Y-96262744D01*
X128185333Y-96274307D01*
X127521301Y-96274307D01*
X127505418Y-96223587D01*
X127485910Y-96118771D01*
X127475288Y-95996597D01*
X127472172Y-95849425D01*
X127472213Y-95834540D01*
X127475143Y-95760961D01*
X128049867Y-95760961D01*
X128050928Y-95814496D01*
X128055249Y-95839522D01*
X128064537Y-95841361D01*
X128073159Y-95833595D01*
X128086736Y-95814794D01*
X128116769Y-95770353D01*
X128161393Y-95703116D01*
X128218745Y-95615925D01*
X128286961Y-95511626D01*
X128364176Y-95393061D01*
X128448526Y-95263075D01*
X128538148Y-95124510D01*
X128550019Y-95106123D01*
X128665083Y-94927907D01*
X128763138Y-94776020D01*
X128845479Y-94648294D01*
X128913397Y-94542562D01*
X128968188Y-94456657D01*
X129011143Y-94388412D01*
X129043556Y-94335659D01*
X129066720Y-94296233D01*
X129081930Y-94267964D01*
X129090477Y-94248688D01*
X129093656Y-94236235D01*
X129092759Y-94228439D01*
X129089081Y-94223134D01*
X129083914Y-94218151D01*
X129081517Y-94215520D01*
X129026356Y-94173309D01*
X128948397Y-94146750D01*
X128855637Y-94137408D01*
X128756074Y-94146846D01*
X128743479Y-94149439D01*
X128649103Y-94186074D01*
X128554378Y-94252941D01*
X128462756Y-94346619D01*
X128377690Y-94463690D01*
X128316287Y-94572666D01*
X128254313Y-94715230D01*
X128197095Y-94882889D01*
X128146573Y-95066988D01*
X128104687Y-95258873D01*
X128073378Y-95449890D01*
X128054586Y-95631384D01*
X128049867Y-95760961D01*
X127475143Y-95760961D01*
X127483906Y-95540989D01*
X127515780Y-95260858D01*
X127566974Y-94996313D01*
X127636630Y-94749522D01*
X127723886Y-94522650D01*
X127827884Y-94317866D01*
X127947764Y-94137335D01*
X128082666Y-93983224D01*
X128231729Y-93857700D01*
X128265853Y-93834454D01*
X128413845Y-93754709D01*
X128578204Y-93695777D01*
X128751842Y-93658499D01*
X128927671Y-93643713D01*
X129098604Y-93652259D01*
X129257553Y-93684978D01*
X129325934Y-93708876D01*
X129378392Y-93729413D01*
X129416165Y-93742967D01*
X129430769Y-93746576D01*
X129442110Y-93729153D01*
X129469490Y-93686779D01*
X129510631Y-93622992D01*
X129563256Y-93541329D01*
X129625090Y-93445327D01*
X129693854Y-93338524D01*
X129767273Y-93224456D01*
X129843070Y-93106660D01*
X129918967Y-92988675D01*
X129992689Y-92874035D01*
X130061959Y-92766280D01*
X130124499Y-92668946D01*
X130163379Y-92608400D01*
X130252845Y-92469072D01*
X130325955Y-92355491D01*
X130384662Y-92264913D01*
X130430915Y-92194593D01*
X130466668Y-92141787D01*
X130493871Y-92103750D01*
X130514476Y-92077738D01*
X130530435Y-92061006D01*
X130543699Y-92050810D01*
X130556220Y-92044404D01*
X130567597Y-92039943D01*
X130635751Y-92030478D01*
X130700042Y-92050678D01*
D13*
%TO.C,J6*%
X123257000Y-73660000D02*
X121797000Y-73660000D01*
X125917000Y-69850000D02*
X125917000Y-69790000D01*
X125917000Y-73720000D02*
X125917000Y-73660000D01*
X125917000Y-69790000D02*
X123257000Y-69790000D01*
X123257000Y-69850000D02*
X123257000Y-69790000D01*
X123257000Y-73720000D02*
X123257000Y-73660000D01*
X125917000Y-73720000D02*
X123257000Y-73720000D01*
%TO.C,J1*%
X126365000Y-83118000D02*
X125035000Y-83118000D01*
X125035000Y-83118000D02*
X125035000Y-81788000D01*
X125035000Y-80518000D02*
X125035000Y-75378000D01*
X127695000Y-75378000D02*
X125035000Y-75378000D01*
X127695000Y-80518000D02*
X127695000Y-75378000D01*
X127695000Y-80518000D02*
X125035000Y-80518000D01*
%TO.C,C3*%
X142480000Y-90344000D02*
X142480000Y-86134000D01*
X139460000Y-90344000D02*
X142480000Y-90344000D01*
X139460000Y-86134000D02*
X139460000Y-90344000D01*
%TO.C,U2*%
X139173000Y-85593000D02*
X137913000Y-85593000D01*
X132353000Y-85593000D02*
X133613000Y-85593000D01*
X139173000Y-89353000D02*
X139173000Y-85593000D01*
X132353000Y-91603000D02*
X132353000Y-85593000D01*
D10*
%TO.C,U1*%
X144745000Y-94023000D02*
X144795000Y-94023000D01*
X144745000Y-89873000D02*
X144890000Y-89873000D01*
X149895000Y-89873000D02*
X149750000Y-89873000D01*
X149895000Y-94023000D02*
X149750000Y-94023000D01*
X144745000Y-94023000D02*
X144745000Y-89873000D01*
X149895000Y-94023000D02*
X149895000Y-89873000D01*
X144795000Y-94023000D02*
X144795000Y-95423000D01*
D13*
%TO.C,R8*%
X130810724Y-88914500D02*
X130301276Y-88914500D01*
X130810724Y-87869500D02*
X130301276Y-87869500D01*
%TO.C,R7*%
X139573724Y-95264500D02*
X139064276Y-95264500D01*
X139573724Y-94219500D02*
X139064276Y-94219500D01*
%TO.C,R6*%
X142381500Y-93725276D02*
X142381500Y-94234724D01*
X141336500Y-93725276D02*
X141336500Y-94234724D01*
%TO.C,R5*%
X141272240Y-74718233D02*
X141781688Y-74718233D01*
X141272240Y-73673233D02*
X141781688Y-73673233D01*
%TO.C,R4*%
X121268122Y-85386439D02*
X121268122Y-84876991D01*
X122313122Y-85386439D02*
X122313122Y-84876991D01*
%TO.C,R3*%
X140036724Y-104281500D02*
X139527276Y-104281500D01*
X140036724Y-103236500D02*
X139527276Y-103236500D01*
%TO.C,R2*%
X159018500Y-84988290D02*
X159018500Y-85497738D01*
X157973500Y-84988290D02*
X157973500Y-85497738D01*
%TO.C,R1*%
X139445276Y-65771500D02*
X139954724Y-65771500D01*
X139445276Y-66816500D02*
X139954724Y-66816500D01*
%TO.C,L1*%
X143002724Y-91708500D02*
X142493276Y-91708500D01*
X143002724Y-90663500D02*
X142493276Y-90663500D01*
%TO.C,D7*%
X129756000Y-87603000D02*
X132216000Y-87603000D01*
X132216000Y-87603000D02*
X132216000Y-86133000D01*
X132216000Y-86133000D02*
X129756000Y-86133000D01*
%TO.C,D6*%
X142622000Y-88093000D02*
X145922000Y-88093000D01*
X145922000Y-88093000D02*
X145922000Y-81193000D01*
X142622000Y-88093000D02*
X142622000Y-81193000D01*
%TO.C,D5*%
X139866964Y-76367574D02*
X142326964Y-76367574D01*
X139866964Y-74897574D02*
X139866964Y-76367574D01*
X142326964Y-74897574D02*
X139866964Y-74897574D01*
%TO.C,D4*%
X120909176Y-85931715D02*
X120909176Y-83471715D01*
X120909176Y-83471715D02*
X119439176Y-83471715D01*
X119439176Y-83471715D02*
X119439176Y-85931715D01*
%TO.C,D3*%
X140582000Y-104548000D02*
X138122000Y-104548000D01*
X138122000Y-104548000D02*
X138122000Y-106018000D01*
X138122000Y-106018000D02*
X140582000Y-106018000D01*
%TO.C,D2*%
X159285000Y-84417000D02*
X159285000Y-86877000D01*
X159285000Y-86877000D02*
X160755000Y-86877000D01*
X160755000Y-86877000D02*
X160755000Y-84417000D01*
%TO.C,D1*%
X138900000Y-65505000D02*
X141360000Y-65505000D01*
X141360000Y-65505000D02*
X141360000Y-64035000D01*
X141360000Y-64035000D02*
X138900000Y-64035000D01*
%TO.C,CH4*%
X118805000Y-85090000D02*
X116145000Y-85090000D01*
X118805000Y-85090000D02*
X118805000Y-82490000D01*
X118805000Y-82490000D02*
X116145000Y-82490000D01*
X116145000Y-85090000D02*
X116145000Y-82490000D01*
X116145000Y-87690000D02*
X116145000Y-86360000D01*
X117475000Y-87690000D02*
X116145000Y-87690000D01*
%TO.C,CH3*%
X139802200Y-106620000D02*
X139802200Y-109280000D01*
X139802200Y-106620000D02*
X137202200Y-106620000D01*
X137202200Y-106620000D02*
X137202200Y-109280000D01*
X139802200Y-109280000D02*
X137202200Y-109280000D01*
X142402200Y-109280000D02*
X141072200Y-109280000D01*
X142402200Y-107950000D02*
X142402200Y-109280000D01*
%TO.C,CH2*%
X163890000Y-85090000D02*
X161230000Y-85090000D01*
X163890000Y-85090000D02*
X163890000Y-82490000D01*
X163890000Y-82490000D02*
X161230000Y-82490000D01*
X161230000Y-85090000D02*
X161230000Y-82490000D01*
X161230000Y-87690000D02*
X161230000Y-86360000D01*
X162560000Y-87690000D02*
X161230000Y-87690000D01*
%TO.C,CH1*%
X139700000Y-60900000D02*
X139700000Y-63560000D01*
X139700000Y-60900000D02*
X137100000Y-60900000D01*
X137100000Y-60900000D02*
X137100000Y-63560000D01*
X139700000Y-63560000D02*
X137100000Y-63560000D01*
X142300000Y-63560000D02*
X140970000Y-63560000D01*
X142300000Y-62230000D02*
X142300000Y-63560000D01*
%TO.C,C14*%
X137756267Y-77782769D02*
X137756267Y-78075303D01*
X136736267Y-77782769D02*
X136736267Y-78075303D01*
%TO.C,C13*%
X135119821Y-78039778D02*
X135119821Y-77747244D01*
X136139821Y-78039778D02*
X136139821Y-77747244D01*
%TO.C,C12*%
X132906929Y-77747244D02*
X132906929Y-78039778D01*
X131886929Y-77747244D02*
X131886929Y-78039778D01*
%TO.C,C11*%
X133503375Y-78075303D02*
X133503375Y-77782769D01*
X134523375Y-78075303D02*
X134523375Y-77782769D01*
%TO.C,C10*%
X138352713Y-77782769D02*
X138352713Y-78075303D01*
X139372713Y-77782769D02*
X139372713Y-78075303D01*
%TO.C,C9*%
X136736267Y-81468201D02*
X136736267Y-81175667D01*
X137756267Y-81468201D02*
X137756267Y-81175667D01*
%TO.C,C8*%
X136139821Y-81175667D02*
X136139821Y-81468201D01*
X135119821Y-81175667D02*
X135119821Y-81468201D01*
%TO.C,C7*%
X133503375Y-81468201D02*
X133503375Y-81175667D01*
X134523375Y-81468201D02*
X134523375Y-81175667D01*
%TO.C,C6*%
X132906929Y-81175667D02*
X132906929Y-81468201D01*
X131886929Y-81175667D02*
X131886929Y-81468201D01*
%TO.C,C5*%
X139372713Y-81468201D02*
X139372713Y-81175667D01*
X138352713Y-81468201D02*
X138352713Y-81175667D01*
%TO.C,C4*%
X139465267Y-93601000D02*
X139172733Y-93601000D01*
X139465267Y-92581000D02*
X139172733Y-92581000D01*
%TO.C,C2*%
X143127000Y-94126267D02*
X143127000Y-93833733D01*
X144147000Y-94126267D02*
X144147000Y-93833733D01*
%TO.C,C1*%
X147427733Y-86866000D02*
X147720267Y-86866000D01*
X147427733Y-87886000D02*
X147720267Y-87886000D01*
%TO.C,J6*%
D10*
X124253666Y-74612380D02*
X124253666Y-75326666D01*
X124206047Y-75469523D01*
X124110809Y-75564761D01*
X123967952Y-75612380D01*
X123872714Y-75612380D01*
X125158428Y-74612380D02*
X124967952Y-74612380D01*
X124872714Y-74660000D01*
X124825095Y-74707619D01*
X124729857Y-74850476D01*
X124682238Y-75040952D01*
X124682238Y-75421904D01*
X124729857Y-75517142D01*
X124777476Y-75564761D01*
X124872714Y-75612380D01*
X125063190Y-75612380D01*
X125158428Y-75564761D01*
X125206047Y-75517142D01*
X125253666Y-75421904D01*
X125253666Y-75183809D01*
X125206047Y-75088571D01*
X125158428Y-75040952D01*
X125063190Y-74993333D01*
X124872714Y-74993333D01*
X124777476Y-75040952D01*
X124729857Y-75088571D01*
X124682238Y-75183809D01*
%TO.C,J1*%
X126031666Y-84010380D02*
X126031666Y-84724666D01*
X125984047Y-84867523D01*
X125888809Y-84962761D01*
X125745952Y-85010380D01*
X125650714Y-85010380D01*
X127031666Y-85010380D02*
X126460238Y-85010380D01*
X126745952Y-85010380D02*
X126745952Y-84010380D01*
X126650714Y-84153238D01*
X126555476Y-84248476D01*
X126460238Y-84296095D01*
%TO.C,C3*%
X140803333Y-88241142D02*
X140755714Y-88288761D01*
X140612857Y-88336380D01*
X140517619Y-88336380D01*
X140374761Y-88288761D01*
X140279523Y-88193523D01*
X140231904Y-88098285D01*
X140184285Y-87907809D01*
X140184285Y-87764952D01*
X140231904Y-87574476D01*
X140279523Y-87479238D01*
X140374761Y-87384000D01*
X140517619Y-87336380D01*
X140612857Y-87336380D01*
X140755714Y-87384000D01*
X140803333Y-87431619D01*
X141136666Y-87336380D02*
X141755714Y-87336380D01*
X141422380Y-87717333D01*
X141565238Y-87717333D01*
X141660476Y-87764952D01*
X141708095Y-87812571D01*
X141755714Y-87907809D01*
X141755714Y-88145904D01*
X141708095Y-88241142D01*
X141660476Y-88288761D01*
X141565238Y-88336380D01*
X141279523Y-88336380D01*
X141184285Y-88288761D01*
X141136666Y-88241142D01*
%TO.C,H4*%
X164155380Y-66928904D02*
X163155380Y-66928904D01*
X163631571Y-66928904D02*
X163631571Y-66357476D01*
X164155380Y-66357476D02*
X163155380Y-66357476D01*
X163488714Y-65452714D02*
X164155380Y-65452714D01*
X163107761Y-65690809D02*
X163822047Y-65928904D01*
X163822047Y-65309857D01*
%TO.C,J11*%
X156024805Y-67874355D02*
X155519729Y-68379431D01*
X155385042Y-68446774D01*
X155250355Y-68446774D01*
X155115668Y-68379431D01*
X155048324Y-68312087D01*
X156024805Y-69288568D02*
X155620744Y-68884507D01*
X155822774Y-69086538D02*
X156529881Y-68379431D01*
X156361522Y-68413103D01*
X156226835Y-68413103D01*
X156125820Y-68379431D01*
X156698240Y-69962003D02*
X156294179Y-69557942D01*
X156496209Y-69759973D02*
X157203316Y-69052866D01*
X157034957Y-69086538D01*
X156900270Y-69086538D01*
X156799255Y-69052866D01*
%TO.C,H2*%
X120523095Y-109164380D02*
X120523095Y-108164380D01*
X120523095Y-108640571D02*
X121094523Y-108640571D01*
X121094523Y-109164380D02*
X121094523Y-108164380D01*
X121523095Y-108259619D02*
X121570714Y-108212000D01*
X121665952Y-108164380D01*
X121904047Y-108164380D01*
X121999285Y-108212000D01*
X122046904Y-108259619D01*
X122094523Y-108354857D01*
X122094523Y-108450095D01*
X122046904Y-108592952D01*
X121475476Y-109164380D01*
X122094523Y-109164380D01*
%TO.C,U2*%
X133223095Y-86828380D02*
X133223095Y-87637904D01*
X133270714Y-87733142D01*
X133318333Y-87780761D01*
X133413571Y-87828380D01*
X133604047Y-87828380D01*
X133699285Y-87780761D01*
X133746904Y-87733142D01*
X133794523Y-87637904D01*
X133794523Y-86828380D01*
X134223095Y-86923619D02*
X134270714Y-86876000D01*
X134365952Y-86828380D01*
X134604047Y-86828380D01*
X134699285Y-86876000D01*
X134746904Y-86923619D01*
X134794523Y-87018857D01*
X134794523Y-87114095D01*
X134746904Y-87256952D01*
X134175476Y-87828380D01*
X134794523Y-87828380D01*
%TO.C,U1*%
X143272380Y-92709904D02*
X144081904Y-92709904D01*
X144177142Y-92662285D01*
X144224761Y-92614666D01*
X144272380Y-92519428D01*
X144272380Y-92328952D01*
X144224761Y-92233714D01*
X144177142Y-92186095D01*
X144081904Y-92138476D01*
X143272380Y-92138476D01*
X144272380Y-91138476D02*
X144272380Y-91709904D01*
X144272380Y-91424190D02*
X143272380Y-91424190D01*
X143415238Y-91519428D01*
X143510476Y-91614666D01*
X143558095Y-91709904D01*
%TO.C,R8*%
X127976333Y-88971380D02*
X127643000Y-88495190D01*
X127404904Y-88971380D02*
X127404904Y-87971380D01*
X127785857Y-87971380D01*
X127881095Y-88019000D01*
X127928714Y-88066619D01*
X127976333Y-88161857D01*
X127976333Y-88304714D01*
X127928714Y-88399952D01*
X127881095Y-88447571D01*
X127785857Y-88495190D01*
X127404904Y-88495190D01*
X128547761Y-88399952D02*
X128452523Y-88352333D01*
X128404904Y-88304714D01*
X128357285Y-88209476D01*
X128357285Y-88161857D01*
X128404904Y-88066619D01*
X128452523Y-88019000D01*
X128547761Y-87971380D01*
X128738238Y-87971380D01*
X128833476Y-88019000D01*
X128881095Y-88066619D01*
X128928714Y-88161857D01*
X128928714Y-88209476D01*
X128881095Y-88304714D01*
X128833476Y-88352333D01*
X128738238Y-88399952D01*
X128547761Y-88399952D01*
X128452523Y-88447571D01*
X128404904Y-88495190D01*
X128357285Y-88590428D01*
X128357285Y-88780904D01*
X128404904Y-88876142D01*
X128452523Y-88923761D01*
X128547761Y-88971380D01*
X128738238Y-88971380D01*
X128833476Y-88923761D01*
X128881095Y-88876142D01*
X128928714Y-88780904D01*
X128928714Y-88590428D01*
X128881095Y-88495190D01*
X128833476Y-88447571D01*
X128738238Y-88399952D01*
%TO.C,R7*%
X136358333Y-95194380D02*
X136025000Y-94718190D01*
X135786904Y-95194380D02*
X135786904Y-94194380D01*
X136167857Y-94194380D01*
X136263095Y-94242000D01*
X136310714Y-94289619D01*
X136358333Y-94384857D01*
X136358333Y-94527714D01*
X136310714Y-94622952D01*
X136263095Y-94670571D01*
X136167857Y-94718190D01*
X135786904Y-94718190D01*
X136691666Y-94194380D02*
X137358333Y-94194380D01*
X136929761Y-95194380D01*
%TO.C,R6*%
X142438380Y-96686666D02*
X141962190Y-97020000D01*
X142438380Y-97258095D02*
X141438380Y-97258095D01*
X141438380Y-96877142D01*
X141486000Y-96781904D01*
X141533619Y-96734285D01*
X141628857Y-96686666D01*
X141771714Y-96686666D01*
X141866952Y-96734285D01*
X141914571Y-96781904D01*
X141962190Y-96877142D01*
X141962190Y-97258095D01*
X141438380Y-95829523D02*
X141438380Y-96020000D01*
X141486000Y-96115238D01*
X141533619Y-96162857D01*
X141676476Y-96258095D01*
X141866952Y-96305714D01*
X142247904Y-96305714D01*
X142343142Y-96258095D01*
X142390761Y-96210476D01*
X142438380Y-96115238D01*
X142438380Y-95924761D01*
X142390761Y-95829523D01*
X142343142Y-95781904D01*
X142247904Y-95734285D01*
X142009809Y-95734285D01*
X141914571Y-95781904D01*
X141866952Y-95829523D01*
X141819333Y-95924761D01*
X141819333Y-96115238D01*
X141866952Y-96210476D01*
X141914571Y-96258095D01*
X142009809Y-96305714D01*
%TO.C,R5*%
X143851333Y-74747380D02*
X143518000Y-74271190D01*
X143279904Y-74747380D02*
X143279904Y-73747380D01*
X143660857Y-73747380D01*
X143756095Y-73795000D01*
X143803714Y-73842619D01*
X143851333Y-73937857D01*
X143851333Y-74080714D01*
X143803714Y-74175952D01*
X143756095Y-74223571D01*
X143660857Y-74271190D01*
X143279904Y-74271190D01*
X144756095Y-73747380D02*
X144279904Y-73747380D01*
X144232285Y-74223571D01*
X144279904Y-74175952D01*
X144375142Y-74128333D01*
X144613238Y-74128333D01*
X144708476Y-74175952D01*
X144756095Y-74223571D01*
X144803714Y-74318809D01*
X144803714Y-74556904D01*
X144756095Y-74652142D01*
X144708476Y-74699761D01*
X144613238Y-74747380D01*
X144375142Y-74747380D01*
X144279904Y-74699761D01*
X144232285Y-74652142D01*
%TO.C,R4*%
X122372380Y-87796666D02*
X121896190Y-88130000D01*
X122372380Y-88368095D02*
X121372380Y-88368095D01*
X121372380Y-87987142D01*
X121420000Y-87891904D01*
X121467619Y-87844285D01*
X121562857Y-87796666D01*
X121705714Y-87796666D01*
X121800952Y-87844285D01*
X121848571Y-87891904D01*
X121896190Y-87987142D01*
X121896190Y-88368095D01*
X121705714Y-86939523D02*
X122372380Y-86939523D01*
X121324761Y-87177619D02*
X122039047Y-87415714D01*
X122039047Y-86796666D01*
%TO.C,R3*%
X136612333Y-104338380D02*
X136279000Y-103862190D01*
X136040904Y-104338380D02*
X136040904Y-103338380D01*
X136421857Y-103338380D01*
X136517095Y-103386000D01*
X136564714Y-103433619D01*
X136612333Y-103528857D01*
X136612333Y-103671714D01*
X136564714Y-103766952D01*
X136517095Y-103814571D01*
X136421857Y-103862190D01*
X136040904Y-103862190D01*
X136945666Y-103338380D02*
X137564714Y-103338380D01*
X137231380Y-103719333D01*
X137374238Y-103719333D01*
X137469476Y-103766952D01*
X137517095Y-103814571D01*
X137564714Y-103909809D01*
X137564714Y-104147904D01*
X137517095Y-104243142D01*
X137469476Y-104290761D01*
X137374238Y-104338380D01*
X137088523Y-104338380D01*
X136993285Y-104290761D01*
X136945666Y-104243142D01*
%TO.C,R2*%
X158948380Y-82843666D02*
X158472190Y-83177000D01*
X158948380Y-83415095D02*
X157948380Y-83415095D01*
X157948380Y-83034142D01*
X157996000Y-82938904D01*
X158043619Y-82891285D01*
X158138857Y-82843666D01*
X158281714Y-82843666D01*
X158376952Y-82891285D01*
X158424571Y-82938904D01*
X158472190Y-83034142D01*
X158472190Y-83415095D01*
X158043619Y-82462714D02*
X157996000Y-82415095D01*
X157948380Y-82319857D01*
X157948380Y-82081761D01*
X157996000Y-81986523D01*
X158043619Y-81938904D01*
X158138857Y-81891285D01*
X158234095Y-81891285D01*
X158376952Y-81938904D01*
X158948380Y-82510333D01*
X158948380Y-81891285D01*
%TO.C,R1*%
X142327333Y-67000380D02*
X141994000Y-66524190D01*
X141755904Y-67000380D02*
X141755904Y-66000380D01*
X142136857Y-66000380D01*
X142232095Y-66048000D01*
X142279714Y-66095619D01*
X142327333Y-66190857D01*
X142327333Y-66333714D01*
X142279714Y-66428952D01*
X142232095Y-66476571D01*
X142136857Y-66524190D01*
X141755904Y-66524190D01*
X143279714Y-67000380D02*
X142708285Y-67000380D01*
X142994000Y-67000380D02*
X142994000Y-66000380D01*
X142898761Y-66143238D01*
X142803523Y-66238476D01*
X142708285Y-66286095D01*
%TO.C,L1*%
X139787333Y-91765380D02*
X139311142Y-91765380D01*
X139311142Y-90765380D01*
X140644476Y-91765380D02*
X140073047Y-91765380D01*
X140358761Y-91765380D02*
X140358761Y-90765380D01*
X140263523Y-90908238D01*
X140168285Y-91003476D01*
X140073047Y-91051095D01*
%TO.C,H3*%
X157861095Y-109291380D02*
X157861095Y-108291380D01*
X157861095Y-108767571D02*
X158432523Y-108767571D01*
X158432523Y-109291380D02*
X158432523Y-108291380D01*
X158813476Y-108291380D02*
X159432523Y-108291380D01*
X159099190Y-108672333D01*
X159242047Y-108672333D01*
X159337285Y-108719952D01*
X159384904Y-108767571D01*
X159432523Y-108862809D01*
X159432523Y-109100904D01*
X159384904Y-109196142D01*
X159337285Y-109243761D01*
X159242047Y-109291380D01*
X158956333Y-109291380D01*
X158861095Y-109243761D01*
X158813476Y-109196142D01*
%TO.C,H1*%
X116784380Y-67055904D02*
X115784380Y-67055904D01*
X116260571Y-67055904D02*
X116260571Y-66484476D01*
X116784380Y-66484476D02*
X115784380Y-66484476D01*
X116784380Y-65484476D02*
X116784380Y-66055904D01*
X116784380Y-65770190D02*
X115784380Y-65770190D01*
X115927238Y-65865428D01*
X116022476Y-65960666D01*
X116070095Y-66055904D01*
%TO.C,D7*%
X128928904Y-85923380D02*
X128928904Y-84923380D01*
X129167000Y-84923380D01*
X129309857Y-84971000D01*
X129405095Y-85066238D01*
X129452714Y-85161476D01*
X129500333Y-85351952D01*
X129500333Y-85494809D01*
X129452714Y-85685285D01*
X129405095Y-85780523D01*
X129309857Y-85875761D01*
X129167000Y-85923380D01*
X128928904Y-85923380D01*
X129833666Y-84923380D02*
X130500333Y-84923380D01*
X130071761Y-85923380D01*
%TO.C,D6*%
X143279904Y-84145380D02*
X143279904Y-83145380D01*
X143518000Y-83145380D01*
X143660857Y-83193000D01*
X143756095Y-83288238D01*
X143803714Y-83383476D01*
X143851333Y-83573952D01*
X143851333Y-83716809D01*
X143803714Y-83907285D01*
X143756095Y-84002523D01*
X143660857Y-84097761D01*
X143518000Y-84145380D01*
X143279904Y-84145380D01*
X144708476Y-83145380D02*
X144518000Y-83145380D01*
X144422761Y-83193000D01*
X144375142Y-83240619D01*
X144279904Y-83383476D01*
X144232285Y-83573952D01*
X144232285Y-83954904D01*
X144279904Y-84050142D01*
X144327523Y-84097761D01*
X144422761Y-84145380D01*
X144613238Y-84145380D01*
X144708476Y-84097761D01*
X144756095Y-84050142D01*
X144803714Y-83954904D01*
X144803714Y-83716809D01*
X144756095Y-83621571D01*
X144708476Y-83573952D01*
X144613238Y-83526333D01*
X144422761Y-83526333D01*
X144327523Y-83573952D01*
X144279904Y-83621571D01*
X144232285Y-83716809D01*
%TO.C,D5*%
X143279904Y-76271380D02*
X143279904Y-75271380D01*
X143518000Y-75271380D01*
X143660857Y-75319000D01*
X143756095Y-75414238D01*
X143803714Y-75509476D01*
X143851333Y-75699952D01*
X143851333Y-75842809D01*
X143803714Y-76033285D01*
X143756095Y-76128523D01*
X143660857Y-76223761D01*
X143518000Y-76271380D01*
X143279904Y-76271380D01*
X144756095Y-75271380D02*
X144279904Y-75271380D01*
X144232285Y-75747571D01*
X144279904Y-75699952D01*
X144375142Y-75652333D01*
X144613238Y-75652333D01*
X144708476Y-75699952D01*
X144756095Y-75747571D01*
X144803714Y-75842809D01*
X144803714Y-76080904D01*
X144756095Y-76176142D01*
X144708476Y-76223761D01*
X144613238Y-76271380D01*
X144375142Y-76271380D01*
X144279904Y-76223761D01*
X144232285Y-76176142D01*
%TO.C,D4*%
X120721380Y-88368095D02*
X119721380Y-88368095D01*
X119721380Y-88130000D01*
X119769000Y-87987142D01*
X119864238Y-87891904D01*
X119959476Y-87844285D01*
X120149952Y-87796666D01*
X120292809Y-87796666D01*
X120483285Y-87844285D01*
X120578523Y-87891904D01*
X120673761Y-87987142D01*
X120721380Y-88130000D01*
X120721380Y-88368095D01*
X120054714Y-86939523D02*
X120721380Y-86939523D01*
X119673761Y-87177619D02*
X120388047Y-87415714D01*
X120388047Y-86796666D01*
%TO.C,D3*%
X136040904Y-105862380D02*
X136040904Y-104862380D01*
X136279000Y-104862380D01*
X136421857Y-104910000D01*
X136517095Y-105005238D01*
X136564714Y-105100476D01*
X136612333Y-105290952D01*
X136612333Y-105433809D01*
X136564714Y-105624285D01*
X136517095Y-105719523D01*
X136421857Y-105814761D01*
X136279000Y-105862380D01*
X136040904Y-105862380D01*
X136945666Y-104862380D02*
X137564714Y-104862380D01*
X137231380Y-105243333D01*
X137374238Y-105243333D01*
X137469476Y-105290952D01*
X137517095Y-105338571D01*
X137564714Y-105433809D01*
X137564714Y-105671904D01*
X137517095Y-105767142D01*
X137469476Y-105814761D01*
X137374238Y-105862380D01*
X137088523Y-105862380D01*
X136993285Y-105814761D01*
X136945666Y-105767142D01*
%TO.C,D2*%
X160472380Y-83415095D02*
X159472380Y-83415095D01*
X159472380Y-83177000D01*
X159520000Y-83034142D01*
X159615238Y-82938904D01*
X159710476Y-82891285D01*
X159900952Y-82843666D01*
X160043809Y-82843666D01*
X160234285Y-82891285D01*
X160329523Y-82938904D01*
X160424761Y-83034142D01*
X160472380Y-83177000D01*
X160472380Y-83415095D01*
X159567619Y-82462714D02*
X159520000Y-82415095D01*
X159472380Y-82319857D01*
X159472380Y-82081761D01*
X159520000Y-81986523D01*
X159567619Y-81938904D01*
X159662857Y-81891285D01*
X159758095Y-81891285D01*
X159900952Y-81938904D01*
X160472380Y-82510333D01*
X160472380Y-81891285D01*
%TO.C,D1*%
X141755904Y-65095380D02*
X141755904Y-64095380D01*
X141994000Y-64095380D01*
X142136857Y-64143000D01*
X142232095Y-64238238D01*
X142279714Y-64333476D01*
X142327333Y-64523952D01*
X142327333Y-64666809D01*
X142279714Y-64857285D01*
X142232095Y-64952523D01*
X142136857Y-65047761D01*
X141994000Y-65095380D01*
X141755904Y-65095380D01*
X143279714Y-65095380D02*
X142708285Y-65095380D01*
X142994000Y-65095380D02*
X142994000Y-64095380D01*
X142898761Y-64238238D01*
X142803523Y-64333476D01*
X142708285Y-64381095D01*
%TO.C,CH4*%
X116784523Y-88749142D02*
X116736904Y-88796761D01*
X116594047Y-88844380D01*
X116498809Y-88844380D01*
X116355952Y-88796761D01*
X116260714Y-88701523D01*
X116213095Y-88606285D01*
X116165476Y-88415809D01*
X116165476Y-88272952D01*
X116213095Y-88082476D01*
X116260714Y-87987238D01*
X116355952Y-87892000D01*
X116498809Y-87844380D01*
X116594047Y-87844380D01*
X116736904Y-87892000D01*
X116784523Y-87939619D01*
X117213095Y-88844380D02*
X117213095Y-87844380D01*
X117213095Y-88320571D02*
X117784523Y-88320571D01*
X117784523Y-88844380D02*
X117784523Y-87844380D01*
X118689285Y-88177714D02*
X118689285Y-88844380D01*
X118451190Y-87796761D02*
X118213095Y-88511047D01*
X118832142Y-88511047D01*
%TO.C,CH3*%
X143740142Y-109021476D02*
X143787761Y-109069095D01*
X143835380Y-109211952D01*
X143835380Y-109307190D01*
X143787761Y-109450047D01*
X143692523Y-109545285D01*
X143597285Y-109592904D01*
X143406809Y-109640523D01*
X143263952Y-109640523D01*
X143073476Y-109592904D01*
X142978238Y-109545285D01*
X142883000Y-109450047D01*
X142835380Y-109307190D01*
X142835380Y-109211952D01*
X142883000Y-109069095D01*
X142930619Y-109021476D01*
X143835380Y-108592904D02*
X142835380Y-108592904D01*
X143311571Y-108592904D02*
X143311571Y-108021476D01*
X143835380Y-108021476D02*
X142835380Y-108021476D01*
X142835380Y-107640523D02*
X142835380Y-107021476D01*
X143216333Y-107354809D01*
X143216333Y-107211952D01*
X143263952Y-107116714D01*
X143311571Y-107069095D01*
X143406809Y-107021476D01*
X143644904Y-107021476D01*
X143740142Y-107069095D01*
X143787761Y-107116714D01*
X143835380Y-107211952D01*
X143835380Y-107497666D01*
X143787761Y-107592904D01*
X143740142Y-107640523D01*
%TO.C,CH2*%
X162504523Y-88495142D02*
X162456904Y-88542761D01*
X162314047Y-88590380D01*
X162218809Y-88590380D01*
X162075952Y-88542761D01*
X161980714Y-88447523D01*
X161933095Y-88352285D01*
X161885476Y-88161809D01*
X161885476Y-88018952D01*
X161933095Y-87828476D01*
X161980714Y-87733238D01*
X162075952Y-87638000D01*
X162218809Y-87590380D01*
X162314047Y-87590380D01*
X162456904Y-87638000D01*
X162504523Y-87685619D01*
X162933095Y-88590380D02*
X162933095Y-87590380D01*
X162933095Y-88066571D02*
X163504523Y-88066571D01*
X163504523Y-88590380D02*
X163504523Y-87590380D01*
X163933095Y-87685619D02*
X163980714Y-87638000D01*
X164075952Y-87590380D01*
X164314047Y-87590380D01*
X164409285Y-87638000D01*
X164456904Y-87685619D01*
X164504523Y-87780857D01*
X164504523Y-87876095D01*
X164456904Y-88018952D01*
X163885476Y-88590380D01*
X164504523Y-88590380D01*
%TO.C,CH1*%
X143613142Y-62920476D02*
X143660761Y-62968095D01*
X143708380Y-63110952D01*
X143708380Y-63206190D01*
X143660761Y-63349047D01*
X143565523Y-63444285D01*
X143470285Y-63491904D01*
X143279809Y-63539523D01*
X143136952Y-63539523D01*
X142946476Y-63491904D01*
X142851238Y-63444285D01*
X142756000Y-63349047D01*
X142708380Y-63206190D01*
X142708380Y-63110952D01*
X142756000Y-62968095D01*
X142803619Y-62920476D01*
X143708380Y-62491904D02*
X142708380Y-62491904D01*
X143184571Y-62491904D02*
X143184571Y-61920476D01*
X143708380Y-61920476D02*
X142708380Y-61920476D01*
X143708380Y-60920476D02*
X143708380Y-61491904D01*
X143708380Y-61206190D02*
X142708380Y-61206190D01*
X142851238Y-61301428D01*
X142946476Y-61396666D01*
X142994095Y-61491904D01*
%TO.C,C14*%
X137644142Y-78571893D02*
X137691761Y-78619512D01*
X137739380Y-78762369D01*
X137739380Y-78857607D01*
X137691761Y-79000464D01*
X137596523Y-79095702D01*
X137501285Y-79143321D01*
X137310809Y-79190940D01*
X137167952Y-79190940D01*
X136977476Y-79143321D01*
X136882238Y-79095702D01*
X136787000Y-79000464D01*
X136739380Y-78857607D01*
X136739380Y-78762369D01*
X136787000Y-78619512D01*
X136834619Y-78571893D01*
X137739380Y-77619512D02*
X137739380Y-78190940D01*
X137739380Y-77905226D02*
X136739380Y-77905226D01*
X136882238Y-78000464D01*
X136977476Y-78095702D01*
X137025095Y-78190940D01*
X137072714Y-76762369D02*
X137739380Y-76762369D01*
X136691761Y-77000464D02*
X137406047Y-77238559D01*
X137406047Y-76619512D01*
%TO.C,C13*%
X135993142Y-78536368D02*
X136040761Y-78583987D01*
X136088380Y-78726844D01*
X136088380Y-78822082D01*
X136040761Y-78964939D01*
X135945523Y-79060177D01*
X135850285Y-79107796D01*
X135659809Y-79155415D01*
X135516952Y-79155415D01*
X135326476Y-79107796D01*
X135231238Y-79060177D01*
X135136000Y-78964939D01*
X135088380Y-78822082D01*
X135088380Y-78726844D01*
X135136000Y-78583987D01*
X135183619Y-78536368D01*
X136088380Y-77583987D02*
X136088380Y-78155415D01*
X136088380Y-77869701D02*
X135088380Y-77869701D01*
X135231238Y-77964939D01*
X135326476Y-78060177D01*
X135374095Y-78155415D01*
X135088380Y-77250653D02*
X135088380Y-76631606D01*
X135469333Y-76964939D01*
X135469333Y-76822082D01*
X135516952Y-76726844D01*
X135564571Y-76679225D01*
X135659809Y-76631606D01*
X135897904Y-76631606D01*
X135993142Y-76679225D01*
X136040761Y-76726844D01*
X136088380Y-76822082D01*
X136088380Y-77107796D01*
X136040761Y-77203034D01*
X135993142Y-77250653D01*
%TO.C,C12*%
X132818142Y-78620857D02*
X132865761Y-78668476D01*
X132913380Y-78811333D01*
X132913380Y-78906571D01*
X132865761Y-79049428D01*
X132770523Y-79144666D01*
X132675285Y-79192285D01*
X132484809Y-79239904D01*
X132341952Y-79239904D01*
X132151476Y-79192285D01*
X132056238Y-79144666D01*
X131961000Y-79049428D01*
X131913380Y-78906571D01*
X131913380Y-78811333D01*
X131961000Y-78668476D01*
X132008619Y-78620857D01*
X132913380Y-77668476D02*
X132913380Y-78239904D01*
X132913380Y-77954190D02*
X131913380Y-77954190D01*
X132056238Y-78049428D01*
X132151476Y-78144666D01*
X132199095Y-78239904D01*
X132008619Y-77287523D02*
X131961000Y-77239904D01*
X131913380Y-77144666D01*
X131913380Y-76906571D01*
X131961000Y-76811333D01*
X132008619Y-76763714D01*
X132103857Y-76716095D01*
X132199095Y-76716095D01*
X132341952Y-76763714D01*
X132913380Y-77335142D01*
X132913380Y-76716095D01*
%TO.C,C11*%
X134469142Y-78493857D02*
X134516761Y-78541476D01*
X134564380Y-78684333D01*
X134564380Y-78779571D01*
X134516761Y-78922428D01*
X134421523Y-79017666D01*
X134326285Y-79065285D01*
X134135809Y-79112904D01*
X133992952Y-79112904D01*
X133802476Y-79065285D01*
X133707238Y-79017666D01*
X133612000Y-78922428D01*
X133564380Y-78779571D01*
X133564380Y-78684333D01*
X133612000Y-78541476D01*
X133659619Y-78493857D01*
X134564380Y-77541476D02*
X134564380Y-78112904D01*
X134564380Y-77827190D02*
X133564380Y-77827190D01*
X133707238Y-77922428D01*
X133802476Y-78017666D01*
X133850095Y-78112904D01*
X134564380Y-76589095D02*
X134564380Y-77160523D01*
X134564380Y-76874809D02*
X133564380Y-76874809D01*
X133707238Y-76970047D01*
X133802476Y-77065285D01*
X133850095Y-77160523D01*
%TO.C,C10*%
X140692142Y-78571893D02*
X140739761Y-78619512D01*
X140787380Y-78762369D01*
X140787380Y-78857607D01*
X140739761Y-79000464D01*
X140644523Y-79095702D01*
X140549285Y-79143321D01*
X140358809Y-79190940D01*
X140215952Y-79190940D01*
X140025476Y-79143321D01*
X139930238Y-79095702D01*
X139835000Y-79000464D01*
X139787380Y-78857607D01*
X139787380Y-78762369D01*
X139835000Y-78619512D01*
X139882619Y-78571893D01*
X140787380Y-77619512D02*
X140787380Y-78190940D01*
X140787380Y-77905226D02*
X139787380Y-77905226D01*
X139930238Y-78000464D01*
X140025476Y-78095702D01*
X140073095Y-78190940D01*
X139787380Y-77000464D02*
X139787380Y-76905226D01*
X139835000Y-76809988D01*
X139882619Y-76762369D01*
X139977857Y-76714750D01*
X140168333Y-76667131D01*
X140406428Y-76667131D01*
X140596904Y-76714750D01*
X140692142Y-76762369D01*
X140739761Y-76809988D01*
X140787380Y-76905226D01*
X140787380Y-77000464D01*
X140739761Y-77095702D01*
X140692142Y-77143321D01*
X140596904Y-77190940D01*
X140406428Y-77238559D01*
X140168333Y-77238559D01*
X139977857Y-77190940D01*
X139882619Y-77143321D01*
X139835000Y-77095702D01*
X139787380Y-77000464D01*
%TO.C,C9*%
X137644142Y-81446666D02*
X137691761Y-81494285D01*
X137739380Y-81637142D01*
X137739380Y-81732380D01*
X137691761Y-81875238D01*
X137596523Y-81970476D01*
X137501285Y-82018095D01*
X137310809Y-82065714D01*
X137167952Y-82065714D01*
X136977476Y-82018095D01*
X136882238Y-81970476D01*
X136787000Y-81875238D01*
X136739380Y-81732380D01*
X136739380Y-81637142D01*
X136787000Y-81494285D01*
X136834619Y-81446666D01*
X137739380Y-80970476D02*
X137739380Y-80780000D01*
X137691761Y-80684761D01*
X137644142Y-80637142D01*
X137501285Y-80541904D01*
X137310809Y-80494285D01*
X136929857Y-80494285D01*
X136834619Y-80541904D01*
X136787000Y-80589523D01*
X136739380Y-80684761D01*
X136739380Y-80875238D01*
X136787000Y-80970476D01*
X136834619Y-81018095D01*
X136929857Y-81065714D01*
X137167952Y-81065714D01*
X137263190Y-81018095D01*
X137310809Y-80970476D01*
X137358428Y-80875238D01*
X137358428Y-80684761D01*
X137310809Y-80589523D01*
X137263190Y-80541904D01*
X137167952Y-80494285D01*
%TO.C,C8*%
X135993142Y-81446666D02*
X136040761Y-81494285D01*
X136088380Y-81637142D01*
X136088380Y-81732380D01*
X136040761Y-81875238D01*
X135945523Y-81970476D01*
X135850285Y-82018095D01*
X135659809Y-82065714D01*
X135516952Y-82065714D01*
X135326476Y-82018095D01*
X135231238Y-81970476D01*
X135136000Y-81875238D01*
X135088380Y-81732380D01*
X135088380Y-81637142D01*
X135136000Y-81494285D01*
X135183619Y-81446666D01*
X135516952Y-80875238D02*
X135469333Y-80970476D01*
X135421714Y-81018095D01*
X135326476Y-81065714D01*
X135278857Y-81065714D01*
X135183619Y-81018095D01*
X135136000Y-80970476D01*
X135088380Y-80875238D01*
X135088380Y-80684761D01*
X135136000Y-80589523D01*
X135183619Y-80541904D01*
X135278857Y-80494285D01*
X135326476Y-80494285D01*
X135421714Y-80541904D01*
X135469333Y-80589523D01*
X135516952Y-80684761D01*
X135516952Y-80875238D01*
X135564571Y-80970476D01*
X135612190Y-81018095D01*
X135707428Y-81065714D01*
X135897904Y-81065714D01*
X135993142Y-81018095D01*
X136040761Y-80970476D01*
X136088380Y-80875238D01*
X136088380Y-80684761D01*
X136040761Y-80589523D01*
X135993142Y-80541904D01*
X135897904Y-80494285D01*
X135707428Y-80494285D01*
X135612190Y-80541904D01*
X135564571Y-80589523D01*
X135516952Y-80684761D01*
%TO.C,C7*%
X134342142Y-81488600D02*
X134389761Y-81536219D01*
X134437380Y-81679076D01*
X134437380Y-81774314D01*
X134389761Y-81917172D01*
X134294523Y-82012410D01*
X134199285Y-82060029D01*
X134008809Y-82107648D01*
X133865952Y-82107648D01*
X133675476Y-82060029D01*
X133580238Y-82012410D01*
X133485000Y-81917172D01*
X133437380Y-81774314D01*
X133437380Y-81679076D01*
X133485000Y-81536219D01*
X133532619Y-81488600D01*
X133437380Y-81155267D02*
X133437380Y-80488600D01*
X134437380Y-80917172D01*
%TO.C,C6*%
X132818142Y-81446666D02*
X132865761Y-81494285D01*
X132913380Y-81637142D01*
X132913380Y-81732380D01*
X132865761Y-81875238D01*
X132770523Y-81970476D01*
X132675285Y-82018095D01*
X132484809Y-82065714D01*
X132341952Y-82065714D01*
X132151476Y-82018095D01*
X132056238Y-81970476D01*
X131961000Y-81875238D01*
X131913380Y-81732380D01*
X131913380Y-81637142D01*
X131961000Y-81494285D01*
X132008619Y-81446666D01*
X131913380Y-80589523D02*
X131913380Y-80780000D01*
X131961000Y-80875238D01*
X132008619Y-80922857D01*
X132151476Y-81018095D01*
X132341952Y-81065714D01*
X132722904Y-81065714D01*
X132818142Y-81018095D01*
X132865761Y-80970476D01*
X132913380Y-80875238D01*
X132913380Y-80684761D01*
X132865761Y-80589523D01*
X132818142Y-80541904D01*
X132722904Y-80494285D01*
X132484809Y-80494285D01*
X132389571Y-80541904D01*
X132341952Y-80589523D01*
X132294333Y-80684761D01*
X132294333Y-80875238D01*
X132341952Y-80970476D01*
X132389571Y-81018095D01*
X132484809Y-81065714D01*
%TO.C,C5*%
X140692142Y-81488600D02*
X140739761Y-81536219D01*
X140787380Y-81679076D01*
X140787380Y-81774314D01*
X140739761Y-81917172D01*
X140644523Y-82012410D01*
X140549285Y-82060029D01*
X140358809Y-82107648D01*
X140215952Y-82107648D01*
X140025476Y-82060029D01*
X139930238Y-82012410D01*
X139835000Y-81917172D01*
X139787380Y-81774314D01*
X139787380Y-81679076D01*
X139835000Y-81536219D01*
X139882619Y-81488600D01*
X139787380Y-80583838D02*
X139787380Y-81060029D01*
X140263571Y-81107648D01*
X140215952Y-81060029D01*
X140168333Y-80964791D01*
X140168333Y-80726695D01*
X140215952Y-80631457D01*
X140263571Y-80583838D01*
X140358809Y-80536219D01*
X140596904Y-80536219D01*
X140692142Y-80583838D01*
X140739761Y-80631457D01*
X140787380Y-80726695D01*
X140787380Y-80964791D01*
X140739761Y-81060029D01*
X140692142Y-81107648D01*
%TO.C,C4*%
X136358333Y-93448142D02*
X136310714Y-93495761D01*
X136167857Y-93543380D01*
X136072619Y-93543380D01*
X135929761Y-93495761D01*
X135834523Y-93400523D01*
X135786904Y-93305285D01*
X135739285Y-93114809D01*
X135739285Y-92971952D01*
X135786904Y-92781476D01*
X135834523Y-92686238D01*
X135929761Y-92591000D01*
X136072619Y-92543380D01*
X136167857Y-92543380D01*
X136310714Y-92591000D01*
X136358333Y-92638619D01*
X137215476Y-92876714D02*
X137215476Y-93543380D01*
X136977380Y-92495761D02*
X136739285Y-93210047D01*
X137358333Y-93210047D01*
%TO.C,C2*%
X143994142Y-96559666D02*
X144041761Y-96607285D01*
X144089380Y-96750142D01*
X144089380Y-96845380D01*
X144041761Y-96988238D01*
X143946523Y-97083476D01*
X143851285Y-97131095D01*
X143660809Y-97178714D01*
X143517952Y-97178714D01*
X143327476Y-97131095D01*
X143232238Y-97083476D01*
X143137000Y-96988238D01*
X143089380Y-96845380D01*
X143089380Y-96750142D01*
X143137000Y-96607285D01*
X143184619Y-96559666D01*
X143184619Y-96178714D02*
X143137000Y-96131095D01*
X143089380Y-96035857D01*
X143089380Y-95797761D01*
X143137000Y-95702523D01*
X143184619Y-95654904D01*
X143279857Y-95607285D01*
X143375095Y-95607285D01*
X143517952Y-95654904D01*
X144089380Y-96226333D01*
X144089380Y-95607285D01*
%TO.C,C1*%
X150074333Y-87733142D02*
X150026714Y-87780761D01*
X149883857Y-87828380D01*
X149788619Y-87828380D01*
X149645761Y-87780761D01*
X149550523Y-87685523D01*
X149502904Y-87590285D01*
X149455285Y-87399809D01*
X149455285Y-87256952D01*
X149502904Y-87066476D01*
X149550523Y-86971238D01*
X149645761Y-86876000D01*
X149788619Y-86828380D01*
X149883857Y-86828380D01*
X150026714Y-86876000D01*
X150074333Y-86923619D01*
X151026714Y-87828380D02*
X150455285Y-87828380D01*
X150741000Y-87828380D02*
X150741000Y-86828380D01*
X150645761Y-86971238D01*
X150550523Y-87066476D01*
X150455285Y-87114095D01*
%TD*%
M02*
