%TF.GenerationSoftware,KiCad,Pcbnew,(5.1.8-0-10_14)*%
%TF.CreationDate,2021-03-06T23:03:25+08:00*%
%TF.ProjectId,batt_board,62617474-5f62-46f6-9172-642e6b696361,v1.0.0*%
%TF.SameCoordinates,Original*%
%TF.FileFunction,Soldermask,Bot*%
%TF.FilePolarity,Negative*%
%FSLAX46Y46*%
G04 Gerber Fmt 4.6, Leading zero omitted, Abs format (unit mm)*
G04 Created by KiCad (PCBNEW (5.1.8-0-10_14)) date 2021-03-06 23:03:25*
%MOMM*%
%LPD*%
G01*
G04 APERTURE LIST*
%ADD10O,12.000000X8.000000*%
%ADD11R,1.700000X1.700000*%
%ADD12O,1.700000X1.700000*%
%ADD13O,8.000000X12.000000*%
%ADD14C,5.700000*%
%ADD15C,3.600000*%
G04 APERTURE END LIST*
D10*
%TO.C,J5*%
X116949200Y-93077200D03*
X116949200Y-76567200D03*
%TD*%
D11*
%TO.C,Receiver1*%
X134874000Y-70993000D03*
D12*
X137414000Y-70993000D03*
X139954000Y-70993000D03*
X142494000Y-70993000D03*
%TD*%
%TO.C,R13*%
G36*
G01*
X140252000Y-68817500D02*
X140252000Y-68342500D01*
G75*
G02*
X140489500Y-68105000I237500J0D01*
G01*
X140989500Y-68105000D01*
G75*
G02*
X141227000Y-68342500I0J-237500D01*
G01*
X141227000Y-68817500D01*
G75*
G02*
X140989500Y-69055000I-237500J0D01*
G01*
X140489500Y-69055000D01*
G75*
G02*
X140252000Y-68817500I0J237500D01*
G01*
G37*
G36*
G01*
X138427000Y-68817500D02*
X138427000Y-68342500D01*
G75*
G02*
X138664500Y-68105000I237500J0D01*
G01*
X139164500Y-68105000D01*
G75*
G02*
X139402000Y-68342500I0J-237500D01*
G01*
X139402000Y-68817500D01*
G75*
G02*
X139164500Y-69055000I-237500J0D01*
G01*
X138664500Y-69055000D01*
G75*
G02*
X138427000Y-68817500I0J237500D01*
G01*
G37*
%TD*%
%TO.C,R12*%
G36*
G01*
X139402000Y-66945500D02*
X139402000Y-67420500D01*
G75*
G02*
X139164500Y-67658000I-237500J0D01*
G01*
X138664500Y-67658000D01*
G75*
G02*
X138427000Y-67420500I0J237500D01*
G01*
X138427000Y-66945500D01*
G75*
G02*
X138664500Y-66708000I237500J0D01*
G01*
X139164500Y-66708000D01*
G75*
G02*
X139402000Y-66945500I0J-237500D01*
G01*
G37*
G36*
G01*
X141227000Y-66945500D02*
X141227000Y-67420500D01*
G75*
G02*
X140989500Y-67658000I-237500J0D01*
G01*
X140489500Y-67658000D01*
G75*
G02*
X140252000Y-67420500I0J237500D01*
G01*
X140252000Y-66945500D01*
G75*
G02*
X140489500Y-66708000I237500J0D01*
G01*
X140989500Y-66708000D01*
G75*
G02*
X141227000Y-66945500I0J-237500D01*
G01*
G37*
%TD*%
%TO.C,R11*%
G36*
G01*
X140252000Y-66023500D02*
X140252000Y-65548500D01*
G75*
G02*
X140489500Y-65311000I237500J0D01*
G01*
X140989500Y-65311000D01*
G75*
G02*
X141227000Y-65548500I0J-237500D01*
G01*
X141227000Y-66023500D01*
G75*
G02*
X140989500Y-66261000I-237500J0D01*
G01*
X140489500Y-66261000D01*
G75*
G02*
X140252000Y-66023500I0J237500D01*
G01*
G37*
G36*
G01*
X138427000Y-66023500D02*
X138427000Y-65548500D01*
G75*
G02*
X138664500Y-65311000I237500J0D01*
G01*
X139164500Y-65311000D01*
G75*
G02*
X139402000Y-65548500I0J-237500D01*
G01*
X139402000Y-66023500D01*
G75*
G02*
X139164500Y-66261000I-237500J0D01*
G01*
X138664500Y-66261000D01*
G75*
G02*
X138427000Y-66023500I0J237500D01*
G01*
G37*
%TD*%
%TO.C,R10*%
G36*
G01*
X132825500Y-70695000D02*
X132350500Y-70695000D01*
G75*
G02*
X132113000Y-70457500I0J237500D01*
G01*
X132113000Y-69957500D01*
G75*
G02*
X132350500Y-69720000I237500J0D01*
G01*
X132825500Y-69720000D01*
G75*
G02*
X133063000Y-69957500I0J-237500D01*
G01*
X133063000Y-70457500D01*
G75*
G02*
X132825500Y-70695000I-237500J0D01*
G01*
G37*
G36*
G01*
X132825500Y-72520000D02*
X132350500Y-72520000D01*
G75*
G02*
X132113000Y-72282500I0J237500D01*
G01*
X132113000Y-71782500D01*
G75*
G02*
X132350500Y-71545000I237500J0D01*
G01*
X132825500Y-71545000D01*
G75*
G02*
X133063000Y-71782500I0J-237500D01*
G01*
X133063000Y-72282500D01*
G75*
G02*
X132825500Y-72520000I-237500J0D01*
G01*
G37*
%TD*%
%TO.C,R9*%
G36*
G01*
X130826500Y-71545000D02*
X131301500Y-71545000D01*
G75*
G02*
X131539000Y-71782500I0J-237500D01*
G01*
X131539000Y-72282500D01*
G75*
G02*
X131301500Y-72520000I-237500J0D01*
G01*
X130826500Y-72520000D01*
G75*
G02*
X130589000Y-72282500I0J237500D01*
G01*
X130589000Y-71782500D01*
G75*
G02*
X130826500Y-71545000I237500J0D01*
G01*
G37*
G36*
G01*
X130826500Y-69720000D02*
X131301500Y-69720000D01*
G75*
G02*
X131539000Y-69957500I0J-237500D01*
G01*
X131539000Y-70457500D01*
G75*
G02*
X131301500Y-70695000I-237500J0D01*
G01*
X130826500Y-70695000D01*
G75*
G02*
X130589000Y-70457500I0J237500D01*
G01*
X130589000Y-69957500D01*
G75*
G02*
X130826500Y-69720000I237500J0D01*
G01*
G37*
%TD*%
%TO.C,J1*%
X126365000Y-76708000D03*
X126365000Y-79248000D03*
D11*
X126365000Y-81788000D03*
%TD*%
D13*
%TO.C,J2*%
X148077200Y-108050800D03*
X131567200Y-108050800D03*
%TD*%
D10*
%TO.C,J4*%
X161949200Y-93077200D03*
X161949200Y-76567200D03*
%TD*%
D13*
%TO.C,J3*%
X148077200Y-62050800D03*
X131567200Y-62050800D03*
%TD*%
D14*
%TO.C,H4*%
X160000000Y-65000000D03*
D15*
X160000000Y-65000000D03*
%TD*%
D14*
%TO.C,H2*%
X120000000Y-105000000D03*
D15*
X120000000Y-105000000D03*
%TD*%
D14*
%TO.C,H3*%
X160000000Y-105000000D03*
D15*
X160000000Y-105000000D03*
%TD*%
D14*
%TO.C,H1*%
X120000000Y-65000000D03*
D15*
X120000000Y-65000000D03*
%TD*%
D12*
%TO.C,CH4*%
X117475000Y-83820000D03*
D11*
X117475000Y-86360000D03*
%TD*%
D12*
%TO.C,CH3*%
X138532200Y-107950000D03*
D11*
X141072200Y-107950000D03*
%TD*%
D12*
%TO.C,CH2*%
X162560000Y-83820000D03*
D11*
X162560000Y-86360000D03*
%TD*%
D12*
%TO.C,CH1*%
X138430000Y-62230000D03*
D11*
X140970000Y-62230000D03*
%TD*%
M02*
