%TF.GenerationSoftware,KiCad,Pcbnew,(5.1.8-0-10_14)*%
%TF.CreationDate,2021-03-06T23:03:25+08:00*%
%TF.ProjectId,batt_board,62617474-5f62-46f6-9172-642e6b696361,v1.0.0*%
%TF.SameCoordinates,Original*%
%TF.FileFunction,Legend,Bot*%
%TF.FilePolarity,Positive*%
%FSLAX46Y46*%
G04 Gerber Fmt 4.6, Leading zero omitted, Abs format (unit mm)*
G04 Created by KiCad (PCBNEW (5.1.8-0-10_14)) date 2021-03-06 23:03:25*
%MOMM*%
%LPD*%
G01*
G04 APERTURE LIST*
%ADD10C,0.300000*%
%ADD11C,0.125000*%
%ADD12C,0.120000*%
%ADD13C,0.150000*%
G04 APERTURE END LIST*
D10*
X162496571Y-98317857D02*
X163639428Y-98317857D01*
X163068000Y-97746428D02*
X163068000Y-98889285D01*
X152590571Y-108350857D02*
X153733428Y-108350857D01*
X153162000Y-107779428D02*
X153162000Y-108922285D01*
X117411571Y-98063857D02*
X118554428Y-98063857D01*
X117983000Y-97492428D02*
X117983000Y-98635285D01*
X145732571Y-61106857D02*
X146875428Y-61106857D01*
X146304000Y-60535428D02*
X146304000Y-61678285D01*
D11*
X126110904Y-85472000D02*
X126206142Y-85392476D01*
X126349000Y-85392476D01*
X126491857Y-85472000D01*
X126587095Y-85631047D01*
X126634714Y-85790095D01*
X126682333Y-86108190D01*
X126682333Y-86346761D01*
X126634714Y-86664857D01*
X126587095Y-86823904D01*
X126491857Y-86982952D01*
X126349000Y-87062476D01*
X126253761Y-87062476D01*
X126110904Y-86982952D01*
X126063285Y-86903428D01*
X126063285Y-86346761D01*
X126253761Y-86346761D01*
X125634714Y-87062476D02*
X125634714Y-85392476D01*
X125063285Y-87062476D01*
X125063285Y-85392476D01*
X124587095Y-87062476D02*
X124587095Y-85392476D01*
X124349000Y-85392476D01*
X124206142Y-85472000D01*
X124110904Y-85631047D01*
X124063285Y-85790095D01*
X124015666Y-86108190D01*
X124015666Y-86346761D01*
X124063285Y-86664857D01*
X124110904Y-86823904D01*
X124206142Y-86982952D01*
X124349000Y-87062476D01*
X124587095Y-87062476D01*
X126039476Y-89533428D02*
X126087095Y-89612952D01*
X126229952Y-89692476D01*
X126325190Y-89692476D01*
X126468047Y-89612952D01*
X126563285Y-89453904D01*
X126610904Y-89294857D01*
X126658523Y-88976761D01*
X126658523Y-88738190D01*
X126610904Y-88420095D01*
X126563285Y-88261047D01*
X126468047Y-88102000D01*
X126325190Y-88022476D01*
X126229952Y-88022476D01*
X126087095Y-88102000D01*
X126039476Y-88181523D01*
X125610904Y-89692476D02*
X125610904Y-88022476D01*
X125610904Y-88817714D02*
X125039476Y-88817714D01*
X125039476Y-89692476D02*
X125039476Y-88022476D01*
X124658523Y-88022476D02*
X124039476Y-88022476D01*
X124372809Y-88658666D01*
X124229952Y-88658666D01*
X124134714Y-88738190D01*
X124087095Y-88817714D01*
X124039476Y-88976761D01*
X124039476Y-89374380D01*
X124087095Y-89533428D01*
X124134714Y-89612952D01*
X124229952Y-89692476D01*
X124515666Y-89692476D01*
X124610904Y-89612952D01*
X124658523Y-89533428D01*
X126039476Y-92163428D02*
X126087095Y-92242952D01*
X126229952Y-92322476D01*
X126325190Y-92322476D01*
X126468047Y-92242952D01*
X126563285Y-92083904D01*
X126610904Y-91924857D01*
X126658523Y-91606761D01*
X126658523Y-91368190D01*
X126610904Y-91050095D01*
X126563285Y-90891047D01*
X126468047Y-90732000D01*
X126325190Y-90652476D01*
X126229952Y-90652476D01*
X126087095Y-90732000D01*
X126039476Y-90811523D01*
X125610904Y-92322476D02*
X125610904Y-90652476D01*
X125610904Y-91447714D02*
X125039476Y-91447714D01*
X125039476Y-92322476D02*
X125039476Y-90652476D01*
X124134714Y-91209142D02*
X124134714Y-92322476D01*
X124372809Y-90572952D02*
X124610904Y-91765809D01*
X123991857Y-91765809D01*
X126134714Y-94952476D02*
X126134714Y-93282476D01*
X125563285Y-94952476D01*
X125563285Y-93282476D01*
X124515666Y-94793428D02*
X124563285Y-94872952D01*
X124706142Y-94952476D01*
X124801380Y-94952476D01*
X124944238Y-94872952D01*
X125039476Y-94713904D01*
X125087095Y-94554857D01*
X125134714Y-94236761D01*
X125134714Y-93998190D01*
X125087095Y-93680095D01*
X125039476Y-93521047D01*
X124944238Y-93362000D01*
X124801380Y-93282476D01*
X124706142Y-93282476D01*
X124563285Y-93362000D01*
X124515666Y-93441523D01*
X126134714Y-97582476D02*
X126134714Y-95912476D01*
X125563285Y-97582476D01*
X125563285Y-95912476D01*
X124515666Y-97423428D02*
X124563285Y-97502952D01*
X124706142Y-97582476D01*
X124801380Y-97582476D01*
X124944238Y-97502952D01*
X125039476Y-97343904D01*
X125087095Y-97184857D01*
X125134714Y-96866761D01*
X125134714Y-96628190D01*
X125087095Y-96310095D01*
X125039476Y-96151047D01*
X124944238Y-95992000D01*
X124801380Y-95912476D01*
X124706142Y-95912476D01*
X124563285Y-95992000D01*
X124515666Y-96071523D01*
X129087476Y-86903428D02*
X129135095Y-86982952D01*
X129277952Y-87062476D01*
X129373190Y-87062476D01*
X129516047Y-86982952D01*
X129611285Y-86823904D01*
X129658904Y-86664857D01*
X129706523Y-86346761D01*
X129706523Y-86108190D01*
X129658904Y-85790095D01*
X129611285Y-85631047D01*
X129516047Y-85472000D01*
X129373190Y-85392476D01*
X129277952Y-85392476D01*
X129135095Y-85472000D01*
X129087476Y-85551523D01*
X128658904Y-87062476D02*
X128658904Y-85392476D01*
X128658904Y-86187714D02*
X128087476Y-86187714D01*
X128087476Y-87062476D02*
X128087476Y-85392476D01*
X127087476Y-87062476D02*
X127658904Y-87062476D01*
X127373190Y-87062476D02*
X127373190Y-85392476D01*
X127468428Y-85631047D01*
X127563666Y-85790095D01*
X127658904Y-85869619D01*
X129087476Y-89533428D02*
X129135095Y-89612952D01*
X129277952Y-89692476D01*
X129373190Y-89692476D01*
X129516047Y-89612952D01*
X129611285Y-89453904D01*
X129658904Y-89294857D01*
X129706523Y-88976761D01*
X129706523Y-88738190D01*
X129658904Y-88420095D01*
X129611285Y-88261047D01*
X129516047Y-88102000D01*
X129373190Y-88022476D01*
X129277952Y-88022476D01*
X129135095Y-88102000D01*
X129087476Y-88181523D01*
X128658904Y-89692476D02*
X128658904Y-88022476D01*
X128658904Y-88817714D02*
X128087476Y-88817714D01*
X128087476Y-89692476D02*
X128087476Y-88022476D01*
X127658904Y-88181523D02*
X127611285Y-88102000D01*
X127516047Y-88022476D01*
X127277952Y-88022476D01*
X127182714Y-88102000D01*
X127135095Y-88181523D01*
X127087476Y-88340571D01*
X127087476Y-88499619D01*
X127135095Y-88738190D01*
X127706523Y-89692476D01*
X127087476Y-89692476D01*
X129730333Y-92322476D02*
X129730333Y-90652476D01*
X129349380Y-90652476D01*
X129254142Y-90732000D01*
X129206523Y-90811523D01*
X129158904Y-90970571D01*
X129158904Y-91209142D01*
X129206523Y-91368190D01*
X129254142Y-91447714D01*
X129349380Y-91527238D01*
X129730333Y-91527238D01*
X128730333Y-92322476D02*
X128730333Y-90652476D01*
X128349380Y-90652476D01*
X128254142Y-90732000D01*
X128206523Y-90811523D01*
X128158904Y-90970571D01*
X128158904Y-91209142D01*
X128206523Y-91368190D01*
X128254142Y-91447714D01*
X128349380Y-91527238D01*
X128730333Y-91527238D01*
X127730333Y-92322476D02*
X127730333Y-90652476D01*
X127397000Y-91845333D01*
X127063666Y-90652476D01*
X127063666Y-92322476D01*
X128587476Y-93282476D02*
X129063666Y-93282476D01*
X129111285Y-94077714D01*
X129063666Y-93998190D01*
X128968428Y-93918666D01*
X128730333Y-93918666D01*
X128635095Y-93998190D01*
X128587476Y-94077714D01*
X128539857Y-94236761D01*
X128539857Y-94634380D01*
X128587476Y-94793428D01*
X128635095Y-94872952D01*
X128730333Y-94952476D01*
X128968428Y-94952476D01*
X129063666Y-94872952D01*
X129111285Y-94793428D01*
X128254142Y-93282476D02*
X127920809Y-94952476D01*
X127587476Y-93282476D01*
X129873190Y-95912476D02*
X129254142Y-95912476D01*
X129587476Y-96548666D01*
X129444619Y-96548666D01*
X129349380Y-96628190D01*
X129301761Y-96707714D01*
X129254142Y-96866761D01*
X129254142Y-97264380D01*
X129301761Y-97423428D01*
X129349380Y-97502952D01*
X129444619Y-97582476D01*
X129730333Y-97582476D01*
X129825571Y-97502952D01*
X129873190Y-97423428D01*
X128825571Y-97423428D02*
X128777952Y-97502952D01*
X128825571Y-97582476D01*
X128873190Y-97502952D01*
X128825571Y-97423428D01*
X128825571Y-97582476D01*
X128444619Y-95912476D02*
X127825571Y-95912476D01*
X128158904Y-96548666D01*
X128016047Y-96548666D01*
X127920809Y-96628190D01*
X127873190Y-96707714D01*
X127825571Y-96866761D01*
X127825571Y-97264380D01*
X127873190Y-97423428D01*
X127920809Y-97502952D01*
X128016047Y-97582476D01*
X128301761Y-97582476D01*
X128397000Y-97502952D01*
X128444619Y-97423428D01*
X127539857Y-95912476D02*
X127206523Y-97582476D01*
X126873190Y-95912476D01*
D12*
%TO.C,Receiver1*%
X133544000Y-69663000D02*
X133544000Y-70993000D01*
X134874000Y-69663000D02*
X133544000Y-69663000D01*
X136144000Y-69663000D02*
X136144000Y-72323000D01*
X136144000Y-72323000D02*
X143824000Y-72323000D01*
X136144000Y-69663000D02*
X143824000Y-69663000D01*
X143824000Y-69663000D02*
X143824000Y-72323000D01*
%TO.C,R13*%
X139572276Y-68057500D02*
X140081724Y-68057500D01*
X139572276Y-69102500D02*
X140081724Y-69102500D01*
%TO.C,R12*%
X140081724Y-67705500D02*
X139572276Y-67705500D01*
X140081724Y-66660500D02*
X139572276Y-66660500D01*
%TO.C,R11*%
X139572276Y-65263500D02*
X140081724Y-65263500D01*
X139572276Y-66308500D02*
X140081724Y-66308500D01*
%TO.C,R10*%
X132065500Y-71374724D02*
X132065500Y-70865276D01*
X133110500Y-71374724D02*
X133110500Y-70865276D01*
%TO.C,R9*%
X131586500Y-70865276D02*
X131586500Y-71374724D01*
X130541500Y-70865276D02*
X130541500Y-71374724D01*
%TO.C,J5*%
D13*
X119594380Y-86407666D02*
X120308666Y-86407666D01*
X120451523Y-86360047D01*
X120546761Y-86264809D01*
X120594380Y-86121952D01*
X120594380Y-86026714D01*
X119594380Y-87360047D02*
X119594380Y-86883857D01*
X120070571Y-86836238D01*
X120022952Y-86883857D01*
X119975333Y-86979095D01*
X119975333Y-87217190D01*
X120022952Y-87312428D01*
X120070571Y-87360047D01*
X120165809Y-87407666D01*
X120403904Y-87407666D01*
X120499142Y-87360047D01*
X120546761Y-87312428D01*
X120594380Y-87217190D01*
X120594380Y-86979095D01*
X120546761Y-86883857D01*
X120499142Y-86836238D01*
%TO.C,Receiver1*%
X142382523Y-73477380D02*
X142715857Y-73001190D01*
X142953952Y-73477380D02*
X142953952Y-72477380D01*
X142573000Y-72477380D01*
X142477761Y-72525000D01*
X142430142Y-72572619D01*
X142382523Y-72667857D01*
X142382523Y-72810714D01*
X142430142Y-72905952D01*
X142477761Y-72953571D01*
X142573000Y-73001190D01*
X142953952Y-73001190D01*
X141573000Y-73429761D02*
X141668238Y-73477380D01*
X141858714Y-73477380D01*
X141953952Y-73429761D01*
X142001571Y-73334523D01*
X142001571Y-72953571D01*
X141953952Y-72858333D01*
X141858714Y-72810714D01*
X141668238Y-72810714D01*
X141573000Y-72858333D01*
X141525380Y-72953571D01*
X141525380Y-73048809D01*
X142001571Y-73144047D01*
X140668238Y-73429761D02*
X140763476Y-73477380D01*
X140953952Y-73477380D01*
X141049190Y-73429761D01*
X141096809Y-73382142D01*
X141144428Y-73286904D01*
X141144428Y-73001190D01*
X141096809Y-72905952D01*
X141049190Y-72858333D01*
X140953952Y-72810714D01*
X140763476Y-72810714D01*
X140668238Y-72858333D01*
X139858714Y-73429761D02*
X139953952Y-73477380D01*
X140144428Y-73477380D01*
X140239666Y-73429761D01*
X140287285Y-73334523D01*
X140287285Y-72953571D01*
X140239666Y-72858333D01*
X140144428Y-72810714D01*
X139953952Y-72810714D01*
X139858714Y-72858333D01*
X139811095Y-72953571D01*
X139811095Y-73048809D01*
X140287285Y-73144047D01*
X139382523Y-73477380D02*
X139382523Y-72810714D01*
X139382523Y-72477380D02*
X139430142Y-72525000D01*
X139382523Y-72572619D01*
X139334904Y-72525000D01*
X139382523Y-72477380D01*
X139382523Y-72572619D01*
X139001571Y-72810714D02*
X138763476Y-73477380D01*
X138525380Y-72810714D01*
X137763476Y-73429761D02*
X137858714Y-73477380D01*
X138049190Y-73477380D01*
X138144428Y-73429761D01*
X138192047Y-73334523D01*
X138192047Y-72953571D01*
X138144428Y-72858333D01*
X138049190Y-72810714D01*
X137858714Y-72810714D01*
X137763476Y-72858333D01*
X137715857Y-72953571D01*
X137715857Y-73048809D01*
X138192047Y-73144047D01*
X137287285Y-73477380D02*
X137287285Y-72810714D01*
X137287285Y-73001190D02*
X137239666Y-72905952D01*
X137192047Y-72858333D01*
X137096809Y-72810714D01*
X137001571Y-72810714D01*
X136144428Y-73477380D02*
X136715857Y-73477380D01*
X136430142Y-73477380D02*
X136430142Y-72477380D01*
X136525380Y-72620238D01*
X136620619Y-72715476D01*
X136715857Y-72763095D01*
%TO.C,R13*%
X140469857Y-70462380D02*
X140803190Y-69986190D01*
X141041285Y-70462380D02*
X141041285Y-69462380D01*
X140660333Y-69462380D01*
X140565095Y-69510000D01*
X140517476Y-69557619D01*
X140469857Y-69652857D01*
X140469857Y-69795714D01*
X140517476Y-69890952D01*
X140565095Y-69938571D01*
X140660333Y-69986190D01*
X141041285Y-69986190D01*
X139517476Y-70462380D02*
X140088904Y-70462380D01*
X139803190Y-70462380D02*
X139803190Y-69462380D01*
X139898428Y-69605238D01*
X139993666Y-69700476D01*
X140088904Y-69748095D01*
X139184142Y-69462380D02*
X138565095Y-69462380D01*
X138898428Y-69843333D01*
X138755571Y-69843333D01*
X138660333Y-69890952D01*
X138612714Y-69938571D01*
X138565095Y-70033809D01*
X138565095Y-70271904D01*
X138612714Y-70367142D01*
X138660333Y-70414761D01*
X138755571Y-70462380D01*
X139041285Y-70462380D01*
X139136523Y-70414761D01*
X139184142Y-70367142D01*
%TO.C,R12*%
X140469857Y-66205380D02*
X140803190Y-65729190D01*
X141041285Y-66205380D02*
X141041285Y-65205380D01*
X140660333Y-65205380D01*
X140565095Y-65253000D01*
X140517476Y-65300619D01*
X140469857Y-65395857D01*
X140469857Y-65538714D01*
X140517476Y-65633952D01*
X140565095Y-65681571D01*
X140660333Y-65729190D01*
X141041285Y-65729190D01*
X139517476Y-66205380D02*
X140088904Y-66205380D01*
X139803190Y-66205380D02*
X139803190Y-65205380D01*
X139898428Y-65348238D01*
X139993666Y-65443476D01*
X140088904Y-65491095D01*
X139136523Y-65300619D02*
X139088904Y-65253000D01*
X138993666Y-65205380D01*
X138755571Y-65205380D01*
X138660333Y-65253000D01*
X138612714Y-65300619D01*
X138565095Y-65395857D01*
X138565095Y-65491095D01*
X138612714Y-65633952D01*
X139184142Y-66205380D01*
X138565095Y-66205380D01*
%TO.C,R11*%
X140469857Y-67668380D02*
X140803190Y-67192190D01*
X141041285Y-67668380D02*
X141041285Y-66668380D01*
X140660333Y-66668380D01*
X140565095Y-66716000D01*
X140517476Y-66763619D01*
X140469857Y-66858857D01*
X140469857Y-67001714D01*
X140517476Y-67096952D01*
X140565095Y-67144571D01*
X140660333Y-67192190D01*
X141041285Y-67192190D01*
X139517476Y-67668380D02*
X140088904Y-67668380D01*
X139803190Y-67668380D02*
X139803190Y-66668380D01*
X139898428Y-66811238D01*
X139993666Y-66906476D01*
X140088904Y-66954095D01*
X138565095Y-67668380D02*
X139136523Y-67668380D01*
X138850809Y-67668380D02*
X138850809Y-66668380D01*
X138946047Y-66811238D01*
X139041285Y-66906476D01*
X139136523Y-66954095D01*
%TO.C,R10*%
X134470380Y-70477142D02*
X133994190Y-70143809D01*
X134470380Y-69905714D02*
X133470380Y-69905714D01*
X133470380Y-70286666D01*
X133518000Y-70381904D01*
X133565619Y-70429523D01*
X133660857Y-70477142D01*
X133803714Y-70477142D01*
X133898952Y-70429523D01*
X133946571Y-70381904D01*
X133994190Y-70286666D01*
X133994190Y-69905714D01*
X134470380Y-71429523D02*
X134470380Y-70858095D01*
X134470380Y-71143809D02*
X133470380Y-71143809D01*
X133613238Y-71048571D01*
X133708476Y-70953333D01*
X133756095Y-70858095D01*
X133470380Y-72048571D02*
X133470380Y-72143809D01*
X133518000Y-72239047D01*
X133565619Y-72286666D01*
X133660857Y-72334285D01*
X133851333Y-72381904D01*
X134089428Y-72381904D01*
X134279904Y-72334285D01*
X134375142Y-72286666D01*
X134422761Y-72239047D01*
X134470380Y-72143809D01*
X134470380Y-72048571D01*
X134422761Y-71953333D01*
X134375142Y-71905714D01*
X134279904Y-71858095D01*
X134089428Y-71810476D01*
X133851333Y-71810476D01*
X133660857Y-71858095D01*
X133565619Y-71905714D01*
X133518000Y-71953333D01*
X133470380Y-72048571D01*
%TO.C,R9*%
X130086380Y-70953333D02*
X129610190Y-70620000D01*
X130086380Y-70381904D02*
X129086380Y-70381904D01*
X129086380Y-70762857D01*
X129134000Y-70858095D01*
X129181619Y-70905714D01*
X129276857Y-70953333D01*
X129419714Y-70953333D01*
X129514952Y-70905714D01*
X129562571Y-70858095D01*
X129610190Y-70762857D01*
X129610190Y-70381904D01*
X130086380Y-71429523D02*
X130086380Y-71620000D01*
X130038761Y-71715238D01*
X129991142Y-71762857D01*
X129848285Y-71858095D01*
X129657809Y-71905714D01*
X129276857Y-71905714D01*
X129181619Y-71858095D01*
X129134000Y-71810476D01*
X129086380Y-71715238D01*
X129086380Y-71524761D01*
X129134000Y-71429523D01*
X129181619Y-71381904D01*
X129276857Y-71334285D01*
X129514952Y-71334285D01*
X129610190Y-71381904D01*
X129657809Y-71429523D01*
X129705428Y-71524761D01*
X129705428Y-71715238D01*
X129657809Y-71810476D01*
X129610190Y-71858095D01*
X129514952Y-71905714D01*
%TO.C,J2*%
X139525333Y-99528380D02*
X139525333Y-100242666D01*
X139572952Y-100385523D01*
X139668190Y-100480761D01*
X139811047Y-100528380D01*
X139906285Y-100528380D01*
X139096761Y-99623619D02*
X139049142Y-99576000D01*
X138953904Y-99528380D01*
X138715809Y-99528380D01*
X138620571Y-99576000D01*
X138572952Y-99623619D01*
X138525333Y-99718857D01*
X138525333Y-99814095D01*
X138572952Y-99956952D01*
X139144380Y-100528380D01*
X138525333Y-100528380D01*
%TO.C,J4*%
X156424380Y-83486666D02*
X157138666Y-83486666D01*
X157281523Y-83439047D01*
X157376761Y-83343809D01*
X157424380Y-83200952D01*
X157424380Y-83105714D01*
X156757714Y-84391428D02*
X157424380Y-84391428D01*
X156376761Y-84153333D02*
X157091047Y-83915238D01*
X157091047Y-84534285D01*
%TO.C,J3*%
X139906333Y-67651380D02*
X139906333Y-68365666D01*
X139953952Y-68508523D01*
X140049190Y-68603761D01*
X140192047Y-68651380D01*
X140287285Y-68651380D01*
X139525380Y-67651380D02*
X138906333Y-67651380D01*
X139239666Y-68032333D01*
X139096809Y-68032333D01*
X139001571Y-68079952D01*
X138953952Y-68127571D01*
X138906333Y-68222809D01*
X138906333Y-68460904D01*
X138953952Y-68556142D01*
X139001571Y-68603761D01*
X139096809Y-68651380D01*
X139382523Y-68651380D01*
X139477761Y-68603761D01*
X139525380Y-68556142D01*
%TD*%
M02*
