%TF.GenerationSoftware,KiCad,Pcbnew,(5.1.8-0-10_14)*%
%TF.CreationDate,2021-03-06T23:03:25+08:00*%
%TF.ProjectId,batt_board,62617474-5f62-46f6-9172-642e6b696361,v1.0.0*%
%TF.SameCoordinates,Original*%
%TF.FileFunction,Copper,L2,Bot*%
%TF.FilePolarity,Positive*%
%FSLAX46Y46*%
G04 Gerber Fmt 4.6, Leading zero omitted, Abs format (unit mm)*
G04 Created by KiCad (PCBNEW (5.1.8-0-10_14)) date 2021-03-06 23:03:25*
%MOMM*%
%LPD*%
G01*
G04 APERTURE LIST*
%TA.AperFunction,SMDPad,CuDef*%
%ADD10O,12.000000X8.000000*%
%TD*%
%TA.AperFunction,ComponentPad*%
%ADD11R,1.700000X1.700000*%
%TD*%
%TA.AperFunction,ComponentPad*%
%ADD12O,1.700000X1.700000*%
%TD*%
%TA.AperFunction,SMDPad,CuDef*%
%ADD13O,8.000000X12.000000*%
%TD*%
%TA.AperFunction,ConnectorPad*%
%ADD14C,5.700000*%
%TD*%
%TA.AperFunction,ComponentPad*%
%ADD15C,3.600000*%
%TD*%
%TA.AperFunction,ComponentPad*%
%ADD16C,0.600000*%
%TD*%
%TA.AperFunction,SMDPad,CuDef*%
%ADD17R,4.500000X2.950000*%
%TD*%
%TA.AperFunction,ViaPad*%
%ADD18C,0.800000*%
%TD*%
%TA.AperFunction,Conductor*%
%ADD19C,8.000000*%
%TD*%
%TA.AperFunction,Conductor*%
%ADD20C,0.500000*%
%TD*%
%TA.AperFunction,Conductor*%
%ADD21C,0.300000*%
%TD*%
%TA.AperFunction,Conductor*%
%ADD22C,0.254000*%
%TD*%
%TA.AperFunction,Conductor*%
%ADD23C,0.100000*%
%TD*%
G04 APERTURE END LIST*
D10*
%TO.P,J5,2*%
%TO.N,/VCC_IN*%
X116949200Y-93077200D03*
%TO.P,J5,1*%
%TO.N,GND*%
X116949200Y-76567200D03*
%TD*%
D11*
%TO.P,Receiver1,1*%
%TO.N,GND*%
X134874000Y-70993000D03*
D12*
%TO.P,Receiver1,2*%
%TO.N,+5V*%
X137414000Y-70993000D03*
%TO.P,Receiver1,3*%
%TO.N,PPM*%
X139954000Y-70993000D03*
%TO.P,Receiver1,4*%
%TO.N,Net-(Receiver1-Pad4)*%
X142494000Y-70993000D03*
%TD*%
%TO.P,R13,2*%
%TO.N,/VCC_IN*%
%TA.AperFunction,SMDPad,CuDef*%
G36*
G01*
X140252000Y-68817500D02*
X140252000Y-68342500D01*
G75*
G02*
X140489500Y-68105000I237500J0D01*
G01*
X140989500Y-68105000D01*
G75*
G02*
X141227000Y-68342500I0J-237500D01*
G01*
X141227000Y-68817500D01*
G75*
G02*
X140989500Y-69055000I-237500J0D01*
G01*
X140489500Y-69055000D01*
G75*
G02*
X140252000Y-68817500I0J237500D01*
G01*
G37*
%TD.AperFunction*%
%TO.P,R13,1*%
%TO.N,Net-(R12-Pad2)*%
%TA.AperFunction,SMDPad,CuDef*%
G36*
G01*
X138427000Y-68817500D02*
X138427000Y-68342500D01*
G75*
G02*
X138664500Y-68105000I237500J0D01*
G01*
X139164500Y-68105000D01*
G75*
G02*
X139402000Y-68342500I0J-237500D01*
G01*
X139402000Y-68817500D01*
G75*
G02*
X139164500Y-69055000I-237500J0D01*
G01*
X138664500Y-69055000D01*
G75*
G02*
X138427000Y-68817500I0J237500D01*
G01*
G37*
%TD.AperFunction*%
%TD*%
%TO.P,R12,2*%
%TO.N,Net-(R12-Pad2)*%
%TA.AperFunction,SMDPad,CuDef*%
G36*
G01*
X139402000Y-66945500D02*
X139402000Y-67420500D01*
G75*
G02*
X139164500Y-67658000I-237500J0D01*
G01*
X138664500Y-67658000D01*
G75*
G02*
X138427000Y-67420500I0J237500D01*
G01*
X138427000Y-66945500D01*
G75*
G02*
X138664500Y-66708000I237500J0D01*
G01*
X139164500Y-66708000D01*
G75*
G02*
X139402000Y-66945500I0J-237500D01*
G01*
G37*
%TD.AperFunction*%
%TO.P,R12,1*%
%TO.N,Net-(R11-Pad2)*%
%TA.AperFunction,SMDPad,CuDef*%
G36*
G01*
X141227000Y-66945500D02*
X141227000Y-67420500D01*
G75*
G02*
X140989500Y-67658000I-237500J0D01*
G01*
X140489500Y-67658000D01*
G75*
G02*
X140252000Y-67420500I0J237500D01*
G01*
X140252000Y-66945500D01*
G75*
G02*
X140489500Y-66708000I237500J0D01*
G01*
X140989500Y-66708000D01*
G75*
G02*
X141227000Y-66945500I0J-237500D01*
G01*
G37*
%TD.AperFunction*%
%TD*%
%TO.P,R11,2*%
%TO.N,Net-(R11-Pad2)*%
%TA.AperFunction,SMDPad,CuDef*%
G36*
G01*
X140252000Y-66023500D02*
X140252000Y-65548500D01*
G75*
G02*
X140489500Y-65311000I237500J0D01*
G01*
X140989500Y-65311000D01*
G75*
G02*
X141227000Y-65548500I0J-237500D01*
G01*
X141227000Y-66023500D01*
G75*
G02*
X140989500Y-66261000I-237500J0D01*
G01*
X140489500Y-66261000D01*
G75*
G02*
X140252000Y-66023500I0J237500D01*
G01*
G37*
%TD.AperFunction*%
%TO.P,R11,1*%
%TO.N,Net-(R10-Pad2)*%
%TA.AperFunction,SMDPad,CuDef*%
G36*
G01*
X138427000Y-66023500D02*
X138427000Y-65548500D01*
G75*
G02*
X138664500Y-65311000I237500J0D01*
G01*
X139164500Y-65311000D01*
G75*
G02*
X139402000Y-65548500I0J-237500D01*
G01*
X139402000Y-66023500D01*
G75*
G02*
X139164500Y-66261000I-237500J0D01*
G01*
X138664500Y-66261000D01*
G75*
G02*
X138427000Y-66023500I0J237500D01*
G01*
G37*
%TD.AperFunction*%
%TD*%
%TO.P,R10,2*%
%TO.N,Net-(R10-Pad2)*%
%TA.AperFunction,SMDPad,CuDef*%
G36*
G01*
X132825500Y-70695000D02*
X132350500Y-70695000D01*
G75*
G02*
X132113000Y-70457500I0J237500D01*
G01*
X132113000Y-69957500D01*
G75*
G02*
X132350500Y-69720000I237500J0D01*
G01*
X132825500Y-69720000D01*
G75*
G02*
X133063000Y-69957500I0J-237500D01*
G01*
X133063000Y-70457500D01*
G75*
G02*
X132825500Y-70695000I-237500J0D01*
G01*
G37*
%TD.AperFunction*%
%TO.P,R10,1*%
%TO.N,/ADC_IN*%
%TA.AperFunction,SMDPad,CuDef*%
G36*
G01*
X132825500Y-72520000D02*
X132350500Y-72520000D01*
G75*
G02*
X132113000Y-72282500I0J237500D01*
G01*
X132113000Y-71782500D01*
G75*
G02*
X132350500Y-71545000I237500J0D01*
G01*
X132825500Y-71545000D01*
G75*
G02*
X133063000Y-71782500I0J-237500D01*
G01*
X133063000Y-72282500D01*
G75*
G02*
X132825500Y-72520000I-237500J0D01*
G01*
G37*
%TD.AperFunction*%
%TD*%
%TO.P,R9,2*%
%TO.N,/ADC_IN*%
%TA.AperFunction,SMDPad,CuDef*%
G36*
G01*
X130826500Y-71545000D02*
X131301500Y-71545000D01*
G75*
G02*
X131539000Y-71782500I0J-237500D01*
G01*
X131539000Y-72282500D01*
G75*
G02*
X131301500Y-72520000I-237500J0D01*
G01*
X130826500Y-72520000D01*
G75*
G02*
X130589000Y-72282500I0J237500D01*
G01*
X130589000Y-71782500D01*
G75*
G02*
X130826500Y-71545000I237500J0D01*
G01*
G37*
%TD.AperFunction*%
%TO.P,R9,1*%
%TO.N,GND*%
%TA.AperFunction,SMDPad,CuDef*%
G36*
G01*
X130826500Y-69720000D02*
X131301500Y-69720000D01*
G75*
G02*
X131539000Y-69957500I0J-237500D01*
G01*
X131539000Y-70457500D01*
G75*
G02*
X131301500Y-70695000I-237500J0D01*
G01*
X130826500Y-70695000D01*
G75*
G02*
X130589000Y-70457500I0J237500D01*
G01*
X130589000Y-69957500D01*
G75*
G02*
X130826500Y-69720000I237500J0D01*
G01*
G37*
%TD.AperFunction*%
%TD*%
%TO.P,J1,3*%
%TO.N,+5V*%
X126365000Y-76708000D03*
%TO.P,J1,2*%
%TO.N,GND*%
X126365000Y-79248000D03*
D11*
%TO.P,J1,1*%
%TO.N,+3V3*%
X126365000Y-81788000D03*
%TD*%
D13*
%TO.P,J2,2*%
%TO.N,/VCC_IN*%
X148077200Y-108050800D03*
%TO.P,J2,1*%
%TO.N,GND*%
X131567200Y-108050800D03*
%TD*%
D10*
%TO.P,J4,2*%
%TO.N,/VCC_IN*%
X161949200Y-93077200D03*
%TO.P,J4,1*%
%TO.N,GND*%
X161949200Y-76567200D03*
%TD*%
D13*
%TO.P,J3,2*%
%TO.N,/VCC_IN*%
X148077200Y-62050800D03*
%TO.P,J3,1*%
%TO.N,GND*%
X131567200Y-62050800D03*
%TD*%
D14*
%TO.P,H4,1*%
%TO.N,GND*%
X160000000Y-65000000D03*
D15*
X160000000Y-65000000D03*
%TD*%
D14*
%TO.P,H2,1*%
%TO.N,GND*%
X120000000Y-105000000D03*
D15*
X120000000Y-105000000D03*
%TD*%
D16*
%TO.P,U1,9*%
%TO.N,GND*%
X149120000Y-91348000D03*
X148020000Y-91348000D03*
X148020000Y-92548000D03*
X149120000Y-92548000D03*
X145520000Y-91348000D03*
X146720000Y-91348000D03*
X146720000Y-92548000D03*
X145520000Y-92548000D03*
D17*
X147320000Y-91948000D03*
%TD*%
D14*
%TO.P,H3,1*%
%TO.N,GND*%
X160000000Y-105000000D03*
D15*
X160000000Y-105000000D03*
%TD*%
D14*
%TO.P,H1,1*%
%TO.N,GND*%
X120000000Y-65000000D03*
D15*
X120000000Y-65000000D03*
%TD*%
D12*
%TO.P,CH4,2*%
%TO.N,GND*%
X117475000Y-83820000D03*
D11*
%TO.P,CH4,1*%
%TO.N,PWM_CH4*%
X117475000Y-86360000D03*
%TD*%
D12*
%TO.P,CH3,2*%
%TO.N,GND*%
X138532200Y-107950000D03*
D11*
%TO.P,CH3,1*%
%TO.N,PWM_CH3*%
X141072200Y-107950000D03*
%TD*%
D12*
%TO.P,CH2,2*%
%TO.N,GND*%
X162560000Y-83820000D03*
D11*
%TO.P,CH2,1*%
%TO.N,PWM_CH2*%
X162560000Y-86360000D03*
%TD*%
D12*
%TO.P,CH1,2*%
%TO.N,GND*%
X138430000Y-62230000D03*
D11*
%TO.P,CH1,1*%
%TO.N,PWM_CH1*%
X140970000Y-62230000D03*
%TD*%
D18*
%TO.N,GND*%
X120142000Y-84328000D03*
X120650000Y-80010000D03*
X133350000Y-67310000D03*
X132080000Y-67310000D03*
X130810000Y-67310000D03*
X157480000Y-73660000D03*
X157480000Y-74930000D03*
X157480000Y-76200000D03*
X158750000Y-77470000D03*
X158750000Y-76200000D03*
X158750000Y-74930000D03*
X158750000Y-73660000D03*
X128270000Y-106680000D03*
X128270000Y-107950000D03*
X128270000Y-104140000D03*
X128270000Y-105410000D03*
X129540000Y-102870000D03*
X133350000Y-66040000D03*
X132080000Y-66040000D03*
X130810000Y-66040000D03*
X129540000Y-66040000D03*
X128270000Y-64770000D03*
X129540000Y-64770000D03*
X130810000Y-64770000D03*
X132080000Y-64770000D03*
X133350000Y-64770000D03*
X134620000Y-64770000D03*
X134620000Y-63500000D03*
X133350000Y-63500000D03*
X132080000Y-62230000D03*
X132080000Y-63500000D03*
X130810000Y-63500000D03*
X128270000Y-63500000D03*
X129540000Y-63500000D03*
X130810000Y-62230000D03*
X128270000Y-62230000D03*
X129540000Y-62230000D03*
X130810000Y-62230000D03*
X133350000Y-62230000D03*
X134620000Y-62230000D03*
X121920000Y-74930000D03*
X121920000Y-76200000D03*
X121920000Y-77470000D03*
X121920000Y-78740000D03*
X120650000Y-78740000D03*
X120650000Y-77470000D03*
X120650000Y-76200000D03*
X120650000Y-74930000D03*
X120650000Y-73660000D03*
X118110000Y-73660000D03*
X119380000Y-73660000D03*
X119380000Y-74930000D03*
X118110000Y-74930000D03*
X118110000Y-76200000D03*
X119380000Y-76200000D03*
X119380000Y-77470000D03*
X118110000Y-77470000D03*
X118110000Y-78740000D03*
X119380000Y-78740000D03*
X119380000Y-80010000D03*
X118110000Y-80010000D03*
X116840000Y-80010000D03*
X116840000Y-78740000D03*
X116840000Y-77470000D03*
X116840000Y-76200000D03*
X116840000Y-74930000D03*
X116840000Y-73660000D03*
X130810000Y-102870000D03*
X132080000Y-102870000D03*
X133350000Y-102870000D03*
X134620000Y-105410000D03*
X134620000Y-104140000D03*
X133350000Y-104140000D03*
X132080000Y-104140000D03*
X130810000Y-104140000D03*
X129540000Y-104140000D03*
X129540000Y-105410000D03*
X130810000Y-105410000D03*
X132080000Y-105410000D03*
X133350000Y-105410000D03*
X133350000Y-106680000D03*
X130810000Y-107950000D03*
X129540000Y-107950000D03*
X132080000Y-107950000D03*
X133350000Y-107950000D03*
X134620000Y-107950000D03*
X134620000Y-106680000D03*
X132080000Y-106680000D03*
X130810000Y-106680000D03*
X129540000Y-106680000D03*
X162560000Y-69850000D03*
X162560000Y-71120000D03*
X161290000Y-71120000D03*
X160020000Y-72390000D03*
X161290000Y-72390000D03*
X162560000Y-72390000D03*
X160020000Y-78740000D03*
X161290000Y-78740000D03*
X162560000Y-78740000D03*
X162560000Y-77470000D03*
X161290000Y-77470000D03*
X160020000Y-77470000D03*
X160020000Y-76200000D03*
X160020000Y-74930000D03*
X161290000Y-76200000D03*
X161290000Y-74930000D03*
X162560000Y-76200000D03*
X162560000Y-74930000D03*
X162560000Y-73660000D03*
X161290000Y-73660000D03*
X160020000Y-73660000D03*
X142621000Y-65532000D03*
X130810000Y-79502000D03*
X131431000Y-84977000D03*
X140651964Y-77405964D03*
X138862713Y-78791536D03*
X138862713Y-80459434D03*
X141986000Y-84582000D03*
X141986000Y-83566000D03*
X141986000Y-82423000D03*
X136525000Y-69342000D03*
%TO.N,/VCC_IN*%
X151130000Y-67310000D03*
X149860000Y-67310000D03*
X148590000Y-67310000D03*
X147320000Y-67310000D03*
X158750000Y-90170000D03*
X160020000Y-90170000D03*
X160020000Y-96520000D03*
X158750000Y-96520000D03*
X158750000Y-95250000D03*
X157480000Y-95250000D03*
X158750000Y-93980000D03*
X157480000Y-93980000D03*
X158750000Y-92710000D03*
X157480000Y-92710000D03*
X158750000Y-91440000D03*
X157480000Y-91440000D03*
X146050000Y-102870000D03*
X144780000Y-104140000D03*
X144780000Y-107950000D03*
X144780000Y-106680000D03*
X144780000Y-105410000D03*
X151130000Y-66040000D03*
X116840000Y-90170000D03*
X116840000Y-91440000D03*
X116840000Y-92710000D03*
X116840000Y-93980000D03*
X116840000Y-93980000D03*
X116840000Y-95250000D03*
X116840000Y-96520000D03*
X118110000Y-96520000D03*
X118110000Y-95250000D03*
X118110000Y-93980000D03*
X118110000Y-92710000D03*
X118110000Y-91440000D03*
X119380000Y-90170000D03*
X118110000Y-90170000D03*
X119380000Y-92710000D03*
X119380000Y-93980000D03*
X119380000Y-95250000D03*
X119380000Y-96520000D03*
X120650000Y-95250000D03*
X120650000Y-93980000D03*
X120650000Y-92710000D03*
X120650000Y-91440000D03*
X119380000Y-91440000D03*
X120650000Y-90170000D03*
X121920000Y-91440000D03*
X121920000Y-92710000D03*
X121920000Y-93980000D03*
X149860000Y-102870000D03*
X147320000Y-102870000D03*
X148590000Y-102870000D03*
X148590000Y-102870000D03*
X146050000Y-104140000D03*
X147320000Y-104140000D03*
X148590000Y-104140000D03*
X149860000Y-104140000D03*
X148590000Y-105410000D03*
X146050000Y-105410000D03*
X147320000Y-105410000D03*
X147320000Y-106680000D03*
X146050000Y-106680000D03*
X146050000Y-106680000D03*
X148590000Y-106680000D03*
X149860000Y-106680000D03*
X151130000Y-106680000D03*
X151130000Y-105410000D03*
X149860000Y-105410000D03*
X151130000Y-104140000D03*
X149860000Y-107950000D03*
X146050000Y-107950000D03*
X147320000Y-107950000D03*
X148590000Y-107950000D03*
X151130000Y-107950000D03*
X160020000Y-91440000D03*
X161290000Y-90170000D03*
X161290000Y-91440000D03*
X161290000Y-92710000D03*
X160020000Y-92710000D03*
X160020000Y-95250000D03*
X161290000Y-93980000D03*
X160020000Y-93980000D03*
X161290000Y-96520000D03*
X162560000Y-96520000D03*
X162560000Y-95250000D03*
X161290000Y-95250000D03*
X162560000Y-92710000D03*
X162560000Y-93980000D03*
X162560000Y-91440000D03*
X162560000Y-90170000D03*
X152400000Y-64770000D03*
X153670000Y-63500000D03*
X152400000Y-63500000D03*
X149860000Y-66040000D03*
X148590000Y-66040000D03*
X147320000Y-66040000D03*
X146050000Y-66040000D03*
X144780000Y-64770000D03*
X148590000Y-64770000D03*
X146050000Y-64770000D03*
X147320000Y-64770000D03*
X149860000Y-64770000D03*
X151130000Y-64770000D03*
X151130000Y-63500000D03*
X149860000Y-63500000D03*
X148590000Y-63500000D03*
X147320000Y-63500000D03*
X146050000Y-63500000D03*
X144780000Y-63500000D03*
X144780000Y-62230000D03*
X146050000Y-62230000D03*
X147320000Y-62230000D03*
X148590000Y-62230000D03*
X149860000Y-62230000D03*
X151130000Y-62230000D03*
X152400000Y-62230000D03*
X152400000Y-66040000D03*
X158496000Y-86106000D03*
X144526000Y-70231000D03*
X148844000Y-81915000D03*
X147447000Y-81915000D03*
X146711500Y-83158500D03*
X146711500Y-84428500D03*
X126111000Y-90297000D03*
X139446000Y-100965000D03*
X146711500Y-80925500D03*
X145415000Y-70231000D03*
X146431000Y-70231000D03*
X155779486Y-86155514D03*
X156922486Y-86155514D03*
X153874486Y-86155514D03*
X154763486Y-86155514D03*
X138869500Y-101668500D03*
X139885500Y-101668500D03*
X140911500Y-101668500D03*
X125349000Y-89535000D03*
X126746000Y-90932000D03*
X127381000Y-91567000D03*
%TO.N,PWM_CH2*%
X150622000Y-90170000D03*
X129032000Y-74295000D03*
%TO.N,PWM_CH3*%
X126746000Y-74295000D03*
X147955000Y-98171000D03*
%TO.N,PWM_CH4*%
X128778000Y-72898000D03*
%TO.N,PPM*%
X128778000Y-71501000D03*
%TO.N,/ADC_IN*%
X128524000Y-69977000D03*
%TD*%
D19*
%TO.N,GND*%
X130792210Y-65000000D02*
X131567200Y-64225010D01*
X120000000Y-65000000D02*
X130792210Y-65000000D01*
X130792210Y-105000000D02*
X131567200Y-105774990D01*
X120000000Y-105000000D02*
X130792210Y-105000000D01*
X160000000Y-75792210D02*
X160774990Y-76567200D01*
X160000000Y-65000000D02*
X160000000Y-75792210D01*
X120000000Y-65000000D02*
X120000000Y-75792210D01*
X120000000Y-75792210D02*
X119225010Y-76567200D01*
D20*
X129921000Y-68199000D02*
X130810000Y-67310000D01*
D21*
X131064000Y-65271790D02*
X130792210Y-65000000D01*
X131064000Y-70207500D02*
X131064000Y-65271790D01*
X134874000Y-70993000D02*
X136525000Y-69342000D01*
X136525000Y-69342000D02*
X136525000Y-69342000D01*
X134747000Y-71120000D02*
X134874000Y-70993000D01*
X131976500Y-71120000D02*
X134747000Y-71120000D01*
X131064000Y-70207500D02*
X131976500Y-71120000D01*
D20*
%TO.N,/VCC_IN*%
X116949200Y-93077200D02*
X117050800Y-93077200D01*
D19*
X119735600Y-93091000D02*
X135890000Y-93091000D01*
D20*
X148077200Y-108050800D02*
X148077200Y-106949200D01*
X133350000Y-93091000D02*
X136271000Y-93091000D01*
D19*
X136017000Y-93218000D02*
X148204200Y-105405200D01*
D20*
X135890000Y-93091000D02*
X135890000Y-95863600D01*
D19*
X148082000Y-104902000D02*
X159893000Y-93091000D01*
X148077200Y-80379410D02*
X156467395Y-88769605D01*
X148077200Y-62050800D02*
X148077200Y-80379410D01*
X156467395Y-88769605D02*
X160774990Y-93077200D01*
D20*
X142875000Y-68580000D02*
X140739500Y-68580000D01*
X144526000Y-70231000D02*
X142875000Y-68580000D01*
D21*
%TO.N,PWM_CH2*%
X150622000Y-90170000D02*
X147574000Y-87122000D01*
X147574000Y-87122000D02*
X142494000Y-87122000D01*
X142494000Y-87122000D02*
X131064000Y-75692000D01*
X131064000Y-75692000D02*
X130810000Y-75438000D01*
X130810000Y-75438000D02*
X130429000Y-75057000D01*
X130429000Y-75057000D02*
X129794000Y-74422000D01*
X129794000Y-74422000D02*
X129667000Y-74295000D01*
X129667000Y-74295000D02*
X129032000Y-74295000D01*
X129032000Y-74295000D02*
X129032000Y-74295000D01*
%TO.N,PWM_CH3*%
X141986000Y-88392000D02*
X128905000Y-75311000D01*
X141986000Y-92202000D02*
X141986000Y-88392000D01*
X147891500Y-98107500D02*
X141986000Y-92202000D01*
X127762000Y-75311000D02*
X126746000Y-74295000D01*
X128905000Y-75311000D02*
X127762000Y-75311000D01*
%TO.N,PWM_CH4*%
X124714000Y-81788000D02*
X120142000Y-86360000D01*
X124714000Y-74676000D02*
X124714000Y-81788000D01*
X126492000Y-72898000D02*
X124714000Y-74676000D01*
X120142000Y-86360000D02*
X117475000Y-86360000D01*
X128778000Y-72898000D02*
X126492000Y-72898000D01*
D20*
%TO.N,Net-(R10-Pad2)*%
X138914500Y-65786000D02*
X137160000Y-65786000D01*
X137033000Y-65786000D02*
X132484500Y-70334500D01*
X137160000Y-65786000D02*
X137033000Y-65786000D01*
%TO.N,Net-(R11-Pad2)*%
X140739500Y-67183000D02*
X140739500Y-65786000D01*
%TO.N,Net-(R12-Pad2)*%
X138914500Y-68580000D02*
X138914500Y-67183000D01*
D21*
%TO.N,PPM*%
X137541000Y-73406000D02*
X139954000Y-70993000D01*
X130683000Y-73406000D02*
X137541000Y-73406000D01*
X128778000Y-71501000D02*
X130683000Y-73406000D01*
%TO.N,/ADC_IN*%
X132437500Y-72032500D02*
X132461000Y-72056000D01*
X131064000Y-72032500D02*
X132437500Y-72032500D01*
X128651000Y-69977000D02*
X128524000Y-69977000D01*
X130683000Y-72009000D02*
X128651000Y-69977000D01*
X130786500Y-72009000D02*
X130683000Y-72009000D01*
%TD*%
D22*
%TO.N,GND*%
X164340001Y-104970597D02*
X164288316Y-105549718D01*
X162531931Y-107352323D01*
X162452035Y-107272427D01*
X162905850Y-106954243D01*
X163231269Y-106349790D01*
X163432512Y-105693465D01*
X163501845Y-105010490D01*
X163436605Y-104327112D01*
X163239298Y-103669593D01*
X162917506Y-103063201D01*
X162905850Y-103045757D01*
X162452033Y-102727572D01*
X160179605Y-105000000D01*
X160193748Y-105014143D01*
X160014143Y-105193748D01*
X160000000Y-105179605D01*
X157727572Y-107452033D01*
X158045757Y-107905850D01*
X158650210Y-108231269D01*
X159306535Y-108432512D01*
X159989510Y-108501845D01*
X160672888Y-108436605D01*
X161330407Y-108239298D01*
X161936799Y-107917506D01*
X161954243Y-107905850D01*
X162272427Y-107452035D01*
X162354656Y-107534264D01*
X160646013Y-109287871D01*
X160628543Y-109292065D01*
X159975793Y-109340000D01*
X152712200Y-109340000D01*
X152712200Y-106826679D01*
X154549369Y-104989510D01*
X156498155Y-104989510D01*
X156563395Y-105672888D01*
X156760702Y-106330407D01*
X157082494Y-106936799D01*
X157094150Y-106954243D01*
X157547967Y-107272428D01*
X159820395Y-105000000D01*
X157547967Y-102727572D01*
X157094150Y-103045757D01*
X156768731Y-103650210D01*
X156567488Y-104306535D01*
X156498155Y-104989510D01*
X154549369Y-104989510D01*
X156990912Y-102547967D01*
X157727572Y-102547967D01*
X160000000Y-104820395D01*
X162272428Y-102547967D01*
X161954243Y-102094150D01*
X161349790Y-101768731D01*
X160693465Y-101567488D01*
X160010490Y-101498155D01*
X159327112Y-101563395D01*
X158669593Y-101760702D01*
X158063201Y-102082494D01*
X158045757Y-102094150D01*
X157727572Y-102547967D01*
X156990912Y-102547967D01*
X161826680Y-97712200D01*
X164176895Y-97712200D01*
X164340001Y-97696136D01*
X164340001Y-104970597D01*
%TA.AperFunction,Conductor*%
D23*
G36*
X164340001Y-104970597D02*
G01*
X164288316Y-105549718D01*
X162531931Y-107352323D01*
X162452035Y-107272427D01*
X162905850Y-106954243D01*
X163231269Y-106349790D01*
X163432512Y-105693465D01*
X163501845Y-105010490D01*
X163436605Y-104327112D01*
X163239298Y-103669593D01*
X162917506Y-103063201D01*
X162905850Y-103045757D01*
X162452033Y-102727572D01*
X160179605Y-105000000D01*
X160193748Y-105014143D01*
X160014143Y-105193748D01*
X160000000Y-105179605D01*
X157727572Y-107452033D01*
X158045757Y-107905850D01*
X158650210Y-108231269D01*
X159306535Y-108432512D01*
X159989510Y-108501845D01*
X160672888Y-108436605D01*
X161330407Y-108239298D01*
X161936799Y-107917506D01*
X161954243Y-107905850D01*
X162272427Y-107452035D01*
X162354656Y-107534264D01*
X160646013Y-109287871D01*
X160628543Y-109292065D01*
X159975793Y-109340000D01*
X152712200Y-109340000D01*
X152712200Y-106826679D01*
X154549369Y-104989510D01*
X156498155Y-104989510D01*
X156563395Y-105672888D01*
X156760702Y-106330407D01*
X157082494Y-106936799D01*
X157094150Y-106954243D01*
X157547967Y-107272428D01*
X159820395Y-105000000D01*
X157547967Y-102727572D01*
X157094150Y-103045757D01*
X156768731Y-103650210D01*
X156567488Y-104306535D01*
X156498155Y-104989510D01*
X154549369Y-104989510D01*
X156990912Y-102547967D01*
X157727572Y-102547967D01*
X160000000Y-104820395D01*
X162272428Y-102547967D01*
X161954243Y-102094150D01*
X161349790Y-101768731D01*
X160693465Y-101567488D01*
X160010490Y-101498155D01*
X159327112Y-101563395D01*
X158669593Y-101760702D01*
X158063201Y-102082494D01*
X158045757Y-102094150D01*
X157727572Y-102547967D01*
X156990912Y-102547967D01*
X161826680Y-97712200D01*
X164176895Y-97712200D01*
X164340001Y-97696136D01*
X164340001Y-104970597D01*
G37*
%TD.AperFunction*%
D22*
X119507905Y-97726000D02*
X133970121Y-97726000D01*
X137834500Y-101590379D01*
X137834500Y-101770439D01*
X137874274Y-101970398D01*
X137952295Y-102158756D01*
X138065563Y-102328274D01*
X138209726Y-102472437D01*
X138379244Y-102585705D01*
X138567602Y-102663726D01*
X138767561Y-102703500D01*
X138947621Y-102703500D01*
X143442200Y-107198079D01*
X143442200Y-109340000D01*
X142258990Y-109340000D01*
X142276694Y-109330537D01*
X142373385Y-109251185D01*
X142452737Y-109154494D01*
X142511702Y-109044180D01*
X142548012Y-108924482D01*
X142560272Y-108800000D01*
X142560272Y-107100000D01*
X142548012Y-106975518D01*
X142511702Y-106855820D01*
X142452737Y-106745506D01*
X142373385Y-106648815D01*
X142276694Y-106569463D01*
X142166380Y-106510498D01*
X142046682Y-106474188D01*
X141922200Y-106461928D01*
X140222200Y-106461928D01*
X140097718Y-106474188D01*
X139978020Y-106510498D01*
X139867706Y-106569463D01*
X139771015Y-106648815D01*
X139691663Y-106745506D01*
X139632698Y-106855820D01*
X139608234Y-106936466D01*
X139532469Y-106852412D01*
X139299120Y-106678359D01*
X139036299Y-106553175D01*
X138889090Y-106508524D01*
X138659200Y-106629845D01*
X138659200Y-107823000D01*
X138679200Y-107823000D01*
X138679200Y-108077000D01*
X138659200Y-108077000D01*
X138659200Y-108097000D01*
X138405200Y-108097000D01*
X138405200Y-108077000D01*
X137211386Y-108077000D01*
X137090719Y-108306891D01*
X137188043Y-108581252D01*
X137337022Y-108831355D01*
X137531931Y-109047588D01*
X137765280Y-109221641D01*
X138013772Y-109340000D01*
X136202200Y-109340000D01*
X136202200Y-108177800D01*
X131694200Y-108177800D01*
X131694200Y-108197800D01*
X131440200Y-108197800D01*
X131440200Y-108177800D01*
X126932200Y-108177800D01*
X126932200Y-109340000D01*
X120029392Y-109340000D01*
X119231917Y-109268827D01*
X119050917Y-109219311D01*
X117283639Y-107452033D01*
X117727572Y-107452033D01*
X118045757Y-107905850D01*
X118650210Y-108231269D01*
X119306535Y-108432512D01*
X119989510Y-108501845D01*
X120672888Y-108436605D01*
X121330407Y-108239298D01*
X121936799Y-107917506D01*
X121954243Y-107905850D01*
X122272428Y-107452033D01*
X120000000Y-105179605D01*
X117727572Y-107452033D01*
X117283639Y-107452033D01*
X115786217Y-105954611D01*
X115707935Y-105628543D01*
X115661008Y-104989510D01*
X116498155Y-104989510D01*
X116563395Y-105672888D01*
X116760702Y-106330407D01*
X117082494Y-106936799D01*
X117094150Y-106954243D01*
X117547967Y-107272428D01*
X119820395Y-105000000D01*
X120179605Y-105000000D01*
X122452033Y-107272428D01*
X122905850Y-106954243D01*
X123231269Y-106349790D01*
X123361886Y-105923800D01*
X126932200Y-105923800D01*
X126932200Y-107923800D01*
X131440200Y-107923800D01*
X131440200Y-101576352D01*
X131694200Y-101576352D01*
X131694200Y-107923800D01*
X136202200Y-107923800D01*
X136202200Y-107593109D01*
X137090719Y-107593109D01*
X137211386Y-107823000D01*
X138405200Y-107823000D01*
X138405200Y-106629845D01*
X138175310Y-106508524D01*
X138028101Y-106553175D01*
X137765280Y-106678359D01*
X137531931Y-106852412D01*
X137337022Y-107068645D01*
X137188043Y-107318748D01*
X137090719Y-107593109D01*
X136202200Y-107593109D01*
X136202200Y-105923800D01*
X136088363Y-105021997D01*
X135800781Y-104159730D01*
X135350504Y-103370136D01*
X134754837Y-102683558D01*
X134036671Y-102126381D01*
X133223605Y-101720018D01*
X132417438Y-101494450D01*
X131694200Y-101576352D01*
X131440200Y-101576352D01*
X130716962Y-101494450D01*
X129910795Y-101720018D01*
X129097729Y-102126381D01*
X128379563Y-102683558D01*
X127783896Y-103370136D01*
X127333619Y-104159730D01*
X127046037Y-105021997D01*
X126932200Y-105923800D01*
X123361886Y-105923800D01*
X123432512Y-105693465D01*
X123501845Y-105010490D01*
X123436605Y-104327112D01*
X123239298Y-103669593D01*
X122917506Y-103063201D01*
X122905850Y-103045757D01*
X122452033Y-102727572D01*
X120179605Y-105000000D01*
X119820395Y-105000000D01*
X117547967Y-102727572D01*
X117094150Y-103045757D01*
X116768731Y-103650210D01*
X116567488Y-104306535D01*
X116498155Y-104989510D01*
X115661008Y-104989510D01*
X115660000Y-104975793D01*
X115660000Y-102547967D01*
X117727572Y-102547967D01*
X120000000Y-104820395D01*
X122272428Y-102547967D01*
X121954243Y-102094150D01*
X121349790Y-101768731D01*
X120693465Y-101567488D01*
X120010490Y-101498155D01*
X119327112Y-101563395D01*
X118669593Y-101760702D01*
X118063201Y-102082494D01*
X118045757Y-102094150D01*
X117727572Y-102547967D01*
X115660000Y-102547967D01*
X115660000Y-97712200D01*
X119176895Y-97712200D01*
X119272343Y-97702799D01*
X119507905Y-97726000D01*
%TA.AperFunction,Conductor*%
D23*
G36*
X119507905Y-97726000D02*
G01*
X133970121Y-97726000D01*
X137834500Y-101590379D01*
X137834500Y-101770439D01*
X137874274Y-101970398D01*
X137952295Y-102158756D01*
X138065563Y-102328274D01*
X138209726Y-102472437D01*
X138379244Y-102585705D01*
X138567602Y-102663726D01*
X138767561Y-102703500D01*
X138947621Y-102703500D01*
X143442200Y-107198079D01*
X143442200Y-109340000D01*
X142258990Y-109340000D01*
X142276694Y-109330537D01*
X142373385Y-109251185D01*
X142452737Y-109154494D01*
X142511702Y-109044180D01*
X142548012Y-108924482D01*
X142560272Y-108800000D01*
X142560272Y-107100000D01*
X142548012Y-106975518D01*
X142511702Y-106855820D01*
X142452737Y-106745506D01*
X142373385Y-106648815D01*
X142276694Y-106569463D01*
X142166380Y-106510498D01*
X142046682Y-106474188D01*
X141922200Y-106461928D01*
X140222200Y-106461928D01*
X140097718Y-106474188D01*
X139978020Y-106510498D01*
X139867706Y-106569463D01*
X139771015Y-106648815D01*
X139691663Y-106745506D01*
X139632698Y-106855820D01*
X139608234Y-106936466D01*
X139532469Y-106852412D01*
X139299120Y-106678359D01*
X139036299Y-106553175D01*
X138889090Y-106508524D01*
X138659200Y-106629845D01*
X138659200Y-107823000D01*
X138679200Y-107823000D01*
X138679200Y-108077000D01*
X138659200Y-108077000D01*
X138659200Y-108097000D01*
X138405200Y-108097000D01*
X138405200Y-108077000D01*
X137211386Y-108077000D01*
X137090719Y-108306891D01*
X137188043Y-108581252D01*
X137337022Y-108831355D01*
X137531931Y-109047588D01*
X137765280Y-109221641D01*
X138013772Y-109340000D01*
X136202200Y-109340000D01*
X136202200Y-108177800D01*
X131694200Y-108177800D01*
X131694200Y-108197800D01*
X131440200Y-108197800D01*
X131440200Y-108177800D01*
X126932200Y-108177800D01*
X126932200Y-109340000D01*
X120029392Y-109340000D01*
X119231917Y-109268827D01*
X119050917Y-109219311D01*
X117283639Y-107452033D01*
X117727572Y-107452033D01*
X118045757Y-107905850D01*
X118650210Y-108231269D01*
X119306535Y-108432512D01*
X119989510Y-108501845D01*
X120672888Y-108436605D01*
X121330407Y-108239298D01*
X121936799Y-107917506D01*
X121954243Y-107905850D01*
X122272428Y-107452033D01*
X120000000Y-105179605D01*
X117727572Y-107452033D01*
X117283639Y-107452033D01*
X115786217Y-105954611D01*
X115707935Y-105628543D01*
X115661008Y-104989510D01*
X116498155Y-104989510D01*
X116563395Y-105672888D01*
X116760702Y-106330407D01*
X117082494Y-106936799D01*
X117094150Y-106954243D01*
X117547967Y-107272428D01*
X119820395Y-105000000D01*
X120179605Y-105000000D01*
X122452033Y-107272428D01*
X122905850Y-106954243D01*
X123231269Y-106349790D01*
X123361886Y-105923800D01*
X126932200Y-105923800D01*
X126932200Y-107923800D01*
X131440200Y-107923800D01*
X131440200Y-101576352D01*
X131694200Y-101576352D01*
X131694200Y-107923800D01*
X136202200Y-107923800D01*
X136202200Y-107593109D01*
X137090719Y-107593109D01*
X137211386Y-107823000D01*
X138405200Y-107823000D01*
X138405200Y-106629845D01*
X138175310Y-106508524D01*
X138028101Y-106553175D01*
X137765280Y-106678359D01*
X137531931Y-106852412D01*
X137337022Y-107068645D01*
X137188043Y-107318748D01*
X137090719Y-107593109D01*
X136202200Y-107593109D01*
X136202200Y-105923800D01*
X136088363Y-105021997D01*
X135800781Y-104159730D01*
X135350504Y-103370136D01*
X134754837Y-102683558D01*
X134036671Y-102126381D01*
X133223605Y-101720018D01*
X132417438Y-101494450D01*
X131694200Y-101576352D01*
X131440200Y-101576352D01*
X130716962Y-101494450D01*
X129910795Y-101720018D01*
X129097729Y-102126381D01*
X128379563Y-102683558D01*
X127783896Y-103370136D01*
X127333619Y-104159730D01*
X127046037Y-105021997D01*
X126932200Y-105923800D01*
X123361886Y-105923800D01*
X123432512Y-105693465D01*
X123501845Y-105010490D01*
X123436605Y-104327112D01*
X123239298Y-103669593D01*
X122917506Y-103063201D01*
X122905850Y-103045757D01*
X122452033Y-102727572D01*
X120179605Y-105000000D01*
X119820395Y-105000000D01*
X117547967Y-102727572D01*
X117094150Y-103045757D01*
X116768731Y-103650210D01*
X116567488Y-104306535D01*
X116498155Y-104989510D01*
X115661008Y-104989510D01*
X115660000Y-104975793D01*
X115660000Y-102547967D01*
X117727572Y-102547967D01*
X120000000Y-104820395D01*
X122272428Y-102547967D01*
X121954243Y-102094150D01*
X121349790Y-101768731D01*
X120693465Y-101567488D01*
X120010490Y-101498155D01*
X119327112Y-101563395D01*
X118669593Y-101760702D01*
X118063201Y-102082494D01*
X118045757Y-102094150D01*
X117727572Y-102547967D01*
X115660000Y-102547967D01*
X115660000Y-97712200D01*
X119176895Y-97712200D01*
X119272343Y-97702799D01*
X119507905Y-97726000D01*
G37*
%TD.AperFunction*%
D22*
X147352762Y-91801157D02*
X147354541Y-91802936D01*
X147370000Y-91802095D01*
X147385459Y-91802936D01*
X147387238Y-91801157D01*
X147447000Y-91797906D01*
X147447000Y-91821000D01*
X147570094Y-91821000D01*
X147565064Y-91913459D01*
X147599605Y-91948000D01*
X147565064Y-91982541D01*
X147570094Y-92075000D01*
X147447000Y-92075000D01*
X147447000Y-92098094D01*
X147387238Y-92094843D01*
X147385459Y-92093064D01*
X147370000Y-92093905D01*
X147354541Y-92093064D01*
X147352762Y-92094843D01*
X147193000Y-92103533D01*
X147193000Y-92075000D01*
X147169906Y-92075000D01*
X147174936Y-91982541D01*
X147140395Y-91948000D01*
X147174936Y-91913459D01*
X147169906Y-91821000D01*
X147193000Y-91821000D01*
X147193000Y-91792467D01*
X147352762Y-91801157D01*
%TA.AperFunction,Conductor*%
D23*
G36*
X147352762Y-91801157D02*
G01*
X147354541Y-91802936D01*
X147370000Y-91802095D01*
X147385459Y-91802936D01*
X147387238Y-91801157D01*
X147447000Y-91797906D01*
X147447000Y-91821000D01*
X147570094Y-91821000D01*
X147565064Y-91913459D01*
X147599605Y-91948000D01*
X147565064Y-91982541D01*
X147570094Y-92075000D01*
X147447000Y-92075000D01*
X147447000Y-92098094D01*
X147387238Y-92094843D01*
X147385459Y-92093064D01*
X147370000Y-92093905D01*
X147354541Y-92093064D01*
X147352762Y-92094843D01*
X147193000Y-92103533D01*
X147193000Y-92075000D01*
X147169906Y-92075000D01*
X147174936Y-91982541D01*
X147140395Y-91948000D01*
X147174936Y-91913459D01*
X147169906Y-91821000D01*
X147193000Y-91821000D01*
X147193000Y-91792467D01*
X147352762Y-91801157D01*
G37*
%TD.AperFunction*%
D22*
X126932200Y-61923800D02*
X131440200Y-61923800D01*
X131440200Y-61903800D01*
X131694200Y-61903800D01*
X131694200Y-61923800D01*
X136202200Y-61923800D01*
X136202200Y-61873109D01*
X136988519Y-61873109D01*
X137109186Y-62103000D01*
X138303000Y-62103000D01*
X138303000Y-60909845D01*
X138557000Y-60909845D01*
X138557000Y-62103000D01*
X138577000Y-62103000D01*
X138577000Y-62357000D01*
X138557000Y-62357000D01*
X138557000Y-63550155D01*
X138786890Y-63671476D01*
X138934099Y-63626825D01*
X139196920Y-63501641D01*
X139430269Y-63327588D01*
X139506034Y-63243534D01*
X139530498Y-63324180D01*
X139589463Y-63434494D01*
X139668815Y-63531185D01*
X139765506Y-63610537D01*
X139875820Y-63669502D01*
X139995518Y-63705812D01*
X140120000Y-63718072D01*
X141820000Y-63718072D01*
X141944482Y-63705812D01*
X142064180Y-63669502D01*
X142174494Y-63610537D01*
X142271185Y-63531185D01*
X142350537Y-63434494D01*
X142409502Y-63324180D01*
X142445812Y-63204482D01*
X142458072Y-63080000D01*
X142458072Y-61380000D01*
X142445812Y-61255518D01*
X142409502Y-61135820D01*
X142350537Y-61025506D01*
X142271185Y-60928815D01*
X142174494Y-60849463D01*
X142064180Y-60790498D01*
X141944482Y-60754188D01*
X141820000Y-60741928D01*
X140120000Y-60741928D01*
X139995518Y-60754188D01*
X139875820Y-60790498D01*
X139765506Y-60849463D01*
X139668815Y-60928815D01*
X139589463Y-61025506D01*
X139530498Y-61135820D01*
X139506034Y-61216466D01*
X139430269Y-61132412D01*
X139196920Y-60958359D01*
X138934099Y-60833175D01*
X138786890Y-60788524D01*
X138557000Y-60909845D01*
X138303000Y-60909845D01*
X138073110Y-60788524D01*
X137925901Y-60833175D01*
X137663080Y-60958359D01*
X137429731Y-61132412D01*
X137234822Y-61348645D01*
X137085843Y-61598748D01*
X136988519Y-61873109D01*
X136202200Y-61873109D01*
X136202200Y-60660000D01*
X143442200Y-60660000D01*
X143442200Y-67900615D01*
X143369059Y-67840589D01*
X143215313Y-67758411D01*
X143048490Y-67707805D01*
X142918477Y-67695000D01*
X142918469Y-67695000D01*
X142875000Y-67690719D01*
X142831531Y-67695000D01*
X141816796Y-67695000D01*
X141848248Y-67591316D01*
X141865072Y-67420500D01*
X141865072Y-66945500D01*
X141848248Y-66774684D01*
X141798423Y-66610433D01*
X141731111Y-66484500D01*
X141798423Y-66358567D01*
X141848248Y-66194316D01*
X141865072Y-66023500D01*
X141865072Y-65548500D01*
X141848248Y-65377684D01*
X141798423Y-65213433D01*
X141717512Y-65062058D01*
X141608623Y-64929377D01*
X141475942Y-64820488D01*
X141324567Y-64739577D01*
X141160316Y-64689752D01*
X140989500Y-64672928D01*
X140489500Y-64672928D01*
X140318684Y-64689752D01*
X140154433Y-64739577D01*
X140003058Y-64820488D01*
X139870377Y-64929377D01*
X139827000Y-64982232D01*
X139783623Y-64929377D01*
X139650942Y-64820488D01*
X139499567Y-64739577D01*
X139335316Y-64689752D01*
X139164500Y-64672928D01*
X138664500Y-64672928D01*
X138493684Y-64689752D01*
X138329433Y-64739577D01*
X138178058Y-64820488D01*
X138079954Y-64901000D01*
X137076465Y-64901000D01*
X137032999Y-64896719D01*
X136989533Y-64901000D01*
X136989523Y-64901000D01*
X136859510Y-64913805D01*
X136692687Y-64964411D01*
X136538941Y-65046589D01*
X136538939Y-65046590D01*
X136538940Y-65046590D01*
X136437953Y-65129468D01*
X136437951Y-65129470D01*
X136404183Y-65157183D01*
X136376470Y-65190951D01*
X135888469Y-65678952D01*
X136088363Y-65079603D01*
X136202200Y-64177800D01*
X136202200Y-62586891D01*
X136988519Y-62586891D01*
X137085843Y-62861252D01*
X137234822Y-63111355D01*
X137429731Y-63327588D01*
X137663080Y-63501641D01*
X137925901Y-63626825D01*
X138073110Y-63671476D01*
X138303000Y-63550155D01*
X138303000Y-62357000D01*
X137109186Y-62357000D01*
X136988519Y-62586891D01*
X136202200Y-62586891D01*
X136202200Y-62177800D01*
X131694200Y-62177800D01*
X131694200Y-68525248D01*
X132417438Y-68607150D01*
X133171168Y-68396254D01*
X132485494Y-69081928D01*
X132350500Y-69081928D01*
X132179684Y-69098752D01*
X132015433Y-69148577D01*
X131911419Y-69204173D01*
X131893494Y-69189463D01*
X131783180Y-69130498D01*
X131663482Y-69094188D01*
X131539000Y-69081928D01*
X131349750Y-69085000D01*
X131191000Y-69243750D01*
X131191000Y-70080500D01*
X131211000Y-70080500D01*
X131211000Y-70334500D01*
X131191000Y-70334500D01*
X131191000Y-70354500D01*
X130937000Y-70354500D01*
X130937000Y-70334500D01*
X130917000Y-70334500D01*
X130917000Y-70080500D01*
X130937000Y-70080500D01*
X130937000Y-69243750D01*
X130778250Y-69085000D01*
X130589000Y-69081928D01*
X130464518Y-69094188D01*
X130344820Y-69130498D01*
X130234506Y-69189463D01*
X130137815Y-69268815D01*
X130058463Y-69365506D01*
X129999498Y-69475820D01*
X129963188Y-69595518D01*
X129950928Y-69720000D01*
X129954000Y-69921750D01*
X130112748Y-70080498D01*
X129954000Y-70080498D01*
X129954000Y-70169843D01*
X129534116Y-69749959D01*
X129519226Y-69675102D01*
X129441205Y-69486744D01*
X129327937Y-69317226D01*
X129183774Y-69173063D01*
X129014256Y-69059795D01*
X128825898Y-68981774D01*
X128625939Y-68942000D01*
X128422061Y-68942000D01*
X128222102Y-68981774D01*
X128033744Y-69059795D01*
X127864226Y-69173063D01*
X127720063Y-69317226D01*
X127606795Y-69486744D01*
X127528774Y-69675102D01*
X127489000Y-69875061D01*
X127489000Y-70078939D01*
X127528774Y-70278898D01*
X127606795Y-70467256D01*
X127720063Y-70636774D01*
X127864226Y-70780937D01*
X127968011Y-70850284D01*
X127860795Y-71010744D01*
X127782774Y-71199102D01*
X127743000Y-71399061D01*
X127743000Y-71602939D01*
X127782774Y-71802898D01*
X127860795Y-71991256D01*
X127942142Y-72113000D01*
X126530556Y-72113000D01*
X126492000Y-72109203D01*
X126453444Y-72113000D01*
X126453439Y-72113000D01*
X126413026Y-72116980D01*
X126338113Y-72124358D01*
X126190140Y-72169246D01*
X126053767Y-72242138D01*
X125934236Y-72340236D01*
X125909653Y-72370190D01*
X124186190Y-74093653D01*
X124156236Y-74118236D01*
X124058138Y-74237768D01*
X123985246Y-74374141D01*
X123940359Y-74522114D01*
X123929000Y-74637440D01*
X123929000Y-74637447D01*
X123925203Y-74676000D01*
X123929000Y-74714553D01*
X123929001Y-81462841D01*
X119816843Y-85575000D01*
X118963072Y-85575000D01*
X118963072Y-85510000D01*
X118950812Y-85385518D01*
X118914502Y-85265820D01*
X118855537Y-85155506D01*
X118776185Y-85058815D01*
X118679494Y-84979463D01*
X118569180Y-84920498D01*
X118488534Y-84896034D01*
X118572588Y-84820269D01*
X118746641Y-84586920D01*
X118871825Y-84324099D01*
X118916476Y-84176890D01*
X118795155Y-83947000D01*
X117602000Y-83947000D01*
X117602000Y-83967000D01*
X117348000Y-83967000D01*
X117348000Y-83947000D01*
X116154845Y-83947000D01*
X116033524Y-84176890D01*
X116078175Y-84324099D01*
X116203359Y-84586920D01*
X116377412Y-84820269D01*
X116461466Y-84896034D01*
X116380820Y-84920498D01*
X116270506Y-84979463D01*
X116173815Y-85058815D01*
X116094463Y-85155506D01*
X116035498Y-85265820D01*
X115999188Y-85385518D01*
X115986928Y-85510000D01*
X115986928Y-87210000D01*
X115999188Y-87334482D01*
X116035498Y-87454180D01*
X116094463Y-87564494D01*
X116173815Y-87661185D01*
X116270506Y-87740537D01*
X116380820Y-87799502D01*
X116500518Y-87835812D01*
X116625000Y-87848072D01*
X118325000Y-87848072D01*
X118449482Y-87835812D01*
X118569180Y-87799502D01*
X118679494Y-87740537D01*
X118776185Y-87661185D01*
X118855537Y-87564494D01*
X118914502Y-87454180D01*
X118950812Y-87334482D01*
X118963072Y-87210000D01*
X118963072Y-87145000D01*
X120103447Y-87145000D01*
X120142000Y-87148797D01*
X120180553Y-87145000D01*
X120180561Y-87145000D01*
X120295887Y-87133641D01*
X120443860Y-87088754D01*
X120580233Y-87015862D01*
X120699764Y-86917764D01*
X120724347Y-86887810D01*
X124885645Y-82726512D01*
X124889188Y-82762482D01*
X124925498Y-82882180D01*
X124984463Y-82992494D01*
X125063815Y-83089185D01*
X125160506Y-83168537D01*
X125270820Y-83227502D01*
X125390518Y-83263812D01*
X125515000Y-83276072D01*
X127215000Y-83276072D01*
X127339482Y-83263812D01*
X127459180Y-83227502D01*
X127569494Y-83168537D01*
X127666185Y-83089185D01*
X127745537Y-82992494D01*
X127804502Y-82882180D01*
X127840812Y-82762482D01*
X127853072Y-82638000D01*
X127853072Y-80938000D01*
X127840812Y-80813518D01*
X127804502Y-80693820D01*
X127745537Y-80583506D01*
X127666185Y-80486815D01*
X127569494Y-80407463D01*
X127459180Y-80348498D01*
X127378534Y-80324034D01*
X127462588Y-80248269D01*
X127636641Y-80014920D01*
X127761825Y-79752099D01*
X127806476Y-79604890D01*
X127685155Y-79375000D01*
X126492000Y-79375000D01*
X126492000Y-79395000D01*
X126238000Y-79395000D01*
X126238000Y-79375000D01*
X126218000Y-79375000D01*
X126218000Y-79121000D01*
X126238000Y-79121000D01*
X126238000Y-79101000D01*
X126492000Y-79101000D01*
X126492000Y-79121000D01*
X127685155Y-79121000D01*
X127806476Y-78891110D01*
X127761825Y-78743901D01*
X127636641Y-78481080D01*
X127462588Y-78247731D01*
X127246355Y-78052822D01*
X127129466Y-77983195D01*
X127311632Y-77861475D01*
X127518475Y-77654632D01*
X127680990Y-77411411D01*
X127792932Y-77141158D01*
X127850000Y-76854260D01*
X127850000Y-76561740D01*
X127792932Y-76274842D01*
X127718658Y-76095529D01*
X127723439Y-76096000D01*
X127723444Y-76096000D01*
X127762000Y-76099797D01*
X127800555Y-76096000D01*
X128579843Y-76096000D01*
X141201001Y-88717158D01*
X141201000Y-91847121D01*
X139328452Y-89974573D01*
X139183298Y-89797702D01*
X138477527Y-89218492D01*
X137672320Y-88788099D01*
X136798619Y-88523065D01*
X136117695Y-88456000D01*
X119507905Y-88456000D01*
X119412457Y-88465401D01*
X119176895Y-88442200D01*
X115660000Y-88442200D01*
X115660000Y-83463110D01*
X116033524Y-83463110D01*
X116154845Y-83693000D01*
X117348000Y-83693000D01*
X117348000Y-82499186D01*
X117602000Y-82499186D01*
X117602000Y-83693000D01*
X118795155Y-83693000D01*
X118916476Y-83463110D01*
X118871825Y-83315901D01*
X118746641Y-83053080D01*
X118572588Y-82819731D01*
X118356355Y-82624822D01*
X118106252Y-82475843D01*
X117831891Y-82378519D01*
X117602000Y-82499186D01*
X117348000Y-82499186D01*
X117118109Y-82378519D01*
X116843748Y-82475843D01*
X116593645Y-82624822D01*
X116377412Y-82819731D01*
X116203359Y-83053080D01*
X116078175Y-83315901D01*
X116033524Y-83463110D01*
X115660000Y-83463110D01*
X115660000Y-81202200D01*
X116822200Y-81202200D01*
X116822200Y-76694200D01*
X117076200Y-76694200D01*
X117076200Y-81202200D01*
X119076200Y-81202200D01*
X119978003Y-81088363D01*
X120840270Y-80800781D01*
X121629864Y-80350504D01*
X122316442Y-79754837D01*
X122873619Y-79036671D01*
X123279982Y-78223605D01*
X123505550Y-77417438D01*
X123423648Y-76694200D01*
X117076200Y-76694200D01*
X116822200Y-76694200D01*
X116802200Y-76694200D01*
X116802200Y-76440200D01*
X116822200Y-76440200D01*
X116822200Y-71932200D01*
X117076200Y-71932200D01*
X117076200Y-76440200D01*
X123423648Y-76440200D01*
X123505550Y-75716962D01*
X123279982Y-74910795D01*
X122873619Y-74097729D01*
X122316442Y-73379563D01*
X121629864Y-72783896D01*
X120840270Y-72333619D01*
X119978003Y-72046037D01*
X119076200Y-71932200D01*
X117076200Y-71932200D01*
X116822200Y-71932200D01*
X115660000Y-71932200D01*
X115660000Y-67452033D01*
X117727572Y-67452033D01*
X118045757Y-67905850D01*
X118650210Y-68231269D01*
X119306535Y-68432512D01*
X119989510Y-68501845D01*
X120672888Y-68436605D01*
X121330407Y-68239298D01*
X121936799Y-67917506D01*
X121954243Y-67905850D01*
X122272428Y-67452033D01*
X120000000Y-65179605D01*
X117727572Y-67452033D01*
X115660000Y-67452033D01*
X115660000Y-65029392D01*
X115663559Y-64989510D01*
X116498155Y-64989510D01*
X116563395Y-65672888D01*
X116760702Y-66330407D01*
X117082494Y-66936799D01*
X117094150Y-66954243D01*
X117547967Y-67272428D01*
X119820395Y-65000000D01*
X120179605Y-65000000D01*
X122452033Y-67272428D01*
X122905850Y-66954243D01*
X123231269Y-66349790D01*
X123432512Y-65693465D01*
X123501845Y-65010490D01*
X123436605Y-64327112D01*
X123239298Y-63669593D01*
X122917506Y-63063201D01*
X122905850Y-63045757D01*
X122452033Y-62727572D01*
X120179605Y-65000000D01*
X119820395Y-65000000D01*
X117547967Y-62727572D01*
X117094150Y-63045757D01*
X116768731Y-63650210D01*
X116567488Y-64306535D01*
X116498155Y-64989510D01*
X115663559Y-64989510D01*
X115731173Y-64231917D01*
X115768291Y-64096236D01*
X117275816Y-62547967D01*
X117727572Y-62547967D01*
X120000000Y-64820395D01*
X122272428Y-62547967D01*
X122012893Y-62177800D01*
X126932200Y-62177800D01*
X126932200Y-64177800D01*
X127046037Y-65079603D01*
X127333619Y-65941870D01*
X127783896Y-66731464D01*
X128379563Y-67418042D01*
X129097729Y-67975219D01*
X129910795Y-68381582D01*
X130716962Y-68607150D01*
X131440200Y-68525248D01*
X131440200Y-62177800D01*
X126932200Y-62177800D01*
X122012893Y-62177800D01*
X121954243Y-62094150D01*
X121349790Y-61768731D01*
X120693465Y-61567488D01*
X120010490Y-61498155D01*
X119327112Y-61563395D01*
X118669593Y-61760702D01*
X118063201Y-62082494D01*
X118045757Y-62094150D01*
X117727572Y-62547967D01*
X117275816Y-62547967D01*
X118974674Y-60803194D01*
X119371457Y-60707935D01*
X120024207Y-60660000D01*
X126932200Y-60660000D01*
X126932200Y-61923800D01*
%TA.AperFunction,Conductor*%
D23*
G36*
X126932200Y-61923800D02*
G01*
X131440200Y-61923800D01*
X131440200Y-61903800D01*
X131694200Y-61903800D01*
X131694200Y-61923800D01*
X136202200Y-61923800D01*
X136202200Y-61873109D01*
X136988519Y-61873109D01*
X137109186Y-62103000D01*
X138303000Y-62103000D01*
X138303000Y-60909845D01*
X138557000Y-60909845D01*
X138557000Y-62103000D01*
X138577000Y-62103000D01*
X138577000Y-62357000D01*
X138557000Y-62357000D01*
X138557000Y-63550155D01*
X138786890Y-63671476D01*
X138934099Y-63626825D01*
X139196920Y-63501641D01*
X139430269Y-63327588D01*
X139506034Y-63243534D01*
X139530498Y-63324180D01*
X139589463Y-63434494D01*
X139668815Y-63531185D01*
X139765506Y-63610537D01*
X139875820Y-63669502D01*
X139995518Y-63705812D01*
X140120000Y-63718072D01*
X141820000Y-63718072D01*
X141944482Y-63705812D01*
X142064180Y-63669502D01*
X142174494Y-63610537D01*
X142271185Y-63531185D01*
X142350537Y-63434494D01*
X142409502Y-63324180D01*
X142445812Y-63204482D01*
X142458072Y-63080000D01*
X142458072Y-61380000D01*
X142445812Y-61255518D01*
X142409502Y-61135820D01*
X142350537Y-61025506D01*
X142271185Y-60928815D01*
X142174494Y-60849463D01*
X142064180Y-60790498D01*
X141944482Y-60754188D01*
X141820000Y-60741928D01*
X140120000Y-60741928D01*
X139995518Y-60754188D01*
X139875820Y-60790498D01*
X139765506Y-60849463D01*
X139668815Y-60928815D01*
X139589463Y-61025506D01*
X139530498Y-61135820D01*
X139506034Y-61216466D01*
X139430269Y-61132412D01*
X139196920Y-60958359D01*
X138934099Y-60833175D01*
X138786890Y-60788524D01*
X138557000Y-60909845D01*
X138303000Y-60909845D01*
X138073110Y-60788524D01*
X137925901Y-60833175D01*
X137663080Y-60958359D01*
X137429731Y-61132412D01*
X137234822Y-61348645D01*
X137085843Y-61598748D01*
X136988519Y-61873109D01*
X136202200Y-61873109D01*
X136202200Y-60660000D01*
X143442200Y-60660000D01*
X143442200Y-67900615D01*
X143369059Y-67840589D01*
X143215313Y-67758411D01*
X143048490Y-67707805D01*
X142918477Y-67695000D01*
X142918469Y-67695000D01*
X142875000Y-67690719D01*
X142831531Y-67695000D01*
X141816796Y-67695000D01*
X141848248Y-67591316D01*
X141865072Y-67420500D01*
X141865072Y-66945500D01*
X141848248Y-66774684D01*
X141798423Y-66610433D01*
X141731111Y-66484500D01*
X141798423Y-66358567D01*
X141848248Y-66194316D01*
X141865072Y-66023500D01*
X141865072Y-65548500D01*
X141848248Y-65377684D01*
X141798423Y-65213433D01*
X141717512Y-65062058D01*
X141608623Y-64929377D01*
X141475942Y-64820488D01*
X141324567Y-64739577D01*
X141160316Y-64689752D01*
X140989500Y-64672928D01*
X140489500Y-64672928D01*
X140318684Y-64689752D01*
X140154433Y-64739577D01*
X140003058Y-64820488D01*
X139870377Y-64929377D01*
X139827000Y-64982232D01*
X139783623Y-64929377D01*
X139650942Y-64820488D01*
X139499567Y-64739577D01*
X139335316Y-64689752D01*
X139164500Y-64672928D01*
X138664500Y-64672928D01*
X138493684Y-64689752D01*
X138329433Y-64739577D01*
X138178058Y-64820488D01*
X138079954Y-64901000D01*
X137076465Y-64901000D01*
X137032999Y-64896719D01*
X136989533Y-64901000D01*
X136989523Y-64901000D01*
X136859510Y-64913805D01*
X136692687Y-64964411D01*
X136538941Y-65046589D01*
X136538939Y-65046590D01*
X136538940Y-65046590D01*
X136437953Y-65129468D01*
X136437951Y-65129470D01*
X136404183Y-65157183D01*
X136376470Y-65190951D01*
X135888469Y-65678952D01*
X136088363Y-65079603D01*
X136202200Y-64177800D01*
X136202200Y-62586891D01*
X136988519Y-62586891D01*
X137085843Y-62861252D01*
X137234822Y-63111355D01*
X137429731Y-63327588D01*
X137663080Y-63501641D01*
X137925901Y-63626825D01*
X138073110Y-63671476D01*
X138303000Y-63550155D01*
X138303000Y-62357000D01*
X137109186Y-62357000D01*
X136988519Y-62586891D01*
X136202200Y-62586891D01*
X136202200Y-62177800D01*
X131694200Y-62177800D01*
X131694200Y-68525248D01*
X132417438Y-68607150D01*
X133171168Y-68396254D01*
X132485494Y-69081928D01*
X132350500Y-69081928D01*
X132179684Y-69098752D01*
X132015433Y-69148577D01*
X131911419Y-69204173D01*
X131893494Y-69189463D01*
X131783180Y-69130498D01*
X131663482Y-69094188D01*
X131539000Y-69081928D01*
X131349750Y-69085000D01*
X131191000Y-69243750D01*
X131191000Y-70080500D01*
X131211000Y-70080500D01*
X131211000Y-70334500D01*
X131191000Y-70334500D01*
X131191000Y-70354500D01*
X130937000Y-70354500D01*
X130937000Y-70334500D01*
X130917000Y-70334500D01*
X130917000Y-70080500D01*
X130937000Y-70080500D01*
X130937000Y-69243750D01*
X130778250Y-69085000D01*
X130589000Y-69081928D01*
X130464518Y-69094188D01*
X130344820Y-69130498D01*
X130234506Y-69189463D01*
X130137815Y-69268815D01*
X130058463Y-69365506D01*
X129999498Y-69475820D01*
X129963188Y-69595518D01*
X129950928Y-69720000D01*
X129954000Y-69921750D01*
X130112748Y-70080498D01*
X129954000Y-70080498D01*
X129954000Y-70169843D01*
X129534116Y-69749959D01*
X129519226Y-69675102D01*
X129441205Y-69486744D01*
X129327937Y-69317226D01*
X129183774Y-69173063D01*
X129014256Y-69059795D01*
X128825898Y-68981774D01*
X128625939Y-68942000D01*
X128422061Y-68942000D01*
X128222102Y-68981774D01*
X128033744Y-69059795D01*
X127864226Y-69173063D01*
X127720063Y-69317226D01*
X127606795Y-69486744D01*
X127528774Y-69675102D01*
X127489000Y-69875061D01*
X127489000Y-70078939D01*
X127528774Y-70278898D01*
X127606795Y-70467256D01*
X127720063Y-70636774D01*
X127864226Y-70780937D01*
X127968011Y-70850284D01*
X127860795Y-71010744D01*
X127782774Y-71199102D01*
X127743000Y-71399061D01*
X127743000Y-71602939D01*
X127782774Y-71802898D01*
X127860795Y-71991256D01*
X127942142Y-72113000D01*
X126530556Y-72113000D01*
X126492000Y-72109203D01*
X126453444Y-72113000D01*
X126453439Y-72113000D01*
X126413026Y-72116980D01*
X126338113Y-72124358D01*
X126190140Y-72169246D01*
X126053767Y-72242138D01*
X125934236Y-72340236D01*
X125909653Y-72370190D01*
X124186190Y-74093653D01*
X124156236Y-74118236D01*
X124058138Y-74237768D01*
X123985246Y-74374141D01*
X123940359Y-74522114D01*
X123929000Y-74637440D01*
X123929000Y-74637447D01*
X123925203Y-74676000D01*
X123929000Y-74714553D01*
X123929001Y-81462841D01*
X119816843Y-85575000D01*
X118963072Y-85575000D01*
X118963072Y-85510000D01*
X118950812Y-85385518D01*
X118914502Y-85265820D01*
X118855537Y-85155506D01*
X118776185Y-85058815D01*
X118679494Y-84979463D01*
X118569180Y-84920498D01*
X118488534Y-84896034D01*
X118572588Y-84820269D01*
X118746641Y-84586920D01*
X118871825Y-84324099D01*
X118916476Y-84176890D01*
X118795155Y-83947000D01*
X117602000Y-83947000D01*
X117602000Y-83967000D01*
X117348000Y-83967000D01*
X117348000Y-83947000D01*
X116154845Y-83947000D01*
X116033524Y-84176890D01*
X116078175Y-84324099D01*
X116203359Y-84586920D01*
X116377412Y-84820269D01*
X116461466Y-84896034D01*
X116380820Y-84920498D01*
X116270506Y-84979463D01*
X116173815Y-85058815D01*
X116094463Y-85155506D01*
X116035498Y-85265820D01*
X115999188Y-85385518D01*
X115986928Y-85510000D01*
X115986928Y-87210000D01*
X115999188Y-87334482D01*
X116035498Y-87454180D01*
X116094463Y-87564494D01*
X116173815Y-87661185D01*
X116270506Y-87740537D01*
X116380820Y-87799502D01*
X116500518Y-87835812D01*
X116625000Y-87848072D01*
X118325000Y-87848072D01*
X118449482Y-87835812D01*
X118569180Y-87799502D01*
X118679494Y-87740537D01*
X118776185Y-87661185D01*
X118855537Y-87564494D01*
X118914502Y-87454180D01*
X118950812Y-87334482D01*
X118963072Y-87210000D01*
X118963072Y-87145000D01*
X120103447Y-87145000D01*
X120142000Y-87148797D01*
X120180553Y-87145000D01*
X120180561Y-87145000D01*
X120295887Y-87133641D01*
X120443860Y-87088754D01*
X120580233Y-87015862D01*
X120699764Y-86917764D01*
X120724347Y-86887810D01*
X124885645Y-82726512D01*
X124889188Y-82762482D01*
X124925498Y-82882180D01*
X124984463Y-82992494D01*
X125063815Y-83089185D01*
X125160506Y-83168537D01*
X125270820Y-83227502D01*
X125390518Y-83263812D01*
X125515000Y-83276072D01*
X127215000Y-83276072D01*
X127339482Y-83263812D01*
X127459180Y-83227502D01*
X127569494Y-83168537D01*
X127666185Y-83089185D01*
X127745537Y-82992494D01*
X127804502Y-82882180D01*
X127840812Y-82762482D01*
X127853072Y-82638000D01*
X127853072Y-80938000D01*
X127840812Y-80813518D01*
X127804502Y-80693820D01*
X127745537Y-80583506D01*
X127666185Y-80486815D01*
X127569494Y-80407463D01*
X127459180Y-80348498D01*
X127378534Y-80324034D01*
X127462588Y-80248269D01*
X127636641Y-80014920D01*
X127761825Y-79752099D01*
X127806476Y-79604890D01*
X127685155Y-79375000D01*
X126492000Y-79375000D01*
X126492000Y-79395000D01*
X126238000Y-79395000D01*
X126238000Y-79375000D01*
X126218000Y-79375000D01*
X126218000Y-79121000D01*
X126238000Y-79121000D01*
X126238000Y-79101000D01*
X126492000Y-79101000D01*
X126492000Y-79121000D01*
X127685155Y-79121000D01*
X127806476Y-78891110D01*
X127761825Y-78743901D01*
X127636641Y-78481080D01*
X127462588Y-78247731D01*
X127246355Y-78052822D01*
X127129466Y-77983195D01*
X127311632Y-77861475D01*
X127518475Y-77654632D01*
X127680990Y-77411411D01*
X127792932Y-77141158D01*
X127850000Y-76854260D01*
X127850000Y-76561740D01*
X127792932Y-76274842D01*
X127718658Y-76095529D01*
X127723439Y-76096000D01*
X127723444Y-76096000D01*
X127762000Y-76099797D01*
X127800555Y-76096000D01*
X128579843Y-76096000D01*
X141201001Y-88717158D01*
X141201000Y-91847121D01*
X139328452Y-89974573D01*
X139183298Y-89797702D01*
X138477527Y-89218492D01*
X137672320Y-88788099D01*
X136798619Y-88523065D01*
X136117695Y-88456000D01*
X119507905Y-88456000D01*
X119412457Y-88465401D01*
X119176895Y-88442200D01*
X115660000Y-88442200D01*
X115660000Y-83463110D01*
X116033524Y-83463110D01*
X116154845Y-83693000D01*
X117348000Y-83693000D01*
X117348000Y-82499186D01*
X117602000Y-82499186D01*
X117602000Y-83693000D01*
X118795155Y-83693000D01*
X118916476Y-83463110D01*
X118871825Y-83315901D01*
X118746641Y-83053080D01*
X118572588Y-82819731D01*
X118356355Y-82624822D01*
X118106252Y-82475843D01*
X117831891Y-82378519D01*
X117602000Y-82499186D01*
X117348000Y-82499186D01*
X117118109Y-82378519D01*
X116843748Y-82475843D01*
X116593645Y-82624822D01*
X116377412Y-82819731D01*
X116203359Y-83053080D01*
X116078175Y-83315901D01*
X116033524Y-83463110D01*
X115660000Y-83463110D01*
X115660000Y-81202200D01*
X116822200Y-81202200D01*
X116822200Y-76694200D01*
X117076200Y-76694200D01*
X117076200Y-81202200D01*
X119076200Y-81202200D01*
X119978003Y-81088363D01*
X120840270Y-80800781D01*
X121629864Y-80350504D01*
X122316442Y-79754837D01*
X122873619Y-79036671D01*
X123279982Y-78223605D01*
X123505550Y-77417438D01*
X123423648Y-76694200D01*
X117076200Y-76694200D01*
X116822200Y-76694200D01*
X116802200Y-76694200D01*
X116802200Y-76440200D01*
X116822200Y-76440200D01*
X116822200Y-71932200D01*
X117076200Y-71932200D01*
X117076200Y-76440200D01*
X123423648Y-76440200D01*
X123505550Y-75716962D01*
X123279982Y-74910795D01*
X122873619Y-74097729D01*
X122316442Y-73379563D01*
X121629864Y-72783896D01*
X120840270Y-72333619D01*
X119978003Y-72046037D01*
X119076200Y-71932200D01*
X117076200Y-71932200D01*
X116822200Y-71932200D01*
X115660000Y-71932200D01*
X115660000Y-67452033D01*
X117727572Y-67452033D01*
X118045757Y-67905850D01*
X118650210Y-68231269D01*
X119306535Y-68432512D01*
X119989510Y-68501845D01*
X120672888Y-68436605D01*
X121330407Y-68239298D01*
X121936799Y-67917506D01*
X121954243Y-67905850D01*
X122272428Y-67452033D01*
X120000000Y-65179605D01*
X117727572Y-67452033D01*
X115660000Y-67452033D01*
X115660000Y-65029392D01*
X115663559Y-64989510D01*
X116498155Y-64989510D01*
X116563395Y-65672888D01*
X116760702Y-66330407D01*
X117082494Y-66936799D01*
X117094150Y-66954243D01*
X117547967Y-67272428D01*
X119820395Y-65000000D01*
X120179605Y-65000000D01*
X122452033Y-67272428D01*
X122905850Y-66954243D01*
X123231269Y-66349790D01*
X123432512Y-65693465D01*
X123501845Y-65010490D01*
X123436605Y-64327112D01*
X123239298Y-63669593D01*
X122917506Y-63063201D01*
X122905850Y-63045757D01*
X122452033Y-62727572D01*
X120179605Y-65000000D01*
X119820395Y-65000000D01*
X117547967Y-62727572D01*
X117094150Y-63045757D01*
X116768731Y-63650210D01*
X116567488Y-64306535D01*
X116498155Y-64989510D01*
X115663559Y-64989510D01*
X115731173Y-64231917D01*
X115768291Y-64096236D01*
X117275816Y-62547967D01*
X117727572Y-62547967D01*
X120000000Y-64820395D01*
X122272428Y-62547967D01*
X122012893Y-62177800D01*
X126932200Y-62177800D01*
X126932200Y-64177800D01*
X127046037Y-65079603D01*
X127333619Y-65941870D01*
X127783896Y-66731464D01*
X128379563Y-67418042D01*
X129097729Y-67975219D01*
X129910795Y-68381582D01*
X130716962Y-68607150D01*
X131440200Y-68525248D01*
X131440200Y-62177800D01*
X126932200Y-62177800D01*
X122012893Y-62177800D01*
X121954243Y-62094150D01*
X121349790Y-61768731D01*
X120693465Y-61567488D01*
X120010490Y-61498155D01*
X119327112Y-61563395D01*
X118669593Y-61760702D01*
X118063201Y-62082494D01*
X118045757Y-62094150D01*
X117727572Y-62547967D01*
X117275816Y-62547967D01*
X118974674Y-60803194D01*
X119371457Y-60707935D01*
X120024207Y-60660000D01*
X126932200Y-60660000D01*
X126932200Y-61923800D01*
G37*
%TD.AperFunction*%
D22*
X160595063Y-60715731D02*
X161922204Y-62076901D01*
X161349790Y-61768731D01*
X160693465Y-61567488D01*
X160010490Y-61498155D01*
X159327112Y-61563395D01*
X158669593Y-61760702D01*
X158063201Y-62082494D01*
X158045757Y-62094150D01*
X157727572Y-62547967D01*
X160000000Y-64820395D01*
X160014143Y-64806253D01*
X160193748Y-64985858D01*
X160179605Y-65000000D01*
X162452033Y-67272428D01*
X162905850Y-66954243D01*
X163231269Y-66349790D01*
X163432512Y-65693465D01*
X163501845Y-65010490D01*
X163436605Y-64327112D01*
X163239298Y-63669593D01*
X162957706Y-63138954D01*
X164302871Y-64518611D01*
X164340000Y-65024207D01*
X164340000Y-71965500D01*
X164076200Y-71932200D01*
X162076200Y-71932200D01*
X162076200Y-76440200D01*
X162096200Y-76440200D01*
X162096200Y-76694200D01*
X162076200Y-76694200D01*
X162076200Y-81202200D01*
X164076200Y-81202200D01*
X164340000Y-81168900D01*
X164340001Y-88458264D01*
X164176895Y-88442200D01*
X162694870Y-88442200D01*
X162100742Y-87848072D01*
X163410000Y-87848072D01*
X163534482Y-87835812D01*
X163654180Y-87799502D01*
X163764494Y-87740537D01*
X163861185Y-87661185D01*
X163940537Y-87564494D01*
X163999502Y-87454180D01*
X164035812Y-87334482D01*
X164048072Y-87210000D01*
X164048072Y-85510000D01*
X164035812Y-85385518D01*
X163999502Y-85265820D01*
X163940537Y-85155506D01*
X163861185Y-85058815D01*
X163764494Y-84979463D01*
X163654180Y-84920498D01*
X163573534Y-84896034D01*
X163657588Y-84820269D01*
X163831641Y-84586920D01*
X163956825Y-84324099D01*
X164001476Y-84176890D01*
X163880155Y-83947000D01*
X162687000Y-83947000D01*
X162687000Y-83967000D01*
X162433000Y-83967000D01*
X162433000Y-83947000D01*
X161239845Y-83947000D01*
X161118524Y-84176890D01*
X161163175Y-84324099D01*
X161288359Y-84586920D01*
X161462412Y-84820269D01*
X161546466Y-84896034D01*
X161465820Y-84920498D01*
X161355506Y-84979463D01*
X161258815Y-85058815D01*
X161179463Y-85155506D01*
X161120498Y-85265820D01*
X161084188Y-85385518D01*
X161071928Y-85510000D01*
X161071928Y-86819259D01*
X157715779Y-83463110D01*
X161118524Y-83463110D01*
X161239845Y-83693000D01*
X162433000Y-83693000D01*
X162433000Y-82499186D01*
X162687000Y-82499186D01*
X162687000Y-83693000D01*
X163880155Y-83693000D01*
X164001476Y-83463110D01*
X163956825Y-83315901D01*
X163831641Y-83053080D01*
X163657588Y-82819731D01*
X163441355Y-82624822D01*
X163191252Y-82475843D01*
X162916891Y-82378519D01*
X162687000Y-82499186D01*
X162433000Y-82499186D01*
X162203109Y-82378519D01*
X161928748Y-82475843D01*
X161678645Y-82624822D01*
X161462412Y-82819731D01*
X161288359Y-83053080D01*
X161163175Y-83315901D01*
X161118524Y-83463110D01*
X157715779Y-83463110D01*
X152712200Y-78459531D01*
X152712200Y-77417438D01*
X155392850Y-77417438D01*
X155618418Y-78223605D01*
X156024781Y-79036671D01*
X156581958Y-79754837D01*
X157268536Y-80350504D01*
X158058130Y-80800781D01*
X158920397Y-81088363D01*
X159822200Y-81202200D01*
X161822200Y-81202200D01*
X161822200Y-76694200D01*
X155474752Y-76694200D01*
X155392850Y-77417438D01*
X152712200Y-77417438D01*
X152712200Y-75716962D01*
X155392850Y-75716962D01*
X155474752Y-76440200D01*
X161822200Y-76440200D01*
X161822200Y-71932200D01*
X159822200Y-71932200D01*
X158920397Y-72046037D01*
X158058130Y-72333619D01*
X157268536Y-72783896D01*
X156581958Y-73379563D01*
X156024781Y-74097729D01*
X155618418Y-74910795D01*
X155392850Y-75716962D01*
X152712200Y-75716962D01*
X152712200Y-67452033D01*
X157727572Y-67452033D01*
X158045757Y-67905850D01*
X158650210Y-68231269D01*
X159306535Y-68432512D01*
X159989510Y-68501845D01*
X160672888Y-68436605D01*
X161330407Y-68239298D01*
X161936799Y-67917506D01*
X161954243Y-67905850D01*
X162272428Y-67452033D01*
X160000000Y-65179605D01*
X157727572Y-67452033D01*
X152712200Y-67452033D01*
X152712200Y-67030959D01*
X152890256Y-66957205D01*
X153059774Y-66843937D01*
X153203937Y-66699774D01*
X153317205Y-66530256D01*
X153395226Y-66341898D01*
X153435000Y-66141939D01*
X153435000Y-65938061D01*
X153395226Y-65738102D01*
X153317205Y-65549744D01*
X153220490Y-65405000D01*
X153317205Y-65260256D01*
X153395226Y-65071898D01*
X153411613Y-64989510D01*
X156498155Y-64989510D01*
X156563395Y-65672888D01*
X156760702Y-66330407D01*
X157082494Y-66936799D01*
X157094150Y-66954243D01*
X157547967Y-67272428D01*
X159820395Y-65000000D01*
X157547967Y-62727572D01*
X157094150Y-63045757D01*
X156768731Y-63650210D01*
X156567488Y-64306535D01*
X156498155Y-64989510D01*
X153411613Y-64989510D01*
X153435000Y-64871939D01*
X153435000Y-64668061D01*
X153401961Y-64501961D01*
X153568061Y-64535000D01*
X153771939Y-64535000D01*
X153971898Y-64495226D01*
X154160256Y-64417205D01*
X154329774Y-64303937D01*
X154473937Y-64159774D01*
X154587205Y-63990256D01*
X154665226Y-63801898D01*
X154705000Y-63601939D01*
X154705000Y-63398061D01*
X154665226Y-63198102D01*
X154587205Y-63009744D01*
X154473937Y-62840226D01*
X154329774Y-62696063D01*
X154160256Y-62582795D01*
X153971898Y-62504774D01*
X153771939Y-62465000D01*
X153568061Y-62465000D01*
X153401961Y-62498039D01*
X153435000Y-62331939D01*
X153435000Y-62128061D01*
X153395226Y-61928102D01*
X153317205Y-61739744D01*
X153203937Y-61570226D01*
X153059774Y-61426063D01*
X152890256Y-61312795D01*
X152712200Y-61239041D01*
X152712200Y-60660000D01*
X159970608Y-60660000D01*
X160595063Y-60715731D01*
%TA.AperFunction,Conductor*%
D23*
G36*
X160595063Y-60715731D02*
G01*
X161922204Y-62076901D01*
X161349790Y-61768731D01*
X160693465Y-61567488D01*
X160010490Y-61498155D01*
X159327112Y-61563395D01*
X158669593Y-61760702D01*
X158063201Y-62082494D01*
X158045757Y-62094150D01*
X157727572Y-62547967D01*
X160000000Y-64820395D01*
X160014143Y-64806253D01*
X160193748Y-64985858D01*
X160179605Y-65000000D01*
X162452033Y-67272428D01*
X162905850Y-66954243D01*
X163231269Y-66349790D01*
X163432512Y-65693465D01*
X163501845Y-65010490D01*
X163436605Y-64327112D01*
X163239298Y-63669593D01*
X162957706Y-63138954D01*
X164302871Y-64518611D01*
X164340000Y-65024207D01*
X164340000Y-71965500D01*
X164076200Y-71932200D01*
X162076200Y-71932200D01*
X162076200Y-76440200D01*
X162096200Y-76440200D01*
X162096200Y-76694200D01*
X162076200Y-76694200D01*
X162076200Y-81202200D01*
X164076200Y-81202200D01*
X164340000Y-81168900D01*
X164340001Y-88458264D01*
X164176895Y-88442200D01*
X162694870Y-88442200D01*
X162100742Y-87848072D01*
X163410000Y-87848072D01*
X163534482Y-87835812D01*
X163654180Y-87799502D01*
X163764494Y-87740537D01*
X163861185Y-87661185D01*
X163940537Y-87564494D01*
X163999502Y-87454180D01*
X164035812Y-87334482D01*
X164048072Y-87210000D01*
X164048072Y-85510000D01*
X164035812Y-85385518D01*
X163999502Y-85265820D01*
X163940537Y-85155506D01*
X163861185Y-85058815D01*
X163764494Y-84979463D01*
X163654180Y-84920498D01*
X163573534Y-84896034D01*
X163657588Y-84820269D01*
X163831641Y-84586920D01*
X163956825Y-84324099D01*
X164001476Y-84176890D01*
X163880155Y-83947000D01*
X162687000Y-83947000D01*
X162687000Y-83967000D01*
X162433000Y-83967000D01*
X162433000Y-83947000D01*
X161239845Y-83947000D01*
X161118524Y-84176890D01*
X161163175Y-84324099D01*
X161288359Y-84586920D01*
X161462412Y-84820269D01*
X161546466Y-84896034D01*
X161465820Y-84920498D01*
X161355506Y-84979463D01*
X161258815Y-85058815D01*
X161179463Y-85155506D01*
X161120498Y-85265820D01*
X161084188Y-85385518D01*
X161071928Y-85510000D01*
X161071928Y-86819259D01*
X157715779Y-83463110D01*
X161118524Y-83463110D01*
X161239845Y-83693000D01*
X162433000Y-83693000D01*
X162433000Y-82499186D01*
X162687000Y-82499186D01*
X162687000Y-83693000D01*
X163880155Y-83693000D01*
X164001476Y-83463110D01*
X163956825Y-83315901D01*
X163831641Y-83053080D01*
X163657588Y-82819731D01*
X163441355Y-82624822D01*
X163191252Y-82475843D01*
X162916891Y-82378519D01*
X162687000Y-82499186D01*
X162433000Y-82499186D01*
X162203109Y-82378519D01*
X161928748Y-82475843D01*
X161678645Y-82624822D01*
X161462412Y-82819731D01*
X161288359Y-83053080D01*
X161163175Y-83315901D01*
X161118524Y-83463110D01*
X157715779Y-83463110D01*
X152712200Y-78459531D01*
X152712200Y-77417438D01*
X155392850Y-77417438D01*
X155618418Y-78223605D01*
X156024781Y-79036671D01*
X156581958Y-79754837D01*
X157268536Y-80350504D01*
X158058130Y-80800781D01*
X158920397Y-81088363D01*
X159822200Y-81202200D01*
X161822200Y-81202200D01*
X161822200Y-76694200D01*
X155474752Y-76694200D01*
X155392850Y-77417438D01*
X152712200Y-77417438D01*
X152712200Y-75716962D01*
X155392850Y-75716962D01*
X155474752Y-76440200D01*
X161822200Y-76440200D01*
X161822200Y-71932200D01*
X159822200Y-71932200D01*
X158920397Y-72046037D01*
X158058130Y-72333619D01*
X157268536Y-72783896D01*
X156581958Y-73379563D01*
X156024781Y-74097729D01*
X155618418Y-74910795D01*
X155392850Y-75716962D01*
X152712200Y-75716962D01*
X152712200Y-67452033D01*
X157727572Y-67452033D01*
X158045757Y-67905850D01*
X158650210Y-68231269D01*
X159306535Y-68432512D01*
X159989510Y-68501845D01*
X160672888Y-68436605D01*
X161330407Y-68239298D01*
X161936799Y-67917506D01*
X161954243Y-67905850D01*
X162272428Y-67452033D01*
X160000000Y-65179605D01*
X157727572Y-67452033D01*
X152712200Y-67452033D01*
X152712200Y-67030959D01*
X152890256Y-66957205D01*
X153059774Y-66843937D01*
X153203937Y-66699774D01*
X153317205Y-66530256D01*
X153395226Y-66341898D01*
X153435000Y-66141939D01*
X153435000Y-65938061D01*
X153395226Y-65738102D01*
X153317205Y-65549744D01*
X153220490Y-65405000D01*
X153317205Y-65260256D01*
X153395226Y-65071898D01*
X153411613Y-64989510D01*
X156498155Y-64989510D01*
X156563395Y-65672888D01*
X156760702Y-66330407D01*
X157082494Y-66936799D01*
X157094150Y-66954243D01*
X157547967Y-67272428D01*
X159820395Y-65000000D01*
X157547967Y-62727572D01*
X157094150Y-63045757D01*
X156768731Y-63650210D01*
X156567488Y-64306535D01*
X156498155Y-64989510D01*
X153411613Y-64989510D01*
X153435000Y-64871939D01*
X153435000Y-64668061D01*
X153401961Y-64501961D01*
X153568061Y-64535000D01*
X153771939Y-64535000D01*
X153971898Y-64495226D01*
X154160256Y-64417205D01*
X154329774Y-64303937D01*
X154473937Y-64159774D01*
X154587205Y-63990256D01*
X154665226Y-63801898D01*
X154705000Y-63601939D01*
X154705000Y-63398061D01*
X154665226Y-63198102D01*
X154587205Y-63009744D01*
X154473937Y-62840226D01*
X154329774Y-62696063D01*
X154160256Y-62582795D01*
X153971898Y-62504774D01*
X153771939Y-62465000D01*
X153568061Y-62465000D01*
X153401961Y-62498039D01*
X153435000Y-62331939D01*
X153435000Y-62128061D01*
X153395226Y-61928102D01*
X153317205Y-61739744D01*
X153203937Y-61570226D01*
X153059774Y-61426063D01*
X152890256Y-61312795D01*
X152712200Y-61239041D01*
X152712200Y-60660000D01*
X159970608Y-60660000D01*
X160595063Y-60715731D01*
G37*
%TD.AperFunction*%
D22*
X141340525Y-71939632D02*
X141547368Y-72146475D01*
X141790589Y-72308990D01*
X142060842Y-72420932D01*
X142347740Y-72478000D01*
X142640260Y-72478000D01*
X142927158Y-72420932D01*
X143197411Y-72308990D01*
X143440632Y-72146475D01*
X143442201Y-72144906D01*
X143442201Y-80151707D01*
X143419774Y-80379410D01*
X143509266Y-81288028D01*
X143774299Y-82161729D01*
X144204692Y-82966937D01*
X144445563Y-83260439D01*
X144783903Y-83672708D01*
X144960768Y-83817857D01*
X145677282Y-84534371D01*
X145716274Y-84730398D01*
X145794295Y-84918756D01*
X145907563Y-85088274D01*
X146051726Y-85232437D01*
X146221244Y-85345705D01*
X146409602Y-85423726D01*
X146605629Y-85462718D01*
X147479911Y-86337000D01*
X142819158Y-86337000D01*
X131591812Y-75109655D01*
X130676294Y-74194137D01*
X130683000Y-74194797D01*
X130721556Y-74191000D01*
X137502447Y-74191000D01*
X137541000Y-74194797D01*
X137579553Y-74191000D01*
X137579561Y-74191000D01*
X137694887Y-74179641D01*
X137842860Y-74134754D01*
X137979233Y-74061862D01*
X138098764Y-73963764D01*
X138123347Y-73933810D01*
X139617082Y-72440075D01*
X139807740Y-72478000D01*
X140100260Y-72478000D01*
X140387158Y-72420932D01*
X140657411Y-72308990D01*
X140900632Y-72146475D01*
X141107475Y-71939632D01*
X141224000Y-71765240D01*
X141340525Y-71939632D01*
%TA.AperFunction,Conductor*%
D23*
G36*
X141340525Y-71939632D02*
G01*
X141547368Y-72146475D01*
X141790589Y-72308990D01*
X142060842Y-72420932D01*
X142347740Y-72478000D01*
X142640260Y-72478000D01*
X142927158Y-72420932D01*
X143197411Y-72308990D01*
X143440632Y-72146475D01*
X143442201Y-72144906D01*
X143442201Y-80151707D01*
X143419774Y-80379410D01*
X143509266Y-81288028D01*
X143774299Y-82161729D01*
X144204692Y-82966937D01*
X144445563Y-83260439D01*
X144783903Y-83672708D01*
X144960768Y-83817857D01*
X145677282Y-84534371D01*
X145716274Y-84730398D01*
X145794295Y-84918756D01*
X145907563Y-85088274D01*
X146051726Y-85232437D01*
X146221244Y-85345705D01*
X146409602Y-85423726D01*
X146605629Y-85462718D01*
X147479911Y-86337000D01*
X142819158Y-86337000D01*
X131591812Y-75109655D01*
X130676294Y-74194137D01*
X130683000Y-74194797D01*
X130721556Y-74191000D01*
X137502447Y-74191000D01*
X137541000Y-74194797D01*
X137579553Y-74191000D01*
X137579561Y-74191000D01*
X137694887Y-74179641D01*
X137842860Y-74134754D01*
X137979233Y-74061862D01*
X138098764Y-73963764D01*
X138123347Y-73933810D01*
X139617082Y-72440075D01*
X139807740Y-72478000D01*
X140100260Y-72478000D01*
X140387158Y-72420932D01*
X140657411Y-72308990D01*
X140900632Y-72146475D01*
X141107475Y-71939632D01*
X141224000Y-71765240D01*
X141340525Y-71939632D01*
G37*
%TD.AperFunction*%
D22*
X137805752Y-66774684D02*
X137788928Y-66945500D01*
X137788928Y-67420500D01*
X137805752Y-67591316D01*
X137855577Y-67755567D01*
X137922889Y-67881500D01*
X137855577Y-68007433D01*
X137805752Y-68171684D01*
X137788928Y-68342500D01*
X137788928Y-68817500D01*
X137805752Y-68988316D01*
X137855577Y-69152567D01*
X137936488Y-69303942D01*
X138045377Y-69436623D01*
X138178058Y-69545512D01*
X138329433Y-69626423D01*
X138493684Y-69676248D01*
X138664500Y-69693072D01*
X139164500Y-69693072D01*
X139237278Y-69685904D01*
X139007368Y-69839525D01*
X138800525Y-70046368D01*
X138684000Y-70220760D01*
X138567475Y-70046368D01*
X138360632Y-69839525D01*
X138117411Y-69677010D01*
X137847158Y-69565068D01*
X137560260Y-69508000D01*
X137267740Y-69508000D01*
X136980842Y-69565068D01*
X136710589Y-69677010D01*
X136467368Y-69839525D01*
X136335513Y-69971380D01*
X136313502Y-69898820D01*
X136254537Y-69788506D01*
X136175185Y-69691815D01*
X136078494Y-69612463D01*
X135968180Y-69553498D01*
X135848482Y-69517188D01*
X135724000Y-69504928D01*
X135159750Y-69508000D01*
X135001000Y-69666750D01*
X135001000Y-70866000D01*
X135021000Y-70866000D01*
X135021000Y-71120000D01*
X135001000Y-71120000D01*
X135001000Y-72319250D01*
X135159750Y-72478000D01*
X135724000Y-72481072D01*
X135848482Y-72468812D01*
X135968180Y-72432502D01*
X136078494Y-72373537D01*
X136175185Y-72294185D01*
X136254537Y-72197494D01*
X136313502Y-72087180D01*
X136335513Y-72014620D01*
X136467368Y-72146475D01*
X136710589Y-72308990D01*
X136980842Y-72420932D01*
X137267740Y-72478000D01*
X137358843Y-72478000D01*
X137215843Y-72621000D01*
X133632588Y-72621000D01*
X133634423Y-72617567D01*
X133684248Y-72453316D01*
X133690975Y-72385013D01*
X133779820Y-72432502D01*
X133899518Y-72468812D01*
X134024000Y-72481072D01*
X134588250Y-72478000D01*
X134747000Y-72319250D01*
X134747000Y-71120000D01*
X134727000Y-71120000D01*
X134727000Y-70866000D01*
X134747000Y-70866000D01*
X134747000Y-69666750D01*
X134588250Y-69508000D01*
X134562717Y-69507861D01*
X137399579Y-66671000D01*
X137837204Y-66671000D01*
X137805752Y-66774684D01*
%TA.AperFunction,Conductor*%
D23*
G36*
X137805752Y-66774684D02*
G01*
X137788928Y-66945500D01*
X137788928Y-67420500D01*
X137805752Y-67591316D01*
X137855577Y-67755567D01*
X137922889Y-67881500D01*
X137855577Y-68007433D01*
X137805752Y-68171684D01*
X137788928Y-68342500D01*
X137788928Y-68817500D01*
X137805752Y-68988316D01*
X137855577Y-69152567D01*
X137936488Y-69303942D01*
X138045377Y-69436623D01*
X138178058Y-69545512D01*
X138329433Y-69626423D01*
X138493684Y-69676248D01*
X138664500Y-69693072D01*
X139164500Y-69693072D01*
X139237278Y-69685904D01*
X139007368Y-69839525D01*
X138800525Y-70046368D01*
X138684000Y-70220760D01*
X138567475Y-70046368D01*
X138360632Y-69839525D01*
X138117411Y-69677010D01*
X137847158Y-69565068D01*
X137560260Y-69508000D01*
X137267740Y-69508000D01*
X136980842Y-69565068D01*
X136710589Y-69677010D01*
X136467368Y-69839525D01*
X136335513Y-69971380D01*
X136313502Y-69898820D01*
X136254537Y-69788506D01*
X136175185Y-69691815D01*
X136078494Y-69612463D01*
X135968180Y-69553498D01*
X135848482Y-69517188D01*
X135724000Y-69504928D01*
X135159750Y-69508000D01*
X135001000Y-69666750D01*
X135001000Y-70866000D01*
X135021000Y-70866000D01*
X135021000Y-71120000D01*
X135001000Y-71120000D01*
X135001000Y-72319250D01*
X135159750Y-72478000D01*
X135724000Y-72481072D01*
X135848482Y-72468812D01*
X135968180Y-72432502D01*
X136078494Y-72373537D01*
X136175185Y-72294185D01*
X136254537Y-72197494D01*
X136313502Y-72087180D01*
X136335513Y-72014620D01*
X136467368Y-72146475D01*
X136710589Y-72308990D01*
X136980842Y-72420932D01*
X137267740Y-72478000D01*
X137358843Y-72478000D01*
X137215843Y-72621000D01*
X133632588Y-72621000D01*
X133634423Y-72617567D01*
X133684248Y-72453316D01*
X133690975Y-72385013D01*
X133779820Y-72432502D01*
X133899518Y-72468812D01*
X134024000Y-72481072D01*
X134588250Y-72478000D01*
X134747000Y-72319250D01*
X134747000Y-71120000D01*
X134727000Y-71120000D01*
X134727000Y-70866000D01*
X134747000Y-70866000D01*
X134747000Y-69666750D01*
X134588250Y-69508000D01*
X134562717Y-69507861D01*
X137399579Y-66671000D01*
X137837204Y-66671000D01*
X137805752Y-66774684D01*
G37*
%TD.AperFunction*%
%TD*%
M02*
