%TF.GenerationSoftware,KiCad,Pcbnew,(5.1.8-0-10_14)*%
%TF.CreationDate,2021-02-24T01:50:54+08:00*%
%TF.ProjectId,batt_board,62617474-5f62-46f6-9172-642e6b696361,v0.2*%
%TF.SameCoordinates,Original*%
%TF.FileFunction,Copper,L2,Bot*%
%TF.FilePolarity,Positive*%
%FSLAX46Y46*%
G04 Gerber Fmt 4.6, Leading zero omitted, Abs format (unit mm)*
G04 Created by KiCad (PCBNEW (5.1.8-0-10_14)) date 2021-02-24 01:50:54*
%MOMM*%
%LPD*%
G01*
G04 APERTURE LIST*
%TA.AperFunction,ComponentPad*%
%ADD10O,1.700000X1.700000*%
%TD*%
%TA.AperFunction,ComponentPad*%
%ADD11R,1.700000X1.700000*%
%TD*%
%TA.AperFunction,SMDPad,CuDef*%
%ADD12O,8.000000X12.000000*%
%TD*%
%TA.AperFunction,SMDPad,CuDef*%
%ADD13O,12.000000X8.000000*%
%TD*%
%TA.AperFunction,ConnectorPad*%
%ADD14C,5.700000*%
%TD*%
%TA.AperFunction,ComponentPad*%
%ADD15C,3.600000*%
%TD*%
%TA.AperFunction,ComponentPad*%
%ADD16C,0.600000*%
%TD*%
%TA.AperFunction,SMDPad,CuDef*%
%ADD17R,4.500000X2.950000*%
%TD*%
%TA.AperFunction,ViaPad*%
%ADD18C,0.800000*%
%TD*%
%TA.AperFunction,Conductor*%
%ADD19C,8.000000*%
%TD*%
%TA.AperFunction,Conductor*%
%ADD20C,0.500000*%
%TD*%
%TA.AperFunction,Conductor*%
%ADD21C,0.300000*%
%TD*%
%TA.AperFunction,Conductor*%
%ADD22C,0.254000*%
%TD*%
%TA.AperFunction,Conductor*%
%ADD23C,0.100000*%
%TD*%
G04 APERTURE END LIST*
D10*
%TO.P,conn2upper1,10*%
%TO.N,GND*%
X125730000Y-70104000D03*
%TO.P,conn2upper1,9*%
%TO.N,Net-(R9-Pad2)*%
X128270000Y-70104000D03*
%TO.P,conn2upper1,8*%
%TO.N,Net-(R10-Pad2)*%
X125730000Y-72644000D03*
%TO.P,conn2upper1,7*%
%TO.N,Net-(R11-Pad2)*%
X128270000Y-72644000D03*
%TO.P,conn2upper1,6*%
%TO.N,Net-(R12-Pad2)*%
X125730000Y-75184000D03*
%TO.P,conn2upper1,5*%
%TO.N,Net-(R13-Pad1)*%
X128270000Y-75184000D03*
%TO.P,conn2upper1,4*%
%TO.N,Net-(conn2upper1-Pad4)*%
X125730000Y-77724000D03*
%TO.P,conn2upper1,3*%
%TO.N,+5V*%
X128270000Y-77724000D03*
%TO.P,conn2upper1,2*%
%TO.N,Net-(conn2upper1-Pad2)*%
X125730000Y-80264000D03*
D11*
%TO.P,conn2upper1,1*%
%TO.N,+3V3*%
X128270000Y-80264000D03*
%TD*%
D12*
%TO.P,ESC3,2*%
%TO.N,/VCC_IN*%
X148077200Y-108050800D03*
%TO.P,ESC3,1*%
%TO.N,GND*%
X131567200Y-108050800D03*
%TD*%
D13*
%TO.P,ESC4,2*%
%TO.N,/VCC_IN*%
X116949200Y-93077200D03*
%TO.P,ESC4,1*%
%TO.N,GND*%
X116949200Y-76567200D03*
%TD*%
%TO.P,ESC2,2*%
%TO.N,/VCC_IN*%
X161949200Y-93077200D03*
%TO.P,ESC2,1*%
%TO.N,GND*%
X161949200Y-76567200D03*
%TD*%
D12*
%TO.P,ESC1,2*%
%TO.N,/VCC_IN*%
X148077200Y-62050800D03*
%TO.P,ESC1,1*%
%TO.N,GND*%
X131567200Y-62050800D03*
%TD*%
D14*
%TO.P,H4,1*%
%TO.N,GND*%
X160000000Y-65000000D03*
D15*
X160000000Y-65000000D03*
%TD*%
D14*
%TO.P,H2,1*%
%TO.N,GND*%
X120000000Y-105000000D03*
D15*
X120000000Y-105000000D03*
%TD*%
D16*
%TO.P,U1,9*%
%TO.N,GND*%
X149120000Y-91348000D03*
X148020000Y-91348000D03*
X148020000Y-92548000D03*
X149120000Y-92548000D03*
X145520000Y-91348000D03*
X146720000Y-91348000D03*
X146720000Y-92548000D03*
X145520000Y-92548000D03*
D17*
X147320000Y-91948000D03*
%TD*%
D11*
%TO.P,Receiver1,1*%
%TO.N,GND*%
X134874000Y-70993000D03*
D10*
%TO.P,Receiver1,2*%
%TO.N,+5V*%
X137414000Y-70993000D03*
%TO.P,Receiver1,3*%
%TO.N,PPM*%
X139954000Y-70993000D03*
%TO.P,Receiver1,4*%
%TO.N,Net-(Receiver1-Pad4)*%
X142494000Y-70993000D03*
%TD*%
D14*
%TO.P,H3,1*%
%TO.N,GND*%
X160000000Y-105000000D03*
D15*
X160000000Y-105000000D03*
%TD*%
D14*
%TO.P,H1,1*%
%TO.N,GND*%
X120000000Y-65000000D03*
D15*
X120000000Y-65000000D03*
%TD*%
D10*
%TO.P,CH4,2*%
%TO.N,GND*%
X117475000Y-83820000D03*
D11*
%TO.P,CH4,1*%
%TO.N,PWM_CH4*%
X117475000Y-86360000D03*
%TD*%
D10*
%TO.P,CH3,2*%
%TO.N,GND*%
X138532200Y-107950000D03*
D11*
%TO.P,CH3,1*%
%TO.N,PWM_CH3*%
X141072200Y-107950000D03*
%TD*%
D10*
%TO.P,CH2,2*%
%TO.N,GND*%
X162560000Y-83820000D03*
D11*
%TO.P,CH2,1*%
%TO.N,PWM_CH2*%
X162560000Y-86360000D03*
%TD*%
D10*
%TO.P,CH1,2*%
%TO.N,GND*%
X138430000Y-62230000D03*
D11*
%TO.P,CH1,1*%
%TO.N,PWM_CH1*%
X140970000Y-62230000D03*
%TD*%
D18*
%TO.N,GND*%
X120142000Y-84328000D03*
X120650000Y-80010000D03*
X133350000Y-67310000D03*
X132080000Y-67310000D03*
X130810000Y-67310000D03*
X157480000Y-73660000D03*
X157480000Y-74930000D03*
X157480000Y-76200000D03*
X158750000Y-77470000D03*
X158750000Y-76200000D03*
X158750000Y-74930000D03*
X158750000Y-73660000D03*
X128270000Y-106680000D03*
X128270000Y-107950000D03*
X128270000Y-104140000D03*
X128270000Y-105410000D03*
X129540000Y-102870000D03*
X133350000Y-66040000D03*
X132080000Y-66040000D03*
X130810000Y-66040000D03*
X129540000Y-66040000D03*
X128270000Y-64770000D03*
X129540000Y-64770000D03*
X130810000Y-64770000D03*
X132080000Y-64770000D03*
X133350000Y-64770000D03*
X134620000Y-64770000D03*
X134620000Y-63500000D03*
X133350000Y-63500000D03*
X132080000Y-62230000D03*
X132080000Y-63500000D03*
X130810000Y-63500000D03*
X128270000Y-63500000D03*
X129540000Y-63500000D03*
X130810000Y-62230000D03*
X128270000Y-62230000D03*
X129540000Y-62230000D03*
X130810000Y-62230000D03*
X133350000Y-62230000D03*
X134620000Y-62230000D03*
X121920000Y-74930000D03*
X121920000Y-76200000D03*
X121920000Y-77470000D03*
X121920000Y-78740000D03*
X120650000Y-78740000D03*
X120650000Y-77470000D03*
X120650000Y-76200000D03*
X120650000Y-74930000D03*
X120650000Y-73660000D03*
X118110000Y-73660000D03*
X119380000Y-73660000D03*
X119380000Y-74930000D03*
X118110000Y-74930000D03*
X118110000Y-76200000D03*
X119380000Y-76200000D03*
X119380000Y-77470000D03*
X118110000Y-77470000D03*
X118110000Y-78740000D03*
X119380000Y-78740000D03*
X119380000Y-80010000D03*
X118110000Y-80010000D03*
X116840000Y-80010000D03*
X116840000Y-78740000D03*
X116840000Y-77470000D03*
X116840000Y-76200000D03*
X116840000Y-74930000D03*
X116840000Y-73660000D03*
X130810000Y-102870000D03*
X132080000Y-102870000D03*
X133350000Y-102870000D03*
X134620000Y-105410000D03*
X134620000Y-104140000D03*
X133350000Y-104140000D03*
X132080000Y-104140000D03*
X130810000Y-104140000D03*
X129540000Y-104140000D03*
X129540000Y-105410000D03*
X130810000Y-105410000D03*
X132080000Y-105410000D03*
X133350000Y-105410000D03*
X133350000Y-106680000D03*
X130810000Y-107950000D03*
X129540000Y-107950000D03*
X132080000Y-107950000D03*
X133350000Y-107950000D03*
X134620000Y-107950000D03*
X134620000Y-106680000D03*
X132080000Y-106680000D03*
X130810000Y-106680000D03*
X129540000Y-106680000D03*
X162560000Y-69850000D03*
X162560000Y-71120000D03*
X161290000Y-71120000D03*
X160020000Y-72390000D03*
X161290000Y-72390000D03*
X162560000Y-72390000D03*
X160020000Y-78740000D03*
X161290000Y-78740000D03*
X162560000Y-78740000D03*
X162560000Y-77470000D03*
X161290000Y-77470000D03*
X160020000Y-77470000D03*
X160020000Y-76200000D03*
X160020000Y-74930000D03*
X161290000Y-76200000D03*
X161290000Y-74930000D03*
X162560000Y-76200000D03*
X162560000Y-74930000D03*
X162560000Y-73660000D03*
X161290000Y-73660000D03*
X160020000Y-73660000D03*
X142621000Y-65532000D03*
X130810000Y-79502000D03*
X131431000Y-84977000D03*
X140651964Y-77405964D03*
X138862713Y-78791536D03*
X138862713Y-80459434D03*
X141986000Y-84582000D03*
X141986000Y-83566000D03*
X141986000Y-82423000D03*
X117094000Y-70104000D03*
X118237000Y-70104000D03*
X119380000Y-70104000D03*
X120650000Y-70104000D03*
X121793000Y-70104000D03*
X122936000Y-70104000D03*
%TO.N,/VCC_IN*%
X151130000Y-67310000D03*
X149860000Y-67310000D03*
X148590000Y-67310000D03*
X147320000Y-67310000D03*
X158750000Y-90170000D03*
X160020000Y-90170000D03*
X160020000Y-96520000D03*
X158750000Y-96520000D03*
X158750000Y-95250000D03*
X157480000Y-95250000D03*
X158750000Y-93980000D03*
X157480000Y-93980000D03*
X158750000Y-92710000D03*
X157480000Y-92710000D03*
X158750000Y-91440000D03*
X157480000Y-91440000D03*
X146050000Y-102870000D03*
X144780000Y-104140000D03*
X144780000Y-107950000D03*
X144780000Y-106680000D03*
X144780000Y-105410000D03*
X151130000Y-66040000D03*
X116840000Y-90170000D03*
X116840000Y-91440000D03*
X116840000Y-92710000D03*
X116840000Y-93980000D03*
X116840000Y-93980000D03*
X116840000Y-95250000D03*
X116840000Y-96520000D03*
X118110000Y-96520000D03*
X118110000Y-95250000D03*
X118110000Y-93980000D03*
X118110000Y-92710000D03*
X118110000Y-91440000D03*
X119380000Y-90170000D03*
X118110000Y-90170000D03*
X119380000Y-92710000D03*
X119380000Y-93980000D03*
X119380000Y-95250000D03*
X119380000Y-96520000D03*
X120650000Y-95250000D03*
X120650000Y-93980000D03*
X120650000Y-92710000D03*
X120650000Y-91440000D03*
X119380000Y-91440000D03*
X120650000Y-90170000D03*
X121920000Y-91440000D03*
X121920000Y-92710000D03*
X121920000Y-93980000D03*
X149860000Y-102870000D03*
X147320000Y-102870000D03*
X148590000Y-102870000D03*
X148590000Y-102870000D03*
X146050000Y-104140000D03*
X147320000Y-104140000D03*
X148590000Y-104140000D03*
X149860000Y-104140000D03*
X148590000Y-105410000D03*
X146050000Y-105410000D03*
X147320000Y-105410000D03*
X147320000Y-106680000D03*
X146050000Y-106680000D03*
X146050000Y-106680000D03*
X148590000Y-106680000D03*
X149860000Y-106680000D03*
X151130000Y-106680000D03*
X151130000Y-105410000D03*
X149860000Y-105410000D03*
X151130000Y-104140000D03*
X149860000Y-107950000D03*
X146050000Y-107950000D03*
X147320000Y-107950000D03*
X148590000Y-107950000D03*
X151130000Y-107950000D03*
X160020000Y-91440000D03*
X161290000Y-90170000D03*
X161290000Y-91440000D03*
X161290000Y-92710000D03*
X160020000Y-92710000D03*
X160020000Y-95250000D03*
X161290000Y-93980000D03*
X160020000Y-93980000D03*
X161290000Y-96520000D03*
X162560000Y-96520000D03*
X162560000Y-95250000D03*
X161290000Y-95250000D03*
X162560000Y-92710000D03*
X162560000Y-93980000D03*
X162560000Y-91440000D03*
X162560000Y-90170000D03*
X152400000Y-64770000D03*
X153670000Y-63500000D03*
X152400000Y-63500000D03*
X149860000Y-66040000D03*
X148590000Y-66040000D03*
X147320000Y-66040000D03*
X146050000Y-66040000D03*
X144780000Y-64770000D03*
X148590000Y-64770000D03*
X146050000Y-64770000D03*
X147320000Y-64770000D03*
X149860000Y-64770000D03*
X151130000Y-64770000D03*
X151130000Y-63500000D03*
X149860000Y-63500000D03*
X148590000Y-63500000D03*
X147320000Y-63500000D03*
X146050000Y-63500000D03*
X144780000Y-63500000D03*
X144780000Y-62230000D03*
X146050000Y-62230000D03*
X147320000Y-62230000D03*
X148590000Y-62230000D03*
X149860000Y-62230000D03*
X151130000Y-62230000D03*
X152400000Y-62230000D03*
X152400000Y-66040000D03*
X158496000Y-86106000D03*
X144526000Y-70231000D03*
X148844000Y-81915000D03*
X147447000Y-81915000D03*
X146711500Y-83158500D03*
X146711500Y-84428500D03*
X126111000Y-90297000D03*
X139446000Y-100965000D03*
X146711500Y-80925500D03*
X145415000Y-70231000D03*
X146431000Y-70231000D03*
X155779486Y-86155514D03*
X156922486Y-86155514D03*
X153874486Y-86155514D03*
X154763486Y-86155514D03*
X138869500Y-101668500D03*
X139885500Y-101668500D03*
X140911500Y-101668500D03*
X125349000Y-89535000D03*
X126746000Y-90932000D03*
X127381000Y-91567000D03*
%TO.N,Net-(R11-Pad2)*%
X128143000Y-87249000D03*
%TD*%
D19*
%TO.N,GND*%
X130792210Y-65000000D02*
X131567200Y-64225010D01*
X120000000Y-65000000D02*
X130792210Y-65000000D01*
X130792210Y-105000000D02*
X131567200Y-105774990D01*
X120000000Y-105000000D02*
X130792210Y-105000000D01*
X160000000Y-75792210D02*
X160774990Y-76567200D01*
X160000000Y-65000000D02*
X160000000Y-75792210D01*
X120000000Y-65000000D02*
X120000000Y-75792210D01*
X120000000Y-75792210D02*
X119225010Y-76567200D01*
D20*
%TO.N,/VCC_IN*%
X116949200Y-93077200D02*
X117050800Y-93077200D01*
D19*
X119735600Y-93091000D02*
X135890000Y-93091000D01*
D20*
X148077200Y-108050800D02*
X148077200Y-106949200D01*
X133350000Y-93091000D02*
X136271000Y-93091000D01*
D19*
X135513800Y-93091000D02*
X147701000Y-105278200D01*
D20*
X135890000Y-93091000D02*
X135890000Y-95863600D01*
D19*
X148082000Y-104902000D02*
X159893000Y-93091000D01*
X148077200Y-80379410D02*
X156467395Y-88769605D01*
X148077200Y-62050800D02*
X148077200Y-80379410D01*
X156467395Y-88769605D02*
X160774990Y-93077200D01*
D21*
%TO.N,Net-(R11-Pad2)*%
X128143000Y-87249000D02*
X128143000Y-87249000D01*
X129921000Y-73660000D02*
X128905000Y-72644000D01*
X129921000Y-84328000D02*
X129921000Y-73660000D01*
X128905000Y-72644000D02*
X128270000Y-72644000D01*
X128143000Y-86106000D02*
X129921000Y-84328000D01*
X128143000Y-87249000D02*
X128143000Y-86106000D01*
%TD*%
D22*
%TO.N,GND*%
X119507905Y-97726000D02*
X133593921Y-97726000D01*
X137899698Y-102031777D01*
X137952295Y-102158756D01*
X138065563Y-102328274D01*
X138209726Y-102472437D01*
X138379244Y-102585705D01*
X138506223Y-102638302D01*
X143442200Y-107574279D01*
X143442200Y-109340000D01*
X142258990Y-109340000D01*
X142276694Y-109330537D01*
X142373385Y-109251185D01*
X142452737Y-109154494D01*
X142511702Y-109044180D01*
X142548012Y-108924482D01*
X142560272Y-108800000D01*
X142560272Y-107100000D01*
X142548012Y-106975518D01*
X142511702Y-106855820D01*
X142452737Y-106745506D01*
X142373385Y-106648815D01*
X142276694Y-106569463D01*
X142166380Y-106510498D01*
X142046682Y-106474188D01*
X141922200Y-106461928D01*
X140222200Y-106461928D01*
X140097718Y-106474188D01*
X139978020Y-106510498D01*
X139867706Y-106569463D01*
X139771015Y-106648815D01*
X139691663Y-106745506D01*
X139632698Y-106855820D01*
X139608234Y-106936466D01*
X139532469Y-106852412D01*
X139299120Y-106678359D01*
X139036299Y-106553175D01*
X138889090Y-106508524D01*
X138659200Y-106629845D01*
X138659200Y-107823000D01*
X138679200Y-107823000D01*
X138679200Y-108077000D01*
X138659200Y-108077000D01*
X138659200Y-108097000D01*
X138405200Y-108097000D01*
X138405200Y-108077000D01*
X137211386Y-108077000D01*
X137090719Y-108306891D01*
X137188043Y-108581252D01*
X137337022Y-108831355D01*
X137531931Y-109047588D01*
X137765280Y-109221641D01*
X138013772Y-109340000D01*
X136202200Y-109340000D01*
X136202200Y-108177800D01*
X131694200Y-108177800D01*
X131694200Y-108197800D01*
X131440200Y-108197800D01*
X131440200Y-108177800D01*
X126932200Y-108177800D01*
X126932200Y-109340000D01*
X120029392Y-109340000D01*
X119231917Y-109268827D01*
X119050917Y-109219311D01*
X117283639Y-107452033D01*
X117727572Y-107452033D01*
X118045757Y-107905850D01*
X118650210Y-108231269D01*
X119306535Y-108432512D01*
X119989510Y-108501845D01*
X120672888Y-108436605D01*
X121330407Y-108239298D01*
X121936799Y-107917506D01*
X121954243Y-107905850D01*
X122272428Y-107452033D01*
X120000000Y-105179605D01*
X117727572Y-107452033D01*
X117283639Y-107452033D01*
X115786217Y-105954611D01*
X115707935Y-105628543D01*
X115661008Y-104989510D01*
X116498155Y-104989510D01*
X116563395Y-105672888D01*
X116760702Y-106330407D01*
X117082494Y-106936799D01*
X117094150Y-106954243D01*
X117547967Y-107272428D01*
X119820395Y-105000000D01*
X120179605Y-105000000D01*
X122452033Y-107272428D01*
X122905850Y-106954243D01*
X123231269Y-106349790D01*
X123361886Y-105923800D01*
X126932200Y-105923800D01*
X126932200Y-107923800D01*
X131440200Y-107923800D01*
X131440200Y-101576352D01*
X131694200Y-101576352D01*
X131694200Y-107923800D01*
X136202200Y-107923800D01*
X136202200Y-107593109D01*
X137090719Y-107593109D01*
X137211386Y-107823000D01*
X138405200Y-107823000D01*
X138405200Y-106629845D01*
X138175310Y-106508524D01*
X138028101Y-106553175D01*
X137765280Y-106678359D01*
X137531931Y-106852412D01*
X137337022Y-107068645D01*
X137188043Y-107318748D01*
X137090719Y-107593109D01*
X136202200Y-107593109D01*
X136202200Y-105923800D01*
X136088363Y-105021997D01*
X135800781Y-104159730D01*
X135350504Y-103370136D01*
X134754837Y-102683558D01*
X134036671Y-102126381D01*
X133223605Y-101720018D01*
X132417438Y-101494450D01*
X131694200Y-101576352D01*
X131440200Y-101576352D01*
X130716962Y-101494450D01*
X129910795Y-101720018D01*
X129097729Y-102126381D01*
X128379563Y-102683558D01*
X127783896Y-103370136D01*
X127333619Y-104159730D01*
X127046037Y-105021997D01*
X126932200Y-105923800D01*
X123361886Y-105923800D01*
X123432512Y-105693465D01*
X123501845Y-105010490D01*
X123436605Y-104327112D01*
X123239298Y-103669593D01*
X122917506Y-103063201D01*
X122905850Y-103045757D01*
X122452033Y-102727572D01*
X120179605Y-105000000D01*
X119820395Y-105000000D01*
X117547967Y-102727572D01*
X117094150Y-103045757D01*
X116768731Y-103650210D01*
X116567488Y-104306535D01*
X116498155Y-104989510D01*
X115661008Y-104989510D01*
X115660000Y-104975793D01*
X115660000Y-102547967D01*
X117727572Y-102547967D01*
X120000000Y-104820395D01*
X122272428Y-102547967D01*
X121954243Y-102094150D01*
X121349790Y-101768731D01*
X120693465Y-101567488D01*
X120010490Y-101498155D01*
X119327112Y-101563395D01*
X118669593Y-101760702D01*
X118063201Y-102082494D01*
X118045757Y-102094150D01*
X117727572Y-102547967D01*
X115660000Y-102547967D01*
X115660000Y-97712200D01*
X119176895Y-97712200D01*
X119272343Y-97702799D01*
X119507905Y-97726000D01*
%TA.AperFunction,Conductor*%
D23*
G36*
X119507905Y-97726000D02*
G01*
X133593921Y-97726000D01*
X137899698Y-102031777D01*
X137952295Y-102158756D01*
X138065563Y-102328274D01*
X138209726Y-102472437D01*
X138379244Y-102585705D01*
X138506223Y-102638302D01*
X143442200Y-107574279D01*
X143442200Y-109340000D01*
X142258990Y-109340000D01*
X142276694Y-109330537D01*
X142373385Y-109251185D01*
X142452737Y-109154494D01*
X142511702Y-109044180D01*
X142548012Y-108924482D01*
X142560272Y-108800000D01*
X142560272Y-107100000D01*
X142548012Y-106975518D01*
X142511702Y-106855820D01*
X142452737Y-106745506D01*
X142373385Y-106648815D01*
X142276694Y-106569463D01*
X142166380Y-106510498D01*
X142046682Y-106474188D01*
X141922200Y-106461928D01*
X140222200Y-106461928D01*
X140097718Y-106474188D01*
X139978020Y-106510498D01*
X139867706Y-106569463D01*
X139771015Y-106648815D01*
X139691663Y-106745506D01*
X139632698Y-106855820D01*
X139608234Y-106936466D01*
X139532469Y-106852412D01*
X139299120Y-106678359D01*
X139036299Y-106553175D01*
X138889090Y-106508524D01*
X138659200Y-106629845D01*
X138659200Y-107823000D01*
X138679200Y-107823000D01*
X138679200Y-108077000D01*
X138659200Y-108077000D01*
X138659200Y-108097000D01*
X138405200Y-108097000D01*
X138405200Y-108077000D01*
X137211386Y-108077000D01*
X137090719Y-108306891D01*
X137188043Y-108581252D01*
X137337022Y-108831355D01*
X137531931Y-109047588D01*
X137765280Y-109221641D01*
X138013772Y-109340000D01*
X136202200Y-109340000D01*
X136202200Y-108177800D01*
X131694200Y-108177800D01*
X131694200Y-108197800D01*
X131440200Y-108197800D01*
X131440200Y-108177800D01*
X126932200Y-108177800D01*
X126932200Y-109340000D01*
X120029392Y-109340000D01*
X119231917Y-109268827D01*
X119050917Y-109219311D01*
X117283639Y-107452033D01*
X117727572Y-107452033D01*
X118045757Y-107905850D01*
X118650210Y-108231269D01*
X119306535Y-108432512D01*
X119989510Y-108501845D01*
X120672888Y-108436605D01*
X121330407Y-108239298D01*
X121936799Y-107917506D01*
X121954243Y-107905850D01*
X122272428Y-107452033D01*
X120000000Y-105179605D01*
X117727572Y-107452033D01*
X117283639Y-107452033D01*
X115786217Y-105954611D01*
X115707935Y-105628543D01*
X115661008Y-104989510D01*
X116498155Y-104989510D01*
X116563395Y-105672888D01*
X116760702Y-106330407D01*
X117082494Y-106936799D01*
X117094150Y-106954243D01*
X117547967Y-107272428D01*
X119820395Y-105000000D01*
X120179605Y-105000000D01*
X122452033Y-107272428D01*
X122905850Y-106954243D01*
X123231269Y-106349790D01*
X123361886Y-105923800D01*
X126932200Y-105923800D01*
X126932200Y-107923800D01*
X131440200Y-107923800D01*
X131440200Y-101576352D01*
X131694200Y-101576352D01*
X131694200Y-107923800D01*
X136202200Y-107923800D01*
X136202200Y-107593109D01*
X137090719Y-107593109D01*
X137211386Y-107823000D01*
X138405200Y-107823000D01*
X138405200Y-106629845D01*
X138175310Y-106508524D01*
X138028101Y-106553175D01*
X137765280Y-106678359D01*
X137531931Y-106852412D01*
X137337022Y-107068645D01*
X137188043Y-107318748D01*
X137090719Y-107593109D01*
X136202200Y-107593109D01*
X136202200Y-105923800D01*
X136088363Y-105021997D01*
X135800781Y-104159730D01*
X135350504Y-103370136D01*
X134754837Y-102683558D01*
X134036671Y-102126381D01*
X133223605Y-101720018D01*
X132417438Y-101494450D01*
X131694200Y-101576352D01*
X131440200Y-101576352D01*
X130716962Y-101494450D01*
X129910795Y-101720018D01*
X129097729Y-102126381D01*
X128379563Y-102683558D01*
X127783896Y-103370136D01*
X127333619Y-104159730D01*
X127046037Y-105021997D01*
X126932200Y-105923800D01*
X123361886Y-105923800D01*
X123432512Y-105693465D01*
X123501845Y-105010490D01*
X123436605Y-104327112D01*
X123239298Y-103669593D01*
X122917506Y-103063201D01*
X122905850Y-103045757D01*
X122452033Y-102727572D01*
X120179605Y-105000000D01*
X119820395Y-105000000D01*
X117547967Y-102727572D01*
X117094150Y-103045757D01*
X116768731Y-103650210D01*
X116567488Y-104306535D01*
X116498155Y-104989510D01*
X115661008Y-104989510D01*
X115660000Y-104975793D01*
X115660000Y-102547967D01*
X117727572Y-102547967D01*
X120000000Y-104820395D01*
X122272428Y-102547967D01*
X121954243Y-102094150D01*
X121349790Y-101768731D01*
X120693465Y-101567488D01*
X120010490Y-101498155D01*
X119327112Y-101563395D01*
X118669593Y-101760702D01*
X118063201Y-102082494D01*
X118045757Y-102094150D01*
X117727572Y-102547967D01*
X115660000Y-102547967D01*
X115660000Y-97712200D01*
X119176895Y-97712200D01*
X119272343Y-97702799D01*
X119507905Y-97726000D01*
G37*
%TD.AperFunction*%
D22*
X164340001Y-104970597D02*
X164288316Y-105549718D01*
X162531931Y-107352323D01*
X162452035Y-107272427D01*
X162905850Y-106954243D01*
X163231269Y-106349790D01*
X163432512Y-105693465D01*
X163501845Y-105010490D01*
X163436605Y-104327112D01*
X163239298Y-103669593D01*
X162917506Y-103063201D01*
X162905850Y-103045757D01*
X162452033Y-102727572D01*
X160179605Y-105000000D01*
X160193748Y-105014143D01*
X160014143Y-105193748D01*
X160000000Y-105179605D01*
X157727572Y-107452033D01*
X158045757Y-107905850D01*
X158650210Y-108231269D01*
X159306535Y-108432512D01*
X159989510Y-108501845D01*
X160672888Y-108436605D01*
X161330407Y-108239298D01*
X161936799Y-107917506D01*
X161954243Y-107905850D01*
X162272427Y-107452035D01*
X162354656Y-107534264D01*
X160646013Y-109287871D01*
X160628543Y-109292065D01*
X159975793Y-109340000D01*
X152712200Y-109340000D01*
X152712200Y-106826679D01*
X154549369Y-104989510D01*
X156498155Y-104989510D01*
X156563395Y-105672888D01*
X156760702Y-106330407D01*
X157082494Y-106936799D01*
X157094150Y-106954243D01*
X157547967Y-107272428D01*
X159820395Y-105000000D01*
X157547967Y-102727572D01*
X157094150Y-103045757D01*
X156768731Y-103650210D01*
X156567488Y-104306535D01*
X156498155Y-104989510D01*
X154549369Y-104989510D01*
X156990912Y-102547967D01*
X157727572Y-102547967D01*
X160000000Y-104820395D01*
X162272428Y-102547967D01*
X161954243Y-102094150D01*
X161349790Y-101768731D01*
X160693465Y-101567488D01*
X160010490Y-101498155D01*
X159327112Y-101563395D01*
X158669593Y-101760702D01*
X158063201Y-102082494D01*
X158045757Y-102094150D01*
X157727572Y-102547967D01*
X156990912Y-102547967D01*
X161826680Y-97712200D01*
X164176895Y-97712200D01*
X164340001Y-97696136D01*
X164340001Y-104970597D01*
%TA.AperFunction,Conductor*%
D23*
G36*
X164340001Y-104970597D02*
G01*
X164288316Y-105549718D01*
X162531931Y-107352323D01*
X162452035Y-107272427D01*
X162905850Y-106954243D01*
X163231269Y-106349790D01*
X163432512Y-105693465D01*
X163501845Y-105010490D01*
X163436605Y-104327112D01*
X163239298Y-103669593D01*
X162917506Y-103063201D01*
X162905850Y-103045757D01*
X162452033Y-102727572D01*
X160179605Y-105000000D01*
X160193748Y-105014143D01*
X160014143Y-105193748D01*
X160000000Y-105179605D01*
X157727572Y-107452033D01*
X158045757Y-107905850D01*
X158650210Y-108231269D01*
X159306535Y-108432512D01*
X159989510Y-108501845D01*
X160672888Y-108436605D01*
X161330407Y-108239298D01*
X161936799Y-107917506D01*
X161954243Y-107905850D01*
X162272427Y-107452035D01*
X162354656Y-107534264D01*
X160646013Y-109287871D01*
X160628543Y-109292065D01*
X159975793Y-109340000D01*
X152712200Y-109340000D01*
X152712200Y-106826679D01*
X154549369Y-104989510D01*
X156498155Y-104989510D01*
X156563395Y-105672888D01*
X156760702Y-106330407D01*
X157082494Y-106936799D01*
X157094150Y-106954243D01*
X157547967Y-107272428D01*
X159820395Y-105000000D01*
X157547967Y-102727572D01*
X157094150Y-103045757D01*
X156768731Y-103650210D01*
X156567488Y-104306535D01*
X156498155Y-104989510D01*
X154549369Y-104989510D01*
X156990912Y-102547967D01*
X157727572Y-102547967D01*
X160000000Y-104820395D01*
X162272428Y-102547967D01*
X161954243Y-102094150D01*
X161349790Y-101768731D01*
X160693465Y-101567488D01*
X160010490Y-101498155D01*
X159327112Y-101563395D01*
X158669593Y-101760702D01*
X158063201Y-102082494D01*
X158045757Y-102094150D01*
X157727572Y-102547967D01*
X156990912Y-102547967D01*
X161826680Y-97712200D01*
X164176895Y-97712200D01*
X164340001Y-97696136D01*
X164340001Y-104970597D01*
G37*
%TD.AperFunction*%
D22*
X126932200Y-61923800D02*
X131440200Y-61923800D01*
X131440200Y-61903800D01*
X131694200Y-61903800D01*
X131694200Y-61923800D01*
X136202200Y-61923800D01*
X136202200Y-61873109D01*
X136988519Y-61873109D01*
X137109186Y-62103000D01*
X138303000Y-62103000D01*
X138303000Y-60909845D01*
X138557000Y-60909845D01*
X138557000Y-62103000D01*
X138577000Y-62103000D01*
X138577000Y-62357000D01*
X138557000Y-62357000D01*
X138557000Y-63550155D01*
X138786890Y-63671476D01*
X138934099Y-63626825D01*
X139196920Y-63501641D01*
X139430269Y-63327588D01*
X139506034Y-63243534D01*
X139530498Y-63324180D01*
X139589463Y-63434494D01*
X139668815Y-63531185D01*
X139765506Y-63610537D01*
X139875820Y-63669502D01*
X139995518Y-63705812D01*
X140120000Y-63718072D01*
X141820000Y-63718072D01*
X141944482Y-63705812D01*
X142064180Y-63669502D01*
X142174494Y-63610537D01*
X142271185Y-63531185D01*
X142350537Y-63434494D01*
X142409502Y-63324180D01*
X142445812Y-63204482D01*
X142458072Y-63080000D01*
X142458072Y-61380000D01*
X142445812Y-61255518D01*
X142409502Y-61135820D01*
X142350537Y-61025506D01*
X142271185Y-60928815D01*
X142174494Y-60849463D01*
X142064180Y-60790498D01*
X141944482Y-60754188D01*
X141820000Y-60741928D01*
X140120000Y-60741928D01*
X139995518Y-60754188D01*
X139875820Y-60790498D01*
X139765506Y-60849463D01*
X139668815Y-60928815D01*
X139589463Y-61025506D01*
X139530498Y-61135820D01*
X139506034Y-61216466D01*
X139430269Y-61132412D01*
X139196920Y-60958359D01*
X138934099Y-60833175D01*
X138786890Y-60788524D01*
X138557000Y-60909845D01*
X138303000Y-60909845D01*
X138073110Y-60788524D01*
X137925901Y-60833175D01*
X137663080Y-60958359D01*
X137429731Y-61132412D01*
X137234822Y-61348645D01*
X137085843Y-61598748D01*
X136988519Y-61873109D01*
X136202200Y-61873109D01*
X136202200Y-60660000D01*
X143442200Y-60660000D01*
X143442200Y-69841093D01*
X143440632Y-69839525D01*
X143197411Y-69677010D01*
X142927158Y-69565068D01*
X142640260Y-69508000D01*
X142347740Y-69508000D01*
X142060842Y-69565068D01*
X141790589Y-69677010D01*
X141547368Y-69839525D01*
X141340525Y-70046368D01*
X141224000Y-70220760D01*
X141107475Y-70046368D01*
X140900632Y-69839525D01*
X140657411Y-69677010D01*
X140387158Y-69565068D01*
X140100260Y-69508000D01*
X139807740Y-69508000D01*
X139520842Y-69565068D01*
X139250589Y-69677010D01*
X139007368Y-69839525D01*
X138800525Y-70046368D01*
X138684000Y-70220760D01*
X138567475Y-70046368D01*
X138360632Y-69839525D01*
X138117411Y-69677010D01*
X137847158Y-69565068D01*
X137560260Y-69508000D01*
X137267740Y-69508000D01*
X136980842Y-69565068D01*
X136710589Y-69677010D01*
X136467368Y-69839525D01*
X136335513Y-69971380D01*
X136313502Y-69898820D01*
X136254537Y-69788506D01*
X136175185Y-69691815D01*
X136078494Y-69612463D01*
X135968180Y-69553498D01*
X135848482Y-69517188D01*
X135724000Y-69504928D01*
X135159750Y-69508000D01*
X135001000Y-69666750D01*
X135001000Y-70866000D01*
X135021000Y-70866000D01*
X135021000Y-71120000D01*
X135001000Y-71120000D01*
X135001000Y-72319250D01*
X135159750Y-72478000D01*
X135724000Y-72481072D01*
X135848482Y-72468812D01*
X135968180Y-72432502D01*
X136078494Y-72373537D01*
X136175185Y-72294185D01*
X136254537Y-72197494D01*
X136313502Y-72087180D01*
X136335513Y-72014620D01*
X136467368Y-72146475D01*
X136710589Y-72308990D01*
X136980842Y-72420932D01*
X137267740Y-72478000D01*
X137560260Y-72478000D01*
X137847158Y-72420932D01*
X138117411Y-72308990D01*
X138360632Y-72146475D01*
X138567475Y-71939632D01*
X138684000Y-71765240D01*
X138800525Y-71939632D01*
X139007368Y-72146475D01*
X139250589Y-72308990D01*
X139520842Y-72420932D01*
X139807740Y-72478000D01*
X140100260Y-72478000D01*
X140387158Y-72420932D01*
X140657411Y-72308990D01*
X140900632Y-72146475D01*
X141107475Y-71939632D01*
X141224000Y-71765240D01*
X141340525Y-71939632D01*
X141547368Y-72146475D01*
X141790589Y-72308990D01*
X142060842Y-72420932D01*
X142347740Y-72478000D01*
X142640260Y-72478000D01*
X142927158Y-72420932D01*
X143197411Y-72308990D01*
X143440632Y-72146475D01*
X143442201Y-72144906D01*
X143442201Y-80151707D01*
X143419774Y-80379410D01*
X143509266Y-81288028D01*
X143774299Y-82161729D01*
X144204692Y-82966937D01*
X144278245Y-83056561D01*
X144783903Y-83672708D01*
X144960768Y-83817857D01*
X145677282Y-84534371D01*
X145716274Y-84730398D01*
X145794295Y-84918756D01*
X145907563Y-85088274D01*
X146051726Y-85232437D01*
X146221244Y-85345705D01*
X146409602Y-85423726D01*
X146605629Y-85462718D01*
X153786016Y-92643105D01*
X147703400Y-98725721D01*
X140085585Y-91107906D01*
X139762508Y-90503473D01*
X139737500Y-90473000D01*
X144431928Y-90473000D01*
X144435000Y-91662250D01*
X144593750Y-91821000D01*
X145070094Y-91821000D01*
X145065064Y-91913459D01*
X145099605Y-91948000D01*
X145065064Y-91982541D01*
X145070094Y-92075000D01*
X144593750Y-92075000D01*
X144435000Y-92233750D01*
X144431928Y-93423000D01*
X144444188Y-93547482D01*
X144480498Y-93667180D01*
X144539463Y-93777494D01*
X144618815Y-93874185D01*
X144715506Y-93953537D01*
X144825820Y-94012502D01*
X144945518Y-94048812D01*
X145070000Y-94061072D01*
X147034250Y-94058000D01*
X147193000Y-93899250D01*
X147193000Y-92992467D01*
X147352762Y-93001157D01*
X147354541Y-93002936D01*
X147370000Y-93002095D01*
X147385459Y-93002936D01*
X147387238Y-93001157D01*
X147447000Y-92997906D01*
X147447000Y-93899250D01*
X147605750Y-94058000D01*
X149570000Y-94061072D01*
X149694482Y-94048812D01*
X149814180Y-94012502D01*
X149924494Y-93953537D01*
X150021185Y-93874185D01*
X150100537Y-93777494D01*
X150159502Y-93667180D01*
X150195812Y-93547482D01*
X150208072Y-93423000D01*
X150205000Y-92233750D01*
X150046250Y-92075000D01*
X149569906Y-92075000D01*
X149574936Y-91982541D01*
X149540395Y-91948000D01*
X149574936Y-91913459D01*
X149569906Y-91821000D01*
X150046250Y-91821000D01*
X150205000Y-91662250D01*
X150208072Y-90473000D01*
X150195812Y-90348518D01*
X150159502Y-90228820D01*
X150100537Y-90118506D01*
X150021185Y-90021815D01*
X149924494Y-89942463D01*
X149814180Y-89883498D01*
X149694482Y-89847188D01*
X149570000Y-89834928D01*
X147605750Y-89838000D01*
X147447000Y-89996750D01*
X147447000Y-90898094D01*
X147387238Y-90894843D01*
X147385459Y-90893064D01*
X147370000Y-90893905D01*
X147354541Y-90893064D01*
X147352762Y-90894843D01*
X147193000Y-90903533D01*
X147193000Y-89996750D01*
X147034250Y-89838000D01*
X145070000Y-89834928D01*
X144945518Y-89847188D01*
X144825820Y-89883498D01*
X144715506Y-89942463D01*
X144618815Y-90021815D01*
X144539463Y-90118506D01*
X144480498Y-90228820D01*
X144444188Y-90348518D01*
X144431928Y-90473000D01*
X139737500Y-90473000D01*
X139183298Y-89797702D01*
X138477527Y-89218492D01*
X137672320Y-88788099D01*
X136798619Y-88523065D01*
X136117695Y-88456000D01*
X135741493Y-88456000D01*
X135513800Y-88433574D01*
X135286107Y-88456000D01*
X119507905Y-88456000D01*
X119412457Y-88465401D01*
X119176895Y-88442200D01*
X115660000Y-88442200D01*
X115660000Y-85510000D01*
X115986928Y-85510000D01*
X115986928Y-87210000D01*
X115999188Y-87334482D01*
X116035498Y-87454180D01*
X116094463Y-87564494D01*
X116173815Y-87661185D01*
X116270506Y-87740537D01*
X116380820Y-87799502D01*
X116500518Y-87835812D01*
X116625000Y-87848072D01*
X118325000Y-87848072D01*
X118449482Y-87835812D01*
X118569180Y-87799502D01*
X118679494Y-87740537D01*
X118776185Y-87661185D01*
X118855537Y-87564494D01*
X118914502Y-87454180D01*
X118950812Y-87334482D01*
X118963072Y-87210000D01*
X118963072Y-85510000D01*
X118950812Y-85385518D01*
X118914502Y-85265820D01*
X118855537Y-85155506D01*
X118776185Y-85058815D01*
X118679494Y-84979463D01*
X118569180Y-84920498D01*
X118488534Y-84896034D01*
X118572588Y-84820269D01*
X118746641Y-84586920D01*
X118871825Y-84324099D01*
X118916476Y-84176890D01*
X118795155Y-83947000D01*
X117602000Y-83947000D01*
X117602000Y-83967000D01*
X117348000Y-83967000D01*
X117348000Y-83947000D01*
X116154845Y-83947000D01*
X116033524Y-84176890D01*
X116078175Y-84324099D01*
X116203359Y-84586920D01*
X116377412Y-84820269D01*
X116461466Y-84896034D01*
X116380820Y-84920498D01*
X116270506Y-84979463D01*
X116173815Y-85058815D01*
X116094463Y-85155506D01*
X116035498Y-85265820D01*
X115999188Y-85385518D01*
X115986928Y-85510000D01*
X115660000Y-85510000D01*
X115660000Y-83463110D01*
X116033524Y-83463110D01*
X116154845Y-83693000D01*
X117348000Y-83693000D01*
X117348000Y-82499186D01*
X117602000Y-82499186D01*
X117602000Y-83693000D01*
X118795155Y-83693000D01*
X118916476Y-83463110D01*
X118871825Y-83315901D01*
X118746641Y-83053080D01*
X118572588Y-82819731D01*
X118356355Y-82624822D01*
X118106252Y-82475843D01*
X117831891Y-82378519D01*
X117602000Y-82499186D01*
X117348000Y-82499186D01*
X117118109Y-82378519D01*
X116843748Y-82475843D01*
X116593645Y-82624822D01*
X116377412Y-82819731D01*
X116203359Y-83053080D01*
X116078175Y-83315901D01*
X116033524Y-83463110D01*
X115660000Y-83463110D01*
X115660000Y-81202200D01*
X116822200Y-81202200D01*
X116822200Y-76694200D01*
X117076200Y-76694200D01*
X117076200Y-81202200D01*
X119076200Y-81202200D01*
X119978003Y-81088363D01*
X120840270Y-80800781D01*
X121629864Y-80350504D01*
X122316442Y-79754837D01*
X122873619Y-79036671D01*
X123279982Y-78223605D01*
X123505550Y-77417438D01*
X123423648Y-76694200D01*
X117076200Y-76694200D01*
X116822200Y-76694200D01*
X116802200Y-76694200D01*
X116802200Y-76440200D01*
X116822200Y-76440200D01*
X116822200Y-71932200D01*
X117076200Y-71932200D01*
X117076200Y-76440200D01*
X123423648Y-76440200D01*
X123505550Y-75716962D01*
X123279982Y-74910795D01*
X122873619Y-74097729D01*
X122316442Y-73379563D01*
X121629864Y-72783896D01*
X121128069Y-72497740D01*
X124245000Y-72497740D01*
X124245000Y-72790260D01*
X124302068Y-73077158D01*
X124414010Y-73347411D01*
X124576525Y-73590632D01*
X124783368Y-73797475D01*
X124957760Y-73914000D01*
X124783368Y-74030525D01*
X124576525Y-74237368D01*
X124414010Y-74480589D01*
X124302068Y-74750842D01*
X124245000Y-75037740D01*
X124245000Y-75330260D01*
X124302068Y-75617158D01*
X124414010Y-75887411D01*
X124576525Y-76130632D01*
X124783368Y-76337475D01*
X124957760Y-76454000D01*
X124783368Y-76570525D01*
X124576525Y-76777368D01*
X124414010Y-77020589D01*
X124302068Y-77290842D01*
X124245000Y-77577740D01*
X124245000Y-77870260D01*
X124302068Y-78157158D01*
X124414010Y-78427411D01*
X124576525Y-78670632D01*
X124783368Y-78877475D01*
X124957760Y-78994000D01*
X124783368Y-79110525D01*
X124576525Y-79317368D01*
X124414010Y-79560589D01*
X124302068Y-79830842D01*
X124245000Y-80117740D01*
X124245000Y-80410260D01*
X124302068Y-80697158D01*
X124414010Y-80967411D01*
X124576525Y-81210632D01*
X124783368Y-81417475D01*
X125026589Y-81579990D01*
X125296842Y-81691932D01*
X125583740Y-81749000D01*
X125876260Y-81749000D01*
X126163158Y-81691932D01*
X126433411Y-81579990D01*
X126676632Y-81417475D01*
X126808487Y-81285620D01*
X126830498Y-81358180D01*
X126889463Y-81468494D01*
X126968815Y-81565185D01*
X127065506Y-81644537D01*
X127175820Y-81703502D01*
X127295518Y-81739812D01*
X127420000Y-81752072D01*
X129120000Y-81752072D01*
X129136000Y-81750496D01*
X129136000Y-84002843D01*
X127615185Y-85523658D01*
X127585237Y-85548236D01*
X127560659Y-85578184D01*
X127560655Y-85578188D01*
X127529834Y-85615744D01*
X127487139Y-85667767D01*
X127448177Y-85740660D01*
X127414246Y-85804141D01*
X127369359Y-85952114D01*
X127354203Y-86106000D01*
X127358001Y-86144562D01*
X127358001Y-86570288D01*
X127339063Y-86589226D01*
X127225795Y-86758744D01*
X127147774Y-86947102D01*
X127108000Y-87147061D01*
X127108000Y-87350939D01*
X127147774Y-87550898D01*
X127225795Y-87739256D01*
X127339063Y-87908774D01*
X127483226Y-88052937D01*
X127652744Y-88166205D01*
X127841102Y-88244226D01*
X128041061Y-88284000D01*
X128244939Y-88284000D01*
X128444898Y-88244226D01*
X128633256Y-88166205D01*
X128802774Y-88052937D01*
X128946937Y-87908774D01*
X129060205Y-87739256D01*
X129138226Y-87550898D01*
X129178000Y-87350939D01*
X129178000Y-87147061D01*
X129138226Y-86947102D01*
X129060205Y-86758744D01*
X128946937Y-86589226D01*
X128928000Y-86570289D01*
X128928000Y-86431157D01*
X130448811Y-84910346D01*
X130478764Y-84885764D01*
X130576862Y-84766233D01*
X130649754Y-84629860D01*
X130662780Y-84586920D01*
X130694642Y-84481887D01*
X130702020Y-84406974D01*
X130706000Y-84366561D01*
X130706000Y-84366556D01*
X130709797Y-84328000D01*
X130706000Y-84289444D01*
X130706000Y-73698555D01*
X130709797Y-73660000D01*
X130706000Y-73621444D01*
X130706000Y-73621439D01*
X130702020Y-73581026D01*
X130694642Y-73506113D01*
X130649754Y-73358140D01*
X130618604Y-73299862D01*
X130576862Y-73221767D01*
X130478764Y-73102236D01*
X130448815Y-73077657D01*
X129726719Y-72355561D01*
X129697932Y-72210842D01*
X129585990Y-71940589D01*
X129520784Y-71843000D01*
X133385928Y-71843000D01*
X133398188Y-71967482D01*
X133434498Y-72087180D01*
X133493463Y-72197494D01*
X133572815Y-72294185D01*
X133669506Y-72373537D01*
X133779820Y-72432502D01*
X133899518Y-72468812D01*
X134024000Y-72481072D01*
X134588250Y-72478000D01*
X134747000Y-72319250D01*
X134747000Y-71120000D01*
X133547750Y-71120000D01*
X133389000Y-71278750D01*
X133385928Y-71843000D01*
X129520784Y-71843000D01*
X129423475Y-71697368D01*
X129216632Y-71490525D01*
X129042240Y-71374000D01*
X129216632Y-71257475D01*
X129423475Y-71050632D01*
X129585990Y-70807411D01*
X129697932Y-70537158D01*
X129755000Y-70250260D01*
X129755000Y-70143000D01*
X133385928Y-70143000D01*
X133389000Y-70707250D01*
X133547750Y-70866000D01*
X134747000Y-70866000D01*
X134747000Y-69666750D01*
X134588250Y-69508000D01*
X134024000Y-69504928D01*
X133899518Y-69517188D01*
X133779820Y-69553498D01*
X133669506Y-69612463D01*
X133572815Y-69691815D01*
X133493463Y-69788506D01*
X133434498Y-69898820D01*
X133398188Y-70018518D01*
X133385928Y-70143000D01*
X129755000Y-70143000D01*
X129755000Y-69957740D01*
X129697932Y-69670842D01*
X129585990Y-69400589D01*
X129423475Y-69157368D01*
X129216632Y-68950525D01*
X128973411Y-68788010D01*
X128703158Y-68676068D01*
X128416260Y-68619000D01*
X128123740Y-68619000D01*
X127836842Y-68676068D01*
X127566589Y-68788010D01*
X127323368Y-68950525D01*
X127116525Y-69157368D01*
X126998900Y-69333406D01*
X126827588Y-69103731D01*
X126611355Y-68908822D01*
X126361252Y-68759843D01*
X126086891Y-68662519D01*
X125857000Y-68783186D01*
X125857000Y-69977000D01*
X125877000Y-69977000D01*
X125877000Y-70231000D01*
X125857000Y-70231000D01*
X125857000Y-70251000D01*
X125603000Y-70251000D01*
X125603000Y-70231000D01*
X124409845Y-70231000D01*
X124288524Y-70460890D01*
X124333175Y-70608099D01*
X124458359Y-70870920D01*
X124632412Y-71104269D01*
X124848645Y-71299178D01*
X124965534Y-71368805D01*
X124783368Y-71490525D01*
X124576525Y-71697368D01*
X124414010Y-71940589D01*
X124302068Y-72210842D01*
X124245000Y-72497740D01*
X121128069Y-72497740D01*
X120840270Y-72333619D01*
X119978003Y-72046037D01*
X119076200Y-71932200D01*
X117076200Y-71932200D01*
X116822200Y-71932200D01*
X115660000Y-71932200D01*
X115660000Y-69747110D01*
X124288524Y-69747110D01*
X124409845Y-69977000D01*
X125603000Y-69977000D01*
X125603000Y-68783186D01*
X125373109Y-68662519D01*
X125098748Y-68759843D01*
X124848645Y-68908822D01*
X124632412Y-69103731D01*
X124458359Y-69337080D01*
X124333175Y-69599901D01*
X124288524Y-69747110D01*
X115660000Y-69747110D01*
X115660000Y-67452033D01*
X117727572Y-67452033D01*
X118045757Y-67905850D01*
X118650210Y-68231269D01*
X119306535Y-68432512D01*
X119989510Y-68501845D01*
X120672888Y-68436605D01*
X121330407Y-68239298D01*
X121936799Y-67917506D01*
X121954243Y-67905850D01*
X122272428Y-67452033D01*
X120000000Y-65179605D01*
X117727572Y-67452033D01*
X115660000Y-67452033D01*
X115660000Y-65029392D01*
X115663559Y-64989510D01*
X116498155Y-64989510D01*
X116563395Y-65672888D01*
X116760702Y-66330407D01*
X117082494Y-66936799D01*
X117094150Y-66954243D01*
X117547967Y-67272428D01*
X119820395Y-65000000D01*
X120179605Y-65000000D01*
X122452033Y-67272428D01*
X122905850Y-66954243D01*
X123231269Y-66349790D01*
X123432512Y-65693465D01*
X123501845Y-65010490D01*
X123436605Y-64327112D01*
X123239298Y-63669593D01*
X122917506Y-63063201D01*
X122905850Y-63045757D01*
X122452033Y-62727572D01*
X120179605Y-65000000D01*
X119820395Y-65000000D01*
X117547967Y-62727572D01*
X117094150Y-63045757D01*
X116768731Y-63650210D01*
X116567488Y-64306535D01*
X116498155Y-64989510D01*
X115663559Y-64989510D01*
X115731173Y-64231917D01*
X115768291Y-64096236D01*
X117275816Y-62547967D01*
X117727572Y-62547967D01*
X120000000Y-64820395D01*
X122272428Y-62547967D01*
X122012893Y-62177800D01*
X126932200Y-62177800D01*
X126932200Y-64177800D01*
X127046037Y-65079603D01*
X127333619Y-65941870D01*
X127783896Y-66731464D01*
X128379563Y-67418042D01*
X129097729Y-67975219D01*
X129910795Y-68381582D01*
X130716962Y-68607150D01*
X131440200Y-68525248D01*
X131440200Y-62177800D01*
X131694200Y-62177800D01*
X131694200Y-68525248D01*
X132417438Y-68607150D01*
X133223605Y-68381582D01*
X134036671Y-67975219D01*
X134754837Y-67418042D01*
X135350504Y-66731464D01*
X135800781Y-65941870D01*
X136088363Y-65079603D01*
X136202200Y-64177800D01*
X136202200Y-62586891D01*
X136988519Y-62586891D01*
X137085843Y-62861252D01*
X137234822Y-63111355D01*
X137429731Y-63327588D01*
X137663080Y-63501641D01*
X137925901Y-63626825D01*
X138073110Y-63671476D01*
X138303000Y-63550155D01*
X138303000Y-62357000D01*
X137109186Y-62357000D01*
X136988519Y-62586891D01*
X136202200Y-62586891D01*
X136202200Y-62177800D01*
X131694200Y-62177800D01*
X131440200Y-62177800D01*
X126932200Y-62177800D01*
X122012893Y-62177800D01*
X121954243Y-62094150D01*
X121349790Y-61768731D01*
X120693465Y-61567488D01*
X120010490Y-61498155D01*
X119327112Y-61563395D01*
X118669593Y-61760702D01*
X118063201Y-62082494D01*
X118045757Y-62094150D01*
X117727572Y-62547967D01*
X117275816Y-62547967D01*
X118974674Y-60803194D01*
X119371457Y-60707935D01*
X120024207Y-60660000D01*
X126932200Y-60660000D01*
X126932200Y-61923800D01*
%TA.AperFunction,Conductor*%
D23*
G36*
X126932200Y-61923800D02*
G01*
X131440200Y-61923800D01*
X131440200Y-61903800D01*
X131694200Y-61903800D01*
X131694200Y-61923800D01*
X136202200Y-61923800D01*
X136202200Y-61873109D01*
X136988519Y-61873109D01*
X137109186Y-62103000D01*
X138303000Y-62103000D01*
X138303000Y-60909845D01*
X138557000Y-60909845D01*
X138557000Y-62103000D01*
X138577000Y-62103000D01*
X138577000Y-62357000D01*
X138557000Y-62357000D01*
X138557000Y-63550155D01*
X138786890Y-63671476D01*
X138934099Y-63626825D01*
X139196920Y-63501641D01*
X139430269Y-63327588D01*
X139506034Y-63243534D01*
X139530498Y-63324180D01*
X139589463Y-63434494D01*
X139668815Y-63531185D01*
X139765506Y-63610537D01*
X139875820Y-63669502D01*
X139995518Y-63705812D01*
X140120000Y-63718072D01*
X141820000Y-63718072D01*
X141944482Y-63705812D01*
X142064180Y-63669502D01*
X142174494Y-63610537D01*
X142271185Y-63531185D01*
X142350537Y-63434494D01*
X142409502Y-63324180D01*
X142445812Y-63204482D01*
X142458072Y-63080000D01*
X142458072Y-61380000D01*
X142445812Y-61255518D01*
X142409502Y-61135820D01*
X142350537Y-61025506D01*
X142271185Y-60928815D01*
X142174494Y-60849463D01*
X142064180Y-60790498D01*
X141944482Y-60754188D01*
X141820000Y-60741928D01*
X140120000Y-60741928D01*
X139995518Y-60754188D01*
X139875820Y-60790498D01*
X139765506Y-60849463D01*
X139668815Y-60928815D01*
X139589463Y-61025506D01*
X139530498Y-61135820D01*
X139506034Y-61216466D01*
X139430269Y-61132412D01*
X139196920Y-60958359D01*
X138934099Y-60833175D01*
X138786890Y-60788524D01*
X138557000Y-60909845D01*
X138303000Y-60909845D01*
X138073110Y-60788524D01*
X137925901Y-60833175D01*
X137663080Y-60958359D01*
X137429731Y-61132412D01*
X137234822Y-61348645D01*
X137085843Y-61598748D01*
X136988519Y-61873109D01*
X136202200Y-61873109D01*
X136202200Y-60660000D01*
X143442200Y-60660000D01*
X143442200Y-69841093D01*
X143440632Y-69839525D01*
X143197411Y-69677010D01*
X142927158Y-69565068D01*
X142640260Y-69508000D01*
X142347740Y-69508000D01*
X142060842Y-69565068D01*
X141790589Y-69677010D01*
X141547368Y-69839525D01*
X141340525Y-70046368D01*
X141224000Y-70220760D01*
X141107475Y-70046368D01*
X140900632Y-69839525D01*
X140657411Y-69677010D01*
X140387158Y-69565068D01*
X140100260Y-69508000D01*
X139807740Y-69508000D01*
X139520842Y-69565068D01*
X139250589Y-69677010D01*
X139007368Y-69839525D01*
X138800525Y-70046368D01*
X138684000Y-70220760D01*
X138567475Y-70046368D01*
X138360632Y-69839525D01*
X138117411Y-69677010D01*
X137847158Y-69565068D01*
X137560260Y-69508000D01*
X137267740Y-69508000D01*
X136980842Y-69565068D01*
X136710589Y-69677010D01*
X136467368Y-69839525D01*
X136335513Y-69971380D01*
X136313502Y-69898820D01*
X136254537Y-69788506D01*
X136175185Y-69691815D01*
X136078494Y-69612463D01*
X135968180Y-69553498D01*
X135848482Y-69517188D01*
X135724000Y-69504928D01*
X135159750Y-69508000D01*
X135001000Y-69666750D01*
X135001000Y-70866000D01*
X135021000Y-70866000D01*
X135021000Y-71120000D01*
X135001000Y-71120000D01*
X135001000Y-72319250D01*
X135159750Y-72478000D01*
X135724000Y-72481072D01*
X135848482Y-72468812D01*
X135968180Y-72432502D01*
X136078494Y-72373537D01*
X136175185Y-72294185D01*
X136254537Y-72197494D01*
X136313502Y-72087180D01*
X136335513Y-72014620D01*
X136467368Y-72146475D01*
X136710589Y-72308990D01*
X136980842Y-72420932D01*
X137267740Y-72478000D01*
X137560260Y-72478000D01*
X137847158Y-72420932D01*
X138117411Y-72308990D01*
X138360632Y-72146475D01*
X138567475Y-71939632D01*
X138684000Y-71765240D01*
X138800525Y-71939632D01*
X139007368Y-72146475D01*
X139250589Y-72308990D01*
X139520842Y-72420932D01*
X139807740Y-72478000D01*
X140100260Y-72478000D01*
X140387158Y-72420932D01*
X140657411Y-72308990D01*
X140900632Y-72146475D01*
X141107475Y-71939632D01*
X141224000Y-71765240D01*
X141340525Y-71939632D01*
X141547368Y-72146475D01*
X141790589Y-72308990D01*
X142060842Y-72420932D01*
X142347740Y-72478000D01*
X142640260Y-72478000D01*
X142927158Y-72420932D01*
X143197411Y-72308990D01*
X143440632Y-72146475D01*
X143442201Y-72144906D01*
X143442201Y-80151707D01*
X143419774Y-80379410D01*
X143509266Y-81288028D01*
X143774299Y-82161729D01*
X144204692Y-82966937D01*
X144278245Y-83056561D01*
X144783903Y-83672708D01*
X144960768Y-83817857D01*
X145677282Y-84534371D01*
X145716274Y-84730398D01*
X145794295Y-84918756D01*
X145907563Y-85088274D01*
X146051726Y-85232437D01*
X146221244Y-85345705D01*
X146409602Y-85423726D01*
X146605629Y-85462718D01*
X153786016Y-92643105D01*
X147703400Y-98725721D01*
X140085585Y-91107906D01*
X139762508Y-90503473D01*
X139737500Y-90473000D01*
X144431928Y-90473000D01*
X144435000Y-91662250D01*
X144593750Y-91821000D01*
X145070094Y-91821000D01*
X145065064Y-91913459D01*
X145099605Y-91948000D01*
X145065064Y-91982541D01*
X145070094Y-92075000D01*
X144593750Y-92075000D01*
X144435000Y-92233750D01*
X144431928Y-93423000D01*
X144444188Y-93547482D01*
X144480498Y-93667180D01*
X144539463Y-93777494D01*
X144618815Y-93874185D01*
X144715506Y-93953537D01*
X144825820Y-94012502D01*
X144945518Y-94048812D01*
X145070000Y-94061072D01*
X147034250Y-94058000D01*
X147193000Y-93899250D01*
X147193000Y-92992467D01*
X147352762Y-93001157D01*
X147354541Y-93002936D01*
X147370000Y-93002095D01*
X147385459Y-93002936D01*
X147387238Y-93001157D01*
X147447000Y-92997906D01*
X147447000Y-93899250D01*
X147605750Y-94058000D01*
X149570000Y-94061072D01*
X149694482Y-94048812D01*
X149814180Y-94012502D01*
X149924494Y-93953537D01*
X150021185Y-93874185D01*
X150100537Y-93777494D01*
X150159502Y-93667180D01*
X150195812Y-93547482D01*
X150208072Y-93423000D01*
X150205000Y-92233750D01*
X150046250Y-92075000D01*
X149569906Y-92075000D01*
X149574936Y-91982541D01*
X149540395Y-91948000D01*
X149574936Y-91913459D01*
X149569906Y-91821000D01*
X150046250Y-91821000D01*
X150205000Y-91662250D01*
X150208072Y-90473000D01*
X150195812Y-90348518D01*
X150159502Y-90228820D01*
X150100537Y-90118506D01*
X150021185Y-90021815D01*
X149924494Y-89942463D01*
X149814180Y-89883498D01*
X149694482Y-89847188D01*
X149570000Y-89834928D01*
X147605750Y-89838000D01*
X147447000Y-89996750D01*
X147447000Y-90898094D01*
X147387238Y-90894843D01*
X147385459Y-90893064D01*
X147370000Y-90893905D01*
X147354541Y-90893064D01*
X147352762Y-90894843D01*
X147193000Y-90903533D01*
X147193000Y-89996750D01*
X147034250Y-89838000D01*
X145070000Y-89834928D01*
X144945518Y-89847188D01*
X144825820Y-89883498D01*
X144715506Y-89942463D01*
X144618815Y-90021815D01*
X144539463Y-90118506D01*
X144480498Y-90228820D01*
X144444188Y-90348518D01*
X144431928Y-90473000D01*
X139737500Y-90473000D01*
X139183298Y-89797702D01*
X138477527Y-89218492D01*
X137672320Y-88788099D01*
X136798619Y-88523065D01*
X136117695Y-88456000D01*
X135741493Y-88456000D01*
X135513800Y-88433574D01*
X135286107Y-88456000D01*
X119507905Y-88456000D01*
X119412457Y-88465401D01*
X119176895Y-88442200D01*
X115660000Y-88442200D01*
X115660000Y-85510000D01*
X115986928Y-85510000D01*
X115986928Y-87210000D01*
X115999188Y-87334482D01*
X116035498Y-87454180D01*
X116094463Y-87564494D01*
X116173815Y-87661185D01*
X116270506Y-87740537D01*
X116380820Y-87799502D01*
X116500518Y-87835812D01*
X116625000Y-87848072D01*
X118325000Y-87848072D01*
X118449482Y-87835812D01*
X118569180Y-87799502D01*
X118679494Y-87740537D01*
X118776185Y-87661185D01*
X118855537Y-87564494D01*
X118914502Y-87454180D01*
X118950812Y-87334482D01*
X118963072Y-87210000D01*
X118963072Y-85510000D01*
X118950812Y-85385518D01*
X118914502Y-85265820D01*
X118855537Y-85155506D01*
X118776185Y-85058815D01*
X118679494Y-84979463D01*
X118569180Y-84920498D01*
X118488534Y-84896034D01*
X118572588Y-84820269D01*
X118746641Y-84586920D01*
X118871825Y-84324099D01*
X118916476Y-84176890D01*
X118795155Y-83947000D01*
X117602000Y-83947000D01*
X117602000Y-83967000D01*
X117348000Y-83967000D01*
X117348000Y-83947000D01*
X116154845Y-83947000D01*
X116033524Y-84176890D01*
X116078175Y-84324099D01*
X116203359Y-84586920D01*
X116377412Y-84820269D01*
X116461466Y-84896034D01*
X116380820Y-84920498D01*
X116270506Y-84979463D01*
X116173815Y-85058815D01*
X116094463Y-85155506D01*
X116035498Y-85265820D01*
X115999188Y-85385518D01*
X115986928Y-85510000D01*
X115660000Y-85510000D01*
X115660000Y-83463110D01*
X116033524Y-83463110D01*
X116154845Y-83693000D01*
X117348000Y-83693000D01*
X117348000Y-82499186D01*
X117602000Y-82499186D01*
X117602000Y-83693000D01*
X118795155Y-83693000D01*
X118916476Y-83463110D01*
X118871825Y-83315901D01*
X118746641Y-83053080D01*
X118572588Y-82819731D01*
X118356355Y-82624822D01*
X118106252Y-82475843D01*
X117831891Y-82378519D01*
X117602000Y-82499186D01*
X117348000Y-82499186D01*
X117118109Y-82378519D01*
X116843748Y-82475843D01*
X116593645Y-82624822D01*
X116377412Y-82819731D01*
X116203359Y-83053080D01*
X116078175Y-83315901D01*
X116033524Y-83463110D01*
X115660000Y-83463110D01*
X115660000Y-81202200D01*
X116822200Y-81202200D01*
X116822200Y-76694200D01*
X117076200Y-76694200D01*
X117076200Y-81202200D01*
X119076200Y-81202200D01*
X119978003Y-81088363D01*
X120840270Y-80800781D01*
X121629864Y-80350504D01*
X122316442Y-79754837D01*
X122873619Y-79036671D01*
X123279982Y-78223605D01*
X123505550Y-77417438D01*
X123423648Y-76694200D01*
X117076200Y-76694200D01*
X116822200Y-76694200D01*
X116802200Y-76694200D01*
X116802200Y-76440200D01*
X116822200Y-76440200D01*
X116822200Y-71932200D01*
X117076200Y-71932200D01*
X117076200Y-76440200D01*
X123423648Y-76440200D01*
X123505550Y-75716962D01*
X123279982Y-74910795D01*
X122873619Y-74097729D01*
X122316442Y-73379563D01*
X121629864Y-72783896D01*
X121128069Y-72497740D01*
X124245000Y-72497740D01*
X124245000Y-72790260D01*
X124302068Y-73077158D01*
X124414010Y-73347411D01*
X124576525Y-73590632D01*
X124783368Y-73797475D01*
X124957760Y-73914000D01*
X124783368Y-74030525D01*
X124576525Y-74237368D01*
X124414010Y-74480589D01*
X124302068Y-74750842D01*
X124245000Y-75037740D01*
X124245000Y-75330260D01*
X124302068Y-75617158D01*
X124414010Y-75887411D01*
X124576525Y-76130632D01*
X124783368Y-76337475D01*
X124957760Y-76454000D01*
X124783368Y-76570525D01*
X124576525Y-76777368D01*
X124414010Y-77020589D01*
X124302068Y-77290842D01*
X124245000Y-77577740D01*
X124245000Y-77870260D01*
X124302068Y-78157158D01*
X124414010Y-78427411D01*
X124576525Y-78670632D01*
X124783368Y-78877475D01*
X124957760Y-78994000D01*
X124783368Y-79110525D01*
X124576525Y-79317368D01*
X124414010Y-79560589D01*
X124302068Y-79830842D01*
X124245000Y-80117740D01*
X124245000Y-80410260D01*
X124302068Y-80697158D01*
X124414010Y-80967411D01*
X124576525Y-81210632D01*
X124783368Y-81417475D01*
X125026589Y-81579990D01*
X125296842Y-81691932D01*
X125583740Y-81749000D01*
X125876260Y-81749000D01*
X126163158Y-81691932D01*
X126433411Y-81579990D01*
X126676632Y-81417475D01*
X126808487Y-81285620D01*
X126830498Y-81358180D01*
X126889463Y-81468494D01*
X126968815Y-81565185D01*
X127065506Y-81644537D01*
X127175820Y-81703502D01*
X127295518Y-81739812D01*
X127420000Y-81752072D01*
X129120000Y-81752072D01*
X129136000Y-81750496D01*
X129136000Y-84002843D01*
X127615185Y-85523658D01*
X127585237Y-85548236D01*
X127560659Y-85578184D01*
X127560655Y-85578188D01*
X127529834Y-85615744D01*
X127487139Y-85667767D01*
X127448177Y-85740660D01*
X127414246Y-85804141D01*
X127369359Y-85952114D01*
X127354203Y-86106000D01*
X127358001Y-86144562D01*
X127358001Y-86570288D01*
X127339063Y-86589226D01*
X127225795Y-86758744D01*
X127147774Y-86947102D01*
X127108000Y-87147061D01*
X127108000Y-87350939D01*
X127147774Y-87550898D01*
X127225795Y-87739256D01*
X127339063Y-87908774D01*
X127483226Y-88052937D01*
X127652744Y-88166205D01*
X127841102Y-88244226D01*
X128041061Y-88284000D01*
X128244939Y-88284000D01*
X128444898Y-88244226D01*
X128633256Y-88166205D01*
X128802774Y-88052937D01*
X128946937Y-87908774D01*
X129060205Y-87739256D01*
X129138226Y-87550898D01*
X129178000Y-87350939D01*
X129178000Y-87147061D01*
X129138226Y-86947102D01*
X129060205Y-86758744D01*
X128946937Y-86589226D01*
X128928000Y-86570289D01*
X128928000Y-86431157D01*
X130448811Y-84910346D01*
X130478764Y-84885764D01*
X130576862Y-84766233D01*
X130649754Y-84629860D01*
X130662780Y-84586920D01*
X130694642Y-84481887D01*
X130702020Y-84406974D01*
X130706000Y-84366561D01*
X130706000Y-84366556D01*
X130709797Y-84328000D01*
X130706000Y-84289444D01*
X130706000Y-73698555D01*
X130709797Y-73660000D01*
X130706000Y-73621444D01*
X130706000Y-73621439D01*
X130702020Y-73581026D01*
X130694642Y-73506113D01*
X130649754Y-73358140D01*
X130618604Y-73299862D01*
X130576862Y-73221767D01*
X130478764Y-73102236D01*
X130448815Y-73077657D01*
X129726719Y-72355561D01*
X129697932Y-72210842D01*
X129585990Y-71940589D01*
X129520784Y-71843000D01*
X133385928Y-71843000D01*
X133398188Y-71967482D01*
X133434498Y-72087180D01*
X133493463Y-72197494D01*
X133572815Y-72294185D01*
X133669506Y-72373537D01*
X133779820Y-72432502D01*
X133899518Y-72468812D01*
X134024000Y-72481072D01*
X134588250Y-72478000D01*
X134747000Y-72319250D01*
X134747000Y-71120000D01*
X133547750Y-71120000D01*
X133389000Y-71278750D01*
X133385928Y-71843000D01*
X129520784Y-71843000D01*
X129423475Y-71697368D01*
X129216632Y-71490525D01*
X129042240Y-71374000D01*
X129216632Y-71257475D01*
X129423475Y-71050632D01*
X129585990Y-70807411D01*
X129697932Y-70537158D01*
X129755000Y-70250260D01*
X129755000Y-70143000D01*
X133385928Y-70143000D01*
X133389000Y-70707250D01*
X133547750Y-70866000D01*
X134747000Y-70866000D01*
X134747000Y-69666750D01*
X134588250Y-69508000D01*
X134024000Y-69504928D01*
X133899518Y-69517188D01*
X133779820Y-69553498D01*
X133669506Y-69612463D01*
X133572815Y-69691815D01*
X133493463Y-69788506D01*
X133434498Y-69898820D01*
X133398188Y-70018518D01*
X133385928Y-70143000D01*
X129755000Y-70143000D01*
X129755000Y-69957740D01*
X129697932Y-69670842D01*
X129585990Y-69400589D01*
X129423475Y-69157368D01*
X129216632Y-68950525D01*
X128973411Y-68788010D01*
X128703158Y-68676068D01*
X128416260Y-68619000D01*
X128123740Y-68619000D01*
X127836842Y-68676068D01*
X127566589Y-68788010D01*
X127323368Y-68950525D01*
X127116525Y-69157368D01*
X126998900Y-69333406D01*
X126827588Y-69103731D01*
X126611355Y-68908822D01*
X126361252Y-68759843D01*
X126086891Y-68662519D01*
X125857000Y-68783186D01*
X125857000Y-69977000D01*
X125877000Y-69977000D01*
X125877000Y-70231000D01*
X125857000Y-70231000D01*
X125857000Y-70251000D01*
X125603000Y-70251000D01*
X125603000Y-70231000D01*
X124409845Y-70231000D01*
X124288524Y-70460890D01*
X124333175Y-70608099D01*
X124458359Y-70870920D01*
X124632412Y-71104269D01*
X124848645Y-71299178D01*
X124965534Y-71368805D01*
X124783368Y-71490525D01*
X124576525Y-71697368D01*
X124414010Y-71940589D01*
X124302068Y-72210842D01*
X124245000Y-72497740D01*
X121128069Y-72497740D01*
X120840270Y-72333619D01*
X119978003Y-72046037D01*
X119076200Y-71932200D01*
X117076200Y-71932200D01*
X116822200Y-71932200D01*
X115660000Y-71932200D01*
X115660000Y-69747110D01*
X124288524Y-69747110D01*
X124409845Y-69977000D01*
X125603000Y-69977000D01*
X125603000Y-68783186D01*
X125373109Y-68662519D01*
X125098748Y-68759843D01*
X124848645Y-68908822D01*
X124632412Y-69103731D01*
X124458359Y-69337080D01*
X124333175Y-69599901D01*
X124288524Y-69747110D01*
X115660000Y-69747110D01*
X115660000Y-67452033D01*
X117727572Y-67452033D01*
X118045757Y-67905850D01*
X118650210Y-68231269D01*
X119306535Y-68432512D01*
X119989510Y-68501845D01*
X120672888Y-68436605D01*
X121330407Y-68239298D01*
X121936799Y-67917506D01*
X121954243Y-67905850D01*
X122272428Y-67452033D01*
X120000000Y-65179605D01*
X117727572Y-67452033D01*
X115660000Y-67452033D01*
X115660000Y-65029392D01*
X115663559Y-64989510D01*
X116498155Y-64989510D01*
X116563395Y-65672888D01*
X116760702Y-66330407D01*
X117082494Y-66936799D01*
X117094150Y-66954243D01*
X117547967Y-67272428D01*
X119820395Y-65000000D01*
X120179605Y-65000000D01*
X122452033Y-67272428D01*
X122905850Y-66954243D01*
X123231269Y-66349790D01*
X123432512Y-65693465D01*
X123501845Y-65010490D01*
X123436605Y-64327112D01*
X123239298Y-63669593D01*
X122917506Y-63063201D01*
X122905850Y-63045757D01*
X122452033Y-62727572D01*
X120179605Y-65000000D01*
X119820395Y-65000000D01*
X117547967Y-62727572D01*
X117094150Y-63045757D01*
X116768731Y-63650210D01*
X116567488Y-64306535D01*
X116498155Y-64989510D01*
X115663559Y-64989510D01*
X115731173Y-64231917D01*
X115768291Y-64096236D01*
X117275816Y-62547967D01*
X117727572Y-62547967D01*
X120000000Y-64820395D01*
X122272428Y-62547967D01*
X122012893Y-62177800D01*
X126932200Y-62177800D01*
X126932200Y-64177800D01*
X127046037Y-65079603D01*
X127333619Y-65941870D01*
X127783896Y-66731464D01*
X128379563Y-67418042D01*
X129097729Y-67975219D01*
X129910795Y-68381582D01*
X130716962Y-68607150D01*
X131440200Y-68525248D01*
X131440200Y-62177800D01*
X131694200Y-62177800D01*
X131694200Y-68525248D01*
X132417438Y-68607150D01*
X133223605Y-68381582D01*
X134036671Y-67975219D01*
X134754837Y-67418042D01*
X135350504Y-66731464D01*
X135800781Y-65941870D01*
X136088363Y-65079603D01*
X136202200Y-64177800D01*
X136202200Y-62586891D01*
X136988519Y-62586891D01*
X137085843Y-62861252D01*
X137234822Y-63111355D01*
X137429731Y-63327588D01*
X137663080Y-63501641D01*
X137925901Y-63626825D01*
X138073110Y-63671476D01*
X138303000Y-63550155D01*
X138303000Y-62357000D01*
X137109186Y-62357000D01*
X136988519Y-62586891D01*
X136202200Y-62586891D01*
X136202200Y-62177800D01*
X131694200Y-62177800D01*
X131440200Y-62177800D01*
X126932200Y-62177800D01*
X122012893Y-62177800D01*
X121954243Y-62094150D01*
X121349790Y-61768731D01*
X120693465Y-61567488D01*
X120010490Y-61498155D01*
X119327112Y-61563395D01*
X118669593Y-61760702D01*
X118063201Y-62082494D01*
X118045757Y-62094150D01*
X117727572Y-62547967D01*
X117275816Y-62547967D01*
X118974674Y-60803194D01*
X119371457Y-60707935D01*
X120024207Y-60660000D01*
X126932200Y-60660000D01*
X126932200Y-61923800D01*
G37*
%TD.AperFunction*%
D22*
X147352762Y-91801157D02*
X147354541Y-91802936D01*
X147370000Y-91802095D01*
X147385459Y-91802936D01*
X147387238Y-91801157D01*
X147447000Y-91797906D01*
X147447000Y-91821000D01*
X147570094Y-91821000D01*
X147565064Y-91913459D01*
X147599605Y-91948000D01*
X147565064Y-91982541D01*
X147570094Y-92075000D01*
X147447000Y-92075000D01*
X147447000Y-92098094D01*
X147387238Y-92094843D01*
X147385459Y-92093064D01*
X147370000Y-92093905D01*
X147354541Y-92093064D01*
X147352762Y-92094843D01*
X147193000Y-92103533D01*
X147193000Y-92075000D01*
X147169906Y-92075000D01*
X147174936Y-91982541D01*
X147140395Y-91948000D01*
X147174936Y-91913459D01*
X147169906Y-91821000D01*
X147193000Y-91821000D01*
X147193000Y-91792467D01*
X147352762Y-91801157D01*
%TA.AperFunction,Conductor*%
D23*
G36*
X147352762Y-91801157D02*
G01*
X147354541Y-91802936D01*
X147370000Y-91802095D01*
X147385459Y-91802936D01*
X147387238Y-91801157D01*
X147447000Y-91797906D01*
X147447000Y-91821000D01*
X147570094Y-91821000D01*
X147565064Y-91913459D01*
X147599605Y-91948000D01*
X147565064Y-91982541D01*
X147570094Y-92075000D01*
X147447000Y-92075000D01*
X147447000Y-92098094D01*
X147387238Y-92094843D01*
X147385459Y-92093064D01*
X147370000Y-92093905D01*
X147354541Y-92093064D01*
X147352762Y-92094843D01*
X147193000Y-92103533D01*
X147193000Y-92075000D01*
X147169906Y-92075000D01*
X147174936Y-91982541D01*
X147140395Y-91948000D01*
X147174936Y-91913459D01*
X147169906Y-91821000D01*
X147193000Y-91821000D01*
X147193000Y-91792467D01*
X147352762Y-91801157D01*
G37*
%TD.AperFunction*%
D22*
X160595063Y-60715731D02*
X161922204Y-62076901D01*
X161349790Y-61768731D01*
X160693465Y-61567488D01*
X160010490Y-61498155D01*
X159327112Y-61563395D01*
X158669593Y-61760702D01*
X158063201Y-62082494D01*
X158045757Y-62094150D01*
X157727572Y-62547967D01*
X160000000Y-64820395D01*
X160014143Y-64806253D01*
X160193748Y-64985858D01*
X160179605Y-65000000D01*
X162452033Y-67272428D01*
X162905850Y-66954243D01*
X163231269Y-66349790D01*
X163432512Y-65693465D01*
X163501845Y-65010490D01*
X163436605Y-64327112D01*
X163239298Y-63669593D01*
X162957706Y-63138954D01*
X164302871Y-64518611D01*
X164340000Y-65024207D01*
X164340000Y-71965500D01*
X164076200Y-71932200D01*
X162076200Y-71932200D01*
X162076200Y-76440200D01*
X162096200Y-76440200D01*
X162096200Y-76694200D01*
X162076200Y-76694200D01*
X162076200Y-81202200D01*
X164076200Y-81202200D01*
X164340000Y-81168900D01*
X164340001Y-88458264D01*
X164176895Y-88442200D01*
X162694870Y-88442200D01*
X162100742Y-87848072D01*
X163410000Y-87848072D01*
X163534482Y-87835812D01*
X163654180Y-87799502D01*
X163764494Y-87740537D01*
X163861185Y-87661185D01*
X163940537Y-87564494D01*
X163999502Y-87454180D01*
X164035812Y-87334482D01*
X164048072Y-87210000D01*
X164048072Y-85510000D01*
X164035812Y-85385518D01*
X163999502Y-85265820D01*
X163940537Y-85155506D01*
X163861185Y-85058815D01*
X163764494Y-84979463D01*
X163654180Y-84920498D01*
X163573534Y-84896034D01*
X163657588Y-84820269D01*
X163831641Y-84586920D01*
X163956825Y-84324099D01*
X164001476Y-84176890D01*
X163880155Y-83947000D01*
X162687000Y-83947000D01*
X162687000Y-83967000D01*
X162433000Y-83967000D01*
X162433000Y-83947000D01*
X161239845Y-83947000D01*
X161118524Y-84176890D01*
X161163175Y-84324099D01*
X161288359Y-84586920D01*
X161462412Y-84820269D01*
X161546466Y-84896034D01*
X161465820Y-84920498D01*
X161355506Y-84979463D01*
X161258815Y-85058815D01*
X161179463Y-85155506D01*
X161120498Y-85265820D01*
X161084188Y-85385518D01*
X161071928Y-85510000D01*
X161071928Y-86819259D01*
X157715779Y-83463110D01*
X161118524Y-83463110D01*
X161239845Y-83693000D01*
X162433000Y-83693000D01*
X162433000Y-82499186D01*
X162687000Y-82499186D01*
X162687000Y-83693000D01*
X163880155Y-83693000D01*
X164001476Y-83463110D01*
X163956825Y-83315901D01*
X163831641Y-83053080D01*
X163657588Y-82819731D01*
X163441355Y-82624822D01*
X163191252Y-82475843D01*
X162916891Y-82378519D01*
X162687000Y-82499186D01*
X162433000Y-82499186D01*
X162203109Y-82378519D01*
X161928748Y-82475843D01*
X161678645Y-82624822D01*
X161462412Y-82819731D01*
X161288359Y-83053080D01*
X161163175Y-83315901D01*
X161118524Y-83463110D01*
X157715779Y-83463110D01*
X152712200Y-78459531D01*
X152712200Y-77417438D01*
X155392850Y-77417438D01*
X155618418Y-78223605D01*
X156024781Y-79036671D01*
X156581958Y-79754837D01*
X157268536Y-80350504D01*
X158058130Y-80800781D01*
X158920397Y-81088363D01*
X159822200Y-81202200D01*
X161822200Y-81202200D01*
X161822200Y-76694200D01*
X155474752Y-76694200D01*
X155392850Y-77417438D01*
X152712200Y-77417438D01*
X152712200Y-75716962D01*
X155392850Y-75716962D01*
X155474752Y-76440200D01*
X161822200Y-76440200D01*
X161822200Y-71932200D01*
X159822200Y-71932200D01*
X158920397Y-72046037D01*
X158058130Y-72333619D01*
X157268536Y-72783896D01*
X156581958Y-73379563D01*
X156024781Y-74097729D01*
X155618418Y-74910795D01*
X155392850Y-75716962D01*
X152712200Y-75716962D01*
X152712200Y-67452033D01*
X157727572Y-67452033D01*
X158045757Y-67905850D01*
X158650210Y-68231269D01*
X159306535Y-68432512D01*
X159989510Y-68501845D01*
X160672888Y-68436605D01*
X161330407Y-68239298D01*
X161936799Y-67917506D01*
X161954243Y-67905850D01*
X162272428Y-67452033D01*
X160000000Y-65179605D01*
X157727572Y-67452033D01*
X152712200Y-67452033D01*
X152712200Y-67030959D01*
X152890256Y-66957205D01*
X153059774Y-66843937D01*
X153203937Y-66699774D01*
X153317205Y-66530256D01*
X153395226Y-66341898D01*
X153435000Y-66141939D01*
X153435000Y-65938061D01*
X153395226Y-65738102D01*
X153317205Y-65549744D01*
X153220490Y-65405000D01*
X153317205Y-65260256D01*
X153395226Y-65071898D01*
X153411613Y-64989510D01*
X156498155Y-64989510D01*
X156563395Y-65672888D01*
X156760702Y-66330407D01*
X157082494Y-66936799D01*
X157094150Y-66954243D01*
X157547967Y-67272428D01*
X159820395Y-65000000D01*
X157547967Y-62727572D01*
X157094150Y-63045757D01*
X156768731Y-63650210D01*
X156567488Y-64306535D01*
X156498155Y-64989510D01*
X153411613Y-64989510D01*
X153435000Y-64871939D01*
X153435000Y-64668061D01*
X153401961Y-64501961D01*
X153568061Y-64535000D01*
X153771939Y-64535000D01*
X153971898Y-64495226D01*
X154160256Y-64417205D01*
X154329774Y-64303937D01*
X154473937Y-64159774D01*
X154587205Y-63990256D01*
X154665226Y-63801898D01*
X154705000Y-63601939D01*
X154705000Y-63398061D01*
X154665226Y-63198102D01*
X154587205Y-63009744D01*
X154473937Y-62840226D01*
X154329774Y-62696063D01*
X154160256Y-62582795D01*
X153971898Y-62504774D01*
X153771939Y-62465000D01*
X153568061Y-62465000D01*
X153401961Y-62498039D01*
X153435000Y-62331939D01*
X153435000Y-62128061D01*
X153395226Y-61928102D01*
X153317205Y-61739744D01*
X153203937Y-61570226D01*
X153059774Y-61426063D01*
X152890256Y-61312795D01*
X152712200Y-61239041D01*
X152712200Y-60660000D01*
X159970608Y-60660000D01*
X160595063Y-60715731D01*
%TA.AperFunction,Conductor*%
D23*
G36*
X160595063Y-60715731D02*
G01*
X161922204Y-62076901D01*
X161349790Y-61768731D01*
X160693465Y-61567488D01*
X160010490Y-61498155D01*
X159327112Y-61563395D01*
X158669593Y-61760702D01*
X158063201Y-62082494D01*
X158045757Y-62094150D01*
X157727572Y-62547967D01*
X160000000Y-64820395D01*
X160014143Y-64806253D01*
X160193748Y-64985858D01*
X160179605Y-65000000D01*
X162452033Y-67272428D01*
X162905850Y-66954243D01*
X163231269Y-66349790D01*
X163432512Y-65693465D01*
X163501845Y-65010490D01*
X163436605Y-64327112D01*
X163239298Y-63669593D01*
X162957706Y-63138954D01*
X164302871Y-64518611D01*
X164340000Y-65024207D01*
X164340000Y-71965500D01*
X164076200Y-71932200D01*
X162076200Y-71932200D01*
X162076200Y-76440200D01*
X162096200Y-76440200D01*
X162096200Y-76694200D01*
X162076200Y-76694200D01*
X162076200Y-81202200D01*
X164076200Y-81202200D01*
X164340000Y-81168900D01*
X164340001Y-88458264D01*
X164176895Y-88442200D01*
X162694870Y-88442200D01*
X162100742Y-87848072D01*
X163410000Y-87848072D01*
X163534482Y-87835812D01*
X163654180Y-87799502D01*
X163764494Y-87740537D01*
X163861185Y-87661185D01*
X163940537Y-87564494D01*
X163999502Y-87454180D01*
X164035812Y-87334482D01*
X164048072Y-87210000D01*
X164048072Y-85510000D01*
X164035812Y-85385518D01*
X163999502Y-85265820D01*
X163940537Y-85155506D01*
X163861185Y-85058815D01*
X163764494Y-84979463D01*
X163654180Y-84920498D01*
X163573534Y-84896034D01*
X163657588Y-84820269D01*
X163831641Y-84586920D01*
X163956825Y-84324099D01*
X164001476Y-84176890D01*
X163880155Y-83947000D01*
X162687000Y-83947000D01*
X162687000Y-83967000D01*
X162433000Y-83967000D01*
X162433000Y-83947000D01*
X161239845Y-83947000D01*
X161118524Y-84176890D01*
X161163175Y-84324099D01*
X161288359Y-84586920D01*
X161462412Y-84820269D01*
X161546466Y-84896034D01*
X161465820Y-84920498D01*
X161355506Y-84979463D01*
X161258815Y-85058815D01*
X161179463Y-85155506D01*
X161120498Y-85265820D01*
X161084188Y-85385518D01*
X161071928Y-85510000D01*
X161071928Y-86819259D01*
X157715779Y-83463110D01*
X161118524Y-83463110D01*
X161239845Y-83693000D01*
X162433000Y-83693000D01*
X162433000Y-82499186D01*
X162687000Y-82499186D01*
X162687000Y-83693000D01*
X163880155Y-83693000D01*
X164001476Y-83463110D01*
X163956825Y-83315901D01*
X163831641Y-83053080D01*
X163657588Y-82819731D01*
X163441355Y-82624822D01*
X163191252Y-82475843D01*
X162916891Y-82378519D01*
X162687000Y-82499186D01*
X162433000Y-82499186D01*
X162203109Y-82378519D01*
X161928748Y-82475843D01*
X161678645Y-82624822D01*
X161462412Y-82819731D01*
X161288359Y-83053080D01*
X161163175Y-83315901D01*
X161118524Y-83463110D01*
X157715779Y-83463110D01*
X152712200Y-78459531D01*
X152712200Y-77417438D01*
X155392850Y-77417438D01*
X155618418Y-78223605D01*
X156024781Y-79036671D01*
X156581958Y-79754837D01*
X157268536Y-80350504D01*
X158058130Y-80800781D01*
X158920397Y-81088363D01*
X159822200Y-81202200D01*
X161822200Y-81202200D01*
X161822200Y-76694200D01*
X155474752Y-76694200D01*
X155392850Y-77417438D01*
X152712200Y-77417438D01*
X152712200Y-75716962D01*
X155392850Y-75716962D01*
X155474752Y-76440200D01*
X161822200Y-76440200D01*
X161822200Y-71932200D01*
X159822200Y-71932200D01*
X158920397Y-72046037D01*
X158058130Y-72333619D01*
X157268536Y-72783896D01*
X156581958Y-73379563D01*
X156024781Y-74097729D01*
X155618418Y-74910795D01*
X155392850Y-75716962D01*
X152712200Y-75716962D01*
X152712200Y-67452033D01*
X157727572Y-67452033D01*
X158045757Y-67905850D01*
X158650210Y-68231269D01*
X159306535Y-68432512D01*
X159989510Y-68501845D01*
X160672888Y-68436605D01*
X161330407Y-68239298D01*
X161936799Y-67917506D01*
X161954243Y-67905850D01*
X162272428Y-67452033D01*
X160000000Y-65179605D01*
X157727572Y-67452033D01*
X152712200Y-67452033D01*
X152712200Y-67030959D01*
X152890256Y-66957205D01*
X153059774Y-66843937D01*
X153203937Y-66699774D01*
X153317205Y-66530256D01*
X153395226Y-66341898D01*
X153435000Y-66141939D01*
X153435000Y-65938061D01*
X153395226Y-65738102D01*
X153317205Y-65549744D01*
X153220490Y-65405000D01*
X153317205Y-65260256D01*
X153395226Y-65071898D01*
X153411613Y-64989510D01*
X156498155Y-64989510D01*
X156563395Y-65672888D01*
X156760702Y-66330407D01*
X157082494Y-66936799D01*
X157094150Y-66954243D01*
X157547967Y-67272428D01*
X159820395Y-65000000D01*
X157547967Y-62727572D01*
X157094150Y-63045757D01*
X156768731Y-63650210D01*
X156567488Y-64306535D01*
X156498155Y-64989510D01*
X153411613Y-64989510D01*
X153435000Y-64871939D01*
X153435000Y-64668061D01*
X153401961Y-64501961D01*
X153568061Y-64535000D01*
X153771939Y-64535000D01*
X153971898Y-64495226D01*
X154160256Y-64417205D01*
X154329774Y-64303937D01*
X154473937Y-64159774D01*
X154587205Y-63990256D01*
X154665226Y-63801898D01*
X154705000Y-63601939D01*
X154705000Y-63398061D01*
X154665226Y-63198102D01*
X154587205Y-63009744D01*
X154473937Y-62840226D01*
X154329774Y-62696063D01*
X154160256Y-62582795D01*
X153971898Y-62504774D01*
X153771939Y-62465000D01*
X153568061Y-62465000D01*
X153401961Y-62498039D01*
X153435000Y-62331939D01*
X153435000Y-62128061D01*
X153395226Y-61928102D01*
X153317205Y-61739744D01*
X153203937Y-61570226D01*
X153059774Y-61426063D01*
X152890256Y-61312795D01*
X152712200Y-61239041D01*
X152712200Y-60660000D01*
X159970608Y-60660000D01*
X160595063Y-60715731D01*
G37*
%TD.AperFunction*%
%TD*%
M02*
