M48
; DRILL file {KiCad (5.1.8-0-10_14)} date Wednesday, February 24, 2021 at 01:50:57 AM
; FORMAT={-:-/ absolute / metric / decimal}
; #@! TF.CreationDate,2021-02-24T01:50:57+08:00
; #@! TF.GenerationSoftware,Kicad,Pcbnew,(5.1.8-0-10_14)
; #@! TF.FileFunction,Plated,1,2,PTH
FMAT,2
METRIC
T1C0.300
T2C0.400
T3C1.000
T4C3.200
%
G90
G05
T1
X145.52Y-91.348
X145.52Y-92.548
X146.72Y-91.348
X146.72Y-92.548
X148.02Y-91.348
X148.02Y-92.548
X149.12Y-91.348
X149.12Y-92.548
T2
X116.84Y-73.66
X116.84Y-74.93
X116.84Y-76.2
X116.84Y-77.47
X116.84Y-78.74
X116.84Y-80.01
X116.84Y-90.17
X116.84Y-91.44
X116.84Y-92.71
X116.84Y-93.98
X116.84Y-93.98
X116.84Y-95.25
X116.84Y-96.52
X117.094Y-70.104
X118.11Y-73.66
X118.11Y-74.93
X118.11Y-76.2
X118.11Y-77.47
X118.11Y-78.74
X118.11Y-80.01
X118.11Y-90.17
X118.11Y-91.44
X118.11Y-92.71
X118.11Y-93.98
X118.11Y-95.25
X118.11Y-96.52
X118.237Y-70.104
X119.38Y-70.104
X119.38Y-73.66
X119.38Y-74.93
X119.38Y-76.2
X119.38Y-77.47
X119.38Y-78.74
X119.38Y-80.01
X119.38Y-90.17
X119.38Y-91.44
X119.38Y-92.71
X119.38Y-93.98
X119.38Y-95.25
X119.38Y-96.52
X120.142Y-84.328
X120.65Y-70.104
X120.65Y-73.66
X120.65Y-74.93
X120.65Y-76.2
X120.65Y-77.47
X120.65Y-78.74
X120.65Y-80.01
X120.65Y-90.17
X120.65Y-91.44
X120.65Y-92.71
X120.65Y-93.98
X120.65Y-95.25
X121.793Y-70.104
X121.92Y-74.93
X121.92Y-76.2
X121.92Y-77.47
X121.92Y-78.74
X121.92Y-91.44
X121.92Y-92.71
X121.92Y-93.98
X122.936Y-70.104
X125.349Y-89.535
X126.111Y-90.297
X126.746Y-90.932
X127.381Y-91.567
X128.143Y-87.249
X128.27Y-62.23
X128.27Y-63.5
X128.27Y-64.77
X128.27Y-104.14
X128.27Y-105.41
X128.27Y-106.68
X128.27Y-107.95
X129.54Y-62.23
X129.54Y-63.5
X129.54Y-64.77
X129.54Y-66.04
X129.54Y-102.87
X129.54Y-104.14
X129.54Y-105.41
X129.54Y-106.68
X129.54Y-107.95
X130.81Y-62.23
X130.81Y-62.23
X130.81Y-63.5
X130.81Y-64.77
X130.81Y-66.04
X130.81Y-67.31
X130.81Y-79.502
X130.81Y-102.87
X130.81Y-104.14
X130.81Y-105.41
X130.81Y-106.68
X130.81Y-107.95
X131.431Y-84.977
X132.08Y-62.23
X132.08Y-63.5
X132.08Y-64.77
X132.08Y-66.04
X132.08Y-67.31
X132.08Y-102.87
X132.08Y-104.14
X132.08Y-105.41
X132.08Y-106.68
X132.08Y-107.95
X133.35Y-62.23
X133.35Y-63.5
X133.35Y-64.77
X133.35Y-66.04
X133.35Y-67.31
X133.35Y-102.87
X133.35Y-104.14
X133.35Y-105.41
X133.35Y-106.68
X133.35Y-107.95
X134.62Y-62.23
X134.62Y-63.5
X134.62Y-64.77
X134.62Y-104.14
X134.62Y-105.41
X134.62Y-106.68
X134.62Y-107.95
X138.863Y-78.792
X138.863Y-80.459
X138.869Y-101.668
X139.446Y-100.965
X139.886Y-101.668
X140.652Y-77.406
X140.911Y-101.668
X141.986Y-82.423
X141.986Y-83.566
X141.986Y-84.582
X142.621Y-65.532
X144.526Y-70.231
X144.78Y-62.23
X144.78Y-63.5
X144.78Y-64.77
X144.78Y-104.14
X144.78Y-105.41
X144.78Y-106.68
X144.78Y-107.95
X145.415Y-70.231
X146.05Y-62.23
X146.05Y-63.5
X146.05Y-64.77
X146.05Y-66.04
X146.05Y-102.87
X146.05Y-104.14
X146.05Y-105.41
X146.05Y-106.68
X146.05Y-106.68
X146.05Y-107.95
X146.431Y-70.231
X146.712Y-80.925
X146.712Y-83.158
X146.712Y-84.428
X147.32Y-62.23
X147.32Y-63.5
X147.32Y-64.77
X147.32Y-66.04
X147.32Y-67.31
X147.32Y-102.87
X147.32Y-104.14
X147.32Y-105.41
X147.32Y-106.68
X147.32Y-107.95
X147.447Y-81.915
X148.59Y-62.23
X148.59Y-63.5
X148.59Y-64.77
X148.59Y-66.04
X148.59Y-67.31
X148.59Y-102.87
X148.59Y-102.87
X148.59Y-104.14
X148.59Y-105.41
X148.59Y-106.68
X148.59Y-107.95
X148.844Y-81.915
X149.86Y-62.23
X149.86Y-63.5
X149.86Y-64.77
X149.86Y-66.04
X149.86Y-67.31
X149.86Y-102.87
X149.86Y-104.14
X149.86Y-105.41
X149.86Y-106.68
X149.86Y-107.95
X151.13Y-62.23
X151.13Y-63.5
X151.13Y-64.77
X151.13Y-66.04
X151.13Y-67.31
X151.13Y-104.14
X151.13Y-105.41
X151.13Y-106.68
X151.13Y-107.95
X152.4Y-62.23
X152.4Y-63.5
X152.4Y-64.77
X152.4Y-66.04
X153.67Y-63.5
X153.874Y-86.156
X154.763Y-86.156
X155.779Y-86.156
X156.922Y-86.156
X157.48Y-73.66
X157.48Y-74.93
X157.48Y-76.2
X157.48Y-91.44
X157.48Y-92.71
X157.48Y-93.98
X157.48Y-95.25
X158.496Y-86.106
X158.75Y-73.66
X158.75Y-74.93
X158.75Y-76.2
X158.75Y-77.47
X158.75Y-90.17
X158.75Y-91.44
X158.75Y-92.71
X158.75Y-93.98
X158.75Y-95.25
X158.75Y-96.52
X160.02Y-72.39
X160.02Y-73.66
X160.02Y-74.93
X160.02Y-76.2
X160.02Y-77.47
X160.02Y-78.74
X160.02Y-90.17
X160.02Y-91.44
X160.02Y-92.71
X160.02Y-93.98
X160.02Y-95.25
X160.02Y-96.52
X161.29Y-71.12
X161.29Y-72.39
X161.29Y-73.66
X161.29Y-74.93
X161.29Y-76.2
X161.29Y-77.47
X161.29Y-78.74
X161.29Y-90.17
X161.29Y-91.44
X161.29Y-92.71
X161.29Y-93.98
X161.29Y-95.25
X161.29Y-96.52
X162.56Y-69.85
X162.56Y-71.12
X162.56Y-72.39
X162.56Y-73.66
X162.56Y-74.93
X162.56Y-76.2
X162.56Y-77.47
X162.56Y-78.74
X162.56Y-90.17
X162.56Y-91.44
X162.56Y-92.71
X162.56Y-93.98
X162.56Y-95.25
X162.56Y-96.52
T3
X134.874Y-70.993
X137.414Y-70.993
X139.954Y-70.993
X142.494Y-70.993
X125.73Y-70.104
X125.73Y-72.644
X125.73Y-75.184
X125.73Y-77.724
X125.73Y-80.264
X128.27Y-70.104
X128.27Y-72.644
X128.27Y-75.184
X128.27Y-77.724
X128.27Y-80.264
X117.475Y-83.82
X117.475Y-86.36
X138.532Y-107.95
X141.072Y-107.95
X162.56Y-83.82
X162.56Y-86.36
X138.43Y-62.23
X140.97Y-62.23
T4
X120.0Y-105.0
X160.0Y-65.0
X160.0Y-105.0
X120.0Y-65.0
T0
M30
