%TF.GenerationSoftware,KiCad,Pcbnew,(5.1.8-0-10_14)*%
%TF.CreationDate,2021-02-24T01:50:54+08:00*%
%TF.ProjectId,batt_board,62617474-5f62-46f6-9172-642e6b696361,v0.2*%
%TF.SameCoordinates,Original*%
%TF.FileFunction,Legend,Top*%
%TF.FilePolarity,Positive*%
%FSLAX46Y46*%
G04 Gerber Fmt 4.6, Leading zero omitted, Abs format (unit mm)*
G04 Created by KiCad (PCBNEW (5.1.8-0-10_14)) date 2021-02-24 01:50:54*
%MOMM*%
%LPD*%
G01*
G04 APERTURE LIST*
%ADD10C,0.150000*%
%ADD11C,0.300000*%
%ADD12C,0.010000*%
%ADD13C,0.120000*%
G04 APERTURE END LIST*
D10*
X144606380Y-101036380D02*
X144606380Y-100036380D01*
X144844476Y-100036380D01*
X144987333Y-100084000D01*
X145082571Y-100179238D01*
X145130190Y-100274476D01*
X145177809Y-100464952D01*
X145177809Y-100607809D01*
X145130190Y-100798285D01*
X145082571Y-100893523D01*
X144987333Y-100988761D01*
X144844476Y-101036380D01*
X144606380Y-101036380D01*
X145987333Y-100988761D02*
X145892095Y-101036380D01*
X145701619Y-101036380D01*
X145606380Y-100988761D01*
X145558761Y-100893523D01*
X145558761Y-100512571D01*
X145606380Y-100417333D01*
X145701619Y-100369714D01*
X145892095Y-100369714D01*
X145987333Y-100417333D01*
X146034952Y-100512571D01*
X146034952Y-100607809D01*
X145558761Y-100703047D01*
X146415904Y-100988761D02*
X146511142Y-101036380D01*
X146701619Y-101036380D01*
X146796857Y-100988761D01*
X146844476Y-100893523D01*
X146844476Y-100845904D01*
X146796857Y-100750666D01*
X146701619Y-100703047D01*
X146558761Y-100703047D01*
X146463523Y-100655428D01*
X146415904Y-100560190D01*
X146415904Y-100512571D01*
X146463523Y-100417333D01*
X146558761Y-100369714D01*
X146701619Y-100369714D01*
X146796857Y-100417333D01*
X147273047Y-101036380D02*
X147273047Y-100369714D01*
X147273047Y-100036380D02*
X147225428Y-100084000D01*
X147273047Y-100131619D01*
X147320666Y-100084000D01*
X147273047Y-100036380D01*
X147273047Y-100131619D01*
X148177809Y-100369714D02*
X148177809Y-101179238D01*
X148130190Y-101274476D01*
X148082571Y-101322095D01*
X147987333Y-101369714D01*
X147844476Y-101369714D01*
X147749238Y-101322095D01*
X148177809Y-100988761D02*
X148082571Y-101036380D01*
X147892095Y-101036380D01*
X147796857Y-100988761D01*
X147749238Y-100941142D01*
X147701619Y-100845904D01*
X147701619Y-100560190D01*
X147749238Y-100464952D01*
X147796857Y-100417333D01*
X147892095Y-100369714D01*
X148082571Y-100369714D01*
X148177809Y-100417333D01*
X148654000Y-100369714D02*
X148654000Y-101036380D01*
X148654000Y-100464952D02*
X148701619Y-100417333D01*
X148796857Y-100369714D01*
X148939714Y-100369714D01*
X149034952Y-100417333D01*
X149082571Y-100512571D01*
X149082571Y-101036380D01*
X149939714Y-100988761D02*
X149844476Y-101036380D01*
X149654000Y-101036380D01*
X149558761Y-100988761D01*
X149511142Y-100893523D01*
X149511142Y-100512571D01*
X149558761Y-100417333D01*
X149654000Y-100369714D01*
X149844476Y-100369714D01*
X149939714Y-100417333D01*
X149987333Y-100512571D01*
X149987333Y-100607809D01*
X149511142Y-100703047D01*
X150844476Y-101036380D02*
X150844476Y-100036380D01*
X150844476Y-100988761D02*
X150749238Y-101036380D01*
X150558761Y-101036380D01*
X150463523Y-100988761D01*
X150415904Y-100941142D01*
X150368285Y-100845904D01*
X150368285Y-100560190D01*
X150415904Y-100464952D01*
X150463523Y-100417333D01*
X150558761Y-100369714D01*
X150749238Y-100369714D01*
X150844476Y-100417333D01*
X152082571Y-101036380D02*
X152082571Y-100036380D01*
X152082571Y-100417333D02*
X152177809Y-100369714D01*
X152368285Y-100369714D01*
X152463523Y-100417333D01*
X152511142Y-100464952D01*
X152558761Y-100560190D01*
X152558761Y-100845904D01*
X152511142Y-100941142D01*
X152463523Y-100988761D01*
X152368285Y-101036380D01*
X152177809Y-101036380D01*
X152082571Y-100988761D01*
X152892095Y-100369714D02*
X153130190Y-101036380D01*
X153368285Y-100369714D02*
X153130190Y-101036380D01*
X153034952Y-101274476D01*
X152987333Y-101322095D01*
X152892095Y-101369714D01*
X154511142Y-101036380D02*
X154511142Y-100036380D01*
X154844476Y-100750666D01*
X155177809Y-100036380D01*
X155177809Y-101036380D01*
X155796857Y-101036380D02*
X155701619Y-100988761D01*
X155654000Y-100941142D01*
X155606380Y-100845904D01*
X155606380Y-100560190D01*
X155654000Y-100464952D01*
X155701619Y-100417333D01*
X155796857Y-100369714D01*
X155939714Y-100369714D01*
X156034952Y-100417333D01*
X156082571Y-100464952D01*
X156130190Y-100560190D01*
X156130190Y-100845904D01*
X156082571Y-100941142D01*
X156034952Y-100988761D01*
X155939714Y-101036380D01*
X155796857Y-101036380D01*
X156558761Y-101036380D02*
X156558761Y-100369714D01*
X156558761Y-100560190D02*
X156606380Y-100464952D01*
X156654000Y-100417333D01*
X156749238Y-100369714D01*
X156844476Y-100369714D01*
X157034952Y-100369714D02*
X157415904Y-100369714D01*
X157177809Y-100036380D02*
X157177809Y-100893523D01*
X157225428Y-100988761D01*
X157320666Y-101036380D01*
X157415904Y-101036380D01*
X157654000Y-100369714D02*
X157892095Y-101036380D01*
X158130190Y-100369714D02*
X157892095Y-101036380D01*
X157796857Y-101274476D01*
X157749238Y-101322095D01*
X157654000Y-101369714D01*
X158511142Y-100941142D02*
X158558761Y-100988761D01*
X158511142Y-101036380D01*
X158463523Y-100988761D01*
X158511142Y-100941142D01*
X158511142Y-101036380D01*
X159463523Y-101036380D02*
X158987333Y-101036380D01*
X158987333Y-100036380D01*
X159796857Y-101036380D02*
X159796857Y-100369714D01*
X159796857Y-100036380D02*
X159749238Y-100084000D01*
X159796857Y-100131619D01*
X159844476Y-100084000D01*
X159796857Y-100036380D01*
X159796857Y-100131619D01*
X160701619Y-100369714D02*
X160701619Y-101036380D01*
X160273047Y-100369714D02*
X160273047Y-100893523D01*
X160320666Y-100988761D01*
X160415904Y-101036380D01*
X160558761Y-101036380D01*
X160654000Y-100988761D01*
X160701619Y-100941142D01*
X152035142Y-98083714D02*
X152273238Y-98750380D01*
X152511333Y-98083714D01*
X153082761Y-97750380D02*
X153178000Y-97750380D01*
X153273238Y-97798000D01*
X153320857Y-97845619D01*
X153368476Y-97940857D01*
X153416095Y-98131333D01*
X153416095Y-98369428D01*
X153368476Y-98559904D01*
X153320857Y-98655142D01*
X153273238Y-98702761D01*
X153178000Y-98750380D01*
X153082761Y-98750380D01*
X152987523Y-98702761D01*
X152939904Y-98655142D01*
X152892285Y-98559904D01*
X152844666Y-98369428D01*
X152844666Y-98131333D01*
X152892285Y-97940857D01*
X152939904Y-97845619D01*
X152987523Y-97798000D01*
X153082761Y-97750380D01*
X153844666Y-98655142D02*
X153892285Y-98702761D01*
X153844666Y-98750380D01*
X153797047Y-98702761D01*
X153844666Y-98655142D01*
X153844666Y-98750380D01*
X154844666Y-98750380D02*
X154273238Y-98750380D01*
X154558952Y-98750380D02*
X154558952Y-97750380D01*
X154463714Y-97893238D01*
X154368476Y-97988476D01*
X154273238Y-98036095D01*
X155273238Y-98655142D02*
X155320857Y-98702761D01*
X155273238Y-98750380D01*
X155225619Y-98702761D01*
X155273238Y-98655142D01*
X155273238Y-98750380D01*
X155701809Y-97845619D02*
X155749428Y-97798000D01*
X155844666Y-97750380D01*
X156082761Y-97750380D01*
X156178000Y-97798000D01*
X156225619Y-97845619D01*
X156273238Y-97940857D01*
X156273238Y-98036095D01*
X156225619Y-98178952D01*
X155654190Y-98750380D01*
X156273238Y-98750380D01*
D11*
X151193571Y-68687142D02*
X152336428Y-68687142D01*
X151765000Y-69258571D02*
X151765000Y-68115714D01*
X179260571Y-31476142D02*
X180403428Y-31476142D01*
X179832000Y-32047571D02*
X179832000Y-30904714D01*
D12*
%TO.C,G\u002A\u002A\u002A*%
G36*
X130192042Y-91542678D02*
G01*
X130234060Y-91579050D01*
X130258102Y-91617043D01*
X130268036Y-91656437D01*
X130262472Y-91702186D01*
X130240023Y-91759247D01*
X130199299Y-91832575D01*
X130138913Y-91927126D01*
X130134789Y-91933349D01*
X130078333Y-92018966D01*
X130010474Y-92122734D01*
X129937994Y-92234233D01*
X129867676Y-92343044D01*
X129833171Y-92396733D01*
X129776037Y-92485808D01*
X129705431Y-92595821D01*
X129626197Y-92719226D01*
X129543183Y-92848477D01*
X129461234Y-92976027D01*
X129407726Y-93059283D01*
X129150554Y-93459366D01*
X129192873Y-93555056D01*
X129234034Y-93677381D01*
X129262664Y-93826120D01*
X129279078Y-93996352D01*
X129283591Y-94183155D01*
X129276517Y-94381609D01*
X129258170Y-94586791D01*
X129228867Y-94793779D01*
X129188921Y-94997654D01*
X129138646Y-95193492D01*
X129078359Y-95376372D01*
X129076012Y-95382635D01*
X128979134Y-95604204D01*
X128866420Y-95795897D01*
X128737621Y-95957906D01*
X128592483Y-96090424D01*
X128430756Y-96193644D01*
X128252187Y-96267758D01*
X128056525Y-96312958D01*
X127843519Y-96329437D01*
X127838200Y-96329481D01*
X127745079Y-96329180D01*
X127675144Y-96325876D01*
X127617753Y-96318165D01*
X127562265Y-96304641D01*
X127501141Y-96284965D01*
X127438470Y-96265462D01*
X127388226Y-96253514D01*
X127358659Y-96250950D01*
X127354786Y-96252538D01*
X127342860Y-96269579D01*
X127314890Y-96311600D01*
X127273163Y-96375103D01*
X127219963Y-96456592D01*
X127157578Y-96552568D01*
X127088294Y-96659535D01*
X127047160Y-96723200D01*
X126957142Y-96862622D01*
X126854725Y-97021198D01*
X126745907Y-97189643D01*
X126636685Y-97358677D01*
X126533055Y-97519017D01*
X126445113Y-97655044D01*
X126371412Y-97769323D01*
X126303481Y-97875238D01*
X126243553Y-97969259D01*
X126193862Y-98047858D01*
X126156643Y-98107506D01*
X126134130Y-98144676D01*
X126128368Y-98155294D01*
X126130429Y-98174618D01*
X126138701Y-98224158D01*
X126152594Y-98300970D01*
X126171519Y-98402106D01*
X126194887Y-98524621D01*
X126222108Y-98665568D01*
X126252594Y-98822000D01*
X126285756Y-98990973D01*
X126321003Y-99169539D01*
X126357748Y-99354753D01*
X126395400Y-99543667D01*
X126433370Y-99733337D01*
X126471070Y-99920815D01*
X126507909Y-100103156D01*
X126543300Y-100277413D01*
X126576652Y-100440640D01*
X126607376Y-100589890D01*
X126634884Y-100722219D01*
X126658585Y-100834678D01*
X126677891Y-100924323D01*
X126692213Y-100988207D01*
X126700961Y-101023383D01*
X126703157Y-101029402D01*
X126720705Y-101026277D01*
X126761290Y-101012129D01*
X126817240Y-100990208D01*
X126880881Y-100963762D01*
X126944538Y-100936041D01*
X127000537Y-100910296D01*
X127041206Y-100889776D01*
X127057490Y-100879356D01*
X127062930Y-100860879D01*
X127074069Y-100811650D01*
X127090404Y-100734212D01*
X127111433Y-100631105D01*
X127136652Y-100504873D01*
X127165558Y-100358058D01*
X127197650Y-100193202D01*
X127232424Y-100012846D01*
X127269377Y-99819533D01*
X127290572Y-99707752D01*
X127871042Y-99707752D01*
X127871482Y-99708526D01*
X127899999Y-99719639D01*
X127955127Y-99727253D01*
X128029788Y-99731337D01*
X128116904Y-99731861D01*
X128209397Y-99728795D01*
X128300189Y-99722109D01*
X128382202Y-99711772D01*
X128388533Y-99710726D01*
X128511675Y-99676291D01*
X128630130Y-99618230D01*
X128732280Y-99542772D01*
X128767236Y-99507711D01*
X128830603Y-99424670D01*
X128870997Y-99338250D01*
X128891147Y-99239709D01*
X128893785Y-99120304D01*
X128893081Y-99104697D01*
X128879219Y-98982951D01*
X128849221Y-98887075D01*
X128799716Y-98811565D01*
X128727331Y-98750921D01*
X128650789Y-98709460D01*
X128613414Y-98693743D01*
X128576424Y-98682892D01*
X128532477Y-98676028D01*
X128474235Y-98672272D01*
X128394356Y-98670746D01*
X128325629Y-98670533D01*
X128225439Y-98671243D01*
X128153959Y-98673701D01*
X128106058Y-98678399D01*
X128076601Y-98685830D01*
X128060968Y-98695933D01*
X128052716Y-98717534D01*
X128039957Y-98766933D01*
X128023630Y-98839105D01*
X128004676Y-98929023D01*
X127984036Y-99031664D01*
X127962649Y-99142002D01*
X127941457Y-99255011D01*
X127921399Y-99365667D01*
X127903416Y-99468943D01*
X127888449Y-99559815D01*
X127877437Y-99633258D01*
X127871321Y-99684245D01*
X127871042Y-99707752D01*
X127290572Y-99707752D01*
X127308007Y-99615805D01*
X127320646Y-99548797D01*
X127568646Y-98232334D01*
X127614436Y-98220088D01*
X127645727Y-98215023D01*
X127704438Y-98208491D01*
X127784188Y-98201090D01*
X127878594Y-98193416D01*
X127969717Y-98186845D01*
X128240357Y-98176942D01*
X128483265Y-98185982D01*
X128698912Y-98214151D01*
X128887764Y-98261636D01*
X129050291Y-98328623D01*
X129186959Y-98415299D01*
X129298236Y-98521850D01*
X129384592Y-98648463D01*
X129438797Y-98772133D01*
X129465557Y-98878553D01*
X129481342Y-99004604D01*
X129485555Y-99137680D01*
X129477598Y-99265173D01*
X129465674Y-99338804D01*
X129411067Y-99517598D01*
X129327731Y-99678871D01*
X129216600Y-99821452D01*
X129078603Y-99944168D01*
X128914675Y-100045846D01*
X128896533Y-100054989D01*
X128758163Y-100116653D01*
X128624387Y-100160873D01*
X128485520Y-100189758D01*
X128331874Y-100205417D01*
X128185333Y-100209888D01*
X128089383Y-100209874D01*
X127998035Y-100208731D01*
X127920286Y-100206649D01*
X127865128Y-100203814D01*
X127855819Y-100203000D01*
X127771839Y-100194533D01*
X127742049Y-100355400D01*
X127728083Y-100429584D01*
X127715418Y-100494654D01*
X127705949Y-100540982D01*
X127702941Y-100554367D01*
X127701643Y-100583583D01*
X127709870Y-100592467D01*
X127727134Y-100585894D01*
X127772288Y-100567084D01*
X127842208Y-100537396D01*
X127933766Y-100498191D01*
X128043837Y-100450830D01*
X128169296Y-100396672D01*
X128307015Y-100337079D01*
X128453869Y-100273410D01*
X128606732Y-100207027D01*
X128762478Y-100139289D01*
X128917981Y-100071556D01*
X129070115Y-100005191D01*
X129215754Y-99941552D01*
X129351773Y-99882000D01*
X129475044Y-99827896D01*
X129582443Y-99780600D01*
X129670843Y-99741473D01*
X129737119Y-99711874D01*
X129778143Y-99693165D01*
X129790847Y-99686821D01*
X129794911Y-99669576D01*
X129804323Y-99622500D01*
X129818426Y-99549089D01*
X129836561Y-99452843D01*
X129847305Y-99395111D01*
X130407186Y-99395111D01*
X130407636Y-99401984D01*
X130413231Y-99405264D01*
X130426550Y-99403935D01*
X130450175Y-99396981D01*
X130486686Y-99383386D01*
X130538664Y-99362134D01*
X130608688Y-99332207D01*
X130699339Y-99292591D01*
X130813198Y-99242269D01*
X130952844Y-99180224D01*
X131120802Y-99105467D01*
X131423137Y-98970879D01*
X131363703Y-98905373D01*
X131277793Y-98829281D01*
X131169386Y-98761664D01*
X131049796Y-98709119D01*
X131000237Y-98693485D01*
X130929264Y-98678452D01*
X130846629Y-98668075D01*
X130760604Y-98662545D01*
X130679464Y-98662051D01*
X130611481Y-98666783D01*
X130564931Y-98676930D01*
X130553279Y-98683233D01*
X130539692Y-98708746D01*
X130523235Y-98765924D01*
X130503766Y-98855378D01*
X130481141Y-98977718D01*
X130472836Y-99026133D01*
X130455354Y-99128837D01*
X130439223Y-99222023D01*
X130425489Y-99299769D01*
X130415200Y-99356149D01*
X130409402Y-99385241D01*
X130409301Y-99385661D01*
X130407186Y-99395111D01*
X129847305Y-99395111D01*
X129858073Y-99337260D01*
X129882304Y-99205838D01*
X129908598Y-99062075D01*
X129921748Y-98989775D01*
X129949007Y-98839893D01*
X129974644Y-98699445D01*
X129997975Y-98572138D01*
X130018317Y-98461683D01*
X130034985Y-98371786D01*
X130047296Y-98306157D01*
X130054566Y-98268504D01*
X130055996Y-98261733D01*
X130072562Y-98239005D01*
X130111896Y-98220167D01*
X130176232Y-98204818D01*
X130267801Y-98192558D01*
X130388836Y-98182985D01*
X130532699Y-98176031D01*
X130801261Y-98176924D01*
X131045534Y-98201086D01*
X131265974Y-98248658D01*
X131463035Y-98319784D01*
X131637170Y-98414607D01*
X131788836Y-98533270D01*
X131845205Y-98589462D01*
X131887736Y-98636855D01*
X131922286Y-98678798D01*
X131939404Y-98703100D01*
X131946596Y-98712208D01*
X131958242Y-98716566D01*
X131978024Y-98714912D01*
X132009619Y-98705982D01*
X132056707Y-98688513D01*
X132122967Y-98661242D01*
X132212079Y-98622906D01*
X132327721Y-98572241D01*
X132353143Y-98561052D01*
X132439962Y-98522846D01*
X132553773Y-98472794D01*
X132690554Y-98412664D01*
X132846286Y-98344221D01*
X133016948Y-98269231D01*
X133198522Y-98189462D01*
X133386986Y-98106680D01*
X133578321Y-98022651D01*
X133768506Y-97939141D01*
X133781800Y-97933304D01*
X133968340Y-97851355D01*
X134153651Y-97769855D01*
X134334085Y-97690414D01*
X134505994Y-97614641D01*
X134665730Y-97544146D01*
X134809646Y-97480541D01*
X134934094Y-97425434D01*
X135035425Y-97380435D01*
X135109993Y-97347156D01*
X135119533Y-97342875D01*
X135241904Y-97288914D01*
X135338374Y-97249322D01*
X135413280Y-97223221D01*
X135470961Y-97209734D01*
X135515756Y-97207982D01*
X135552003Y-97217087D01*
X135584041Y-97236172D01*
X135596571Y-97246336D01*
X135630249Y-97284863D01*
X135642863Y-97331635D01*
X135643697Y-97355050D01*
X135641819Y-97391497D01*
X135634038Y-97423098D01*
X135617135Y-97452046D01*
X135587892Y-97480529D01*
X135543088Y-97510739D01*
X135479504Y-97544865D01*
X135393921Y-97585098D01*
X135283120Y-97633628D01*
X135153349Y-97688663D01*
X135096208Y-97712973D01*
X135010902Y-97749634D01*
X134900285Y-97797407D01*
X134767212Y-97855050D01*
X134614536Y-97921323D01*
X134445111Y-97994986D01*
X134261793Y-98074797D01*
X134067434Y-98159517D01*
X133864890Y-98247904D01*
X133657014Y-98338719D01*
X133527800Y-98395220D01*
X133324710Y-98484031D01*
X133129986Y-98569138D01*
X132945934Y-98649534D01*
X132774861Y-98724214D01*
X132619073Y-98792172D01*
X132480877Y-98852405D01*
X132362578Y-98903905D01*
X132266485Y-98945668D01*
X132194902Y-98976689D01*
X132150136Y-98995962D01*
X132135033Y-99002303D01*
X132109740Y-99018004D01*
X132099254Y-99044813D01*
X132102501Y-99090099D01*
X132114286Y-99144667D01*
X132123602Y-99205842D01*
X132129295Y-99292520D01*
X132131483Y-99396546D01*
X132130280Y-99509764D01*
X132125800Y-99624016D01*
X132118160Y-99731148D01*
X132107474Y-99823001D01*
X132104444Y-99842013D01*
X132046853Y-100088679D01*
X131961757Y-100316512D01*
X131849991Y-100524459D01*
X131712386Y-100711469D01*
X131549776Y-100876488D01*
X131362992Y-101018465D01*
X131152869Y-101136348D01*
X131041887Y-101184896D01*
X130961366Y-101216071D01*
X130887593Y-101241565D01*
X130815817Y-101262013D01*
X130741286Y-101278048D01*
X130659249Y-101290305D01*
X130564953Y-101299418D01*
X130453648Y-101306021D01*
X130320582Y-101310748D01*
X130161003Y-101314233D01*
X130060700Y-101315843D01*
X129908474Y-101317973D01*
X129786745Y-101319306D01*
X129692151Y-101319721D01*
X129621330Y-101319101D01*
X129570920Y-101317327D01*
X129537557Y-101314278D01*
X129517880Y-101309838D01*
X129508526Y-101303886D01*
X129506133Y-101296304D01*
X129506133Y-101296225D01*
X129509102Y-101273634D01*
X129517549Y-101221679D01*
X129530785Y-101144296D01*
X129548120Y-101045420D01*
X129568863Y-100928988D01*
X129590979Y-100806397D01*
X130166533Y-100806397D01*
X130169681Y-100818058D01*
X130182746Y-100825426D01*
X130211164Y-100828986D01*
X130260366Y-100829223D01*
X130335788Y-100826622D01*
X130373966Y-100824921D01*
X130519120Y-100813931D01*
X130636484Y-100795247D01*
X130699933Y-100778764D01*
X130866376Y-100710042D01*
X131020929Y-100612021D01*
X131160606Y-100488082D01*
X131282419Y-100341601D01*
X131383381Y-100175957D01*
X131460505Y-99994528D01*
X131493697Y-99881125D01*
X131511948Y-99794126D01*
X131526789Y-99698881D01*
X131537939Y-99601087D01*
X131545118Y-99506442D01*
X131548044Y-99420642D01*
X131546435Y-99349384D01*
X131540011Y-99298366D01*
X131528491Y-99273285D01*
X131523778Y-99271667D01*
X131503967Y-99278306D01*
X131457516Y-99296981D01*
X131388664Y-99325824D01*
X131301653Y-99362968D01*
X131200724Y-99406546D01*
X131090116Y-99454690D01*
X130974072Y-99505535D01*
X130856831Y-99557212D01*
X130742635Y-99607855D01*
X130635725Y-99655597D01*
X130540340Y-99698571D01*
X130460723Y-99734909D01*
X130401113Y-99762745D01*
X130365752Y-99780212D01*
X130357948Y-99784929D01*
X130351125Y-99804868D01*
X130339517Y-99853135D01*
X130324071Y-99924680D01*
X130305732Y-100014453D01*
X130285447Y-100117404D01*
X130264163Y-100228483D01*
X130242825Y-100342641D01*
X130222380Y-100454826D01*
X130203775Y-100559990D01*
X130187955Y-100653081D01*
X130175867Y-100729051D01*
X130168457Y-100782848D01*
X130166533Y-100806397D01*
X129590979Y-100806397D01*
X129592326Y-100798935D01*
X129616644Y-100665598D01*
X129641829Y-100527428D01*
X129664744Y-100400173D01*
X129684738Y-100287573D01*
X129701159Y-100193369D01*
X129713354Y-100121298D01*
X129720672Y-100075101D01*
X129722478Y-100058529D01*
X129706598Y-100064442D01*
X129662290Y-100082921D01*
X129592110Y-100112856D01*
X129498613Y-100153140D01*
X129384354Y-100202663D01*
X129251888Y-100260317D01*
X129103770Y-100324992D01*
X128942557Y-100395580D01*
X128770803Y-100470973D01*
X128684866Y-100508763D01*
X128508629Y-100586299D01*
X128341496Y-100659815D01*
X128186053Y-100728176D01*
X128044883Y-100790245D01*
X127920570Y-100844888D01*
X127815698Y-100890967D01*
X127732852Y-100927349D01*
X127674615Y-100952896D01*
X127643572Y-100966473D01*
X127639105Y-100968399D01*
X127631005Y-100986210D01*
X127619380Y-101030145D01*
X127606009Y-101092876D01*
X127596772Y-101142843D01*
X127567267Y-101312133D01*
X127276649Y-101316760D01*
X127171337Y-101318301D01*
X127095321Y-101318735D01*
X127044036Y-101317581D01*
X127012916Y-101314361D01*
X126997396Y-101308592D01*
X126992911Y-101299796D01*
X126994896Y-101287491D01*
X126994991Y-101287127D01*
X126998395Y-101259805D01*
X126994562Y-101252867D01*
X126980228Y-101258213D01*
X126941313Y-101274413D01*
X126877270Y-101301702D01*
X126787553Y-101340318D01*
X126671617Y-101390500D01*
X126528915Y-101452485D01*
X126358901Y-101526510D01*
X126161029Y-101612814D01*
X125934754Y-101711633D01*
X125679530Y-101823205D01*
X125394810Y-101947769D01*
X125080049Y-102085561D01*
X124824067Y-102197672D01*
X124537969Y-102323063D01*
X124281475Y-102435638D01*
X124053114Y-102536054D01*
X123851419Y-102624970D01*
X123674922Y-102703044D01*
X123522155Y-102770934D01*
X123391649Y-102829299D01*
X123281936Y-102878796D01*
X123191548Y-102920083D01*
X123119016Y-102953819D01*
X123062873Y-102980662D01*
X123021650Y-103001270D01*
X122993879Y-103016301D01*
X122982930Y-103023004D01*
X122912661Y-103055044D01*
X122841063Y-103063259D01*
X122779299Y-103046423D01*
X122777780Y-103045556D01*
X122740373Y-103006854D01*
X122716373Y-102949623D01*
X122710731Y-102888127D01*
X122714979Y-102864629D01*
X122728686Y-102834298D01*
X122757841Y-102781192D01*
X122799225Y-102710793D01*
X122849615Y-102628581D01*
X122904870Y-102541467D01*
X122927785Y-102505933D01*
X123338387Y-102505933D01*
X123356935Y-102499485D01*
X123401853Y-102481440D01*
X123468473Y-102453748D01*
X123552126Y-102418357D01*
X123648144Y-102377216D01*
X123689527Y-102359344D01*
X123819029Y-102303194D01*
X123963723Y-102240283D01*
X124120919Y-102171795D01*
X124287927Y-102098910D01*
X124462057Y-102022811D01*
X124640618Y-101944680D01*
X124820920Y-101865698D01*
X125000273Y-101787046D01*
X125175986Y-101709908D01*
X125345370Y-101635464D01*
X125505735Y-101564896D01*
X125654389Y-101499387D01*
X125788642Y-101440118D01*
X125905805Y-101388270D01*
X126003188Y-101345026D01*
X126078099Y-101311568D01*
X126127848Y-101289077D01*
X126149747Y-101278735D01*
X126150529Y-101278248D01*
X126150743Y-101259923D01*
X126146531Y-101214985D01*
X126138847Y-101150258D01*
X126128646Y-101072567D01*
X126116882Y-100988734D01*
X126104508Y-100905584D01*
X126092479Y-100829940D01*
X126081747Y-100768628D01*
X126074189Y-100732167D01*
X126064995Y-100694067D01*
X124972035Y-100694067D01*
X124616417Y-101312133D01*
X124090003Y-101321447D01*
X123865247Y-101672390D01*
X123791060Y-101788034D01*
X123711946Y-101911017D01*
X123633286Y-102033001D01*
X123560459Y-102145646D01*
X123498846Y-102240611D01*
X123483205Y-102264633D01*
X123432421Y-102343602D01*
X123389925Y-102411731D01*
X123358458Y-102464451D01*
X123340764Y-102497193D01*
X123338387Y-102505933D01*
X122927785Y-102505933D01*
X122955280Y-102463298D01*
X123020615Y-102361981D01*
X123097446Y-102242834D01*
X123182346Y-102111172D01*
X123271887Y-101972312D01*
X123362640Y-101831570D01*
X123443348Y-101706405D01*
X123520913Y-101586251D01*
X123613899Y-101442441D01*
X123719246Y-101279696D01*
X123833892Y-101102738D01*
X123954776Y-100916290D01*
X124078837Y-100725073D01*
X124203014Y-100533809D01*
X124324245Y-100347220D01*
X124379075Y-100262891D01*
X125222000Y-100262891D01*
X125237968Y-100265929D01*
X125282033Y-100268207D01*
X125348434Y-100269763D01*
X125431410Y-100270632D01*
X125525199Y-100270850D01*
X125624042Y-100270453D01*
X125722177Y-100269476D01*
X125813844Y-100267956D01*
X125893281Y-100265928D01*
X125954728Y-100263429D01*
X125992424Y-100260494D01*
X126001644Y-100258033D01*
X125999610Y-100233534D01*
X125992978Y-100181683D01*
X125982504Y-100107274D01*
X125968944Y-100015104D01*
X125953054Y-99909970D01*
X125935588Y-99796668D01*
X125917304Y-99679993D01*
X125898956Y-99564743D01*
X125881300Y-99455712D01*
X125865092Y-99357698D01*
X125851088Y-99275497D01*
X125840043Y-99213904D01*
X125832713Y-99177716D01*
X125830222Y-99170067D01*
X125820419Y-99184255D01*
X125796584Y-99224153D01*
X125760944Y-99285762D01*
X125715723Y-99365083D01*
X125663148Y-99458117D01*
X125605445Y-99560864D01*
X125544839Y-99669325D01*
X125483557Y-99779501D01*
X125423823Y-99887393D01*
X125367865Y-99989001D01*
X125317907Y-100080327D01*
X125276175Y-100157371D01*
X125244896Y-100216133D01*
X125226294Y-100252615D01*
X125222000Y-100262891D01*
X124379075Y-100262891D01*
X124407006Y-100219933D01*
X124567757Y-99972672D01*
X124731746Y-99720225D01*
X124897948Y-99464181D01*
X125065336Y-99206129D01*
X125232885Y-98947657D01*
X125399571Y-98690353D01*
X125564369Y-98435806D01*
X125726251Y-98185605D01*
X125884195Y-97941338D01*
X126037173Y-97704593D01*
X126184161Y-97476959D01*
X126324134Y-97260025D01*
X126456066Y-97055379D01*
X126578932Y-96864610D01*
X126691707Y-96689306D01*
X126793364Y-96531055D01*
X126882880Y-96391446D01*
X126959229Y-96272068D01*
X127021385Y-96174509D01*
X127068324Y-96100358D01*
X127099019Y-96051202D01*
X127112446Y-96028632D01*
X127112899Y-96027658D01*
X127109714Y-96003065D01*
X127093760Y-95958432D01*
X127068624Y-95903698D01*
X127027196Y-95810683D01*
X127013301Y-95766307D01*
X127677333Y-95766307D01*
X127692361Y-95787176D01*
X127731275Y-95810026D01*
X127784824Y-95829857D01*
X127804333Y-95834933D01*
X127897741Y-95841316D01*
X128004546Y-95822224D01*
X128112690Y-95781197D01*
X128221126Y-95711290D01*
X128320304Y-95609764D01*
X128409647Y-95477735D01*
X128488579Y-95316318D01*
X128556524Y-95126631D01*
X128612904Y-94909789D01*
X128643074Y-94754817D01*
X128656848Y-94665603D01*
X128668781Y-94571224D01*
X128678512Y-94477082D01*
X128685683Y-94388582D01*
X128689933Y-94311126D01*
X128690902Y-94250117D01*
X128688231Y-94210959D01*
X128681561Y-94199056D01*
X128680002Y-94200133D01*
X128666560Y-94218376D01*
X128637290Y-94261671D01*
X128594227Y-94326837D01*
X128539408Y-94410693D01*
X128474869Y-94510060D01*
X128402645Y-94621758D01*
X128324773Y-94742607D01*
X128243288Y-94869426D01*
X128160226Y-94999035D01*
X128077624Y-95128254D01*
X127997516Y-95253904D01*
X127921940Y-95372803D01*
X127852931Y-95481772D01*
X127792524Y-95577631D01*
X127742757Y-95657199D01*
X127705664Y-95717297D01*
X127683282Y-95754744D01*
X127677333Y-95766307D01*
X127013301Y-95766307D01*
X126997418Y-95715587D01*
X126977910Y-95610771D01*
X126967288Y-95488597D01*
X126964172Y-95341425D01*
X126964213Y-95326540D01*
X126967143Y-95252961D01*
X127541867Y-95252961D01*
X127542928Y-95306496D01*
X127547249Y-95331522D01*
X127556537Y-95333361D01*
X127565159Y-95325595D01*
X127578736Y-95306794D01*
X127608769Y-95262353D01*
X127653393Y-95195116D01*
X127710745Y-95107925D01*
X127778961Y-95003626D01*
X127856176Y-94885061D01*
X127940526Y-94755075D01*
X128030148Y-94616510D01*
X128042019Y-94598123D01*
X128157083Y-94419907D01*
X128255138Y-94268020D01*
X128337479Y-94140294D01*
X128405397Y-94034562D01*
X128460188Y-93948657D01*
X128503143Y-93880412D01*
X128535556Y-93827659D01*
X128558720Y-93788233D01*
X128573930Y-93759964D01*
X128582477Y-93740688D01*
X128585656Y-93728235D01*
X128584759Y-93720439D01*
X128581081Y-93715134D01*
X128575914Y-93710151D01*
X128573517Y-93707520D01*
X128518356Y-93665309D01*
X128440397Y-93638750D01*
X128347637Y-93629408D01*
X128248074Y-93638846D01*
X128235479Y-93641439D01*
X128141103Y-93678074D01*
X128046378Y-93744941D01*
X127954756Y-93838619D01*
X127869690Y-93955690D01*
X127808287Y-94064666D01*
X127746313Y-94207230D01*
X127689095Y-94374889D01*
X127638573Y-94558988D01*
X127596687Y-94750873D01*
X127565378Y-94941890D01*
X127546586Y-95123384D01*
X127541867Y-95252961D01*
X126967143Y-95252961D01*
X126975906Y-95032989D01*
X127007780Y-94752858D01*
X127058974Y-94488313D01*
X127128630Y-94241522D01*
X127215886Y-94014650D01*
X127319884Y-93809866D01*
X127439764Y-93629335D01*
X127574666Y-93475224D01*
X127723729Y-93349700D01*
X127757853Y-93326454D01*
X127905845Y-93246709D01*
X128070204Y-93187777D01*
X128243842Y-93150499D01*
X128419671Y-93135713D01*
X128590604Y-93144259D01*
X128749553Y-93176978D01*
X128817934Y-93200876D01*
X128870392Y-93221413D01*
X128908165Y-93234967D01*
X128922769Y-93238576D01*
X128934110Y-93221153D01*
X128961490Y-93178779D01*
X129002631Y-93114992D01*
X129055256Y-93033329D01*
X129117090Y-92937327D01*
X129185854Y-92830524D01*
X129259273Y-92716456D01*
X129335070Y-92598660D01*
X129410967Y-92480675D01*
X129484689Y-92366035D01*
X129553959Y-92258280D01*
X129616499Y-92160946D01*
X129655379Y-92100400D01*
X129744845Y-91961072D01*
X129817955Y-91847491D01*
X129876662Y-91756913D01*
X129922915Y-91686593D01*
X129958668Y-91633787D01*
X129985871Y-91595750D01*
X130006476Y-91569738D01*
X130022435Y-91553006D01*
X130035699Y-91542810D01*
X130048220Y-91536404D01*
X130059597Y-91531943D01*
X130127751Y-91522478D01*
X130192042Y-91542678D01*
G37*
X130192042Y-91542678D02*
X130234060Y-91579050D01*
X130258102Y-91617043D01*
X130268036Y-91656437D01*
X130262472Y-91702186D01*
X130240023Y-91759247D01*
X130199299Y-91832575D01*
X130138913Y-91927126D01*
X130134789Y-91933349D01*
X130078333Y-92018966D01*
X130010474Y-92122734D01*
X129937994Y-92234233D01*
X129867676Y-92343044D01*
X129833171Y-92396733D01*
X129776037Y-92485808D01*
X129705431Y-92595821D01*
X129626197Y-92719226D01*
X129543183Y-92848477D01*
X129461234Y-92976027D01*
X129407726Y-93059283D01*
X129150554Y-93459366D01*
X129192873Y-93555056D01*
X129234034Y-93677381D01*
X129262664Y-93826120D01*
X129279078Y-93996352D01*
X129283591Y-94183155D01*
X129276517Y-94381609D01*
X129258170Y-94586791D01*
X129228867Y-94793779D01*
X129188921Y-94997654D01*
X129138646Y-95193492D01*
X129078359Y-95376372D01*
X129076012Y-95382635D01*
X128979134Y-95604204D01*
X128866420Y-95795897D01*
X128737621Y-95957906D01*
X128592483Y-96090424D01*
X128430756Y-96193644D01*
X128252187Y-96267758D01*
X128056525Y-96312958D01*
X127843519Y-96329437D01*
X127838200Y-96329481D01*
X127745079Y-96329180D01*
X127675144Y-96325876D01*
X127617753Y-96318165D01*
X127562265Y-96304641D01*
X127501141Y-96284965D01*
X127438470Y-96265462D01*
X127388226Y-96253514D01*
X127358659Y-96250950D01*
X127354786Y-96252538D01*
X127342860Y-96269579D01*
X127314890Y-96311600D01*
X127273163Y-96375103D01*
X127219963Y-96456592D01*
X127157578Y-96552568D01*
X127088294Y-96659535D01*
X127047160Y-96723200D01*
X126957142Y-96862622D01*
X126854725Y-97021198D01*
X126745907Y-97189643D01*
X126636685Y-97358677D01*
X126533055Y-97519017D01*
X126445113Y-97655044D01*
X126371412Y-97769323D01*
X126303481Y-97875238D01*
X126243553Y-97969259D01*
X126193862Y-98047858D01*
X126156643Y-98107506D01*
X126134130Y-98144676D01*
X126128368Y-98155294D01*
X126130429Y-98174618D01*
X126138701Y-98224158D01*
X126152594Y-98300970D01*
X126171519Y-98402106D01*
X126194887Y-98524621D01*
X126222108Y-98665568D01*
X126252594Y-98822000D01*
X126285756Y-98990973D01*
X126321003Y-99169539D01*
X126357748Y-99354753D01*
X126395400Y-99543667D01*
X126433370Y-99733337D01*
X126471070Y-99920815D01*
X126507909Y-100103156D01*
X126543300Y-100277413D01*
X126576652Y-100440640D01*
X126607376Y-100589890D01*
X126634884Y-100722219D01*
X126658585Y-100834678D01*
X126677891Y-100924323D01*
X126692213Y-100988207D01*
X126700961Y-101023383D01*
X126703157Y-101029402D01*
X126720705Y-101026277D01*
X126761290Y-101012129D01*
X126817240Y-100990208D01*
X126880881Y-100963762D01*
X126944538Y-100936041D01*
X127000537Y-100910296D01*
X127041206Y-100889776D01*
X127057490Y-100879356D01*
X127062930Y-100860879D01*
X127074069Y-100811650D01*
X127090404Y-100734212D01*
X127111433Y-100631105D01*
X127136652Y-100504873D01*
X127165558Y-100358058D01*
X127197650Y-100193202D01*
X127232424Y-100012846D01*
X127269377Y-99819533D01*
X127290572Y-99707752D01*
X127871042Y-99707752D01*
X127871482Y-99708526D01*
X127899999Y-99719639D01*
X127955127Y-99727253D01*
X128029788Y-99731337D01*
X128116904Y-99731861D01*
X128209397Y-99728795D01*
X128300189Y-99722109D01*
X128382202Y-99711772D01*
X128388533Y-99710726D01*
X128511675Y-99676291D01*
X128630130Y-99618230D01*
X128732280Y-99542772D01*
X128767236Y-99507711D01*
X128830603Y-99424670D01*
X128870997Y-99338250D01*
X128891147Y-99239709D01*
X128893785Y-99120304D01*
X128893081Y-99104697D01*
X128879219Y-98982951D01*
X128849221Y-98887075D01*
X128799716Y-98811565D01*
X128727331Y-98750921D01*
X128650789Y-98709460D01*
X128613414Y-98693743D01*
X128576424Y-98682892D01*
X128532477Y-98676028D01*
X128474235Y-98672272D01*
X128394356Y-98670746D01*
X128325629Y-98670533D01*
X128225439Y-98671243D01*
X128153959Y-98673701D01*
X128106058Y-98678399D01*
X128076601Y-98685830D01*
X128060968Y-98695933D01*
X128052716Y-98717534D01*
X128039957Y-98766933D01*
X128023630Y-98839105D01*
X128004676Y-98929023D01*
X127984036Y-99031664D01*
X127962649Y-99142002D01*
X127941457Y-99255011D01*
X127921399Y-99365667D01*
X127903416Y-99468943D01*
X127888449Y-99559815D01*
X127877437Y-99633258D01*
X127871321Y-99684245D01*
X127871042Y-99707752D01*
X127290572Y-99707752D01*
X127308007Y-99615805D01*
X127320646Y-99548797D01*
X127568646Y-98232334D01*
X127614436Y-98220088D01*
X127645727Y-98215023D01*
X127704438Y-98208491D01*
X127784188Y-98201090D01*
X127878594Y-98193416D01*
X127969717Y-98186845D01*
X128240357Y-98176942D01*
X128483265Y-98185982D01*
X128698912Y-98214151D01*
X128887764Y-98261636D01*
X129050291Y-98328623D01*
X129186959Y-98415299D01*
X129298236Y-98521850D01*
X129384592Y-98648463D01*
X129438797Y-98772133D01*
X129465557Y-98878553D01*
X129481342Y-99004604D01*
X129485555Y-99137680D01*
X129477598Y-99265173D01*
X129465674Y-99338804D01*
X129411067Y-99517598D01*
X129327731Y-99678871D01*
X129216600Y-99821452D01*
X129078603Y-99944168D01*
X128914675Y-100045846D01*
X128896533Y-100054989D01*
X128758163Y-100116653D01*
X128624387Y-100160873D01*
X128485520Y-100189758D01*
X128331874Y-100205417D01*
X128185333Y-100209888D01*
X128089383Y-100209874D01*
X127998035Y-100208731D01*
X127920286Y-100206649D01*
X127865128Y-100203814D01*
X127855819Y-100203000D01*
X127771839Y-100194533D01*
X127742049Y-100355400D01*
X127728083Y-100429584D01*
X127715418Y-100494654D01*
X127705949Y-100540982D01*
X127702941Y-100554367D01*
X127701643Y-100583583D01*
X127709870Y-100592467D01*
X127727134Y-100585894D01*
X127772288Y-100567084D01*
X127842208Y-100537396D01*
X127933766Y-100498191D01*
X128043837Y-100450830D01*
X128169296Y-100396672D01*
X128307015Y-100337079D01*
X128453869Y-100273410D01*
X128606732Y-100207027D01*
X128762478Y-100139289D01*
X128917981Y-100071556D01*
X129070115Y-100005191D01*
X129215754Y-99941552D01*
X129351773Y-99882000D01*
X129475044Y-99827896D01*
X129582443Y-99780600D01*
X129670843Y-99741473D01*
X129737119Y-99711874D01*
X129778143Y-99693165D01*
X129790847Y-99686821D01*
X129794911Y-99669576D01*
X129804323Y-99622500D01*
X129818426Y-99549089D01*
X129836561Y-99452843D01*
X129847305Y-99395111D01*
X130407186Y-99395111D01*
X130407636Y-99401984D01*
X130413231Y-99405264D01*
X130426550Y-99403935D01*
X130450175Y-99396981D01*
X130486686Y-99383386D01*
X130538664Y-99362134D01*
X130608688Y-99332207D01*
X130699339Y-99292591D01*
X130813198Y-99242269D01*
X130952844Y-99180224D01*
X131120802Y-99105467D01*
X131423137Y-98970879D01*
X131363703Y-98905373D01*
X131277793Y-98829281D01*
X131169386Y-98761664D01*
X131049796Y-98709119D01*
X131000237Y-98693485D01*
X130929264Y-98678452D01*
X130846629Y-98668075D01*
X130760604Y-98662545D01*
X130679464Y-98662051D01*
X130611481Y-98666783D01*
X130564931Y-98676930D01*
X130553279Y-98683233D01*
X130539692Y-98708746D01*
X130523235Y-98765924D01*
X130503766Y-98855378D01*
X130481141Y-98977718D01*
X130472836Y-99026133D01*
X130455354Y-99128837D01*
X130439223Y-99222023D01*
X130425489Y-99299769D01*
X130415200Y-99356149D01*
X130409402Y-99385241D01*
X130409301Y-99385661D01*
X130407186Y-99395111D01*
X129847305Y-99395111D01*
X129858073Y-99337260D01*
X129882304Y-99205838D01*
X129908598Y-99062075D01*
X129921748Y-98989775D01*
X129949007Y-98839893D01*
X129974644Y-98699445D01*
X129997975Y-98572138D01*
X130018317Y-98461683D01*
X130034985Y-98371786D01*
X130047296Y-98306157D01*
X130054566Y-98268504D01*
X130055996Y-98261733D01*
X130072562Y-98239005D01*
X130111896Y-98220167D01*
X130176232Y-98204818D01*
X130267801Y-98192558D01*
X130388836Y-98182985D01*
X130532699Y-98176031D01*
X130801261Y-98176924D01*
X131045534Y-98201086D01*
X131265974Y-98248658D01*
X131463035Y-98319784D01*
X131637170Y-98414607D01*
X131788836Y-98533270D01*
X131845205Y-98589462D01*
X131887736Y-98636855D01*
X131922286Y-98678798D01*
X131939404Y-98703100D01*
X131946596Y-98712208D01*
X131958242Y-98716566D01*
X131978024Y-98714912D01*
X132009619Y-98705982D01*
X132056707Y-98688513D01*
X132122967Y-98661242D01*
X132212079Y-98622906D01*
X132327721Y-98572241D01*
X132353143Y-98561052D01*
X132439962Y-98522846D01*
X132553773Y-98472794D01*
X132690554Y-98412664D01*
X132846286Y-98344221D01*
X133016948Y-98269231D01*
X133198522Y-98189462D01*
X133386986Y-98106680D01*
X133578321Y-98022651D01*
X133768506Y-97939141D01*
X133781800Y-97933304D01*
X133968340Y-97851355D01*
X134153651Y-97769855D01*
X134334085Y-97690414D01*
X134505994Y-97614641D01*
X134665730Y-97544146D01*
X134809646Y-97480541D01*
X134934094Y-97425434D01*
X135035425Y-97380435D01*
X135109993Y-97347156D01*
X135119533Y-97342875D01*
X135241904Y-97288914D01*
X135338374Y-97249322D01*
X135413280Y-97223221D01*
X135470961Y-97209734D01*
X135515756Y-97207982D01*
X135552003Y-97217087D01*
X135584041Y-97236172D01*
X135596571Y-97246336D01*
X135630249Y-97284863D01*
X135642863Y-97331635D01*
X135643697Y-97355050D01*
X135641819Y-97391497D01*
X135634038Y-97423098D01*
X135617135Y-97452046D01*
X135587892Y-97480529D01*
X135543088Y-97510739D01*
X135479504Y-97544865D01*
X135393921Y-97585098D01*
X135283120Y-97633628D01*
X135153349Y-97688663D01*
X135096208Y-97712973D01*
X135010902Y-97749634D01*
X134900285Y-97797407D01*
X134767212Y-97855050D01*
X134614536Y-97921323D01*
X134445111Y-97994986D01*
X134261793Y-98074797D01*
X134067434Y-98159517D01*
X133864890Y-98247904D01*
X133657014Y-98338719D01*
X133527800Y-98395220D01*
X133324710Y-98484031D01*
X133129986Y-98569138D01*
X132945934Y-98649534D01*
X132774861Y-98724214D01*
X132619073Y-98792172D01*
X132480877Y-98852405D01*
X132362578Y-98903905D01*
X132266485Y-98945668D01*
X132194902Y-98976689D01*
X132150136Y-98995962D01*
X132135033Y-99002303D01*
X132109740Y-99018004D01*
X132099254Y-99044813D01*
X132102501Y-99090099D01*
X132114286Y-99144667D01*
X132123602Y-99205842D01*
X132129295Y-99292520D01*
X132131483Y-99396546D01*
X132130280Y-99509764D01*
X132125800Y-99624016D01*
X132118160Y-99731148D01*
X132107474Y-99823001D01*
X132104444Y-99842013D01*
X132046853Y-100088679D01*
X131961757Y-100316512D01*
X131849991Y-100524459D01*
X131712386Y-100711469D01*
X131549776Y-100876488D01*
X131362992Y-101018465D01*
X131152869Y-101136348D01*
X131041887Y-101184896D01*
X130961366Y-101216071D01*
X130887593Y-101241565D01*
X130815817Y-101262013D01*
X130741286Y-101278048D01*
X130659249Y-101290305D01*
X130564953Y-101299418D01*
X130453648Y-101306021D01*
X130320582Y-101310748D01*
X130161003Y-101314233D01*
X130060700Y-101315843D01*
X129908474Y-101317973D01*
X129786745Y-101319306D01*
X129692151Y-101319721D01*
X129621330Y-101319101D01*
X129570920Y-101317327D01*
X129537557Y-101314278D01*
X129517880Y-101309838D01*
X129508526Y-101303886D01*
X129506133Y-101296304D01*
X129506133Y-101296225D01*
X129509102Y-101273634D01*
X129517549Y-101221679D01*
X129530785Y-101144296D01*
X129548120Y-101045420D01*
X129568863Y-100928988D01*
X129590979Y-100806397D01*
X130166533Y-100806397D01*
X130169681Y-100818058D01*
X130182746Y-100825426D01*
X130211164Y-100828986D01*
X130260366Y-100829223D01*
X130335788Y-100826622D01*
X130373966Y-100824921D01*
X130519120Y-100813931D01*
X130636484Y-100795247D01*
X130699933Y-100778764D01*
X130866376Y-100710042D01*
X131020929Y-100612021D01*
X131160606Y-100488082D01*
X131282419Y-100341601D01*
X131383381Y-100175957D01*
X131460505Y-99994528D01*
X131493697Y-99881125D01*
X131511948Y-99794126D01*
X131526789Y-99698881D01*
X131537939Y-99601087D01*
X131545118Y-99506442D01*
X131548044Y-99420642D01*
X131546435Y-99349384D01*
X131540011Y-99298366D01*
X131528491Y-99273285D01*
X131523778Y-99271667D01*
X131503967Y-99278306D01*
X131457516Y-99296981D01*
X131388664Y-99325824D01*
X131301653Y-99362968D01*
X131200724Y-99406546D01*
X131090116Y-99454690D01*
X130974072Y-99505535D01*
X130856831Y-99557212D01*
X130742635Y-99607855D01*
X130635725Y-99655597D01*
X130540340Y-99698571D01*
X130460723Y-99734909D01*
X130401113Y-99762745D01*
X130365752Y-99780212D01*
X130357948Y-99784929D01*
X130351125Y-99804868D01*
X130339517Y-99853135D01*
X130324071Y-99924680D01*
X130305732Y-100014453D01*
X130285447Y-100117404D01*
X130264163Y-100228483D01*
X130242825Y-100342641D01*
X130222380Y-100454826D01*
X130203775Y-100559990D01*
X130187955Y-100653081D01*
X130175867Y-100729051D01*
X130168457Y-100782848D01*
X130166533Y-100806397D01*
X129590979Y-100806397D01*
X129592326Y-100798935D01*
X129616644Y-100665598D01*
X129641829Y-100527428D01*
X129664744Y-100400173D01*
X129684738Y-100287573D01*
X129701159Y-100193369D01*
X129713354Y-100121298D01*
X129720672Y-100075101D01*
X129722478Y-100058529D01*
X129706598Y-100064442D01*
X129662290Y-100082921D01*
X129592110Y-100112856D01*
X129498613Y-100153140D01*
X129384354Y-100202663D01*
X129251888Y-100260317D01*
X129103770Y-100324992D01*
X128942557Y-100395580D01*
X128770803Y-100470973D01*
X128684866Y-100508763D01*
X128508629Y-100586299D01*
X128341496Y-100659815D01*
X128186053Y-100728176D01*
X128044883Y-100790245D01*
X127920570Y-100844888D01*
X127815698Y-100890967D01*
X127732852Y-100927349D01*
X127674615Y-100952896D01*
X127643572Y-100966473D01*
X127639105Y-100968399D01*
X127631005Y-100986210D01*
X127619380Y-101030145D01*
X127606009Y-101092876D01*
X127596772Y-101142843D01*
X127567267Y-101312133D01*
X127276649Y-101316760D01*
X127171337Y-101318301D01*
X127095321Y-101318735D01*
X127044036Y-101317581D01*
X127012916Y-101314361D01*
X126997396Y-101308592D01*
X126992911Y-101299796D01*
X126994896Y-101287491D01*
X126994991Y-101287127D01*
X126998395Y-101259805D01*
X126994562Y-101252867D01*
X126980228Y-101258213D01*
X126941313Y-101274413D01*
X126877270Y-101301702D01*
X126787553Y-101340318D01*
X126671617Y-101390500D01*
X126528915Y-101452485D01*
X126358901Y-101526510D01*
X126161029Y-101612814D01*
X125934754Y-101711633D01*
X125679530Y-101823205D01*
X125394810Y-101947769D01*
X125080049Y-102085561D01*
X124824067Y-102197672D01*
X124537969Y-102323063D01*
X124281475Y-102435638D01*
X124053114Y-102536054D01*
X123851419Y-102624970D01*
X123674922Y-102703044D01*
X123522155Y-102770934D01*
X123391649Y-102829299D01*
X123281936Y-102878796D01*
X123191548Y-102920083D01*
X123119016Y-102953819D01*
X123062873Y-102980662D01*
X123021650Y-103001270D01*
X122993879Y-103016301D01*
X122982930Y-103023004D01*
X122912661Y-103055044D01*
X122841063Y-103063259D01*
X122779299Y-103046423D01*
X122777780Y-103045556D01*
X122740373Y-103006854D01*
X122716373Y-102949623D01*
X122710731Y-102888127D01*
X122714979Y-102864629D01*
X122728686Y-102834298D01*
X122757841Y-102781192D01*
X122799225Y-102710793D01*
X122849615Y-102628581D01*
X122904870Y-102541467D01*
X122927785Y-102505933D01*
X123338387Y-102505933D01*
X123356935Y-102499485D01*
X123401853Y-102481440D01*
X123468473Y-102453748D01*
X123552126Y-102418357D01*
X123648144Y-102377216D01*
X123689527Y-102359344D01*
X123819029Y-102303194D01*
X123963723Y-102240283D01*
X124120919Y-102171795D01*
X124287927Y-102098910D01*
X124462057Y-102022811D01*
X124640618Y-101944680D01*
X124820920Y-101865698D01*
X125000273Y-101787046D01*
X125175986Y-101709908D01*
X125345370Y-101635464D01*
X125505735Y-101564896D01*
X125654389Y-101499387D01*
X125788642Y-101440118D01*
X125905805Y-101388270D01*
X126003188Y-101345026D01*
X126078099Y-101311568D01*
X126127848Y-101289077D01*
X126149747Y-101278735D01*
X126150529Y-101278248D01*
X126150743Y-101259923D01*
X126146531Y-101214985D01*
X126138847Y-101150258D01*
X126128646Y-101072567D01*
X126116882Y-100988734D01*
X126104508Y-100905584D01*
X126092479Y-100829940D01*
X126081747Y-100768628D01*
X126074189Y-100732167D01*
X126064995Y-100694067D01*
X124972035Y-100694067D01*
X124616417Y-101312133D01*
X124090003Y-101321447D01*
X123865247Y-101672390D01*
X123791060Y-101788034D01*
X123711946Y-101911017D01*
X123633286Y-102033001D01*
X123560459Y-102145646D01*
X123498846Y-102240611D01*
X123483205Y-102264633D01*
X123432421Y-102343602D01*
X123389925Y-102411731D01*
X123358458Y-102464451D01*
X123340764Y-102497193D01*
X123338387Y-102505933D01*
X122927785Y-102505933D01*
X122955280Y-102463298D01*
X123020615Y-102361981D01*
X123097446Y-102242834D01*
X123182346Y-102111172D01*
X123271887Y-101972312D01*
X123362640Y-101831570D01*
X123443348Y-101706405D01*
X123520913Y-101586251D01*
X123613899Y-101442441D01*
X123719246Y-101279696D01*
X123833892Y-101102738D01*
X123954776Y-100916290D01*
X124078837Y-100725073D01*
X124203014Y-100533809D01*
X124324245Y-100347220D01*
X124379075Y-100262891D01*
X125222000Y-100262891D01*
X125237968Y-100265929D01*
X125282033Y-100268207D01*
X125348434Y-100269763D01*
X125431410Y-100270632D01*
X125525199Y-100270850D01*
X125624042Y-100270453D01*
X125722177Y-100269476D01*
X125813844Y-100267956D01*
X125893281Y-100265928D01*
X125954728Y-100263429D01*
X125992424Y-100260494D01*
X126001644Y-100258033D01*
X125999610Y-100233534D01*
X125992978Y-100181683D01*
X125982504Y-100107274D01*
X125968944Y-100015104D01*
X125953054Y-99909970D01*
X125935588Y-99796668D01*
X125917304Y-99679993D01*
X125898956Y-99564743D01*
X125881300Y-99455712D01*
X125865092Y-99357698D01*
X125851088Y-99275497D01*
X125840043Y-99213904D01*
X125832713Y-99177716D01*
X125830222Y-99170067D01*
X125820419Y-99184255D01*
X125796584Y-99224153D01*
X125760944Y-99285762D01*
X125715723Y-99365083D01*
X125663148Y-99458117D01*
X125605445Y-99560864D01*
X125544839Y-99669325D01*
X125483557Y-99779501D01*
X125423823Y-99887393D01*
X125367865Y-99989001D01*
X125317907Y-100080327D01*
X125276175Y-100157371D01*
X125244896Y-100216133D01*
X125226294Y-100252615D01*
X125222000Y-100262891D01*
X124379075Y-100262891D01*
X124407006Y-100219933D01*
X124567757Y-99972672D01*
X124731746Y-99720225D01*
X124897948Y-99464181D01*
X125065336Y-99206129D01*
X125232885Y-98947657D01*
X125399571Y-98690353D01*
X125564369Y-98435806D01*
X125726251Y-98185605D01*
X125884195Y-97941338D01*
X126037173Y-97704593D01*
X126184161Y-97476959D01*
X126324134Y-97260025D01*
X126456066Y-97055379D01*
X126578932Y-96864610D01*
X126691707Y-96689306D01*
X126793364Y-96531055D01*
X126882880Y-96391446D01*
X126959229Y-96272068D01*
X127021385Y-96174509D01*
X127068324Y-96100358D01*
X127099019Y-96051202D01*
X127112446Y-96028632D01*
X127112899Y-96027658D01*
X127109714Y-96003065D01*
X127093760Y-95958432D01*
X127068624Y-95903698D01*
X127027196Y-95810683D01*
X127013301Y-95766307D01*
X127677333Y-95766307D01*
X127692361Y-95787176D01*
X127731275Y-95810026D01*
X127784824Y-95829857D01*
X127804333Y-95834933D01*
X127897741Y-95841316D01*
X128004546Y-95822224D01*
X128112690Y-95781197D01*
X128221126Y-95711290D01*
X128320304Y-95609764D01*
X128409647Y-95477735D01*
X128488579Y-95316318D01*
X128556524Y-95126631D01*
X128612904Y-94909789D01*
X128643074Y-94754817D01*
X128656848Y-94665603D01*
X128668781Y-94571224D01*
X128678512Y-94477082D01*
X128685683Y-94388582D01*
X128689933Y-94311126D01*
X128690902Y-94250117D01*
X128688231Y-94210959D01*
X128681561Y-94199056D01*
X128680002Y-94200133D01*
X128666560Y-94218376D01*
X128637290Y-94261671D01*
X128594227Y-94326837D01*
X128539408Y-94410693D01*
X128474869Y-94510060D01*
X128402645Y-94621758D01*
X128324773Y-94742607D01*
X128243288Y-94869426D01*
X128160226Y-94999035D01*
X128077624Y-95128254D01*
X127997516Y-95253904D01*
X127921940Y-95372803D01*
X127852931Y-95481772D01*
X127792524Y-95577631D01*
X127742757Y-95657199D01*
X127705664Y-95717297D01*
X127683282Y-95754744D01*
X127677333Y-95766307D01*
X127013301Y-95766307D01*
X126997418Y-95715587D01*
X126977910Y-95610771D01*
X126967288Y-95488597D01*
X126964172Y-95341425D01*
X126964213Y-95326540D01*
X126967143Y-95252961D01*
X127541867Y-95252961D01*
X127542928Y-95306496D01*
X127547249Y-95331522D01*
X127556537Y-95333361D01*
X127565159Y-95325595D01*
X127578736Y-95306794D01*
X127608769Y-95262353D01*
X127653393Y-95195116D01*
X127710745Y-95107925D01*
X127778961Y-95003626D01*
X127856176Y-94885061D01*
X127940526Y-94755075D01*
X128030148Y-94616510D01*
X128042019Y-94598123D01*
X128157083Y-94419907D01*
X128255138Y-94268020D01*
X128337479Y-94140294D01*
X128405397Y-94034562D01*
X128460188Y-93948657D01*
X128503143Y-93880412D01*
X128535556Y-93827659D01*
X128558720Y-93788233D01*
X128573930Y-93759964D01*
X128582477Y-93740688D01*
X128585656Y-93728235D01*
X128584759Y-93720439D01*
X128581081Y-93715134D01*
X128575914Y-93710151D01*
X128573517Y-93707520D01*
X128518356Y-93665309D01*
X128440397Y-93638750D01*
X128347637Y-93629408D01*
X128248074Y-93638846D01*
X128235479Y-93641439D01*
X128141103Y-93678074D01*
X128046378Y-93744941D01*
X127954756Y-93838619D01*
X127869690Y-93955690D01*
X127808287Y-94064666D01*
X127746313Y-94207230D01*
X127689095Y-94374889D01*
X127638573Y-94558988D01*
X127596687Y-94750873D01*
X127565378Y-94941890D01*
X127546586Y-95123384D01*
X127541867Y-95252961D01*
X126967143Y-95252961D01*
X126975906Y-95032989D01*
X127007780Y-94752858D01*
X127058974Y-94488313D01*
X127128630Y-94241522D01*
X127215886Y-94014650D01*
X127319884Y-93809866D01*
X127439764Y-93629335D01*
X127574666Y-93475224D01*
X127723729Y-93349700D01*
X127757853Y-93326454D01*
X127905845Y-93246709D01*
X128070204Y-93187777D01*
X128243842Y-93150499D01*
X128419671Y-93135713D01*
X128590604Y-93144259D01*
X128749553Y-93176978D01*
X128817934Y-93200876D01*
X128870392Y-93221413D01*
X128908165Y-93234967D01*
X128922769Y-93238576D01*
X128934110Y-93221153D01*
X128961490Y-93178779D01*
X129002631Y-93114992D01*
X129055256Y-93033329D01*
X129117090Y-92937327D01*
X129185854Y-92830524D01*
X129259273Y-92716456D01*
X129335070Y-92598660D01*
X129410967Y-92480675D01*
X129484689Y-92366035D01*
X129553959Y-92258280D01*
X129616499Y-92160946D01*
X129655379Y-92100400D01*
X129744845Y-91961072D01*
X129817955Y-91847491D01*
X129876662Y-91756913D01*
X129922915Y-91686593D01*
X129958668Y-91633787D01*
X129985871Y-91595750D01*
X130006476Y-91569738D01*
X130022435Y-91553006D01*
X130035699Y-91542810D01*
X130048220Y-91536404D01*
X130059597Y-91531943D01*
X130127751Y-91522478D01*
X130192042Y-91542678D01*
G36*
X126633214Y-93181340D02*
G01*
X126659164Y-93186735D01*
X126661333Y-93189260D01*
X126658354Y-93208276D01*
X126649876Y-93256829D01*
X126636591Y-93331163D01*
X126619192Y-93427518D01*
X126598369Y-93542135D01*
X126574814Y-93671258D01*
X126549219Y-93811127D01*
X126522275Y-93957984D01*
X126494674Y-94108072D01*
X126467107Y-94257631D01*
X126440266Y-94402903D01*
X126414843Y-94540130D01*
X126391528Y-94665554D01*
X126371014Y-94775416D01*
X126353993Y-94865959D01*
X126341154Y-94933423D01*
X126333192Y-94974051D01*
X126331213Y-94983300D01*
X126328287Y-95001225D01*
X126334086Y-95012407D01*
X126354682Y-95018436D01*
X126396147Y-95020903D01*
X126464552Y-95021398D01*
X126476695Y-95021400D01*
X126631369Y-95021400D01*
X126619785Y-95110300D01*
X126610754Y-95170469D01*
X126597425Y-95248588D01*
X126582414Y-95329453D01*
X126579734Y-95343133D01*
X126551267Y-95487067D01*
X126395904Y-95491918D01*
X126240541Y-95496770D01*
X126223955Y-95576585D01*
X126215674Y-95618832D01*
X126202799Y-95687451D01*
X126186613Y-95775464D01*
X126168402Y-95875891D01*
X126150845Y-95973900D01*
X126094321Y-96291400D01*
X125802094Y-96291400D01*
X125706873Y-96290576D01*
X125624635Y-96288291D01*
X125560835Y-96284826D01*
X125520931Y-96280462D01*
X125509866Y-96276373D01*
X125512852Y-96255976D01*
X125521207Y-96207344D01*
X125534025Y-96135525D01*
X125550402Y-96045564D01*
X125569433Y-95942508D01*
X125577426Y-95899606D01*
X125597293Y-95792330D01*
X125614865Y-95695731D01*
X125629230Y-95614965D01*
X125639475Y-95555191D01*
X125644687Y-95521564D01*
X125645159Y-95516700D01*
X125638328Y-95511216D01*
X125616055Y-95506700D01*
X125575818Y-95503073D01*
X125515094Y-95500257D01*
X125431360Y-95498175D01*
X125322094Y-95496749D01*
X125184774Y-95495900D01*
X125016877Y-95495552D01*
X124959533Y-95495533D01*
X124273733Y-95495533D01*
X124273736Y-95457433D01*
X124276759Y-95423086D01*
X124284762Y-95366508D01*
X124296155Y-95298692D01*
X124298864Y-95283867D01*
X124312545Y-95215406D01*
X124326978Y-95168599D01*
X124348542Y-95131701D01*
X124383617Y-95092969D01*
X124423035Y-95055267D01*
X124451240Y-95028530D01*
X124458724Y-95021400D01*
X125113682Y-95021400D01*
X125739135Y-95021400D01*
X125795260Y-94712367D01*
X125813753Y-94610616D01*
X125830748Y-94517242D01*
X125845083Y-94438623D01*
X125855594Y-94381136D01*
X125860863Y-94352533D01*
X125863485Y-94338405D01*
X125864098Y-94328319D01*
X125860510Y-94324162D01*
X125850529Y-94327818D01*
X125831962Y-94341173D01*
X125802616Y-94366113D01*
X125760300Y-94404522D01*
X125702821Y-94458288D01*
X125627986Y-94529294D01*
X125533604Y-94619427D01*
X125417481Y-94730572D01*
X125383741Y-94762873D01*
X125113682Y-95021400D01*
X124458724Y-95021400D01*
X124501740Y-94980420D01*
X124572379Y-94912999D01*
X124661003Y-94828327D01*
X124765455Y-94728466D01*
X124883581Y-94615477D01*
X125013225Y-94491420D01*
X125152233Y-94358358D01*
X125298448Y-94218351D01*
X125449715Y-94073459D01*
X125450056Y-94073133D01*
X126378030Y-93184133D01*
X126519681Y-93179241D01*
X126584114Y-93178658D01*
X126633214Y-93181340D01*
G37*
X126633214Y-93181340D02*
X126659164Y-93186735D01*
X126661333Y-93189260D01*
X126658354Y-93208276D01*
X126649876Y-93256829D01*
X126636591Y-93331163D01*
X126619192Y-93427518D01*
X126598369Y-93542135D01*
X126574814Y-93671258D01*
X126549219Y-93811127D01*
X126522275Y-93957984D01*
X126494674Y-94108072D01*
X126467107Y-94257631D01*
X126440266Y-94402903D01*
X126414843Y-94540130D01*
X126391528Y-94665554D01*
X126371014Y-94775416D01*
X126353993Y-94865959D01*
X126341154Y-94933423D01*
X126333192Y-94974051D01*
X126331213Y-94983300D01*
X126328287Y-95001225D01*
X126334086Y-95012407D01*
X126354682Y-95018436D01*
X126396147Y-95020903D01*
X126464552Y-95021398D01*
X126476695Y-95021400D01*
X126631369Y-95021400D01*
X126619785Y-95110300D01*
X126610754Y-95170469D01*
X126597425Y-95248588D01*
X126582414Y-95329453D01*
X126579734Y-95343133D01*
X126551267Y-95487067D01*
X126395904Y-95491918D01*
X126240541Y-95496770D01*
X126223955Y-95576585D01*
X126215674Y-95618832D01*
X126202799Y-95687451D01*
X126186613Y-95775464D01*
X126168402Y-95875891D01*
X126150845Y-95973900D01*
X126094321Y-96291400D01*
X125802094Y-96291400D01*
X125706873Y-96290576D01*
X125624635Y-96288291D01*
X125560835Y-96284826D01*
X125520931Y-96280462D01*
X125509866Y-96276373D01*
X125512852Y-96255976D01*
X125521207Y-96207344D01*
X125534025Y-96135525D01*
X125550402Y-96045564D01*
X125569433Y-95942508D01*
X125577426Y-95899606D01*
X125597293Y-95792330D01*
X125614865Y-95695731D01*
X125629230Y-95614965D01*
X125639475Y-95555191D01*
X125644687Y-95521564D01*
X125645159Y-95516700D01*
X125638328Y-95511216D01*
X125616055Y-95506700D01*
X125575818Y-95503073D01*
X125515094Y-95500257D01*
X125431360Y-95498175D01*
X125322094Y-95496749D01*
X125184774Y-95495900D01*
X125016877Y-95495552D01*
X124959533Y-95495533D01*
X124273733Y-95495533D01*
X124273736Y-95457433D01*
X124276759Y-95423086D01*
X124284762Y-95366508D01*
X124296155Y-95298692D01*
X124298864Y-95283867D01*
X124312545Y-95215406D01*
X124326978Y-95168599D01*
X124348542Y-95131701D01*
X124383617Y-95092969D01*
X124423035Y-95055267D01*
X124451240Y-95028530D01*
X124458724Y-95021400D01*
X125113682Y-95021400D01*
X125739135Y-95021400D01*
X125795260Y-94712367D01*
X125813753Y-94610616D01*
X125830748Y-94517242D01*
X125845083Y-94438623D01*
X125855594Y-94381136D01*
X125860863Y-94352533D01*
X125863485Y-94338405D01*
X125864098Y-94328319D01*
X125860510Y-94324162D01*
X125850529Y-94327818D01*
X125831962Y-94341173D01*
X125802616Y-94366113D01*
X125760300Y-94404522D01*
X125702821Y-94458288D01*
X125627986Y-94529294D01*
X125533604Y-94619427D01*
X125417481Y-94730572D01*
X125383741Y-94762873D01*
X125113682Y-95021400D01*
X124458724Y-95021400D01*
X124501740Y-94980420D01*
X124572379Y-94912999D01*
X124661003Y-94828327D01*
X124765455Y-94728466D01*
X124883581Y-94615477D01*
X125013225Y-94491420D01*
X125152233Y-94358358D01*
X125298448Y-94218351D01*
X125449715Y-94073459D01*
X125450056Y-94073133D01*
X126378030Y-93184133D01*
X126519681Y-93179241D01*
X126584114Y-93178658D01*
X126633214Y-93181340D01*
G36*
X131713166Y-93181337D02*
G01*
X131739150Y-93186728D01*
X131741333Y-93189260D01*
X131738354Y-93208276D01*
X131729876Y-93256829D01*
X131716591Y-93331163D01*
X131699192Y-93427518D01*
X131678369Y-93542135D01*
X131654814Y-93671258D01*
X131629219Y-93811127D01*
X131602275Y-93957984D01*
X131574674Y-94108072D01*
X131547107Y-94257631D01*
X131520266Y-94402903D01*
X131494843Y-94540130D01*
X131471528Y-94665554D01*
X131451014Y-94775416D01*
X131433993Y-94865959D01*
X131421154Y-94933423D01*
X131413192Y-94974051D01*
X131411213Y-94983300D01*
X131408287Y-95001225D01*
X131414086Y-95012407D01*
X131434682Y-95018436D01*
X131476147Y-95020903D01*
X131544552Y-95021398D01*
X131556695Y-95021400D01*
X131711369Y-95021400D01*
X131699785Y-95110300D01*
X131690754Y-95170469D01*
X131677425Y-95248588D01*
X131662414Y-95329453D01*
X131659734Y-95343133D01*
X131631267Y-95487067D01*
X131475904Y-95491918D01*
X131320541Y-95496770D01*
X131303955Y-95576585D01*
X131295674Y-95618832D01*
X131282799Y-95687451D01*
X131266613Y-95775464D01*
X131248402Y-95875891D01*
X131230845Y-95973900D01*
X131174321Y-96291400D01*
X130882094Y-96291400D01*
X130786873Y-96290576D01*
X130704635Y-96288291D01*
X130640835Y-96284826D01*
X130600931Y-96280462D01*
X130589867Y-96276373D01*
X130592852Y-96255976D01*
X130601207Y-96207344D01*
X130614025Y-96135525D01*
X130630402Y-96045564D01*
X130649433Y-95942508D01*
X130657426Y-95899606D01*
X130677293Y-95792330D01*
X130694865Y-95695731D01*
X130709230Y-95614965D01*
X130719475Y-95555191D01*
X130724687Y-95521564D01*
X130725159Y-95516700D01*
X130718324Y-95511206D01*
X130696035Y-95506683D01*
X130655765Y-95503052D01*
X130594988Y-95500236D01*
X130511175Y-95498156D01*
X130401800Y-95496734D01*
X130264335Y-95495892D01*
X130096254Y-95495550D01*
X130042355Y-95495533D01*
X129893590Y-95495328D01*
X129755575Y-95494742D01*
X129631941Y-95493821D01*
X129526318Y-95492609D01*
X129442333Y-95491151D01*
X129383618Y-95489492D01*
X129353801Y-95487678D01*
X129350823Y-95486978D01*
X129350137Y-95467762D01*
X129355180Y-95422892D01*
X129364973Y-95359913D01*
X129373315Y-95313411D01*
X129404363Y-95148400D01*
X129510281Y-95047793D01*
X129537976Y-95021400D01*
X130192612Y-95021400D01*
X130819135Y-95021400D01*
X130875260Y-94712367D01*
X130893753Y-94610616D01*
X130910748Y-94517242D01*
X130925083Y-94438623D01*
X130935594Y-94381136D01*
X130940863Y-94352533D01*
X130943541Y-94338443D01*
X130944368Y-94328226D01*
X130941149Y-94323768D01*
X130931688Y-94326953D01*
X130913790Y-94339667D01*
X130885262Y-94363796D01*
X130843908Y-94401225D01*
X130787533Y-94453840D01*
X130713942Y-94523527D01*
X130620941Y-94612170D01*
X130506335Y-94721655D01*
X130463206Y-94762865D01*
X130192612Y-95021400D01*
X129537976Y-95021400D01*
X129539708Y-95019750D01*
X129591409Y-94970378D01*
X129663195Y-94901768D01*
X129752881Y-94816013D01*
X129858277Y-94715207D01*
X129977196Y-94601440D01*
X130107451Y-94476807D01*
X130246855Y-94343398D01*
X130393220Y-94203308D01*
X130537013Y-94065660D01*
X131457825Y-93184133D01*
X131599579Y-93179241D01*
X131664037Y-93178657D01*
X131713166Y-93181337D01*
G37*
X131713166Y-93181337D02*
X131739150Y-93186728D01*
X131741333Y-93189260D01*
X131738354Y-93208276D01*
X131729876Y-93256829D01*
X131716591Y-93331163D01*
X131699192Y-93427518D01*
X131678369Y-93542135D01*
X131654814Y-93671258D01*
X131629219Y-93811127D01*
X131602275Y-93957984D01*
X131574674Y-94108072D01*
X131547107Y-94257631D01*
X131520266Y-94402903D01*
X131494843Y-94540130D01*
X131471528Y-94665554D01*
X131451014Y-94775416D01*
X131433993Y-94865959D01*
X131421154Y-94933423D01*
X131413192Y-94974051D01*
X131411213Y-94983300D01*
X131408287Y-95001225D01*
X131414086Y-95012407D01*
X131434682Y-95018436D01*
X131476147Y-95020903D01*
X131544552Y-95021398D01*
X131556695Y-95021400D01*
X131711369Y-95021400D01*
X131699785Y-95110300D01*
X131690754Y-95170469D01*
X131677425Y-95248588D01*
X131662414Y-95329453D01*
X131659734Y-95343133D01*
X131631267Y-95487067D01*
X131475904Y-95491918D01*
X131320541Y-95496770D01*
X131303955Y-95576585D01*
X131295674Y-95618832D01*
X131282799Y-95687451D01*
X131266613Y-95775464D01*
X131248402Y-95875891D01*
X131230845Y-95973900D01*
X131174321Y-96291400D01*
X130882094Y-96291400D01*
X130786873Y-96290576D01*
X130704635Y-96288291D01*
X130640835Y-96284826D01*
X130600931Y-96280462D01*
X130589867Y-96276373D01*
X130592852Y-96255976D01*
X130601207Y-96207344D01*
X130614025Y-96135525D01*
X130630402Y-96045564D01*
X130649433Y-95942508D01*
X130657426Y-95899606D01*
X130677293Y-95792330D01*
X130694865Y-95695731D01*
X130709230Y-95614965D01*
X130719475Y-95555191D01*
X130724687Y-95521564D01*
X130725159Y-95516700D01*
X130718324Y-95511206D01*
X130696035Y-95506683D01*
X130655765Y-95503052D01*
X130594988Y-95500236D01*
X130511175Y-95498156D01*
X130401800Y-95496734D01*
X130264335Y-95495892D01*
X130096254Y-95495550D01*
X130042355Y-95495533D01*
X129893590Y-95495328D01*
X129755575Y-95494742D01*
X129631941Y-95493821D01*
X129526318Y-95492609D01*
X129442333Y-95491151D01*
X129383618Y-95489492D01*
X129353801Y-95487678D01*
X129350823Y-95486978D01*
X129350137Y-95467762D01*
X129355180Y-95422892D01*
X129364973Y-95359913D01*
X129373315Y-95313411D01*
X129404363Y-95148400D01*
X129510281Y-95047793D01*
X129537976Y-95021400D01*
X130192612Y-95021400D01*
X130819135Y-95021400D01*
X130875260Y-94712367D01*
X130893753Y-94610616D01*
X130910748Y-94517242D01*
X130925083Y-94438623D01*
X130935594Y-94381136D01*
X130940863Y-94352533D01*
X130943541Y-94338443D01*
X130944368Y-94328226D01*
X130941149Y-94323768D01*
X130931688Y-94326953D01*
X130913790Y-94339667D01*
X130885262Y-94363796D01*
X130843908Y-94401225D01*
X130787533Y-94453840D01*
X130713942Y-94523527D01*
X130620941Y-94612170D01*
X130506335Y-94721655D01*
X130463206Y-94762865D01*
X130192612Y-95021400D01*
X129537976Y-95021400D01*
X129539708Y-95019750D01*
X129591409Y-94970378D01*
X129663195Y-94901768D01*
X129752881Y-94816013D01*
X129858277Y-94715207D01*
X129977196Y-94601440D01*
X130107451Y-94476807D01*
X130246855Y-94343398D01*
X130393220Y-94203308D01*
X130537013Y-94065660D01*
X131457825Y-93184133D01*
X131599579Y-93179241D01*
X131664037Y-93178657D01*
X131713166Y-93181337D01*
D13*
%TO.C,C3*%
X139460000Y-86134000D02*
X139460000Y-90344000D01*
X139460000Y-90344000D02*
X142480000Y-90344000D01*
X142480000Y-90344000D02*
X142480000Y-86134000D01*
%TO.C,U2*%
X132353000Y-91603000D02*
X132353000Y-85593000D01*
X139173000Y-89353000D02*
X139173000Y-85593000D01*
X132353000Y-85593000D02*
X133613000Y-85593000D01*
X139173000Y-85593000D02*
X137913000Y-85593000D01*
D10*
%TO.C,U1*%
X144795000Y-94023000D02*
X144795000Y-95423000D01*
X149895000Y-94023000D02*
X149895000Y-89873000D01*
X144745000Y-94023000D02*
X144745000Y-89873000D01*
X149895000Y-94023000D02*
X149750000Y-94023000D01*
X149895000Y-89873000D02*
X149750000Y-89873000D01*
X144745000Y-89873000D02*
X144890000Y-89873000D01*
X144745000Y-94023000D02*
X144795000Y-94023000D01*
D13*
%TO.C,R13*%
X137682500Y-74676724D02*
X137682500Y-74167276D01*
X136637500Y-74676724D02*
X136637500Y-74167276D01*
%TO.C,R12*%
X120649276Y-83199500D02*
X121158724Y-83199500D01*
X120649276Y-82154500D02*
X121158724Y-82154500D01*
%TO.C,R11*%
X159512724Y-88279500D02*
X159003276Y-88279500D01*
X159512724Y-87234500D02*
X159003276Y-87234500D01*
%TO.C,R10*%
X141844500Y-104775724D02*
X141844500Y-104266276D01*
X142889500Y-104775724D02*
X142889500Y-104266276D01*
%TO.C,R9*%
X136637500Y-65404276D02*
X136637500Y-65913724D01*
X137682500Y-65404276D02*
X137682500Y-65913724D01*
%TO.C,R8*%
X130810724Y-87869500D02*
X130301276Y-87869500D01*
X130810724Y-88914500D02*
X130301276Y-88914500D01*
%TO.C,R7*%
X139573724Y-94219500D02*
X139064276Y-94219500D01*
X139573724Y-95264500D02*
X139064276Y-95264500D01*
%TO.C,R6*%
X141336500Y-93725276D02*
X141336500Y-94234724D01*
X142381500Y-93725276D02*
X142381500Y-94234724D01*
%TO.C,R5*%
X141272240Y-73673233D02*
X141781688Y-73673233D01*
X141272240Y-74718233D02*
X141781688Y-74718233D01*
%TO.C,R4*%
X122313122Y-85386439D02*
X122313122Y-84876991D01*
X121268122Y-85386439D02*
X121268122Y-84876991D01*
%TO.C,R3*%
X140036724Y-103236500D02*
X139527276Y-103236500D01*
X140036724Y-104281500D02*
X139527276Y-104281500D01*
%TO.C,R2*%
X157973500Y-84988290D02*
X157973500Y-85497738D01*
X159018500Y-84988290D02*
X159018500Y-85497738D01*
%TO.C,R1*%
X139445276Y-66816500D02*
X139954724Y-66816500D01*
X139445276Y-65771500D02*
X139954724Y-65771500D01*
%TO.C,L1*%
X143002724Y-90663500D02*
X142493276Y-90663500D01*
X143002724Y-91708500D02*
X142493276Y-91708500D01*
%TO.C,D7*%
X132216000Y-86133000D02*
X129756000Y-86133000D01*
X132216000Y-87603000D02*
X132216000Y-86133000D01*
X129756000Y-87603000D02*
X132216000Y-87603000D01*
%TO.C,D6*%
X142622000Y-88093000D02*
X142622000Y-81193000D01*
X145922000Y-88093000D02*
X145922000Y-81193000D01*
X142622000Y-88093000D02*
X145922000Y-88093000D01*
%TO.C,D5*%
X142326964Y-74897574D02*
X139866964Y-74897574D01*
X139866964Y-74897574D02*
X139866964Y-76367574D01*
X139866964Y-76367574D02*
X142326964Y-76367574D01*
%TO.C,D4*%
X119439176Y-83471715D02*
X119439176Y-85931715D01*
X120909176Y-83471715D02*
X119439176Y-83471715D01*
X120909176Y-85931715D02*
X120909176Y-83471715D01*
%TO.C,D3*%
X138122000Y-106018000D02*
X140582000Y-106018000D01*
X138122000Y-104548000D02*
X138122000Y-106018000D01*
X140582000Y-104548000D02*
X138122000Y-104548000D01*
%TO.C,D2*%
X160755000Y-86877000D02*
X160755000Y-84417000D01*
X159285000Y-86877000D02*
X160755000Y-86877000D01*
X159285000Y-84417000D02*
X159285000Y-86877000D01*
%TO.C,D1*%
X141360000Y-64035000D02*
X138900000Y-64035000D01*
X141360000Y-65505000D02*
X141360000Y-64035000D01*
X138900000Y-65505000D02*
X141360000Y-65505000D01*
%TO.C,CH4*%
X117475000Y-87690000D02*
X116145000Y-87690000D01*
X116145000Y-87690000D02*
X116145000Y-86360000D01*
X116145000Y-85090000D02*
X116145000Y-82490000D01*
X118805000Y-82490000D02*
X116145000Y-82490000D01*
X118805000Y-85090000D02*
X118805000Y-82490000D01*
X118805000Y-85090000D02*
X116145000Y-85090000D01*
%TO.C,CH3*%
X142402200Y-107950000D02*
X142402200Y-109280000D01*
X142402200Y-109280000D02*
X141072200Y-109280000D01*
X139802200Y-109280000D02*
X137202200Y-109280000D01*
X137202200Y-106620000D02*
X137202200Y-109280000D01*
X139802200Y-106620000D02*
X137202200Y-106620000D01*
X139802200Y-106620000D02*
X139802200Y-109280000D01*
%TO.C,CH2*%
X162560000Y-87690000D02*
X161230000Y-87690000D01*
X161230000Y-87690000D02*
X161230000Y-86360000D01*
X161230000Y-85090000D02*
X161230000Y-82490000D01*
X163890000Y-82490000D02*
X161230000Y-82490000D01*
X163890000Y-85090000D02*
X163890000Y-82490000D01*
X163890000Y-85090000D02*
X161230000Y-85090000D01*
%TO.C,CH1*%
X142300000Y-62230000D02*
X142300000Y-63560000D01*
X142300000Y-63560000D02*
X140970000Y-63560000D01*
X139700000Y-63560000D02*
X137100000Y-63560000D01*
X137100000Y-60900000D02*
X137100000Y-63560000D01*
X139700000Y-60900000D02*
X137100000Y-60900000D01*
X139700000Y-60900000D02*
X139700000Y-63560000D01*
%TO.C,C14*%
X136736267Y-77782769D02*
X136736267Y-78075303D01*
X137756267Y-77782769D02*
X137756267Y-78075303D01*
%TO.C,C13*%
X136139821Y-78039778D02*
X136139821Y-77747244D01*
X135119821Y-78039778D02*
X135119821Y-77747244D01*
%TO.C,C12*%
X131886929Y-77747244D02*
X131886929Y-78039778D01*
X132906929Y-77747244D02*
X132906929Y-78039778D01*
%TO.C,C11*%
X134523375Y-78075303D02*
X134523375Y-77782769D01*
X133503375Y-78075303D02*
X133503375Y-77782769D01*
%TO.C,C10*%
X139372713Y-77782769D02*
X139372713Y-78075303D01*
X138352713Y-77782769D02*
X138352713Y-78075303D01*
%TO.C,C9*%
X137756267Y-81468201D02*
X137756267Y-81175667D01*
X136736267Y-81468201D02*
X136736267Y-81175667D01*
%TO.C,C8*%
X135119821Y-81175667D02*
X135119821Y-81468201D01*
X136139821Y-81175667D02*
X136139821Y-81468201D01*
%TO.C,C7*%
X134523375Y-81468201D02*
X134523375Y-81175667D01*
X133503375Y-81468201D02*
X133503375Y-81175667D01*
%TO.C,C6*%
X131886929Y-81175667D02*
X131886929Y-81468201D01*
X132906929Y-81175667D02*
X132906929Y-81468201D01*
%TO.C,C5*%
X138352713Y-81468201D02*
X138352713Y-81175667D01*
X139372713Y-81468201D02*
X139372713Y-81175667D01*
%TO.C,C4*%
X139465267Y-92581000D02*
X139172733Y-92581000D01*
X139465267Y-93601000D02*
X139172733Y-93601000D01*
%TO.C,C2*%
X144147000Y-94126267D02*
X144147000Y-93833733D01*
X143127000Y-94126267D02*
X143127000Y-93833733D01*
%TO.C,C1*%
X147427733Y-87886000D02*
X147720267Y-87886000D01*
X147427733Y-86866000D02*
X147720267Y-86866000D01*
%TO.C,C3*%
D10*
X140803333Y-88241142D02*
X140755714Y-88288761D01*
X140612857Y-88336380D01*
X140517619Y-88336380D01*
X140374761Y-88288761D01*
X140279523Y-88193523D01*
X140231904Y-88098285D01*
X140184285Y-87907809D01*
X140184285Y-87764952D01*
X140231904Y-87574476D01*
X140279523Y-87479238D01*
X140374761Y-87384000D01*
X140517619Y-87336380D01*
X140612857Y-87336380D01*
X140755714Y-87384000D01*
X140803333Y-87431619D01*
X141136666Y-87336380D02*
X141755714Y-87336380D01*
X141422380Y-87717333D01*
X141565238Y-87717333D01*
X141660476Y-87764952D01*
X141708095Y-87812571D01*
X141755714Y-87907809D01*
X141755714Y-88145904D01*
X141708095Y-88241142D01*
X141660476Y-88288761D01*
X141565238Y-88336380D01*
X141279523Y-88336380D01*
X141184285Y-88288761D01*
X141136666Y-88241142D01*
%TO.C,H4*%
X164155380Y-66928904D02*
X163155380Y-66928904D01*
X163631571Y-66928904D02*
X163631571Y-66357476D01*
X164155380Y-66357476D02*
X163155380Y-66357476D01*
X163488714Y-65452714D02*
X164155380Y-65452714D01*
X163107761Y-65690809D02*
X163822047Y-65928904D01*
X163822047Y-65309857D01*
%TO.C,Battery*%
X154795786Y-67318771D02*
X154863129Y-67453458D01*
X154863129Y-67520801D01*
X154829458Y-67621816D01*
X154728442Y-67722832D01*
X154627427Y-67756503D01*
X154560084Y-67756503D01*
X154459068Y-67722832D01*
X154189694Y-67453458D01*
X154896801Y-66746351D01*
X155132503Y-66982053D01*
X155166175Y-67083068D01*
X155166175Y-67150412D01*
X155132503Y-67251427D01*
X155065160Y-67318771D01*
X154964145Y-67352442D01*
X154896801Y-67352442D01*
X154795786Y-67318771D01*
X154560084Y-67083068D01*
X155199847Y-68463610D02*
X155570236Y-68093221D01*
X155603908Y-67992206D01*
X155570236Y-67891190D01*
X155435549Y-67756503D01*
X155334534Y-67722832D01*
X155233519Y-68429938D02*
X155132503Y-68396267D01*
X154964145Y-68227908D01*
X154930473Y-68126893D01*
X154964145Y-68025877D01*
X155031488Y-67958534D01*
X155132503Y-67924862D01*
X155233519Y-67958534D01*
X155401877Y-68126893D01*
X155502893Y-68160564D01*
X155906954Y-68227908D02*
X156176328Y-68497282D01*
X156243671Y-68093221D02*
X155637580Y-68699312D01*
X155603908Y-68800328D01*
X155637580Y-68901343D01*
X155704923Y-68968687D01*
X156311015Y-68631969D02*
X156580389Y-68901343D01*
X156647732Y-68497282D02*
X156041641Y-69103374D01*
X156007969Y-69204389D01*
X156041641Y-69305404D01*
X156108984Y-69372748D01*
X156647732Y-69844152D02*
X156546717Y-69810480D01*
X156412030Y-69675793D01*
X156378358Y-69574778D01*
X156412030Y-69473763D01*
X156681404Y-69204389D01*
X156782419Y-69170717D01*
X156883435Y-69204389D01*
X157018122Y-69339076D01*
X157051793Y-69440091D01*
X157018122Y-69541106D01*
X156950778Y-69608450D01*
X156546717Y-69339076D01*
X156950778Y-70214541D02*
X157422183Y-69743137D01*
X157287496Y-69877824D02*
X157388511Y-69844152D01*
X157455854Y-69844152D01*
X157556870Y-69877824D01*
X157624213Y-69945167D01*
X157792572Y-70113526D02*
X157489526Y-70753289D01*
X158129289Y-70450244D02*
X157489526Y-70753289D01*
X157253824Y-70854305D01*
X157186480Y-70854305D01*
X157085465Y-70820633D01*
%TO.C,H2*%
X120523095Y-109164380D02*
X120523095Y-108164380D01*
X120523095Y-108640571D02*
X121094523Y-108640571D01*
X121094523Y-109164380D02*
X121094523Y-108164380D01*
X121523095Y-108259619D02*
X121570714Y-108212000D01*
X121665952Y-108164380D01*
X121904047Y-108164380D01*
X121999285Y-108212000D01*
X122046904Y-108259619D01*
X122094523Y-108354857D01*
X122094523Y-108450095D01*
X122046904Y-108592952D01*
X121475476Y-109164380D01*
X122094523Y-109164380D01*
%TO.C,U2*%
X133223095Y-86828380D02*
X133223095Y-87637904D01*
X133270714Y-87733142D01*
X133318333Y-87780761D01*
X133413571Y-87828380D01*
X133604047Y-87828380D01*
X133699285Y-87780761D01*
X133746904Y-87733142D01*
X133794523Y-87637904D01*
X133794523Y-86828380D01*
X134223095Y-86923619D02*
X134270714Y-86876000D01*
X134365952Y-86828380D01*
X134604047Y-86828380D01*
X134699285Y-86876000D01*
X134746904Y-86923619D01*
X134794523Y-87018857D01*
X134794523Y-87114095D01*
X134746904Y-87256952D01*
X134175476Y-87828380D01*
X134794523Y-87828380D01*
%TO.C,U1*%
X143272380Y-92709904D02*
X144081904Y-92709904D01*
X144177142Y-92662285D01*
X144224761Y-92614666D01*
X144272380Y-92519428D01*
X144272380Y-92328952D01*
X144224761Y-92233714D01*
X144177142Y-92186095D01*
X144081904Y-92138476D01*
X143272380Y-92138476D01*
X144272380Y-91138476D02*
X144272380Y-91709904D01*
X144272380Y-91424190D02*
X143272380Y-91424190D01*
X143415238Y-91519428D01*
X143510476Y-91614666D01*
X143558095Y-91709904D01*
%TO.C,R13*%
X136215380Y-75064857D02*
X135739190Y-75398190D01*
X136215380Y-75636285D02*
X135215380Y-75636285D01*
X135215380Y-75255333D01*
X135263000Y-75160095D01*
X135310619Y-75112476D01*
X135405857Y-75064857D01*
X135548714Y-75064857D01*
X135643952Y-75112476D01*
X135691571Y-75160095D01*
X135739190Y-75255333D01*
X135739190Y-75636285D01*
X136215380Y-74112476D02*
X136215380Y-74683904D01*
X136215380Y-74398190D02*
X135215380Y-74398190D01*
X135358238Y-74493428D01*
X135453476Y-74588666D01*
X135501095Y-74683904D01*
X135215380Y-73779142D02*
X135215380Y-73160095D01*
X135596333Y-73493428D01*
X135596333Y-73350571D01*
X135643952Y-73255333D01*
X135691571Y-73207714D01*
X135786809Y-73160095D01*
X136024904Y-73160095D01*
X136120142Y-73207714D01*
X136167761Y-73255333D01*
X136215380Y-73350571D01*
X136215380Y-73636285D01*
X136167761Y-73731523D01*
X136120142Y-73779142D01*
%TO.C,R12*%
X120134142Y-81732380D02*
X119800809Y-81256190D01*
X119562714Y-81732380D02*
X119562714Y-80732380D01*
X119943666Y-80732380D01*
X120038904Y-80780000D01*
X120086523Y-80827619D01*
X120134142Y-80922857D01*
X120134142Y-81065714D01*
X120086523Y-81160952D01*
X120038904Y-81208571D01*
X119943666Y-81256190D01*
X119562714Y-81256190D01*
X121086523Y-81732380D02*
X120515095Y-81732380D01*
X120800809Y-81732380D02*
X120800809Y-80732380D01*
X120705571Y-80875238D01*
X120610333Y-80970476D01*
X120515095Y-81018095D01*
X121467476Y-80827619D02*
X121515095Y-80780000D01*
X121610333Y-80732380D01*
X121848428Y-80732380D01*
X121943666Y-80780000D01*
X121991285Y-80827619D01*
X122038904Y-80922857D01*
X122038904Y-81018095D01*
X121991285Y-81160952D01*
X121419857Y-81732380D01*
X122038904Y-81732380D01*
%TO.C,R11*%
X158742142Y-86939380D02*
X158408809Y-86463190D01*
X158170714Y-86939380D02*
X158170714Y-85939380D01*
X158551666Y-85939380D01*
X158646904Y-85987000D01*
X158694523Y-86034619D01*
X158742142Y-86129857D01*
X158742142Y-86272714D01*
X158694523Y-86367952D01*
X158646904Y-86415571D01*
X158551666Y-86463190D01*
X158170714Y-86463190D01*
X159694523Y-86939380D02*
X159123095Y-86939380D01*
X159408809Y-86939380D02*
X159408809Y-85939380D01*
X159313571Y-86082238D01*
X159218333Y-86177476D01*
X159123095Y-86225095D01*
X160646904Y-86939380D02*
X160075476Y-86939380D01*
X160361190Y-86939380D02*
X160361190Y-85939380D01*
X160265952Y-86082238D01*
X160170714Y-86177476D01*
X160075476Y-86225095D01*
%TO.C,R10*%
X141422380Y-105671857D02*
X140946190Y-106005190D01*
X141422380Y-106243285D02*
X140422380Y-106243285D01*
X140422380Y-105862333D01*
X140470000Y-105767095D01*
X140517619Y-105719476D01*
X140612857Y-105671857D01*
X140755714Y-105671857D01*
X140850952Y-105719476D01*
X140898571Y-105767095D01*
X140946190Y-105862333D01*
X140946190Y-106243285D01*
X141422380Y-104719476D02*
X141422380Y-105290904D01*
X141422380Y-105005190D02*
X140422380Y-105005190D01*
X140565238Y-105100428D01*
X140660476Y-105195666D01*
X140708095Y-105290904D01*
X140422380Y-104100428D02*
X140422380Y-104005190D01*
X140470000Y-103909952D01*
X140517619Y-103862333D01*
X140612857Y-103814714D01*
X140803333Y-103767095D01*
X141041428Y-103767095D01*
X141231904Y-103814714D01*
X141327142Y-103862333D01*
X141374761Y-103909952D01*
X141422380Y-104005190D01*
X141422380Y-104100428D01*
X141374761Y-104195666D01*
X141327142Y-104243285D01*
X141231904Y-104290904D01*
X141041428Y-104338523D01*
X140803333Y-104338523D01*
X140612857Y-104290904D01*
X140517619Y-104243285D01*
X140470000Y-104195666D01*
X140422380Y-104100428D01*
%TO.C,R9*%
X137739380Y-68238666D02*
X137263190Y-68572000D01*
X137739380Y-68810095D02*
X136739380Y-68810095D01*
X136739380Y-68429142D01*
X136787000Y-68333904D01*
X136834619Y-68286285D01*
X136929857Y-68238666D01*
X137072714Y-68238666D01*
X137167952Y-68286285D01*
X137215571Y-68333904D01*
X137263190Y-68429142D01*
X137263190Y-68810095D01*
X137739380Y-67762476D02*
X137739380Y-67572000D01*
X137691761Y-67476761D01*
X137644142Y-67429142D01*
X137501285Y-67333904D01*
X137310809Y-67286285D01*
X136929857Y-67286285D01*
X136834619Y-67333904D01*
X136787000Y-67381523D01*
X136739380Y-67476761D01*
X136739380Y-67667238D01*
X136787000Y-67762476D01*
X136834619Y-67810095D01*
X136929857Y-67857714D01*
X137167952Y-67857714D01*
X137263190Y-67810095D01*
X137310809Y-67762476D01*
X137358428Y-67667238D01*
X137358428Y-67476761D01*
X137310809Y-67381523D01*
X137263190Y-67333904D01*
X137167952Y-67286285D01*
%TO.C,R8*%
X127976333Y-88971380D02*
X127643000Y-88495190D01*
X127404904Y-88971380D02*
X127404904Y-87971380D01*
X127785857Y-87971380D01*
X127881095Y-88019000D01*
X127928714Y-88066619D01*
X127976333Y-88161857D01*
X127976333Y-88304714D01*
X127928714Y-88399952D01*
X127881095Y-88447571D01*
X127785857Y-88495190D01*
X127404904Y-88495190D01*
X128547761Y-88399952D02*
X128452523Y-88352333D01*
X128404904Y-88304714D01*
X128357285Y-88209476D01*
X128357285Y-88161857D01*
X128404904Y-88066619D01*
X128452523Y-88019000D01*
X128547761Y-87971380D01*
X128738238Y-87971380D01*
X128833476Y-88019000D01*
X128881095Y-88066619D01*
X128928714Y-88161857D01*
X128928714Y-88209476D01*
X128881095Y-88304714D01*
X128833476Y-88352333D01*
X128738238Y-88399952D01*
X128547761Y-88399952D01*
X128452523Y-88447571D01*
X128404904Y-88495190D01*
X128357285Y-88590428D01*
X128357285Y-88780904D01*
X128404904Y-88876142D01*
X128452523Y-88923761D01*
X128547761Y-88971380D01*
X128738238Y-88971380D01*
X128833476Y-88923761D01*
X128881095Y-88876142D01*
X128928714Y-88780904D01*
X128928714Y-88590428D01*
X128881095Y-88495190D01*
X128833476Y-88447571D01*
X128738238Y-88399952D01*
%TO.C,R7*%
X136358333Y-95194380D02*
X136025000Y-94718190D01*
X135786904Y-95194380D02*
X135786904Y-94194380D01*
X136167857Y-94194380D01*
X136263095Y-94242000D01*
X136310714Y-94289619D01*
X136358333Y-94384857D01*
X136358333Y-94527714D01*
X136310714Y-94622952D01*
X136263095Y-94670571D01*
X136167857Y-94718190D01*
X135786904Y-94718190D01*
X136691666Y-94194380D02*
X137358333Y-94194380D01*
X136929761Y-95194380D01*
%TO.C,R6*%
X142438380Y-96686666D02*
X141962190Y-97020000D01*
X142438380Y-97258095D02*
X141438380Y-97258095D01*
X141438380Y-96877142D01*
X141486000Y-96781904D01*
X141533619Y-96734285D01*
X141628857Y-96686666D01*
X141771714Y-96686666D01*
X141866952Y-96734285D01*
X141914571Y-96781904D01*
X141962190Y-96877142D01*
X141962190Y-97258095D01*
X141438380Y-95829523D02*
X141438380Y-96020000D01*
X141486000Y-96115238D01*
X141533619Y-96162857D01*
X141676476Y-96258095D01*
X141866952Y-96305714D01*
X142247904Y-96305714D01*
X142343142Y-96258095D01*
X142390761Y-96210476D01*
X142438380Y-96115238D01*
X142438380Y-95924761D01*
X142390761Y-95829523D01*
X142343142Y-95781904D01*
X142247904Y-95734285D01*
X142009809Y-95734285D01*
X141914571Y-95781904D01*
X141866952Y-95829523D01*
X141819333Y-95924761D01*
X141819333Y-96115238D01*
X141866952Y-96210476D01*
X141914571Y-96258095D01*
X142009809Y-96305714D01*
%TO.C,R5*%
X143851333Y-74747380D02*
X143518000Y-74271190D01*
X143279904Y-74747380D02*
X143279904Y-73747380D01*
X143660857Y-73747380D01*
X143756095Y-73795000D01*
X143803714Y-73842619D01*
X143851333Y-73937857D01*
X143851333Y-74080714D01*
X143803714Y-74175952D01*
X143756095Y-74223571D01*
X143660857Y-74271190D01*
X143279904Y-74271190D01*
X144756095Y-73747380D02*
X144279904Y-73747380D01*
X144232285Y-74223571D01*
X144279904Y-74175952D01*
X144375142Y-74128333D01*
X144613238Y-74128333D01*
X144708476Y-74175952D01*
X144756095Y-74223571D01*
X144803714Y-74318809D01*
X144803714Y-74556904D01*
X144756095Y-74652142D01*
X144708476Y-74699761D01*
X144613238Y-74747380D01*
X144375142Y-74747380D01*
X144279904Y-74699761D01*
X144232285Y-74652142D01*
%TO.C,R4*%
X122372380Y-87796666D02*
X121896190Y-88130000D01*
X122372380Y-88368095D02*
X121372380Y-88368095D01*
X121372380Y-87987142D01*
X121420000Y-87891904D01*
X121467619Y-87844285D01*
X121562857Y-87796666D01*
X121705714Y-87796666D01*
X121800952Y-87844285D01*
X121848571Y-87891904D01*
X121896190Y-87987142D01*
X121896190Y-88368095D01*
X121705714Y-86939523D02*
X122372380Y-86939523D01*
X121324761Y-87177619D02*
X122039047Y-87415714D01*
X122039047Y-86796666D01*
%TO.C,R3*%
X136612333Y-104338380D02*
X136279000Y-103862190D01*
X136040904Y-104338380D02*
X136040904Y-103338380D01*
X136421857Y-103338380D01*
X136517095Y-103386000D01*
X136564714Y-103433619D01*
X136612333Y-103528857D01*
X136612333Y-103671714D01*
X136564714Y-103766952D01*
X136517095Y-103814571D01*
X136421857Y-103862190D01*
X136040904Y-103862190D01*
X136945666Y-103338380D02*
X137564714Y-103338380D01*
X137231380Y-103719333D01*
X137374238Y-103719333D01*
X137469476Y-103766952D01*
X137517095Y-103814571D01*
X137564714Y-103909809D01*
X137564714Y-104147904D01*
X137517095Y-104243142D01*
X137469476Y-104290761D01*
X137374238Y-104338380D01*
X137088523Y-104338380D01*
X136993285Y-104290761D01*
X136945666Y-104243142D01*
%TO.C,R2*%
X158948380Y-82843666D02*
X158472190Y-83177000D01*
X158948380Y-83415095D02*
X157948380Y-83415095D01*
X157948380Y-83034142D01*
X157996000Y-82938904D01*
X158043619Y-82891285D01*
X158138857Y-82843666D01*
X158281714Y-82843666D01*
X158376952Y-82891285D01*
X158424571Y-82938904D01*
X158472190Y-83034142D01*
X158472190Y-83415095D01*
X158043619Y-82462714D02*
X157996000Y-82415095D01*
X157948380Y-82319857D01*
X157948380Y-82081761D01*
X157996000Y-81986523D01*
X158043619Y-81938904D01*
X158138857Y-81891285D01*
X158234095Y-81891285D01*
X158376952Y-81938904D01*
X158948380Y-82510333D01*
X158948380Y-81891285D01*
%TO.C,R1*%
X142327333Y-67000380D02*
X141994000Y-66524190D01*
X141755904Y-67000380D02*
X141755904Y-66000380D01*
X142136857Y-66000380D01*
X142232095Y-66048000D01*
X142279714Y-66095619D01*
X142327333Y-66190857D01*
X142327333Y-66333714D01*
X142279714Y-66428952D01*
X142232095Y-66476571D01*
X142136857Y-66524190D01*
X141755904Y-66524190D01*
X143279714Y-67000380D02*
X142708285Y-67000380D01*
X142994000Y-67000380D02*
X142994000Y-66000380D01*
X142898761Y-66143238D01*
X142803523Y-66238476D01*
X142708285Y-66286095D01*
%TO.C,L1*%
X139787333Y-91765380D02*
X139311142Y-91765380D01*
X139311142Y-90765380D01*
X140644476Y-91765380D02*
X140073047Y-91765380D01*
X140358761Y-91765380D02*
X140358761Y-90765380D01*
X140263523Y-90908238D01*
X140168285Y-91003476D01*
X140073047Y-91051095D01*
%TO.C,H3*%
X157861095Y-109291380D02*
X157861095Y-108291380D01*
X157861095Y-108767571D02*
X158432523Y-108767571D01*
X158432523Y-109291380D02*
X158432523Y-108291380D01*
X158813476Y-108291380D02*
X159432523Y-108291380D01*
X159099190Y-108672333D01*
X159242047Y-108672333D01*
X159337285Y-108719952D01*
X159384904Y-108767571D01*
X159432523Y-108862809D01*
X159432523Y-109100904D01*
X159384904Y-109196142D01*
X159337285Y-109243761D01*
X159242047Y-109291380D01*
X158956333Y-109291380D01*
X158861095Y-109243761D01*
X158813476Y-109196142D01*
%TO.C,H1*%
X116784380Y-67055904D02*
X115784380Y-67055904D01*
X116260571Y-67055904D02*
X116260571Y-66484476D01*
X116784380Y-66484476D02*
X115784380Y-66484476D01*
X116784380Y-65484476D02*
X116784380Y-66055904D01*
X116784380Y-65770190D02*
X115784380Y-65770190D01*
X115927238Y-65865428D01*
X116022476Y-65960666D01*
X116070095Y-66055904D01*
%TO.C,D7*%
X128928904Y-85923380D02*
X128928904Y-84923380D01*
X129167000Y-84923380D01*
X129309857Y-84971000D01*
X129405095Y-85066238D01*
X129452714Y-85161476D01*
X129500333Y-85351952D01*
X129500333Y-85494809D01*
X129452714Y-85685285D01*
X129405095Y-85780523D01*
X129309857Y-85875761D01*
X129167000Y-85923380D01*
X128928904Y-85923380D01*
X129833666Y-84923380D02*
X130500333Y-84923380D01*
X130071761Y-85923380D01*
%TO.C,D6*%
X143279904Y-84145380D02*
X143279904Y-83145380D01*
X143518000Y-83145380D01*
X143660857Y-83193000D01*
X143756095Y-83288238D01*
X143803714Y-83383476D01*
X143851333Y-83573952D01*
X143851333Y-83716809D01*
X143803714Y-83907285D01*
X143756095Y-84002523D01*
X143660857Y-84097761D01*
X143518000Y-84145380D01*
X143279904Y-84145380D01*
X144708476Y-83145380D02*
X144518000Y-83145380D01*
X144422761Y-83193000D01*
X144375142Y-83240619D01*
X144279904Y-83383476D01*
X144232285Y-83573952D01*
X144232285Y-83954904D01*
X144279904Y-84050142D01*
X144327523Y-84097761D01*
X144422761Y-84145380D01*
X144613238Y-84145380D01*
X144708476Y-84097761D01*
X144756095Y-84050142D01*
X144803714Y-83954904D01*
X144803714Y-83716809D01*
X144756095Y-83621571D01*
X144708476Y-83573952D01*
X144613238Y-83526333D01*
X144422761Y-83526333D01*
X144327523Y-83573952D01*
X144279904Y-83621571D01*
X144232285Y-83716809D01*
%TO.C,D5*%
X143279904Y-76271380D02*
X143279904Y-75271380D01*
X143518000Y-75271380D01*
X143660857Y-75319000D01*
X143756095Y-75414238D01*
X143803714Y-75509476D01*
X143851333Y-75699952D01*
X143851333Y-75842809D01*
X143803714Y-76033285D01*
X143756095Y-76128523D01*
X143660857Y-76223761D01*
X143518000Y-76271380D01*
X143279904Y-76271380D01*
X144756095Y-75271380D02*
X144279904Y-75271380D01*
X144232285Y-75747571D01*
X144279904Y-75699952D01*
X144375142Y-75652333D01*
X144613238Y-75652333D01*
X144708476Y-75699952D01*
X144756095Y-75747571D01*
X144803714Y-75842809D01*
X144803714Y-76080904D01*
X144756095Y-76176142D01*
X144708476Y-76223761D01*
X144613238Y-76271380D01*
X144375142Y-76271380D01*
X144279904Y-76223761D01*
X144232285Y-76176142D01*
%TO.C,D4*%
X120721380Y-88368095D02*
X119721380Y-88368095D01*
X119721380Y-88130000D01*
X119769000Y-87987142D01*
X119864238Y-87891904D01*
X119959476Y-87844285D01*
X120149952Y-87796666D01*
X120292809Y-87796666D01*
X120483285Y-87844285D01*
X120578523Y-87891904D01*
X120673761Y-87987142D01*
X120721380Y-88130000D01*
X120721380Y-88368095D01*
X120054714Y-86939523D02*
X120721380Y-86939523D01*
X119673761Y-87177619D02*
X120388047Y-87415714D01*
X120388047Y-86796666D01*
%TO.C,D3*%
X136040904Y-105862380D02*
X136040904Y-104862380D01*
X136279000Y-104862380D01*
X136421857Y-104910000D01*
X136517095Y-105005238D01*
X136564714Y-105100476D01*
X136612333Y-105290952D01*
X136612333Y-105433809D01*
X136564714Y-105624285D01*
X136517095Y-105719523D01*
X136421857Y-105814761D01*
X136279000Y-105862380D01*
X136040904Y-105862380D01*
X136945666Y-104862380D02*
X137564714Y-104862380D01*
X137231380Y-105243333D01*
X137374238Y-105243333D01*
X137469476Y-105290952D01*
X137517095Y-105338571D01*
X137564714Y-105433809D01*
X137564714Y-105671904D01*
X137517095Y-105767142D01*
X137469476Y-105814761D01*
X137374238Y-105862380D01*
X137088523Y-105862380D01*
X136993285Y-105814761D01*
X136945666Y-105767142D01*
%TO.C,D2*%
X160472380Y-83415095D02*
X159472380Y-83415095D01*
X159472380Y-83177000D01*
X159520000Y-83034142D01*
X159615238Y-82938904D01*
X159710476Y-82891285D01*
X159900952Y-82843666D01*
X160043809Y-82843666D01*
X160234285Y-82891285D01*
X160329523Y-82938904D01*
X160424761Y-83034142D01*
X160472380Y-83177000D01*
X160472380Y-83415095D01*
X159567619Y-82462714D02*
X159520000Y-82415095D01*
X159472380Y-82319857D01*
X159472380Y-82081761D01*
X159520000Y-81986523D01*
X159567619Y-81938904D01*
X159662857Y-81891285D01*
X159758095Y-81891285D01*
X159900952Y-81938904D01*
X160472380Y-82510333D01*
X160472380Y-81891285D01*
%TO.C,D1*%
X141755904Y-65095380D02*
X141755904Y-64095380D01*
X141994000Y-64095380D01*
X142136857Y-64143000D01*
X142232095Y-64238238D01*
X142279714Y-64333476D01*
X142327333Y-64523952D01*
X142327333Y-64666809D01*
X142279714Y-64857285D01*
X142232095Y-64952523D01*
X142136857Y-65047761D01*
X141994000Y-65095380D01*
X141755904Y-65095380D01*
X143279714Y-65095380D02*
X142708285Y-65095380D01*
X142994000Y-65095380D02*
X142994000Y-64095380D01*
X142898761Y-64238238D01*
X142803523Y-64333476D01*
X142708285Y-64381095D01*
%TO.C,CH4*%
X116784523Y-88749142D02*
X116736904Y-88796761D01*
X116594047Y-88844380D01*
X116498809Y-88844380D01*
X116355952Y-88796761D01*
X116260714Y-88701523D01*
X116213095Y-88606285D01*
X116165476Y-88415809D01*
X116165476Y-88272952D01*
X116213095Y-88082476D01*
X116260714Y-87987238D01*
X116355952Y-87892000D01*
X116498809Y-87844380D01*
X116594047Y-87844380D01*
X116736904Y-87892000D01*
X116784523Y-87939619D01*
X117213095Y-88844380D02*
X117213095Y-87844380D01*
X117213095Y-88320571D02*
X117784523Y-88320571D01*
X117784523Y-88844380D02*
X117784523Y-87844380D01*
X118689285Y-88177714D02*
X118689285Y-88844380D01*
X118451190Y-87796761D02*
X118213095Y-88511047D01*
X118832142Y-88511047D01*
%TO.C,CH3*%
X143740142Y-109021476D02*
X143787761Y-109069095D01*
X143835380Y-109211952D01*
X143835380Y-109307190D01*
X143787761Y-109450047D01*
X143692523Y-109545285D01*
X143597285Y-109592904D01*
X143406809Y-109640523D01*
X143263952Y-109640523D01*
X143073476Y-109592904D01*
X142978238Y-109545285D01*
X142883000Y-109450047D01*
X142835380Y-109307190D01*
X142835380Y-109211952D01*
X142883000Y-109069095D01*
X142930619Y-109021476D01*
X143835380Y-108592904D02*
X142835380Y-108592904D01*
X143311571Y-108592904D02*
X143311571Y-108021476D01*
X143835380Y-108021476D02*
X142835380Y-108021476D01*
X142835380Y-107640523D02*
X142835380Y-107021476D01*
X143216333Y-107354809D01*
X143216333Y-107211952D01*
X143263952Y-107116714D01*
X143311571Y-107069095D01*
X143406809Y-107021476D01*
X143644904Y-107021476D01*
X143740142Y-107069095D01*
X143787761Y-107116714D01*
X143835380Y-107211952D01*
X143835380Y-107497666D01*
X143787761Y-107592904D01*
X143740142Y-107640523D01*
%TO.C,CH2*%
X162504523Y-88495142D02*
X162456904Y-88542761D01*
X162314047Y-88590380D01*
X162218809Y-88590380D01*
X162075952Y-88542761D01*
X161980714Y-88447523D01*
X161933095Y-88352285D01*
X161885476Y-88161809D01*
X161885476Y-88018952D01*
X161933095Y-87828476D01*
X161980714Y-87733238D01*
X162075952Y-87638000D01*
X162218809Y-87590380D01*
X162314047Y-87590380D01*
X162456904Y-87638000D01*
X162504523Y-87685619D01*
X162933095Y-88590380D02*
X162933095Y-87590380D01*
X162933095Y-88066571D02*
X163504523Y-88066571D01*
X163504523Y-88590380D02*
X163504523Y-87590380D01*
X163933095Y-87685619D02*
X163980714Y-87638000D01*
X164075952Y-87590380D01*
X164314047Y-87590380D01*
X164409285Y-87638000D01*
X164456904Y-87685619D01*
X164504523Y-87780857D01*
X164504523Y-87876095D01*
X164456904Y-88018952D01*
X163885476Y-88590380D01*
X164504523Y-88590380D01*
%TO.C,CH1*%
X143613142Y-62920476D02*
X143660761Y-62968095D01*
X143708380Y-63110952D01*
X143708380Y-63206190D01*
X143660761Y-63349047D01*
X143565523Y-63444285D01*
X143470285Y-63491904D01*
X143279809Y-63539523D01*
X143136952Y-63539523D01*
X142946476Y-63491904D01*
X142851238Y-63444285D01*
X142756000Y-63349047D01*
X142708380Y-63206190D01*
X142708380Y-63110952D01*
X142756000Y-62968095D01*
X142803619Y-62920476D01*
X143708380Y-62491904D02*
X142708380Y-62491904D01*
X143184571Y-62491904D02*
X143184571Y-61920476D01*
X143708380Y-61920476D02*
X142708380Y-61920476D01*
X143708380Y-60920476D02*
X143708380Y-61491904D01*
X143708380Y-61206190D02*
X142708380Y-61206190D01*
X142851238Y-61301428D01*
X142946476Y-61396666D01*
X142994095Y-61491904D01*
%TO.C,C14*%
X137644142Y-78571893D02*
X137691761Y-78619512D01*
X137739380Y-78762369D01*
X137739380Y-78857607D01*
X137691761Y-79000464D01*
X137596523Y-79095702D01*
X137501285Y-79143321D01*
X137310809Y-79190940D01*
X137167952Y-79190940D01*
X136977476Y-79143321D01*
X136882238Y-79095702D01*
X136787000Y-79000464D01*
X136739380Y-78857607D01*
X136739380Y-78762369D01*
X136787000Y-78619512D01*
X136834619Y-78571893D01*
X137739380Y-77619512D02*
X137739380Y-78190940D01*
X137739380Y-77905226D02*
X136739380Y-77905226D01*
X136882238Y-78000464D01*
X136977476Y-78095702D01*
X137025095Y-78190940D01*
X137072714Y-76762369D02*
X137739380Y-76762369D01*
X136691761Y-77000464D02*
X137406047Y-77238559D01*
X137406047Y-76619512D01*
%TO.C,C13*%
X135993142Y-78536368D02*
X136040761Y-78583987D01*
X136088380Y-78726844D01*
X136088380Y-78822082D01*
X136040761Y-78964939D01*
X135945523Y-79060177D01*
X135850285Y-79107796D01*
X135659809Y-79155415D01*
X135516952Y-79155415D01*
X135326476Y-79107796D01*
X135231238Y-79060177D01*
X135136000Y-78964939D01*
X135088380Y-78822082D01*
X135088380Y-78726844D01*
X135136000Y-78583987D01*
X135183619Y-78536368D01*
X136088380Y-77583987D02*
X136088380Y-78155415D01*
X136088380Y-77869701D02*
X135088380Y-77869701D01*
X135231238Y-77964939D01*
X135326476Y-78060177D01*
X135374095Y-78155415D01*
X135088380Y-77250653D02*
X135088380Y-76631606D01*
X135469333Y-76964939D01*
X135469333Y-76822082D01*
X135516952Y-76726844D01*
X135564571Y-76679225D01*
X135659809Y-76631606D01*
X135897904Y-76631606D01*
X135993142Y-76679225D01*
X136040761Y-76726844D01*
X136088380Y-76822082D01*
X136088380Y-77107796D01*
X136040761Y-77203034D01*
X135993142Y-77250653D01*
%TO.C,C12*%
X132818142Y-78620857D02*
X132865761Y-78668476D01*
X132913380Y-78811333D01*
X132913380Y-78906571D01*
X132865761Y-79049428D01*
X132770523Y-79144666D01*
X132675285Y-79192285D01*
X132484809Y-79239904D01*
X132341952Y-79239904D01*
X132151476Y-79192285D01*
X132056238Y-79144666D01*
X131961000Y-79049428D01*
X131913380Y-78906571D01*
X131913380Y-78811333D01*
X131961000Y-78668476D01*
X132008619Y-78620857D01*
X132913380Y-77668476D02*
X132913380Y-78239904D01*
X132913380Y-77954190D02*
X131913380Y-77954190D01*
X132056238Y-78049428D01*
X132151476Y-78144666D01*
X132199095Y-78239904D01*
X132008619Y-77287523D02*
X131961000Y-77239904D01*
X131913380Y-77144666D01*
X131913380Y-76906571D01*
X131961000Y-76811333D01*
X132008619Y-76763714D01*
X132103857Y-76716095D01*
X132199095Y-76716095D01*
X132341952Y-76763714D01*
X132913380Y-77335142D01*
X132913380Y-76716095D01*
%TO.C,C11*%
X134469142Y-78493857D02*
X134516761Y-78541476D01*
X134564380Y-78684333D01*
X134564380Y-78779571D01*
X134516761Y-78922428D01*
X134421523Y-79017666D01*
X134326285Y-79065285D01*
X134135809Y-79112904D01*
X133992952Y-79112904D01*
X133802476Y-79065285D01*
X133707238Y-79017666D01*
X133612000Y-78922428D01*
X133564380Y-78779571D01*
X133564380Y-78684333D01*
X133612000Y-78541476D01*
X133659619Y-78493857D01*
X134564380Y-77541476D02*
X134564380Y-78112904D01*
X134564380Y-77827190D02*
X133564380Y-77827190D01*
X133707238Y-77922428D01*
X133802476Y-78017666D01*
X133850095Y-78112904D01*
X134564380Y-76589095D02*
X134564380Y-77160523D01*
X134564380Y-76874809D02*
X133564380Y-76874809D01*
X133707238Y-76970047D01*
X133802476Y-77065285D01*
X133850095Y-77160523D01*
%TO.C,C10*%
X140692142Y-78571893D02*
X140739761Y-78619512D01*
X140787380Y-78762369D01*
X140787380Y-78857607D01*
X140739761Y-79000464D01*
X140644523Y-79095702D01*
X140549285Y-79143321D01*
X140358809Y-79190940D01*
X140215952Y-79190940D01*
X140025476Y-79143321D01*
X139930238Y-79095702D01*
X139835000Y-79000464D01*
X139787380Y-78857607D01*
X139787380Y-78762369D01*
X139835000Y-78619512D01*
X139882619Y-78571893D01*
X140787380Y-77619512D02*
X140787380Y-78190940D01*
X140787380Y-77905226D02*
X139787380Y-77905226D01*
X139930238Y-78000464D01*
X140025476Y-78095702D01*
X140073095Y-78190940D01*
X139787380Y-77000464D02*
X139787380Y-76905226D01*
X139835000Y-76809988D01*
X139882619Y-76762369D01*
X139977857Y-76714750D01*
X140168333Y-76667131D01*
X140406428Y-76667131D01*
X140596904Y-76714750D01*
X140692142Y-76762369D01*
X140739761Y-76809988D01*
X140787380Y-76905226D01*
X140787380Y-77000464D01*
X140739761Y-77095702D01*
X140692142Y-77143321D01*
X140596904Y-77190940D01*
X140406428Y-77238559D01*
X140168333Y-77238559D01*
X139977857Y-77190940D01*
X139882619Y-77143321D01*
X139835000Y-77095702D01*
X139787380Y-77000464D01*
%TO.C,C9*%
X137644142Y-81446666D02*
X137691761Y-81494285D01*
X137739380Y-81637142D01*
X137739380Y-81732380D01*
X137691761Y-81875238D01*
X137596523Y-81970476D01*
X137501285Y-82018095D01*
X137310809Y-82065714D01*
X137167952Y-82065714D01*
X136977476Y-82018095D01*
X136882238Y-81970476D01*
X136787000Y-81875238D01*
X136739380Y-81732380D01*
X136739380Y-81637142D01*
X136787000Y-81494285D01*
X136834619Y-81446666D01*
X137739380Y-80970476D02*
X137739380Y-80780000D01*
X137691761Y-80684761D01*
X137644142Y-80637142D01*
X137501285Y-80541904D01*
X137310809Y-80494285D01*
X136929857Y-80494285D01*
X136834619Y-80541904D01*
X136787000Y-80589523D01*
X136739380Y-80684761D01*
X136739380Y-80875238D01*
X136787000Y-80970476D01*
X136834619Y-81018095D01*
X136929857Y-81065714D01*
X137167952Y-81065714D01*
X137263190Y-81018095D01*
X137310809Y-80970476D01*
X137358428Y-80875238D01*
X137358428Y-80684761D01*
X137310809Y-80589523D01*
X137263190Y-80541904D01*
X137167952Y-80494285D01*
%TO.C,C8*%
X135993142Y-81446666D02*
X136040761Y-81494285D01*
X136088380Y-81637142D01*
X136088380Y-81732380D01*
X136040761Y-81875238D01*
X135945523Y-81970476D01*
X135850285Y-82018095D01*
X135659809Y-82065714D01*
X135516952Y-82065714D01*
X135326476Y-82018095D01*
X135231238Y-81970476D01*
X135136000Y-81875238D01*
X135088380Y-81732380D01*
X135088380Y-81637142D01*
X135136000Y-81494285D01*
X135183619Y-81446666D01*
X135516952Y-80875238D02*
X135469333Y-80970476D01*
X135421714Y-81018095D01*
X135326476Y-81065714D01*
X135278857Y-81065714D01*
X135183619Y-81018095D01*
X135136000Y-80970476D01*
X135088380Y-80875238D01*
X135088380Y-80684761D01*
X135136000Y-80589523D01*
X135183619Y-80541904D01*
X135278857Y-80494285D01*
X135326476Y-80494285D01*
X135421714Y-80541904D01*
X135469333Y-80589523D01*
X135516952Y-80684761D01*
X135516952Y-80875238D01*
X135564571Y-80970476D01*
X135612190Y-81018095D01*
X135707428Y-81065714D01*
X135897904Y-81065714D01*
X135993142Y-81018095D01*
X136040761Y-80970476D01*
X136088380Y-80875238D01*
X136088380Y-80684761D01*
X136040761Y-80589523D01*
X135993142Y-80541904D01*
X135897904Y-80494285D01*
X135707428Y-80494285D01*
X135612190Y-80541904D01*
X135564571Y-80589523D01*
X135516952Y-80684761D01*
%TO.C,C7*%
X134342142Y-81488600D02*
X134389761Y-81536219D01*
X134437380Y-81679076D01*
X134437380Y-81774314D01*
X134389761Y-81917172D01*
X134294523Y-82012410D01*
X134199285Y-82060029D01*
X134008809Y-82107648D01*
X133865952Y-82107648D01*
X133675476Y-82060029D01*
X133580238Y-82012410D01*
X133485000Y-81917172D01*
X133437380Y-81774314D01*
X133437380Y-81679076D01*
X133485000Y-81536219D01*
X133532619Y-81488600D01*
X133437380Y-81155267D02*
X133437380Y-80488600D01*
X134437380Y-80917172D01*
%TO.C,C6*%
X132818142Y-81446666D02*
X132865761Y-81494285D01*
X132913380Y-81637142D01*
X132913380Y-81732380D01*
X132865761Y-81875238D01*
X132770523Y-81970476D01*
X132675285Y-82018095D01*
X132484809Y-82065714D01*
X132341952Y-82065714D01*
X132151476Y-82018095D01*
X132056238Y-81970476D01*
X131961000Y-81875238D01*
X131913380Y-81732380D01*
X131913380Y-81637142D01*
X131961000Y-81494285D01*
X132008619Y-81446666D01*
X131913380Y-80589523D02*
X131913380Y-80780000D01*
X131961000Y-80875238D01*
X132008619Y-80922857D01*
X132151476Y-81018095D01*
X132341952Y-81065714D01*
X132722904Y-81065714D01*
X132818142Y-81018095D01*
X132865761Y-80970476D01*
X132913380Y-80875238D01*
X132913380Y-80684761D01*
X132865761Y-80589523D01*
X132818142Y-80541904D01*
X132722904Y-80494285D01*
X132484809Y-80494285D01*
X132389571Y-80541904D01*
X132341952Y-80589523D01*
X132294333Y-80684761D01*
X132294333Y-80875238D01*
X132341952Y-80970476D01*
X132389571Y-81018095D01*
X132484809Y-81065714D01*
%TO.C,C5*%
X140692142Y-81488600D02*
X140739761Y-81536219D01*
X140787380Y-81679076D01*
X140787380Y-81774314D01*
X140739761Y-81917172D01*
X140644523Y-82012410D01*
X140549285Y-82060029D01*
X140358809Y-82107648D01*
X140215952Y-82107648D01*
X140025476Y-82060029D01*
X139930238Y-82012410D01*
X139835000Y-81917172D01*
X139787380Y-81774314D01*
X139787380Y-81679076D01*
X139835000Y-81536219D01*
X139882619Y-81488600D01*
X139787380Y-80583838D02*
X139787380Y-81060029D01*
X140263571Y-81107648D01*
X140215952Y-81060029D01*
X140168333Y-80964791D01*
X140168333Y-80726695D01*
X140215952Y-80631457D01*
X140263571Y-80583838D01*
X140358809Y-80536219D01*
X140596904Y-80536219D01*
X140692142Y-80583838D01*
X140739761Y-80631457D01*
X140787380Y-80726695D01*
X140787380Y-80964791D01*
X140739761Y-81060029D01*
X140692142Y-81107648D01*
%TO.C,C4*%
X136358333Y-93448142D02*
X136310714Y-93495761D01*
X136167857Y-93543380D01*
X136072619Y-93543380D01*
X135929761Y-93495761D01*
X135834523Y-93400523D01*
X135786904Y-93305285D01*
X135739285Y-93114809D01*
X135739285Y-92971952D01*
X135786904Y-92781476D01*
X135834523Y-92686238D01*
X135929761Y-92591000D01*
X136072619Y-92543380D01*
X136167857Y-92543380D01*
X136310714Y-92591000D01*
X136358333Y-92638619D01*
X137215476Y-92876714D02*
X137215476Y-93543380D01*
X136977380Y-92495761D02*
X136739285Y-93210047D01*
X137358333Y-93210047D01*
%TO.C,C2*%
X143994142Y-96559666D02*
X144041761Y-96607285D01*
X144089380Y-96750142D01*
X144089380Y-96845380D01*
X144041761Y-96988238D01*
X143946523Y-97083476D01*
X143851285Y-97131095D01*
X143660809Y-97178714D01*
X143517952Y-97178714D01*
X143327476Y-97131095D01*
X143232238Y-97083476D01*
X143137000Y-96988238D01*
X143089380Y-96845380D01*
X143089380Y-96750142D01*
X143137000Y-96607285D01*
X143184619Y-96559666D01*
X143184619Y-96178714D02*
X143137000Y-96131095D01*
X143089380Y-96035857D01*
X143089380Y-95797761D01*
X143137000Y-95702523D01*
X143184619Y-95654904D01*
X143279857Y-95607285D01*
X143375095Y-95607285D01*
X143517952Y-95654904D01*
X144089380Y-96226333D01*
X144089380Y-95607285D01*
%TO.C,C1*%
X150074333Y-87733142D02*
X150026714Y-87780761D01*
X149883857Y-87828380D01*
X149788619Y-87828380D01*
X149645761Y-87780761D01*
X149550523Y-87685523D01*
X149502904Y-87590285D01*
X149455285Y-87399809D01*
X149455285Y-87256952D01*
X149502904Y-87066476D01*
X149550523Y-86971238D01*
X149645761Y-86876000D01*
X149788619Y-86828380D01*
X149883857Y-86828380D01*
X150026714Y-86876000D01*
X150074333Y-86923619D01*
X151026714Y-87828380D02*
X150455285Y-87828380D01*
X150741000Y-87828380D02*
X150741000Y-86828380D01*
X150645761Y-86971238D01*
X150550523Y-87066476D01*
X150455285Y-87114095D01*
%TD*%
M02*
