M48
; DRILL file {KiCad (5.1.8-0-10_14)} date Tuesday, February 16, 2021 at 05:48:41 PM
; FORMAT={-:-/ absolute / metric / decimal}
; #@! TF.CreationDate,2021-02-16T17:48:41+08:00
; #@! TF.GenerationSoftware,Kicad,Pcbnew,(5.1.8-0-10_14)
; #@! TF.FileFunction,Plated,1,2,PTH
FMAT,2
METRIC
T1C0.300
T2C0.400
T3C1.000
T4C3.200
%
G90
G05
T1
X110.063Y-89.749
X110.841Y-88.971
X110.911Y-90.597
X111.689Y-89.819
X111.76Y-88.051
X112.609Y-87.203
X112.609Y-88.9
X113.457Y-88.051
T2
X97.79Y-72.39
X97.79Y-73.66
X97.79Y-74.93
X97.79Y-76.2
X97.79Y-77.47
X97.79Y-78.74
X97.79Y-80.01
X97.79Y-91.44
X97.79Y-92.71
X97.79Y-93.98
X97.79Y-95.25
X97.79Y-96.52
X97.79Y-97.79
X97.79Y-99.06
X99.06Y-73.66
X99.06Y-74.93
X99.06Y-76.2
X99.06Y-77.47
X99.06Y-78.74
X99.06Y-80.01
X99.06Y-81.28
X99.06Y-91.44
X99.06Y-92.71
X99.06Y-93.98
X99.06Y-95.25
X99.06Y-96.52
X99.06Y-97.79
X99.06Y-99.06
X100.33Y-74.93
X100.33Y-76.2
X100.33Y-76.2
X100.33Y-77.47
X100.33Y-78.74
X100.33Y-80.01
X100.33Y-81.28
X100.33Y-82.55
X100.33Y-91.44
X100.33Y-92.71
X100.33Y-93.98
X100.33Y-95.25
X100.33Y-95.25
X100.33Y-96.52
X100.33Y-97.79
X100.33Y-97.79
X100.33Y-99.06
X101.6Y-76.2
X101.6Y-77.47
X101.6Y-78.74
X101.6Y-80.01
X101.6Y-81.28
X101.6Y-92.71
X101.6Y-93.98
X101.6Y-95.25
X101.6Y-95.25
X101.6Y-96.52
X101.6Y-97.79
X102.87Y-77.47
X102.87Y-78.74
X102.87Y-80.01
X104.14Y-78.74
X107.097Y-84.264
X107.315Y-98.552
X107.95Y-91.694
X109.22Y-62.23
X109.22Y-63.5
X109.22Y-64.77
X109.22Y-107.95
X109.22Y-109.22
X109.22Y-110.49
X110.49Y-62.23
X110.49Y-63.5
X110.49Y-64.77
X110.49Y-66.04
X110.49Y-105.41
X110.49Y-106.68
X110.49Y-107.95
X110.49Y-109.22
X110.49Y-109.22
X110.49Y-110.49
X111.76Y-62.23
X111.76Y-63.5
X111.76Y-64.77
X111.76Y-66.04
X111.76Y-105.41
X111.76Y-106.68
X111.76Y-107.95
X111.76Y-109.22
X111.76Y-110.49
X113.03Y-62.23
X113.03Y-63.5
X113.03Y-64.77
X113.03Y-66.04
X113.03Y-105.41
X113.03Y-105.41
X113.03Y-106.68
X113.03Y-107.95
X113.03Y-109.22
X113.03Y-110.49
X113.411Y-94.742
X114.3Y-62.23
X114.3Y-63.5
X114.3Y-64.77
X114.3Y-66.04
X114.3Y-105.41
X114.3Y-106.68
X114.3Y-107.95
X114.3Y-109.22
X114.3Y-110.49
X114.407Y-95.631
X115.03Y-91.313
X115.316Y-92.075
X115.57Y-62.23
X115.57Y-63.5
X115.57Y-64.77
X115.57Y-66.04
X115.57Y-105.41
X115.57Y-106.68
X115.57Y-107.95
X115.57Y-109.22
X115.57Y-110.49
X116.84Y-62.23
X116.84Y-63.5
X116.84Y-64.77
X116.84Y-107.95
X116.84Y-109.22
X116.84Y-110.49
X123.571Y-68.834
X125.053Y-83.544
X125.73Y-63.5
X125.73Y-64.77
X125.73Y-107.95
X125.73Y-109.22
X127.0Y-63.5
X127.0Y-64.77
X127.0Y-105.346
X127.0Y-106.68
X127.0Y-107.95
X127.0Y-109.22
X127.635Y-67.818
X127.922Y-86.36
X128.27Y-63.5
X128.27Y-64.77
X128.27Y-105.41
X128.27Y-106.68
X128.27Y-106.68
X128.27Y-107.95
X128.27Y-109.22
X128.27Y-109.22
X129.54Y-63.5
X129.54Y-64.77
X129.54Y-66.04
X129.54Y-66.04
X129.54Y-105.41
X129.54Y-105.41
X129.54Y-105.41
X129.54Y-105.41
X129.54Y-105.41
X129.54Y-105.41
X129.54Y-105.41
X129.54Y-105.41
X129.54Y-106.68
X129.54Y-107.95
X129.54Y-109.22
X130.175Y-77.978
X130.81Y-63.5
X130.81Y-64.77
X130.81Y-66.04
X130.81Y-67.31
X130.81Y-105.41
X130.81Y-106.68
X130.81Y-107.95
X130.81Y-109.22
X130.912Y-77.724
X132.08Y-63.5
X132.08Y-64.77
X132.08Y-66.04
X132.08Y-105.41
X132.08Y-106.68
X132.08Y-107.95
X132.08Y-109.22
X132.207Y-103.569
X133.35Y-107.95
X133.35Y-107.95
X133.35Y-109.22
X135.392Y-75.448
X135.392Y-81.587
X137.605Y-77.025
X142.24Y-76.2
X142.24Y-77.47
X142.24Y-78.74
X142.24Y-80.01
X142.24Y-81.28
X142.24Y-92.71
X142.24Y-93.98
X142.24Y-95.25
X142.24Y-96.52
X142.24Y-97.79
X143.51Y-74.93
X143.51Y-76.2
X143.51Y-77.47
X143.51Y-78.74
X143.51Y-80.01
X143.51Y-81.28
X143.51Y-82.55
X143.51Y-91.44
X143.51Y-92.71
X143.51Y-93.98
X143.51Y-95.25
X143.51Y-96.52
X143.51Y-97.79
X143.51Y-99.06
X144.78Y-74.93
X144.78Y-76.2
X144.78Y-77.47
X144.78Y-78.74
X144.78Y-80.01
X144.78Y-81.28
X144.78Y-82.55
X144.78Y-91.44
X144.78Y-91.44
X144.78Y-92.71
X144.78Y-93.98
X144.78Y-95.25
X144.78Y-96.52
X144.78Y-97.79
X144.78Y-99.06
X146.05Y-74.93
X146.05Y-76.2
X146.05Y-77.47
X146.05Y-78.74
X146.05Y-80.01
X146.05Y-81.28
X146.05Y-82.55
X146.05Y-91.44
X146.05Y-92.71
X146.05Y-93.98
X146.05Y-95.25
X146.05Y-96.52
X146.05Y-97.79
X146.05Y-99.06
T3
X140.97Y-85.29
X140.97Y-87.83
X102.87Y-86.26
X102.87Y-88.8
X120.25Y-66.04
X122.79Y-66.04
X134.802Y-66.603
X136.598Y-64.807
X136.598Y-68.399
X138.394Y-66.603
X138.394Y-70.195
X140.19Y-68.399
X140.19Y-71.991
X141.986Y-70.195
X141.986Y-73.787
X143.782Y-71.991
X120.08Y-105.41
X122.62Y-105.41
X115.951Y-101.6
X118.491Y-101.6
X121.031Y-101.6
X123.571Y-101.6
T4
X143.51Y-107.95
X100.33Y-107.95
X143.51Y-64.77
X100.33Y-64.77
T0
M30
