%TF.GenerationSoftware,KiCad,Pcbnew,(5.1.8-0-10_14)*%
%TF.CreationDate,2021-02-16T17:48:47+08:00*%
%TF.ProjectId,batt_board,62617474-5f62-46f6-9172-642e6b696361,rev?*%
%TF.SameCoordinates,Original*%
%TF.FileFunction,Legend,Top*%
%TF.FilePolarity,Positive*%
%FSLAX46Y46*%
G04 Gerber Fmt 4.6, Leading zero omitted, Abs format (unit mm)*
G04 Created by KiCad (PCBNEW (5.1.8-0-10_14)) date 2021-02-16 17:48:47*
%MOMM*%
%LPD*%
G01*
G04 APERTURE LIST*
%ADD10C,0.120000*%
%ADD11C,0.150000*%
G04 APERTURE END LIST*
D10*
%TO.C,Receiver1*%
X114621000Y-102930000D02*
X114621000Y-101600000D01*
X115951000Y-102930000D02*
X114621000Y-102930000D01*
X117221000Y-102930000D02*
X117221000Y-100270000D01*
X117221000Y-100270000D02*
X124901000Y-100270000D01*
X117221000Y-102930000D02*
X124901000Y-102930000D01*
X124901000Y-102930000D02*
X124901000Y-100270000D01*
%TO.C,U2*%
X126951808Y-78530660D02*
X126060854Y-77639706D01*
X122129340Y-73708192D02*
X123020294Y-74599146D01*
X124293087Y-81189382D02*
X126951808Y-78530660D01*
X117879628Y-77957904D02*
X122129340Y-73708192D01*
D11*
%TO.C,U1*%
X112113553Y-85611953D02*
X112078198Y-85647309D01*
X115048047Y-88546447D02*
X114945516Y-88648977D01*
X111406447Y-92188047D02*
X111508977Y-92085516D01*
X108471953Y-89253553D02*
X108574484Y-89151023D01*
X112113553Y-85611953D02*
X115048047Y-88546447D01*
X108471953Y-89253553D02*
X111406447Y-92188047D01*
X112078198Y-85647309D02*
X111088249Y-84657359D01*
D10*
%TO.C,R13*%
X135042580Y-74992346D02*
X134682346Y-75352580D01*
X134303654Y-74253420D02*
X133943420Y-74613654D01*
%TO.C,R12*%
X132800420Y-73470654D02*
X133160654Y-73110420D01*
X133539346Y-74209580D02*
X133899580Y-73849346D01*
%TO.C,R11*%
X131657420Y-72327654D02*
X132017654Y-71967420D01*
X132396346Y-73066580D02*
X132756580Y-72706346D01*
%TO.C,R10*%
X130514420Y-71184654D02*
X130874654Y-70824420D01*
X131253346Y-71923580D02*
X131613580Y-71563346D01*
%TO.C,R9*%
X129371420Y-70041654D02*
X129731654Y-69681420D01*
X130110346Y-70780580D02*
X130470580Y-70420346D01*
%TO.C,R8*%
X130491346Y-79841420D02*
X130851580Y-80201654D01*
X129752420Y-80580346D02*
X130112654Y-80940580D01*
%TO.C,R7*%
X105558920Y-93346154D02*
X105919154Y-92985920D01*
X106297846Y-94085080D02*
X106658080Y-93724846D01*
%TO.C,R6*%
X107789299Y-94869565D02*
X107429065Y-95229799D01*
X107050373Y-94130639D02*
X106690139Y-94490873D01*
%TO.C,R5*%
X125307420Y-82868654D02*
X125667654Y-82508420D01*
X126046346Y-83607580D02*
X126406580Y-83247346D01*
%TO.C,R4*%
X136119776Y-95235500D02*
X136629224Y-95235500D01*
X136119776Y-96280500D02*
X136629224Y-96280500D01*
%TO.C,R3*%
X127112500Y-68961724D02*
X127112500Y-68452276D01*
X128157500Y-68961724D02*
X128157500Y-68452276D01*
%TO.C,R2*%
X108966724Y-79389500D02*
X108457276Y-79389500D01*
X108966724Y-78344500D02*
X108457276Y-78344500D01*
%TO.C,R1*%
X132729500Y-102361276D02*
X132729500Y-102870724D01*
X131684500Y-102361276D02*
X131684500Y-102870724D01*
%TO.C,L1*%
X117476154Y-85449080D02*
X117115920Y-85088846D01*
X118215080Y-84710154D02*
X117854846Y-84349920D01*
%TO.C,CH4*%
X139640000Y-86560000D02*
X142300000Y-86560000D01*
X139640000Y-86560000D02*
X139640000Y-89160000D01*
X139640000Y-89160000D02*
X142300000Y-89160000D01*
X142300000Y-86560000D02*
X142300000Y-89160000D01*
X142300000Y-83960000D02*
X142300000Y-85290000D01*
X140970000Y-83960000D02*
X142300000Y-83960000D01*
%TO.C,CH3*%
X121520000Y-64710000D02*
X121520000Y-67370000D01*
X121520000Y-64710000D02*
X118920000Y-64710000D01*
X118920000Y-64710000D02*
X118920000Y-67370000D01*
X121520000Y-67370000D02*
X118920000Y-67370000D01*
X124120000Y-67370000D02*
X122790000Y-67370000D01*
X124120000Y-66040000D02*
X124120000Y-67370000D01*
%TO.C,conn2upper1*%
X151772358Y-65711841D02*
X145670026Y-71814172D01*
X151688852Y-65628335D02*
X145586521Y-71730666D01*
X151605346Y-65544829D02*
X145503015Y-71647161D01*
X151521841Y-65461323D02*
X145419509Y-71563655D01*
X151438335Y-65377817D02*
X145336003Y-71480149D01*
X151354829Y-65294312D02*
X145252497Y-71396643D01*
X151271323Y-65210806D02*
X145168992Y-71313137D01*
X151187817Y-65127300D02*
X145085486Y-71229632D01*
X151104312Y-65043794D02*
X145001980Y-71146126D01*
X151020806Y-64960289D02*
X144918474Y-71062620D01*
X150937300Y-64876783D02*
X144834969Y-70979114D01*
X150853794Y-64793277D02*
X144751463Y-70895609D01*
X150770289Y-64709771D02*
X144667957Y-70812103D01*
X150686783Y-64626265D02*
X144584451Y-70728597D01*
X150603277Y-64542760D02*
X144500945Y-70645091D01*
X150519771Y-64459254D02*
X144417440Y-70561585D01*
X150436265Y-64375748D02*
X144333934Y-70478080D01*
X150352760Y-64292242D02*
X144250428Y-70394574D01*
X150269254Y-64208737D02*
X144166922Y-70311068D01*
X150185748Y-64125231D02*
X144083417Y-70227562D01*
X150102242Y-64041725D02*
X143999911Y-70144057D01*
X145068986Y-71213131D02*
X144779072Y-71503045D01*
X143294148Y-72987969D02*
X143025447Y-73256670D01*
X144559869Y-70704014D02*
X144269955Y-70993928D01*
X142785031Y-72478852D02*
X142516330Y-72747553D01*
X143272934Y-69417080D02*
X142983021Y-69706994D01*
X141498096Y-71191918D02*
X141186969Y-71503045D01*
X142763817Y-68907963D02*
X142473904Y-69197877D01*
X140988979Y-70682801D02*
X140677852Y-70993928D01*
X141476883Y-67621029D02*
X141186969Y-67910943D01*
X139702045Y-69395867D02*
X139390918Y-69706994D01*
X140967766Y-67111912D02*
X140677852Y-67401826D01*
X139192928Y-68886750D02*
X138881801Y-69197877D01*
X139680832Y-65824978D02*
X139390918Y-66114891D01*
X137905994Y-67599816D02*
X137594867Y-67910943D01*
X139171715Y-65315861D02*
X138881801Y-65605775D01*
X137396877Y-67090699D02*
X137085750Y-67401826D01*
X137884781Y-64028926D02*
X137594867Y-64318840D01*
X136109943Y-65803764D02*
X135798816Y-66114891D01*
X137375664Y-63519810D02*
X137085750Y-63809723D01*
X135600826Y-65294648D02*
X135289699Y-65605775D01*
X150018733Y-63958216D02*
X143916402Y-70060547D01*
X148222682Y-62162165D02*
X142120350Y-68264496D01*
X146426631Y-60366113D02*
X140324299Y-66468445D01*
X144630579Y-58570062D02*
X138528248Y-64672394D01*
X151857211Y-65796693D02*
X145754879Y-71899025D01*
X145754879Y-71899025D02*
X136689770Y-62833916D01*
X142792102Y-56731584D02*
X136689770Y-62833916D01*
X151857211Y-65796693D02*
X142792102Y-56731584D01*
X142141563Y-75512341D02*
X141201111Y-74571889D01*
X142926452Y-74727452D02*
X142141563Y-75512341D01*
%TO.C,CH2*%
X101540000Y-87530000D02*
X104200000Y-87530000D01*
X101540000Y-87530000D02*
X101540000Y-90130000D01*
X101540000Y-90130000D02*
X104200000Y-90130000D01*
X104200000Y-87530000D02*
X104200000Y-90130000D01*
X104200000Y-84930000D02*
X104200000Y-86260000D01*
X102870000Y-84930000D02*
X104200000Y-84930000D01*
%TO.C,CH1*%
X121350000Y-104080000D02*
X121350000Y-106740000D01*
X121350000Y-104080000D02*
X118750000Y-104080000D01*
X118750000Y-104080000D02*
X118750000Y-106740000D01*
X121350000Y-106740000D02*
X118750000Y-106740000D01*
X123950000Y-106740000D02*
X122620000Y-106740000D01*
X123950000Y-105410000D02*
X123950000Y-106740000D01*
%TO.C,D7*%
X132530409Y-79293962D02*
X130790926Y-77554479D01*
X130790926Y-77554479D02*
X129751479Y-78593926D01*
X129751479Y-78593926D02*
X131490962Y-80333409D01*
%TO.C,D6*%
X115847956Y-84431504D02*
X113514504Y-86764956D01*
X113514504Y-86764956D02*
X118393541Y-91643993D01*
X115847956Y-84431504D02*
X120726993Y-89310541D01*
%TO.C,D5*%
X127045962Y-83115591D02*
X125306479Y-84855074D01*
X125306479Y-84855074D02*
X126345926Y-85894521D01*
X126345926Y-85894521D02*
X128085409Y-84155038D01*
%TO.C,D4*%
X135574500Y-94842000D02*
X138034500Y-94842000D01*
X138034500Y-94842000D02*
X138034500Y-93372000D01*
X138034500Y-93372000D02*
X135574500Y-93372000D01*
%TO.C,D3*%
X126846000Y-69507000D02*
X126846000Y-67047000D01*
X126846000Y-67047000D02*
X125376000Y-67047000D01*
X125376000Y-67047000D02*
X125376000Y-69507000D01*
%TO.C,D2*%
X109512000Y-79710000D02*
X107052000Y-79710000D01*
X107052000Y-79710000D02*
X107052000Y-81180000D01*
X107052000Y-81180000D02*
X109512000Y-81180000D01*
%TO.C,D1*%
X129948000Y-101816000D02*
X129948000Y-104276000D01*
X129948000Y-104276000D02*
X131418000Y-104276000D01*
X131418000Y-104276000D02*
X131418000Y-101816000D01*
%TO.C,C3*%
X119065698Y-83292449D02*
X119272551Y-83499302D01*
X118344449Y-84013698D02*
X118551302Y-84220551D01*
%TO.C,C2*%
X113477698Y-83927449D02*
X113684551Y-84134302D01*
X112756449Y-84648698D02*
X112963302Y-84855551D01*
%TO.C,C1*%
X116183078Y-92220829D02*
X116389931Y-92427682D01*
X115461829Y-92942078D02*
X115668682Y-93148931D01*
%TO.C,J11*%
D11*
X104386855Y-71241694D02*
X104891931Y-71746770D01*
X104959274Y-71881457D01*
X104959274Y-72016144D01*
X104891931Y-72150831D01*
X104824587Y-72218175D01*
X105801068Y-71241694D02*
X105397007Y-71645755D01*
X105599038Y-71443725D02*
X104891931Y-70736618D01*
X104925603Y-70904977D01*
X104925603Y-71039664D01*
X104891931Y-71140679D01*
X106474503Y-70568259D02*
X106070442Y-70972320D01*
X106272473Y-70770290D02*
X105565366Y-70063183D01*
X105599038Y-70231542D01*
X105599038Y-70366229D01*
X105565366Y-70467244D01*
%TO.C,Receiver1*%
X110347476Y-102750880D02*
X110014142Y-102274690D01*
X109776047Y-102750880D02*
X109776047Y-101750880D01*
X110157000Y-101750880D01*
X110252238Y-101798500D01*
X110299857Y-101846119D01*
X110347476Y-101941357D01*
X110347476Y-102084214D01*
X110299857Y-102179452D01*
X110252238Y-102227071D01*
X110157000Y-102274690D01*
X109776047Y-102274690D01*
X111157000Y-102703261D02*
X111061761Y-102750880D01*
X110871285Y-102750880D01*
X110776047Y-102703261D01*
X110728428Y-102608023D01*
X110728428Y-102227071D01*
X110776047Y-102131833D01*
X110871285Y-102084214D01*
X111061761Y-102084214D01*
X111157000Y-102131833D01*
X111204619Y-102227071D01*
X111204619Y-102322309D01*
X110728428Y-102417547D01*
X112061761Y-102703261D02*
X111966523Y-102750880D01*
X111776047Y-102750880D01*
X111680809Y-102703261D01*
X111633190Y-102655642D01*
X111585571Y-102560404D01*
X111585571Y-102274690D01*
X111633190Y-102179452D01*
X111680809Y-102131833D01*
X111776047Y-102084214D01*
X111966523Y-102084214D01*
X112061761Y-102131833D01*
X112871285Y-102703261D02*
X112776047Y-102750880D01*
X112585571Y-102750880D01*
X112490333Y-102703261D01*
X112442714Y-102608023D01*
X112442714Y-102227071D01*
X112490333Y-102131833D01*
X112585571Y-102084214D01*
X112776047Y-102084214D01*
X112871285Y-102131833D01*
X112918904Y-102227071D01*
X112918904Y-102322309D01*
X112442714Y-102417547D01*
X113347476Y-102750880D02*
X113347476Y-102084214D01*
X113347476Y-101750880D02*
X113299857Y-101798500D01*
X113347476Y-101846119D01*
X113395095Y-101798500D01*
X113347476Y-101750880D01*
X113347476Y-101846119D01*
X113728428Y-102084214D02*
X113966523Y-102750880D01*
X114204619Y-102084214D01*
X114966523Y-102703261D02*
X114871285Y-102750880D01*
X114680809Y-102750880D01*
X114585571Y-102703261D01*
X114537952Y-102608023D01*
X114537952Y-102227071D01*
X114585571Y-102131833D01*
X114680809Y-102084214D01*
X114871285Y-102084214D01*
X114966523Y-102131833D01*
X115014142Y-102227071D01*
X115014142Y-102322309D01*
X114537952Y-102417547D01*
X115442714Y-102750880D02*
X115442714Y-102084214D01*
X115442714Y-102274690D02*
X115490333Y-102179452D01*
X115537952Y-102131833D01*
X115633190Y-102084214D01*
X115728428Y-102084214D01*
X116585571Y-102750880D02*
X116014142Y-102750880D01*
X116299857Y-102750880D02*
X116299857Y-101750880D01*
X116204619Y-101893738D01*
X116109380Y-101988976D01*
X116014142Y-102036595D01*
%TO.C,U2*%
X121248026Y-76707122D02*
X121820446Y-77279542D01*
X121921461Y-77313214D01*
X121988805Y-77313214D01*
X122089820Y-77279542D01*
X122224507Y-77144855D01*
X122258179Y-77043840D01*
X122258179Y-76976496D01*
X122224507Y-76875481D01*
X121652087Y-76303061D01*
X122022477Y-76067359D02*
X122022477Y-76000016D01*
X122056148Y-75899000D01*
X122224507Y-75730642D01*
X122325522Y-75696970D01*
X122392866Y-75696970D01*
X122493881Y-75730642D01*
X122561225Y-75797985D01*
X122628568Y-75932672D01*
X122628568Y-76740794D01*
X123066301Y-76303061D01*
%TO.C,U1*%
X109131977Y-90387026D02*
X108559557Y-90959446D01*
X108525885Y-91060461D01*
X108525885Y-91127805D01*
X108559557Y-91228820D01*
X108694244Y-91363507D01*
X108795259Y-91397179D01*
X108862603Y-91397179D01*
X108963618Y-91363507D01*
X109536038Y-90791087D01*
X109536038Y-92205301D02*
X109131977Y-91801240D01*
X109334007Y-92003270D02*
X110041114Y-91296164D01*
X109872755Y-91329835D01*
X109738068Y-91329835D01*
X109637053Y-91296164D01*
%TO.C,R13*%
X136517312Y-73418450D02*
X135944893Y-73317435D01*
X136113251Y-73822511D02*
X135406145Y-73115404D01*
X135675519Y-72846030D01*
X135776534Y-72812358D01*
X135843877Y-72812358D01*
X135944893Y-72846030D01*
X136045908Y-72947045D01*
X136079580Y-73048061D01*
X136079580Y-73115404D01*
X136045908Y-73216419D01*
X135776534Y-73485793D01*
X137190748Y-72745015D02*
X136786687Y-73149076D01*
X136988717Y-72947045D02*
X136281610Y-72239938D01*
X136315282Y-72408297D01*
X136315282Y-72542984D01*
X136281610Y-72644000D01*
X136719343Y-71802206D02*
X137157076Y-71364473D01*
X137190748Y-71869549D01*
X137291763Y-71768534D01*
X137392778Y-71734862D01*
X137460122Y-71734862D01*
X137561137Y-71768534D01*
X137729496Y-71936893D01*
X137763167Y-72037908D01*
X137763167Y-72105251D01*
X137729496Y-72206267D01*
X137527465Y-72408297D01*
X137426450Y-72441969D01*
X137359106Y-72441969D01*
%TO.C,R12*%
X135501313Y-72275450D02*
X134928894Y-72174435D01*
X135097252Y-72679511D02*
X134390146Y-71972404D01*
X134659520Y-71703030D01*
X134760535Y-71669358D01*
X134827878Y-71669358D01*
X134928894Y-71703030D01*
X135029909Y-71804045D01*
X135063581Y-71905061D01*
X135063581Y-71972404D01*
X135029909Y-72073419D01*
X134760535Y-72342793D01*
X136174749Y-71602015D02*
X135770688Y-72006076D01*
X135972718Y-71804045D02*
X135265611Y-71096938D01*
X135299283Y-71265297D01*
X135299283Y-71399984D01*
X135265611Y-71501000D01*
X135804359Y-70692877D02*
X135804359Y-70625534D01*
X135838031Y-70524519D01*
X136006390Y-70356160D01*
X136107405Y-70322488D01*
X136174749Y-70322488D01*
X136275764Y-70356160D01*
X136343107Y-70423503D01*
X136410451Y-70558190D01*
X136410451Y-71366312D01*
X136848184Y-70928580D01*
%TO.C,R11*%
X134358312Y-71068950D02*
X133785893Y-70967935D01*
X133954251Y-71473011D02*
X133247145Y-70765904D01*
X133516519Y-70496530D01*
X133617534Y-70462858D01*
X133684877Y-70462858D01*
X133785893Y-70496530D01*
X133886908Y-70597545D01*
X133920580Y-70698561D01*
X133920580Y-70765904D01*
X133886908Y-70866919D01*
X133617534Y-71136293D01*
X135031748Y-70395515D02*
X134627687Y-70799576D01*
X134829717Y-70597545D02*
X134122610Y-69890438D01*
X134156282Y-70058797D01*
X134156282Y-70193484D01*
X134122610Y-70294500D01*
X135705183Y-69722080D02*
X135301122Y-70126141D01*
X135503152Y-69924110D02*
X134796045Y-69217003D01*
X134829717Y-69385362D01*
X134829717Y-69520049D01*
X134796045Y-69621064D01*
%TO.C,R10*%
X133278812Y-69925950D02*
X132706393Y-69824935D01*
X132874751Y-70330011D02*
X132167645Y-69622904D01*
X132437019Y-69353530D01*
X132538034Y-69319858D01*
X132605377Y-69319858D01*
X132706393Y-69353530D01*
X132807408Y-69454545D01*
X132841080Y-69555561D01*
X132841080Y-69622904D01*
X132807408Y-69723919D01*
X132538034Y-69993293D01*
X133952248Y-69252515D02*
X133548187Y-69656576D01*
X133750217Y-69454545D02*
X133043110Y-68747438D01*
X133076782Y-68915797D01*
X133076782Y-69050484D01*
X133043110Y-69151500D01*
X133682874Y-68107675D02*
X133750217Y-68040332D01*
X133851232Y-68006660D01*
X133918576Y-68006660D01*
X134019591Y-68040332D01*
X134187950Y-68141347D01*
X134356309Y-68309706D01*
X134457324Y-68478064D01*
X134490996Y-68579080D01*
X134490996Y-68646423D01*
X134457324Y-68747438D01*
X134389980Y-68814782D01*
X134288965Y-68848454D01*
X134221622Y-68848454D01*
X134120606Y-68814782D01*
X133952248Y-68713767D01*
X133783889Y-68545408D01*
X133682874Y-68377049D01*
X133649202Y-68276034D01*
X133649202Y-68208690D01*
X133682874Y-68107675D01*
%TO.C,R9*%
X132282030Y-68700232D02*
X131709610Y-68599217D01*
X131877969Y-69104293D02*
X131170862Y-68397187D01*
X131440236Y-68127812D01*
X131541251Y-68094141D01*
X131608595Y-68094141D01*
X131709610Y-68127812D01*
X131810625Y-68228828D01*
X131844297Y-68329843D01*
X131844297Y-68397187D01*
X131810625Y-68498202D01*
X131541251Y-68767576D01*
X132618748Y-68363515D02*
X132753435Y-68228828D01*
X132787106Y-68127812D01*
X132787106Y-68060469D01*
X132753435Y-67892110D01*
X132652419Y-67723751D01*
X132383045Y-67454377D01*
X132282030Y-67420706D01*
X132214687Y-67420706D01*
X132113671Y-67454377D01*
X131978984Y-67589064D01*
X131945312Y-67690080D01*
X131945312Y-67757423D01*
X131978984Y-67858438D01*
X132147343Y-68026797D01*
X132248358Y-68060469D01*
X132315702Y-68060469D01*
X132416717Y-68026797D01*
X132551404Y-67892110D01*
X132585076Y-67791095D01*
X132585076Y-67723751D01*
X132551404Y-67622736D01*
%TO.C,R8*%
X131832767Y-82561530D02*
X131933782Y-81989110D01*
X131428706Y-82157469D02*
X132135812Y-81450362D01*
X132405187Y-81719736D01*
X132438858Y-81820751D01*
X132438858Y-81888095D01*
X132405187Y-81989110D01*
X132304171Y-82090125D01*
X132203156Y-82123797D01*
X132135812Y-82123797D01*
X132034797Y-82090125D01*
X131765423Y-81820751D01*
X132640889Y-82561530D02*
X132607217Y-82460515D01*
X132607217Y-82393171D01*
X132640889Y-82292156D01*
X132674561Y-82258484D01*
X132775576Y-82224812D01*
X132842919Y-82224812D01*
X132943935Y-82258484D01*
X133078622Y-82393171D01*
X133112293Y-82494187D01*
X133112293Y-82561530D01*
X133078622Y-82662545D01*
X133044950Y-82696217D01*
X132943935Y-82729889D01*
X132876591Y-82729889D01*
X132775576Y-82696217D01*
X132640889Y-82561530D01*
X132539874Y-82527858D01*
X132472530Y-82527858D01*
X132371515Y-82561530D01*
X132236828Y-82696217D01*
X132203156Y-82797232D01*
X132203156Y-82864576D01*
X132236828Y-82965591D01*
X132371515Y-83100278D01*
X132472530Y-83133950D01*
X132539874Y-83133950D01*
X132640889Y-83100278D01*
X132775576Y-82965591D01*
X132809248Y-82864576D01*
X132809248Y-82797232D01*
X132775576Y-82696217D01*
%TO.C,R7*%
X104405530Y-96068732D02*
X103833110Y-95967717D01*
X104001469Y-96472793D02*
X103294362Y-95765687D01*
X103563736Y-95496312D01*
X103664751Y-95462641D01*
X103732095Y-95462641D01*
X103833110Y-95496312D01*
X103934125Y-95597328D01*
X103967797Y-95698343D01*
X103967797Y-95765687D01*
X103934125Y-95866702D01*
X103664751Y-96136076D01*
X103934125Y-95125923D02*
X104405530Y-94654519D01*
X104809591Y-95664671D01*
%TO.C,R6*%
X105548530Y-97084732D02*
X104976110Y-96983717D01*
X105144469Y-97488793D02*
X104437362Y-96781687D01*
X104706736Y-96512312D01*
X104807751Y-96478641D01*
X104875095Y-96478641D01*
X104976110Y-96512312D01*
X105077125Y-96613328D01*
X105110797Y-96714343D01*
X105110797Y-96781687D01*
X105077125Y-96882702D01*
X104807751Y-97152076D01*
X105447515Y-95771534D02*
X105312828Y-95906221D01*
X105279156Y-96007236D01*
X105279156Y-96074580D01*
X105312828Y-96242938D01*
X105413843Y-96411297D01*
X105683217Y-96680671D01*
X105784232Y-96714343D01*
X105851576Y-96714343D01*
X105952591Y-96680671D01*
X106087278Y-96545984D01*
X106120950Y-96444969D01*
X106120950Y-96377625D01*
X106087278Y-96276610D01*
X105918919Y-96108251D01*
X105817904Y-96074580D01*
X105750561Y-96074580D01*
X105649545Y-96108251D01*
X105514858Y-96242938D01*
X105481187Y-96343954D01*
X105481187Y-96411297D01*
X105514858Y-96512312D01*
%TO.C,R5*%
X128218030Y-81527232D02*
X127645610Y-81426217D01*
X127813969Y-81931293D02*
X127106862Y-81224187D01*
X127376236Y-80954812D01*
X127477251Y-80921141D01*
X127544595Y-80921141D01*
X127645610Y-80954812D01*
X127746625Y-81055828D01*
X127780297Y-81156843D01*
X127780297Y-81224187D01*
X127746625Y-81325202D01*
X127477251Y-81594576D01*
X128150687Y-80180362D02*
X127813969Y-80517080D01*
X128117015Y-80887469D01*
X128117015Y-80820125D01*
X128150687Y-80719110D01*
X128319045Y-80550751D01*
X128420061Y-80517080D01*
X128487404Y-80517080D01*
X128588419Y-80550751D01*
X128756778Y-80719110D01*
X128790450Y-80820125D01*
X128790450Y-80887469D01*
X128756778Y-80988484D01*
X128588419Y-81156843D01*
X128487404Y-81190515D01*
X128420061Y-81190515D01*
%TO.C,R4*%
X133373833Y-96273880D02*
X133040500Y-95797690D01*
X132802404Y-96273880D02*
X132802404Y-95273880D01*
X133183357Y-95273880D01*
X133278595Y-95321500D01*
X133326214Y-95369119D01*
X133373833Y-95464357D01*
X133373833Y-95607214D01*
X133326214Y-95702452D01*
X133278595Y-95750071D01*
X133183357Y-95797690D01*
X132802404Y-95797690D01*
X134230976Y-95607214D02*
X134230976Y-96273880D01*
X133992880Y-95226261D02*
X133754785Y-95940547D01*
X134373833Y-95940547D01*
%TO.C,R3*%
X128214380Y-71667666D02*
X127738190Y-72001000D01*
X128214380Y-72239095D02*
X127214380Y-72239095D01*
X127214380Y-71858142D01*
X127262000Y-71762904D01*
X127309619Y-71715285D01*
X127404857Y-71667666D01*
X127547714Y-71667666D01*
X127642952Y-71715285D01*
X127690571Y-71762904D01*
X127738190Y-71858142D01*
X127738190Y-72239095D01*
X127214380Y-71334333D02*
X127214380Y-70715285D01*
X127595333Y-71048619D01*
X127595333Y-70905761D01*
X127642952Y-70810523D01*
X127690571Y-70762904D01*
X127785809Y-70715285D01*
X128023904Y-70715285D01*
X128119142Y-70762904D01*
X128166761Y-70810523D01*
X128214380Y-70905761D01*
X128214380Y-71191476D01*
X128166761Y-71286714D01*
X128119142Y-71334333D01*
%TO.C,R2*%
X111466333Y-79319380D02*
X111133000Y-78843190D01*
X110894904Y-79319380D02*
X110894904Y-78319380D01*
X111275857Y-78319380D01*
X111371095Y-78367000D01*
X111418714Y-78414619D01*
X111466333Y-78509857D01*
X111466333Y-78652714D01*
X111418714Y-78747952D01*
X111371095Y-78795571D01*
X111275857Y-78843190D01*
X110894904Y-78843190D01*
X111847285Y-78414619D02*
X111894904Y-78367000D01*
X111990142Y-78319380D01*
X112228238Y-78319380D01*
X112323476Y-78367000D01*
X112371095Y-78414619D01*
X112418714Y-78509857D01*
X112418714Y-78605095D01*
X112371095Y-78747952D01*
X111799666Y-79319380D01*
X112418714Y-79319380D01*
%TO.C,R1*%
X132659380Y-99861666D02*
X132183190Y-100195000D01*
X132659380Y-100433095D02*
X131659380Y-100433095D01*
X131659380Y-100052142D01*
X131707000Y-99956904D01*
X131754619Y-99909285D01*
X131849857Y-99861666D01*
X131992714Y-99861666D01*
X132087952Y-99909285D01*
X132135571Y-99956904D01*
X132183190Y-100052142D01*
X132183190Y-100433095D01*
X132659380Y-98909285D02*
X132659380Y-99480714D01*
X132659380Y-99195000D02*
X131659380Y-99195000D01*
X131802238Y-99290238D01*
X131897476Y-99385476D01*
X131945095Y-99480714D01*
%TO.C,L1*%
X115386267Y-83260030D02*
X115049549Y-82923312D01*
X115756656Y-82216206D01*
X115992358Y-83866122D02*
X115588297Y-83462061D01*
X115790328Y-83664091D02*
X116497435Y-82956984D01*
X116329076Y-82990656D01*
X116194389Y-82990656D01*
X116093374Y-82956984D01*
%TO.C,CH4*%
X145391142Y-87240976D02*
X145438761Y-87288595D01*
X145486380Y-87431452D01*
X145486380Y-87526690D01*
X145438761Y-87669547D01*
X145343523Y-87764785D01*
X145248285Y-87812404D01*
X145057809Y-87860023D01*
X144914952Y-87860023D01*
X144724476Y-87812404D01*
X144629238Y-87764785D01*
X144534000Y-87669547D01*
X144486380Y-87526690D01*
X144486380Y-87431452D01*
X144534000Y-87288595D01*
X144581619Y-87240976D01*
X145486380Y-86812404D02*
X144486380Y-86812404D01*
X144962571Y-86812404D02*
X144962571Y-86240976D01*
X145486380Y-86240976D02*
X144486380Y-86240976D01*
X144819714Y-85336214D02*
X145486380Y-85336214D01*
X144438761Y-85574309D02*
X145153047Y-85812404D01*
X145153047Y-85193357D01*
%TO.C,CH3*%
X121102523Y-63730142D02*
X121054904Y-63777761D01*
X120912047Y-63825380D01*
X120816809Y-63825380D01*
X120673952Y-63777761D01*
X120578714Y-63682523D01*
X120531095Y-63587285D01*
X120483476Y-63396809D01*
X120483476Y-63253952D01*
X120531095Y-63063476D01*
X120578714Y-62968238D01*
X120673952Y-62873000D01*
X120816809Y-62825380D01*
X120912047Y-62825380D01*
X121054904Y-62873000D01*
X121102523Y-62920619D01*
X121531095Y-63825380D02*
X121531095Y-62825380D01*
X121531095Y-63301571D02*
X122102523Y-63301571D01*
X122102523Y-63825380D02*
X122102523Y-62825380D01*
X122483476Y-62825380D02*
X123102523Y-62825380D01*
X122769190Y-63206333D01*
X122912047Y-63206333D01*
X123007285Y-63253952D01*
X123054904Y-63301571D01*
X123102523Y-63396809D01*
X123102523Y-63634904D01*
X123054904Y-63730142D01*
X123007285Y-63777761D01*
X122912047Y-63825380D01*
X122626333Y-63825380D01*
X122531095Y-63777761D01*
X122483476Y-63730142D01*
%TO.C,conn2upper1*%
X137483511Y-64078431D02*
X137382496Y-64044759D01*
X137247809Y-63910072D01*
X137214137Y-63809057D01*
X137214137Y-63741714D01*
X137247809Y-63640698D01*
X137449840Y-63438668D01*
X137550855Y-63404996D01*
X137618198Y-63404996D01*
X137719214Y-63438668D01*
X137853901Y-63573355D01*
X137887572Y-63674370D01*
X137853901Y-64516164D02*
X137820229Y-64415149D01*
X137820229Y-64347805D01*
X137853901Y-64246790D01*
X138055931Y-64044759D01*
X138156946Y-64011088D01*
X138224290Y-64011088D01*
X138325305Y-64044759D01*
X138426320Y-64145775D01*
X138459992Y-64246790D01*
X138459992Y-64314133D01*
X138426320Y-64415149D01*
X138224290Y-64617179D01*
X138123275Y-64650851D01*
X138055931Y-64650851D01*
X137954916Y-64617179D01*
X137853901Y-64516164D01*
X138864053Y-64583507D02*
X138392649Y-65054912D01*
X138796710Y-64650851D02*
X138864053Y-64650851D01*
X138965068Y-64684523D01*
X139066084Y-64785538D01*
X139099755Y-64886553D01*
X139066084Y-64987568D01*
X138695694Y-65357958D01*
X139503816Y-65223271D02*
X139032412Y-65694675D01*
X139436473Y-65290614D02*
X139503816Y-65290614D01*
X139604832Y-65324286D01*
X139705847Y-65425301D01*
X139739519Y-65526316D01*
X139705847Y-65627332D01*
X139335458Y-65997721D01*
X140278267Y-65661003D02*
X140345610Y-65661003D01*
X140446625Y-65694675D01*
X140614984Y-65863034D01*
X140648656Y-65964049D01*
X140648656Y-66031393D01*
X140614984Y-66132408D01*
X140547641Y-66199751D01*
X140412954Y-66267095D01*
X139604832Y-66267095D01*
X140042564Y-66704828D01*
X141120061Y-66839515D02*
X140648656Y-67310919D01*
X140817015Y-66536469D02*
X140446625Y-66906858D01*
X140412954Y-67007874D01*
X140446625Y-67108889D01*
X140547641Y-67209904D01*
X140648656Y-67243576D01*
X140715999Y-67243576D01*
X141456778Y-67176232D02*
X140749671Y-67883339D01*
X141423106Y-67209904D02*
X141524122Y-67243576D01*
X141658809Y-67378263D01*
X141692480Y-67479278D01*
X141692480Y-67546622D01*
X141658809Y-67647637D01*
X141456778Y-67849667D01*
X141355763Y-67883339D01*
X141288419Y-67883339D01*
X141187404Y-67849667D01*
X141052717Y-67714980D01*
X141019045Y-67613965D01*
X142096541Y-67815996D02*
X141389435Y-68523102D01*
X142062870Y-67849667D02*
X142163885Y-67883339D01*
X142298572Y-68018026D01*
X142332244Y-68119041D01*
X142332244Y-68186385D01*
X142298572Y-68287400D01*
X142096541Y-68489431D01*
X141995526Y-68523102D01*
X141928183Y-68523102D01*
X141827167Y-68489431D01*
X141692480Y-68354744D01*
X141658809Y-68253728D01*
X142567946Y-69162866D02*
X142466931Y-69129194D01*
X142332244Y-68994507D01*
X142298572Y-68893492D01*
X142332244Y-68792476D01*
X142601618Y-68523102D01*
X142702633Y-68489431D01*
X142803648Y-68523102D01*
X142938335Y-68657789D01*
X142972007Y-68758805D01*
X142938335Y-68859820D01*
X142870992Y-68927163D01*
X142466931Y-68657789D01*
X142870992Y-69533255D02*
X143342396Y-69061850D01*
X143207709Y-69196537D02*
X143308724Y-69162866D01*
X143376068Y-69162866D01*
X143477083Y-69196537D01*
X143544427Y-69263881D01*
X143679114Y-70341377D02*
X143275053Y-69937316D01*
X143477083Y-70139346D02*
X144184190Y-69432240D01*
X144015831Y-69465911D01*
X143881144Y-69465911D01*
X143780129Y-69432240D01*
%TO.C,CH2*%
X99988642Y-88637976D02*
X100036261Y-88685595D01*
X100083880Y-88828452D01*
X100083880Y-88923690D01*
X100036261Y-89066547D01*
X99941023Y-89161785D01*
X99845785Y-89209404D01*
X99655309Y-89257023D01*
X99512452Y-89257023D01*
X99321976Y-89209404D01*
X99226738Y-89161785D01*
X99131500Y-89066547D01*
X99083880Y-88923690D01*
X99083880Y-88828452D01*
X99131500Y-88685595D01*
X99179119Y-88637976D01*
X100083880Y-88209404D02*
X99083880Y-88209404D01*
X99560071Y-88209404D02*
X99560071Y-87637976D01*
X100083880Y-87637976D02*
X99083880Y-87637976D01*
X99179119Y-87209404D02*
X99131500Y-87161785D01*
X99083880Y-87066547D01*
X99083880Y-86828452D01*
X99131500Y-86733214D01*
X99179119Y-86685595D01*
X99274357Y-86637976D01*
X99369595Y-86637976D01*
X99512452Y-86685595D01*
X100083880Y-87257023D01*
X100083880Y-86637976D01*
%TO.C,CH1*%
X120594523Y-108370642D02*
X120546904Y-108418261D01*
X120404047Y-108465880D01*
X120308809Y-108465880D01*
X120165952Y-108418261D01*
X120070714Y-108323023D01*
X120023095Y-108227785D01*
X119975476Y-108037309D01*
X119975476Y-107894452D01*
X120023095Y-107703976D01*
X120070714Y-107608738D01*
X120165952Y-107513500D01*
X120308809Y-107465880D01*
X120404047Y-107465880D01*
X120546904Y-107513500D01*
X120594523Y-107561119D01*
X121023095Y-108465880D02*
X121023095Y-107465880D01*
X121023095Y-107942071D02*
X121594523Y-107942071D01*
X121594523Y-108465880D02*
X121594523Y-107465880D01*
X122594523Y-108465880D02*
X122023095Y-108465880D01*
X122308809Y-108465880D02*
X122308809Y-107465880D01*
X122213571Y-107608738D01*
X122118333Y-107703976D01*
X122023095Y-107751595D01*
%TO.C,H4*%
X139573095Y-111005880D02*
X139573095Y-110005880D01*
X139573095Y-110482071D02*
X140144523Y-110482071D01*
X140144523Y-111005880D02*
X140144523Y-110005880D01*
X141049285Y-110339214D02*
X141049285Y-111005880D01*
X140811190Y-109958261D02*
X140573095Y-110672547D01*
X141192142Y-110672547D01*
%TO.C,H3*%
X103378095Y-110878880D02*
X103378095Y-109878880D01*
X103378095Y-110355071D02*
X103949523Y-110355071D01*
X103949523Y-110878880D02*
X103949523Y-109878880D01*
X104330476Y-109878880D02*
X104949523Y-109878880D01*
X104616190Y-110259833D01*
X104759047Y-110259833D01*
X104854285Y-110307452D01*
X104901904Y-110355071D01*
X104949523Y-110450309D01*
X104949523Y-110688404D01*
X104901904Y-110783642D01*
X104854285Y-110831261D01*
X104759047Y-110878880D01*
X104473333Y-110878880D01*
X104378095Y-110831261D01*
X104330476Y-110783642D01*
%TO.C,H2*%
X138811095Y-63698380D02*
X138811095Y-62698380D01*
X138811095Y-63174571D02*
X139382523Y-63174571D01*
X139382523Y-63698380D02*
X139382523Y-62698380D01*
X139811095Y-62793619D02*
X139858714Y-62746000D01*
X139953952Y-62698380D01*
X140192047Y-62698380D01*
X140287285Y-62746000D01*
X140334904Y-62793619D01*
X140382523Y-62888857D01*
X140382523Y-62984095D01*
X140334904Y-63126952D01*
X139763476Y-63698380D01*
X140382523Y-63698380D01*
%TO.C,H1*%
X99568095Y-61372380D02*
X99568095Y-60372380D01*
X99568095Y-60848571D02*
X100139523Y-60848571D01*
X100139523Y-61372380D02*
X100139523Y-60372380D01*
X101139523Y-61372380D02*
X100568095Y-61372380D01*
X100853809Y-61372380D02*
X100853809Y-60372380D01*
X100758571Y-60515238D01*
X100663333Y-60610476D01*
X100568095Y-60658095D01*
%TO.C,D7*%
X132571706Y-81204969D02*
X133278812Y-80497862D01*
X133447171Y-80666221D01*
X133514515Y-80800908D01*
X133514515Y-80935595D01*
X133480843Y-81036610D01*
X133379828Y-81204969D01*
X133278812Y-81305984D01*
X133110454Y-81407000D01*
X133009438Y-81440671D01*
X132874751Y-81440671D01*
X132740064Y-81373328D01*
X132571706Y-81204969D01*
X133918576Y-81137625D02*
X134389980Y-81609030D01*
X133379828Y-82013091D01*
%TO.C,D6*%
X121014706Y-92634969D02*
X121721812Y-91927862D01*
X121890171Y-92096221D01*
X121957515Y-92230908D01*
X121957515Y-92365595D01*
X121923843Y-92466610D01*
X121822828Y-92634969D01*
X121721812Y-92735984D01*
X121553454Y-92837000D01*
X121452438Y-92870671D01*
X121317751Y-92870671D01*
X121183064Y-92803328D01*
X121014706Y-92634969D01*
X122731965Y-92938015D02*
X122597278Y-92803328D01*
X122496263Y-92769656D01*
X122428919Y-92769656D01*
X122260561Y-92803328D01*
X122092202Y-92904343D01*
X121822828Y-93173717D01*
X121789156Y-93274732D01*
X121789156Y-93342076D01*
X121822828Y-93443091D01*
X121957515Y-93577778D01*
X122058530Y-93611450D01*
X122125874Y-93611450D01*
X122226889Y-93577778D01*
X122395248Y-93409419D01*
X122428919Y-93308404D01*
X122428919Y-93241061D01*
X122395248Y-93140045D01*
X122260561Y-93005358D01*
X122159545Y-92971687D01*
X122092202Y-92971687D01*
X121991187Y-93005358D01*
%TO.C,D5*%
X129020469Y-83201293D02*
X128313362Y-82494187D01*
X128481721Y-82325828D01*
X128616408Y-82258484D01*
X128751095Y-82258484D01*
X128852110Y-82292156D01*
X129020469Y-82393171D01*
X129121484Y-82494187D01*
X129222500Y-82662545D01*
X129256171Y-82763561D01*
X129256171Y-82898248D01*
X129188828Y-83032935D01*
X129020469Y-83201293D01*
X129357187Y-81450362D02*
X129020469Y-81787080D01*
X129323515Y-82157469D01*
X129323515Y-82090125D01*
X129357187Y-81989110D01*
X129525545Y-81820751D01*
X129626561Y-81787080D01*
X129693904Y-81787080D01*
X129794919Y-81820751D01*
X129963278Y-81989110D01*
X129996950Y-82090125D01*
X129996950Y-82157469D01*
X129963278Y-82258484D01*
X129794919Y-82426843D01*
X129693904Y-82460515D01*
X129626561Y-82460515D01*
%TO.C,D4*%
X132802404Y-94559380D02*
X132802404Y-93559380D01*
X133040500Y-93559380D01*
X133183357Y-93607000D01*
X133278595Y-93702238D01*
X133326214Y-93797476D01*
X133373833Y-93987952D01*
X133373833Y-94130809D01*
X133326214Y-94321285D01*
X133278595Y-94416523D01*
X133183357Y-94511761D01*
X133040500Y-94559380D01*
X132802404Y-94559380D01*
X134230976Y-93892714D02*
X134230976Y-94559380D01*
X133992880Y-93511761D02*
X133754785Y-94226047D01*
X134373833Y-94226047D01*
%TO.C,D3*%
X126626880Y-72239095D02*
X125626880Y-72239095D01*
X125626880Y-72001000D01*
X125674500Y-71858142D01*
X125769738Y-71762904D01*
X125864976Y-71715285D01*
X126055452Y-71667666D01*
X126198309Y-71667666D01*
X126388785Y-71715285D01*
X126484023Y-71762904D01*
X126579261Y-71858142D01*
X126626880Y-72001000D01*
X126626880Y-72239095D01*
X125626880Y-71334333D02*
X125626880Y-70715285D01*
X126007833Y-71048619D01*
X126007833Y-70905761D01*
X126055452Y-70810523D01*
X126103071Y-70762904D01*
X126198309Y-70715285D01*
X126436404Y-70715285D01*
X126531642Y-70762904D01*
X126579261Y-70810523D01*
X126626880Y-70905761D01*
X126626880Y-71191476D01*
X126579261Y-71286714D01*
X126531642Y-71334333D01*
%TO.C,D2*%
X110894904Y-81033880D02*
X110894904Y-80033880D01*
X111133000Y-80033880D01*
X111275857Y-80081500D01*
X111371095Y-80176738D01*
X111418714Y-80271976D01*
X111466333Y-80462452D01*
X111466333Y-80605309D01*
X111418714Y-80795785D01*
X111371095Y-80891023D01*
X111275857Y-80986261D01*
X111133000Y-81033880D01*
X110894904Y-81033880D01*
X111847285Y-80129119D02*
X111894904Y-80081500D01*
X111990142Y-80033880D01*
X112228238Y-80033880D01*
X112323476Y-80081500D01*
X112371095Y-80129119D01*
X112418714Y-80224357D01*
X112418714Y-80319595D01*
X112371095Y-80462452D01*
X111799666Y-81033880D01*
X112418714Y-81033880D01*
%TO.C,D1*%
X131071880Y-100496595D02*
X130071880Y-100496595D01*
X130071880Y-100258500D01*
X130119500Y-100115642D01*
X130214738Y-100020404D01*
X130309976Y-99972785D01*
X130500452Y-99925166D01*
X130643309Y-99925166D01*
X130833785Y-99972785D01*
X130929023Y-100020404D01*
X131024261Y-100115642D01*
X131071880Y-100258500D01*
X131071880Y-100496595D01*
X131071880Y-98972785D02*
X131071880Y-99544214D01*
X131071880Y-99258500D02*
X130071880Y-99258500D01*
X130214738Y-99353738D01*
X130309976Y-99448976D01*
X130357595Y-99544214D01*
%TO.C,C3*%
X119449273Y-82880024D02*
X119381930Y-82880024D01*
X119247243Y-82812680D01*
X119179899Y-82745337D01*
X119112556Y-82610649D01*
X119112556Y-82475962D01*
X119146227Y-82374947D01*
X119247243Y-82206588D01*
X119348258Y-82105573D01*
X119516617Y-82004558D01*
X119617632Y-81970886D01*
X119752319Y-81970886D01*
X119887006Y-82038230D01*
X119954350Y-82105573D01*
X120021693Y-82240260D01*
X120021693Y-82307604D01*
X120324739Y-82475962D02*
X120762472Y-82913695D01*
X120257395Y-82947367D01*
X120358411Y-83048382D01*
X120392082Y-83149398D01*
X120392082Y-83216741D01*
X120358411Y-83317756D01*
X120190052Y-83486115D01*
X120089037Y-83519787D01*
X120021693Y-83519787D01*
X119920678Y-83486115D01*
X119718647Y-83284085D01*
X119684975Y-83183069D01*
X119684975Y-83115726D01*
%TO.C,C2*%
X113861273Y-83515024D02*
X113793930Y-83515024D01*
X113659243Y-83447680D01*
X113591899Y-83380337D01*
X113524556Y-83245649D01*
X113524556Y-83110962D01*
X113558227Y-83009947D01*
X113659243Y-82841588D01*
X113760258Y-82740573D01*
X113928617Y-82639558D01*
X114029632Y-82605886D01*
X114164319Y-82605886D01*
X114299006Y-82673230D01*
X114366350Y-82740573D01*
X114433693Y-82875260D01*
X114433693Y-82942604D01*
X114703067Y-83211978D02*
X114770411Y-83211978D01*
X114871426Y-83245649D01*
X115039785Y-83414008D01*
X115073456Y-83515024D01*
X115073456Y-83582367D01*
X115039785Y-83683382D01*
X114972441Y-83750726D01*
X114837754Y-83818069D01*
X114029632Y-83818069D01*
X114467365Y-84255802D01*
%TO.C,C1*%
X114564610Y-93987688D02*
X114497267Y-93987688D01*
X114362580Y-93920344D01*
X114295236Y-93853001D01*
X114227893Y-93718313D01*
X114227893Y-93583626D01*
X114261564Y-93482611D01*
X114362580Y-93314252D01*
X114463595Y-93213237D01*
X114631954Y-93112222D01*
X114732969Y-93078550D01*
X114867656Y-93078550D01*
X115002343Y-93145894D01*
X115069687Y-93213237D01*
X115137030Y-93347924D01*
X115137030Y-93415268D01*
X115170702Y-94728466D02*
X114766641Y-94324405D01*
X114968671Y-94526436D02*
X115675778Y-93819329D01*
X115507419Y-93853001D01*
X115372732Y-93853001D01*
X115271717Y-93819329D01*
%TD*%
M02*
