%TF.GenerationSoftware,KiCad,Pcbnew,(5.1.8-0-10_14)*%
%TF.CreationDate,2021-02-16T17:48:47+08:00*%
%TF.ProjectId,batt_board,62617474-5f62-46f6-9172-642e6b696361,rev?*%
%TF.SameCoordinates,Original*%
%TF.FileFunction,Paste,Top*%
%TF.FilePolarity,Positive*%
%FSLAX46Y46*%
G04 Gerber Fmt 4.6, Leading zero omitted, Abs format (unit mm)*
G04 Created by KiCad (PCBNEW (5.1.8-0-10_14)) date 2021-02-16 17:48:47*
%MOMM*%
%LPD*%
G01*
G04 APERTURE LIST*
%ADD10C,0.120000*%
%ADD11C,0.100000*%
G04 APERTURE END LIST*
D10*
%TO.C,J3*%
X106410000Y-99060000D02*
X106410000Y-74930000D01*
X103870000Y-72390000D02*
X91170000Y-72390000D01*
X88630000Y-74930000D02*
X88630000Y-99060000D01*
X91170000Y-101600000D02*
X103870000Y-101600000D01*
X106410000Y-74930000D02*
G75*
G03*
X103870000Y-72390000I-2540000J0D01*
G01*
X91170000Y-72390000D02*
G75*
G03*
X88630000Y-74930000I0J-2540000D01*
G01*
X88630000Y-99060000D02*
G75*
G03*
X91170000Y-101600000I2540000J0D01*
G01*
X103870000Y-101600000D02*
G75*
G03*
X106410000Y-99060000I0J2540000D01*
G01*
%TO.C,J5*%
X109220000Y-70080000D02*
X133350000Y-70080000D01*
X135890000Y-67540000D02*
X135890000Y-54840000D01*
X133350000Y-52300000D02*
X109220000Y-52300000D01*
X106680000Y-54840000D02*
X106680000Y-67540000D01*
X133350000Y-70080000D02*
G75*
G03*
X135890000Y-67540000I0J2540000D01*
G01*
X135890000Y-54840000D02*
G75*
G03*
X133350000Y-52300000I-2540000J0D01*
G01*
X109220000Y-52300000D02*
G75*
G03*
X106680000Y-54840000I0J-2540000D01*
G01*
X106680000Y-67540000D02*
G75*
G03*
X109220000Y-70080000I2540000J0D01*
G01*
%TO.C,J4*%
X137430000Y-74930000D02*
X137430000Y-99060000D01*
X139970000Y-101600000D02*
X152670000Y-101600000D01*
X155210000Y-99060000D02*
X155210000Y-74930000D01*
X152670000Y-72390000D02*
X139970000Y-72390000D01*
X137430000Y-99060000D02*
G75*
G03*
X139970000Y-101600000I2540000J0D01*
G01*
X152670000Y-101600000D02*
G75*
G03*
X155210000Y-99060000I0J2540000D01*
G01*
X155210000Y-74930000D02*
G75*
G03*
X152670000Y-72390000I-2540000J0D01*
G01*
X139970000Y-72390000D02*
G75*
G03*
X137430000Y-74930000I0J-2540000D01*
G01*
%TO.C,J2*%
X109220000Y-119380000D02*
X133350000Y-119380000D01*
X135890000Y-116840000D02*
X135890000Y-104140000D01*
X133350000Y-101600000D02*
X109220000Y-101600000D01*
X106680000Y-104140000D02*
X106680000Y-116840000D01*
X133350000Y-119380000D02*
G75*
G03*
X135890000Y-116840000I0J2540000D01*
G01*
X135890000Y-104140000D02*
G75*
G03*
X133350000Y-101600000I-2540000J0D01*
G01*
X109220000Y-101600000D02*
G75*
G03*
X106680000Y-104140000I0J-2540000D01*
G01*
X106680000Y-116840000D02*
G75*
G03*
X109220000Y-119380000I2540000J0D01*
G01*
%TD*%
%TO.C,J11*%
G36*
G01*
X110462479Y-69294359D02*
X107634051Y-66465931D01*
G75*
G02*
X107634051Y-60809077I2828427J2828427D01*
G01*
X107634051Y-60809077D01*
G75*
G02*
X113290905Y-60809077I2828427J-2828427D01*
G01*
X116119333Y-63637505D01*
G75*
G02*
X116119333Y-69294359I-2828427J-2828427D01*
G01*
X116119333Y-69294359D01*
G75*
G02*
X110462479Y-69294359I-2828427J2828427D01*
G01*
G37*
G36*
G01*
X98788146Y-80968692D02*
X95959718Y-78140264D01*
G75*
G02*
X95959718Y-72483410I2828427J2828427D01*
G01*
X95959718Y-72483410D01*
G75*
G02*
X101616572Y-72483410I2828427J-2828427D01*
G01*
X104445000Y-75311838D01*
G75*
G02*
X104445000Y-80968692I-2828427J-2828427D01*
G01*
X104445000Y-80968692D01*
G75*
G02*
X98788146Y-80968692I-2828427J2828427D01*
G01*
G37*
%TD*%
D11*
%TO.C,U2*%
G36*
X119159491Y-79308478D02*
G01*
X118098831Y-78247818D01*
X119513045Y-76833604D01*
X120573705Y-77894264D01*
X119159491Y-79308478D01*
G37*
G36*
X122412182Y-82561169D02*
G01*
X121351522Y-81500509D01*
X122765736Y-80086295D01*
X123826396Y-81146955D01*
X122412182Y-82561169D01*
G37*
G36*
X120785837Y-80934823D02*
G01*
X119725177Y-79874163D01*
X121139391Y-78459949D01*
X122200051Y-79520609D01*
X120785837Y-80934823D01*
G37*
G36*
X126053782Y-77293224D02*
G01*
X123366776Y-74606218D01*
X124780990Y-73192004D01*
X127467996Y-75879010D01*
X126053782Y-77293224D01*
G37*
%TD*%
%TO.C,U1*%
G36*
X114256087Y-89126274D02*
G01*
X114680351Y-88702010D01*
X115776367Y-89798026D01*
X115352103Y-90222290D01*
X114256087Y-89126274D01*
G37*
G36*
X113358061Y-90024300D02*
G01*
X113782325Y-89600036D01*
X114878341Y-90696052D01*
X114454077Y-91120316D01*
X113358061Y-90024300D01*
G37*
G36*
X112460036Y-90922325D02*
G01*
X112884300Y-90498061D01*
X113980316Y-91594077D01*
X113556052Y-92018341D01*
X112460036Y-90922325D01*
G37*
G36*
X111562010Y-91820351D02*
G01*
X111986274Y-91396087D01*
X113082290Y-92492103D01*
X112658026Y-92916367D01*
X111562010Y-91820351D01*
G37*
G36*
X107743633Y-88001974D02*
G01*
X108167897Y-87577710D01*
X109263913Y-88673726D01*
X108839649Y-89097990D01*
X107743633Y-88001974D01*
G37*
G36*
X108641659Y-87103948D02*
G01*
X109065923Y-86679684D01*
X110161939Y-87775700D01*
X109737675Y-88199964D01*
X108641659Y-87103948D01*
G37*
G36*
X109539684Y-86205923D02*
G01*
X109963948Y-85781659D01*
X111059964Y-86877675D01*
X110635700Y-87301939D01*
X109539684Y-86205923D01*
G37*
G36*
X110437710Y-85307897D02*
G01*
X110861974Y-84883633D01*
X111957990Y-85979649D01*
X111533726Y-86403913D01*
X110437710Y-85307897D01*
G37*
G36*
X109744746Y-89076777D02*
G01*
X111936777Y-86884746D01*
X113775254Y-88723223D01*
X111583223Y-90915254D01*
X109744746Y-89076777D01*
G37*
%TD*%
%TO.C,R13*%
G36*
G01*
X134024542Y-74935582D02*
X134360418Y-75271458D01*
G75*
G02*
X134360418Y-75607334I-167938J-167938D01*
G01*
X134006864Y-75960888D01*
G75*
G02*
X133670988Y-75960888I-167938J167938D01*
G01*
X133335112Y-75625012D01*
G75*
G02*
X133335112Y-75289136I167938J167938D01*
G01*
X133688666Y-74935582D01*
G75*
G02*
X134024542Y-74935582I167938J-167938D01*
G01*
G37*
G36*
G01*
X135315012Y-73645112D02*
X135650888Y-73980988D01*
G75*
G02*
X135650888Y-74316864I-167938J-167938D01*
G01*
X135297334Y-74670418D01*
G75*
G02*
X134961458Y-74670418I-167938J167938D01*
G01*
X134625582Y-74334542D01*
G75*
G02*
X134625582Y-73998666I167938J167938D01*
G01*
X134979136Y-73645112D01*
G75*
G02*
X135315012Y-73645112I167938J-167938D01*
G01*
G37*
%TD*%
%TO.C,R12*%
G36*
G01*
X133818458Y-73527418D02*
X133482582Y-73191542D01*
G75*
G02*
X133482582Y-72855666I167938J167938D01*
G01*
X133836136Y-72502112D01*
G75*
G02*
X134172012Y-72502112I167938J-167938D01*
G01*
X134507888Y-72837988D01*
G75*
G02*
X134507888Y-73173864I-167938J-167938D01*
G01*
X134154334Y-73527418D01*
G75*
G02*
X133818458Y-73527418I-167938J167938D01*
G01*
G37*
G36*
G01*
X132527988Y-74817888D02*
X132192112Y-74482012D01*
G75*
G02*
X132192112Y-74146136I167938J167938D01*
G01*
X132545666Y-73792582D01*
G75*
G02*
X132881542Y-73792582I167938J-167938D01*
G01*
X133217418Y-74128458D01*
G75*
G02*
X133217418Y-74464334I-167938J-167938D01*
G01*
X132863864Y-74817888D01*
G75*
G02*
X132527988Y-74817888I-167938J167938D01*
G01*
G37*
%TD*%
%TO.C,R11*%
G36*
G01*
X132675458Y-72384418D02*
X132339582Y-72048542D01*
G75*
G02*
X132339582Y-71712666I167938J167938D01*
G01*
X132693136Y-71359112D01*
G75*
G02*
X133029012Y-71359112I167938J-167938D01*
G01*
X133364888Y-71694988D01*
G75*
G02*
X133364888Y-72030864I-167938J-167938D01*
G01*
X133011334Y-72384418D01*
G75*
G02*
X132675458Y-72384418I-167938J167938D01*
G01*
G37*
G36*
G01*
X131384988Y-73674888D02*
X131049112Y-73339012D01*
G75*
G02*
X131049112Y-73003136I167938J167938D01*
G01*
X131402666Y-72649582D01*
G75*
G02*
X131738542Y-72649582I167938J-167938D01*
G01*
X132074418Y-72985458D01*
G75*
G02*
X132074418Y-73321334I-167938J-167938D01*
G01*
X131720864Y-73674888D01*
G75*
G02*
X131384988Y-73674888I-167938J167938D01*
G01*
G37*
%TD*%
%TO.C,R10*%
G36*
G01*
X131532458Y-71241418D02*
X131196582Y-70905542D01*
G75*
G02*
X131196582Y-70569666I167938J167938D01*
G01*
X131550136Y-70216112D01*
G75*
G02*
X131886012Y-70216112I167938J-167938D01*
G01*
X132221888Y-70551988D01*
G75*
G02*
X132221888Y-70887864I-167938J-167938D01*
G01*
X131868334Y-71241418D01*
G75*
G02*
X131532458Y-71241418I-167938J167938D01*
G01*
G37*
G36*
G01*
X130241988Y-72531888D02*
X129906112Y-72196012D01*
G75*
G02*
X129906112Y-71860136I167938J167938D01*
G01*
X130259666Y-71506582D01*
G75*
G02*
X130595542Y-71506582I167938J-167938D01*
G01*
X130931418Y-71842458D01*
G75*
G02*
X130931418Y-72178334I-167938J-167938D01*
G01*
X130577864Y-72531888D01*
G75*
G02*
X130241988Y-72531888I-167938J167938D01*
G01*
G37*
%TD*%
%TO.C,R9*%
G36*
G01*
X130389458Y-70098418D02*
X130053582Y-69762542D01*
G75*
G02*
X130053582Y-69426666I167938J167938D01*
G01*
X130407136Y-69073112D01*
G75*
G02*
X130743012Y-69073112I167938J-167938D01*
G01*
X131078888Y-69408988D01*
G75*
G02*
X131078888Y-69744864I-167938J-167938D01*
G01*
X130725334Y-70098418D01*
G75*
G02*
X130389458Y-70098418I-167938J167938D01*
G01*
G37*
G36*
G01*
X129098988Y-71388888D02*
X128763112Y-71053012D01*
G75*
G02*
X128763112Y-70717136I167938J167938D01*
G01*
X129116666Y-70363582D01*
G75*
G02*
X129452542Y-70363582I167938J-167938D01*
G01*
X129788418Y-70699458D01*
G75*
G02*
X129788418Y-71035334I-167938J-167938D01*
G01*
X129434864Y-71388888D01*
G75*
G02*
X129098988Y-71388888I-167938J167938D01*
G01*
G37*
%TD*%
%TO.C,R8*%
G36*
G01*
X130434582Y-80859458D02*
X130770458Y-80523582D01*
G75*
G02*
X131106334Y-80523582I167938J-167938D01*
G01*
X131459888Y-80877136D01*
G75*
G02*
X131459888Y-81213012I-167938J-167938D01*
G01*
X131124012Y-81548888D01*
G75*
G02*
X130788136Y-81548888I-167938J167938D01*
G01*
X130434582Y-81195334D01*
G75*
G02*
X130434582Y-80859458I167938J167938D01*
G01*
G37*
G36*
G01*
X129144112Y-79568988D02*
X129479988Y-79233112D01*
G75*
G02*
X129815864Y-79233112I167938J-167938D01*
G01*
X130169418Y-79586666D01*
G75*
G02*
X130169418Y-79922542I-167938J-167938D01*
G01*
X129833542Y-80258418D01*
G75*
G02*
X129497666Y-80258418I-167938J167938D01*
G01*
X129144112Y-79904864D01*
G75*
G02*
X129144112Y-79568988I167938J167938D01*
G01*
G37*
%TD*%
%TO.C,R7*%
G36*
G01*
X106576958Y-93402918D02*
X106241082Y-93067042D01*
G75*
G02*
X106241082Y-92731166I167938J167938D01*
G01*
X106594636Y-92377612D01*
G75*
G02*
X106930512Y-92377612I167938J-167938D01*
G01*
X107266388Y-92713488D01*
G75*
G02*
X107266388Y-93049364I-167938J-167938D01*
G01*
X106912834Y-93402918D01*
G75*
G02*
X106576958Y-93402918I-167938J167938D01*
G01*
G37*
G36*
G01*
X105286488Y-94693388D02*
X104950612Y-94357512D01*
G75*
G02*
X104950612Y-94021636I167938J167938D01*
G01*
X105304166Y-93668082D01*
G75*
G02*
X105640042Y-93668082I167938J-167938D01*
G01*
X105975918Y-94003958D01*
G75*
G02*
X105975918Y-94339834I-167938J-167938D01*
G01*
X105622364Y-94693388D01*
G75*
G02*
X105286488Y-94693388I-167938J167938D01*
G01*
G37*
%TD*%
%TO.C,R6*%
G36*
G01*
X106771261Y-94812801D02*
X107107137Y-95148677D01*
G75*
G02*
X107107137Y-95484553I-167938J-167938D01*
G01*
X106753583Y-95838107D01*
G75*
G02*
X106417707Y-95838107I-167938J167938D01*
G01*
X106081831Y-95502231D01*
G75*
G02*
X106081831Y-95166355I167938J167938D01*
G01*
X106435385Y-94812801D01*
G75*
G02*
X106771261Y-94812801I167938J-167938D01*
G01*
G37*
G36*
G01*
X108061731Y-93522331D02*
X108397607Y-93858207D01*
G75*
G02*
X108397607Y-94194083I-167938J-167938D01*
G01*
X108044053Y-94547637D01*
G75*
G02*
X107708177Y-94547637I-167938J167938D01*
G01*
X107372301Y-94211761D01*
G75*
G02*
X107372301Y-93875885I167938J167938D01*
G01*
X107725855Y-93522331D01*
G75*
G02*
X108061731Y-93522331I167938J-167938D01*
G01*
G37*
%TD*%
%TO.C,R5*%
G36*
G01*
X126325458Y-82925418D02*
X125989582Y-82589542D01*
G75*
G02*
X125989582Y-82253666I167938J167938D01*
G01*
X126343136Y-81900112D01*
G75*
G02*
X126679012Y-81900112I167938J-167938D01*
G01*
X127014888Y-82235988D01*
G75*
G02*
X127014888Y-82571864I-167938J-167938D01*
G01*
X126661334Y-82925418D01*
G75*
G02*
X126325458Y-82925418I-167938J167938D01*
G01*
G37*
G36*
G01*
X125034988Y-84215888D02*
X124699112Y-83880012D01*
G75*
G02*
X124699112Y-83544136I167938J167938D01*
G01*
X125052666Y-83190582D01*
G75*
G02*
X125388542Y-83190582I167938J-167938D01*
G01*
X125724418Y-83526458D01*
G75*
G02*
X125724418Y-83862334I-167938J-167938D01*
G01*
X125370864Y-84215888D01*
G75*
G02*
X125034988Y-84215888I-167938J167938D01*
G01*
G37*
%TD*%
%TO.C,R4*%
G36*
G01*
X136799500Y-95995500D02*
X136799500Y-95520500D01*
G75*
G02*
X137037000Y-95283000I237500J0D01*
G01*
X137537000Y-95283000D01*
G75*
G02*
X137774500Y-95520500I0J-237500D01*
G01*
X137774500Y-95995500D01*
G75*
G02*
X137537000Y-96233000I-237500J0D01*
G01*
X137037000Y-96233000D01*
G75*
G02*
X136799500Y-95995500I0J237500D01*
G01*
G37*
G36*
G01*
X134974500Y-95995500D02*
X134974500Y-95520500D01*
G75*
G02*
X135212000Y-95283000I237500J0D01*
G01*
X135712000Y-95283000D01*
G75*
G02*
X135949500Y-95520500I0J-237500D01*
G01*
X135949500Y-95995500D01*
G75*
G02*
X135712000Y-96233000I-237500J0D01*
G01*
X135212000Y-96233000D01*
G75*
G02*
X134974500Y-95995500I0J237500D01*
G01*
G37*
%TD*%
%TO.C,R3*%
G36*
G01*
X127872500Y-68282000D02*
X127397500Y-68282000D01*
G75*
G02*
X127160000Y-68044500I0J237500D01*
G01*
X127160000Y-67544500D01*
G75*
G02*
X127397500Y-67307000I237500J0D01*
G01*
X127872500Y-67307000D01*
G75*
G02*
X128110000Y-67544500I0J-237500D01*
G01*
X128110000Y-68044500D01*
G75*
G02*
X127872500Y-68282000I-237500J0D01*
G01*
G37*
G36*
G01*
X127872500Y-70107000D02*
X127397500Y-70107000D01*
G75*
G02*
X127160000Y-69869500I0J237500D01*
G01*
X127160000Y-69369500D01*
G75*
G02*
X127397500Y-69132000I237500J0D01*
G01*
X127872500Y-69132000D01*
G75*
G02*
X128110000Y-69369500I0J-237500D01*
G01*
X128110000Y-69869500D01*
G75*
G02*
X127872500Y-70107000I-237500J0D01*
G01*
G37*
%TD*%
%TO.C,R2*%
G36*
G01*
X108287000Y-78629500D02*
X108287000Y-79104500D01*
G75*
G02*
X108049500Y-79342000I-237500J0D01*
G01*
X107549500Y-79342000D01*
G75*
G02*
X107312000Y-79104500I0J237500D01*
G01*
X107312000Y-78629500D01*
G75*
G02*
X107549500Y-78392000I237500J0D01*
G01*
X108049500Y-78392000D01*
G75*
G02*
X108287000Y-78629500I0J-237500D01*
G01*
G37*
G36*
G01*
X110112000Y-78629500D02*
X110112000Y-79104500D01*
G75*
G02*
X109874500Y-79342000I-237500J0D01*
G01*
X109374500Y-79342000D01*
G75*
G02*
X109137000Y-79104500I0J237500D01*
G01*
X109137000Y-78629500D01*
G75*
G02*
X109374500Y-78392000I237500J0D01*
G01*
X109874500Y-78392000D01*
G75*
G02*
X110112000Y-78629500I0J-237500D01*
G01*
G37*
%TD*%
%TO.C,R1*%
G36*
G01*
X131969500Y-103041000D02*
X132444500Y-103041000D01*
G75*
G02*
X132682000Y-103278500I0J-237500D01*
G01*
X132682000Y-103778500D01*
G75*
G02*
X132444500Y-104016000I-237500J0D01*
G01*
X131969500Y-104016000D01*
G75*
G02*
X131732000Y-103778500I0J237500D01*
G01*
X131732000Y-103278500D01*
G75*
G02*
X131969500Y-103041000I237500J0D01*
G01*
G37*
G36*
G01*
X131969500Y-101216000D02*
X132444500Y-101216000D01*
G75*
G02*
X132682000Y-101453500I0J-237500D01*
G01*
X132682000Y-101953500D01*
G75*
G02*
X132444500Y-102191000I-237500J0D01*
G01*
X131969500Y-102191000D01*
G75*
G02*
X131732000Y-101953500I0J237500D01*
G01*
X131732000Y-101453500D01*
G75*
G02*
X131969500Y-101216000I237500J0D01*
G01*
G37*
%TD*%
%TO.C,L1*%
G36*
G01*
X117532918Y-84431042D02*
X117197042Y-84766918D01*
G75*
G02*
X116861166Y-84766918I-167938J167938D01*
G01*
X116507612Y-84413364D01*
G75*
G02*
X116507612Y-84077488I167938J167938D01*
G01*
X116843488Y-83741612D01*
G75*
G02*
X117179364Y-83741612I167938J-167938D01*
G01*
X117532918Y-84095166D01*
G75*
G02*
X117532918Y-84431042I-167938J-167938D01*
G01*
G37*
G36*
G01*
X118823388Y-85721512D02*
X118487512Y-86057388D01*
G75*
G02*
X118151636Y-86057388I-167938J167938D01*
G01*
X117798082Y-85703834D01*
G75*
G02*
X117798082Y-85367958I167938J167938D01*
G01*
X118133958Y-85032082D01*
G75*
G02*
X118469834Y-85032082I167938J-167938D01*
G01*
X118823388Y-85385636D01*
G75*
G02*
X118823388Y-85721512I-167938J-167938D01*
G01*
G37*
%TD*%
%TO.C,D7*%
G36*
G01*
X131524549Y-79663425D02*
X131860425Y-79327549D01*
G75*
G02*
X132196301Y-79327549I167938J-167938D01*
G01*
X132602887Y-79734135D01*
G75*
G02*
X132602887Y-80070011I-167938J-167938D01*
G01*
X132267011Y-80405887D01*
G75*
G02*
X131931135Y-80405887I-167938J167938D01*
G01*
X131524549Y-79999301D01*
G75*
G02*
X131524549Y-79663425I167938J167938D01*
G01*
G37*
G36*
G01*
X130287113Y-78425989D02*
X130622989Y-78090113D01*
G75*
G02*
X130958865Y-78090113I167938J-167938D01*
G01*
X131365451Y-78496699D01*
G75*
G02*
X131365451Y-78832575I-167938J-167938D01*
G01*
X131029575Y-79168451D01*
G75*
G02*
X130693699Y-79168451I-167938J167938D01*
G01*
X130287113Y-78761865D01*
G75*
G02*
X130287113Y-78425989I167938J167938D01*
G01*
G37*
%TD*%
%TO.C,D6*%
G36*
X117686434Y-89876226D02*
G01*
X118959226Y-88603434D01*
X121434100Y-91078308D01*
X120161308Y-92351100D01*
X117686434Y-89876226D01*
G37*
G36*
X114150900Y-86340692D02*
G01*
X115423692Y-85067900D01*
X117898566Y-87542774D01*
X116625774Y-88815566D01*
X114150900Y-86340692D01*
G37*
%TD*%
%TO.C,D5*%
G36*
G01*
X127415425Y-84121451D02*
X127079549Y-83785575D01*
G75*
G02*
X127079549Y-83449699I167938J167938D01*
G01*
X127486135Y-83043113D01*
G75*
G02*
X127822011Y-83043113I167938J-167938D01*
G01*
X128157887Y-83378989D01*
G75*
G02*
X128157887Y-83714865I-167938J-167938D01*
G01*
X127751301Y-84121451D01*
G75*
G02*
X127415425Y-84121451I-167938J167938D01*
G01*
G37*
G36*
G01*
X126177989Y-85358887D02*
X125842113Y-85023011D01*
G75*
G02*
X125842113Y-84687135I167938J167938D01*
G01*
X126248699Y-84280549D01*
G75*
G02*
X126584575Y-84280549I167938J-167938D01*
G01*
X126920451Y-84616425D01*
G75*
G02*
X126920451Y-84952301I-167938J-167938D01*
G01*
X126513865Y-85358887D01*
G75*
G02*
X126177989Y-85358887I-167938J167938D01*
G01*
G37*
%TD*%
%TO.C,D4*%
G36*
G01*
X136024500Y-93869500D02*
X136024500Y-94344500D01*
G75*
G02*
X135787000Y-94582000I-237500J0D01*
G01*
X135212000Y-94582000D01*
G75*
G02*
X134974500Y-94344500I0J237500D01*
G01*
X134974500Y-93869500D01*
G75*
G02*
X135212000Y-93632000I237500J0D01*
G01*
X135787000Y-93632000D01*
G75*
G02*
X136024500Y-93869500I0J-237500D01*
G01*
G37*
G36*
G01*
X137774500Y-93869500D02*
X137774500Y-94344500D01*
G75*
G02*
X137537000Y-94582000I-237500J0D01*
G01*
X136962000Y-94582000D01*
G75*
G02*
X136724500Y-94344500I0J237500D01*
G01*
X136724500Y-93869500D01*
G75*
G02*
X136962000Y-93632000I237500J0D01*
G01*
X137537000Y-93632000D01*
G75*
G02*
X137774500Y-93869500I0J-237500D01*
G01*
G37*
%TD*%
%TO.C,D3*%
G36*
G01*
X125873500Y-69057000D02*
X126348500Y-69057000D01*
G75*
G02*
X126586000Y-69294500I0J-237500D01*
G01*
X126586000Y-69869500D01*
G75*
G02*
X126348500Y-70107000I-237500J0D01*
G01*
X125873500Y-70107000D01*
G75*
G02*
X125636000Y-69869500I0J237500D01*
G01*
X125636000Y-69294500D01*
G75*
G02*
X125873500Y-69057000I237500J0D01*
G01*
G37*
G36*
G01*
X125873500Y-67307000D02*
X126348500Y-67307000D01*
G75*
G02*
X126586000Y-67544500I0J-237500D01*
G01*
X126586000Y-68119500D01*
G75*
G02*
X126348500Y-68357000I-237500J0D01*
G01*
X125873500Y-68357000D01*
G75*
G02*
X125636000Y-68119500I0J237500D01*
G01*
X125636000Y-67544500D01*
G75*
G02*
X125873500Y-67307000I237500J0D01*
G01*
G37*
%TD*%
%TO.C,D2*%
G36*
G01*
X109062000Y-80682500D02*
X109062000Y-80207500D01*
G75*
G02*
X109299500Y-79970000I237500J0D01*
G01*
X109874500Y-79970000D01*
G75*
G02*
X110112000Y-80207500I0J-237500D01*
G01*
X110112000Y-80682500D01*
G75*
G02*
X109874500Y-80920000I-237500J0D01*
G01*
X109299500Y-80920000D01*
G75*
G02*
X109062000Y-80682500I0J237500D01*
G01*
G37*
G36*
G01*
X107312000Y-80682500D02*
X107312000Y-80207500D01*
G75*
G02*
X107549500Y-79970000I237500J0D01*
G01*
X108124500Y-79970000D01*
G75*
G02*
X108362000Y-80207500I0J-237500D01*
G01*
X108362000Y-80682500D01*
G75*
G02*
X108124500Y-80920000I-237500J0D01*
G01*
X107549500Y-80920000D01*
G75*
G02*
X107312000Y-80682500I0J237500D01*
G01*
G37*
%TD*%
%TO.C,D1*%
G36*
G01*
X130920500Y-102266000D02*
X130445500Y-102266000D01*
G75*
G02*
X130208000Y-102028500I0J237500D01*
G01*
X130208000Y-101453500D01*
G75*
G02*
X130445500Y-101216000I237500J0D01*
G01*
X130920500Y-101216000D01*
G75*
G02*
X131158000Y-101453500I0J-237500D01*
G01*
X131158000Y-102028500D01*
G75*
G02*
X130920500Y-102266000I-237500J0D01*
G01*
G37*
G36*
G01*
X130920500Y-104016000D02*
X130445500Y-104016000D01*
G75*
G02*
X130208000Y-103778500I0J237500D01*
G01*
X130208000Y-103203500D01*
G75*
G02*
X130445500Y-102966000I237500J0D01*
G01*
X130920500Y-102966000D01*
G75*
G02*
X131158000Y-103203500I0J-237500D01*
G01*
X131158000Y-103778500D01*
G75*
G02*
X130920500Y-104016000I-237500J0D01*
G01*
G37*
%TD*%
%TO.C,C3*%
G36*
G01*
X118870372Y-84154248D02*
X119206248Y-83818372D01*
G75*
G02*
X119542124Y-83818372I167938J-167938D01*
G01*
X119966388Y-84242636D01*
G75*
G02*
X119966388Y-84578512I-167938J-167938D01*
G01*
X119630512Y-84914388D01*
G75*
G02*
X119294636Y-84914388I-167938J167938D01*
G01*
X118870372Y-84490124D01*
G75*
G02*
X118870372Y-84154248I167938J167938D01*
G01*
G37*
G36*
G01*
X117650612Y-82934488D02*
X117986488Y-82598612D01*
G75*
G02*
X118322364Y-82598612I167938J-167938D01*
G01*
X118746628Y-83022876D01*
G75*
G02*
X118746628Y-83358752I-167938J-167938D01*
G01*
X118410752Y-83694628D01*
G75*
G02*
X118074876Y-83694628I-167938J167938D01*
G01*
X117650612Y-83270364D01*
G75*
G02*
X117650612Y-82934488I167938J167938D01*
G01*
G37*
%TD*%
%TO.C,C2*%
G36*
G01*
X113282372Y-84789248D02*
X113618248Y-84453372D01*
G75*
G02*
X113954124Y-84453372I167938J-167938D01*
G01*
X114378388Y-84877636D01*
G75*
G02*
X114378388Y-85213512I-167938J-167938D01*
G01*
X114042512Y-85549388D01*
G75*
G02*
X113706636Y-85549388I-167938J167938D01*
G01*
X113282372Y-85125124D01*
G75*
G02*
X113282372Y-84789248I167938J167938D01*
G01*
G37*
G36*
G01*
X112062612Y-83569488D02*
X112398488Y-83233612D01*
G75*
G02*
X112734364Y-83233612I167938J-167938D01*
G01*
X113158628Y-83657876D01*
G75*
G02*
X113158628Y-83993752I-167938J-167938D01*
G01*
X112822752Y-84329628D01*
G75*
G02*
X112486876Y-84329628I-167938J167938D01*
G01*
X112062612Y-83905364D01*
G75*
G02*
X112062612Y-83569488I167938J167938D01*
G01*
G37*
%TD*%
%TO.C,C1*%
G36*
G01*
X115987752Y-93082628D02*
X116323628Y-92746752D01*
G75*
G02*
X116659504Y-92746752I167938J-167938D01*
G01*
X117083768Y-93171016D01*
G75*
G02*
X117083768Y-93506892I-167938J-167938D01*
G01*
X116747892Y-93842768D01*
G75*
G02*
X116412016Y-93842768I-167938J167938D01*
G01*
X115987752Y-93418504D01*
G75*
G02*
X115987752Y-93082628I167938J167938D01*
G01*
G37*
G36*
G01*
X114767992Y-91862868D02*
X115103868Y-91526992D01*
G75*
G02*
X115439744Y-91526992I167938J-167938D01*
G01*
X115864008Y-91951256D01*
G75*
G02*
X115864008Y-92287132I-167938J-167938D01*
G01*
X115528132Y-92623008D01*
G75*
G02*
X115192256Y-92623008I-167938J167938D01*
G01*
X114767992Y-92198744D01*
G75*
G02*
X114767992Y-91862868I167938J167938D01*
G01*
G37*
%TD*%
M02*
