%TF.GenerationSoftware,KiCad,Pcbnew,(5.1.8-0-10_14)*%
%TF.CreationDate,2021-02-16T17:48:47+08:00*%
%TF.ProjectId,batt_board,62617474-5f62-46f6-9172-642e6b696361,rev?*%
%TF.SameCoordinates,Original*%
%TF.FileFunction,Legend,Bot*%
%TF.FilePolarity,Positive*%
%FSLAX46Y46*%
G04 Gerber Fmt 4.6, Leading zero omitted, Abs format (unit mm)*
G04 Created by KiCad (PCBNEW (5.1.8-0-10_14)) date 2021-02-16 17:48:47*
%MOMM*%
%LPD*%
G01*
G04 APERTURE LIST*
%ADD10C,0.150000*%
G04 APERTURE END LIST*
%TO.C,J3*%
D10*
X121745333Y-109815380D02*
X121745333Y-110529666D01*
X121792952Y-110672523D01*
X121888190Y-110767761D01*
X122031047Y-110815380D01*
X122126285Y-110815380D01*
X121364380Y-109815380D02*
X120745333Y-109815380D01*
X121078666Y-110196333D01*
X120935809Y-110196333D01*
X120840571Y-110243952D01*
X120792952Y-110291571D01*
X120745333Y-110386809D01*
X120745333Y-110624904D01*
X120792952Y-110720142D01*
X120840571Y-110767761D01*
X120935809Y-110815380D01*
X121221523Y-110815380D01*
X121316761Y-110767761D01*
X121364380Y-110720142D01*
%TO.C,J5*%
X121491333Y-61999880D02*
X121491333Y-62714166D01*
X121538952Y-62857023D01*
X121634190Y-62952261D01*
X121777047Y-62999880D01*
X121872285Y-62999880D01*
X120538952Y-61999880D02*
X121015142Y-61999880D01*
X121062761Y-62476071D01*
X121015142Y-62428452D01*
X120919904Y-62380833D01*
X120681809Y-62380833D01*
X120586571Y-62428452D01*
X120538952Y-62476071D01*
X120491333Y-62571309D01*
X120491333Y-62809404D01*
X120538952Y-62904642D01*
X120586571Y-62952261D01*
X120681809Y-62999880D01*
X120919904Y-62999880D01*
X121015142Y-62952261D01*
X121062761Y-62904642D01*
%TO.C,J4*%
X144930880Y-86852166D02*
X145645166Y-86852166D01*
X145788023Y-86804547D01*
X145883261Y-86709309D01*
X145930880Y-86566452D01*
X145930880Y-86471214D01*
X145264214Y-87756928D02*
X145930880Y-87756928D01*
X144883261Y-87518833D02*
X145597547Y-87280738D01*
X145597547Y-87899785D01*
%TO.C,J2*%
X98948833Y-88034880D02*
X98948833Y-88749166D01*
X98996452Y-88892023D01*
X99091690Y-88987261D01*
X99234547Y-89034880D01*
X99329785Y-89034880D01*
X98520261Y-88130119D02*
X98472642Y-88082500D01*
X98377404Y-88034880D01*
X98139309Y-88034880D01*
X98044071Y-88082500D01*
X97996452Y-88130119D01*
X97948833Y-88225357D01*
X97948833Y-88320595D01*
X97996452Y-88463452D01*
X98567880Y-89034880D01*
X97948833Y-89034880D01*
%TD*%
M02*
