%TF.GenerationSoftware,KiCad,Pcbnew,(5.1.8-0-10_14)*%
%TF.CreationDate,2021-02-18T22:33:31+08:00*%
%TF.ProjectId,batt_board,62617474-5f62-46f6-9172-642e6b696361,v0.2*%
%TF.SameCoordinates,Original*%
%TF.FileFunction,Copper,L1,Top*%
%TF.FilePolarity,Positive*%
%FSLAX46Y46*%
G04 Gerber Fmt 4.6, Leading zero omitted, Abs format (unit mm)*
G04 Created by KiCad (PCBNEW (5.1.8-0-10_14)) date 2021-02-18 22:33:31*
%MOMM*%
%LPD*%
G01*
G04 APERTURE LIST*
%TA.AperFunction,ComponentPad*%
%ADD10R,1.700000X1.700000*%
%TD*%
%TA.AperFunction,ComponentPad*%
%ADD11O,1.700000X1.700000*%
%TD*%
%TA.AperFunction,ConnectorPad*%
%ADD12C,5.700000*%
%TD*%
%TA.AperFunction,ComponentPad*%
%ADD13C,3.600000*%
%TD*%
%TA.AperFunction,SMDPad,CuDef*%
%ADD14R,1.500000X2.000000*%
%TD*%
%TA.AperFunction,SMDPad,CuDef*%
%ADD15R,3.800000X2.000000*%
%TD*%
%TA.AperFunction,ComponentPad*%
%ADD16C,0.600000*%
%TD*%
%TA.AperFunction,SMDPad,CuDef*%
%ADD17R,0.600000X1.550000*%
%TD*%
%TA.AperFunction,SMDPad,CuDef*%
%ADD18R,4.500000X2.950000*%
%TD*%
%TA.AperFunction,SMDPad,CuDef*%
%ADD19R,3.100000X2.600000*%
%TD*%
%TA.AperFunction,SMDPad,CuDef*%
%ADD20R,1.800000X3.500000*%
%TD*%
%TA.AperFunction,ViaPad*%
%ADD21C,0.800000*%
%TD*%
%TA.AperFunction,Conductor*%
%ADD22C,0.500000*%
%TD*%
%TA.AperFunction,Conductor*%
%ADD23C,0.300000*%
%TD*%
%TA.AperFunction,Conductor*%
%ADD24C,0.254000*%
%TD*%
%TA.AperFunction,Conductor*%
%ADD25C,0.100000*%
%TD*%
G04 APERTURE END LIST*
D10*
%TO.P,conn2upper1,1*%
%TO.N,+3V3*%
X128270000Y-83312000D03*
D11*
%TO.P,conn2upper1,2*%
%TO.N,Net-(conn2upper1-Pad2)*%
X125730000Y-83312000D03*
%TO.P,conn2upper1,3*%
%TO.N,+5V*%
X128270000Y-80772000D03*
%TO.P,conn2upper1,4*%
%TO.N,Net-(conn2upper1-Pad4)*%
X125730000Y-80772000D03*
%TO.P,conn2upper1,5*%
%TO.N,Net-(R13-Pad1)*%
X128270000Y-78232000D03*
%TO.P,conn2upper1,6*%
%TO.N,Net-(R12-Pad2)*%
X125730000Y-78232000D03*
%TO.P,conn2upper1,7*%
%TO.N,Net-(R10-Pad2)*%
X128270000Y-75692000D03*
%TO.P,conn2upper1,8*%
%TO.N,Net-(R11-Pad2)*%
X125730000Y-75692000D03*
%TO.P,conn2upper1,9*%
%TO.N,Net-(R9-Pad2)*%
X128270000Y-73152000D03*
%TO.P,conn2upper1,10*%
%TO.N,GND*%
X125730000Y-73152000D03*
%TD*%
D12*
%TO.P,H4,1*%
%TO.N,GND*%
X160000000Y-65000000D03*
D13*
X160000000Y-65000000D03*
%TD*%
%TO.P,J_Batt,2*%
%TO.N,GND*%
%TA.AperFunction,SMDPad,CuDef*%
G36*
G01*
X158984723Y-72841309D02*
X161813151Y-70012881D01*
G75*
G02*
X167470005Y-70012881I2828427J-2828427D01*
G01*
X167470005Y-70012881D01*
G75*
G02*
X167470005Y-75669735I-2828427J-2828427D01*
G01*
X164641577Y-78498163D01*
G75*
G02*
X158984723Y-78498163I-2828427J2828427D01*
G01*
X158984723Y-78498163D01*
G75*
G02*
X158984723Y-72841309I2828427J2828427D01*
G01*
G37*
%TD.AperFunction*%
%TO.P,J_Batt,1*%
%TO.N,/VCC_IN*%
%TA.AperFunction,SMDPad,CuDef*%
G36*
G01*
X147310390Y-61166976D02*
X150138818Y-58338548D01*
G75*
G02*
X155795672Y-58338548I2828427J-2828427D01*
G01*
X155795672Y-58338548D01*
G75*
G02*
X155795672Y-63995402I-2828427J-2828427D01*
G01*
X152967244Y-66823830D01*
G75*
G02*
X147310390Y-66823830I-2828427J2828427D01*
G01*
X147310390Y-66823830D01*
G75*
G02*
X147310390Y-61166976I2828427J2828427D01*
G01*
G37*
%TD.AperFunction*%
%TD*%
D12*
%TO.P,H2,1*%
%TO.N,GND*%
X120000000Y-105000000D03*
D13*
X120000000Y-105000000D03*
%TD*%
D14*
%TO.P,U2,1*%
%TO.N,GND*%
X133463000Y-90653000D03*
%TO.P,U2,3*%
%TO.N,+5V*%
X138063000Y-90653000D03*
%TO.P,U2,2*%
%TO.N,+3V3*%
X135763000Y-90653000D03*
D15*
X135763000Y-84353000D03*
%TD*%
D16*
%TO.P,U1,9*%
%TO.N,GND*%
X149120000Y-91348000D03*
X148020000Y-91348000D03*
X148020000Y-92548000D03*
X149120000Y-92548000D03*
X145520000Y-91348000D03*
X146720000Y-91348000D03*
X146720000Y-92548000D03*
X145520000Y-92548000D03*
D17*
%TO.P,U1,8*%
%TO.N,Net-(C2-Pad2)*%
X145415000Y-89248000D03*
%TO.P,U1,7*%
%TO.N,/VCC_IN*%
X146685000Y-89248000D03*
%TO.P,U1,6*%
%TO.N,GND*%
X147955000Y-89248000D03*
%TO.P,U1,5*%
%TO.N,Net-(U1-Pad5)*%
X149225000Y-89248000D03*
%TO.P,U1,4*%
%TO.N,Net-(R6-Pad2)*%
X149225000Y-94648000D03*
%TO.P,U1,3*%
%TO.N,Net-(U1-Pad3)*%
X147955000Y-94648000D03*
%TO.P,U1,2*%
%TO.N,Net-(U1-Pad2)*%
X146685000Y-94648000D03*
%TO.P,U1,1*%
%TO.N,Net-(C2-Pad1)*%
X145415000Y-94648000D03*
D18*
%TO.P,U1,9*%
%TO.N,GND*%
X147320000Y-91948000D03*
D19*
X147320000Y-91948000D03*
%TD*%
D10*
%TO.P,Receiver1,1*%
%TO.N,+5V*%
X142494000Y-71628000D03*
D11*
%TO.P,Receiver1,2*%
%TO.N,GND*%
X139954000Y-71628000D03*
%TO.P,Receiver1,3*%
%TO.N,PMM*%
X137414000Y-71628000D03*
%TO.P,Receiver1,4*%
%TO.N,Net-(Receiver1-Pad4)*%
X134874000Y-71628000D03*
%TD*%
%TO.P,R13,1*%
%TO.N,Net-(R13-Pad1)*%
%TA.AperFunction,SMDPad,CuDef*%
G36*
G01*
X137397500Y-75822000D02*
X136922500Y-75822000D01*
G75*
G02*
X136685000Y-75584500I0J237500D01*
G01*
X136685000Y-75084500D01*
G75*
G02*
X136922500Y-74847000I237500J0D01*
G01*
X137397500Y-74847000D01*
G75*
G02*
X137635000Y-75084500I0J-237500D01*
G01*
X137635000Y-75584500D01*
G75*
G02*
X137397500Y-75822000I-237500J0D01*
G01*
G37*
%TD.AperFunction*%
%TO.P,R13,2*%
%TO.N,PMM*%
%TA.AperFunction,SMDPad,CuDef*%
G36*
G01*
X137397500Y-73997000D02*
X136922500Y-73997000D01*
G75*
G02*
X136685000Y-73759500I0J237500D01*
G01*
X136685000Y-73259500D01*
G75*
G02*
X136922500Y-73022000I237500J0D01*
G01*
X137397500Y-73022000D01*
G75*
G02*
X137635000Y-73259500I0J-237500D01*
G01*
X137635000Y-73759500D01*
G75*
G02*
X137397500Y-73997000I-237500J0D01*
G01*
G37*
%TD.AperFunction*%
%TD*%
%TO.P,R12,2*%
%TO.N,Net-(R12-Pad2)*%
%TA.AperFunction,SMDPad,CuDef*%
G36*
G01*
X121329000Y-82914500D02*
X121329000Y-82439500D01*
G75*
G02*
X121566500Y-82202000I237500J0D01*
G01*
X122066500Y-82202000D01*
G75*
G02*
X122304000Y-82439500I0J-237500D01*
G01*
X122304000Y-82914500D01*
G75*
G02*
X122066500Y-83152000I-237500J0D01*
G01*
X121566500Y-83152000D01*
G75*
G02*
X121329000Y-82914500I0J237500D01*
G01*
G37*
%TD.AperFunction*%
%TO.P,R12,1*%
%TO.N,PWM_CH4*%
%TA.AperFunction,SMDPad,CuDef*%
G36*
G01*
X119504000Y-82914500D02*
X119504000Y-82439500D01*
G75*
G02*
X119741500Y-82202000I237500J0D01*
G01*
X120241500Y-82202000D01*
G75*
G02*
X120479000Y-82439500I0J-237500D01*
G01*
X120479000Y-82914500D01*
G75*
G02*
X120241500Y-83152000I-237500J0D01*
G01*
X119741500Y-83152000D01*
G75*
G02*
X119504000Y-82914500I0J237500D01*
G01*
G37*
%TD.AperFunction*%
%TD*%
%TO.P,R11,2*%
%TO.N,Net-(R11-Pad2)*%
%TA.AperFunction,SMDPad,CuDef*%
G36*
G01*
X142604500Y-104350000D02*
X142129500Y-104350000D01*
G75*
G02*
X141892000Y-104112500I0J237500D01*
G01*
X141892000Y-103612500D01*
G75*
G02*
X142129500Y-103375000I237500J0D01*
G01*
X142604500Y-103375000D01*
G75*
G02*
X142842000Y-103612500I0J-237500D01*
G01*
X142842000Y-104112500D01*
G75*
G02*
X142604500Y-104350000I-237500J0D01*
G01*
G37*
%TD.AperFunction*%
%TO.P,R11,1*%
%TO.N,PWM_CH3*%
%TA.AperFunction,SMDPad,CuDef*%
G36*
G01*
X142604500Y-106175000D02*
X142129500Y-106175000D01*
G75*
G02*
X141892000Y-105937500I0J237500D01*
G01*
X141892000Y-105437500D01*
G75*
G02*
X142129500Y-105200000I237500J0D01*
G01*
X142604500Y-105200000D01*
G75*
G02*
X142842000Y-105437500I0J-237500D01*
G01*
X142842000Y-105937500D01*
G75*
G02*
X142604500Y-106175000I-237500J0D01*
G01*
G37*
%TD.AperFunction*%
%TD*%
%TO.P,R10,2*%
%TO.N,Net-(R10-Pad2)*%
%TA.AperFunction,SMDPad,CuDef*%
G36*
G01*
X158706000Y-87519500D02*
X158706000Y-87994500D01*
G75*
G02*
X158468500Y-88232000I-237500J0D01*
G01*
X157968500Y-88232000D01*
G75*
G02*
X157731000Y-87994500I0J237500D01*
G01*
X157731000Y-87519500D01*
G75*
G02*
X157968500Y-87282000I237500J0D01*
G01*
X158468500Y-87282000D01*
G75*
G02*
X158706000Y-87519500I0J-237500D01*
G01*
G37*
%TD.AperFunction*%
%TO.P,R10,1*%
%TO.N,PWM_CH2*%
%TA.AperFunction,SMDPad,CuDef*%
G36*
G01*
X160531000Y-87519500D02*
X160531000Y-87994500D01*
G75*
G02*
X160293500Y-88232000I-237500J0D01*
G01*
X159793500Y-88232000D01*
G75*
G02*
X159556000Y-87994500I0J237500D01*
G01*
X159556000Y-87519500D01*
G75*
G02*
X159793500Y-87282000I237500J0D01*
G01*
X160293500Y-87282000D01*
G75*
G02*
X160531000Y-87519500I0J-237500D01*
G01*
G37*
%TD.AperFunction*%
%TD*%
%TO.P,R9,2*%
%TO.N,Net-(R9-Pad2)*%
%TA.AperFunction,SMDPad,CuDef*%
G36*
G01*
X136922500Y-66084000D02*
X137397500Y-66084000D01*
G75*
G02*
X137635000Y-66321500I0J-237500D01*
G01*
X137635000Y-66821500D01*
G75*
G02*
X137397500Y-67059000I-237500J0D01*
G01*
X136922500Y-67059000D01*
G75*
G02*
X136685000Y-66821500I0J237500D01*
G01*
X136685000Y-66321500D01*
G75*
G02*
X136922500Y-66084000I237500J0D01*
G01*
G37*
%TD.AperFunction*%
%TO.P,R9,1*%
%TO.N,PWM_CH1*%
%TA.AperFunction,SMDPad,CuDef*%
G36*
G01*
X136922500Y-64259000D02*
X137397500Y-64259000D01*
G75*
G02*
X137635000Y-64496500I0J-237500D01*
G01*
X137635000Y-64996500D01*
G75*
G02*
X137397500Y-65234000I-237500J0D01*
G01*
X136922500Y-65234000D01*
G75*
G02*
X136685000Y-64996500I0J237500D01*
G01*
X136685000Y-64496500D01*
G75*
G02*
X136922500Y-64259000I237500J0D01*
G01*
G37*
%TD.AperFunction*%
%TD*%
%TO.P,R8,2*%
%TO.N,Net-(D7-Pad2)*%
%TA.AperFunction,SMDPad,CuDef*%
G36*
G01*
X130131000Y-88154500D02*
X130131000Y-88629500D01*
G75*
G02*
X129893500Y-88867000I-237500J0D01*
G01*
X129393500Y-88867000D01*
G75*
G02*
X129156000Y-88629500I0J237500D01*
G01*
X129156000Y-88154500D01*
G75*
G02*
X129393500Y-87917000I237500J0D01*
G01*
X129893500Y-87917000D01*
G75*
G02*
X130131000Y-88154500I0J-237500D01*
G01*
G37*
%TD.AperFunction*%
%TO.P,R8,1*%
%TO.N,+3V3*%
%TA.AperFunction,SMDPad,CuDef*%
G36*
G01*
X131956000Y-88154500D02*
X131956000Y-88629500D01*
G75*
G02*
X131718500Y-88867000I-237500J0D01*
G01*
X131218500Y-88867000D01*
G75*
G02*
X130981000Y-88629500I0J237500D01*
G01*
X130981000Y-88154500D01*
G75*
G02*
X131218500Y-87917000I237500J0D01*
G01*
X131718500Y-87917000D01*
G75*
G02*
X131956000Y-88154500I0J-237500D01*
G01*
G37*
%TD.AperFunction*%
%TD*%
%TO.P,R7,2*%
%TO.N,GND*%
%TA.AperFunction,SMDPad,CuDef*%
G36*
G01*
X138894000Y-94504500D02*
X138894000Y-94979500D01*
G75*
G02*
X138656500Y-95217000I-237500J0D01*
G01*
X138156500Y-95217000D01*
G75*
G02*
X137919000Y-94979500I0J237500D01*
G01*
X137919000Y-94504500D01*
G75*
G02*
X138156500Y-94267000I237500J0D01*
G01*
X138656500Y-94267000D01*
G75*
G02*
X138894000Y-94504500I0J-237500D01*
G01*
G37*
%TD.AperFunction*%
%TO.P,R7,1*%
%TO.N,Net-(R6-Pad2)*%
%TA.AperFunction,SMDPad,CuDef*%
G36*
G01*
X140719000Y-94504500D02*
X140719000Y-94979500D01*
G75*
G02*
X140481500Y-95217000I-237500J0D01*
G01*
X139981500Y-95217000D01*
G75*
G02*
X139744000Y-94979500I0J237500D01*
G01*
X139744000Y-94504500D01*
G75*
G02*
X139981500Y-94267000I237500J0D01*
G01*
X140481500Y-94267000D01*
G75*
G02*
X140719000Y-94504500I0J-237500D01*
G01*
G37*
%TD.AperFunction*%
%TD*%
%TO.P,R6,2*%
%TO.N,Net-(R6-Pad2)*%
%TA.AperFunction,SMDPad,CuDef*%
G36*
G01*
X141621500Y-94405000D02*
X142096500Y-94405000D01*
G75*
G02*
X142334000Y-94642500I0J-237500D01*
G01*
X142334000Y-95142500D01*
G75*
G02*
X142096500Y-95380000I-237500J0D01*
G01*
X141621500Y-95380000D01*
G75*
G02*
X141384000Y-95142500I0J237500D01*
G01*
X141384000Y-94642500D01*
G75*
G02*
X141621500Y-94405000I237500J0D01*
G01*
G37*
%TD.AperFunction*%
%TO.P,R6,1*%
%TO.N,+5V*%
%TA.AperFunction,SMDPad,CuDef*%
G36*
G01*
X141621500Y-92580000D02*
X142096500Y-92580000D01*
G75*
G02*
X142334000Y-92817500I0J-237500D01*
G01*
X142334000Y-93317500D01*
G75*
G02*
X142096500Y-93555000I-237500J0D01*
G01*
X141621500Y-93555000D01*
G75*
G02*
X141384000Y-93317500I0J237500D01*
G01*
X141384000Y-92817500D01*
G75*
G02*
X141621500Y-92580000I237500J0D01*
G01*
G37*
%TD.AperFunction*%
%TD*%
%TO.P,R5,1*%
%TO.N,+5V*%
%TA.AperFunction,SMDPad,CuDef*%
G36*
G01*
X141523964Y-74560233D02*
X141523964Y-74085233D01*
G75*
G02*
X141761464Y-73847733I237500J0D01*
G01*
X142261464Y-73847733D01*
G75*
G02*
X142498964Y-74085233I0J-237500D01*
G01*
X142498964Y-74560233D01*
G75*
G02*
X142261464Y-74797733I-237500J0D01*
G01*
X141761464Y-74797733D01*
G75*
G02*
X141523964Y-74560233I0J237500D01*
G01*
G37*
%TD.AperFunction*%
%TO.P,R5,2*%
%TO.N,Net-(D5-Pad2)*%
%TA.AperFunction,SMDPad,CuDef*%
G36*
G01*
X143348964Y-74560233D02*
X143348964Y-74085233D01*
G75*
G02*
X143586464Y-73847733I237500J0D01*
G01*
X144086464Y-73847733D01*
G75*
G02*
X144323964Y-74085233I0J-237500D01*
G01*
X144323964Y-74560233D01*
G75*
G02*
X144086464Y-74797733I-237500J0D01*
G01*
X143586464Y-74797733D01*
G75*
G02*
X143348964Y-74560233I0J237500D01*
G01*
G37*
%TD.AperFunction*%
%TD*%
%TO.P,R4,2*%
%TO.N,/VCC_IN*%
%TA.AperFunction,SMDPad,CuDef*%
G36*
G01*
X122028122Y-84706715D02*
X121553122Y-84706715D01*
G75*
G02*
X121315622Y-84469215I0J237500D01*
G01*
X121315622Y-83969215D01*
G75*
G02*
X121553122Y-83731715I237500J0D01*
G01*
X122028122Y-83731715D01*
G75*
G02*
X122265622Y-83969215I0J-237500D01*
G01*
X122265622Y-84469215D01*
G75*
G02*
X122028122Y-84706715I-237500J0D01*
G01*
G37*
%TD.AperFunction*%
%TO.P,R4,1*%
%TO.N,Net-(D4-Pad2)*%
%TA.AperFunction,SMDPad,CuDef*%
G36*
G01*
X122028122Y-86531715D02*
X121553122Y-86531715D01*
G75*
G02*
X121315622Y-86294215I0J237500D01*
G01*
X121315622Y-85794215D01*
G75*
G02*
X121553122Y-85556715I237500J0D01*
G01*
X122028122Y-85556715D01*
G75*
G02*
X122265622Y-85794215I0J-237500D01*
G01*
X122265622Y-86294215D01*
G75*
G02*
X122028122Y-86531715I-237500J0D01*
G01*
G37*
%TD.AperFunction*%
%TD*%
%TO.P,R3,2*%
%TO.N,/VCC_IN*%
%TA.AperFunction,SMDPad,CuDef*%
G36*
G01*
X139357000Y-103521500D02*
X139357000Y-103996500D01*
G75*
G02*
X139119500Y-104234000I-237500J0D01*
G01*
X138619500Y-104234000D01*
G75*
G02*
X138382000Y-103996500I0J237500D01*
G01*
X138382000Y-103521500D01*
G75*
G02*
X138619500Y-103284000I237500J0D01*
G01*
X139119500Y-103284000D01*
G75*
G02*
X139357000Y-103521500I0J-237500D01*
G01*
G37*
%TD.AperFunction*%
%TO.P,R3,1*%
%TO.N,Net-(D3-Pad2)*%
%TA.AperFunction,SMDPad,CuDef*%
G36*
G01*
X141182000Y-103521500D02*
X141182000Y-103996500D01*
G75*
G02*
X140944500Y-104234000I-237500J0D01*
G01*
X140444500Y-104234000D01*
G75*
G02*
X140207000Y-103996500I0J237500D01*
G01*
X140207000Y-103521500D01*
G75*
G02*
X140444500Y-103284000I237500J0D01*
G01*
X140944500Y-103284000D01*
G75*
G02*
X141182000Y-103521500I0J-237500D01*
G01*
G37*
%TD.AperFunction*%
%TD*%
%TO.P,R2,2*%
%TO.N,/VCC_IN*%
%TA.AperFunction,SMDPad,CuDef*%
G36*
G01*
X158258500Y-85668014D02*
X158733500Y-85668014D01*
G75*
G02*
X158971000Y-85905514I0J-237500D01*
G01*
X158971000Y-86405514D01*
G75*
G02*
X158733500Y-86643014I-237500J0D01*
G01*
X158258500Y-86643014D01*
G75*
G02*
X158021000Y-86405514I0J237500D01*
G01*
X158021000Y-85905514D01*
G75*
G02*
X158258500Y-85668014I237500J0D01*
G01*
G37*
%TD.AperFunction*%
%TO.P,R2,1*%
%TO.N,Net-(D2-Pad2)*%
%TA.AperFunction,SMDPad,CuDef*%
G36*
G01*
X158258500Y-83843014D02*
X158733500Y-83843014D01*
G75*
G02*
X158971000Y-84080514I0J-237500D01*
G01*
X158971000Y-84580514D01*
G75*
G02*
X158733500Y-84818014I-237500J0D01*
G01*
X158258500Y-84818014D01*
G75*
G02*
X158021000Y-84580514I0J237500D01*
G01*
X158021000Y-84080514D01*
G75*
G02*
X158258500Y-83843014I237500J0D01*
G01*
G37*
%TD.AperFunction*%
%TD*%
%TO.P,R1,2*%
%TO.N,/VCC_IN*%
%TA.AperFunction,SMDPad,CuDef*%
G36*
G01*
X140125000Y-66531500D02*
X140125000Y-66056500D01*
G75*
G02*
X140362500Y-65819000I237500J0D01*
G01*
X140862500Y-65819000D01*
G75*
G02*
X141100000Y-66056500I0J-237500D01*
G01*
X141100000Y-66531500D01*
G75*
G02*
X140862500Y-66769000I-237500J0D01*
G01*
X140362500Y-66769000D01*
G75*
G02*
X140125000Y-66531500I0J237500D01*
G01*
G37*
%TD.AperFunction*%
%TO.P,R1,1*%
%TO.N,Net-(D1-Pad2)*%
%TA.AperFunction,SMDPad,CuDef*%
G36*
G01*
X138300000Y-66531500D02*
X138300000Y-66056500D01*
G75*
G02*
X138537500Y-65819000I237500J0D01*
G01*
X139037500Y-65819000D01*
G75*
G02*
X139275000Y-66056500I0J-237500D01*
G01*
X139275000Y-66531500D01*
G75*
G02*
X139037500Y-66769000I-237500J0D01*
G01*
X138537500Y-66769000D01*
G75*
G02*
X138300000Y-66531500I0J237500D01*
G01*
G37*
%TD.AperFunction*%
%TD*%
%TO.P,L1,2*%
%TO.N,+5V*%
%TA.AperFunction,SMDPad,CuDef*%
G36*
G01*
X142323000Y-90948500D02*
X142323000Y-91423500D01*
G75*
G02*
X142085500Y-91661000I-237500J0D01*
G01*
X141585500Y-91661000D01*
G75*
G02*
X141348000Y-91423500I0J237500D01*
G01*
X141348000Y-90948500D01*
G75*
G02*
X141585500Y-90711000I237500J0D01*
G01*
X142085500Y-90711000D01*
G75*
G02*
X142323000Y-90948500I0J-237500D01*
G01*
G37*
%TD.AperFunction*%
%TO.P,L1,1*%
%TO.N,Net-(C2-Pad2)*%
%TA.AperFunction,SMDPad,CuDef*%
G36*
G01*
X144148000Y-90948500D02*
X144148000Y-91423500D01*
G75*
G02*
X143910500Y-91661000I-237500J0D01*
G01*
X143410500Y-91661000D01*
G75*
G02*
X143173000Y-91423500I0J237500D01*
G01*
X143173000Y-90948500D01*
G75*
G02*
X143410500Y-90711000I237500J0D01*
G01*
X143910500Y-90711000D01*
G75*
G02*
X144148000Y-90948500I0J-237500D01*
G01*
G37*
%TD.AperFunction*%
%TD*%
D12*
%TO.P,H3,1*%
%TO.N,GND*%
X160000000Y-105000000D03*
D13*
X160000000Y-105000000D03*
%TD*%
D12*
%TO.P,H1,1*%
%TO.N,GND*%
X120000000Y-65000000D03*
D13*
X120000000Y-65000000D03*
%TD*%
%TO.P,D7,2*%
%TO.N,Net-(D7-Pad2)*%
%TA.AperFunction,SMDPad,CuDef*%
G36*
G01*
X130206000Y-86630500D02*
X130206000Y-87105500D01*
G75*
G02*
X129968500Y-87343000I-237500J0D01*
G01*
X129393500Y-87343000D01*
G75*
G02*
X129156000Y-87105500I0J237500D01*
G01*
X129156000Y-86630500D01*
G75*
G02*
X129393500Y-86393000I237500J0D01*
G01*
X129968500Y-86393000D01*
G75*
G02*
X130206000Y-86630500I0J-237500D01*
G01*
G37*
%TD.AperFunction*%
%TO.P,D7,1*%
%TO.N,GND*%
%TA.AperFunction,SMDPad,CuDef*%
G36*
G01*
X131956000Y-86630500D02*
X131956000Y-87105500D01*
G75*
G02*
X131718500Y-87343000I-237500J0D01*
G01*
X131143500Y-87343000D01*
G75*
G02*
X130906000Y-87105500I0J237500D01*
G01*
X130906000Y-86630500D01*
G75*
G02*
X131143500Y-86393000I237500J0D01*
G01*
X131718500Y-86393000D01*
G75*
G02*
X131956000Y-86630500I0J-237500D01*
G01*
G37*
%TD.AperFunction*%
%TD*%
D20*
%TO.P,D6,2*%
%TO.N,GND*%
X142748000Y-83098000D03*
%TO.P,D6,1*%
%TO.N,Net-(C2-Pad2)*%
X142748000Y-88098000D03*
%TD*%
%TO.P,D5,1*%
%TO.N,GND*%
%TA.AperFunction,SMDPad,CuDef*%
G36*
G01*
X141523964Y-75997074D02*
X141523964Y-75522074D01*
G75*
G02*
X141761464Y-75284574I237500J0D01*
G01*
X142336464Y-75284574D01*
G75*
G02*
X142573964Y-75522074I0J-237500D01*
G01*
X142573964Y-75997074D01*
G75*
G02*
X142336464Y-76234574I-237500J0D01*
G01*
X141761464Y-76234574D01*
G75*
G02*
X141523964Y-75997074I0J237500D01*
G01*
G37*
%TD.AperFunction*%
%TO.P,D5,2*%
%TO.N,Net-(D5-Pad2)*%
%TA.AperFunction,SMDPad,CuDef*%
G36*
G01*
X143273964Y-75997074D02*
X143273964Y-75522074D01*
G75*
G02*
X143511464Y-75284574I237500J0D01*
G01*
X144086464Y-75284574D01*
G75*
G02*
X144323964Y-75522074I0J-237500D01*
G01*
X144323964Y-75997074D01*
G75*
G02*
X144086464Y-76234574I-237500J0D01*
G01*
X143511464Y-76234574D01*
G75*
G02*
X143273964Y-75997074I0J237500D01*
G01*
G37*
%TD.AperFunction*%
%TD*%
%TO.P,D4,2*%
%TO.N,Net-(D4-Pad2)*%
%TA.AperFunction,SMDPad,CuDef*%
G36*
G01*
X119936676Y-85481715D02*
X120411676Y-85481715D01*
G75*
G02*
X120649176Y-85719215I0J-237500D01*
G01*
X120649176Y-86294215D01*
G75*
G02*
X120411676Y-86531715I-237500J0D01*
G01*
X119936676Y-86531715D01*
G75*
G02*
X119699176Y-86294215I0J237500D01*
G01*
X119699176Y-85719215D01*
G75*
G02*
X119936676Y-85481715I237500J0D01*
G01*
G37*
%TD.AperFunction*%
%TO.P,D4,1*%
%TO.N,GND*%
%TA.AperFunction,SMDPad,CuDef*%
G36*
G01*
X119936676Y-83731715D02*
X120411676Y-83731715D01*
G75*
G02*
X120649176Y-83969215I0J-237500D01*
G01*
X120649176Y-84544215D01*
G75*
G02*
X120411676Y-84781715I-237500J0D01*
G01*
X119936676Y-84781715D01*
G75*
G02*
X119699176Y-84544215I0J237500D01*
G01*
X119699176Y-83969215D01*
G75*
G02*
X119936676Y-83731715I237500J0D01*
G01*
G37*
%TD.AperFunction*%
%TD*%
%TO.P,D3,2*%
%TO.N,Net-(D3-Pad2)*%
%TA.AperFunction,SMDPad,CuDef*%
G36*
G01*
X140132000Y-105520500D02*
X140132000Y-105045500D01*
G75*
G02*
X140369500Y-104808000I237500J0D01*
G01*
X140944500Y-104808000D01*
G75*
G02*
X141182000Y-105045500I0J-237500D01*
G01*
X141182000Y-105520500D01*
G75*
G02*
X140944500Y-105758000I-237500J0D01*
G01*
X140369500Y-105758000D01*
G75*
G02*
X140132000Y-105520500I0J237500D01*
G01*
G37*
%TD.AperFunction*%
%TO.P,D3,1*%
%TO.N,GND*%
%TA.AperFunction,SMDPad,CuDef*%
G36*
G01*
X138382000Y-105520500D02*
X138382000Y-105045500D01*
G75*
G02*
X138619500Y-104808000I237500J0D01*
G01*
X139194500Y-104808000D01*
G75*
G02*
X139432000Y-105045500I0J-237500D01*
G01*
X139432000Y-105520500D01*
G75*
G02*
X139194500Y-105758000I-237500J0D01*
G01*
X138619500Y-105758000D01*
G75*
G02*
X138382000Y-105520500I0J237500D01*
G01*
G37*
%TD.AperFunction*%
%TD*%
%TO.P,D2,2*%
%TO.N,Net-(D2-Pad2)*%
%TA.AperFunction,SMDPad,CuDef*%
G36*
G01*
X160257500Y-84867000D02*
X159782500Y-84867000D01*
G75*
G02*
X159545000Y-84629500I0J237500D01*
G01*
X159545000Y-84054500D01*
G75*
G02*
X159782500Y-83817000I237500J0D01*
G01*
X160257500Y-83817000D01*
G75*
G02*
X160495000Y-84054500I0J-237500D01*
G01*
X160495000Y-84629500D01*
G75*
G02*
X160257500Y-84867000I-237500J0D01*
G01*
G37*
%TD.AperFunction*%
%TO.P,D2,1*%
%TO.N,GND*%
%TA.AperFunction,SMDPad,CuDef*%
G36*
G01*
X160257500Y-86617000D02*
X159782500Y-86617000D01*
G75*
G02*
X159545000Y-86379500I0J237500D01*
G01*
X159545000Y-85804500D01*
G75*
G02*
X159782500Y-85567000I237500J0D01*
G01*
X160257500Y-85567000D01*
G75*
G02*
X160495000Y-85804500I0J-237500D01*
G01*
X160495000Y-86379500D01*
G75*
G02*
X160257500Y-86617000I-237500J0D01*
G01*
G37*
%TD.AperFunction*%
%TD*%
%TO.P,D1,2*%
%TO.N,Net-(D1-Pad2)*%
%TA.AperFunction,SMDPad,CuDef*%
G36*
G01*
X139350000Y-64532500D02*
X139350000Y-65007500D01*
G75*
G02*
X139112500Y-65245000I-237500J0D01*
G01*
X138537500Y-65245000D01*
G75*
G02*
X138300000Y-65007500I0J237500D01*
G01*
X138300000Y-64532500D01*
G75*
G02*
X138537500Y-64295000I237500J0D01*
G01*
X139112500Y-64295000D01*
G75*
G02*
X139350000Y-64532500I0J-237500D01*
G01*
G37*
%TD.AperFunction*%
%TO.P,D1,1*%
%TO.N,GND*%
%TA.AperFunction,SMDPad,CuDef*%
G36*
G01*
X141100000Y-64532500D02*
X141100000Y-65007500D01*
G75*
G02*
X140862500Y-65245000I-237500J0D01*
G01*
X140287500Y-65245000D01*
G75*
G02*
X140050000Y-65007500I0J237500D01*
G01*
X140050000Y-64532500D01*
G75*
G02*
X140287500Y-64295000I237500J0D01*
G01*
X140862500Y-64295000D01*
G75*
G02*
X141100000Y-64532500I0J-237500D01*
G01*
G37*
%TD.AperFunction*%
%TD*%
D11*
%TO.P,CH4,2*%
%TO.N,GND*%
X117475000Y-83820000D03*
D10*
%TO.P,CH4,1*%
%TO.N,PWM_CH4*%
X117475000Y-86360000D03*
%TD*%
D11*
%TO.P,CH3,2*%
%TO.N,GND*%
X138532200Y-107950000D03*
D10*
%TO.P,CH3,1*%
%TO.N,PWM_CH3*%
X141072200Y-107950000D03*
%TD*%
D11*
%TO.P,CH2,2*%
%TO.N,GND*%
X162560000Y-83820000D03*
D10*
%TO.P,CH2,1*%
%TO.N,PWM_CH2*%
X162560000Y-86360000D03*
%TD*%
D11*
%TO.P,CH1,2*%
%TO.N,GND*%
X138430000Y-62230000D03*
D10*
%TO.P,CH1,1*%
%TO.N,PWM_CH1*%
X140970000Y-62230000D03*
%TD*%
%TO.P,C14,1*%
%TO.N,+5V*%
%TA.AperFunction,SMDPad,CuDef*%
G36*
G01*
X137008767Y-76529036D02*
X137483767Y-76529036D01*
G75*
G02*
X137721267Y-76766536I0J-237500D01*
G01*
X137721267Y-77366536D01*
G75*
G02*
X137483767Y-77604036I-237500J0D01*
G01*
X137008767Y-77604036D01*
G75*
G02*
X136771267Y-77366536I0J237500D01*
G01*
X136771267Y-76766536D01*
G75*
G02*
X137008767Y-76529036I237500J0D01*
G01*
G37*
%TD.AperFunction*%
%TO.P,C14,2*%
%TO.N,GND*%
%TA.AperFunction,SMDPad,CuDef*%
G36*
G01*
X137008767Y-78254036D02*
X137483767Y-78254036D01*
G75*
G02*
X137721267Y-78491536I0J-237500D01*
G01*
X137721267Y-79091536D01*
G75*
G02*
X137483767Y-79329036I-237500J0D01*
G01*
X137008767Y-79329036D01*
G75*
G02*
X136771267Y-79091536I0J237500D01*
G01*
X136771267Y-78491536D01*
G75*
G02*
X137008767Y-78254036I237500J0D01*
G01*
G37*
%TD.AperFunction*%
%TD*%
%TO.P,C13,1*%
%TO.N,GND*%
%TA.AperFunction,SMDPad,CuDef*%
G36*
G01*
X135867321Y-79293511D02*
X135392321Y-79293511D01*
G75*
G02*
X135154821Y-79056011I0J237500D01*
G01*
X135154821Y-78456011D01*
G75*
G02*
X135392321Y-78218511I237500J0D01*
G01*
X135867321Y-78218511D01*
G75*
G02*
X136104821Y-78456011I0J-237500D01*
G01*
X136104821Y-79056011D01*
G75*
G02*
X135867321Y-79293511I-237500J0D01*
G01*
G37*
%TD.AperFunction*%
%TO.P,C13,2*%
%TO.N,+5V*%
%TA.AperFunction,SMDPad,CuDef*%
G36*
G01*
X135867321Y-77568511D02*
X135392321Y-77568511D01*
G75*
G02*
X135154821Y-77331011I0J237500D01*
G01*
X135154821Y-76731011D01*
G75*
G02*
X135392321Y-76493511I237500J0D01*
G01*
X135867321Y-76493511D01*
G75*
G02*
X136104821Y-76731011I0J-237500D01*
G01*
X136104821Y-77331011D01*
G75*
G02*
X135867321Y-77568511I-237500J0D01*
G01*
G37*
%TD.AperFunction*%
%TD*%
%TO.P,C12,1*%
%TO.N,+5V*%
%TA.AperFunction,SMDPad,CuDef*%
G36*
G01*
X132159429Y-76493511D02*
X132634429Y-76493511D01*
G75*
G02*
X132871929Y-76731011I0J-237500D01*
G01*
X132871929Y-77331011D01*
G75*
G02*
X132634429Y-77568511I-237500J0D01*
G01*
X132159429Y-77568511D01*
G75*
G02*
X131921929Y-77331011I0J237500D01*
G01*
X131921929Y-76731011D01*
G75*
G02*
X132159429Y-76493511I237500J0D01*
G01*
G37*
%TD.AperFunction*%
%TO.P,C12,2*%
%TO.N,GND*%
%TA.AperFunction,SMDPad,CuDef*%
G36*
G01*
X132159429Y-78218511D02*
X132634429Y-78218511D01*
G75*
G02*
X132871929Y-78456011I0J-237500D01*
G01*
X132871929Y-79056011D01*
G75*
G02*
X132634429Y-79293511I-237500J0D01*
G01*
X132159429Y-79293511D01*
G75*
G02*
X131921929Y-79056011I0J237500D01*
G01*
X131921929Y-78456011D01*
G75*
G02*
X132159429Y-78218511I237500J0D01*
G01*
G37*
%TD.AperFunction*%
%TD*%
%TO.P,C11,1*%
%TO.N,GND*%
%TA.AperFunction,SMDPad,CuDef*%
G36*
G01*
X134250875Y-79329036D02*
X133775875Y-79329036D01*
G75*
G02*
X133538375Y-79091536I0J237500D01*
G01*
X133538375Y-78491536D01*
G75*
G02*
X133775875Y-78254036I237500J0D01*
G01*
X134250875Y-78254036D01*
G75*
G02*
X134488375Y-78491536I0J-237500D01*
G01*
X134488375Y-79091536D01*
G75*
G02*
X134250875Y-79329036I-237500J0D01*
G01*
G37*
%TD.AperFunction*%
%TO.P,C11,2*%
%TO.N,+5V*%
%TA.AperFunction,SMDPad,CuDef*%
G36*
G01*
X134250875Y-77604036D02*
X133775875Y-77604036D01*
G75*
G02*
X133538375Y-77366536I0J237500D01*
G01*
X133538375Y-76766536D01*
G75*
G02*
X133775875Y-76529036I237500J0D01*
G01*
X134250875Y-76529036D01*
G75*
G02*
X134488375Y-76766536I0J-237500D01*
G01*
X134488375Y-77366536D01*
G75*
G02*
X134250875Y-77604036I-237500J0D01*
G01*
G37*
%TD.AperFunction*%
%TD*%
%TO.P,C10,1*%
%TO.N,+5V*%
%TA.AperFunction,SMDPad,CuDef*%
G36*
G01*
X138625213Y-76529036D02*
X139100213Y-76529036D01*
G75*
G02*
X139337713Y-76766536I0J-237500D01*
G01*
X139337713Y-77366536D01*
G75*
G02*
X139100213Y-77604036I-237500J0D01*
G01*
X138625213Y-77604036D01*
G75*
G02*
X138387713Y-77366536I0J237500D01*
G01*
X138387713Y-76766536D01*
G75*
G02*
X138625213Y-76529036I237500J0D01*
G01*
G37*
%TD.AperFunction*%
%TO.P,C10,2*%
%TO.N,GND*%
%TA.AperFunction,SMDPad,CuDef*%
G36*
G01*
X138625213Y-78254036D02*
X139100213Y-78254036D01*
G75*
G02*
X139337713Y-78491536I0J-237500D01*
G01*
X139337713Y-79091536D01*
G75*
G02*
X139100213Y-79329036I-237500J0D01*
G01*
X138625213Y-79329036D01*
G75*
G02*
X138387713Y-79091536I0J237500D01*
G01*
X138387713Y-78491536D01*
G75*
G02*
X138625213Y-78254036I237500J0D01*
G01*
G37*
%TD.AperFunction*%
%TD*%
%TO.P,C9,1*%
%TO.N,+3V3*%
%TA.AperFunction,SMDPad,CuDef*%
G36*
G01*
X137483767Y-82721934D02*
X137008767Y-82721934D01*
G75*
G02*
X136771267Y-82484434I0J237500D01*
G01*
X136771267Y-81884434D01*
G75*
G02*
X137008767Y-81646934I237500J0D01*
G01*
X137483767Y-81646934D01*
G75*
G02*
X137721267Y-81884434I0J-237500D01*
G01*
X137721267Y-82484434D01*
G75*
G02*
X137483767Y-82721934I-237500J0D01*
G01*
G37*
%TD.AperFunction*%
%TO.P,C9,2*%
%TO.N,GND*%
%TA.AperFunction,SMDPad,CuDef*%
G36*
G01*
X137483767Y-80996934D02*
X137008767Y-80996934D01*
G75*
G02*
X136771267Y-80759434I0J237500D01*
G01*
X136771267Y-80159434D01*
G75*
G02*
X137008767Y-79921934I237500J0D01*
G01*
X137483767Y-79921934D01*
G75*
G02*
X137721267Y-80159434I0J-237500D01*
G01*
X137721267Y-80759434D01*
G75*
G02*
X137483767Y-80996934I-237500J0D01*
G01*
G37*
%TD.AperFunction*%
%TD*%
%TO.P,C8,1*%
%TO.N,GND*%
%TA.AperFunction,SMDPad,CuDef*%
G36*
G01*
X135392321Y-79921934D02*
X135867321Y-79921934D01*
G75*
G02*
X136104821Y-80159434I0J-237500D01*
G01*
X136104821Y-80759434D01*
G75*
G02*
X135867321Y-80996934I-237500J0D01*
G01*
X135392321Y-80996934D01*
G75*
G02*
X135154821Y-80759434I0J237500D01*
G01*
X135154821Y-80159434D01*
G75*
G02*
X135392321Y-79921934I237500J0D01*
G01*
G37*
%TD.AperFunction*%
%TO.P,C8,2*%
%TO.N,+3V3*%
%TA.AperFunction,SMDPad,CuDef*%
G36*
G01*
X135392321Y-81646934D02*
X135867321Y-81646934D01*
G75*
G02*
X136104821Y-81884434I0J-237500D01*
G01*
X136104821Y-82484434D01*
G75*
G02*
X135867321Y-82721934I-237500J0D01*
G01*
X135392321Y-82721934D01*
G75*
G02*
X135154821Y-82484434I0J237500D01*
G01*
X135154821Y-81884434D01*
G75*
G02*
X135392321Y-81646934I237500J0D01*
G01*
G37*
%TD.AperFunction*%
%TD*%
%TO.P,C7,1*%
%TO.N,+3V3*%
%TA.AperFunction,SMDPad,CuDef*%
G36*
G01*
X134250875Y-82721934D02*
X133775875Y-82721934D01*
G75*
G02*
X133538375Y-82484434I0J237500D01*
G01*
X133538375Y-81884434D01*
G75*
G02*
X133775875Y-81646934I237500J0D01*
G01*
X134250875Y-81646934D01*
G75*
G02*
X134488375Y-81884434I0J-237500D01*
G01*
X134488375Y-82484434D01*
G75*
G02*
X134250875Y-82721934I-237500J0D01*
G01*
G37*
%TD.AperFunction*%
%TO.P,C7,2*%
%TO.N,GND*%
%TA.AperFunction,SMDPad,CuDef*%
G36*
G01*
X134250875Y-80996934D02*
X133775875Y-80996934D01*
G75*
G02*
X133538375Y-80759434I0J237500D01*
G01*
X133538375Y-80159434D01*
G75*
G02*
X133775875Y-79921934I237500J0D01*
G01*
X134250875Y-79921934D01*
G75*
G02*
X134488375Y-80159434I0J-237500D01*
G01*
X134488375Y-80759434D01*
G75*
G02*
X134250875Y-80996934I-237500J0D01*
G01*
G37*
%TD.AperFunction*%
%TD*%
%TO.P,C6,1*%
%TO.N,GND*%
%TA.AperFunction,SMDPad,CuDef*%
G36*
G01*
X132159429Y-79921934D02*
X132634429Y-79921934D01*
G75*
G02*
X132871929Y-80159434I0J-237500D01*
G01*
X132871929Y-80759434D01*
G75*
G02*
X132634429Y-80996934I-237500J0D01*
G01*
X132159429Y-80996934D01*
G75*
G02*
X131921929Y-80759434I0J237500D01*
G01*
X131921929Y-80159434D01*
G75*
G02*
X132159429Y-79921934I237500J0D01*
G01*
G37*
%TD.AperFunction*%
%TO.P,C6,2*%
%TO.N,+3V3*%
%TA.AperFunction,SMDPad,CuDef*%
G36*
G01*
X132159429Y-81646934D02*
X132634429Y-81646934D01*
G75*
G02*
X132871929Y-81884434I0J-237500D01*
G01*
X132871929Y-82484434D01*
G75*
G02*
X132634429Y-82721934I-237500J0D01*
G01*
X132159429Y-82721934D01*
G75*
G02*
X131921929Y-82484434I0J237500D01*
G01*
X131921929Y-81884434D01*
G75*
G02*
X132159429Y-81646934I237500J0D01*
G01*
G37*
%TD.AperFunction*%
%TD*%
%TO.P,C5,1*%
%TO.N,+3V3*%
%TA.AperFunction,SMDPad,CuDef*%
G36*
G01*
X139100213Y-82721934D02*
X138625213Y-82721934D01*
G75*
G02*
X138387713Y-82484434I0J237500D01*
G01*
X138387713Y-81884434D01*
G75*
G02*
X138625213Y-81646934I237500J0D01*
G01*
X139100213Y-81646934D01*
G75*
G02*
X139337713Y-81884434I0J-237500D01*
G01*
X139337713Y-82484434D01*
G75*
G02*
X139100213Y-82721934I-237500J0D01*
G01*
G37*
%TD.AperFunction*%
%TO.P,C5,2*%
%TO.N,GND*%
%TA.AperFunction,SMDPad,CuDef*%
G36*
G01*
X139100213Y-80996934D02*
X138625213Y-80996934D01*
G75*
G02*
X138387713Y-80759434I0J237500D01*
G01*
X138387713Y-80159434D01*
G75*
G02*
X138625213Y-79921934I237500J0D01*
G01*
X139100213Y-79921934D01*
G75*
G02*
X139337713Y-80159434I0J-237500D01*
G01*
X139337713Y-80759434D01*
G75*
G02*
X139100213Y-80996934I-237500J0D01*
G01*
G37*
%TD.AperFunction*%
%TD*%
%TO.P,C4,2*%
%TO.N,GND*%
%TA.AperFunction,SMDPad,CuDef*%
G36*
G01*
X138994000Y-92853500D02*
X138994000Y-93328500D01*
G75*
G02*
X138756500Y-93566000I-237500J0D01*
G01*
X138156500Y-93566000D01*
G75*
G02*
X137919000Y-93328500I0J237500D01*
G01*
X137919000Y-92853500D01*
G75*
G02*
X138156500Y-92616000I237500J0D01*
G01*
X138756500Y-92616000D01*
G75*
G02*
X138994000Y-92853500I0J-237500D01*
G01*
G37*
%TD.AperFunction*%
%TO.P,C4,1*%
%TO.N,+5V*%
%TA.AperFunction,SMDPad,CuDef*%
G36*
G01*
X140719000Y-92853500D02*
X140719000Y-93328500D01*
G75*
G02*
X140481500Y-93566000I-237500J0D01*
G01*
X139881500Y-93566000D01*
G75*
G02*
X139644000Y-93328500I0J237500D01*
G01*
X139644000Y-92853500D01*
G75*
G02*
X139881500Y-92616000I237500J0D01*
G01*
X140481500Y-92616000D01*
G75*
G02*
X140719000Y-92853500I0J-237500D01*
G01*
G37*
%TD.AperFunction*%
%TD*%
%TO.P,C3,2*%
%TO.N,GND*%
%TA.AperFunction,SMDPad,CuDef*%
G36*
G01*
X140445500Y-89945500D02*
X139970500Y-89945500D01*
G75*
G02*
X139733000Y-89708000I0J237500D01*
G01*
X139733000Y-89108000D01*
G75*
G02*
X139970500Y-88870500I237500J0D01*
G01*
X140445500Y-88870500D01*
G75*
G02*
X140683000Y-89108000I0J-237500D01*
G01*
X140683000Y-89708000D01*
G75*
G02*
X140445500Y-89945500I-237500J0D01*
G01*
G37*
%TD.AperFunction*%
%TO.P,C3,1*%
%TO.N,+5V*%
%TA.AperFunction,SMDPad,CuDef*%
G36*
G01*
X140445500Y-91670500D02*
X139970500Y-91670500D01*
G75*
G02*
X139733000Y-91433000I0J237500D01*
G01*
X139733000Y-90833000D01*
G75*
G02*
X139970500Y-90595500I237500J0D01*
G01*
X140445500Y-90595500D01*
G75*
G02*
X140683000Y-90833000I0J-237500D01*
G01*
X140683000Y-91433000D01*
G75*
G02*
X140445500Y-91670500I-237500J0D01*
G01*
G37*
%TD.AperFunction*%
%TD*%
%TO.P,C2,2*%
%TO.N,Net-(C2-Pad2)*%
%TA.AperFunction,SMDPad,CuDef*%
G36*
G01*
X143874500Y-93655000D02*
X143399500Y-93655000D01*
G75*
G02*
X143162000Y-93417500I0J237500D01*
G01*
X143162000Y-92817500D01*
G75*
G02*
X143399500Y-92580000I237500J0D01*
G01*
X143874500Y-92580000D01*
G75*
G02*
X144112000Y-92817500I0J-237500D01*
G01*
X144112000Y-93417500D01*
G75*
G02*
X143874500Y-93655000I-237500J0D01*
G01*
G37*
%TD.AperFunction*%
%TO.P,C2,1*%
%TO.N,Net-(C2-Pad1)*%
%TA.AperFunction,SMDPad,CuDef*%
G36*
G01*
X143874500Y-95380000D02*
X143399500Y-95380000D01*
G75*
G02*
X143162000Y-95142500I0J237500D01*
G01*
X143162000Y-94542500D01*
G75*
G02*
X143399500Y-94305000I237500J0D01*
G01*
X143874500Y-94305000D01*
G75*
G02*
X144112000Y-94542500I0J-237500D01*
G01*
X144112000Y-95142500D01*
G75*
G02*
X143874500Y-95380000I-237500J0D01*
G01*
G37*
%TD.AperFunction*%
%TD*%
%TO.P,C1,2*%
%TO.N,GND*%
%TA.AperFunction,SMDPad,CuDef*%
G36*
G01*
X147899000Y-87613500D02*
X147899000Y-87138500D01*
G75*
G02*
X148136500Y-86901000I237500J0D01*
G01*
X148736500Y-86901000D01*
G75*
G02*
X148974000Y-87138500I0J-237500D01*
G01*
X148974000Y-87613500D01*
G75*
G02*
X148736500Y-87851000I-237500J0D01*
G01*
X148136500Y-87851000D01*
G75*
G02*
X147899000Y-87613500I0J237500D01*
G01*
G37*
%TD.AperFunction*%
%TO.P,C1,1*%
%TO.N,/VCC_IN*%
%TA.AperFunction,SMDPad,CuDef*%
G36*
G01*
X146174000Y-87613500D02*
X146174000Y-87138500D01*
G75*
G02*
X146411500Y-86901000I237500J0D01*
G01*
X147011500Y-86901000D01*
G75*
G02*
X147249000Y-87138500I0J-237500D01*
G01*
X147249000Y-87613500D01*
G75*
G02*
X147011500Y-87851000I-237500J0D01*
G01*
X146411500Y-87851000D01*
G75*
G02*
X146174000Y-87613500I0J237500D01*
G01*
G37*
%TD.AperFunction*%
%TD*%
D21*
%TO.N,GND*%
X120142000Y-84328000D03*
X120650000Y-80010000D03*
X133350000Y-67310000D03*
X132080000Y-67310000D03*
X130810000Y-67310000D03*
%TO.N,/VCC_IN*%
X151130000Y-67310000D03*
X149860000Y-67310000D03*
X148590000Y-67310000D03*
X147320000Y-67310000D03*
%TO.N,GND*%
X156210000Y-77470000D03*
X156210000Y-76200000D03*
X157480000Y-73660000D03*
X157480000Y-74930000D03*
X157480000Y-76200000D03*
X157480000Y-77470000D03*
X157480000Y-78740000D03*
X160020000Y-80010000D03*
X158750000Y-80010000D03*
X158750000Y-77470000D03*
X158750000Y-78740000D03*
X158750000Y-76200000D03*
X158750000Y-74930000D03*
X158750000Y-73660000D03*
%TO.N,/VCC_IN*%
X158750000Y-90170000D03*
X160020000Y-90170000D03*
X160020000Y-96520000D03*
X158750000Y-96520000D03*
X158750000Y-95250000D03*
X157480000Y-95250000D03*
X158750000Y-93980000D03*
X157480000Y-93980000D03*
X158750000Y-92710000D03*
X157480000Y-92710000D03*
X158750000Y-91440000D03*
X157480000Y-91440000D03*
X146050000Y-102870000D03*
X144780000Y-104140000D03*
X144780000Y-107950000D03*
X144780000Y-106680000D03*
X144780000Y-105410000D03*
%TO.N,GND*%
X128270000Y-106680000D03*
X128270000Y-107950000D03*
X128270000Y-104140000D03*
X128270000Y-105410000D03*
%TO.N,/VCC_IN*%
X151130000Y-66040000D03*
%TO.N,GND*%
X129540000Y-102870000D03*
X133350000Y-66040000D03*
X132080000Y-66040000D03*
X130810000Y-66040000D03*
X129540000Y-66040000D03*
X128270000Y-64770000D03*
X129540000Y-64770000D03*
X130810000Y-64770000D03*
X132080000Y-64770000D03*
X133350000Y-64770000D03*
X134620000Y-64770000D03*
X134620000Y-63500000D03*
X133350000Y-63500000D03*
X132080000Y-62230000D03*
X132080000Y-63500000D03*
X130810000Y-63500000D03*
X128270000Y-63500000D03*
X129540000Y-63500000D03*
X130810000Y-62230000D03*
X128270000Y-62230000D03*
X129540000Y-62230000D03*
X130810000Y-62230000D03*
X133350000Y-62230000D03*
X134620000Y-62230000D03*
X121920000Y-74930000D03*
X121920000Y-76200000D03*
X121920000Y-77470000D03*
X121920000Y-78740000D03*
X120650000Y-78740000D03*
X120650000Y-77470000D03*
X120650000Y-76200000D03*
X120650000Y-74930000D03*
X120650000Y-73660000D03*
X118110000Y-73660000D03*
X119380000Y-73660000D03*
X119380000Y-74930000D03*
X118110000Y-74930000D03*
X118110000Y-76200000D03*
X119380000Y-76200000D03*
X119380000Y-77470000D03*
X118110000Y-77470000D03*
X118110000Y-78740000D03*
X119380000Y-78740000D03*
X119380000Y-80010000D03*
X118110000Y-80010000D03*
X116840000Y-80010000D03*
X116840000Y-78740000D03*
X116840000Y-77470000D03*
X116840000Y-76200000D03*
X116840000Y-74930000D03*
X116840000Y-73660000D03*
%TO.N,/VCC_IN*%
X116840000Y-90170000D03*
X116840000Y-91440000D03*
X116840000Y-92710000D03*
X116840000Y-93980000D03*
X116840000Y-93980000D03*
X116840000Y-95250000D03*
X116840000Y-96520000D03*
X118110000Y-96520000D03*
X118110000Y-95250000D03*
X118110000Y-93980000D03*
X118110000Y-92710000D03*
X118110000Y-91440000D03*
X119380000Y-90170000D03*
X118110000Y-90170000D03*
X119380000Y-92710000D03*
X119380000Y-93980000D03*
X119380000Y-95250000D03*
X119380000Y-96520000D03*
X120650000Y-95250000D03*
X120650000Y-93980000D03*
X120650000Y-92710000D03*
X120650000Y-91440000D03*
X119380000Y-91440000D03*
X120650000Y-90170000D03*
X121920000Y-91440000D03*
X121920000Y-92710000D03*
X121920000Y-93980000D03*
%TO.N,GND*%
X130810000Y-102870000D03*
X132080000Y-102870000D03*
X133350000Y-102870000D03*
X134620000Y-105410000D03*
X134620000Y-104140000D03*
X133350000Y-104140000D03*
X132080000Y-104140000D03*
X130810000Y-104140000D03*
X129540000Y-104140000D03*
X129540000Y-105410000D03*
X130810000Y-105410000D03*
X132080000Y-105410000D03*
X133350000Y-105410000D03*
X133350000Y-106680000D03*
X130810000Y-107950000D03*
X129540000Y-107950000D03*
X132080000Y-107950000D03*
X133350000Y-107950000D03*
X134620000Y-107950000D03*
X134620000Y-106680000D03*
X132080000Y-106680000D03*
X130810000Y-106680000D03*
X129540000Y-106680000D03*
%TO.N,/VCC_IN*%
X149860000Y-102870000D03*
X147320000Y-102870000D03*
X148590000Y-102870000D03*
X148590000Y-102870000D03*
X146050000Y-104140000D03*
X147320000Y-104140000D03*
X148590000Y-104140000D03*
X149860000Y-104140000D03*
X148590000Y-105410000D03*
X146050000Y-105410000D03*
X147320000Y-105410000D03*
X147320000Y-106680000D03*
X146050000Y-106680000D03*
X146050000Y-106680000D03*
X148590000Y-106680000D03*
X149860000Y-106680000D03*
X151130000Y-106680000D03*
X151130000Y-105410000D03*
X149860000Y-105410000D03*
X151130000Y-104140000D03*
X149860000Y-107950000D03*
X146050000Y-107950000D03*
X147320000Y-107950000D03*
X148590000Y-107950000D03*
X151130000Y-107950000D03*
X160020000Y-91440000D03*
X161290000Y-90170000D03*
X161290000Y-91440000D03*
X161290000Y-92710000D03*
X160020000Y-92710000D03*
X160020000Y-95250000D03*
X161290000Y-93980000D03*
X160020000Y-93980000D03*
X161290000Y-96520000D03*
X162560000Y-96520000D03*
X162560000Y-95250000D03*
X161290000Y-95250000D03*
X162560000Y-92710000D03*
X162560000Y-93980000D03*
X162560000Y-91440000D03*
X162560000Y-90170000D03*
%TO.N,GND*%
X162560000Y-69850000D03*
X162560000Y-71120000D03*
X161290000Y-71120000D03*
X160020000Y-72390000D03*
X161290000Y-72390000D03*
X162560000Y-72390000D03*
X160020000Y-78740000D03*
X162560000Y-80010000D03*
X161290000Y-80010000D03*
X161290000Y-78740000D03*
X162560000Y-78740000D03*
X162560000Y-77470000D03*
X161290000Y-77470000D03*
X160020000Y-77470000D03*
X160020000Y-76200000D03*
X160020000Y-74930000D03*
X161290000Y-76200000D03*
X161290000Y-74930000D03*
X162560000Y-76200000D03*
X162560000Y-74930000D03*
X162560000Y-73660000D03*
X161290000Y-73660000D03*
X160020000Y-73660000D03*
X142621000Y-65532000D03*
X130810000Y-81026000D03*
X131431000Y-84977000D03*
X142048964Y-77532964D03*
X142748000Y-79756000D03*
X138862713Y-78791536D03*
X138862713Y-80459434D03*
%TO.N,/VCC_IN*%
X153670000Y-64770000D03*
X152400000Y-64770000D03*
X154940000Y-63500000D03*
X153670000Y-63500000D03*
X152400000Y-63500000D03*
X149860000Y-66040000D03*
X148590000Y-66040000D03*
X147320000Y-66040000D03*
X146050000Y-66040000D03*
X144780000Y-64770000D03*
X148590000Y-64770000D03*
X146050000Y-64770000D03*
X147320000Y-64770000D03*
X149860000Y-64770000D03*
X151130000Y-64770000D03*
X151130000Y-63500000D03*
X149860000Y-63500000D03*
X148590000Y-63500000D03*
X147320000Y-63500000D03*
X146050000Y-63500000D03*
X144780000Y-63500000D03*
X144780000Y-62230000D03*
X146050000Y-62230000D03*
X147320000Y-62230000D03*
X148590000Y-62230000D03*
X149860000Y-62230000D03*
X151130000Y-62230000D03*
X152400000Y-62230000D03*
X154940000Y-62230000D03*
X153670000Y-62230000D03*
X156210000Y-62230000D03*
X158496000Y-86106000D03*
X144526000Y-70231000D03*
X148844000Y-81915000D03*
X147447000Y-81915000D03*
X146711500Y-83158500D03*
X146711500Y-84428500D03*
X126111000Y-90297000D03*
X139446000Y-100965000D03*
%TO.N,Net-(R10-Pad2)*%
X128143000Y-87249000D03*
%TD*%
D22*
%TO.N,GND*%
X131431000Y-86868000D02*
X131431000Y-84977000D01*
D23*
X138827188Y-78756011D02*
X138862713Y-78791536D01*
X132396929Y-78756011D02*
X138827188Y-78756011D01*
X138862713Y-80459434D02*
X138862713Y-80459434D01*
X160288000Y-86092000D02*
X162560000Y-83820000D01*
X160020000Y-86092000D02*
X160288000Y-86092000D01*
X142048964Y-75759574D02*
X142048964Y-77532964D01*
X131376566Y-80459434D02*
X132396929Y-80459434D01*
X130810000Y-81026000D02*
X130810000Y-81026000D01*
X130810000Y-79883000D02*
X130810000Y-81026000D01*
X131936989Y-78756011D02*
X130810000Y-79883000D01*
X132396929Y-78756011D02*
X131936989Y-78756011D01*
X130810000Y-81026000D02*
X131376566Y-80459434D01*
D22*
X131431000Y-84977000D02*
X131431000Y-84977000D01*
D23*
X142748000Y-83098000D02*
X142748000Y-79756000D01*
X142048964Y-77532964D02*
X142048964Y-77532964D01*
X142748000Y-79756000D02*
X142748000Y-79756000D01*
X147955000Y-87857500D02*
X148436500Y-87376000D01*
X147955000Y-89248000D02*
X147955000Y-87857500D01*
X147955000Y-91313000D02*
X147320000Y-91948000D01*
X147955000Y-89248000D02*
X147955000Y-91313000D01*
X138907000Y-107575200D02*
X138532200Y-107950000D01*
X138907000Y-105283000D02*
X138907000Y-107575200D01*
X138862713Y-78791536D02*
X138862713Y-78791536D01*
X138862713Y-80459434D02*
X132396929Y-80459434D01*
X141859000Y-64770000D02*
X142621000Y-65532000D01*
X140575000Y-64770000D02*
X141859000Y-64770000D01*
D22*
%TO.N,/VCC_IN*%
X140612500Y-66294000D02*
X140612500Y-66317500D01*
X140612500Y-66317500D02*
X144526000Y-70231000D01*
X144526000Y-70231000D02*
X144526000Y-70231000D01*
X146711500Y-87376000D02*
X146711500Y-84428500D01*
X146711500Y-82576500D02*
X147373000Y-81915000D01*
X147373000Y-81915000D02*
X147447000Y-81915000D01*
X148844000Y-81915000D02*
X148844000Y-81915000D01*
X147447000Y-81915000D02*
X148844000Y-81915000D01*
X146711500Y-83158500D02*
X146711500Y-82576500D01*
X146711500Y-84428500D02*
X146711500Y-83158500D01*
X146711500Y-89221500D02*
X146685000Y-89248000D01*
X146711500Y-87376000D02*
X146711500Y-89221500D01*
X126111000Y-90297000D02*
X126111000Y-90297000D01*
X138869500Y-103759000D02*
X138869500Y-101541500D01*
X138869500Y-101541500D02*
X139446000Y-100965000D01*
X139446000Y-100965000D02*
X139446000Y-100965000D01*
X124079000Y-85725000D02*
X124079000Y-88265000D01*
X122573215Y-84219215D02*
X124079000Y-85725000D01*
X124079000Y-88265000D02*
X126111000Y-90297000D01*
X121790622Y-84219215D02*
X122573215Y-84219215D01*
%TO.N,Net-(C2-Pad2)*%
X143637000Y-91209500D02*
X143660500Y-91186000D01*
X143637000Y-93117500D02*
X143637000Y-91209500D01*
X143898000Y-89248000D02*
X142748000Y-88098000D01*
X145415000Y-89248000D02*
X143898000Y-89248000D01*
X142748000Y-90273500D02*
X143660500Y-91186000D01*
X142748000Y-88098000D02*
X142748000Y-90273500D01*
%TO.N,Net-(C2-Pad1)*%
X143831500Y-94648000D02*
X143637000Y-94842500D01*
X145415000Y-94648000D02*
X143831500Y-94648000D01*
%TO.N,Net-(D1-Pad2)*%
X138825000Y-66256500D02*
X138787500Y-66294000D01*
X138825000Y-64770000D02*
X138825000Y-66256500D01*
%TO.N,Net-(D2-Pad2)*%
X160008514Y-84330514D02*
X160020000Y-84342000D01*
X158496000Y-84330514D02*
X160008514Y-84330514D01*
D23*
%TO.N,Net-(D3-Pad2)*%
X140694500Y-103759000D02*
X140694500Y-104626500D01*
X140694500Y-105245500D02*
X140657000Y-105283000D01*
X140694500Y-103759000D02*
X140694500Y-105245500D01*
D22*
%TO.N,Net-(D4-Pad2)*%
X121753122Y-86006715D02*
X121790622Y-86044215D01*
X120174176Y-86006715D02*
X121753122Y-86006715D01*
D23*
%TO.N,Net-(D5-Pad2)*%
X143798964Y-74360233D02*
X143836464Y-74322733D01*
X143798964Y-75759574D02*
X143798964Y-74360233D01*
D22*
%TO.N,Net-(D7-Pad2)*%
X129643500Y-86905500D02*
X129681000Y-86868000D01*
X129643500Y-88392000D02*
X129643500Y-86905500D01*
D23*
%TO.N,PMM*%
X138049000Y-71755000D02*
X138176000Y-71628000D01*
X137160000Y-71882000D02*
X137414000Y-71628000D01*
X137160000Y-73509500D02*
X137160000Y-71882000D01*
D22*
%TO.N,+5V*%
X140205000Y-93067500D02*
X140181500Y-93091000D01*
X141859000Y-93067500D02*
X140205000Y-93067500D01*
X141859000Y-91209500D02*
X141835500Y-91186000D01*
X141859000Y-93067500D02*
X141859000Y-91209500D01*
X140261000Y-91186000D02*
X140208000Y-91133000D01*
X141835500Y-91186000D02*
X140261000Y-91186000D01*
X138543000Y-91133000D02*
X138063000Y-90653000D01*
X140208000Y-91133000D02*
X138543000Y-91133000D01*
X138063000Y-90653000D02*
X138263723Y-90452277D01*
D23*
X138063000Y-90653000D02*
X138063000Y-86600000D01*
X138063000Y-86600000D02*
X140335000Y-84328000D01*
X140335000Y-78538823D02*
X138862713Y-77066536D01*
X140335000Y-84328000D02*
X140335000Y-78538823D01*
X132010989Y-77031011D02*
X128270000Y-80772000D01*
X132396929Y-77031011D02*
X132010989Y-77031011D01*
X138827188Y-77031011D02*
X138862713Y-77066536D01*
X132396929Y-77031011D02*
X138827188Y-77031011D01*
X139267661Y-77066536D02*
X142011464Y-74322733D01*
X138862713Y-77066536D02*
X139267661Y-77066536D01*
X142011464Y-74322733D02*
X142011464Y-74142536D01*
X142011464Y-74322733D02*
X142085267Y-74322733D01*
X142494000Y-73914000D02*
X142494000Y-71628000D01*
X142085267Y-74322733D02*
X142494000Y-73914000D01*
%TO.N,PWM_CH1*%
X138279500Y-63627000D02*
X137160000Y-64746500D01*
X139573000Y-63627000D02*
X138279500Y-63627000D01*
X140970000Y-62230000D02*
X139573000Y-63627000D01*
%TO.N,PWM_CH2*%
X161440500Y-86360000D02*
X160043500Y-87757000D01*
X162560000Y-86360000D02*
X161440500Y-86360000D01*
D22*
%TO.N,+3V3*%
X135763000Y-84353000D02*
X135763000Y-90653000D01*
X135002000Y-88392000D02*
X131468500Y-88392000D01*
X135763000Y-89153000D02*
X135002000Y-88392000D01*
X135763000Y-90653000D02*
X135763000Y-89153000D01*
X138862713Y-82184434D02*
X132396929Y-82184434D01*
D23*
X135763000Y-82317613D02*
X135629821Y-82184434D01*
X135763000Y-84353000D02*
X135763000Y-82317613D01*
X129286000Y-83312000D02*
X128270000Y-83312000D01*
X130413566Y-82184434D02*
X129286000Y-83312000D01*
X132396929Y-82184434D02*
X130413566Y-82184434D01*
%TO.N,PWM_CH3*%
X142367000Y-106655200D02*
X141072200Y-107950000D01*
X142367000Y-105560500D02*
X142367000Y-106655200D01*
%TO.N,PWM_CH4*%
X119991500Y-82677000D02*
X119761000Y-82677000D01*
X119761000Y-82677000D02*
X119761000Y-83058000D01*
X119761000Y-83058000D02*
X118745000Y-84074000D01*
X118745000Y-85090000D02*
X117475000Y-86360000D01*
X118745000Y-84074000D02*
X118745000Y-85090000D01*
D22*
%TO.N,Net-(R6-Pad2)*%
X140382000Y-94892500D02*
X140231500Y-94742000D01*
X141859000Y-94892500D02*
X140382000Y-94892500D01*
X141859000Y-94892500D02*
X141859000Y-95758000D01*
X141859000Y-95758000D02*
X143256000Y-97155000D01*
X149225000Y-95923000D02*
X149225000Y-94648000D01*
X147993000Y-97155000D02*
X149225000Y-95923000D01*
X143256000Y-97155000D02*
X147993000Y-97155000D01*
D23*
%TO.N,Net-(R9-Pad2)*%
X130579500Y-73152000D02*
X128270000Y-73152000D01*
X137160000Y-66571500D02*
X130579500Y-73152000D01*
%TO.N,Net-(R10-Pad2)*%
X128143000Y-88209866D02*
X139120134Y-99187000D01*
X128143000Y-87249000D02*
X128143000Y-88209866D01*
X139120134Y-99187000D02*
X148336000Y-99187000D01*
X158218500Y-89304500D02*
X158218500Y-87757000D01*
X148336000Y-99187000D02*
X158218500Y-89304500D01*
%TO.N,Net-(R11-Pad2)*%
X142168134Y-103536634D02*
X142367000Y-103735500D01*
X142168134Y-102433866D02*
X142168134Y-103536634D01*
X142168134Y-102235000D02*
X142168134Y-102433866D01*
X142168134Y-100829634D02*
X142168134Y-102433866D01*
X141287500Y-99949000D02*
X142168134Y-100829634D01*
X138430000Y-99949000D02*
X141287500Y-99949000D01*
X127000000Y-88519000D02*
X138430000Y-99949000D01*
X127000000Y-76962000D02*
X127000000Y-88519000D01*
X125730000Y-75692000D02*
X127000000Y-76962000D01*
%TO.N,Net-(R12-Pad2)*%
X121816500Y-82145500D02*
X121816500Y-82677000D01*
X125730000Y-78232000D02*
X121816500Y-82145500D01*
%TO.N,Net-(R13-Pad1)*%
X137033000Y-75461500D02*
X137160000Y-75334500D01*
X131040500Y-75461500D02*
X137033000Y-75461500D01*
X128270000Y-78232000D02*
X131040500Y-75461500D01*
%TD*%
D24*
%TO.N,GND*%
X146700373Y-60878968D02*
X146394043Y-61252231D01*
X146351898Y-61234774D01*
X146151939Y-61195000D01*
X145948061Y-61195000D01*
X145748102Y-61234774D01*
X145559744Y-61312795D01*
X145415000Y-61409510D01*
X145270256Y-61312795D01*
X145081898Y-61234774D01*
X144881939Y-61195000D01*
X144678061Y-61195000D01*
X144478102Y-61234774D01*
X144289744Y-61312795D01*
X144120226Y-61426063D01*
X143976063Y-61570226D01*
X143862795Y-61739744D01*
X143784774Y-61928102D01*
X143745000Y-62128061D01*
X143745000Y-62331939D01*
X143784774Y-62531898D01*
X143862795Y-62720256D01*
X143959510Y-62865000D01*
X143862795Y-63009744D01*
X143784774Y-63198102D01*
X143745000Y-63398061D01*
X143745000Y-63601939D01*
X143784774Y-63801898D01*
X143862795Y-63990256D01*
X143959510Y-64135000D01*
X143862795Y-64279744D01*
X143784774Y-64468102D01*
X143745000Y-64668061D01*
X143745000Y-64871939D01*
X143784774Y-65071898D01*
X143862795Y-65260256D01*
X143976063Y-65429774D01*
X144120226Y-65573937D01*
X144289744Y-65687205D01*
X144478102Y-65765226D01*
X144678061Y-65805000D01*
X144881939Y-65805000D01*
X145048039Y-65771961D01*
X145015000Y-65938061D01*
X145015000Y-66141939D01*
X145054774Y-66341898D01*
X145132795Y-66530256D01*
X145246063Y-66699774D01*
X145390226Y-66843937D01*
X145559744Y-66957205D01*
X145748102Y-67035226D01*
X145948061Y-67075000D01*
X146151939Y-67075000D01*
X146318039Y-67041961D01*
X146285000Y-67208061D01*
X146285000Y-67411939D01*
X146324774Y-67611898D01*
X146402795Y-67800256D01*
X146516063Y-67969774D01*
X146660226Y-68113937D01*
X146829744Y-68227205D01*
X147018102Y-68305226D01*
X147218061Y-68345000D01*
X147421939Y-68345000D01*
X147621898Y-68305226D01*
X147810256Y-68227205D01*
X147955000Y-68130490D01*
X148099744Y-68227205D01*
X148288102Y-68305226D01*
X148488061Y-68345000D01*
X148510435Y-68345000D01*
X149230199Y-68563337D01*
X150138817Y-68652829D01*
X151047435Y-68563337D01*
X151921136Y-68298304D01*
X152726344Y-67867911D01*
X153233092Y-67452033D01*
X157727572Y-67452033D01*
X158045757Y-67905850D01*
X158650210Y-68231269D01*
X159306535Y-68432512D01*
X159989510Y-68501845D01*
X160672888Y-68436605D01*
X161330407Y-68239298D01*
X161936799Y-67917506D01*
X161954243Y-67905850D01*
X162272428Y-67452033D01*
X160000000Y-65179605D01*
X157727572Y-67452033D01*
X153233092Y-67452033D01*
X153255252Y-67433847D01*
X156405689Y-64283410D01*
X156675316Y-63954869D01*
X156567488Y-64306535D01*
X156498155Y-64989510D01*
X156563395Y-65672888D01*
X156760702Y-66330407D01*
X157082494Y-66936799D01*
X157094150Y-66954243D01*
X157547967Y-67272428D01*
X159820395Y-65000000D01*
X157547967Y-62727572D01*
X157280523Y-62915085D01*
X157535179Y-62075594D01*
X157624671Y-61166976D01*
X157574738Y-60660000D01*
X159970608Y-60660000D01*
X160474352Y-60704958D01*
X161757768Y-61988374D01*
X161349790Y-61768731D01*
X160693465Y-61567488D01*
X160010490Y-61498155D01*
X159327112Y-61563395D01*
X158669593Y-61760702D01*
X158063201Y-62082494D01*
X158045757Y-62094150D01*
X157727572Y-62547967D01*
X160000000Y-64820395D01*
X160014143Y-64806253D01*
X160193748Y-64985858D01*
X160179605Y-65000000D01*
X162452033Y-67272428D01*
X162905850Y-66954243D01*
X163231269Y-66349790D01*
X163432512Y-65693465D01*
X163501845Y-65010490D01*
X163436605Y-64327112D01*
X163239298Y-63669593D01*
X163013513Y-63244119D01*
X164304050Y-64534656D01*
X164340000Y-65024207D01*
X164340000Y-68236695D01*
X163861893Y-68270593D01*
X162985172Y-68510526D01*
X162172106Y-68916890D01*
X161453940Y-69474066D01*
X160039727Y-70888280D01*
X163227364Y-74075917D01*
X163241507Y-74061775D01*
X163421112Y-74241380D01*
X163406969Y-74255522D01*
X163421112Y-74269665D01*
X163241507Y-74449270D01*
X163227364Y-74435127D01*
X158739040Y-78923451D01*
X159192534Y-79492771D01*
X159922080Y-79903316D01*
X160784347Y-80190899D01*
X161686151Y-80304735D01*
X162592835Y-80240451D01*
X163469556Y-80000518D01*
X164282622Y-79594154D01*
X164340000Y-79549638D01*
X164340001Y-104970597D01*
X164288316Y-105549718D01*
X162531931Y-107352323D01*
X162452035Y-107272427D01*
X162905850Y-106954243D01*
X163231269Y-106349790D01*
X163432512Y-105693465D01*
X163501845Y-105010490D01*
X163436605Y-104327112D01*
X163239298Y-103669593D01*
X162917506Y-103063201D01*
X162905850Y-103045757D01*
X162452033Y-102727572D01*
X160179605Y-105000000D01*
X160193748Y-105014143D01*
X160014143Y-105193748D01*
X160000000Y-105179605D01*
X157727572Y-107452033D01*
X158045757Y-107905850D01*
X158650210Y-108231269D01*
X159306535Y-108432512D01*
X159989510Y-108501845D01*
X160672888Y-108436605D01*
X161330407Y-108239298D01*
X161936799Y-107917506D01*
X161954243Y-107905850D01*
X162272427Y-107452035D01*
X162354656Y-107534264D01*
X160646013Y-109287871D01*
X160628543Y-109292065D01*
X159975793Y-109340000D01*
X142258990Y-109340000D01*
X142276694Y-109330537D01*
X142373385Y-109251185D01*
X142452737Y-109154494D01*
X142511702Y-109044180D01*
X142548012Y-108924482D01*
X142560272Y-108800000D01*
X142560272Y-107572085D01*
X142894810Y-107237547D01*
X142924764Y-107212964D01*
X143022862Y-107093433D01*
X143095754Y-106957060D01*
X143108700Y-106914384D01*
X143140642Y-106809087D01*
X143150874Y-106705192D01*
X143152000Y-106693761D01*
X143152000Y-106693756D01*
X143155797Y-106655200D01*
X143152000Y-106616644D01*
X143152000Y-106615403D01*
X143223623Y-106556623D01*
X143332512Y-106423942D01*
X143413423Y-106272567D01*
X143463248Y-106108316D01*
X143480072Y-105937500D01*
X143480072Y-105437500D01*
X143463248Y-105266684D01*
X143413423Y-105102433D01*
X143332512Y-104951058D01*
X143223623Y-104818377D01*
X143170768Y-104775000D01*
X143223623Y-104731623D01*
X143332512Y-104598942D01*
X143413423Y-104447567D01*
X143463248Y-104283316D01*
X143480072Y-104112500D01*
X143480072Y-104038061D01*
X143745000Y-104038061D01*
X143745000Y-104241939D01*
X143784774Y-104441898D01*
X143862795Y-104630256D01*
X143959510Y-104775000D01*
X143862795Y-104919744D01*
X143784774Y-105108102D01*
X143745000Y-105308061D01*
X143745000Y-105511939D01*
X143784774Y-105711898D01*
X143862795Y-105900256D01*
X143959510Y-106045000D01*
X143862795Y-106189744D01*
X143784774Y-106378102D01*
X143745000Y-106578061D01*
X143745000Y-106781939D01*
X143784774Y-106981898D01*
X143862795Y-107170256D01*
X143959510Y-107315000D01*
X143862795Y-107459744D01*
X143784774Y-107648102D01*
X143745000Y-107848061D01*
X143745000Y-108051939D01*
X143784774Y-108251898D01*
X143862795Y-108440256D01*
X143976063Y-108609774D01*
X144120226Y-108753937D01*
X144289744Y-108867205D01*
X144478102Y-108945226D01*
X144678061Y-108985000D01*
X144881939Y-108985000D01*
X145081898Y-108945226D01*
X145270256Y-108867205D01*
X145415000Y-108770490D01*
X145559744Y-108867205D01*
X145748102Y-108945226D01*
X145948061Y-108985000D01*
X146151939Y-108985000D01*
X146351898Y-108945226D01*
X146540256Y-108867205D01*
X146685000Y-108770490D01*
X146829744Y-108867205D01*
X147018102Y-108945226D01*
X147218061Y-108985000D01*
X147421939Y-108985000D01*
X147621898Y-108945226D01*
X147810256Y-108867205D01*
X147955000Y-108770490D01*
X148099744Y-108867205D01*
X148288102Y-108945226D01*
X148488061Y-108985000D01*
X148691939Y-108985000D01*
X148891898Y-108945226D01*
X149080256Y-108867205D01*
X149225000Y-108770490D01*
X149369744Y-108867205D01*
X149558102Y-108945226D01*
X149758061Y-108985000D01*
X149961939Y-108985000D01*
X150161898Y-108945226D01*
X150350256Y-108867205D01*
X150495000Y-108770490D01*
X150639744Y-108867205D01*
X150828102Y-108945226D01*
X151028061Y-108985000D01*
X151231939Y-108985000D01*
X151431898Y-108945226D01*
X151620256Y-108867205D01*
X151789774Y-108753937D01*
X151933937Y-108609774D01*
X152047205Y-108440256D01*
X152125226Y-108251898D01*
X152165000Y-108051939D01*
X152165000Y-107848061D01*
X152125226Y-107648102D01*
X152047205Y-107459744D01*
X151950490Y-107315000D01*
X152047205Y-107170256D01*
X152125226Y-106981898D01*
X152165000Y-106781939D01*
X152165000Y-106578061D01*
X152125226Y-106378102D01*
X152047205Y-106189744D01*
X151950490Y-106045000D01*
X152047205Y-105900256D01*
X152125226Y-105711898D01*
X152165000Y-105511939D01*
X152165000Y-105308061D01*
X152125226Y-105108102D01*
X152076104Y-104989510D01*
X156498155Y-104989510D01*
X156563395Y-105672888D01*
X156760702Y-106330407D01*
X157082494Y-106936799D01*
X157094150Y-106954243D01*
X157547967Y-107272428D01*
X159820395Y-105000000D01*
X157547967Y-102727572D01*
X157094150Y-103045757D01*
X156768731Y-103650210D01*
X156567488Y-104306535D01*
X156498155Y-104989510D01*
X152076104Y-104989510D01*
X152047205Y-104919744D01*
X151950490Y-104775000D01*
X152047205Y-104630256D01*
X152125226Y-104441898D01*
X152165000Y-104241939D01*
X152165000Y-104038061D01*
X152125226Y-103838102D01*
X152047205Y-103649744D01*
X151933937Y-103480226D01*
X151789774Y-103336063D01*
X151620256Y-103222795D01*
X151431898Y-103144774D01*
X151231939Y-103105000D01*
X151028061Y-103105000D01*
X150861961Y-103138039D01*
X150895000Y-102971939D01*
X150895000Y-102768061D01*
X150855226Y-102568102D01*
X150846886Y-102547967D01*
X157727572Y-102547967D01*
X160000000Y-104820395D01*
X162272428Y-102547967D01*
X161954243Y-102094150D01*
X161349790Y-101768731D01*
X160693465Y-101567488D01*
X160010490Y-101498155D01*
X159327112Y-101563395D01*
X158669593Y-101760702D01*
X158063201Y-102082494D01*
X158045757Y-102094150D01*
X157727572Y-102547967D01*
X150846886Y-102547967D01*
X150777205Y-102379744D01*
X150663937Y-102210226D01*
X150519774Y-102066063D01*
X150350256Y-101952795D01*
X150161898Y-101874774D01*
X149961939Y-101835000D01*
X149758061Y-101835000D01*
X149558102Y-101874774D01*
X149369744Y-101952795D01*
X149225000Y-102049510D01*
X149080256Y-101952795D01*
X148891898Y-101874774D01*
X148691939Y-101835000D01*
X148488061Y-101835000D01*
X148288102Y-101874774D01*
X148099744Y-101952795D01*
X147955000Y-102049510D01*
X147810256Y-101952795D01*
X147621898Y-101874774D01*
X147421939Y-101835000D01*
X147218061Y-101835000D01*
X147018102Y-101874774D01*
X146829744Y-101952795D01*
X146685000Y-102049510D01*
X146540256Y-101952795D01*
X146351898Y-101874774D01*
X146151939Y-101835000D01*
X145948061Y-101835000D01*
X145748102Y-101874774D01*
X145559744Y-101952795D01*
X145390226Y-102066063D01*
X145246063Y-102210226D01*
X145132795Y-102379744D01*
X145054774Y-102568102D01*
X145015000Y-102768061D01*
X145015000Y-102971939D01*
X145048039Y-103138039D01*
X144881939Y-103105000D01*
X144678061Y-103105000D01*
X144478102Y-103144774D01*
X144289744Y-103222795D01*
X144120226Y-103336063D01*
X143976063Y-103480226D01*
X143862795Y-103649744D01*
X143784774Y-103838102D01*
X143745000Y-104038061D01*
X143480072Y-104038061D01*
X143480072Y-103612500D01*
X143463248Y-103441684D01*
X143413423Y-103277433D01*
X143332512Y-103126058D01*
X143223623Y-102993377D01*
X143090942Y-102884488D01*
X142953134Y-102810829D01*
X142953134Y-100868190D01*
X142956931Y-100829634D01*
X142953134Y-100791074D01*
X142953134Y-100791073D01*
X142946125Y-100719911D01*
X142941776Y-100675747D01*
X142896888Y-100527774D01*
X142885658Y-100506764D01*
X142823996Y-100391401D01*
X142725898Y-100271870D01*
X142695945Y-100247288D01*
X142420657Y-99972000D01*
X148297447Y-99972000D01*
X148336000Y-99975797D01*
X148374553Y-99972000D01*
X148374561Y-99972000D01*
X148489887Y-99960641D01*
X148637860Y-99915754D01*
X148774233Y-99842862D01*
X148893764Y-99744764D01*
X148918347Y-99714810D01*
X156618914Y-92014243D01*
X156659510Y-92075000D01*
X156562795Y-92219744D01*
X156484774Y-92408102D01*
X156445000Y-92608061D01*
X156445000Y-92811939D01*
X156484774Y-93011898D01*
X156562795Y-93200256D01*
X156659510Y-93345000D01*
X156562795Y-93489744D01*
X156484774Y-93678102D01*
X156445000Y-93878061D01*
X156445000Y-94081939D01*
X156484774Y-94281898D01*
X156562795Y-94470256D01*
X156659510Y-94615000D01*
X156562795Y-94759744D01*
X156484774Y-94948102D01*
X156445000Y-95148061D01*
X156445000Y-95351939D01*
X156484774Y-95551898D01*
X156562795Y-95740256D01*
X156676063Y-95909774D01*
X156820226Y-96053937D01*
X156989744Y-96167205D01*
X157178102Y-96245226D01*
X157378061Y-96285000D01*
X157581939Y-96285000D01*
X157748039Y-96251961D01*
X157715000Y-96418061D01*
X157715000Y-96621939D01*
X157754774Y-96821898D01*
X157832795Y-97010256D01*
X157946063Y-97179774D01*
X158090226Y-97323937D01*
X158259744Y-97437205D01*
X158448102Y-97515226D01*
X158648061Y-97555000D01*
X158851939Y-97555000D01*
X159051898Y-97515226D01*
X159240256Y-97437205D01*
X159385000Y-97340490D01*
X159529744Y-97437205D01*
X159718102Y-97515226D01*
X159918061Y-97555000D01*
X160121939Y-97555000D01*
X160321898Y-97515226D01*
X160510256Y-97437205D01*
X160655000Y-97340490D01*
X160799744Y-97437205D01*
X160988102Y-97515226D01*
X161188061Y-97555000D01*
X161391939Y-97555000D01*
X161591898Y-97515226D01*
X161780256Y-97437205D01*
X161925000Y-97340490D01*
X162069744Y-97437205D01*
X162258102Y-97515226D01*
X162458061Y-97555000D01*
X162661939Y-97555000D01*
X162861898Y-97515226D01*
X163050256Y-97437205D01*
X163219774Y-97323937D01*
X163363937Y-97179774D01*
X163477205Y-97010256D01*
X163555226Y-96821898D01*
X163595000Y-96621939D01*
X163595000Y-96418061D01*
X163555226Y-96218102D01*
X163477205Y-96029744D01*
X163380490Y-95885000D01*
X163477205Y-95740256D01*
X163555226Y-95551898D01*
X163595000Y-95351939D01*
X163595000Y-95148061D01*
X163555226Y-94948102D01*
X163477205Y-94759744D01*
X163380490Y-94615000D01*
X163477205Y-94470256D01*
X163555226Y-94281898D01*
X163595000Y-94081939D01*
X163595000Y-93878061D01*
X163555226Y-93678102D01*
X163477205Y-93489744D01*
X163380490Y-93345000D01*
X163477205Y-93200256D01*
X163555226Y-93011898D01*
X163595000Y-92811939D01*
X163595000Y-92608061D01*
X163555226Y-92408102D01*
X163477205Y-92219744D01*
X163380490Y-92075000D01*
X163477205Y-91930256D01*
X163555226Y-91741898D01*
X163595000Y-91541939D01*
X163595000Y-91338061D01*
X163555226Y-91138102D01*
X163477205Y-90949744D01*
X163380490Y-90805000D01*
X163477205Y-90660256D01*
X163555226Y-90471898D01*
X163595000Y-90271939D01*
X163595000Y-90068061D01*
X163555226Y-89868102D01*
X163477205Y-89679744D01*
X163363937Y-89510226D01*
X163219774Y-89366063D01*
X163050256Y-89252795D01*
X162861898Y-89174774D01*
X162661939Y-89135000D01*
X162458061Y-89135000D01*
X162258102Y-89174774D01*
X162069744Y-89252795D01*
X161925000Y-89349510D01*
X161780256Y-89252795D01*
X161591898Y-89174774D01*
X161391939Y-89135000D01*
X161188061Y-89135000D01*
X160988102Y-89174774D01*
X160799744Y-89252795D01*
X160655000Y-89349510D01*
X160510256Y-89252795D01*
X160321898Y-89174774D01*
X160121939Y-89135000D01*
X159918061Y-89135000D01*
X159718102Y-89174774D01*
X159529744Y-89252795D01*
X159385000Y-89349510D01*
X159240256Y-89252795D01*
X159051898Y-89174774D01*
X159003500Y-89165147D01*
X159003500Y-88682661D01*
X159087623Y-88613623D01*
X159131000Y-88560768D01*
X159174377Y-88613623D01*
X159307058Y-88722512D01*
X159458433Y-88803423D01*
X159622684Y-88853248D01*
X159793500Y-88870072D01*
X160293500Y-88870072D01*
X160464316Y-88853248D01*
X160628567Y-88803423D01*
X160779942Y-88722512D01*
X160912623Y-88613623D01*
X161021512Y-88480942D01*
X161102423Y-88329567D01*
X161152248Y-88165316D01*
X161169072Y-87994500D01*
X161169072Y-87741585D01*
X161254604Y-87656054D01*
X161258815Y-87661185D01*
X161355506Y-87740537D01*
X161465820Y-87799502D01*
X161585518Y-87835812D01*
X161710000Y-87848072D01*
X163410000Y-87848072D01*
X163534482Y-87835812D01*
X163654180Y-87799502D01*
X163764494Y-87740537D01*
X163861185Y-87661185D01*
X163940537Y-87564494D01*
X163999502Y-87454180D01*
X164035812Y-87334482D01*
X164048072Y-87210000D01*
X164048072Y-85510000D01*
X164035812Y-85385518D01*
X163999502Y-85265820D01*
X163940537Y-85155506D01*
X163861185Y-85058815D01*
X163764494Y-84979463D01*
X163654180Y-84920498D01*
X163573534Y-84896034D01*
X163657588Y-84820269D01*
X163831641Y-84586920D01*
X163956825Y-84324099D01*
X164001476Y-84176890D01*
X163880155Y-83947000D01*
X162687000Y-83947000D01*
X162687000Y-83967000D01*
X162433000Y-83967000D01*
X162433000Y-83947000D01*
X162413000Y-83947000D01*
X162413000Y-83693000D01*
X162433000Y-83693000D01*
X162433000Y-82499186D01*
X162687000Y-82499186D01*
X162687000Y-83693000D01*
X163880155Y-83693000D01*
X164001476Y-83463110D01*
X163956825Y-83315901D01*
X163831641Y-83053080D01*
X163657588Y-82819731D01*
X163441355Y-82624822D01*
X163191252Y-82475843D01*
X162916891Y-82378519D01*
X162687000Y-82499186D01*
X162433000Y-82499186D01*
X162203109Y-82378519D01*
X161928748Y-82475843D01*
X161678645Y-82624822D01*
X161462412Y-82819731D01*
X161288359Y-83053080D01*
X161163175Y-83315901D01*
X161118524Y-83463110D01*
X161239844Y-83692998D01*
X161075000Y-83692998D01*
X161075000Y-83747708D01*
X161066423Y-83719433D01*
X160985512Y-83568058D01*
X160876623Y-83435377D01*
X160743942Y-83326488D01*
X160592567Y-83245577D01*
X160428316Y-83195752D01*
X160257500Y-83178928D01*
X159782500Y-83178928D01*
X159611684Y-83195752D01*
X159447433Y-83245577D01*
X159296058Y-83326488D01*
X159242151Y-83370729D01*
X159219942Y-83352502D01*
X159068567Y-83271591D01*
X158904316Y-83221766D01*
X158733500Y-83204942D01*
X158258500Y-83204942D01*
X158087684Y-83221766D01*
X157923433Y-83271591D01*
X157772058Y-83352502D01*
X157639377Y-83461391D01*
X157530488Y-83594072D01*
X157449577Y-83745447D01*
X157399752Y-83909698D01*
X157382928Y-84080514D01*
X157382928Y-84580514D01*
X157399752Y-84751330D01*
X157449577Y-84915581D01*
X157530488Y-85066956D01*
X157639377Y-85199637D01*
X157692232Y-85243014D01*
X157639377Y-85286391D01*
X157530488Y-85419072D01*
X157449577Y-85570447D01*
X157399752Y-85734698D01*
X157382928Y-85905514D01*
X157382928Y-86405514D01*
X157399752Y-86576330D01*
X157449577Y-86740581D01*
X157478394Y-86794495D01*
X157349377Y-86900377D01*
X157240488Y-87033058D01*
X157159577Y-87184433D01*
X157109752Y-87348684D01*
X157092928Y-87519500D01*
X157092928Y-87994500D01*
X157109752Y-88165316D01*
X157159577Y-88329567D01*
X157240488Y-88480942D01*
X157349377Y-88613623D01*
X157433500Y-88682662D01*
X157433500Y-88979343D01*
X148010843Y-98402000D01*
X139445291Y-98402000D01*
X136260291Y-95217000D01*
X137280928Y-95217000D01*
X137293188Y-95341482D01*
X137329498Y-95461180D01*
X137388463Y-95571494D01*
X137467815Y-95668185D01*
X137564506Y-95747537D01*
X137674820Y-95806502D01*
X137794518Y-95842812D01*
X137919000Y-95855072D01*
X138120750Y-95852000D01*
X138279500Y-95693250D01*
X138279500Y-94869000D01*
X137442750Y-94869000D01*
X137284000Y-95027750D01*
X137280928Y-95217000D01*
X136260291Y-95217000D01*
X134609291Y-93566000D01*
X137280928Y-93566000D01*
X137293188Y-93690482D01*
X137329498Y-93810180D01*
X137386328Y-93916500D01*
X137329498Y-94022820D01*
X137293188Y-94142518D01*
X137280928Y-94267000D01*
X137284000Y-94456250D01*
X137442750Y-94615000D01*
X138279500Y-94615000D01*
X138279500Y-94092250D01*
X138329500Y-94042250D01*
X138329500Y-93218000D01*
X137442750Y-93218000D01*
X137284000Y-93376750D01*
X137280928Y-93566000D01*
X134609291Y-93566000D01*
X133254271Y-92210980D01*
X133336000Y-92129250D01*
X133336000Y-90780000D01*
X132236750Y-90780000D01*
X132078000Y-90938750D01*
X132077589Y-91034298D01*
X130391400Y-89348109D01*
X130512623Y-89248623D01*
X130556000Y-89195768D01*
X130599377Y-89248623D01*
X130732058Y-89357512D01*
X130883433Y-89438423D01*
X131047684Y-89488248D01*
X131218500Y-89505072D01*
X131718500Y-89505072D01*
X131889316Y-89488248D01*
X132053567Y-89438423D01*
X132129317Y-89397934D01*
X132123498Y-89408820D01*
X132087188Y-89528518D01*
X132074928Y-89653000D01*
X132078000Y-90367250D01*
X132236750Y-90526000D01*
X133336000Y-90526000D01*
X133336000Y-90506000D01*
X133590000Y-90506000D01*
X133590000Y-90526000D01*
X133610000Y-90526000D01*
X133610000Y-90780000D01*
X133590000Y-90780000D01*
X133590000Y-92129250D01*
X133748750Y-92288000D01*
X134213000Y-92291072D01*
X134337482Y-92278812D01*
X134457180Y-92242502D01*
X134567494Y-92183537D01*
X134613000Y-92146191D01*
X134658506Y-92183537D01*
X134768820Y-92242502D01*
X134888518Y-92278812D01*
X135013000Y-92291072D01*
X136513000Y-92291072D01*
X136637482Y-92278812D01*
X136757180Y-92242502D01*
X136867494Y-92183537D01*
X136913000Y-92146191D01*
X136958506Y-92183537D01*
X137068820Y-92242502D01*
X137188518Y-92278812D01*
X137313000Y-92291072D01*
X137372659Y-92291072D01*
X137329498Y-92371820D01*
X137293188Y-92491518D01*
X137280928Y-92616000D01*
X137284000Y-92805250D01*
X137442750Y-92964000D01*
X138329500Y-92964000D01*
X138329500Y-92944000D01*
X138583500Y-92944000D01*
X138583500Y-92964000D01*
X138603500Y-92964000D01*
X138603500Y-93218000D01*
X138583500Y-93218000D01*
X138583500Y-93740750D01*
X138533500Y-93790750D01*
X138533500Y-94615000D01*
X138553500Y-94615000D01*
X138553500Y-94869000D01*
X138533500Y-94869000D01*
X138533500Y-95693250D01*
X138692250Y-95852000D01*
X138894000Y-95855072D01*
X139018482Y-95842812D01*
X139138180Y-95806502D01*
X139248494Y-95747537D01*
X139345185Y-95668185D01*
X139386217Y-95618188D01*
X139495058Y-95707512D01*
X139646433Y-95788423D01*
X139810684Y-95838248D01*
X139981500Y-95855072D01*
X140481500Y-95855072D01*
X140652316Y-95838248D01*
X140816567Y-95788423D01*
X140837003Y-95777500D01*
X140971639Y-95777500D01*
X140974000Y-95801469D01*
X140974000Y-95801477D01*
X140979279Y-95855072D01*
X140986805Y-95931490D01*
X141037412Y-96098313D01*
X141119590Y-96252059D01*
X141202468Y-96353046D01*
X141202471Y-96353049D01*
X141230184Y-96386817D01*
X141263951Y-96414529D01*
X142599470Y-97750049D01*
X142627183Y-97783817D01*
X142660951Y-97811530D01*
X142660953Y-97811532D01*
X142732452Y-97870210D01*
X142761941Y-97894411D01*
X142915687Y-97976589D01*
X143082510Y-98027195D01*
X143212523Y-98040000D01*
X143212533Y-98040000D01*
X143255999Y-98044281D01*
X143299465Y-98040000D01*
X147949531Y-98040000D01*
X147993000Y-98044281D01*
X148036469Y-98040000D01*
X148036477Y-98040000D01*
X148166490Y-98027195D01*
X148333313Y-97976589D01*
X148487059Y-97894411D01*
X148621817Y-97783817D01*
X148649534Y-97750044D01*
X149820050Y-96579529D01*
X149853817Y-96551817D01*
X149898468Y-96497411D01*
X149940210Y-96446548D01*
X149964411Y-96417059D01*
X150046589Y-96263313D01*
X150097195Y-96096490D01*
X150110000Y-95966477D01*
X150110000Y-95966467D01*
X150114281Y-95923001D01*
X150110000Y-95879535D01*
X150110000Y-95675603D01*
X150114502Y-95667180D01*
X150150812Y-95547482D01*
X150163072Y-95423000D01*
X150163072Y-93873000D01*
X150150812Y-93748518D01*
X150138218Y-93707000D01*
X150159502Y-93667180D01*
X150195812Y-93547482D01*
X150208072Y-93423000D01*
X150205000Y-92233750D01*
X150046250Y-92075000D01*
X149569906Y-92075000D01*
X149574936Y-91982541D01*
X149540395Y-91948000D01*
X149574936Y-91913459D01*
X149569906Y-91821000D01*
X150046250Y-91821000D01*
X150205000Y-91662250D01*
X150208072Y-90473000D01*
X150195812Y-90348518D01*
X150159502Y-90228820D01*
X150138218Y-90189000D01*
X150150812Y-90147482D01*
X150163072Y-90023000D01*
X150163072Y-88473000D01*
X150150812Y-88348518D01*
X150114502Y-88228820D01*
X150055537Y-88118506D01*
X149976185Y-88021815D01*
X149879494Y-87942463D01*
X149769180Y-87883498D01*
X149649482Y-87847188D01*
X149611950Y-87843492D01*
X149609000Y-87661750D01*
X149450250Y-87503000D01*
X148563500Y-87503000D01*
X148563500Y-87523000D01*
X148309500Y-87523000D01*
X148309500Y-87503000D01*
X148289500Y-87503000D01*
X148289500Y-87249000D01*
X148309500Y-87249000D01*
X148309500Y-86424750D01*
X148563500Y-86424750D01*
X148563500Y-87249000D01*
X149450250Y-87249000D01*
X149609000Y-87090250D01*
X149612072Y-86901000D01*
X149599812Y-86776518D01*
X149563502Y-86656820D01*
X149504537Y-86546506D01*
X149425185Y-86449815D01*
X149328494Y-86370463D01*
X149218180Y-86311498D01*
X149098482Y-86275188D01*
X148974000Y-86262928D01*
X148722250Y-86266000D01*
X148563500Y-86424750D01*
X148309500Y-86424750D01*
X148150750Y-86266000D01*
X147899000Y-86262928D01*
X147774518Y-86275188D01*
X147654820Y-86311498D01*
X147596500Y-86342671D01*
X147596500Y-84966954D01*
X147628705Y-84918756D01*
X147706726Y-84730398D01*
X147746500Y-84530439D01*
X147746500Y-84326561D01*
X147706726Y-84126602D01*
X147628705Y-83938244D01*
X147596500Y-83890046D01*
X147596500Y-83696954D01*
X147628705Y-83648756D01*
X147706726Y-83460398D01*
X147746500Y-83260439D01*
X147746500Y-83056561D01*
X147718591Y-82916254D01*
X147748898Y-82910226D01*
X147937256Y-82832205D01*
X147985454Y-82800000D01*
X148305546Y-82800000D01*
X148353744Y-82832205D01*
X148542102Y-82910226D01*
X148742061Y-82950000D01*
X148945939Y-82950000D01*
X149145898Y-82910226D01*
X149334256Y-82832205D01*
X149503774Y-82718937D01*
X149647937Y-82574774D01*
X149761205Y-82405256D01*
X149839226Y-82216898D01*
X149879000Y-82016939D01*
X149879000Y-81813061D01*
X149839226Y-81613102D01*
X149761205Y-81424744D01*
X149647937Y-81255226D01*
X149503774Y-81111063D01*
X149334256Y-80997795D01*
X149145898Y-80919774D01*
X148945939Y-80880000D01*
X148742061Y-80880000D01*
X148542102Y-80919774D01*
X148353744Y-80997795D01*
X148305546Y-81030000D01*
X147985454Y-81030000D01*
X147937256Y-80997795D01*
X147748898Y-80919774D01*
X147548939Y-80880000D01*
X147345061Y-80880000D01*
X147145102Y-80919774D01*
X146956744Y-80997795D01*
X146787226Y-81111063D01*
X146643063Y-81255226D01*
X146529795Y-81424744D01*
X146471895Y-81564527D01*
X146116451Y-81919971D01*
X146082684Y-81947683D01*
X146054971Y-81981451D01*
X146054968Y-81981454D01*
X146014678Y-82030548D01*
X145972090Y-82082441D01*
X145889911Y-82236187D01*
X145839305Y-82403010D01*
X145826500Y-82533023D01*
X145826500Y-82533031D01*
X145822219Y-82576500D01*
X145826500Y-82619969D01*
X145826500Y-82620046D01*
X145794295Y-82668244D01*
X145716274Y-82856602D01*
X145676500Y-83056561D01*
X145676500Y-83260439D01*
X145716274Y-83460398D01*
X145794295Y-83648756D01*
X145826501Y-83696955D01*
X145826500Y-83890045D01*
X145794295Y-83938244D01*
X145716274Y-84126602D01*
X145676500Y-84326561D01*
X145676500Y-84530439D01*
X145716274Y-84730398D01*
X145794295Y-84918756D01*
X145826501Y-84966956D01*
X145826500Y-86491373D01*
X145792377Y-86519377D01*
X145683488Y-86652058D01*
X145602577Y-86803433D01*
X145552752Y-86967684D01*
X145535928Y-87138500D01*
X145535928Y-87613500D01*
X145552752Y-87784316D01*
X145568105Y-87834928D01*
X145115000Y-87834928D01*
X144990518Y-87847188D01*
X144870820Y-87883498D01*
X144760506Y-87942463D01*
X144663815Y-88021815D01*
X144584463Y-88118506D01*
X144525498Y-88228820D01*
X144489188Y-88348518D01*
X144487762Y-88363000D01*
X144286072Y-88363000D01*
X144286072Y-86348000D01*
X144273812Y-86223518D01*
X144237502Y-86103820D01*
X144178537Y-85993506D01*
X144099185Y-85896815D01*
X144002494Y-85817463D01*
X143892180Y-85758498D01*
X143772482Y-85722188D01*
X143648000Y-85709928D01*
X141848000Y-85709928D01*
X141723518Y-85722188D01*
X141603820Y-85758498D01*
X141493506Y-85817463D01*
X141396815Y-85896815D01*
X141317463Y-85993506D01*
X141258498Y-86103820D01*
X141222188Y-86223518D01*
X141209928Y-86348000D01*
X141209928Y-88511608D01*
X141134185Y-88419315D01*
X141037494Y-88339963D01*
X140927180Y-88280998D01*
X140807482Y-88244688D01*
X140683000Y-88232428D01*
X140493750Y-88235500D01*
X140335000Y-88394250D01*
X140335000Y-89281000D01*
X140355000Y-89281000D01*
X140355000Y-89535000D01*
X140335000Y-89535000D01*
X140335000Y-89555000D01*
X140081000Y-89555000D01*
X140081000Y-89535000D01*
X140061000Y-89535000D01*
X140061000Y-89281000D01*
X140081000Y-89281000D01*
X140081000Y-88394250D01*
X139922250Y-88235500D01*
X139733000Y-88232428D01*
X139608518Y-88244688D01*
X139488820Y-88280998D01*
X139378506Y-88339963D01*
X139281815Y-88419315D01*
X139202463Y-88516006D01*
X139143498Y-88626320D01*
X139107188Y-88746018D01*
X139094928Y-88870500D01*
X139097546Y-89085075D01*
X139057180Y-89063498D01*
X138937482Y-89027188D01*
X138848000Y-89018375D01*
X138848000Y-86925157D01*
X140862817Y-84910341D01*
X140892764Y-84885764D01*
X140919814Y-84852805D01*
X140923757Y-84848000D01*
X141209928Y-84848000D01*
X141222188Y-84972482D01*
X141258498Y-85092180D01*
X141317463Y-85202494D01*
X141396815Y-85299185D01*
X141493506Y-85378537D01*
X141603820Y-85437502D01*
X141723518Y-85473812D01*
X141848000Y-85486072D01*
X142462250Y-85483000D01*
X142621000Y-85324250D01*
X142621000Y-83225000D01*
X142875000Y-83225000D01*
X142875000Y-85324250D01*
X143033750Y-85483000D01*
X143648000Y-85486072D01*
X143772482Y-85473812D01*
X143892180Y-85437502D01*
X144002494Y-85378537D01*
X144099185Y-85299185D01*
X144178537Y-85202494D01*
X144237502Y-85092180D01*
X144273812Y-84972482D01*
X144286072Y-84848000D01*
X144283000Y-83383750D01*
X144124250Y-83225000D01*
X142875000Y-83225000D01*
X142621000Y-83225000D01*
X141371750Y-83225000D01*
X141213000Y-83383750D01*
X141209928Y-84848000D01*
X140923757Y-84848000D01*
X140951446Y-84814261D01*
X140990862Y-84766233D01*
X141063754Y-84629860D01*
X141108641Y-84481887D01*
X141120000Y-84366561D01*
X141120000Y-84366554D01*
X141123797Y-84328001D01*
X141120000Y-84289448D01*
X141120000Y-81348000D01*
X141209928Y-81348000D01*
X141213000Y-82812250D01*
X141371750Y-82971000D01*
X142621000Y-82971000D01*
X142621000Y-80871750D01*
X142875000Y-80871750D01*
X142875000Y-82971000D01*
X144124250Y-82971000D01*
X144283000Y-82812250D01*
X144286072Y-81348000D01*
X144273812Y-81223518D01*
X144237502Y-81103820D01*
X144178537Y-80993506D01*
X144099185Y-80896815D01*
X144002494Y-80817463D01*
X143892180Y-80758498D01*
X143772482Y-80722188D01*
X143648000Y-80709928D01*
X143033750Y-80713000D01*
X142875000Y-80871750D01*
X142621000Y-80871750D01*
X142462250Y-80713000D01*
X141848000Y-80709928D01*
X141723518Y-80722188D01*
X141603820Y-80758498D01*
X141493506Y-80817463D01*
X141396815Y-80896815D01*
X141317463Y-80993506D01*
X141258498Y-81103820D01*
X141222188Y-81223518D01*
X141209928Y-81348000D01*
X141120000Y-81348000D01*
X141120000Y-78577375D01*
X141123797Y-78538822D01*
X141120000Y-78500269D01*
X141120000Y-78500262D01*
X141108641Y-78384936D01*
X141063754Y-78236963D01*
X140990862Y-78100590D01*
X140892764Y-77981059D01*
X140862816Y-77956481D01*
X140175344Y-77269010D01*
X140945308Y-76499046D01*
X140993427Y-76589068D01*
X141072779Y-76685759D01*
X141169470Y-76765111D01*
X141279784Y-76824076D01*
X141399482Y-76860386D01*
X141523964Y-76872646D01*
X141763214Y-76869574D01*
X141921964Y-76710824D01*
X141921964Y-75886574D01*
X141901964Y-75886574D01*
X141901964Y-75632574D01*
X141921964Y-75632574D01*
X141921964Y-75612574D01*
X142175964Y-75612574D01*
X142175964Y-75632574D01*
X142195964Y-75632574D01*
X142195964Y-75886574D01*
X142175964Y-75886574D01*
X142175964Y-76710824D01*
X142334714Y-76869574D01*
X142573964Y-76872646D01*
X142698446Y-76860386D01*
X142818144Y-76824076D01*
X142928458Y-76765111D01*
X143001125Y-76705475D01*
X143025022Y-76725086D01*
X143176397Y-76805997D01*
X143340648Y-76855822D01*
X143511464Y-76872646D01*
X144086464Y-76872646D01*
X144257280Y-76855822D01*
X144421531Y-76805997D01*
X144572906Y-76725086D01*
X144705587Y-76616197D01*
X144814476Y-76483516D01*
X144895387Y-76332141D01*
X144945212Y-76167890D01*
X144962036Y-75997074D01*
X144962036Y-75796735D01*
X157178151Y-75796735D01*
X157291987Y-76698539D01*
X157579570Y-77560806D01*
X157990115Y-78290352D01*
X158559435Y-78743846D01*
X163047759Y-74255522D01*
X159860122Y-71067885D01*
X158445908Y-72482098D01*
X157888732Y-73200264D01*
X157482368Y-74013330D01*
X157242435Y-74890051D01*
X157178151Y-75796735D01*
X144962036Y-75796735D01*
X144962036Y-75522074D01*
X144945212Y-75351258D01*
X144895387Y-75187007D01*
X144817427Y-75041154D01*
X144895387Y-74895300D01*
X144945212Y-74731049D01*
X144962036Y-74560233D01*
X144962036Y-74085233D01*
X144945212Y-73914417D01*
X144895387Y-73750166D01*
X144814476Y-73598791D01*
X144705587Y-73466110D01*
X144572906Y-73357221D01*
X144421531Y-73276310D01*
X144257280Y-73226485D01*
X144086464Y-73209661D01*
X143586464Y-73209661D01*
X143415648Y-73226485D01*
X143279000Y-73267937D01*
X143279000Y-73116072D01*
X143344000Y-73116072D01*
X143468482Y-73103812D01*
X143588180Y-73067502D01*
X143698494Y-73008537D01*
X143795185Y-72929185D01*
X143874537Y-72832494D01*
X143933502Y-72722180D01*
X143969812Y-72602482D01*
X143982072Y-72478000D01*
X143982072Y-71112343D01*
X144035744Y-71148205D01*
X144224102Y-71226226D01*
X144424061Y-71266000D01*
X144627939Y-71266000D01*
X144827898Y-71226226D01*
X145016256Y-71148205D01*
X145185774Y-71034937D01*
X145329937Y-70890774D01*
X145443205Y-70721256D01*
X145521226Y-70532898D01*
X145561000Y-70332939D01*
X145561000Y-70129061D01*
X145521226Y-69929102D01*
X145443205Y-69740744D01*
X145329937Y-69571226D01*
X145185774Y-69427063D01*
X145016256Y-69313795D01*
X144827898Y-69235774D01*
X144771044Y-69224465D01*
X141738072Y-66191494D01*
X141738072Y-66056500D01*
X141721248Y-65885684D01*
X141671423Y-65721433D01*
X141615827Y-65617419D01*
X141630537Y-65599494D01*
X141689502Y-65489180D01*
X141725812Y-65369482D01*
X141738072Y-65245000D01*
X141735000Y-65055750D01*
X141576250Y-64897000D01*
X140702000Y-64897000D01*
X140702000Y-64917000D01*
X140448000Y-64917000D01*
X140448000Y-64897000D01*
X140428000Y-64897000D01*
X140428000Y-64643000D01*
X140448000Y-64643000D01*
X140448000Y-64623000D01*
X140702000Y-64623000D01*
X140702000Y-64643000D01*
X141576250Y-64643000D01*
X141735000Y-64484250D01*
X141738072Y-64295000D01*
X141725812Y-64170518D01*
X141689502Y-64050820D01*
X141630537Y-63940506D01*
X141551185Y-63843815D01*
X141454494Y-63764463D01*
X141367704Y-63718072D01*
X141820000Y-63718072D01*
X141944482Y-63705812D01*
X142064180Y-63669502D01*
X142174494Y-63610537D01*
X142271185Y-63531185D01*
X142350537Y-63434494D01*
X142409502Y-63324180D01*
X142445812Y-63204482D01*
X142458072Y-63080000D01*
X142458072Y-61380000D01*
X142445812Y-61255518D01*
X142409502Y-61135820D01*
X142350537Y-61025506D01*
X142271185Y-60928815D01*
X142174494Y-60849463D01*
X142064180Y-60790498D01*
X141944482Y-60754188D01*
X141820000Y-60741928D01*
X140120000Y-60741928D01*
X139995518Y-60754188D01*
X139875820Y-60790498D01*
X139765506Y-60849463D01*
X139668815Y-60928815D01*
X139589463Y-61025506D01*
X139530498Y-61135820D01*
X139506034Y-61216466D01*
X139430269Y-61132412D01*
X139196920Y-60958359D01*
X138934099Y-60833175D01*
X138786890Y-60788524D01*
X138557000Y-60909845D01*
X138557000Y-62103000D01*
X138577000Y-62103000D01*
X138577000Y-62357000D01*
X138557000Y-62357000D01*
X138557000Y-62377000D01*
X138303000Y-62377000D01*
X138303000Y-62357000D01*
X137109186Y-62357000D01*
X136988519Y-62586891D01*
X137085843Y-62861252D01*
X137234822Y-63111355D01*
X137429731Y-63327588D01*
X137452082Y-63344260D01*
X137175414Y-63620928D01*
X136922500Y-63620928D01*
X136751684Y-63637752D01*
X136587433Y-63687577D01*
X136436058Y-63768488D01*
X136303377Y-63877377D01*
X136194488Y-64010058D01*
X136113577Y-64161433D01*
X136063752Y-64325684D01*
X136046928Y-64496500D01*
X136046928Y-64996500D01*
X136063752Y-65167316D01*
X136113577Y-65331567D01*
X136194488Y-65482942D01*
X136303377Y-65615623D01*
X136356232Y-65659000D01*
X136303377Y-65702377D01*
X136194488Y-65835058D01*
X136113577Y-65986433D01*
X136063752Y-66150684D01*
X136046928Y-66321500D01*
X136046928Y-66574414D01*
X130254343Y-72367000D01*
X129531474Y-72367000D01*
X129423475Y-72205368D01*
X129216632Y-71998525D01*
X128973411Y-71836010D01*
X128703158Y-71724068D01*
X128416260Y-71667000D01*
X128123740Y-71667000D01*
X127836842Y-71724068D01*
X127566589Y-71836010D01*
X127323368Y-71998525D01*
X127116525Y-72205368D01*
X126998900Y-72381406D01*
X126827588Y-72151731D01*
X126611355Y-71956822D01*
X126361252Y-71807843D01*
X126086891Y-71710519D01*
X125857000Y-71831186D01*
X125857000Y-73025000D01*
X125877000Y-73025000D01*
X125877000Y-73279000D01*
X125857000Y-73279000D01*
X125857000Y-73299000D01*
X125603000Y-73299000D01*
X125603000Y-73279000D01*
X124409845Y-73279000D01*
X124288524Y-73508890D01*
X124333175Y-73656099D01*
X124458359Y-73918920D01*
X124632412Y-74152269D01*
X124848645Y-74347178D01*
X124965534Y-74416805D01*
X124783368Y-74538525D01*
X124576525Y-74745368D01*
X124414010Y-74988589D01*
X124302068Y-75258842D01*
X124245000Y-75545740D01*
X124245000Y-75838260D01*
X124302068Y-76125158D01*
X124414010Y-76395411D01*
X124576525Y-76638632D01*
X124783368Y-76845475D01*
X124957760Y-76962000D01*
X124783368Y-77078525D01*
X124576525Y-77285368D01*
X124414010Y-77528589D01*
X124302068Y-77798842D01*
X124245000Y-78085740D01*
X124245000Y-78378260D01*
X124282925Y-78568918D01*
X121288690Y-81563153D01*
X121258736Y-81587736D01*
X121217438Y-81638057D01*
X121080058Y-81711488D01*
X120947377Y-81820377D01*
X120904000Y-81873232D01*
X120860623Y-81820377D01*
X120727942Y-81711488D01*
X120576567Y-81630577D01*
X120412316Y-81580752D01*
X120241500Y-81563928D01*
X119741500Y-81563928D01*
X119570684Y-81580752D01*
X119406433Y-81630577D01*
X119255058Y-81711488D01*
X119122377Y-81820377D01*
X119013488Y-81953058D01*
X118932577Y-82104433D01*
X118882752Y-82268684D01*
X118865928Y-82439500D01*
X118865928Y-82842914D01*
X118707815Y-83001027D01*
X118572588Y-82819731D01*
X118356355Y-82624822D01*
X118106252Y-82475843D01*
X117831891Y-82378519D01*
X117602000Y-82499186D01*
X117602000Y-83693000D01*
X117622000Y-83693000D01*
X117622000Y-83947000D01*
X117602000Y-83947000D01*
X117602000Y-83967000D01*
X117348000Y-83967000D01*
X117348000Y-83947000D01*
X116154845Y-83947000D01*
X116033524Y-84176890D01*
X116078175Y-84324099D01*
X116203359Y-84586920D01*
X116377412Y-84820269D01*
X116461466Y-84896034D01*
X116380820Y-84920498D01*
X116270506Y-84979463D01*
X116173815Y-85058815D01*
X116094463Y-85155506D01*
X116035498Y-85265820D01*
X115999188Y-85385518D01*
X115986928Y-85510000D01*
X115986928Y-87210000D01*
X115999188Y-87334482D01*
X116035498Y-87454180D01*
X116094463Y-87564494D01*
X116173815Y-87661185D01*
X116270506Y-87740537D01*
X116380820Y-87799502D01*
X116500518Y-87835812D01*
X116625000Y-87848072D01*
X118325000Y-87848072D01*
X118449482Y-87835812D01*
X118569180Y-87799502D01*
X118679494Y-87740537D01*
X118776185Y-87661185D01*
X118855537Y-87564494D01*
X118914502Y-87454180D01*
X118950812Y-87334482D01*
X118963072Y-87210000D01*
X118963072Y-85982086D01*
X119061104Y-85884054D01*
X119061104Y-86294215D01*
X119077928Y-86465031D01*
X119127753Y-86629282D01*
X119208664Y-86780657D01*
X119317553Y-86913338D01*
X119450234Y-87022227D01*
X119601609Y-87103138D01*
X119765860Y-87152963D01*
X119936676Y-87169787D01*
X120411676Y-87169787D01*
X120582492Y-87152963D01*
X120746743Y-87103138D01*
X120898118Y-87022227D01*
X120982399Y-86953059D01*
X121066680Y-87022227D01*
X121218055Y-87103138D01*
X121382306Y-87152963D01*
X121553122Y-87169787D01*
X122028122Y-87169787D01*
X122198938Y-87152963D01*
X122363189Y-87103138D01*
X122514564Y-87022227D01*
X122647245Y-86913338D01*
X122756134Y-86780657D01*
X122837045Y-86629282D01*
X122886870Y-86465031D01*
X122903694Y-86294215D01*
X122903694Y-85801273D01*
X123194000Y-86091579D01*
X123194001Y-88221521D01*
X123189719Y-88265000D01*
X123206805Y-88438490D01*
X123257412Y-88605313D01*
X123339590Y-88759059D01*
X123422468Y-88860046D01*
X123422471Y-88860049D01*
X123450184Y-88893817D01*
X123483951Y-88921529D01*
X125104465Y-90542044D01*
X125115774Y-90598898D01*
X125193795Y-90787256D01*
X125307063Y-90956774D01*
X125451226Y-91100937D01*
X125620744Y-91214205D01*
X125809102Y-91292226D01*
X126009061Y-91332000D01*
X126212939Y-91332000D01*
X126412898Y-91292226D01*
X126601256Y-91214205D01*
X126770774Y-91100937D01*
X126914937Y-90956774D01*
X127028205Y-90787256D01*
X127106226Y-90598898D01*
X127146000Y-90398939D01*
X127146000Y-90195061D01*
X127106226Y-89995102D01*
X127028205Y-89806744D01*
X126914937Y-89637226D01*
X126770774Y-89493063D01*
X126601256Y-89379795D01*
X126412898Y-89301774D01*
X126356044Y-89290465D01*
X124964000Y-87898422D01*
X124964000Y-85768469D01*
X124968281Y-85725000D01*
X124964000Y-85681531D01*
X124964000Y-85681523D01*
X124951195Y-85551510D01*
X124931344Y-85486072D01*
X124900589Y-85384686D01*
X124818411Y-85230941D01*
X124735532Y-85129953D01*
X124735530Y-85129951D01*
X124707817Y-85096183D01*
X124674050Y-85068471D01*
X123229749Y-83624171D01*
X123202032Y-83590398D01*
X123067274Y-83479804D01*
X122913528Y-83397626D01*
X122812642Y-83367022D01*
X122875423Y-83249567D01*
X122925248Y-83085316D01*
X122942072Y-82914500D01*
X122942072Y-82439500D01*
X122925248Y-82268684D01*
X122896906Y-82175251D01*
X124245000Y-80827157D01*
X124245000Y-80918260D01*
X124302068Y-81205158D01*
X124414010Y-81475411D01*
X124576525Y-81718632D01*
X124783368Y-81925475D01*
X124957760Y-82042000D01*
X124783368Y-82158525D01*
X124576525Y-82365368D01*
X124414010Y-82608589D01*
X124302068Y-82878842D01*
X124245000Y-83165740D01*
X124245000Y-83458260D01*
X124302068Y-83745158D01*
X124414010Y-84015411D01*
X124576525Y-84258632D01*
X124783368Y-84465475D01*
X125026589Y-84627990D01*
X125296842Y-84739932D01*
X125583740Y-84797000D01*
X125876260Y-84797000D01*
X126163158Y-84739932D01*
X126215001Y-84718458D01*
X126215001Y-88480437D01*
X126211203Y-88519000D01*
X126226359Y-88672886D01*
X126271246Y-88820859D01*
X126292192Y-88860046D01*
X126344139Y-88957233D01*
X126378141Y-88998664D01*
X126417655Y-89046812D01*
X126417659Y-89046816D01*
X126442237Y-89076764D01*
X126472185Y-89101342D01*
X137847658Y-100476816D01*
X137872236Y-100506764D01*
X137902184Y-100531342D01*
X137902187Y-100531345D01*
X137931559Y-100555450D01*
X137991767Y-100604862D01*
X138128140Y-100677754D01*
X138276113Y-100722641D01*
X138391439Y-100734000D01*
X138391446Y-100734000D01*
X138422376Y-100737046D01*
X138274452Y-100884970D01*
X138240684Y-100912683D01*
X138212971Y-100946451D01*
X138212968Y-100946454D01*
X138130090Y-101047441D01*
X138047912Y-101201187D01*
X137997305Y-101368010D01*
X137980219Y-101541500D01*
X137984501Y-101584979D01*
X137984500Y-102921723D01*
X137891488Y-103035058D01*
X137810577Y-103186433D01*
X137760752Y-103350684D01*
X137743928Y-103521500D01*
X137743928Y-103996500D01*
X137760752Y-104167316D01*
X137810577Y-104331567D01*
X137866173Y-104435581D01*
X137851463Y-104453506D01*
X137792498Y-104563820D01*
X137756188Y-104683518D01*
X137743928Y-104808000D01*
X137747000Y-104997250D01*
X137905750Y-105156000D01*
X138780000Y-105156000D01*
X138780000Y-105136000D01*
X139034000Y-105136000D01*
X139034000Y-105156000D01*
X139054000Y-105156000D01*
X139054000Y-105410000D01*
X139034000Y-105410000D01*
X139034000Y-106234250D01*
X139192750Y-106393000D01*
X139432000Y-106396072D01*
X139556482Y-106383812D01*
X139676180Y-106347502D01*
X139786494Y-106288537D01*
X139859161Y-106228901D01*
X139883058Y-106248512D01*
X140034433Y-106329423D01*
X140198684Y-106379248D01*
X140369500Y-106396072D01*
X140944500Y-106396072D01*
X141115316Y-106379248D01*
X141279567Y-106329423D01*
X141335101Y-106299740D01*
X141401488Y-106423942D01*
X141432662Y-106461928D01*
X140222200Y-106461928D01*
X140097718Y-106474188D01*
X139978020Y-106510498D01*
X139867706Y-106569463D01*
X139771015Y-106648815D01*
X139691663Y-106745506D01*
X139632698Y-106855820D01*
X139608234Y-106936466D01*
X139532469Y-106852412D01*
X139299120Y-106678359D01*
X139036299Y-106553175D01*
X138889090Y-106508524D01*
X138659200Y-106629845D01*
X138659200Y-107823000D01*
X138679200Y-107823000D01*
X138679200Y-108077000D01*
X138659200Y-108077000D01*
X138659200Y-108097000D01*
X138405200Y-108097000D01*
X138405200Y-108077000D01*
X137211386Y-108077000D01*
X137090719Y-108306891D01*
X137188043Y-108581252D01*
X137337022Y-108831355D01*
X137531931Y-109047588D01*
X137765280Y-109221641D01*
X138013772Y-109340000D01*
X120029392Y-109340000D01*
X119366439Y-109280833D01*
X117632607Y-107547001D01*
X117727573Y-107452035D01*
X118045757Y-107905850D01*
X118650210Y-108231269D01*
X119306535Y-108432512D01*
X119989510Y-108501845D01*
X120672888Y-108436605D01*
X121330407Y-108239298D01*
X121936799Y-107917506D01*
X121954243Y-107905850D01*
X122173515Y-107593109D01*
X137090719Y-107593109D01*
X137211386Y-107823000D01*
X138405200Y-107823000D01*
X138405200Y-106629845D01*
X138175310Y-106508524D01*
X138028101Y-106553175D01*
X137765280Y-106678359D01*
X137531931Y-106852412D01*
X137337022Y-107068645D01*
X137188043Y-107318748D01*
X137090719Y-107593109D01*
X122173515Y-107593109D01*
X122272428Y-107452033D01*
X120000000Y-105179605D01*
X119985858Y-105193748D01*
X119806253Y-105014143D01*
X119820395Y-105000000D01*
X120179605Y-105000000D01*
X122452033Y-107272428D01*
X122905850Y-106954243D01*
X123231269Y-106349790D01*
X123412724Y-105758000D01*
X137743928Y-105758000D01*
X137756188Y-105882482D01*
X137792498Y-106002180D01*
X137851463Y-106112494D01*
X137930815Y-106209185D01*
X138027506Y-106288537D01*
X138137820Y-106347502D01*
X138257518Y-106383812D01*
X138382000Y-106396072D01*
X138621250Y-106393000D01*
X138780000Y-106234250D01*
X138780000Y-105410000D01*
X137905750Y-105410000D01*
X137747000Y-105568750D01*
X137743928Y-105758000D01*
X123412724Y-105758000D01*
X123432512Y-105693465D01*
X123501845Y-105010490D01*
X123436605Y-104327112D01*
X123239298Y-103669593D01*
X122917506Y-103063201D01*
X122905850Y-103045757D01*
X122452033Y-102727572D01*
X120179605Y-105000000D01*
X119820395Y-105000000D01*
X117547967Y-102727572D01*
X117094150Y-103045757D01*
X116768731Y-103650210D01*
X116567488Y-104306535D01*
X116498155Y-104989510D01*
X116563395Y-105672888D01*
X116760702Y-106330407D01*
X117082494Y-106936799D01*
X117094150Y-106954243D01*
X117547965Y-107272427D01*
X117452999Y-107367393D01*
X115707443Y-105621837D01*
X115660000Y-104975793D01*
X115660000Y-102547967D01*
X117727572Y-102547967D01*
X120000000Y-104820395D01*
X122272428Y-102547967D01*
X121954243Y-102094150D01*
X121349790Y-101768731D01*
X120693465Y-101567488D01*
X120010490Y-101498155D01*
X119327112Y-101563395D01*
X118669593Y-101760702D01*
X118063201Y-102082494D01*
X118045757Y-102094150D01*
X117727572Y-102547967D01*
X115660000Y-102547967D01*
X115660000Y-90068061D01*
X115805000Y-90068061D01*
X115805000Y-90271939D01*
X115844774Y-90471898D01*
X115922795Y-90660256D01*
X116019510Y-90805000D01*
X115922795Y-90949744D01*
X115844774Y-91138102D01*
X115805000Y-91338061D01*
X115805000Y-91541939D01*
X115844774Y-91741898D01*
X115922795Y-91930256D01*
X116019510Y-92075000D01*
X115922795Y-92219744D01*
X115844774Y-92408102D01*
X115805000Y-92608061D01*
X115805000Y-92811939D01*
X115844774Y-93011898D01*
X115922795Y-93200256D01*
X116019510Y-93345000D01*
X115922795Y-93489744D01*
X115844774Y-93678102D01*
X115805000Y-93878061D01*
X115805000Y-94081939D01*
X115844774Y-94281898D01*
X115922795Y-94470256D01*
X116019510Y-94615000D01*
X115922795Y-94759744D01*
X115844774Y-94948102D01*
X115805000Y-95148061D01*
X115805000Y-95351939D01*
X115844774Y-95551898D01*
X115922795Y-95740256D01*
X116019510Y-95885000D01*
X115922795Y-96029744D01*
X115844774Y-96218102D01*
X115805000Y-96418061D01*
X115805000Y-96621939D01*
X115844774Y-96821898D01*
X115922795Y-97010256D01*
X116036063Y-97179774D01*
X116180226Y-97323937D01*
X116349744Y-97437205D01*
X116538102Y-97515226D01*
X116738061Y-97555000D01*
X116941939Y-97555000D01*
X117141898Y-97515226D01*
X117330256Y-97437205D01*
X117475000Y-97340490D01*
X117619744Y-97437205D01*
X117808102Y-97515226D01*
X118008061Y-97555000D01*
X118211939Y-97555000D01*
X118411898Y-97515226D01*
X118600256Y-97437205D01*
X118745000Y-97340490D01*
X118889744Y-97437205D01*
X119078102Y-97515226D01*
X119278061Y-97555000D01*
X119481939Y-97555000D01*
X119681898Y-97515226D01*
X119870256Y-97437205D01*
X120039774Y-97323937D01*
X120183937Y-97179774D01*
X120297205Y-97010256D01*
X120375226Y-96821898D01*
X120415000Y-96621939D01*
X120415000Y-96418061D01*
X120381961Y-96251961D01*
X120548061Y-96285000D01*
X120751939Y-96285000D01*
X120951898Y-96245226D01*
X121140256Y-96167205D01*
X121309774Y-96053937D01*
X121453937Y-95909774D01*
X121567205Y-95740256D01*
X121645226Y-95551898D01*
X121685000Y-95351939D01*
X121685000Y-95148061D01*
X121651961Y-94981961D01*
X121818061Y-95015000D01*
X122021939Y-95015000D01*
X122221898Y-94975226D01*
X122410256Y-94897205D01*
X122579774Y-94783937D01*
X122723937Y-94639774D01*
X122837205Y-94470256D01*
X122915226Y-94281898D01*
X122955000Y-94081939D01*
X122955000Y-93878061D01*
X122915226Y-93678102D01*
X122837205Y-93489744D01*
X122740490Y-93345000D01*
X122837205Y-93200256D01*
X122915226Y-93011898D01*
X122955000Y-92811939D01*
X122955000Y-92608061D01*
X122915226Y-92408102D01*
X122837205Y-92219744D01*
X122740490Y-92075000D01*
X122837205Y-91930256D01*
X122915226Y-91741898D01*
X122955000Y-91541939D01*
X122955000Y-91338061D01*
X122915226Y-91138102D01*
X122837205Y-90949744D01*
X122723937Y-90780226D01*
X122579774Y-90636063D01*
X122410256Y-90522795D01*
X122221898Y-90444774D01*
X122021939Y-90405000D01*
X121818061Y-90405000D01*
X121651961Y-90438039D01*
X121685000Y-90271939D01*
X121685000Y-90068061D01*
X121645226Y-89868102D01*
X121567205Y-89679744D01*
X121453937Y-89510226D01*
X121309774Y-89366063D01*
X121140256Y-89252795D01*
X120951898Y-89174774D01*
X120751939Y-89135000D01*
X120548061Y-89135000D01*
X120348102Y-89174774D01*
X120159744Y-89252795D01*
X120015000Y-89349510D01*
X119870256Y-89252795D01*
X119681898Y-89174774D01*
X119481939Y-89135000D01*
X119278061Y-89135000D01*
X119078102Y-89174774D01*
X118889744Y-89252795D01*
X118745000Y-89349510D01*
X118600256Y-89252795D01*
X118411898Y-89174774D01*
X118211939Y-89135000D01*
X118008061Y-89135000D01*
X117808102Y-89174774D01*
X117619744Y-89252795D01*
X117475000Y-89349510D01*
X117330256Y-89252795D01*
X117141898Y-89174774D01*
X116941939Y-89135000D01*
X116738061Y-89135000D01*
X116538102Y-89174774D01*
X116349744Y-89252795D01*
X116180226Y-89366063D01*
X116036063Y-89510226D01*
X115922795Y-89679744D01*
X115844774Y-89868102D01*
X115805000Y-90068061D01*
X115660000Y-90068061D01*
X115660000Y-83463110D01*
X116033524Y-83463110D01*
X116154845Y-83693000D01*
X117348000Y-83693000D01*
X117348000Y-82499186D01*
X117118109Y-82378519D01*
X116843748Y-82475843D01*
X116593645Y-82624822D01*
X116377412Y-82819731D01*
X116203359Y-83053080D01*
X116078175Y-83315901D01*
X116033524Y-83463110D01*
X115660000Y-83463110D01*
X115660000Y-72795110D01*
X124288524Y-72795110D01*
X124409845Y-73025000D01*
X125603000Y-73025000D01*
X125603000Y-71831186D01*
X125373109Y-71710519D01*
X125098748Y-71807843D01*
X124848645Y-71956822D01*
X124632412Y-72151731D01*
X124458359Y-72385080D01*
X124333175Y-72647901D01*
X124288524Y-72795110D01*
X115660000Y-72795110D01*
X115660000Y-67452033D01*
X117727572Y-67452033D01*
X118045757Y-67905850D01*
X118650210Y-68231269D01*
X119306535Y-68432512D01*
X119989510Y-68501845D01*
X120672888Y-68436605D01*
X121330407Y-68239298D01*
X121936799Y-67917506D01*
X121954243Y-67905850D01*
X122272428Y-67452033D01*
X120000000Y-65179605D01*
X117727572Y-67452033D01*
X115660000Y-67452033D01*
X115660000Y-65029392D01*
X115663559Y-64989510D01*
X116498155Y-64989510D01*
X116563395Y-65672888D01*
X116760702Y-66330407D01*
X117082494Y-66936799D01*
X117094150Y-66954243D01*
X117547967Y-67272428D01*
X119820395Y-65000000D01*
X120179605Y-65000000D01*
X122452033Y-67272428D01*
X122905850Y-66954243D01*
X123231269Y-66349790D01*
X123432512Y-65693465D01*
X123501845Y-65010490D01*
X123436605Y-64327112D01*
X123239298Y-63669593D01*
X122917506Y-63063201D01*
X122905850Y-63045757D01*
X122452033Y-62727572D01*
X120179605Y-65000000D01*
X119820395Y-65000000D01*
X117547967Y-62727572D01*
X117094150Y-63045757D01*
X116768731Y-63650210D01*
X116567488Y-64306535D01*
X116498155Y-64989510D01*
X115663559Y-64989510D01*
X115729558Y-64250017D01*
X117342026Y-62547967D01*
X117727572Y-62547967D01*
X120000000Y-64820395D01*
X122272428Y-62547967D01*
X121954243Y-62094150D01*
X121543669Y-61873109D01*
X136988519Y-61873109D01*
X137109186Y-62103000D01*
X138303000Y-62103000D01*
X138303000Y-60909845D01*
X138073110Y-60788524D01*
X137925901Y-60833175D01*
X137663080Y-60958359D01*
X137429731Y-61132412D01*
X137234822Y-61348645D01*
X137085843Y-61598748D01*
X136988519Y-61873109D01*
X121543669Y-61873109D01*
X121349790Y-61768731D01*
X120693465Y-61567488D01*
X120010490Y-61498155D01*
X119327112Y-61563395D01*
X118669593Y-61760702D01*
X118063201Y-62082494D01*
X118045757Y-62094150D01*
X117727572Y-62547967D01*
X117342026Y-62547967D01*
X119000945Y-60796887D01*
X119371457Y-60707935D01*
X120024207Y-60660000D01*
X146919341Y-60660000D01*
X146700373Y-60878968D01*
%TA.AperFunction,Conductor*%
D25*
G36*
X146700373Y-60878968D02*
G01*
X146394043Y-61252231D01*
X146351898Y-61234774D01*
X146151939Y-61195000D01*
X145948061Y-61195000D01*
X145748102Y-61234774D01*
X145559744Y-61312795D01*
X145415000Y-61409510D01*
X145270256Y-61312795D01*
X145081898Y-61234774D01*
X144881939Y-61195000D01*
X144678061Y-61195000D01*
X144478102Y-61234774D01*
X144289744Y-61312795D01*
X144120226Y-61426063D01*
X143976063Y-61570226D01*
X143862795Y-61739744D01*
X143784774Y-61928102D01*
X143745000Y-62128061D01*
X143745000Y-62331939D01*
X143784774Y-62531898D01*
X143862795Y-62720256D01*
X143959510Y-62865000D01*
X143862795Y-63009744D01*
X143784774Y-63198102D01*
X143745000Y-63398061D01*
X143745000Y-63601939D01*
X143784774Y-63801898D01*
X143862795Y-63990256D01*
X143959510Y-64135000D01*
X143862795Y-64279744D01*
X143784774Y-64468102D01*
X143745000Y-64668061D01*
X143745000Y-64871939D01*
X143784774Y-65071898D01*
X143862795Y-65260256D01*
X143976063Y-65429774D01*
X144120226Y-65573937D01*
X144289744Y-65687205D01*
X144478102Y-65765226D01*
X144678061Y-65805000D01*
X144881939Y-65805000D01*
X145048039Y-65771961D01*
X145015000Y-65938061D01*
X145015000Y-66141939D01*
X145054774Y-66341898D01*
X145132795Y-66530256D01*
X145246063Y-66699774D01*
X145390226Y-66843937D01*
X145559744Y-66957205D01*
X145748102Y-67035226D01*
X145948061Y-67075000D01*
X146151939Y-67075000D01*
X146318039Y-67041961D01*
X146285000Y-67208061D01*
X146285000Y-67411939D01*
X146324774Y-67611898D01*
X146402795Y-67800256D01*
X146516063Y-67969774D01*
X146660226Y-68113937D01*
X146829744Y-68227205D01*
X147018102Y-68305226D01*
X147218061Y-68345000D01*
X147421939Y-68345000D01*
X147621898Y-68305226D01*
X147810256Y-68227205D01*
X147955000Y-68130490D01*
X148099744Y-68227205D01*
X148288102Y-68305226D01*
X148488061Y-68345000D01*
X148510435Y-68345000D01*
X149230199Y-68563337D01*
X150138817Y-68652829D01*
X151047435Y-68563337D01*
X151921136Y-68298304D01*
X152726344Y-67867911D01*
X153233092Y-67452033D01*
X157727572Y-67452033D01*
X158045757Y-67905850D01*
X158650210Y-68231269D01*
X159306535Y-68432512D01*
X159989510Y-68501845D01*
X160672888Y-68436605D01*
X161330407Y-68239298D01*
X161936799Y-67917506D01*
X161954243Y-67905850D01*
X162272428Y-67452033D01*
X160000000Y-65179605D01*
X157727572Y-67452033D01*
X153233092Y-67452033D01*
X153255252Y-67433847D01*
X156405689Y-64283410D01*
X156675316Y-63954869D01*
X156567488Y-64306535D01*
X156498155Y-64989510D01*
X156563395Y-65672888D01*
X156760702Y-66330407D01*
X157082494Y-66936799D01*
X157094150Y-66954243D01*
X157547967Y-67272428D01*
X159820395Y-65000000D01*
X157547967Y-62727572D01*
X157280523Y-62915085D01*
X157535179Y-62075594D01*
X157624671Y-61166976D01*
X157574738Y-60660000D01*
X159970608Y-60660000D01*
X160474352Y-60704958D01*
X161757768Y-61988374D01*
X161349790Y-61768731D01*
X160693465Y-61567488D01*
X160010490Y-61498155D01*
X159327112Y-61563395D01*
X158669593Y-61760702D01*
X158063201Y-62082494D01*
X158045757Y-62094150D01*
X157727572Y-62547967D01*
X160000000Y-64820395D01*
X160014143Y-64806253D01*
X160193748Y-64985858D01*
X160179605Y-65000000D01*
X162452033Y-67272428D01*
X162905850Y-66954243D01*
X163231269Y-66349790D01*
X163432512Y-65693465D01*
X163501845Y-65010490D01*
X163436605Y-64327112D01*
X163239298Y-63669593D01*
X163013513Y-63244119D01*
X164304050Y-64534656D01*
X164340000Y-65024207D01*
X164340000Y-68236695D01*
X163861893Y-68270593D01*
X162985172Y-68510526D01*
X162172106Y-68916890D01*
X161453940Y-69474066D01*
X160039727Y-70888280D01*
X163227364Y-74075917D01*
X163241507Y-74061775D01*
X163421112Y-74241380D01*
X163406969Y-74255522D01*
X163421112Y-74269665D01*
X163241507Y-74449270D01*
X163227364Y-74435127D01*
X158739040Y-78923451D01*
X159192534Y-79492771D01*
X159922080Y-79903316D01*
X160784347Y-80190899D01*
X161686151Y-80304735D01*
X162592835Y-80240451D01*
X163469556Y-80000518D01*
X164282622Y-79594154D01*
X164340000Y-79549638D01*
X164340001Y-104970597D01*
X164288316Y-105549718D01*
X162531931Y-107352323D01*
X162452035Y-107272427D01*
X162905850Y-106954243D01*
X163231269Y-106349790D01*
X163432512Y-105693465D01*
X163501845Y-105010490D01*
X163436605Y-104327112D01*
X163239298Y-103669593D01*
X162917506Y-103063201D01*
X162905850Y-103045757D01*
X162452033Y-102727572D01*
X160179605Y-105000000D01*
X160193748Y-105014143D01*
X160014143Y-105193748D01*
X160000000Y-105179605D01*
X157727572Y-107452033D01*
X158045757Y-107905850D01*
X158650210Y-108231269D01*
X159306535Y-108432512D01*
X159989510Y-108501845D01*
X160672888Y-108436605D01*
X161330407Y-108239298D01*
X161936799Y-107917506D01*
X161954243Y-107905850D01*
X162272427Y-107452035D01*
X162354656Y-107534264D01*
X160646013Y-109287871D01*
X160628543Y-109292065D01*
X159975793Y-109340000D01*
X142258990Y-109340000D01*
X142276694Y-109330537D01*
X142373385Y-109251185D01*
X142452737Y-109154494D01*
X142511702Y-109044180D01*
X142548012Y-108924482D01*
X142560272Y-108800000D01*
X142560272Y-107572085D01*
X142894810Y-107237547D01*
X142924764Y-107212964D01*
X143022862Y-107093433D01*
X143095754Y-106957060D01*
X143108700Y-106914384D01*
X143140642Y-106809087D01*
X143150874Y-106705192D01*
X143152000Y-106693761D01*
X143152000Y-106693756D01*
X143155797Y-106655200D01*
X143152000Y-106616644D01*
X143152000Y-106615403D01*
X143223623Y-106556623D01*
X143332512Y-106423942D01*
X143413423Y-106272567D01*
X143463248Y-106108316D01*
X143480072Y-105937500D01*
X143480072Y-105437500D01*
X143463248Y-105266684D01*
X143413423Y-105102433D01*
X143332512Y-104951058D01*
X143223623Y-104818377D01*
X143170768Y-104775000D01*
X143223623Y-104731623D01*
X143332512Y-104598942D01*
X143413423Y-104447567D01*
X143463248Y-104283316D01*
X143480072Y-104112500D01*
X143480072Y-104038061D01*
X143745000Y-104038061D01*
X143745000Y-104241939D01*
X143784774Y-104441898D01*
X143862795Y-104630256D01*
X143959510Y-104775000D01*
X143862795Y-104919744D01*
X143784774Y-105108102D01*
X143745000Y-105308061D01*
X143745000Y-105511939D01*
X143784774Y-105711898D01*
X143862795Y-105900256D01*
X143959510Y-106045000D01*
X143862795Y-106189744D01*
X143784774Y-106378102D01*
X143745000Y-106578061D01*
X143745000Y-106781939D01*
X143784774Y-106981898D01*
X143862795Y-107170256D01*
X143959510Y-107315000D01*
X143862795Y-107459744D01*
X143784774Y-107648102D01*
X143745000Y-107848061D01*
X143745000Y-108051939D01*
X143784774Y-108251898D01*
X143862795Y-108440256D01*
X143976063Y-108609774D01*
X144120226Y-108753937D01*
X144289744Y-108867205D01*
X144478102Y-108945226D01*
X144678061Y-108985000D01*
X144881939Y-108985000D01*
X145081898Y-108945226D01*
X145270256Y-108867205D01*
X145415000Y-108770490D01*
X145559744Y-108867205D01*
X145748102Y-108945226D01*
X145948061Y-108985000D01*
X146151939Y-108985000D01*
X146351898Y-108945226D01*
X146540256Y-108867205D01*
X146685000Y-108770490D01*
X146829744Y-108867205D01*
X147018102Y-108945226D01*
X147218061Y-108985000D01*
X147421939Y-108985000D01*
X147621898Y-108945226D01*
X147810256Y-108867205D01*
X147955000Y-108770490D01*
X148099744Y-108867205D01*
X148288102Y-108945226D01*
X148488061Y-108985000D01*
X148691939Y-108985000D01*
X148891898Y-108945226D01*
X149080256Y-108867205D01*
X149225000Y-108770490D01*
X149369744Y-108867205D01*
X149558102Y-108945226D01*
X149758061Y-108985000D01*
X149961939Y-108985000D01*
X150161898Y-108945226D01*
X150350256Y-108867205D01*
X150495000Y-108770490D01*
X150639744Y-108867205D01*
X150828102Y-108945226D01*
X151028061Y-108985000D01*
X151231939Y-108985000D01*
X151431898Y-108945226D01*
X151620256Y-108867205D01*
X151789774Y-108753937D01*
X151933937Y-108609774D01*
X152047205Y-108440256D01*
X152125226Y-108251898D01*
X152165000Y-108051939D01*
X152165000Y-107848061D01*
X152125226Y-107648102D01*
X152047205Y-107459744D01*
X151950490Y-107315000D01*
X152047205Y-107170256D01*
X152125226Y-106981898D01*
X152165000Y-106781939D01*
X152165000Y-106578061D01*
X152125226Y-106378102D01*
X152047205Y-106189744D01*
X151950490Y-106045000D01*
X152047205Y-105900256D01*
X152125226Y-105711898D01*
X152165000Y-105511939D01*
X152165000Y-105308061D01*
X152125226Y-105108102D01*
X152076104Y-104989510D01*
X156498155Y-104989510D01*
X156563395Y-105672888D01*
X156760702Y-106330407D01*
X157082494Y-106936799D01*
X157094150Y-106954243D01*
X157547967Y-107272428D01*
X159820395Y-105000000D01*
X157547967Y-102727572D01*
X157094150Y-103045757D01*
X156768731Y-103650210D01*
X156567488Y-104306535D01*
X156498155Y-104989510D01*
X152076104Y-104989510D01*
X152047205Y-104919744D01*
X151950490Y-104775000D01*
X152047205Y-104630256D01*
X152125226Y-104441898D01*
X152165000Y-104241939D01*
X152165000Y-104038061D01*
X152125226Y-103838102D01*
X152047205Y-103649744D01*
X151933937Y-103480226D01*
X151789774Y-103336063D01*
X151620256Y-103222795D01*
X151431898Y-103144774D01*
X151231939Y-103105000D01*
X151028061Y-103105000D01*
X150861961Y-103138039D01*
X150895000Y-102971939D01*
X150895000Y-102768061D01*
X150855226Y-102568102D01*
X150846886Y-102547967D01*
X157727572Y-102547967D01*
X160000000Y-104820395D01*
X162272428Y-102547967D01*
X161954243Y-102094150D01*
X161349790Y-101768731D01*
X160693465Y-101567488D01*
X160010490Y-101498155D01*
X159327112Y-101563395D01*
X158669593Y-101760702D01*
X158063201Y-102082494D01*
X158045757Y-102094150D01*
X157727572Y-102547967D01*
X150846886Y-102547967D01*
X150777205Y-102379744D01*
X150663937Y-102210226D01*
X150519774Y-102066063D01*
X150350256Y-101952795D01*
X150161898Y-101874774D01*
X149961939Y-101835000D01*
X149758061Y-101835000D01*
X149558102Y-101874774D01*
X149369744Y-101952795D01*
X149225000Y-102049510D01*
X149080256Y-101952795D01*
X148891898Y-101874774D01*
X148691939Y-101835000D01*
X148488061Y-101835000D01*
X148288102Y-101874774D01*
X148099744Y-101952795D01*
X147955000Y-102049510D01*
X147810256Y-101952795D01*
X147621898Y-101874774D01*
X147421939Y-101835000D01*
X147218061Y-101835000D01*
X147018102Y-101874774D01*
X146829744Y-101952795D01*
X146685000Y-102049510D01*
X146540256Y-101952795D01*
X146351898Y-101874774D01*
X146151939Y-101835000D01*
X145948061Y-101835000D01*
X145748102Y-101874774D01*
X145559744Y-101952795D01*
X145390226Y-102066063D01*
X145246063Y-102210226D01*
X145132795Y-102379744D01*
X145054774Y-102568102D01*
X145015000Y-102768061D01*
X145015000Y-102971939D01*
X145048039Y-103138039D01*
X144881939Y-103105000D01*
X144678061Y-103105000D01*
X144478102Y-103144774D01*
X144289744Y-103222795D01*
X144120226Y-103336063D01*
X143976063Y-103480226D01*
X143862795Y-103649744D01*
X143784774Y-103838102D01*
X143745000Y-104038061D01*
X143480072Y-104038061D01*
X143480072Y-103612500D01*
X143463248Y-103441684D01*
X143413423Y-103277433D01*
X143332512Y-103126058D01*
X143223623Y-102993377D01*
X143090942Y-102884488D01*
X142953134Y-102810829D01*
X142953134Y-100868190D01*
X142956931Y-100829634D01*
X142953134Y-100791074D01*
X142953134Y-100791073D01*
X142946125Y-100719911D01*
X142941776Y-100675747D01*
X142896888Y-100527774D01*
X142885658Y-100506764D01*
X142823996Y-100391401D01*
X142725898Y-100271870D01*
X142695945Y-100247288D01*
X142420657Y-99972000D01*
X148297447Y-99972000D01*
X148336000Y-99975797D01*
X148374553Y-99972000D01*
X148374561Y-99972000D01*
X148489887Y-99960641D01*
X148637860Y-99915754D01*
X148774233Y-99842862D01*
X148893764Y-99744764D01*
X148918347Y-99714810D01*
X156618914Y-92014243D01*
X156659510Y-92075000D01*
X156562795Y-92219744D01*
X156484774Y-92408102D01*
X156445000Y-92608061D01*
X156445000Y-92811939D01*
X156484774Y-93011898D01*
X156562795Y-93200256D01*
X156659510Y-93345000D01*
X156562795Y-93489744D01*
X156484774Y-93678102D01*
X156445000Y-93878061D01*
X156445000Y-94081939D01*
X156484774Y-94281898D01*
X156562795Y-94470256D01*
X156659510Y-94615000D01*
X156562795Y-94759744D01*
X156484774Y-94948102D01*
X156445000Y-95148061D01*
X156445000Y-95351939D01*
X156484774Y-95551898D01*
X156562795Y-95740256D01*
X156676063Y-95909774D01*
X156820226Y-96053937D01*
X156989744Y-96167205D01*
X157178102Y-96245226D01*
X157378061Y-96285000D01*
X157581939Y-96285000D01*
X157748039Y-96251961D01*
X157715000Y-96418061D01*
X157715000Y-96621939D01*
X157754774Y-96821898D01*
X157832795Y-97010256D01*
X157946063Y-97179774D01*
X158090226Y-97323937D01*
X158259744Y-97437205D01*
X158448102Y-97515226D01*
X158648061Y-97555000D01*
X158851939Y-97555000D01*
X159051898Y-97515226D01*
X159240256Y-97437205D01*
X159385000Y-97340490D01*
X159529744Y-97437205D01*
X159718102Y-97515226D01*
X159918061Y-97555000D01*
X160121939Y-97555000D01*
X160321898Y-97515226D01*
X160510256Y-97437205D01*
X160655000Y-97340490D01*
X160799744Y-97437205D01*
X160988102Y-97515226D01*
X161188061Y-97555000D01*
X161391939Y-97555000D01*
X161591898Y-97515226D01*
X161780256Y-97437205D01*
X161925000Y-97340490D01*
X162069744Y-97437205D01*
X162258102Y-97515226D01*
X162458061Y-97555000D01*
X162661939Y-97555000D01*
X162861898Y-97515226D01*
X163050256Y-97437205D01*
X163219774Y-97323937D01*
X163363937Y-97179774D01*
X163477205Y-97010256D01*
X163555226Y-96821898D01*
X163595000Y-96621939D01*
X163595000Y-96418061D01*
X163555226Y-96218102D01*
X163477205Y-96029744D01*
X163380490Y-95885000D01*
X163477205Y-95740256D01*
X163555226Y-95551898D01*
X163595000Y-95351939D01*
X163595000Y-95148061D01*
X163555226Y-94948102D01*
X163477205Y-94759744D01*
X163380490Y-94615000D01*
X163477205Y-94470256D01*
X163555226Y-94281898D01*
X163595000Y-94081939D01*
X163595000Y-93878061D01*
X163555226Y-93678102D01*
X163477205Y-93489744D01*
X163380490Y-93345000D01*
X163477205Y-93200256D01*
X163555226Y-93011898D01*
X163595000Y-92811939D01*
X163595000Y-92608061D01*
X163555226Y-92408102D01*
X163477205Y-92219744D01*
X163380490Y-92075000D01*
X163477205Y-91930256D01*
X163555226Y-91741898D01*
X163595000Y-91541939D01*
X163595000Y-91338061D01*
X163555226Y-91138102D01*
X163477205Y-90949744D01*
X163380490Y-90805000D01*
X163477205Y-90660256D01*
X163555226Y-90471898D01*
X163595000Y-90271939D01*
X163595000Y-90068061D01*
X163555226Y-89868102D01*
X163477205Y-89679744D01*
X163363937Y-89510226D01*
X163219774Y-89366063D01*
X163050256Y-89252795D01*
X162861898Y-89174774D01*
X162661939Y-89135000D01*
X162458061Y-89135000D01*
X162258102Y-89174774D01*
X162069744Y-89252795D01*
X161925000Y-89349510D01*
X161780256Y-89252795D01*
X161591898Y-89174774D01*
X161391939Y-89135000D01*
X161188061Y-89135000D01*
X160988102Y-89174774D01*
X160799744Y-89252795D01*
X160655000Y-89349510D01*
X160510256Y-89252795D01*
X160321898Y-89174774D01*
X160121939Y-89135000D01*
X159918061Y-89135000D01*
X159718102Y-89174774D01*
X159529744Y-89252795D01*
X159385000Y-89349510D01*
X159240256Y-89252795D01*
X159051898Y-89174774D01*
X159003500Y-89165147D01*
X159003500Y-88682661D01*
X159087623Y-88613623D01*
X159131000Y-88560768D01*
X159174377Y-88613623D01*
X159307058Y-88722512D01*
X159458433Y-88803423D01*
X159622684Y-88853248D01*
X159793500Y-88870072D01*
X160293500Y-88870072D01*
X160464316Y-88853248D01*
X160628567Y-88803423D01*
X160779942Y-88722512D01*
X160912623Y-88613623D01*
X161021512Y-88480942D01*
X161102423Y-88329567D01*
X161152248Y-88165316D01*
X161169072Y-87994500D01*
X161169072Y-87741585D01*
X161254604Y-87656054D01*
X161258815Y-87661185D01*
X161355506Y-87740537D01*
X161465820Y-87799502D01*
X161585518Y-87835812D01*
X161710000Y-87848072D01*
X163410000Y-87848072D01*
X163534482Y-87835812D01*
X163654180Y-87799502D01*
X163764494Y-87740537D01*
X163861185Y-87661185D01*
X163940537Y-87564494D01*
X163999502Y-87454180D01*
X164035812Y-87334482D01*
X164048072Y-87210000D01*
X164048072Y-85510000D01*
X164035812Y-85385518D01*
X163999502Y-85265820D01*
X163940537Y-85155506D01*
X163861185Y-85058815D01*
X163764494Y-84979463D01*
X163654180Y-84920498D01*
X163573534Y-84896034D01*
X163657588Y-84820269D01*
X163831641Y-84586920D01*
X163956825Y-84324099D01*
X164001476Y-84176890D01*
X163880155Y-83947000D01*
X162687000Y-83947000D01*
X162687000Y-83967000D01*
X162433000Y-83967000D01*
X162433000Y-83947000D01*
X162413000Y-83947000D01*
X162413000Y-83693000D01*
X162433000Y-83693000D01*
X162433000Y-82499186D01*
X162687000Y-82499186D01*
X162687000Y-83693000D01*
X163880155Y-83693000D01*
X164001476Y-83463110D01*
X163956825Y-83315901D01*
X163831641Y-83053080D01*
X163657588Y-82819731D01*
X163441355Y-82624822D01*
X163191252Y-82475843D01*
X162916891Y-82378519D01*
X162687000Y-82499186D01*
X162433000Y-82499186D01*
X162203109Y-82378519D01*
X161928748Y-82475843D01*
X161678645Y-82624822D01*
X161462412Y-82819731D01*
X161288359Y-83053080D01*
X161163175Y-83315901D01*
X161118524Y-83463110D01*
X161239844Y-83692998D01*
X161075000Y-83692998D01*
X161075000Y-83747708D01*
X161066423Y-83719433D01*
X160985512Y-83568058D01*
X160876623Y-83435377D01*
X160743942Y-83326488D01*
X160592567Y-83245577D01*
X160428316Y-83195752D01*
X160257500Y-83178928D01*
X159782500Y-83178928D01*
X159611684Y-83195752D01*
X159447433Y-83245577D01*
X159296058Y-83326488D01*
X159242151Y-83370729D01*
X159219942Y-83352502D01*
X159068567Y-83271591D01*
X158904316Y-83221766D01*
X158733500Y-83204942D01*
X158258500Y-83204942D01*
X158087684Y-83221766D01*
X157923433Y-83271591D01*
X157772058Y-83352502D01*
X157639377Y-83461391D01*
X157530488Y-83594072D01*
X157449577Y-83745447D01*
X157399752Y-83909698D01*
X157382928Y-84080514D01*
X157382928Y-84580514D01*
X157399752Y-84751330D01*
X157449577Y-84915581D01*
X157530488Y-85066956D01*
X157639377Y-85199637D01*
X157692232Y-85243014D01*
X157639377Y-85286391D01*
X157530488Y-85419072D01*
X157449577Y-85570447D01*
X157399752Y-85734698D01*
X157382928Y-85905514D01*
X157382928Y-86405514D01*
X157399752Y-86576330D01*
X157449577Y-86740581D01*
X157478394Y-86794495D01*
X157349377Y-86900377D01*
X157240488Y-87033058D01*
X157159577Y-87184433D01*
X157109752Y-87348684D01*
X157092928Y-87519500D01*
X157092928Y-87994500D01*
X157109752Y-88165316D01*
X157159577Y-88329567D01*
X157240488Y-88480942D01*
X157349377Y-88613623D01*
X157433500Y-88682662D01*
X157433500Y-88979343D01*
X148010843Y-98402000D01*
X139445291Y-98402000D01*
X136260291Y-95217000D01*
X137280928Y-95217000D01*
X137293188Y-95341482D01*
X137329498Y-95461180D01*
X137388463Y-95571494D01*
X137467815Y-95668185D01*
X137564506Y-95747537D01*
X137674820Y-95806502D01*
X137794518Y-95842812D01*
X137919000Y-95855072D01*
X138120750Y-95852000D01*
X138279500Y-95693250D01*
X138279500Y-94869000D01*
X137442750Y-94869000D01*
X137284000Y-95027750D01*
X137280928Y-95217000D01*
X136260291Y-95217000D01*
X134609291Y-93566000D01*
X137280928Y-93566000D01*
X137293188Y-93690482D01*
X137329498Y-93810180D01*
X137386328Y-93916500D01*
X137329498Y-94022820D01*
X137293188Y-94142518D01*
X137280928Y-94267000D01*
X137284000Y-94456250D01*
X137442750Y-94615000D01*
X138279500Y-94615000D01*
X138279500Y-94092250D01*
X138329500Y-94042250D01*
X138329500Y-93218000D01*
X137442750Y-93218000D01*
X137284000Y-93376750D01*
X137280928Y-93566000D01*
X134609291Y-93566000D01*
X133254271Y-92210980D01*
X133336000Y-92129250D01*
X133336000Y-90780000D01*
X132236750Y-90780000D01*
X132078000Y-90938750D01*
X132077589Y-91034298D01*
X130391400Y-89348109D01*
X130512623Y-89248623D01*
X130556000Y-89195768D01*
X130599377Y-89248623D01*
X130732058Y-89357512D01*
X130883433Y-89438423D01*
X131047684Y-89488248D01*
X131218500Y-89505072D01*
X131718500Y-89505072D01*
X131889316Y-89488248D01*
X132053567Y-89438423D01*
X132129317Y-89397934D01*
X132123498Y-89408820D01*
X132087188Y-89528518D01*
X132074928Y-89653000D01*
X132078000Y-90367250D01*
X132236750Y-90526000D01*
X133336000Y-90526000D01*
X133336000Y-90506000D01*
X133590000Y-90506000D01*
X133590000Y-90526000D01*
X133610000Y-90526000D01*
X133610000Y-90780000D01*
X133590000Y-90780000D01*
X133590000Y-92129250D01*
X133748750Y-92288000D01*
X134213000Y-92291072D01*
X134337482Y-92278812D01*
X134457180Y-92242502D01*
X134567494Y-92183537D01*
X134613000Y-92146191D01*
X134658506Y-92183537D01*
X134768820Y-92242502D01*
X134888518Y-92278812D01*
X135013000Y-92291072D01*
X136513000Y-92291072D01*
X136637482Y-92278812D01*
X136757180Y-92242502D01*
X136867494Y-92183537D01*
X136913000Y-92146191D01*
X136958506Y-92183537D01*
X137068820Y-92242502D01*
X137188518Y-92278812D01*
X137313000Y-92291072D01*
X137372659Y-92291072D01*
X137329498Y-92371820D01*
X137293188Y-92491518D01*
X137280928Y-92616000D01*
X137284000Y-92805250D01*
X137442750Y-92964000D01*
X138329500Y-92964000D01*
X138329500Y-92944000D01*
X138583500Y-92944000D01*
X138583500Y-92964000D01*
X138603500Y-92964000D01*
X138603500Y-93218000D01*
X138583500Y-93218000D01*
X138583500Y-93740750D01*
X138533500Y-93790750D01*
X138533500Y-94615000D01*
X138553500Y-94615000D01*
X138553500Y-94869000D01*
X138533500Y-94869000D01*
X138533500Y-95693250D01*
X138692250Y-95852000D01*
X138894000Y-95855072D01*
X139018482Y-95842812D01*
X139138180Y-95806502D01*
X139248494Y-95747537D01*
X139345185Y-95668185D01*
X139386217Y-95618188D01*
X139495058Y-95707512D01*
X139646433Y-95788423D01*
X139810684Y-95838248D01*
X139981500Y-95855072D01*
X140481500Y-95855072D01*
X140652316Y-95838248D01*
X140816567Y-95788423D01*
X140837003Y-95777500D01*
X140971639Y-95777500D01*
X140974000Y-95801469D01*
X140974000Y-95801477D01*
X140979279Y-95855072D01*
X140986805Y-95931490D01*
X141037412Y-96098313D01*
X141119590Y-96252059D01*
X141202468Y-96353046D01*
X141202471Y-96353049D01*
X141230184Y-96386817D01*
X141263951Y-96414529D01*
X142599470Y-97750049D01*
X142627183Y-97783817D01*
X142660951Y-97811530D01*
X142660953Y-97811532D01*
X142732452Y-97870210D01*
X142761941Y-97894411D01*
X142915687Y-97976589D01*
X143082510Y-98027195D01*
X143212523Y-98040000D01*
X143212533Y-98040000D01*
X143255999Y-98044281D01*
X143299465Y-98040000D01*
X147949531Y-98040000D01*
X147993000Y-98044281D01*
X148036469Y-98040000D01*
X148036477Y-98040000D01*
X148166490Y-98027195D01*
X148333313Y-97976589D01*
X148487059Y-97894411D01*
X148621817Y-97783817D01*
X148649534Y-97750044D01*
X149820050Y-96579529D01*
X149853817Y-96551817D01*
X149898468Y-96497411D01*
X149940210Y-96446548D01*
X149964411Y-96417059D01*
X150046589Y-96263313D01*
X150097195Y-96096490D01*
X150110000Y-95966477D01*
X150110000Y-95966467D01*
X150114281Y-95923001D01*
X150110000Y-95879535D01*
X150110000Y-95675603D01*
X150114502Y-95667180D01*
X150150812Y-95547482D01*
X150163072Y-95423000D01*
X150163072Y-93873000D01*
X150150812Y-93748518D01*
X150138218Y-93707000D01*
X150159502Y-93667180D01*
X150195812Y-93547482D01*
X150208072Y-93423000D01*
X150205000Y-92233750D01*
X150046250Y-92075000D01*
X149569906Y-92075000D01*
X149574936Y-91982541D01*
X149540395Y-91948000D01*
X149574936Y-91913459D01*
X149569906Y-91821000D01*
X150046250Y-91821000D01*
X150205000Y-91662250D01*
X150208072Y-90473000D01*
X150195812Y-90348518D01*
X150159502Y-90228820D01*
X150138218Y-90189000D01*
X150150812Y-90147482D01*
X150163072Y-90023000D01*
X150163072Y-88473000D01*
X150150812Y-88348518D01*
X150114502Y-88228820D01*
X150055537Y-88118506D01*
X149976185Y-88021815D01*
X149879494Y-87942463D01*
X149769180Y-87883498D01*
X149649482Y-87847188D01*
X149611950Y-87843492D01*
X149609000Y-87661750D01*
X149450250Y-87503000D01*
X148563500Y-87503000D01*
X148563500Y-87523000D01*
X148309500Y-87523000D01*
X148309500Y-87503000D01*
X148289500Y-87503000D01*
X148289500Y-87249000D01*
X148309500Y-87249000D01*
X148309500Y-86424750D01*
X148563500Y-86424750D01*
X148563500Y-87249000D01*
X149450250Y-87249000D01*
X149609000Y-87090250D01*
X149612072Y-86901000D01*
X149599812Y-86776518D01*
X149563502Y-86656820D01*
X149504537Y-86546506D01*
X149425185Y-86449815D01*
X149328494Y-86370463D01*
X149218180Y-86311498D01*
X149098482Y-86275188D01*
X148974000Y-86262928D01*
X148722250Y-86266000D01*
X148563500Y-86424750D01*
X148309500Y-86424750D01*
X148150750Y-86266000D01*
X147899000Y-86262928D01*
X147774518Y-86275188D01*
X147654820Y-86311498D01*
X147596500Y-86342671D01*
X147596500Y-84966954D01*
X147628705Y-84918756D01*
X147706726Y-84730398D01*
X147746500Y-84530439D01*
X147746500Y-84326561D01*
X147706726Y-84126602D01*
X147628705Y-83938244D01*
X147596500Y-83890046D01*
X147596500Y-83696954D01*
X147628705Y-83648756D01*
X147706726Y-83460398D01*
X147746500Y-83260439D01*
X147746500Y-83056561D01*
X147718591Y-82916254D01*
X147748898Y-82910226D01*
X147937256Y-82832205D01*
X147985454Y-82800000D01*
X148305546Y-82800000D01*
X148353744Y-82832205D01*
X148542102Y-82910226D01*
X148742061Y-82950000D01*
X148945939Y-82950000D01*
X149145898Y-82910226D01*
X149334256Y-82832205D01*
X149503774Y-82718937D01*
X149647937Y-82574774D01*
X149761205Y-82405256D01*
X149839226Y-82216898D01*
X149879000Y-82016939D01*
X149879000Y-81813061D01*
X149839226Y-81613102D01*
X149761205Y-81424744D01*
X149647937Y-81255226D01*
X149503774Y-81111063D01*
X149334256Y-80997795D01*
X149145898Y-80919774D01*
X148945939Y-80880000D01*
X148742061Y-80880000D01*
X148542102Y-80919774D01*
X148353744Y-80997795D01*
X148305546Y-81030000D01*
X147985454Y-81030000D01*
X147937256Y-80997795D01*
X147748898Y-80919774D01*
X147548939Y-80880000D01*
X147345061Y-80880000D01*
X147145102Y-80919774D01*
X146956744Y-80997795D01*
X146787226Y-81111063D01*
X146643063Y-81255226D01*
X146529795Y-81424744D01*
X146471895Y-81564527D01*
X146116451Y-81919971D01*
X146082684Y-81947683D01*
X146054971Y-81981451D01*
X146054968Y-81981454D01*
X146014678Y-82030548D01*
X145972090Y-82082441D01*
X145889911Y-82236187D01*
X145839305Y-82403010D01*
X145826500Y-82533023D01*
X145826500Y-82533031D01*
X145822219Y-82576500D01*
X145826500Y-82619969D01*
X145826500Y-82620046D01*
X145794295Y-82668244D01*
X145716274Y-82856602D01*
X145676500Y-83056561D01*
X145676500Y-83260439D01*
X145716274Y-83460398D01*
X145794295Y-83648756D01*
X145826501Y-83696955D01*
X145826500Y-83890045D01*
X145794295Y-83938244D01*
X145716274Y-84126602D01*
X145676500Y-84326561D01*
X145676500Y-84530439D01*
X145716274Y-84730398D01*
X145794295Y-84918756D01*
X145826501Y-84966956D01*
X145826500Y-86491373D01*
X145792377Y-86519377D01*
X145683488Y-86652058D01*
X145602577Y-86803433D01*
X145552752Y-86967684D01*
X145535928Y-87138500D01*
X145535928Y-87613500D01*
X145552752Y-87784316D01*
X145568105Y-87834928D01*
X145115000Y-87834928D01*
X144990518Y-87847188D01*
X144870820Y-87883498D01*
X144760506Y-87942463D01*
X144663815Y-88021815D01*
X144584463Y-88118506D01*
X144525498Y-88228820D01*
X144489188Y-88348518D01*
X144487762Y-88363000D01*
X144286072Y-88363000D01*
X144286072Y-86348000D01*
X144273812Y-86223518D01*
X144237502Y-86103820D01*
X144178537Y-85993506D01*
X144099185Y-85896815D01*
X144002494Y-85817463D01*
X143892180Y-85758498D01*
X143772482Y-85722188D01*
X143648000Y-85709928D01*
X141848000Y-85709928D01*
X141723518Y-85722188D01*
X141603820Y-85758498D01*
X141493506Y-85817463D01*
X141396815Y-85896815D01*
X141317463Y-85993506D01*
X141258498Y-86103820D01*
X141222188Y-86223518D01*
X141209928Y-86348000D01*
X141209928Y-88511608D01*
X141134185Y-88419315D01*
X141037494Y-88339963D01*
X140927180Y-88280998D01*
X140807482Y-88244688D01*
X140683000Y-88232428D01*
X140493750Y-88235500D01*
X140335000Y-88394250D01*
X140335000Y-89281000D01*
X140355000Y-89281000D01*
X140355000Y-89535000D01*
X140335000Y-89535000D01*
X140335000Y-89555000D01*
X140081000Y-89555000D01*
X140081000Y-89535000D01*
X140061000Y-89535000D01*
X140061000Y-89281000D01*
X140081000Y-89281000D01*
X140081000Y-88394250D01*
X139922250Y-88235500D01*
X139733000Y-88232428D01*
X139608518Y-88244688D01*
X139488820Y-88280998D01*
X139378506Y-88339963D01*
X139281815Y-88419315D01*
X139202463Y-88516006D01*
X139143498Y-88626320D01*
X139107188Y-88746018D01*
X139094928Y-88870500D01*
X139097546Y-89085075D01*
X139057180Y-89063498D01*
X138937482Y-89027188D01*
X138848000Y-89018375D01*
X138848000Y-86925157D01*
X140862817Y-84910341D01*
X140892764Y-84885764D01*
X140919814Y-84852805D01*
X140923757Y-84848000D01*
X141209928Y-84848000D01*
X141222188Y-84972482D01*
X141258498Y-85092180D01*
X141317463Y-85202494D01*
X141396815Y-85299185D01*
X141493506Y-85378537D01*
X141603820Y-85437502D01*
X141723518Y-85473812D01*
X141848000Y-85486072D01*
X142462250Y-85483000D01*
X142621000Y-85324250D01*
X142621000Y-83225000D01*
X142875000Y-83225000D01*
X142875000Y-85324250D01*
X143033750Y-85483000D01*
X143648000Y-85486072D01*
X143772482Y-85473812D01*
X143892180Y-85437502D01*
X144002494Y-85378537D01*
X144099185Y-85299185D01*
X144178537Y-85202494D01*
X144237502Y-85092180D01*
X144273812Y-84972482D01*
X144286072Y-84848000D01*
X144283000Y-83383750D01*
X144124250Y-83225000D01*
X142875000Y-83225000D01*
X142621000Y-83225000D01*
X141371750Y-83225000D01*
X141213000Y-83383750D01*
X141209928Y-84848000D01*
X140923757Y-84848000D01*
X140951446Y-84814261D01*
X140990862Y-84766233D01*
X141063754Y-84629860D01*
X141108641Y-84481887D01*
X141120000Y-84366561D01*
X141120000Y-84366554D01*
X141123797Y-84328001D01*
X141120000Y-84289448D01*
X141120000Y-81348000D01*
X141209928Y-81348000D01*
X141213000Y-82812250D01*
X141371750Y-82971000D01*
X142621000Y-82971000D01*
X142621000Y-80871750D01*
X142875000Y-80871750D01*
X142875000Y-82971000D01*
X144124250Y-82971000D01*
X144283000Y-82812250D01*
X144286072Y-81348000D01*
X144273812Y-81223518D01*
X144237502Y-81103820D01*
X144178537Y-80993506D01*
X144099185Y-80896815D01*
X144002494Y-80817463D01*
X143892180Y-80758498D01*
X143772482Y-80722188D01*
X143648000Y-80709928D01*
X143033750Y-80713000D01*
X142875000Y-80871750D01*
X142621000Y-80871750D01*
X142462250Y-80713000D01*
X141848000Y-80709928D01*
X141723518Y-80722188D01*
X141603820Y-80758498D01*
X141493506Y-80817463D01*
X141396815Y-80896815D01*
X141317463Y-80993506D01*
X141258498Y-81103820D01*
X141222188Y-81223518D01*
X141209928Y-81348000D01*
X141120000Y-81348000D01*
X141120000Y-78577375D01*
X141123797Y-78538822D01*
X141120000Y-78500269D01*
X141120000Y-78500262D01*
X141108641Y-78384936D01*
X141063754Y-78236963D01*
X140990862Y-78100590D01*
X140892764Y-77981059D01*
X140862816Y-77956481D01*
X140175344Y-77269010D01*
X140945308Y-76499046D01*
X140993427Y-76589068D01*
X141072779Y-76685759D01*
X141169470Y-76765111D01*
X141279784Y-76824076D01*
X141399482Y-76860386D01*
X141523964Y-76872646D01*
X141763214Y-76869574D01*
X141921964Y-76710824D01*
X141921964Y-75886574D01*
X141901964Y-75886574D01*
X141901964Y-75632574D01*
X141921964Y-75632574D01*
X141921964Y-75612574D01*
X142175964Y-75612574D01*
X142175964Y-75632574D01*
X142195964Y-75632574D01*
X142195964Y-75886574D01*
X142175964Y-75886574D01*
X142175964Y-76710824D01*
X142334714Y-76869574D01*
X142573964Y-76872646D01*
X142698446Y-76860386D01*
X142818144Y-76824076D01*
X142928458Y-76765111D01*
X143001125Y-76705475D01*
X143025022Y-76725086D01*
X143176397Y-76805997D01*
X143340648Y-76855822D01*
X143511464Y-76872646D01*
X144086464Y-76872646D01*
X144257280Y-76855822D01*
X144421531Y-76805997D01*
X144572906Y-76725086D01*
X144705587Y-76616197D01*
X144814476Y-76483516D01*
X144895387Y-76332141D01*
X144945212Y-76167890D01*
X144962036Y-75997074D01*
X144962036Y-75796735D01*
X157178151Y-75796735D01*
X157291987Y-76698539D01*
X157579570Y-77560806D01*
X157990115Y-78290352D01*
X158559435Y-78743846D01*
X163047759Y-74255522D01*
X159860122Y-71067885D01*
X158445908Y-72482098D01*
X157888732Y-73200264D01*
X157482368Y-74013330D01*
X157242435Y-74890051D01*
X157178151Y-75796735D01*
X144962036Y-75796735D01*
X144962036Y-75522074D01*
X144945212Y-75351258D01*
X144895387Y-75187007D01*
X144817427Y-75041154D01*
X144895387Y-74895300D01*
X144945212Y-74731049D01*
X144962036Y-74560233D01*
X144962036Y-74085233D01*
X144945212Y-73914417D01*
X144895387Y-73750166D01*
X144814476Y-73598791D01*
X144705587Y-73466110D01*
X144572906Y-73357221D01*
X144421531Y-73276310D01*
X144257280Y-73226485D01*
X144086464Y-73209661D01*
X143586464Y-73209661D01*
X143415648Y-73226485D01*
X143279000Y-73267937D01*
X143279000Y-73116072D01*
X143344000Y-73116072D01*
X143468482Y-73103812D01*
X143588180Y-73067502D01*
X143698494Y-73008537D01*
X143795185Y-72929185D01*
X143874537Y-72832494D01*
X143933502Y-72722180D01*
X143969812Y-72602482D01*
X143982072Y-72478000D01*
X143982072Y-71112343D01*
X144035744Y-71148205D01*
X144224102Y-71226226D01*
X144424061Y-71266000D01*
X144627939Y-71266000D01*
X144827898Y-71226226D01*
X145016256Y-71148205D01*
X145185774Y-71034937D01*
X145329937Y-70890774D01*
X145443205Y-70721256D01*
X145521226Y-70532898D01*
X145561000Y-70332939D01*
X145561000Y-70129061D01*
X145521226Y-69929102D01*
X145443205Y-69740744D01*
X145329937Y-69571226D01*
X145185774Y-69427063D01*
X145016256Y-69313795D01*
X144827898Y-69235774D01*
X144771044Y-69224465D01*
X141738072Y-66191494D01*
X141738072Y-66056500D01*
X141721248Y-65885684D01*
X141671423Y-65721433D01*
X141615827Y-65617419D01*
X141630537Y-65599494D01*
X141689502Y-65489180D01*
X141725812Y-65369482D01*
X141738072Y-65245000D01*
X141735000Y-65055750D01*
X141576250Y-64897000D01*
X140702000Y-64897000D01*
X140702000Y-64917000D01*
X140448000Y-64917000D01*
X140448000Y-64897000D01*
X140428000Y-64897000D01*
X140428000Y-64643000D01*
X140448000Y-64643000D01*
X140448000Y-64623000D01*
X140702000Y-64623000D01*
X140702000Y-64643000D01*
X141576250Y-64643000D01*
X141735000Y-64484250D01*
X141738072Y-64295000D01*
X141725812Y-64170518D01*
X141689502Y-64050820D01*
X141630537Y-63940506D01*
X141551185Y-63843815D01*
X141454494Y-63764463D01*
X141367704Y-63718072D01*
X141820000Y-63718072D01*
X141944482Y-63705812D01*
X142064180Y-63669502D01*
X142174494Y-63610537D01*
X142271185Y-63531185D01*
X142350537Y-63434494D01*
X142409502Y-63324180D01*
X142445812Y-63204482D01*
X142458072Y-63080000D01*
X142458072Y-61380000D01*
X142445812Y-61255518D01*
X142409502Y-61135820D01*
X142350537Y-61025506D01*
X142271185Y-60928815D01*
X142174494Y-60849463D01*
X142064180Y-60790498D01*
X141944482Y-60754188D01*
X141820000Y-60741928D01*
X140120000Y-60741928D01*
X139995518Y-60754188D01*
X139875820Y-60790498D01*
X139765506Y-60849463D01*
X139668815Y-60928815D01*
X139589463Y-61025506D01*
X139530498Y-61135820D01*
X139506034Y-61216466D01*
X139430269Y-61132412D01*
X139196920Y-60958359D01*
X138934099Y-60833175D01*
X138786890Y-60788524D01*
X138557000Y-60909845D01*
X138557000Y-62103000D01*
X138577000Y-62103000D01*
X138577000Y-62357000D01*
X138557000Y-62357000D01*
X138557000Y-62377000D01*
X138303000Y-62377000D01*
X138303000Y-62357000D01*
X137109186Y-62357000D01*
X136988519Y-62586891D01*
X137085843Y-62861252D01*
X137234822Y-63111355D01*
X137429731Y-63327588D01*
X137452082Y-63344260D01*
X137175414Y-63620928D01*
X136922500Y-63620928D01*
X136751684Y-63637752D01*
X136587433Y-63687577D01*
X136436058Y-63768488D01*
X136303377Y-63877377D01*
X136194488Y-64010058D01*
X136113577Y-64161433D01*
X136063752Y-64325684D01*
X136046928Y-64496500D01*
X136046928Y-64996500D01*
X136063752Y-65167316D01*
X136113577Y-65331567D01*
X136194488Y-65482942D01*
X136303377Y-65615623D01*
X136356232Y-65659000D01*
X136303377Y-65702377D01*
X136194488Y-65835058D01*
X136113577Y-65986433D01*
X136063752Y-66150684D01*
X136046928Y-66321500D01*
X136046928Y-66574414D01*
X130254343Y-72367000D01*
X129531474Y-72367000D01*
X129423475Y-72205368D01*
X129216632Y-71998525D01*
X128973411Y-71836010D01*
X128703158Y-71724068D01*
X128416260Y-71667000D01*
X128123740Y-71667000D01*
X127836842Y-71724068D01*
X127566589Y-71836010D01*
X127323368Y-71998525D01*
X127116525Y-72205368D01*
X126998900Y-72381406D01*
X126827588Y-72151731D01*
X126611355Y-71956822D01*
X126361252Y-71807843D01*
X126086891Y-71710519D01*
X125857000Y-71831186D01*
X125857000Y-73025000D01*
X125877000Y-73025000D01*
X125877000Y-73279000D01*
X125857000Y-73279000D01*
X125857000Y-73299000D01*
X125603000Y-73299000D01*
X125603000Y-73279000D01*
X124409845Y-73279000D01*
X124288524Y-73508890D01*
X124333175Y-73656099D01*
X124458359Y-73918920D01*
X124632412Y-74152269D01*
X124848645Y-74347178D01*
X124965534Y-74416805D01*
X124783368Y-74538525D01*
X124576525Y-74745368D01*
X124414010Y-74988589D01*
X124302068Y-75258842D01*
X124245000Y-75545740D01*
X124245000Y-75838260D01*
X124302068Y-76125158D01*
X124414010Y-76395411D01*
X124576525Y-76638632D01*
X124783368Y-76845475D01*
X124957760Y-76962000D01*
X124783368Y-77078525D01*
X124576525Y-77285368D01*
X124414010Y-77528589D01*
X124302068Y-77798842D01*
X124245000Y-78085740D01*
X124245000Y-78378260D01*
X124282925Y-78568918D01*
X121288690Y-81563153D01*
X121258736Y-81587736D01*
X121217438Y-81638057D01*
X121080058Y-81711488D01*
X120947377Y-81820377D01*
X120904000Y-81873232D01*
X120860623Y-81820377D01*
X120727942Y-81711488D01*
X120576567Y-81630577D01*
X120412316Y-81580752D01*
X120241500Y-81563928D01*
X119741500Y-81563928D01*
X119570684Y-81580752D01*
X119406433Y-81630577D01*
X119255058Y-81711488D01*
X119122377Y-81820377D01*
X119013488Y-81953058D01*
X118932577Y-82104433D01*
X118882752Y-82268684D01*
X118865928Y-82439500D01*
X118865928Y-82842914D01*
X118707815Y-83001027D01*
X118572588Y-82819731D01*
X118356355Y-82624822D01*
X118106252Y-82475843D01*
X117831891Y-82378519D01*
X117602000Y-82499186D01*
X117602000Y-83693000D01*
X117622000Y-83693000D01*
X117622000Y-83947000D01*
X117602000Y-83947000D01*
X117602000Y-83967000D01*
X117348000Y-83967000D01*
X117348000Y-83947000D01*
X116154845Y-83947000D01*
X116033524Y-84176890D01*
X116078175Y-84324099D01*
X116203359Y-84586920D01*
X116377412Y-84820269D01*
X116461466Y-84896034D01*
X116380820Y-84920498D01*
X116270506Y-84979463D01*
X116173815Y-85058815D01*
X116094463Y-85155506D01*
X116035498Y-85265820D01*
X115999188Y-85385518D01*
X115986928Y-85510000D01*
X115986928Y-87210000D01*
X115999188Y-87334482D01*
X116035498Y-87454180D01*
X116094463Y-87564494D01*
X116173815Y-87661185D01*
X116270506Y-87740537D01*
X116380820Y-87799502D01*
X116500518Y-87835812D01*
X116625000Y-87848072D01*
X118325000Y-87848072D01*
X118449482Y-87835812D01*
X118569180Y-87799502D01*
X118679494Y-87740537D01*
X118776185Y-87661185D01*
X118855537Y-87564494D01*
X118914502Y-87454180D01*
X118950812Y-87334482D01*
X118963072Y-87210000D01*
X118963072Y-85982086D01*
X119061104Y-85884054D01*
X119061104Y-86294215D01*
X119077928Y-86465031D01*
X119127753Y-86629282D01*
X119208664Y-86780657D01*
X119317553Y-86913338D01*
X119450234Y-87022227D01*
X119601609Y-87103138D01*
X119765860Y-87152963D01*
X119936676Y-87169787D01*
X120411676Y-87169787D01*
X120582492Y-87152963D01*
X120746743Y-87103138D01*
X120898118Y-87022227D01*
X120982399Y-86953059D01*
X121066680Y-87022227D01*
X121218055Y-87103138D01*
X121382306Y-87152963D01*
X121553122Y-87169787D01*
X122028122Y-87169787D01*
X122198938Y-87152963D01*
X122363189Y-87103138D01*
X122514564Y-87022227D01*
X122647245Y-86913338D01*
X122756134Y-86780657D01*
X122837045Y-86629282D01*
X122886870Y-86465031D01*
X122903694Y-86294215D01*
X122903694Y-85801273D01*
X123194000Y-86091579D01*
X123194001Y-88221521D01*
X123189719Y-88265000D01*
X123206805Y-88438490D01*
X123257412Y-88605313D01*
X123339590Y-88759059D01*
X123422468Y-88860046D01*
X123422471Y-88860049D01*
X123450184Y-88893817D01*
X123483951Y-88921529D01*
X125104465Y-90542044D01*
X125115774Y-90598898D01*
X125193795Y-90787256D01*
X125307063Y-90956774D01*
X125451226Y-91100937D01*
X125620744Y-91214205D01*
X125809102Y-91292226D01*
X126009061Y-91332000D01*
X126212939Y-91332000D01*
X126412898Y-91292226D01*
X126601256Y-91214205D01*
X126770774Y-91100937D01*
X126914937Y-90956774D01*
X127028205Y-90787256D01*
X127106226Y-90598898D01*
X127146000Y-90398939D01*
X127146000Y-90195061D01*
X127106226Y-89995102D01*
X127028205Y-89806744D01*
X126914937Y-89637226D01*
X126770774Y-89493063D01*
X126601256Y-89379795D01*
X126412898Y-89301774D01*
X126356044Y-89290465D01*
X124964000Y-87898422D01*
X124964000Y-85768469D01*
X124968281Y-85725000D01*
X124964000Y-85681531D01*
X124964000Y-85681523D01*
X124951195Y-85551510D01*
X124931344Y-85486072D01*
X124900589Y-85384686D01*
X124818411Y-85230941D01*
X124735532Y-85129953D01*
X124735530Y-85129951D01*
X124707817Y-85096183D01*
X124674050Y-85068471D01*
X123229749Y-83624171D01*
X123202032Y-83590398D01*
X123067274Y-83479804D01*
X122913528Y-83397626D01*
X122812642Y-83367022D01*
X122875423Y-83249567D01*
X122925248Y-83085316D01*
X122942072Y-82914500D01*
X122942072Y-82439500D01*
X122925248Y-82268684D01*
X122896906Y-82175251D01*
X124245000Y-80827157D01*
X124245000Y-80918260D01*
X124302068Y-81205158D01*
X124414010Y-81475411D01*
X124576525Y-81718632D01*
X124783368Y-81925475D01*
X124957760Y-82042000D01*
X124783368Y-82158525D01*
X124576525Y-82365368D01*
X124414010Y-82608589D01*
X124302068Y-82878842D01*
X124245000Y-83165740D01*
X124245000Y-83458260D01*
X124302068Y-83745158D01*
X124414010Y-84015411D01*
X124576525Y-84258632D01*
X124783368Y-84465475D01*
X125026589Y-84627990D01*
X125296842Y-84739932D01*
X125583740Y-84797000D01*
X125876260Y-84797000D01*
X126163158Y-84739932D01*
X126215001Y-84718458D01*
X126215001Y-88480437D01*
X126211203Y-88519000D01*
X126226359Y-88672886D01*
X126271246Y-88820859D01*
X126292192Y-88860046D01*
X126344139Y-88957233D01*
X126378141Y-88998664D01*
X126417655Y-89046812D01*
X126417659Y-89046816D01*
X126442237Y-89076764D01*
X126472185Y-89101342D01*
X137847658Y-100476816D01*
X137872236Y-100506764D01*
X137902184Y-100531342D01*
X137902187Y-100531345D01*
X137931559Y-100555450D01*
X137991767Y-100604862D01*
X138128140Y-100677754D01*
X138276113Y-100722641D01*
X138391439Y-100734000D01*
X138391446Y-100734000D01*
X138422376Y-100737046D01*
X138274452Y-100884970D01*
X138240684Y-100912683D01*
X138212971Y-100946451D01*
X138212968Y-100946454D01*
X138130090Y-101047441D01*
X138047912Y-101201187D01*
X137997305Y-101368010D01*
X137980219Y-101541500D01*
X137984501Y-101584979D01*
X137984500Y-102921723D01*
X137891488Y-103035058D01*
X137810577Y-103186433D01*
X137760752Y-103350684D01*
X137743928Y-103521500D01*
X137743928Y-103996500D01*
X137760752Y-104167316D01*
X137810577Y-104331567D01*
X137866173Y-104435581D01*
X137851463Y-104453506D01*
X137792498Y-104563820D01*
X137756188Y-104683518D01*
X137743928Y-104808000D01*
X137747000Y-104997250D01*
X137905750Y-105156000D01*
X138780000Y-105156000D01*
X138780000Y-105136000D01*
X139034000Y-105136000D01*
X139034000Y-105156000D01*
X139054000Y-105156000D01*
X139054000Y-105410000D01*
X139034000Y-105410000D01*
X139034000Y-106234250D01*
X139192750Y-106393000D01*
X139432000Y-106396072D01*
X139556482Y-106383812D01*
X139676180Y-106347502D01*
X139786494Y-106288537D01*
X139859161Y-106228901D01*
X139883058Y-106248512D01*
X140034433Y-106329423D01*
X140198684Y-106379248D01*
X140369500Y-106396072D01*
X140944500Y-106396072D01*
X141115316Y-106379248D01*
X141279567Y-106329423D01*
X141335101Y-106299740D01*
X141401488Y-106423942D01*
X141432662Y-106461928D01*
X140222200Y-106461928D01*
X140097718Y-106474188D01*
X139978020Y-106510498D01*
X139867706Y-106569463D01*
X139771015Y-106648815D01*
X139691663Y-106745506D01*
X139632698Y-106855820D01*
X139608234Y-106936466D01*
X139532469Y-106852412D01*
X139299120Y-106678359D01*
X139036299Y-106553175D01*
X138889090Y-106508524D01*
X138659200Y-106629845D01*
X138659200Y-107823000D01*
X138679200Y-107823000D01*
X138679200Y-108077000D01*
X138659200Y-108077000D01*
X138659200Y-108097000D01*
X138405200Y-108097000D01*
X138405200Y-108077000D01*
X137211386Y-108077000D01*
X137090719Y-108306891D01*
X137188043Y-108581252D01*
X137337022Y-108831355D01*
X137531931Y-109047588D01*
X137765280Y-109221641D01*
X138013772Y-109340000D01*
X120029392Y-109340000D01*
X119366439Y-109280833D01*
X117632607Y-107547001D01*
X117727573Y-107452035D01*
X118045757Y-107905850D01*
X118650210Y-108231269D01*
X119306535Y-108432512D01*
X119989510Y-108501845D01*
X120672888Y-108436605D01*
X121330407Y-108239298D01*
X121936799Y-107917506D01*
X121954243Y-107905850D01*
X122173515Y-107593109D01*
X137090719Y-107593109D01*
X137211386Y-107823000D01*
X138405200Y-107823000D01*
X138405200Y-106629845D01*
X138175310Y-106508524D01*
X138028101Y-106553175D01*
X137765280Y-106678359D01*
X137531931Y-106852412D01*
X137337022Y-107068645D01*
X137188043Y-107318748D01*
X137090719Y-107593109D01*
X122173515Y-107593109D01*
X122272428Y-107452033D01*
X120000000Y-105179605D01*
X119985858Y-105193748D01*
X119806253Y-105014143D01*
X119820395Y-105000000D01*
X120179605Y-105000000D01*
X122452033Y-107272428D01*
X122905850Y-106954243D01*
X123231269Y-106349790D01*
X123412724Y-105758000D01*
X137743928Y-105758000D01*
X137756188Y-105882482D01*
X137792498Y-106002180D01*
X137851463Y-106112494D01*
X137930815Y-106209185D01*
X138027506Y-106288537D01*
X138137820Y-106347502D01*
X138257518Y-106383812D01*
X138382000Y-106396072D01*
X138621250Y-106393000D01*
X138780000Y-106234250D01*
X138780000Y-105410000D01*
X137905750Y-105410000D01*
X137747000Y-105568750D01*
X137743928Y-105758000D01*
X123412724Y-105758000D01*
X123432512Y-105693465D01*
X123501845Y-105010490D01*
X123436605Y-104327112D01*
X123239298Y-103669593D01*
X122917506Y-103063201D01*
X122905850Y-103045757D01*
X122452033Y-102727572D01*
X120179605Y-105000000D01*
X119820395Y-105000000D01*
X117547967Y-102727572D01*
X117094150Y-103045757D01*
X116768731Y-103650210D01*
X116567488Y-104306535D01*
X116498155Y-104989510D01*
X116563395Y-105672888D01*
X116760702Y-106330407D01*
X117082494Y-106936799D01*
X117094150Y-106954243D01*
X117547965Y-107272427D01*
X117452999Y-107367393D01*
X115707443Y-105621837D01*
X115660000Y-104975793D01*
X115660000Y-102547967D01*
X117727572Y-102547967D01*
X120000000Y-104820395D01*
X122272428Y-102547967D01*
X121954243Y-102094150D01*
X121349790Y-101768731D01*
X120693465Y-101567488D01*
X120010490Y-101498155D01*
X119327112Y-101563395D01*
X118669593Y-101760702D01*
X118063201Y-102082494D01*
X118045757Y-102094150D01*
X117727572Y-102547967D01*
X115660000Y-102547967D01*
X115660000Y-90068061D01*
X115805000Y-90068061D01*
X115805000Y-90271939D01*
X115844774Y-90471898D01*
X115922795Y-90660256D01*
X116019510Y-90805000D01*
X115922795Y-90949744D01*
X115844774Y-91138102D01*
X115805000Y-91338061D01*
X115805000Y-91541939D01*
X115844774Y-91741898D01*
X115922795Y-91930256D01*
X116019510Y-92075000D01*
X115922795Y-92219744D01*
X115844774Y-92408102D01*
X115805000Y-92608061D01*
X115805000Y-92811939D01*
X115844774Y-93011898D01*
X115922795Y-93200256D01*
X116019510Y-93345000D01*
X115922795Y-93489744D01*
X115844774Y-93678102D01*
X115805000Y-93878061D01*
X115805000Y-94081939D01*
X115844774Y-94281898D01*
X115922795Y-94470256D01*
X116019510Y-94615000D01*
X115922795Y-94759744D01*
X115844774Y-94948102D01*
X115805000Y-95148061D01*
X115805000Y-95351939D01*
X115844774Y-95551898D01*
X115922795Y-95740256D01*
X116019510Y-95885000D01*
X115922795Y-96029744D01*
X115844774Y-96218102D01*
X115805000Y-96418061D01*
X115805000Y-96621939D01*
X115844774Y-96821898D01*
X115922795Y-97010256D01*
X116036063Y-97179774D01*
X116180226Y-97323937D01*
X116349744Y-97437205D01*
X116538102Y-97515226D01*
X116738061Y-97555000D01*
X116941939Y-97555000D01*
X117141898Y-97515226D01*
X117330256Y-97437205D01*
X117475000Y-97340490D01*
X117619744Y-97437205D01*
X117808102Y-97515226D01*
X118008061Y-97555000D01*
X118211939Y-97555000D01*
X118411898Y-97515226D01*
X118600256Y-97437205D01*
X118745000Y-97340490D01*
X118889744Y-97437205D01*
X119078102Y-97515226D01*
X119278061Y-97555000D01*
X119481939Y-97555000D01*
X119681898Y-97515226D01*
X119870256Y-97437205D01*
X120039774Y-97323937D01*
X120183937Y-97179774D01*
X120297205Y-97010256D01*
X120375226Y-96821898D01*
X120415000Y-96621939D01*
X120415000Y-96418061D01*
X120381961Y-96251961D01*
X120548061Y-96285000D01*
X120751939Y-96285000D01*
X120951898Y-96245226D01*
X121140256Y-96167205D01*
X121309774Y-96053937D01*
X121453937Y-95909774D01*
X121567205Y-95740256D01*
X121645226Y-95551898D01*
X121685000Y-95351939D01*
X121685000Y-95148061D01*
X121651961Y-94981961D01*
X121818061Y-95015000D01*
X122021939Y-95015000D01*
X122221898Y-94975226D01*
X122410256Y-94897205D01*
X122579774Y-94783937D01*
X122723937Y-94639774D01*
X122837205Y-94470256D01*
X122915226Y-94281898D01*
X122955000Y-94081939D01*
X122955000Y-93878061D01*
X122915226Y-93678102D01*
X122837205Y-93489744D01*
X122740490Y-93345000D01*
X122837205Y-93200256D01*
X122915226Y-93011898D01*
X122955000Y-92811939D01*
X122955000Y-92608061D01*
X122915226Y-92408102D01*
X122837205Y-92219744D01*
X122740490Y-92075000D01*
X122837205Y-91930256D01*
X122915226Y-91741898D01*
X122955000Y-91541939D01*
X122955000Y-91338061D01*
X122915226Y-91138102D01*
X122837205Y-90949744D01*
X122723937Y-90780226D01*
X122579774Y-90636063D01*
X122410256Y-90522795D01*
X122221898Y-90444774D01*
X122021939Y-90405000D01*
X121818061Y-90405000D01*
X121651961Y-90438039D01*
X121685000Y-90271939D01*
X121685000Y-90068061D01*
X121645226Y-89868102D01*
X121567205Y-89679744D01*
X121453937Y-89510226D01*
X121309774Y-89366063D01*
X121140256Y-89252795D01*
X120951898Y-89174774D01*
X120751939Y-89135000D01*
X120548061Y-89135000D01*
X120348102Y-89174774D01*
X120159744Y-89252795D01*
X120015000Y-89349510D01*
X119870256Y-89252795D01*
X119681898Y-89174774D01*
X119481939Y-89135000D01*
X119278061Y-89135000D01*
X119078102Y-89174774D01*
X118889744Y-89252795D01*
X118745000Y-89349510D01*
X118600256Y-89252795D01*
X118411898Y-89174774D01*
X118211939Y-89135000D01*
X118008061Y-89135000D01*
X117808102Y-89174774D01*
X117619744Y-89252795D01*
X117475000Y-89349510D01*
X117330256Y-89252795D01*
X117141898Y-89174774D01*
X116941939Y-89135000D01*
X116738061Y-89135000D01*
X116538102Y-89174774D01*
X116349744Y-89252795D01*
X116180226Y-89366063D01*
X116036063Y-89510226D01*
X115922795Y-89679744D01*
X115844774Y-89868102D01*
X115805000Y-90068061D01*
X115660000Y-90068061D01*
X115660000Y-83463110D01*
X116033524Y-83463110D01*
X116154845Y-83693000D01*
X117348000Y-83693000D01*
X117348000Y-82499186D01*
X117118109Y-82378519D01*
X116843748Y-82475843D01*
X116593645Y-82624822D01*
X116377412Y-82819731D01*
X116203359Y-83053080D01*
X116078175Y-83315901D01*
X116033524Y-83463110D01*
X115660000Y-83463110D01*
X115660000Y-72795110D01*
X124288524Y-72795110D01*
X124409845Y-73025000D01*
X125603000Y-73025000D01*
X125603000Y-71831186D01*
X125373109Y-71710519D01*
X125098748Y-71807843D01*
X124848645Y-71956822D01*
X124632412Y-72151731D01*
X124458359Y-72385080D01*
X124333175Y-72647901D01*
X124288524Y-72795110D01*
X115660000Y-72795110D01*
X115660000Y-67452033D01*
X117727572Y-67452033D01*
X118045757Y-67905850D01*
X118650210Y-68231269D01*
X119306535Y-68432512D01*
X119989510Y-68501845D01*
X120672888Y-68436605D01*
X121330407Y-68239298D01*
X121936799Y-67917506D01*
X121954243Y-67905850D01*
X122272428Y-67452033D01*
X120000000Y-65179605D01*
X117727572Y-67452033D01*
X115660000Y-67452033D01*
X115660000Y-65029392D01*
X115663559Y-64989510D01*
X116498155Y-64989510D01*
X116563395Y-65672888D01*
X116760702Y-66330407D01*
X117082494Y-66936799D01*
X117094150Y-66954243D01*
X117547967Y-67272428D01*
X119820395Y-65000000D01*
X120179605Y-65000000D01*
X122452033Y-67272428D01*
X122905850Y-66954243D01*
X123231269Y-66349790D01*
X123432512Y-65693465D01*
X123501845Y-65010490D01*
X123436605Y-64327112D01*
X123239298Y-63669593D01*
X122917506Y-63063201D01*
X122905850Y-63045757D01*
X122452033Y-62727572D01*
X120179605Y-65000000D01*
X119820395Y-65000000D01*
X117547967Y-62727572D01*
X117094150Y-63045757D01*
X116768731Y-63650210D01*
X116567488Y-64306535D01*
X116498155Y-64989510D01*
X115663559Y-64989510D01*
X115729558Y-64250017D01*
X117342026Y-62547967D01*
X117727572Y-62547967D01*
X120000000Y-64820395D01*
X122272428Y-62547967D01*
X121954243Y-62094150D01*
X121543669Y-61873109D01*
X136988519Y-61873109D01*
X137109186Y-62103000D01*
X138303000Y-62103000D01*
X138303000Y-60909845D01*
X138073110Y-60788524D01*
X137925901Y-60833175D01*
X137663080Y-60958359D01*
X137429731Y-61132412D01*
X137234822Y-61348645D01*
X137085843Y-61598748D01*
X136988519Y-61873109D01*
X121543669Y-61873109D01*
X121349790Y-61768731D01*
X120693465Y-61567488D01*
X120010490Y-61498155D01*
X119327112Y-61563395D01*
X118669593Y-61760702D01*
X118063201Y-62082494D01*
X118045757Y-62094150D01*
X117727572Y-62547967D01*
X117342026Y-62547967D01*
X119000945Y-60796887D01*
X119371457Y-60707935D01*
X120024207Y-60660000D01*
X146919341Y-60660000D01*
X146700373Y-60878968D01*
G37*
%TD.AperFunction*%
D24*
X147352762Y-91801157D02*
X147354541Y-91802936D01*
X147370000Y-91802095D01*
X147385459Y-91802936D01*
X147387238Y-91801157D01*
X147390124Y-91801000D01*
X147447000Y-91801000D01*
X147447000Y-91821000D01*
X147467000Y-91821000D01*
X147467000Y-92075000D01*
X147447000Y-92075000D01*
X147447000Y-92095000D01*
X147390124Y-92095000D01*
X147387238Y-92094843D01*
X147385459Y-92093064D01*
X147370000Y-92093905D01*
X147354541Y-92093064D01*
X147352762Y-92094843D01*
X147349876Y-92095000D01*
X147193000Y-92095000D01*
X147193000Y-92075000D01*
X147173000Y-92075000D01*
X147173000Y-92018128D01*
X147174936Y-91982541D01*
X147173000Y-91980605D01*
X147173000Y-91915395D01*
X147174936Y-91913459D01*
X147173000Y-91877872D01*
X147173000Y-91821000D01*
X147193000Y-91821000D01*
X147193000Y-91801000D01*
X147349876Y-91801000D01*
X147352762Y-91801157D01*
%TA.AperFunction,Conductor*%
D25*
G36*
X147352762Y-91801157D02*
G01*
X147354541Y-91802936D01*
X147370000Y-91802095D01*
X147385459Y-91802936D01*
X147387238Y-91801157D01*
X147390124Y-91801000D01*
X147447000Y-91801000D01*
X147447000Y-91821000D01*
X147467000Y-91821000D01*
X147467000Y-92075000D01*
X147447000Y-92075000D01*
X147447000Y-92095000D01*
X147390124Y-92095000D01*
X147387238Y-92094843D01*
X147385459Y-92093064D01*
X147370000Y-92093905D01*
X147354541Y-92093064D01*
X147352762Y-92094843D01*
X147349876Y-92095000D01*
X147193000Y-92095000D01*
X147193000Y-92075000D01*
X147173000Y-92075000D01*
X147173000Y-92018128D01*
X147174936Y-91982541D01*
X147173000Y-91980605D01*
X147173000Y-91915395D01*
X147174936Y-91913459D01*
X147173000Y-91877872D01*
X147173000Y-91821000D01*
X147193000Y-91821000D01*
X147193000Y-91801000D01*
X147349876Y-91801000D01*
X147352762Y-91801157D01*
G37*
%TD.AperFunction*%
D24*
X148082000Y-89121000D02*
X148102000Y-89121000D01*
X148102000Y-89375000D01*
X148082000Y-89375000D01*
X148082000Y-89395000D01*
X147828000Y-89395000D01*
X147828000Y-89375000D01*
X147808000Y-89375000D01*
X147808000Y-89121000D01*
X147828000Y-89121000D01*
X147828000Y-89101000D01*
X148082000Y-89101000D01*
X148082000Y-89121000D01*
%TA.AperFunction,Conductor*%
D25*
G36*
X148082000Y-89121000D02*
G01*
X148102000Y-89121000D01*
X148102000Y-89375000D01*
X148082000Y-89375000D01*
X148082000Y-89395000D01*
X147828000Y-89395000D01*
X147828000Y-89375000D01*
X147808000Y-89375000D01*
X147808000Y-89121000D01*
X147828000Y-89121000D01*
X147828000Y-89101000D01*
X148082000Y-89101000D01*
X148082000Y-89121000D01*
G37*
%TD.AperFunction*%
D24*
X131431417Y-82970876D02*
X131540306Y-83103557D01*
X131672987Y-83212446D01*
X131824362Y-83293357D01*
X131988613Y-83343182D01*
X132159429Y-83360006D01*
X132634429Y-83360006D01*
X132805245Y-83343182D01*
X132969496Y-83293357D01*
X133120871Y-83212446D01*
X133205152Y-83143278D01*
X133251505Y-83181320D01*
X133237188Y-83228518D01*
X133224928Y-83353000D01*
X133224928Y-85353000D01*
X133237188Y-85477482D01*
X133273498Y-85597180D01*
X133332463Y-85707494D01*
X133411815Y-85804185D01*
X133508506Y-85883537D01*
X133618820Y-85942502D01*
X133738518Y-85978812D01*
X133863000Y-85991072D01*
X134878000Y-85991072D01*
X134878001Y-87507000D01*
X132569824Y-87507000D01*
X132581812Y-87467482D01*
X132594072Y-87343000D01*
X132591000Y-87153750D01*
X132432250Y-86995000D01*
X131558000Y-86995000D01*
X131558000Y-87015000D01*
X131304000Y-87015000D01*
X131304000Y-86995000D01*
X131284000Y-86995000D01*
X131284000Y-86741000D01*
X131304000Y-86741000D01*
X131304000Y-85916750D01*
X131558000Y-85916750D01*
X131558000Y-86741000D01*
X132432250Y-86741000D01*
X132591000Y-86582250D01*
X132594072Y-86393000D01*
X132581812Y-86268518D01*
X132545502Y-86148820D01*
X132486537Y-86038506D01*
X132407185Y-85941815D01*
X132310494Y-85862463D01*
X132200180Y-85803498D01*
X132080482Y-85767188D01*
X131956000Y-85754928D01*
X131716750Y-85758000D01*
X131558000Y-85916750D01*
X131304000Y-85916750D01*
X131145250Y-85758000D01*
X130906000Y-85754928D01*
X130781518Y-85767188D01*
X130661820Y-85803498D01*
X130551506Y-85862463D01*
X130478839Y-85922099D01*
X130454942Y-85902488D01*
X130303567Y-85821577D01*
X130139316Y-85771752D01*
X129968500Y-85754928D01*
X129393500Y-85754928D01*
X129222684Y-85771752D01*
X129058433Y-85821577D01*
X128907058Y-85902488D01*
X128774377Y-86011377D01*
X128665488Y-86144058D01*
X128584577Y-86295433D01*
X128580212Y-86309823D01*
X128444898Y-86253774D01*
X128244939Y-86214000D01*
X128041061Y-86214000D01*
X127841102Y-86253774D01*
X127785000Y-86277012D01*
X127785000Y-84800072D01*
X129120000Y-84800072D01*
X129244482Y-84787812D01*
X129364180Y-84751502D01*
X129474494Y-84692537D01*
X129571185Y-84613185D01*
X129650537Y-84516494D01*
X129709502Y-84406180D01*
X129745812Y-84286482D01*
X129758072Y-84162000D01*
X129758072Y-83940091D01*
X129843764Y-83869764D01*
X129868347Y-83839810D01*
X130738724Y-82969434D01*
X131430646Y-82969434D01*
X131431417Y-82970876D01*
%TA.AperFunction,Conductor*%
D25*
G36*
X131431417Y-82970876D02*
G01*
X131540306Y-83103557D01*
X131672987Y-83212446D01*
X131824362Y-83293357D01*
X131988613Y-83343182D01*
X132159429Y-83360006D01*
X132634429Y-83360006D01*
X132805245Y-83343182D01*
X132969496Y-83293357D01*
X133120871Y-83212446D01*
X133205152Y-83143278D01*
X133251505Y-83181320D01*
X133237188Y-83228518D01*
X133224928Y-83353000D01*
X133224928Y-85353000D01*
X133237188Y-85477482D01*
X133273498Y-85597180D01*
X133332463Y-85707494D01*
X133411815Y-85804185D01*
X133508506Y-85883537D01*
X133618820Y-85942502D01*
X133738518Y-85978812D01*
X133863000Y-85991072D01*
X134878000Y-85991072D01*
X134878001Y-87507000D01*
X132569824Y-87507000D01*
X132581812Y-87467482D01*
X132594072Y-87343000D01*
X132591000Y-87153750D01*
X132432250Y-86995000D01*
X131558000Y-86995000D01*
X131558000Y-87015000D01*
X131304000Y-87015000D01*
X131304000Y-86995000D01*
X131284000Y-86995000D01*
X131284000Y-86741000D01*
X131304000Y-86741000D01*
X131304000Y-85916750D01*
X131558000Y-85916750D01*
X131558000Y-86741000D01*
X132432250Y-86741000D01*
X132591000Y-86582250D01*
X132594072Y-86393000D01*
X132581812Y-86268518D01*
X132545502Y-86148820D01*
X132486537Y-86038506D01*
X132407185Y-85941815D01*
X132310494Y-85862463D01*
X132200180Y-85803498D01*
X132080482Y-85767188D01*
X131956000Y-85754928D01*
X131716750Y-85758000D01*
X131558000Y-85916750D01*
X131304000Y-85916750D01*
X131145250Y-85758000D01*
X130906000Y-85754928D01*
X130781518Y-85767188D01*
X130661820Y-85803498D01*
X130551506Y-85862463D01*
X130478839Y-85922099D01*
X130454942Y-85902488D01*
X130303567Y-85821577D01*
X130139316Y-85771752D01*
X129968500Y-85754928D01*
X129393500Y-85754928D01*
X129222684Y-85771752D01*
X129058433Y-85821577D01*
X128907058Y-85902488D01*
X128774377Y-86011377D01*
X128665488Y-86144058D01*
X128584577Y-86295433D01*
X128580212Y-86309823D01*
X128444898Y-86253774D01*
X128244939Y-86214000D01*
X128041061Y-86214000D01*
X127841102Y-86253774D01*
X127785000Y-86277012D01*
X127785000Y-84800072D01*
X129120000Y-84800072D01*
X129244482Y-84787812D01*
X129364180Y-84751502D01*
X129474494Y-84692537D01*
X129571185Y-84613185D01*
X129650537Y-84516494D01*
X129709502Y-84406180D01*
X129745812Y-84286482D01*
X129758072Y-84162000D01*
X129758072Y-83940091D01*
X129843764Y-83869764D01*
X129868347Y-83839810D01*
X130738724Y-82969434D01*
X131430646Y-82969434D01*
X131431417Y-82970876D01*
G37*
%TD.AperFunction*%
D24*
X160147000Y-85965000D02*
X160167000Y-85965000D01*
X160167000Y-86219000D01*
X160147000Y-86219000D01*
X160147000Y-86239000D01*
X159893000Y-86239000D01*
X159893000Y-86219000D01*
X159873000Y-86219000D01*
X159873000Y-85965000D01*
X159893000Y-85965000D01*
X159893000Y-85945000D01*
X160147000Y-85945000D01*
X160147000Y-85965000D01*
%TA.AperFunction,Conductor*%
D25*
G36*
X160147000Y-85965000D02*
G01*
X160167000Y-85965000D01*
X160167000Y-86219000D01*
X160147000Y-86219000D01*
X160147000Y-86239000D01*
X159893000Y-86239000D01*
X159893000Y-86219000D01*
X159873000Y-86219000D01*
X159873000Y-85965000D01*
X159893000Y-85965000D01*
X159893000Y-85945000D01*
X160147000Y-85945000D01*
X160147000Y-85965000D01*
G37*
%TD.AperFunction*%
D24*
X120301176Y-84129715D02*
X120321176Y-84129715D01*
X120321176Y-84383715D01*
X120301176Y-84383715D01*
X120301176Y-84403715D01*
X120047176Y-84403715D01*
X120047176Y-84383715D01*
X120027176Y-84383715D01*
X120027176Y-84129715D01*
X120047176Y-84129715D01*
X120047176Y-84109715D01*
X120301176Y-84109715D01*
X120301176Y-84129715D01*
%TA.AperFunction,Conductor*%
D25*
G36*
X120301176Y-84129715D02*
G01*
X120321176Y-84129715D01*
X120321176Y-84383715D01*
X120301176Y-84383715D01*
X120301176Y-84403715D01*
X120047176Y-84403715D01*
X120047176Y-84383715D01*
X120027176Y-84383715D01*
X120027176Y-84129715D01*
X120047176Y-84129715D01*
X120047176Y-84109715D01*
X120301176Y-84109715D01*
X120301176Y-84129715D01*
G37*
%TD.AperFunction*%
D24*
X132523929Y-78629011D02*
X133026600Y-78629011D01*
X133062125Y-78664536D01*
X133886375Y-78664536D01*
X133886375Y-78644536D01*
X134140375Y-78644536D01*
X134140375Y-78664536D01*
X134964625Y-78664536D01*
X135000150Y-78629011D01*
X135502821Y-78629011D01*
X135502821Y-78609011D01*
X135756821Y-78609011D01*
X135756821Y-78629011D01*
X136259492Y-78629011D01*
X136295017Y-78664536D01*
X137119267Y-78664536D01*
X137119267Y-78644536D01*
X137373267Y-78644536D01*
X137373267Y-78664536D01*
X138735713Y-78664536D01*
X138735713Y-78644536D01*
X138989713Y-78644536D01*
X138989713Y-78664536D01*
X139009713Y-78664536D01*
X139009713Y-78918536D01*
X138989713Y-78918536D01*
X138989713Y-80332434D01*
X139009713Y-80332434D01*
X139009713Y-80586434D01*
X138989713Y-80586434D01*
X138989713Y-80606434D01*
X138735713Y-80606434D01*
X138735713Y-80586434D01*
X137373267Y-80586434D01*
X137373267Y-80606434D01*
X137119267Y-80606434D01*
X137119267Y-80586434D01*
X135756821Y-80586434D01*
X135756821Y-80606434D01*
X135502821Y-80606434D01*
X135502821Y-80586434D01*
X134140375Y-80586434D01*
X134140375Y-80606434D01*
X133886375Y-80606434D01*
X133886375Y-80586434D01*
X132523929Y-80586434D01*
X132523929Y-80606434D01*
X132269929Y-80606434D01*
X132269929Y-80586434D01*
X131445679Y-80586434D01*
X131286929Y-80745184D01*
X131283857Y-80996934D01*
X131296117Y-81121416D01*
X131332427Y-81241114D01*
X131391392Y-81351428D01*
X131430703Y-81399328D01*
X131430646Y-81399434D01*
X130452118Y-81399434D01*
X130413565Y-81395637D01*
X130375012Y-81399434D01*
X130375005Y-81399434D01*
X130274056Y-81409377D01*
X130259678Y-81410793D01*
X130136631Y-81448119D01*
X130111706Y-81455680D01*
X129975333Y-81528572D01*
X129919143Y-81574687D01*
X129885753Y-81602089D01*
X129885750Y-81602092D01*
X129855802Y-81626670D01*
X129831224Y-81656619D01*
X129519469Y-81968373D01*
X129474494Y-81931463D01*
X129364180Y-81872498D01*
X129291620Y-81850487D01*
X129423475Y-81718632D01*
X129585990Y-81475411D01*
X129697932Y-81205158D01*
X129755000Y-80918260D01*
X129755000Y-80625740D01*
X129717075Y-80435082D01*
X131286929Y-78865229D01*
X131286929Y-78883013D01*
X131445677Y-78883013D01*
X131286929Y-79041761D01*
X131283857Y-79293511D01*
X131296117Y-79417993D01*
X131332427Y-79537691D01*
X131369860Y-79607723D01*
X131332427Y-79677754D01*
X131296117Y-79797452D01*
X131283857Y-79921934D01*
X131286929Y-80173684D01*
X131445679Y-80332434D01*
X132269929Y-80332434D01*
X132269929Y-78883011D01*
X132523929Y-78883011D01*
X132523929Y-80332434D01*
X133886375Y-80332434D01*
X133886375Y-78918536D01*
X134140375Y-78918536D01*
X134140375Y-80332434D01*
X135502821Y-80332434D01*
X135502821Y-78883011D01*
X135756821Y-78883011D01*
X135756821Y-80332434D01*
X137119267Y-80332434D01*
X137119267Y-78918536D01*
X137373267Y-78918536D01*
X137373267Y-80332434D01*
X138735713Y-80332434D01*
X138735713Y-78918536D01*
X137373267Y-78918536D01*
X137119267Y-78918536D01*
X136616596Y-78918536D01*
X136581071Y-78883011D01*
X135756821Y-78883011D01*
X135502821Y-78883011D01*
X134678571Y-78883011D01*
X134643046Y-78918536D01*
X134140375Y-78918536D01*
X133886375Y-78918536D01*
X133383704Y-78918536D01*
X133348179Y-78883011D01*
X132523929Y-78883011D01*
X132269929Y-78883011D01*
X132249929Y-78883011D01*
X132249929Y-78629011D01*
X132269929Y-78629011D01*
X132269929Y-78609011D01*
X132523929Y-78609011D01*
X132523929Y-78629011D01*
%TA.AperFunction,Conductor*%
D25*
G36*
X132523929Y-78629011D02*
G01*
X133026600Y-78629011D01*
X133062125Y-78664536D01*
X133886375Y-78664536D01*
X133886375Y-78644536D01*
X134140375Y-78644536D01*
X134140375Y-78664536D01*
X134964625Y-78664536D01*
X135000150Y-78629011D01*
X135502821Y-78629011D01*
X135502821Y-78609011D01*
X135756821Y-78609011D01*
X135756821Y-78629011D01*
X136259492Y-78629011D01*
X136295017Y-78664536D01*
X137119267Y-78664536D01*
X137119267Y-78644536D01*
X137373267Y-78644536D01*
X137373267Y-78664536D01*
X138735713Y-78664536D01*
X138735713Y-78644536D01*
X138989713Y-78644536D01*
X138989713Y-78664536D01*
X139009713Y-78664536D01*
X139009713Y-78918536D01*
X138989713Y-78918536D01*
X138989713Y-80332434D01*
X139009713Y-80332434D01*
X139009713Y-80586434D01*
X138989713Y-80586434D01*
X138989713Y-80606434D01*
X138735713Y-80606434D01*
X138735713Y-80586434D01*
X137373267Y-80586434D01*
X137373267Y-80606434D01*
X137119267Y-80606434D01*
X137119267Y-80586434D01*
X135756821Y-80586434D01*
X135756821Y-80606434D01*
X135502821Y-80606434D01*
X135502821Y-80586434D01*
X134140375Y-80586434D01*
X134140375Y-80606434D01*
X133886375Y-80606434D01*
X133886375Y-80586434D01*
X132523929Y-80586434D01*
X132523929Y-80606434D01*
X132269929Y-80606434D01*
X132269929Y-80586434D01*
X131445679Y-80586434D01*
X131286929Y-80745184D01*
X131283857Y-80996934D01*
X131296117Y-81121416D01*
X131332427Y-81241114D01*
X131391392Y-81351428D01*
X131430703Y-81399328D01*
X131430646Y-81399434D01*
X130452118Y-81399434D01*
X130413565Y-81395637D01*
X130375012Y-81399434D01*
X130375005Y-81399434D01*
X130274056Y-81409377D01*
X130259678Y-81410793D01*
X130136631Y-81448119D01*
X130111706Y-81455680D01*
X129975333Y-81528572D01*
X129919143Y-81574687D01*
X129885753Y-81602089D01*
X129885750Y-81602092D01*
X129855802Y-81626670D01*
X129831224Y-81656619D01*
X129519469Y-81968373D01*
X129474494Y-81931463D01*
X129364180Y-81872498D01*
X129291620Y-81850487D01*
X129423475Y-81718632D01*
X129585990Y-81475411D01*
X129697932Y-81205158D01*
X129755000Y-80918260D01*
X129755000Y-80625740D01*
X129717075Y-80435082D01*
X131286929Y-78865229D01*
X131286929Y-78883013D01*
X131445677Y-78883013D01*
X131286929Y-79041761D01*
X131283857Y-79293511D01*
X131296117Y-79417993D01*
X131332427Y-79537691D01*
X131369860Y-79607723D01*
X131332427Y-79677754D01*
X131296117Y-79797452D01*
X131283857Y-79921934D01*
X131286929Y-80173684D01*
X131445679Y-80332434D01*
X132269929Y-80332434D01*
X132269929Y-78883011D01*
X132523929Y-78883011D01*
X132523929Y-80332434D01*
X133886375Y-80332434D01*
X133886375Y-78918536D01*
X134140375Y-78918536D01*
X134140375Y-80332434D01*
X135502821Y-80332434D01*
X135502821Y-78883011D01*
X135756821Y-78883011D01*
X135756821Y-80332434D01*
X137119267Y-80332434D01*
X137119267Y-78918536D01*
X137373267Y-78918536D01*
X137373267Y-80332434D01*
X138735713Y-80332434D01*
X138735713Y-78918536D01*
X137373267Y-78918536D01*
X137119267Y-78918536D01*
X136616596Y-78918536D01*
X136581071Y-78883011D01*
X135756821Y-78883011D01*
X135502821Y-78883011D01*
X134678571Y-78883011D01*
X134643046Y-78918536D01*
X134140375Y-78918536D01*
X133886375Y-78918536D01*
X133383704Y-78918536D01*
X133348179Y-78883011D01*
X132523929Y-78883011D01*
X132269929Y-78883011D01*
X132249929Y-78883011D01*
X132249929Y-78629011D01*
X132269929Y-78629011D01*
X132269929Y-78609011D01*
X132523929Y-78609011D01*
X132523929Y-78629011D01*
G37*
%TD.AperFunction*%
D24*
X139743377Y-67150623D02*
X139876058Y-67259512D01*
X140027433Y-67340423D01*
X140191684Y-67390248D01*
X140362500Y-67407072D01*
X140450494Y-67407072D01*
X143183349Y-70139928D01*
X141644000Y-70139928D01*
X141519518Y-70152188D01*
X141399820Y-70188498D01*
X141289506Y-70247463D01*
X141192815Y-70326815D01*
X141113463Y-70423506D01*
X141054498Y-70533820D01*
X141030034Y-70614466D01*
X140954269Y-70530412D01*
X140720920Y-70356359D01*
X140458099Y-70231175D01*
X140310890Y-70186524D01*
X140081000Y-70307845D01*
X140081000Y-71501000D01*
X140101000Y-71501000D01*
X140101000Y-71755000D01*
X140081000Y-71755000D01*
X140081000Y-72948155D01*
X140310890Y-73069476D01*
X140458099Y-73024825D01*
X140720920Y-72899641D01*
X140954269Y-72725588D01*
X141030034Y-72641534D01*
X141054498Y-72722180D01*
X141113463Y-72832494D01*
X141192815Y-72929185D01*
X141289506Y-73008537D01*
X141399820Y-73067502D01*
X141519518Y-73103812D01*
X141644000Y-73116072D01*
X141709000Y-73116072D01*
X141709000Y-73214828D01*
X141590648Y-73226485D01*
X141426397Y-73276310D01*
X141275022Y-73357221D01*
X141142341Y-73466110D01*
X141033452Y-73598791D01*
X140952541Y-73750166D01*
X140902716Y-73914417D01*
X140885892Y-74085233D01*
X140885892Y-74338147D01*
X139305726Y-75918313D01*
X139271029Y-75907788D01*
X139100213Y-75890964D01*
X138625213Y-75890964D01*
X138454397Y-75907788D01*
X138290146Y-75957613D01*
X138144467Y-76035479D01*
X138206423Y-75919567D01*
X138256248Y-75755316D01*
X138273072Y-75584500D01*
X138273072Y-75084500D01*
X138256248Y-74913684D01*
X138206423Y-74749433D01*
X138125512Y-74598058D01*
X138016623Y-74465377D01*
X137963768Y-74422000D01*
X138016623Y-74378623D01*
X138125512Y-74245942D01*
X138206423Y-74094567D01*
X138256248Y-73930316D01*
X138273072Y-73759500D01*
X138273072Y-73259500D01*
X138256248Y-73088684D01*
X138206423Y-72924433D01*
X138190701Y-72895019D01*
X138360632Y-72781475D01*
X138567475Y-72574632D01*
X138689195Y-72392466D01*
X138758822Y-72509355D01*
X138953731Y-72725588D01*
X139187080Y-72899641D01*
X139449901Y-73024825D01*
X139597110Y-73069476D01*
X139827000Y-72948155D01*
X139827000Y-71755000D01*
X139807000Y-71755000D01*
X139807000Y-71501000D01*
X139827000Y-71501000D01*
X139827000Y-70307845D01*
X139597110Y-70186524D01*
X139449901Y-70231175D01*
X139187080Y-70356359D01*
X138953731Y-70530412D01*
X138758822Y-70746645D01*
X138689195Y-70863534D01*
X138567475Y-70681368D01*
X138360632Y-70474525D01*
X138117411Y-70312010D01*
X137847158Y-70200068D01*
X137560260Y-70143000D01*
X137267740Y-70143000D01*
X136980842Y-70200068D01*
X136710589Y-70312010D01*
X136467368Y-70474525D01*
X136260525Y-70681368D01*
X136144000Y-70855760D01*
X136027475Y-70681368D01*
X135820632Y-70474525D01*
X135577411Y-70312010D01*
X135307158Y-70200068D01*
X135020260Y-70143000D01*
X134727740Y-70143000D01*
X134691436Y-70150221D01*
X137144586Y-67697072D01*
X137397500Y-67697072D01*
X137568316Y-67680248D01*
X137732567Y-67630423D01*
X137883942Y-67549512D01*
X138016623Y-67440623D01*
X138125512Y-67307942D01*
X138129101Y-67301227D01*
X138202433Y-67340423D01*
X138366684Y-67390248D01*
X138537500Y-67407072D01*
X139037500Y-67407072D01*
X139208316Y-67390248D01*
X139372567Y-67340423D01*
X139523942Y-67259512D01*
X139656623Y-67150623D01*
X139700000Y-67097768D01*
X139743377Y-67150623D01*
%TA.AperFunction,Conductor*%
D25*
G36*
X139743377Y-67150623D02*
G01*
X139876058Y-67259512D01*
X140027433Y-67340423D01*
X140191684Y-67390248D01*
X140362500Y-67407072D01*
X140450494Y-67407072D01*
X143183349Y-70139928D01*
X141644000Y-70139928D01*
X141519518Y-70152188D01*
X141399820Y-70188498D01*
X141289506Y-70247463D01*
X141192815Y-70326815D01*
X141113463Y-70423506D01*
X141054498Y-70533820D01*
X141030034Y-70614466D01*
X140954269Y-70530412D01*
X140720920Y-70356359D01*
X140458099Y-70231175D01*
X140310890Y-70186524D01*
X140081000Y-70307845D01*
X140081000Y-71501000D01*
X140101000Y-71501000D01*
X140101000Y-71755000D01*
X140081000Y-71755000D01*
X140081000Y-72948155D01*
X140310890Y-73069476D01*
X140458099Y-73024825D01*
X140720920Y-72899641D01*
X140954269Y-72725588D01*
X141030034Y-72641534D01*
X141054498Y-72722180D01*
X141113463Y-72832494D01*
X141192815Y-72929185D01*
X141289506Y-73008537D01*
X141399820Y-73067502D01*
X141519518Y-73103812D01*
X141644000Y-73116072D01*
X141709000Y-73116072D01*
X141709000Y-73214828D01*
X141590648Y-73226485D01*
X141426397Y-73276310D01*
X141275022Y-73357221D01*
X141142341Y-73466110D01*
X141033452Y-73598791D01*
X140952541Y-73750166D01*
X140902716Y-73914417D01*
X140885892Y-74085233D01*
X140885892Y-74338147D01*
X139305726Y-75918313D01*
X139271029Y-75907788D01*
X139100213Y-75890964D01*
X138625213Y-75890964D01*
X138454397Y-75907788D01*
X138290146Y-75957613D01*
X138144467Y-76035479D01*
X138206423Y-75919567D01*
X138256248Y-75755316D01*
X138273072Y-75584500D01*
X138273072Y-75084500D01*
X138256248Y-74913684D01*
X138206423Y-74749433D01*
X138125512Y-74598058D01*
X138016623Y-74465377D01*
X137963768Y-74422000D01*
X138016623Y-74378623D01*
X138125512Y-74245942D01*
X138206423Y-74094567D01*
X138256248Y-73930316D01*
X138273072Y-73759500D01*
X138273072Y-73259500D01*
X138256248Y-73088684D01*
X138206423Y-72924433D01*
X138190701Y-72895019D01*
X138360632Y-72781475D01*
X138567475Y-72574632D01*
X138689195Y-72392466D01*
X138758822Y-72509355D01*
X138953731Y-72725588D01*
X139187080Y-72899641D01*
X139449901Y-73024825D01*
X139597110Y-73069476D01*
X139827000Y-72948155D01*
X139827000Y-71755000D01*
X139807000Y-71755000D01*
X139807000Y-71501000D01*
X139827000Y-71501000D01*
X139827000Y-70307845D01*
X139597110Y-70186524D01*
X139449901Y-70231175D01*
X139187080Y-70356359D01*
X138953731Y-70530412D01*
X138758822Y-70746645D01*
X138689195Y-70863534D01*
X138567475Y-70681368D01*
X138360632Y-70474525D01*
X138117411Y-70312010D01*
X137847158Y-70200068D01*
X137560260Y-70143000D01*
X137267740Y-70143000D01*
X136980842Y-70200068D01*
X136710589Y-70312010D01*
X136467368Y-70474525D01*
X136260525Y-70681368D01*
X136144000Y-70855760D01*
X136027475Y-70681368D01*
X135820632Y-70474525D01*
X135577411Y-70312010D01*
X135307158Y-70200068D01*
X135020260Y-70143000D01*
X134727740Y-70143000D01*
X134691436Y-70150221D01*
X137144586Y-67697072D01*
X137397500Y-67697072D01*
X137568316Y-67680248D01*
X137732567Y-67630423D01*
X137883942Y-67549512D01*
X138016623Y-67440623D01*
X138125512Y-67307942D01*
X138129101Y-67301227D01*
X138202433Y-67340423D01*
X138366684Y-67390248D01*
X138537500Y-67407072D01*
X139037500Y-67407072D01*
X139208316Y-67390248D01*
X139372567Y-67340423D01*
X139523942Y-67259512D01*
X139656623Y-67150623D01*
X139700000Y-67097768D01*
X139743377Y-67150623D01*
G37*
%TD.AperFunction*%
%TD*%
M02*
